<?xml version="1.0" encoding="UTF-8"?>
<svg id="Layer_1" data-name="Layer 1" xmlns="http://www.w3.org/2000/svg" width="252" height="109.102" xmlns:xlink="http://www.w3.org/1999/xlink" viewBox="0 0 252 109.102">
  <defs>
    <style>
      .cls-1 {
        fill: #4d4d4d;
      }

      .cls-1, .cls-2, .cls-3, .cls-4 {
        stroke-width: 0px;
      }

      .cls-2 {
        fill: #003363;
      }

      .cls-3 {
        fill: none;
      }

      .cls-5 {
        clip-path: url(#clippath);
      }

      .cls-4 {
        fill: #828282;
      }
    </style>
    <clipPath id="clippath">
      <rect class="cls-3" width="252" height="109.102"/>
    </clipPath>
  </defs>
  <g class="cls-5">
    <path class="cls-2" d="m39.545,59.472c-.605,0-1.297-.015-2.076-.044-.78-.029-1.58-.102-2.399-.219-.819-.118-1.618-.278-2.398-.483-.779-.204-1.477-.478-2.091-.819-.614-.341-1.107-.764-1.476-1.272-.372-.506-.556-1.111-.556-1.813,0-.429.097-.809.292-1.141.195-.331.458-.604.789-.819.332-.214.707-.38,1.127-.496.419-.118.863-.176,1.33-.176.546,0,1.058.117,1.536.351.477.234.936.522,1.374.862.439.342.873.712,1.301,1.112.43.4.878.77,1.346,1.111.468.342.965.629,1.492.863.526.234,1.101.351,1.724.351,1.151-.098,2.165-.498,3.042-1.199.878-.702,1.61-1.574,2.194-2.618.585-1.042,1.023-2.183,1.316-3.421.292-1.238.439-2.443.439-3.612,0-1.443-.166-2.671-.497-3.685-.332-1.014-.746-1.842-1.244-2.486-.497-.643-1.048-1.116-1.652-1.418-.605-.302-1.18-.454-1.725-.454-.449,0-.839.05-1.17.146-.332.098-.624.21-.877.337-.254.127-.468.263-.644.41-.175.145-.341.268-.497.365-.137.098-.283.176-.438.234-.157.059-.401.087-.732.087-.351,0-.628-.131-.833-.394-.205-.264-.307-.502-.307-.716,0-.118.121-.317.365-.6.244-.283.472-.522.688-.717.701-.624,1.437-1.325,2.207-2.105.77-.78,1.467-1.599,2.092-2.457.623-.857,1.14-1.735,1.549-2.632.41-.896.614-1.784.614-2.661,0-.663-.131-1.302-.394-1.916-.263-.614-.614-1.165-1.053-1.653-.438-.487-.936-.877-1.492-1.169-.555-.292-1.125-.439-1.71-.439-1.112,0-2.086.19-2.925.57-.838.381-1.56.854-2.164,1.419-.604.565-1.112,1.165-1.521,1.798-.409.634-.751,1.205-1.024,1.711-.117.215-.248.352-.395.41-.146.058-.336.087-.57.087-.097,0-.218-.019-.365-.058-.147-.039-.289-.098-.425-.176-.136-.077-.252-.175-.35-.292-.098-.117-.146-.253-.146-.409,0,.019.014-.01.044-.088.028-.078.063-.166.102-.263.039-.098.087-.215.146-.351.487-1.17,1.126-2.252,1.915-3.247.79-.994,1.663-1.847,2.618-2.559.955-.711,1.969-1.267,3.042-1.667,1.071-.399,2.144-.599,3.217-.599,1.539,0,2.934.156,4.181.468,1.249.312,2.321.77,3.217,1.374.898.605,1.59,1.351,2.077,2.237.487.888.732,1.906.732,3.057,0,.877-.181,1.715-.541,2.515-.362.8-.829,1.564-1.405,2.296-.575.731-1.228,1.418-1.959,2.062-.731.643-1.477,1.228-2.237,1.754,1.716.175,3.187.585,4.416,1.229,1.228.642,2.237,1.447,3.027,2.412.789.965,1.369,2.052,1.739,3.261.371,1.21.556,2.457.556,3.743,0,1.444-.233,2.813-.701,4.109-.469,1.297-1.093,2.486-1.872,3.568-.78,1.083-1.692,2.058-2.734,2.925-1.044.867-2.141,1.608-3.291,2.222-1.15.614-2.325,1.082-3.524,1.404-1.198.323-2.345.483-3.436.483"/>
    <path class="cls-2" d="m57.271,38.357c0-2.183.273-4.245.819-6.186.546-1.939,1.316-3.729,2.31-5.366.995-1.638,2.193-3.109,3.598-4.416,1.403-1.306,2.957-2.413,4.664-3.319,1.705-.907,3.534-1.604,5.484-2.092,1.949-.486,3.986-.731,6.112-.731,1.793,0,3.524.162,5.191.483,1.667.322,3.388.698,5.162,1.126.292.078.599.176.921.292.322.118.623.23.906.337s.541.2.776.277c.233.078.409.118.526.118.039,0,.17-.04.394-.118.225-.077.385-.116.483-.116h1.346c.234,0,.35.165.35.497v9.534c0,.117-.043.195-.131.233-.088.04-.278.059-.57.059-.059,0-.21-.004-.454-.014-.244-.01-.394-.064-.453-.161-.039-.059-.112-.176-.219-.352-.108-.175-.225-.355-.352-.54-.126-.185-.243-.361-.35-.526-.107-.167-.171-.278-.191-.337-.74-1.462-1.549-2.695-2.426-3.7-.878-1.003-1.848-1.817-2.911-2.441-1.063-.625-2.218-1.077-3.465-1.36-1.248-.283-2.603-.425-4.066-.425-1.852,0-3.494.215-4.927.644-1.433.429-2.686,1.033-3.758,1.813-1.073.78-1.974,1.717-2.706,2.808-.731,1.092-1.325,2.286-1.783,3.582-.459,1.297-.79,2.681-.995,4.153-.205,1.472-.307,2.988-.307,4.547,0,1.658.118,3.301.351,4.928.234,1.629.614,3.179,1.141,4.651.526,1.472,1.203,2.836,2.033,4.094.828,1.257,1.827,2.349,2.997,3.276,1.17.926,2.534,1.652,4.095,2.178,1.559.527,3.324.79,5.293.79,1.657,0,3.202-.248,4.635-.745,1.434-.499,2.745-1.171,3.934-2.019,1.189-.848,2.246-1.823,3.173-2.925.926-1.101,1.72-2.256,2.383-3.465.039-.097.083-.151.132-.16.049-.01.122-.015.219-.015h1.492c.059,0,.122.024.19.073.068.048.102.151.102.307,0,.058-.043.209-.132.453-.087.244-.18.453-.277.629l-4.036,8.891c-.04.058-.097.107-.176.146-.078.039-.146.059-.205.059-.467,0-.794-.04-.979-.118-.186-.077-.375-.117-.57-.117-.585,0-1.36.103-2.325.308-.966.204-2.009.424-3.129.657-1.122.235-2.253.453-3.393.659-1.141.204-2.16.306-3.056.306-2.047,0-4.036-.224-5.966-.672-1.93-.449-3.744-1.097-5.44-1.945s-3.246-1.891-4.65-3.129-2.613-2.637-3.626-4.197c-1.014-1.559-1.799-3.28-2.355-5.162-.555-1.881-.833-3.894-.833-6.039"/>
    <path class="cls-4" d="m98.628,58.712c-.117,0-.186-.034-.205-.103-.019-.068-.029-.112-.029-.131v-1.257c0-.02.01-.063.029-.132.019-.068.088-.103.205-.103h.643c.41,0,.917-.024,1.521-.073.605-.048,1.189-.185,1.755-.409.565-.224,1.048-.565,1.448-1.024.399-.458.6-1.086.6-1.886v-31.175c0-.604-.132-1.117-.396-1.536-.263-.419-.595-.76-.994-1.023-.4-.264-.844-.454-1.33-.571-.488-.117-.946-.175-1.375-.175h-1.872c-.117,0-.186-.034-.205-.102s-.029-.113-.029-.132v-1.258c0-.019.01-.063.029-.132.019-.068.088-.101.205-.101h.643l12.02-.205c1.131-.02,2.355-.035,3.671-.044,1.315-.01,2.539-.015,3.67-.015,1.228,0,2.33.015,3.305.044.975.029,1.91.088,2.807.175.897.088,1.803.201,2.72.337.917.136,1.94.322,3.071.555,2.164.45,4.177,1.277,6.039,2.486,1.862,1.209,3.47,2.672,4.826,4.387,1.354,1.716,2.417,3.617,3.187,5.703.77,2.086,1.155,4.222,1.155,6.405,0,2.105-.292,4.099-.877,5.981-.585,1.881-1.399,3.616-2.442,5.205-1.043,1.589-2.281,3.022-3.714,4.299s-3.008,2.359-4.723,3.246c-1.716.888-3.539,1.57-5.469,2.047-1.93.478-3.909.717-5.937.717h-23.952Zm14.301-4.533c0,.565.18,1.005.541,1.316.36.312.838.541,1.433.687.595.147,1.292.23,2.091.249.799.019,1.638.029,2.515.029,5.792,0,10.133-1.599,13.029-4.796,2.895-3.197,4.344-7.857,4.344-13.979,0-2.691-.328-5.157-.981-7.4-.653-2.241-1.648-4.171-2.983-5.79-1.335-1.619-3.012-2.876-5.029-3.773-2.019-.896-4.402-1.345-7.151-1.345h-7.077c-.294,0-.488.064-.586.19-.097.127-.146.327-.146.6v34.012Z"/>
    <path class="cls-4" d="m143.956,58.624c-.029-.059-.044-.107-.044-.146v-1.579c0-.039.01-.089.029-.147.019-.058.088-.088.206-.088h.701c.058,0,.249-.014.57-.043.322-.029.692-.079,1.112-.147.419-.068.852-.16,1.301-.278.448-.116.829-.263,1.141-.438.682-.39,1.188-.892,1.52-1.506.332-.614.497-1.301.497-2.062v-29.187c0-.701-.229-1.277-.687-1.725-.458-.449-1.004-.804-1.638-1.068-.633-.263-1.277-.443-1.929-.541-.654-.097-1.175-.146-1.565-.146h-.644c-.098,0-.161-.034-.189-.103-.03-.068-.045-.111-.045-.132v-1.579c0-.038.015-.087.045-.145.028-.059.091-.088.189-.088h22.432c.097,0,.16.029.19.088.029.058.043.107.043.145v1.579c0,.04-.014.089-.043.147-.03.059-.093.088-.19.088h-1.258c-1.093,0-2.106.088-3.041.264-.936.174-1.696.37-2.282.584-.448.156-.736.414-.863.775-.126.361-.189.98-.189,1.857v30.678c.038.332.214.644.525.936.312.293.663.439,1.054.439h10.235c.683,0,1.332-.146,1.946-.439.614-.292,3.581-5.171,3.875-5.571.292-.399.545-.687.76-.862.097-.059.209-.117.336-.176.127-.059.278-.088.453-.088.331,0,.498.128.498.38,0,.117-.03.235-.088.352l-3.334,9.534c-.078.156-.166.282-.263.379-.098.098-.215.146-.352.146h-30.823c-.099,0-.162-.028-.191-.087"/>
    <path class="cls-4" d="m178.126,57.338c0-.157.077-.235.233-.235.371-.019.805-.073,1.302-.161.497-.087,1.004-.272,1.521-.555.516-.282,1.018-.702,1.506-1.258.487-.555.896-1.32,1.228-2.295l11.757-34.1c0,.019.005.009.015-.03.009-.038.014-.078.014-.117,0-.136-.054-.307-.16-.512-.108-.205-.162-.355-.162-.453,0-.097.039-.146.118-.146h8.481c.038.02.092.039.161.058.068.02.121.078.16.176l12.371,34.715c.195.545.38,1.013.556,1.402.176.391.385.737.628,1.039.244.303.551.575.922.819.369.244.848.493,1.433.745.273.137.643.284,1.111.44.468.156.917.233,1.345.233.097,0,.161.03.191.088.028.058.043.117.043.175v1.112c0,.039-.015.088-.043.146-.03.059-.094.088-.191.088h-20.53c-.098,0-.161-.029-.19-.088-.029-.058-.044-.107-.044-.146v-1.14c0-.04.015-.089.044-.147s.092-.088.19-.088c.078,0,.156-.005.234-.014.077-.01.136-.015.176-.015.214-.019.521-.039.921-.059.399-.018.833-.053,1.301-.102.468-.048.94-.126,1.419-.234.477-.107.91-.263,1.301-.468.39-.205.712-.472.965-.804.253-.331.38-.741.38-1.229,0-.116-.019-.252-.058-.409l-3.831-10.558c-.02-.038-.054-.126-.103-.263-.048-.136-.127-.278-.234-.424-.107-.146-.244-.278-.409-.395-.166-.116-.366-.175-.599-.175h-10.558c-.254,0-.468.059-.644.175-.175.117-.321.245-.438.381-.118.136-.21.273-.278.409-.069.137-.103.215-.103.234-.624,1.833-1.15,3.378-1.579,4.636-.429,1.257-.784,2.295-1.067,3.114s-.503,1.453-.658,1.901c-.156.449-.268.776-.336.98-.069.205-.113.356-.132.453,0,.059.009.122.029.19.019.069.039.132.058.191.157.487.444.891.863,1.214.419.321.901.574,1.448.76.545.185,1.107.316,1.682.395.574.078,1.086.116,1.535.116h.761c.096,0,.16.03.189.088.03.058.044.107.044.147v1.14c0,.039-.014.088-.044.146-.029.059-.093.088-.189.088h-15.823c-.156,0-.233-.077-.233-.234v-1.14Zm15.324-19.595c-.039.097-.069.195-.087.292-.02.098-.03.195-.03.293,0,.116.03.21.088.278.058.068.175.102.351.102h8.774c.214,0,.355-.044.424-.132.068-.087.102-.19.102-.307,0-.097-.01-.185-.029-.263-.02-.077-.049-.166-.088-.263l-3.89-10.675c-.098-.273-.243-.473-.438-.599-.196-.126-.371-.19-.527-.19s-.332.073-.526.219c-.195.146-.341.346-.439.6l-3.685,10.645Z"/>
    <path class="cls-2" d="m29.115,68.506c0-.57.071-1.107.213-1.614.143-.505.344-.972.603-1.399.26-.428.573-.812.939-1.153s.772-.629,1.217-.866c.444-.236.921-.418,1.43-.545.509-.127,1.04-.19,1.595-.19.468,0,.919.042,1.354.126.435.083.884.181,1.346.293.077.02.157.046.241.076s.163.06.236.088c.074.028.142.052.202.073.061.02.108.03.138.03.01,0,.044-.01.102-.03.059-.021.101-.031.126-.031h.237c.062,0,.092.043.092.13v2.372c0,.031-.012.051-.035.061-.022.01-.072.015-.148.015-.015,0-.036,0-.062-.003-.025-.003-.045-.017-.061-.042-.01-.016-.023-.039-.038-.072-.015-.034-.032-.068-.049-.104-.018-.035-.036-.068-.053-.099-.019-.031-.03-.053-.035-.069-.382-.762-.865-1.336-1.45-1.72-.584-.384-1.259-.576-2.021-.576-.723,0-1.36.122-1.916.366-.554.245-1.02.58-1.399,1.007-.379.428-.665.935-.859,1.522-.193.587-.289,1.225-.289,1.911,0,.483.048.953.145,1.408.096.455.237.884.422,1.285.187.403.417.77.692,1.103.274.333.59.62.949.862.359.242.758.43,1.198.565.44.135.917.202,1.43.202.433,0,.842-.071,1.228-.214.387-.142.742-.33,1.065-.565.323-.233.612-.5.866-.8.254-.301.468-.608.641-.923.01-.026.022-.04.034-.042.013-.003.032-.004.057-.004h.099c.016,0,.032.006.051.019.017.012.026.039.026.08,0,.016-.002.036-.004.061-.002.025-.016.061-.042.107l-1.053,2.319c-.01.015-.025.028-.045.038-.02.011-.039.016-.054.016-.117-.031-.2-.049-.248-.054-.048-.005-.101-.008-.156-.008-.153,0-.35.027-.591.08-.242.054-.502.111-.778.172-.277.061-.559.119-.844.172-.284.053-.544.079-.777.079-.535,0-1.054-.058-1.557-.175-.504-.117-.977-.286-1.419-.507-.442-.221-.847-.493-1.214-.816-.366-.324-.681-.688-.945-1.095-.265-.407-.469-.856-.614-1.347-.146-.491-.218-1.016-.218-1.575"/>
    <path class="cls-2" d="m40.833,70.306c0-.472.096-.924.287-1.354.191-.43.449-.809.775-1.14.326-.331.706-.594,1.138-.79.433-.196.888-.294,1.367-.294.504,0,.983.092,1.435.275.454.183.851.437,1.192.763.341.325.613.708.814,1.149.2.439.301.914.301,1.422,0,.524-.091,1.01-.275,1.457-.184.448-.437.837-.763,1.168-.326.33-.713.589-1.161.778-.448.188-.939.282-1.474.282-.53,0-1.016-.097-1.459-.29-.443-.193-.826-.456-1.149-.79-.324-.333-.576-.725-.756-1.178-.181-.453-.272-.939-.272-1.458m1.267-.48c0,.422.052.856.156,1.3.104.446.265.853.481,1.221.216.369.492.672.828.909.336.236.737.354,1.205.354.361,0,.672-.08.931-.24.26-.16.473-.368.641-.622s.291-.539.37-.855c.079-.315.118-.631.118-.946,0-.248-.027-.515-.08-.797-.054-.282-.132-.562-.237-.839-.104-.277-.232-.542-.385-.794-.152-.251-.329-.473-.53-.668-.201-.193-.424-.346-.671-.461-.247-.114-.515-.171-.805-.171-.341,0-.639.079-.893.236-.255.158-.465.362-.633.614-.168.252-.293.533-.374.843-.082.31-.122.616-.122.916"/>
    <path class="cls-2" d="m52.415,73.694c0,.071-.025.112-.076.123h-3.403c-.051-.011-.076-.052-.076-.123,0-.045.025-.079.076-.099.066-.03.16-.055.282-.072.123-.018.244-.054.366-.108.123-.053.23-.137.321-.251.092-.114.137-.284.137-.507v-9.514c0-.122-.033-.218-.099-.286-.066-.069-.15-.121-.251-.156-.103-.036-.212-.066-.329-.088-.116-.023-.228-.05-.336-.081-.03-.009-.054-.023-.072-.041-.018-.018-.027-.055-.027-.111,0-.026.008-.05.023-.076.016-.026.046-.051.091-.077l1.947-.915c.02-.01.042-.021.064-.031.023-.01.04-.015.05-.015.086,0,.129.061.129.183v11.208c0,.223.046.393.138.507.092.114.198.198.32.251.123.054.245.09.366.108.122.017.217.042.283.072.051.02.076.054.076.099"/>
    <path class="cls-2" d="m56.389,73.694c0,.071-.025.112-.076.123h-3.403c-.051-.011-.076-.052-.076-.123,0-.045.025-.079.076-.099.066-.03.16-.055.282-.072.123-.018.244-.054.366-.108.123-.053.23-.137.321-.251.092-.114.137-.284.137-.507v-9.514c0-.122-.033-.218-.099-.286-.066-.069-.15-.121-.251-.156-.103-.036-.212-.066-.329-.088-.116-.023-.228-.05-.336-.081-.03-.009-.054-.023-.072-.041-.018-.018-.027-.055-.027-.111,0-.026.008-.05.023-.076.016-.026.046-.051.091-.077l1.947-.915c.02-.01.042-.021.064-.031.023-.01.04-.015.05-.015.086,0,.129.061.129.183v11.208c0,.223.046.393.138.507.092.114.198.198.32.251.123.054.245.09.366.108.122.017.217.042.283.072.051.02.076.054.076.099"/>
    <path class="cls-2" d="m57.19,73.817c-.05-.011-.076-.052-.076-.123,0-.045.026-.079.076-.099.067-.03.161-.055.282-.072.123-.018.245-.053.367-.107s.229-.138.32-.252c.092-.114.137-.284.137-.507v-4.036c0-.122-.032-.217-.099-.286-.066-.069-.15-.121-.251-.156-.102-.037-.211-.065-.328-.089-.118-.022-.229-.049-.336-.079-.03-.011-.055-.025-.072-.042-.018-.018-.027-.055-.027-.111,0-.026.007-.051.022-.076.015-.026.047-.051.092-.076l1.946-.916c.019-.01.041-.021.065-.031.023-.009.039-.015.049-.015.086,0,.13.061.13.183v5.73c0,.223.046.393.138.507.091.114.197.198.32.252.121.054.244.089.366.107.122.017.216.042.282.072.051.02.076.054.076.099,0,.071-.025.112-.076.123h-3.403Zm.794-9.972c0-.234.076-.42.228-.557.153-.138.347-.206.58-.206.098,0,.189.023.276.068.086.047.162.106.228.18s.119.156.156.244c.038.09.057.179.057.271,0,.102-.019.197-.057.286-.037.089-.089.169-.153.24-.063.071-.138.128-.225.168-.086.041-.174.061-.267.061-.228,0-.422-.066-.583-.198-.16-.133-.24-.318-.24-.557"/>
    <path class="cls-2" d="m63.576,66.415c.02-.01.042-.02.065-.03.022-.01.039-.015.049-.015.087,0,.13.06.13.183v1.19c.016.05.036.076.061.076.026,0,.044-.003.057-.008.013-.005.034-.013.066-.023.325-.168.607-.309.846-.423.239-.114.445-.211.618-.29.173-.079.319-.14.438-.183.12-.043.225-.076.317-.099.092-.024.173-.037.244-.042.072-.005.146-.008.222-.008.249,0,.465.053.649.161.182.106.336.247.461.422.124.176.226.378.305.604.079.225.138.457.179.693.041.237.069.471.084.703.015.231.023.441.023.629,0,.351-.012.703-.034,1.056-.023.354-.035.745-.035,1.171v.443c0,.153.029.28.084.381.056.103.129.186.218.252.089.067.186.116.293.149.107.034.212.061.313.08.102.021.194.037.279.05.084.013.149.03.194.05.051.02.077.055.077.107,0,.071-.026.111-.077.121h-3.677c-.051-.01-.076-.05-.076-.121,0-.052.025-.087.076-.107.066-.031.16-.055.282-.073.122-.018.244-.056.367-.114.122-.058.227-.152.316-.279.089-.126.133-.313.133-.557.026-.157.042-.332.05-.523.008-.19.012-.4.012-.629s-.003-.474-.008-.736c-.005-.262-.007-.553-.007-.873,0-.25-.012-.503-.035-.76-.023-.257-.079-.49-.168-.702-.089-.211-.22-.384-.393-.518-.173-.135-.412-.203-.717-.203-.051,0-.114.007-.191.02-.077.012-.182.042-.316.087-.135.046-.309.115-.523.207-.214.091-.483.216-.808.373-.041.026-.083.055-.126.088-.044.033-.068.075-.073.126v4.104c0,.229.046.403.137.523.092.12.199.206.32.259.123.054.245.089.367.107.122.018.216.042.282.073.051.02.076.055.076.107,0,.071-.025.111-.076.121h-3.402c-.051-.01-.077-.05-.077-.121,0-.052.026-.087.077-.107.065-.031.16-.055.282-.073.122-.018.245-.053.366-.107.122-.053.229-.139.32-.259.092-.12.138-.294.138-.523v-4.379c0-.122-.033-.217-.099-.286-.066-.069-.15-.121-.252-.156-.102-.036-.211-.065-.328-.088-.117-.023-.229-.049-.336-.08-.031-.011-.054-.024-.072-.042s-.027-.055-.027-.111c0-.026.008-.051.023-.076.015-.026.045-.05.092-.076l1.945-.916Z"/>
    <path class="cls-2" d="m74.929,68.506c0-.57.071-1.107.213-1.614.143-.505.344-.972.603-1.399.26-.428.573-.812.939-1.153s.772-.629,1.217-.866c.444-.236.921-.418,1.43-.545.509-.127,1.04-.19,1.595-.19.468,0,.919.042,1.354.126.435.083.884.181,1.346.293.077.02.157.046.241.076s.163.06.236.088c.074.028.142.052.202.073.061.02.108.03.138.03.01,0,.044-.01.102-.03.059-.021.101-.031.126-.031h.237c.062,0,.092.043.092.13v2.372c0,.031-.012.051-.035.061-.022.01-.072.015-.148.015-.015,0-.036,0-.062-.003-.025-.003-.045-.017-.061-.042-.01-.016-.023-.039-.038-.072-.015-.034-.032-.068-.049-.104-.018-.035-.036-.068-.053-.099-.019-.031-.03-.053-.035-.069-.382-.762-.865-1.336-1.45-1.72-.584-.384-1.259-.576-2.021-.576-.723,0-1.36.122-1.916.366-.554.245-1.02.58-1.399,1.007-.379.428-.665.935-.859,1.522-.193.587-.289,1.225-.289,1.911,0,.483.048.953.145,1.408.096.455.237.884.422,1.285.187.403.417.77.692,1.103.274.333.59.62.949.862.359.242.758.43,1.198.565.44.135.917.202,1.43.202.433,0,.842-.071,1.228-.214.387-.142.742-.33,1.065-.565.323-.233.612-.5.866-.8.254-.301.468-.608.641-.923.01-.026.022-.04.034-.042.013-.003.032-.004.057-.004h.099c.016,0,.032.006.051.019.017.012.026.039.026.08,0,.016-.002.036-.004.061-.002.025-.016.061-.042.107l-1.053,2.319c-.01.015-.025.028-.045.038-.02.011-.039.016-.054.016-.117-.031-.2-.049-.248-.054-.048-.005-.101-.008-.156-.008-.153,0-.35.027-.591.08-.242.054-.502.111-.778.172-.277.061-.559.119-.844.172-.284.053-.544.079-.777.079-.535,0-1.054-.058-1.557-.175-.504-.117-.977-.286-1.419-.507-.442-.221-.847-.493-1.214-.816-.366-.324-.681-.688-.945-1.095-.265-.407-.469-.856-.614-1.347-.146-.491-.218-1.016-.218-1.575"/>
    <path class="cls-2" d="m86.647,70.306c0-.472.096-.924.287-1.354.191-.43.449-.809.775-1.14.326-.331.706-.594,1.138-.79.433-.196.888-.294,1.367-.294.504,0,.983.092,1.435.275.454.183.851.437,1.192.763.341.325.613.708.814,1.149.2.439.301.914.301,1.422,0,.524-.091,1.01-.275,1.457-.184.448-.437.837-.763,1.168-.326.33-.713.589-1.161.778-.448.188-.939.282-1.474.282-.53,0-1.016-.097-1.459-.29-.443-.193-.826-.456-1.149-.79-.324-.333-.576-.725-.756-1.178-.181-.453-.272-.939-.272-1.458m1.267-.48c0,.422.052.856.156,1.3.104.446.265.853.481,1.221.216.369.492.672.828.909.336.236.737.354,1.205.354.361,0,.672-.08.931-.24.26-.16.473-.368.641-.622s.291-.539.37-.855c.079-.315.118-.631.118-.946,0-.248-.027-.515-.08-.797-.054-.282-.132-.562-.237-.839-.104-.277-.232-.542-.385-.794-.152-.251-.329-.473-.53-.668-.201-.193-.424-.346-.671-.461-.247-.114-.515-.171-.805-.171-.341,0-.639.079-.893.236-.255.158-.465.362-.633.614-.168.252-.293.533-.374.843-.082.31-.122.616-.122.916"/>
    <path class="cls-2" d="m95.57,67.823c-.12-.104-.248-.171-.386-.202-.035-.011-.074-.016-.118-.019-.043-.002-.082-.007-.118-.016-.036-.007-.064-.02-.088-.038-.022-.017-.034-.049-.034-.095,0-.041.006-.076.019-.106.013-.031.047-.054.103-.069l1.747-.504c.031-.01.063-.018.096-.023.032-.005.064-.007.094-.007.052,0,.077.043.077.129v5.119c0,.188.046.353.138.492.091.14.212.256.362.347.15.092.323.161.519.207.196.045.398.069.606.069.168,0,.335-.02.5-.057.165-.039.323-.091.473-.158.15-.065.286-.146.408-.24.122-.094.224-.199.305-.317v-4.134c-.015-.148-.083-.274-.202-.378-.12-.104-.248-.171-.385-.202-.036-.011-.075-.016-.118-.019-.043-.002-.083-.007-.119-.016-.035-.007-.065-.02-.087-.038-.024-.017-.035-.049-.035-.095,0-.041.006-.076.02-.106.012-.031.047-.054.102-.069l1.747-.504c.031-.01.062-.018.096-.023.033-.005.065-.007.095-.007.02,0,.039.009.054.027.015.017.022.059.022.125v5.417c.026.223.089.384.191.48.102.097.267.146.496.146l.442-.031c.021,0,.033.014.039.042.005.028.008.057.008.088,0,.01-.007.022-.02.038-.012.015-.044.036-.095.061l-2.03.839c-.01.005-.035.014-.076.027s-.063.018-.068.018c-.037,0-.058-.021-.065-.064-.008-.043-.012-.085-.012-.126v-.687c-.01-.035-.02-.057-.03-.064-.01-.008-.026-.012-.046-.012-.025,0-.046.005-.061.015-.016.01-.036.021-.061.031-.178.092-.377.191-.599.298-.221.106-.454.205-.698.297-.244.091-.495.168-.752.229-.256.061-.51.092-.758.092-.143,0-.301-.02-.473-.058-.174-.038-.336-.103-.489-.194-.152-.092-.28-.213-.382-.363-.101-.15-.152-.337-.152-.56v-4.654c-.016-.148-.083-.274-.202-.378"/>
    <path class="cls-2" d="m105.621,66.415c.02-.01.042-.02.065-.03.022-.01.039-.015.049-.015.087,0,.13.06.13.183v1.19c.016.05.036.076.061.076.026,0,.044-.003.057-.008.013-.005.034-.013.066-.023.325-.168.607-.309.846-.423.239-.114.445-.211.618-.29.173-.079.319-.14.438-.183.12-.043.225-.076.317-.099.092-.024.173-.037.244-.042.072-.005.146-.008.222-.008.249,0,.465.053.649.161.182.106.336.247.461.422.124.176.226.378.305.604.079.225.138.457.179.693.041.237.069.471.084.703.015.231.023.441.023.629,0,.351-.012.703-.034,1.056-.023.354-.035.745-.035,1.171v.443c0,.153.029.28.084.381.056.103.129.186.218.252.089.067.186.116.293.149.107.034.212.061.313.08.102.021.194.037.279.05.084.013.149.03.194.05.051.02.077.055.077.107,0,.071-.026.111-.077.121h-3.677c-.051-.01-.076-.05-.076-.121,0-.052.025-.087.076-.107.066-.031.16-.055.282-.073.122-.018.244-.056.367-.114.122-.058.227-.152.316-.279.089-.126.133-.313.133-.557.026-.157.042-.332.05-.523.008-.19.012-.4.012-.629s-.003-.474-.008-.736c-.005-.262-.007-.553-.007-.873,0-.25-.012-.503-.035-.76-.023-.257-.079-.49-.168-.702-.089-.211-.22-.384-.393-.518-.173-.135-.412-.203-.717-.203-.051,0-.114.007-.191.02-.077.012-.182.042-.316.087-.135.046-.309.115-.523.207-.214.091-.483.216-.808.373-.041.026-.083.055-.126.088-.044.033-.068.075-.073.126v4.104c0,.229.046.403.137.523.092.12.199.206.32.259.123.054.245.089.367.107.122.018.216.042.282.073.051.02.076.055.076.107,0,.071-.025.111-.076.121h-3.402c-.051-.01-.077-.05-.077-.121,0-.052.026-.087.077-.107.065-.031.16-.055.282-.073.122-.018.245-.053.366-.107.122-.053.229-.139.32-.259.092-.12.138-.294.138-.523v-4.379c0-.122-.033-.217-.099-.286-.066-.069-.15-.121-.252-.156-.102-.036-.211-.065-.328-.088-.117-.023-.229-.049-.336-.08-.031-.011-.054-.024-.072-.042-.018-.018-.027-.055-.027-.111,0-.026.008-.051.023-.076.015-.026.045-.05.092-.076l1.945-.916Z"/>
    <path class="cls-2" d="m112.564,67.949h-.572c-.071,0-.128-.018-.168-.053-.041-.036-.064-.074-.069-.115,0-.025.005-.053.015-.084.01-.03.024-.05.039-.061.203-.132.396-.279.579-.442.184-.163.362-.326.535-.488.05-.056.119-.14.205-.252.087-.112.177-.223.272-.332.093-.109.187-.206.282-.291.093-.083.174-.125.24-.125.061,0,.092.035.092.107,0,.036-.009.09-.027.164-.019.074-.04.156-.065.247-.026.092-.053.189-.084.29-.031.103-.059.202-.084.298,0,.041.006.074.019.1.013.025.047.04.103.045h1.946c.081,0,.137.014.168.042.03.028.053.065.068.111.01.025.021.07.031.133.01.064.02.134.03.21.01.076.019.155.027.236.007.082.012.153.012.214,0,.031-.021.046-.062.046h-2.296c-.026,0-.04.005-.042.015-.003.01-.004.028-.004.054v4.211c0,.163.02.305.061.427.041.122.093.224.157.305.063.082.135.143.217.183.081.042.163.062.244.062.234,0,.428-.035.584-.104.154-.068.29-.143.404-.225.115-.08.217-.156.309-.225.092-.068.188-.102.29-.102.041,0,.061.017.061.053,0,.071-.005.126-.016.163-.009.039-.025.071-.045.096-.01.015-.063.086-.161.21-.095.124-.226.257-.389.397-.162.14-.351.267-.564.381-.213.115-.443.171-.686.171-.275,0-.517-.05-.725-.152-.209-.101-.382-.237-.519-.408-.137-.17-.241-.365-.309-.584-.069-.218-.103-.445-.103-.678v-4.25Z"/>
    <path class="cls-2" d="m118.965,76.89c.26-.58.472-1.06.637-1.441.165-.382.295-.685.389-.908.094-.225.161-.382.199-.473.038-.092.057-.143.057-.153,0-.062-.015-.121-.046-.179-.031-.059-.066-.114-.107-.165l-2.518-5.256c-.086-.234-.21-.439-.373-.615-.163-.174-.362-.3-.596-.377-.035-.01-.078-.018-.129-.023-.051-.004-.101-.013-.149-.023-.048-.01-.089-.028-.122-.053-.033-.026-.049-.066-.049-.123,0-.101.06-.152.182-.152h3.395c.031,0,.049.018.054.053.005.036.008.062.008.077,0,.071-.03.118-.088.141-.059.023-.132.037-.217.042-.087.005-.18.007-.279.007s-.193.012-.278.035c-.087.023-.16.066-.218.129-.059.064-.087.162-.087.294,0,.015.011.047.033.096.023.048.035.077.035.087l1.976,4.235c.01.025.026.062.05.11.023.049.055.073.095.073.02,0,.042-.012.065-.034.023-.024.042-.05.058-.08.015-.031.027-.061.037-.088.01-.028.018-.048.023-.058.234-.6.433-1.112.599-1.537.165-.425.301-.781.408-1.068.107-.288.191-.518.252-.691s.107-.308.137-.407c.031-.1.049-.172.054-.218.005-.046.007-.086.007-.122,0-.178-.056-.325-.168-.443-.111-.117-.249-.203-.411-.259-.046-.015-.104-.023-.172-.023s-.136-.004-.199-.011c-.063-.008-.119-.027-.168-.058-.048-.03-.072-.081-.072-.152,0-.041.018-.072.054-.095.035-.024.073-.035.114-.035h2.891c.042.011.065.03.073.058.007.027.011.054.011.079,0,.036-.005.063-.015.08-.01.019-.034.034-.073.046-.038.013-.091.025-.159.035-.069.01-.16.025-.272.045-.106.021-.202.069-.285.145-.084.077-.16.166-.225.268-.067.101-.126.21-.176.328-.051.117-.097.223-.138.32l-3.585,8.888-.496,1.053c-.041.086-.093.156-.157.21-.063.053-.131.094-.205.121-.074.029-.149.047-.225.058-.077.01-.148.016-.214.016-.178,0-.321-.059-.427-.176-.107-.118-.16-.265-.16-.443,0-.142.039-.25.118-.324.079-.074.171-.134.278-.18.107-.045.217-.087.332-.126.115-.038.209-.092.286-.164.02-.02.049-.047.084-.083.036-.036.071-.073.107-.111.036-.038.068-.075.099-.11.031-.037.051-.067.061-.092"/>
    <path class="cls-2" d="m129.6,68.506c0-.57.071-1.107.213-1.614.143-.505.344-.972.603-1.399.26-.428.573-.812.939-1.153s.772-.629,1.217-.866c.444-.236.921-.418,1.43-.545.509-.127,1.04-.19,1.595-.19.468,0,.919.042,1.354.126.435.083.884.181,1.346.293.077.02.157.046.241.076s.163.06.236.088c.074.028.142.052.202.073.061.02.108.03.138.03.01,0,.044-.01.102-.03.059-.021.101-.031.126-.031h.237c.062,0,.092.043.092.13v2.372c0,.031-.012.051-.035.061-.022.01-.072.015-.148.015-.015,0-.036,0-.062-.003-.025-.003-.045-.017-.061-.042-.01-.016-.023-.039-.038-.072-.015-.034-.032-.068-.049-.104-.018-.035-.036-.068-.053-.099-.019-.031-.03-.053-.035-.069-.382-.762-.865-1.336-1.45-1.72-.584-.384-1.259-.576-2.021-.576-.723,0-1.36.122-1.916.366-.554.245-1.02.58-1.399,1.007-.379.428-.665.935-.859,1.522-.193.587-.289,1.225-.289,1.911,0,.483.048.953.145,1.408.096.455.237.884.422,1.285.187.403.417.77.692,1.103.274.333.59.62.949.862.359.242.758.43,1.198.565.44.135.917.202,1.43.202.433,0,.842-.071,1.228-.214.387-.142.742-.33,1.065-.565.323-.233.612-.5.866-.8.254-.301.468-.608.641-.923.01-.026.022-.04.034-.042.013-.003.032-.004.057-.004h.099c.016,0,.032.006.051.019.017.012.026.039.026.08,0,.016-.002.036-.004.061-.002.025-.016.061-.042.107l-1.053,2.319c-.01.015-.025.028-.045.038-.02.011-.039.016-.054.016-.117-.031-.2-.049-.248-.054s-.101-.008-.156-.008c-.153,0-.35.027-.591.08-.242.054-.502.111-.778.172-.277.061-.559.119-.844.172-.284.053-.544.079-.777.079-.535,0-1.054-.058-1.557-.175-.504-.117-.977-.286-1.419-.507-.442-.221-.847-.493-1.214-.816-.366-.324-.681-.688-.945-1.095-.265-.407-.469-.856-.614-1.347-.146-.491-.218-1.016-.218-1.575"/>
    <path class="cls-2" d="m143.271,66.79c.02-.01.042-.02.065-.031.022-.009.039-.015.049-.015.087,0,.13.061.13.183v1.236c0,.016.001.035.004.058.002.022.017.034.042.034s.045-.009.061-.027c.015-.018.03-.034.045-.049.092-.123.191-.258.299-.409.106-.15.219-.291.338-.423.12-.133.245-.243.375-.332.129-.089.26-.133.393-.133.091,0,.214.021.37.064.155.043.307.094.457.153.15.058.278.121.385.187.108.066.161.121.161.168,0,.046-.016.118-.046.217s-.07.198-.118.298c-.049.099-.104.186-.168.262-.064.077-.129.116-.195.116-.01,0-.018-.002-.022-.005-.006-.002-.011-.003-.016-.003-.086-.031-.176-.068-.27-.111-.095-.043-.189-.086-.283-.126-.095-.04-.19-.075-.289-.103-.1-.028-.198-.041-.294-.041-.153,0-.303.042-.451.129-.147.086-.279.194-.393.324-.114.13-.207.267-.278.412-.071.145-.107.274-.107.385v3.449c0,.152.032.277.095.373.064.097.146.178.245.241.099.063.208.112.327.145.121.033.236.06.348.08.112.02.214.037.305.049.092.014.161.03.206.051.05.019.076.053.076.098,0,.071-.026.113-.076.123h-3.822c-.051-.01-.077-.052-.077-.123,0-.045.026-.079.077-.098.065-.031.16-.056.282-.073.122-.018.245-.053.366-.107.122-.054.229-.137.32-.252.092-.114.138-.284.138-.507v-4.036c0-.122-.033-.217-.099-.286-.066-.069-.15-.121-.252-.156-.102-.037-.211-.065-.328-.089-.117-.022-.229-.049-.336-.079-.031-.011-.054-.025-.072-.042-.018-.018-.027-.055-.027-.111,0-.026.008-.051.023-.076.015-.026.045-.051.092-.076l1.945-.916Z"/>
    <path class="cls-2" d="m146.979,73.817c-.05-.011-.076-.052-.076-.123,0-.045.026-.079.076-.099.067-.03.161-.055.282-.072.123-.018.245-.053.367-.107.122-.054.229-.138.32-.252.092-.114.137-.284.137-.507v-4.036c0-.122-.032-.217-.099-.286-.066-.069-.15-.121-.251-.156-.102-.037-.211-.065-.328-.089-.118-.022-.229-.049-.336-.079-.03-.011-.055-.025-.072-.042-.018-.018-.027-.055-.027-.111,0-.026.007-.051.022-.076.015-.026.047-.051.092-.076l1.946-.916c.019-.01.041-.021.065-.031.023-.009.039-.015.049-.015.086,0,.13.061.13.183v5.73c0,.223.046.393.138.507.091.114.197.198.32.252.121.054.244.089.366.107.122.017.216.042.282.072.051.02.076.054.076.099,0,.071-.025.112-.076.123h-3.403Zm.794-9.972c0-.234.076-.42.228-.557.153-.138.347-.206.58-.206.098,0,.189.023.276.068.086.047.162.106.228.18.066.074.119.156.156.244.038.09.057.179.057.271,0,.102-.019.197-.057.286-.037.089-.089.169-.153.24-.063.071-.138.128-.225.168-.086.041-.174.061-.267.061-.228,0-.422-.066-.583-.198-.16-.133-.24-.318-.24-.557"/>
    <path class="cls-2" d="m153.289,66.415c.02-.01.042-.02.065-.03.022-.01.039-.015.049-.015.087,0,.13.06.13.183v1.266c.005.031.026.046.061.046.03,0,.066-.01.107-.031.229-.122.452-.248.672-.377.218-.131.438-.248.659-.356.222-.106.444-.193.668-.258.223-.067.45-.1.679-.1s.422.028.58.084c.157.056.29.129.396.218.107.088.194.186.263.29s.129.204.18.301c.005.015.015.034.03.057s.035.048.057.073c.024.025.046.047.069.064.023.018.047.027.073.027.04-.005.077-.014.11-.027.033-.012.07-.026.111-.042.325-.168.608-.309.847-.423.239-.114.444-.211.617-.29.174-.079.32-.14.439-.183.12-.043.226-.076.317-.099.091-.024.173-.037.244-.042.071-.005.145-.008.222-.008.248,0,.465.053.648.161.183.106.336.247.461.422.125.176.226.378.305.604.079.225.139.457.18.693.04.237.069.471.084.703.015.231.023.441.023.629,0,.351-.012.703-.035,1.056-.022.354-.034.745-.034,1.171v.443c0,.153.028.28.084.381.055.103.128.186.218.252.089.067.186.116.293.149.107.034.211.061.313.08.102.021.194.037.279.05.083.013.149.03.194.05.051.02.076.055.076.107,0,.071-.025.111-.076.121h-3.677c-.051-.01-.076-.05-.076-.121,0-.052.025-.087.076-.107.066-.031.16-.055.282-.073.122-.018.244-.056.367-.114.122-.058.227-.152.316-.279.089-.126.133-.313.133-.557.025-.157.042-.332.05-.523.008-.19.011-.4.011-.629s-.002-.474-.007-.736c-.005-.262-.008-.553-.008-.873,0-.25-.011-.503-.034-.76-.024-.257-.079-.49-.168-.702-.089-.211-.22-.384-.393-.518-.173-.135-.412-.203-.718-.203-.05,0-.114.007-.19.02-.077.012-.182.042-.317.087-.134.046-.308.115-.522.207-.214.091-.483.216-.809.373-.041.026-.083.055-.126.088s-.068.075-.072.126v4.104c0,.229.046.403.137.523.092.12.198.206.32.259.123.054.245.089.367.107.122.018.216.042.282.073.051.02.076.055.076.107,0,.071-.025.111-.076.121h-3.402c-.052-.01-.077-.05-.077-.121,0-.052.025-.087.077-.107.065-.031.16-.055.282-.073.122-.018.244-.053.366-.107.122-.053.229-.139.32-.259.092-.12.138-.294.138-.523v-3.799c0-.799-.494-1.198-1.48-1.198-.118,0-.265.032-.443.096-.178.063-.36.143-.545.24-.186.097-.359.198-.519.305-.161.107-.279.206-.355.298v4.058c0,.229.046.403.137.523.092.12.199.206.32.259.123.054.245.089.367.107.122.018.216.042.282.073.051.02.076.055.076.107,0,.071-.025.111-.076.121h-3.402c-.051-.01-.077-.05-.077-.121,0-.052.026-.087.077-.107.065-.031.16-.055.282-.073.122-.018.245-.053.366-.107.122-.053.229-.137.32-.252.092-.114.138-.285.138-.515v-4.394c0-.122-.033-.217-.099-.286-.066-.069-.15-.121-.252-.156-.102-.036-.211-.065-.328-.088-.117-.023-.229-.049-.336-.08-.031-.011-.054-.024-.072-.042-.018-.018-.027-.055-.027-.111,0-.026.008-.051.023-.076.015-.026.045-.05.092-.076l1.945-.916Z"/>
    <path class="cls-2" d="m164.587,73.817c-.05-.011-.076-.052-.076-.123,0-.045.026-.079.076-.099.067-.03.161-.055.282-.072.123-.018.245-.053.367-.107.122-.054.229-.138.32-.252.092-.114.137-.284.137-.507v-4.036c0-.122-.032-.217-.099-.286-.066-.069-.15-.121-.251-.156-.102-.037-.211-.065-.328-.089-.118-.022-.229-.049-.336-.079-.03-.011-.055-.025-.072-.042-.018-.018-.027-.055-.027-.111,0-.026.007-.051.022-.076.015-.026.047-.051.092-.076l1.946-.916c.019-.01.041-.021.065-.031.023-.009.039-.015.049-.015.086,0,.13.061.13.183v5.73c0,.223.046.393.138.507.091.114.197.198.32.252.121.054.244.089.366.107.122.017.216.042.282.072.051.02.076.054.076.099,0,.071-.025.112-.076.123h-3.403Zm.794-9.972c0-.234.076-.42.228-.557.153-.138.347-.206.58-.206.098,0,.189.023.276.068.086.047.162.106.228.18.066.074.119.156.156.244.038.09.057.179.057.271,0,.102-.019.197-.057.286-.037.089-.089.169-.153.24-.063.071-.138.128-.225.168-.086.041-.174.061-.267.061-.228,0-.422-.066-.583-.198-.16-.133-.24-.318-.24-.557"/>
    <path class="cls-2" d="m170.973,66.415c.02-.01.042-.02.065-.03.022-.01.039-.015.049-.015.087,0,.13.06.13.183v1.19c.016.05.036.076.061.076.026,0,.044-.003.057-.008.013-.005.034-.013.066-.023.325-.168.607-.309.846-.423.239-.114.445-.211.618-.29.173-.079.319-.14.438-.183.12-.043.225-.076.317-.099.092-.024.173-.037.244-.042.072-.005.146-.008.222-.008.249,0,.465.053.649.161.182.106.336.247.461.422.124.176.226.378.305.604.079.225.138.457.179.693.041.237.069.471.084.703.015.231.023.441.023.629,0,.351-.012.703-.034,1.056-.023.354-.035.745-.035,1.171v.443c0,.153.029.28.084.381.056.103.129.186.218.252.089.067.186.116.293.149.107.034.212.061.313.08.102.021.194.037.279.05.084.013.149.03.194.05.051.02.077.055.077.107,0,.071-.026.111-.077.121h-3.677c-.051-.01-.076-.05-.076-.121,0-.052.025-.087.076-.107.066-.031.16-.055.282-.073.122-.018.244-.056.367-.114.122-.058.227-.152.316-.279.089-.126.133-.313.133-.557.026-.157.042-.332.05-.523.008-.19.012-.4.012-.629s-.003-.474-.008-.736c-.005-.262-.007-.553-.007-.873,0-.25-.012-.503-.035-.76-.023-.257-.079-.49-.168-.702-.089-.211-.22-.384-.393-.518-.173-.135-.412-.203-.717-.203-.051,0-.114.007-.191.02-.077.012-.182.042-.316.087-.135.046-.309.115-.523.207-.214.091-.483.216-.808.373-.041.026-.083.055-.126.088-.044.033-.068.075-.073.126v4.104c0,.229.046.403.137.523.092.12.199.206.32.259.123.054.245.089.367.107.122.018.216.042.282.073.051.02.076.055.076.107,0,.071-.025.111-.076.121h-3.402c-.051-.01-.077-.05-.077-.121,0-.052.026-.087.077-.107.065-.031.16-.055.282-.073.122-.018.245-.053.366-.107.122-.053.229-.139.32-.259.092-.12.138-.294.138-.523v-4.379c0-.122-.033-.217-.099-.286-.066-.069-.15-.121-.252-.156-.102-.036-.211-.065-.328-.088-.117-.023-.229-.049-.336-.08-.031-.011-.054-.024-.072-.042-.018-.018-.027-.055-.027-.111,0-.026.008-.051.023-.076.015-.026.045-.05.092-.076l1.945-.916Z"/>
    <path class="cls-2" d="m181.357,72.939c-.305.229-.555.413-.748.553-.193.14-.356.248-.488.325-.133.075-.247.127-.344.152-.096.026-.2.038-.313.038-.193,0-.385-.037-.575-.11-.191-.074-.363-.179-.515-.313-.153-.135-.277-.298-.371-.489-.094-.191-.141-.406-.141-.644,0-.198.032-.376.096-.534.063-.158.181-.305.354-.442.173-.138.409-.267.706-.39.298-.122.683-.244,1.156-.366.254-.066.459-.137.614-.214.155-.076.299-.15.431-.22.086-.047.136-.087.149-.123.013-.035.02-.069.02-.099v-1.465c0-.167-.026-.332-.077-.492s-.126-.301-.225-.424c-.1-.122-.223-.221-.37-.297-.148-.076-.318-.114-.511-.114-.092,0-.192.017-.302.053-.109.036-.213.092-.313.168-.099.076-.181.173-.248.29-.066.117-.099.259-.099.427,0,.015.002.038.004.069.003.03.006.062.011.095.005.033.011.062.015.088.005.025.009.04.009.045-.011.021-.065.057-.165.111-.099.054-.212.109-.339.168-.127.058-.251.114-.37.164-.119.051-.205.081-.256.091-.055,0-.09-.029-.103-.087-.012-.059-.019-.116-.019-.172,0-.218.059-.448.176-.686.116-.24.283-.46.5-.661.215-.2.475-.366.777-.495.303-.13.643-.195,1.019-.195.29,0,.561.047.813.141.252.094.47.223.656.386.185.163.333.353.442.572.109.219.164.45.164.693v4.022c0,.131.062.237.187.316s.266.119.424.119c.091,0,.17-.013.236-.039.066-.025.123-.055.172-.087.048-.033.088-.062.122-.089.033-.025.064-.037.096-.037.04,0,.063.016.068.049.005.033.008.062.008.088,0,.086-.012.149-.035.187-.023.038-.062.077-.118.118-.249.183-.458.33-.626.439-.168.109-.31.193-.427.252-.117.058-.214.097-.29.118-.076.02-.145.031-.206.031-.107,0-.198-.028-.275-.084-.076-.057-.143-.125-.202-.206-.059-.082-.107-.17-.149-.263-.04-.095-.074-.182-.103-.264-.028-.081-.05-.148-.065-.198-.015-.051-.027-.074-.037-.069m-2.297-.641c0,.138.027.265.081.381.053.118.122.218.209.302.086.084.185.149.294.195.109.045.222.068.339.068.107,0,.24-.026.397-.08.158-.054.311-.124.462-.213.149-.089.279-.191.385-.305.107-.115.161-.23.161-.348v-1.549c0-.055-.021-.083-.062-.083-.01,0-.021.002-.031.007l-1.77.824c-.071.051-.136.098-.194.141s-.108.095-.148.153c-.042.058-.072.127-.092.206-.021.078-.031.179-.031.301"/>
    <path class="cls-2" d="m187.788,73.694c0,.071-.025.112-.076.123h-3.403c-.051-.011-.076-.052-.076-.123,0-.045.025-.079.076-.099.066-.03.16-.055.282-.072.123-.018.244-.054.366-.108.123-.053.23-.137.321-.251.092-.114.137-.284.137-.507v-9.514c0-.122-.033-.218-.099-.286-.066-.069-.15-.121-.251-.156-.103-.036-.212-.066-.329-.088-.116-.023-.228-.05-.336-.081-.03-.009-.054-.023-.072-.041-.018-.018-.027-.055-.027-.111,0-.026.008-.05.023-.076.016-.026.046-.051.091-.077l1.947-.915c.02-.01.042-.021.064-.031.023-.01.04-.015.05-.015.086,0,.129.061.129.183v11.208c0,.223.046.393.138.507.092.114.198.198.32.251.123.054.245.09.366.108.122.017.217.042.283.072.051.02.076.054.076.099"/>
    <path class="cls-1" d="m28.718,88.919c-.031,0-.049-.009-.054-.027-.005-.017-.007-.028-.007-.034v-.219c0-.006.002-.017.007-.036.005-.018.023-.027.054-.027h.168c.107,0,.238-.006.396-.02.158-.012.31-.048.458-.106.148-.058.273-.147.377-.267.105-.119.157-.283.157-.491v-8.356c0-.158-.034-.291-.103-.4-.069-.11-.155-.199-.26-.267-.104-.068-.22-.118-.346-.148-.128-.031-.247-.046-.359-.046l-.488.007c-.031,0-.049-.009-.054-.029-.005-.02-.007-.033-.007-.039v-.214c0-.005.002-.016.007-.035.005-.017.023-.026.054-.026h.168l2.448-.053c.295-.01.614-.015.958-.015h.958c.32,0,.607.003.861.011.255.007.499.023.733.046.234.022.47.052.71.087.238.036.505.084.8.145.566.117,1.091.334,1.576.649.486.316.905.697,1.258,1.145.354.447.631.943.833,1.487.201.544.301,1.102.301,1.67,0,.55-.076,1.07-.229,1.561s-.365.943-.637,1.357c-.273.415-.595.789-.969,1.123-.374.332-.785.615-1.232.846-.448.232-.923.409-1.427.534-.504.125-1.02.187-1.549.187h-5.561Zm3.044-.96c0,.147.047.261.141.343.094.081.219.141.374.179.154.038.337.059.545.064.208.005.428.008.656.008.814,0,1.542-.117,2.187-.35.642-.235,1.189-.572,1.639-1.014.451-.443.795-.98,1.034-1.613s.359-1.348.359-2.146c0-.702-.11-1.355-.328-1.963-.219-.608-.53-1.136-.935-1.585-.404-.451-.894-.805-1.469-1.064-.574-.259-1.22-.389-1.938-.389l-2.074.008c-.077,0-.128.017-.153.049-.025.033-.038.085-.038.157v9.316Z"/>
    <path class="cls-1" d="m41.543,85.83c0-.498.071-.987.213-1.465.143-.478.352-.904.629-1.277.278-.374.623-.674,1.034-.901.413-.226.888-.339,1.428-.339.268,0,.518.048.747.144.229.097.436.225.622.382.185.158.349.337.492.538.142.201.261.402.359.602.096.201.169.394.216.581.049.185.074.344.074.476,0,.219-.054.328-.161.328h-4.425c-.05,0-.085.046-.102.137-.019.092-.027.204-.027.336,0,.427.063.818.19,1.171.127.354.302.656.523.908.221.252.479.446.774.583.295.138.608.207.939.207.325,0,.66-.071,1.003-.213.343-.143.682-.372,1.018-.687.011-.011.023-.016.038-.016h.039c.03,0,.06.025.087.073.029.048.055.079.081.095-.163.199-.355.396-.576.592-.222.195-.461.371-.718.526-.257.155-.521.28-.793.373-.273.094-.541.142-.805.142-.427,0-.818-.095-1.175-.286-.356-.191-.662-.441-.919-.752-.257-.31-.456-.663-.595-1.057-.14-.394-.21-.794-.21-1.201m1.312-1.663c0,.04.013.075.038.103.026.028.059.041.1.041h2.876c.132,0,.198-.057.198-.175,0-.197-.044-.402-.133-.61-.089-.208-.206-.398-.352-.569-.144-.17-.311-.31-.499-.419-.188-.109-.384-.164-.587-.164-.205,0-.396.051-.577.152-.18.102-.343.233-.488.394-.145.16-.267.341-.366.545-.099.204-.169.407-.21.61v.092Z"/>
    <path class="cls-1" d="m48.409,88.797c0-.045.025-.079.076-.099.066-.03.161-.055.283-.072.121-.018.243-.054.366-.108.122-.053.228-.137.32-.251.092-.114.138-.284.138-.507v-4.624c0-.056-.031-.084-.092-.084h-.831c-.062,0-.12-.019-.176-.057-.056-.039-.084-.093-.084-.164,0-.056.029-.101.087-.137.059-.036.131-.068.218-.095.086-.029.182-.057.286-.084.105-.028.199-.063.286-.104.086-.04.16-.087.218-.141.058-.053.088-.123.088-.21v-.251c0-.509.034-1.019.102-1.53.069-.511.193-.996.371-1.454.178-.457.416-.873.717-1.246.3-.375.684-.678,1.152-.912.305-.153.594-.275.869-.367.276-.091.58-.137.916-.137.071,0,.184.016.336.05.153.033.307.08.465.141.158.061.295.136.412.225.117.089.176.189.176.301,0,.041-.007.076-.019.107-.013.031-.027.068-.042.115l-.314.671c-.01.02-.028.046-.057.076-.027.031-.057.046-.087.046-.01,0-.022-.004-.035-.011-.012-.008-.044-.032-.095-.073-.117-.092-.236-.184-.359-.278-.122-.094-.249-.181-.381-.26-.132-.079-.27-.142-.412-.191-.143-.048-.287-.072-.435-.072-.346,0-.637.047-.874.141-.236.094-.431.219-.587.374-.155.155-.275.331-.359.527-.084.195-.146.396-.187.602-.04.206-.065.407-.072.603-.008.196-.011.367-.011.515v2.219c0,.031.006.049.018.054.013.005.032.008.058.008h1.488c.142,0,.234.014.278.042.043.028.075.08.095.157.031.117.054.225.069.323.015.099.023.205.023.317,0,.066-.012.11-.038.13-.025.02-.079.03-.161.03h-1.731c-.01,0-.029.003-.057.008-.029.005-.042.028-.042.069v4.478c0,.224.055.407.167.549.113.143.259.254.439.332.181.079.384.134.61.165.226.03.452.045.676.045.091.011.137.044.137.099,0,.026-.006.052-.019.081-.012.027-.052.042-.118.042h-4.189c-.051-.011-.076-.052-.076-.123"/>
    <path class="cls-1" d="m53.399,85.83c0-.498.071-.987.213-1.465.143-.478.352-.904.629-1.277.278-.374.623-.674,1.034-.901.413-.226.888-.339,1.428-.339.268,0,.518.048.747.144.229.097.436.225.622.382.185.158.349.337.492.538.142.201.261.402.359.602.096.201.169.394.216.581.049.185.074.344.074.476,0,.219-.054.328-.161.328h-4.425c-.05,0-.085.046-.102.137-.019.092-.027.204-.027.336,0,.427.063.818.19,1.171.127.354.302.656.523.908.221.252.479.446.774.583.295.138.608.207.939.207.325,0,.66-.071,1.003-.213.343-.143.682-.372,1.018-.687.011-.011.023-.016.038-.016h.039c.03,0,.06.025.087.073.029.048.055.079.081.095-.163.199-.355.396-.576.592-.222.195-.461.371-.718.526-.257.155-.521.28-.793.373-.273.094-.541.142-.805.142-.427,0-.818-.095-1.175-.286-.356-.191-.662-.441-.919-.752-.257-.31-.456-.663-.595-1.057-.14-.394-.21-.794-.21-1.201m1.312-1.663c0,.04.013.075.038.103.026.028.059.041.1.041h2.876c.132,0,.198-.057.198-.175,0-.197-.044-.402-.133-.61-.089-.208-.206-.398-.352-.569-.144-.17-.311-.31-.499-.419-.188-.109-.384-.164-.587-.164-.205,0-.396.051-.577.152-.18.102-.343.233-.488.394-.145.16-.267.341-.366.545-.099.204-.169.407-.21.61v.092Z"/>
    <path class="cls-1" d="m61.661,81.519c.02-.01.042-.02.065-.03.022-.01.039-.015.049-.015.087,0,.13.06.13.183v1.19c.016.05.036.076.061.076.026,0,.044-.003.057-.008.013-.005.034-.013.066-.023.325-.168.607-.309.846-.423.239-.114.445-.211.618-.29.173-.079.319-.14.438-.183.12-.043.225-.076.317-.099.092-.024.173-.037.244-.042.072-.005.146-.008.222-.008.249,0,.465.053.649.161.182.106.336.247.461.422.124.176.226.378.305.604.079.225.138.457.179.693.041.237.069.471.084.703.015.231.023.441.023.629,0,.351-.012.703-.034,1.056-.023.354-.035.745-.035,1.171v.443c0,.153.029.28.084.381.056.103.129.186.218.252.089.067.186.116.293.149.107.034.212.061.313.08.102.021.194.037.279.05.084.013.149.03.194.05.051.02.077.055.077.107,0,.071-.026.111-.077.121h-3.677c-.051-.01-.076-.05-.076-.121,0-.052.025-.087.076-.107.066-.031.16-.055.282-.073.122-.018.244-.056.367-.114.122-.058.227-.152.316-.279.089-.126.133-.313.133-.557.026-.157.042-.332.05-.523.008-.19.012-.4.012-.629s-.003-.474-.008-.736c-.005-.262-.007-.553-.007-.873,0-.25-.012-.503-.035-.76-.023-.257-.079-.49-.168-.702-.089-.211-.22-.384-.393-.518-.173-.135-.412-.203-.717-.203-.051,0-.114.007-.191.02-.077.012-.182.042-.316.087-.135.046-.309.115-.523.207-.214.091-.483.216-.808.373-.041.026-.083.055-.126.088-.044.033-.068.075-.073.126v4.104c0,.229.046.403.137.523.092.12.199.206.32.259.123.054.245.089.367.107.122.018.216.042.282.073.051.02.076.055.076.107,0,.071-.025.111-.076.121h-3.402c-.051-.01-.077-.05-.077-.121,0-.052.026-.087.077-.107.065-.031.16-.055.282-.073.122-.018.245-.053.366-.107.122-.053.229-.139.32-.259.092-.12.138-.294.138-.523v-4.379c0-.122-.033-.217-.099-.286-.066-.069-.15-.121-.252-.156-.102-.036-.211-.065-.328-.088-.117-.023-.229-.049-.336-.08-.031-.011-.054-.024-.072-.042s-.027-.055-.027-.111c0-.026.008-.051.023-.076.015-.026.045-.05.092-.076l1.945-.916Z"/>
    <path class="cls-1" d="m68.65,88.916c-.02-.14-.039-.307-.057-.504-.018-.196-.036-.4-.054-.614-.018-.213-.027-.394-.027-.542,0-.055.009-.089.027-.099.018-.009.05-.015.096-.015.035,0,.067.013.095.039.028.025.052.057.073.094.02.039.037.079.049.119.013.04.026.076.042.107.087.188.18.357.282.507.102.15.219.278.351.386.133.106.282.189.45.247.168.059.359.088.572.088.163,0,.311-.033.443-.099.133-.066.244-.155.336-.268.091-.111.161-.236.21-.373.048-.137.072-.28.072-.427,0-.275-.076-.512-.229-.71-.152-.198-.342-.379-.568-.542-.227-.162-.473-.321-.74-.476-.267-.155-.514-.328-.74-.516-.227-.187-.416-.406-.569-.655-.152-.249-.228-.55-.228-.9,0-.245.064-.483.194-.714.13-.231.301-.436.511-.614.211-.179.451-.32.721-.427.27-.108.547-.161.832-.161.158,0,.309.013.453.038.146.026.277.056.398.092.119.036.218.071.297.107.079.036.131.063.156.083.035.026.064.058.084.096.02.038.036.088.046.149.01.061.016.14.019.237.002.096.004.213.004.351v.701c0,.046-.007.086-.023.119-.016.032-.053.049-.114.049-.056,0-.093-.01-.111-.03-.018-.021-.034-.054-.049-.1-.062-.157-.136-.317-.225-.476-.089-.161-.193-.304-.31-.431-.116-.128-.252-.23-.408-.309-.155-.079-.329-.119-.522-.119-.143,0-.277.027-.401.08-.125.054-.233.133-.324.237-.092.104-.164.234-.218.389-.053.155-.08.332-.08.53,0,.076.028.157.084.24.056.084.127.168.214.252.086.084.181.167.286.249.104.081.207.152.309.212.259.163.526.325.801.485s.524.339.748.539c.224.198.406.425.549.682.143.257.213.563.213.919,0,.295-.06.561-.183.798-.122.236-.285.435-.488.598-.203.163-.436.289-.698.378-.262.089-.533.134-.812.134-.143,0-.285-.013-.428-.039-.142-.025-.272-.054-.389-.087-.116-.033-.213-.063-.29-.088-.076-.025-.12-.038-.13-.038-.045,0-.086.013-.122.038-.035.025-.069.055-.102.088-.034.033-.065.062-.096.087-.03.026-.066.039-.106.039h-.131c-.01,0-.025-.07-.045-.21"/>
    <path class="cls-1" d="m73.776,85.83c0-.498.071-.987.213-1.465.143-.478.352-.904.629-1.277.278-.374.623-.674,1.034-.901.413-.226.888-.339,1.428-.339.268,0,.518.048.747.144.229.097.436.225.622.382.185.158.349.337.492.538.142.201.261.402.359.602.096.201.169.394.216.581.049.185.074.344.074.476,0,.219-.054.328-.161.328h-4.425c-.05,0-.085.046-.102.137-.019.092-.027.204-.027.336,0,.427.063.818.19,1.171.127.354.302.656.523.908.221.252.479.446.774.583.295.138.608.207.939.207.325,0,.66-.071,1.003-.213.343-.143.682-.372,1.018-.687.011-.011.023-.016.038-.016h.039c.03,0,.06.025.087.073.029.048.055.079.081.095-.163.199-.355.396-.576.592-.222.195-.461.371-.718.526-.257.155-.521.28-.793.373-.273.094-.541.142-.805.142-.427,0-.818-.095-1.175-.286-.356-.191-.662-.441-.919-.752-.257-.31-.456-.663-.595-1.057-.14-.394-.21-.794-.21-1.201m1.312-1.663c0,.04.013.075.038.103.026.028.059.041.1.041h2.876c.132,0,.198-.057.198-.175,0-.197-.044-.402-.133-.61-.089-.208-.206-.398-.352-.569-.144-.17-.311-.31-.499-.419-.188-.109-.384-.164-.587-.164-.205,0-.396.051-.577.152-.18.102-.343.233-.488.394-.145.16-.267.341-.366.545-.099.204-.169.407-.21.61v.092Z"/>
    <path class="cls-1" d="m84.85,88.897c-.008-.015-.012-.028-.012-.038v-.183c0-.01.003-.023.009-.039.004-.015.021-.022.053-.022h.183c.015,0,.064-.004.148-.012s.181-.02.29-.038c.109-.017.223-.042.34-.072.117-.031.215-.069.298-.115.178-.102.31-.233.396-.392.087-.161.13-.34.13-.539v-8.071c0-.184-.06-.333-.179-.451-.12-.116-.262-.21-.428-.278-.165-.069-.333-.116-.503-.141-.171-.025-.307-.038-.408-.038h-.168c-.026,0-.042-.009-.05-.026-.007-.019-.012-.03-.012-.035v-.183c0-.01.005-.023.012-.038.008-.016.024-.023.05-.023h5.165c.025,0,.042.007.049.023.008.015.011.028.011.038v.183c0,.01-.003.023-.011.038-.007.015-.024.023-.049.023h-.328c-.285,0-.55.023-.794.068-.244.047-.442.097-.595.153-.117.041-.192.109-.225.202-.033.095-.049.256-.049.485v8.461c.009.086.055.168.137.244.081.076.173.115.275.115h3.013c.178,0,.347-.039.507-.115.161-.076.309-.174.446-.294.138-.119.265-.251.382-.393s.224-.279.32-.412c.097-.132.183-.251.26-.355.076-.104.142-.179.198-.225.026-.015.05-.03.072-.045.024-.015.047-.024.073-.024.051,0,.077.034.077.099,0,.032-.008.062-.024.092l-1.151,2.259c-.02.041-.044.074-.069.099-.025.025-.056.038-.092.038h-7.697c-.026,0-.042-.008-.05-.023"/>
    <path class="cls-1" d="m98.015,88.042c-.305.229-.555.413-.748.553-.193.14-.356.248-.488.325-.133.075-.247.127-.344.152-.096.026-.2.038-.313.038-.193,0-.385-.037-.575-.11-.191-.074-.363-.179-.515-.313-.153-.135-.277-.298-.371-.489-.094-.191-.141-.406-.141-.644,0-.198.032-.376.096-.534.063-.158.181-.305.354-.442.173-.138.409-.267.706-.39.298-.122.683-.244,1.156-.366.254-.066.459-.137.614-.214.155-.076.299-.15.431-.22.086-.047.136-.087.149-.123.013-.035.02-.069.02-.099v-1.465c0-.167-.026-.332-.077-.492s-.126-.301-.225-.424c-.1-.122-.223-.221-.37-.297-.148-.076-.318-.114-.511-.114-.092,0-.192.017-.302.053-.109.036-.213.092-.313.168-.099.076-.181.173-.248.29-.066.117-.099.259-.099.427,0,.015.002.038.004.069.003.03.006.062.011.095.005.033.011.062.015.088.005.025.009.04.009.045-.011.021-.065.057-.165.111-.099.054-.212.109-.339.168-.127.058-.251.114-.37.164-.119.051-.205.081-.256.091-.055,0-.09-.029-.103-.087-.012-.059-.019-.116-.019-.172,0-.218.059-.448.176-.686.116-.24.283-.46.5-.661.215-.2.475-.366.777-.495.303-.13.643-.195,1.019-.195.29,0,.561.047.813.141.252.094.47.223.656.386.185.163.333.353.442.572.109.219.164.45.164.693v4.022c0,.131.062.237.187.316s.266.119.424.119c.091,0,.17-.013.236-.039.066-.025.123-.055.172-.087.048-.033.088-.062.122-.089.033-.025.064-.037.096-.037.04,0,.063.016.068.049.005.033.008.062.008.088,0,.086-.012.149-.035.187-.023.038-.062.077-.118.118-.249.183-.458.33-.626.439-.168.109-.31.193-.427.252-.117.058-.214.097-.29.118-.076.02-.145.031-.206.031-.107,0-.198-.028-.275-.084-.076-.057-.143-.125-.202-.206-.059-.082-.107-.17-.149-.263-.04-.095-.074-.182-.103-.264-.028-.081-.05-.148-.065-.198-.015-.051-.027-.074-.037-.069m-2.297-.641c0,.138.027.265.081.381.053.118.122.218.209.302.086.084.185.149.294.195.109.045.222.068.339.068.107,0,.24-.026.397-.08.158-.054.311-.124.462-.213.149-.089.279-.191.385-.305.107-.115.161-.23.161-.348v-1.549c0-.055-.021-.083-.062-.083-.01,0-.021.002-.031.007l-1.77.824c-.071.051-.136.098-.194.141s-.108.095-.148.153c-.042.058-.072.127-.092.206-.021.078-.031.179-.031.301"/>
    <path class="cls-1" d="m103.733,89.038c-.028-.058-.05-.108-.065-.149l-2.022-5.47c-.086-.233-.21-.438-.373-.614-.163-.175-.362-.301-.596-.378-.035-.01-.078-.017-.129-.022-.052-.006-.101-.013-.149-.023-.049-.011-.089-.029-.122-.054s-.049-.065-.049-.122c0-.101.06-.153.182-.153h3.395c.031,0,.049.019.054.054.005.035.008.061.008.076,0,.071-.029.118-.084.142-.057.022-.125.037-.206.042-.082.004-.171.006-.267.003-.097-.002-.186.009-.267.035-.082.025-.15.07-.206.133-.057.064-.084.161-.084.294,0,.015.002.046.007.095.005.049.008.077.008.088l1.549,4.234c.01.026.027.062.049.111.023.048.055.072.095.072.021,0,.042-.011.065-.035.023-.022.043-.049.058-.079.015-.031.028-.06.038-.088.01-.028.017-.047.022-.058.25-.63.458-1.164.626-1.602.168-.436.307-.801.416-1.091.109-.29.192-.515.248-.678.056-.163.096-.29.122-.382-.086-.233-.211-.438-.374-.614-.163-.175-.361-.301-.595-.378-.035-.01-.079-.017-.129-.022-.052-.006-.101-.013-.149-.023-.049-.011-.09-.029-.123-.054-.032-.025-.049-.065-.049-.122,0-.101.061-.153.183-.153h3.395c.03,0,.049.019.053.054.005.035.009.061.009.076,0,.071-.029.118-.084.142-.057.022-.126.037-.207.042-.082.004-.171.006-.266.003-.098-.002-.187.009-.267.035-.082.025-.151.07-.206.133-.057.064-.084.161-.084.294,0,.015.001.046.007.095.005.049.008.077.008.088l1.548,4.234c.011.026.027.062.05.111.023.048.054.072.095.072.02,0,.042-.011.065-.035.023-.022.042-.049.057-.079.015-.031.028-.06.039-.088.01-.028.017-.047.022-.058.24-.599.44-1.112.603-1.537.163-.424.298-.78.405-1.067.106-.288.19-.518.251-.691.061-.173.106-.309.137-.408.031-.099.049-.172.054-.218.004-.045.008-.086.008-.122,0-.178-.056-.324-.168-.439-.112-.114-.25-.201-.413-.263-.045-.01-.102-.015-.171-.015s-.134-.005-.198-.015c-.064-.01-.12-.03-.168-.061-.048-.031-.072-.082-.072-.153,0-.041.017-.072.052-.095.037-.023.074-.035.116-.035h2.891c.04.01.064.03.072.058.008.028.012.054.012.08,0,.035-.005.062-.016.08-.01.018-.034.033-.072.046-.038.013-.092.024-.16.035-.069.01-.16.025-.271.045-.112.02-.21.072-.293.156-.084.084-.161.182-.23.294s-.128.228-.18.347c-.05.12-.098.228-.144.324l-2.082,5.386c-.016.036-.037.082-.066.138-.028.056-.062.083-.102.083h-.604c-.04,0-.074-.028-.102-.087-.029-.058-.05-.108-.066-.149l-1.693-4.584-1.777,4.599c-.016.036-.037.082-.065.138-.029.056-.062.083-.103.083h-.603c-.041,0-.075-.028-.103-.087"/>
    <path class="cls-1" d="m115.31,91.994c.26-.58.472-1.06.637-1.441.165-.382.295-.685.389-.908.094-.225.161-.382.199-.473.038-.092.057-.143.057-.153,0-.062-.015-.121-.046-.179-.031-.059-.066-.114-.107-.165l-2.518-5.256c-.086-.234-.21-.439-.373-.615-.163-.174-.362-.3-.596-.377-.035-.01-.078-.018-.129-.023-.051-.004-.101-.013-.149-.023-.048-.01-.089-.028-.122-.053-.033-.026-.049-.066-.049-.123,0-.101.06-.152.182-.152h3.395c.031,0,.049.018.054.053.005.036.008.062.008.077,0,.071-.03.118-.088.141-.059.023-.132.037-.217.042-.087.005-.18.007-.279.007s-.193.012-.278.035c-.087.023-.16.066-.218.129-.059.064-.087.162-.087.294,0,.015.011.047.033.096.023.048.035.077.035.087l1.976,4.235c.01.025.026.062.05.11.023.049.055.073.095.073.02,0,.042-.012.065-.034.023-.024.042-.05.058-.08.015-.031.027-.061.037-.088.01-.028.018-.048.023-.058.234-.6.433-1.112.599-1.537.165-.425.301-.781.408-1.068.107-.288.191-.518.252-.691s.107-.308.137-.407c.031-.1.049-.172.054-.218.005-.046.007-.086.007-.122,0-.178-.056-.325-.168-.443-.111-.117-.249-.203-.411-.259-.046-.015-.104-.023-.172-.023s-.136-.004-.199-.011c-.063-.008-.119-.027-.168-.058-.048-.03-.072-.081-.072-.152,0-.041.018-.072.054-.095.035-.024.073-.035.114-.035h2.891c.042.011.065.03.073.058.007.027.011.054.011.079,0,.036-.005.063-.015.08-.01.019-.034.034-.073.046-.038.013-.091.025-.159.035-.069.01-.16.025-.272.045-.106.021-.202.069-.285.145-.084.077-.16.166-.225.268-.067.101-.126.21-.176.328-.051.117-.097.223-.138.32l-3.585,8.888-.496,1.053c-.041.086-.093.156-.157.21-.063.053-.131.094-.205.121-.074.029-.149.047-.225.058-.077.01-.148.016-.214.016-.178,0-.321-.059-.427-.176-.107-.118-.16-.265-.16-.443,0-.142.039-.25.118-.324.079-.074.171-.134.278-.18.107-.045.217-.087.332-.126.115-.038.209-.092.286-.164.02-.02.049-.047.084-.083.036-.036.071-.073.107-.111.036-.038.068-.075.099-.11.031-.037.051-.067.061-.092"/>
    <path class="cls-1" d="m120.651,85.83c0-.498.071-.987.213-1.465.143-.478.352-.904.629-1.277.278-.374.623-.674,1.034-.901.413-.226.888-.339,1.428-.339.268,0,.518.048.747.144.229.097.436.225.622.382.185.158.349.337.492.538.142.201.261.402.359.602.095.201.169.394.216.581.049.185.074.344.074.476,0,.219-.054.328-.161.328h-4.425c-.05,0-.085.046-.102.137-.019.092-.027.204-.027.336,0,.427.063.818.19,1.171.127.354.302.656.523.908.221.252.479.446.774.583.295.138.608.207.939.207.325,0,.66-.071,1.003-.213.343-.143.682-.372,1.018-.687.011-.011.023-.016.038-.016h.039c.03,0,.059.025.087.073.029.048.055.079.081.095-.163.199-.355.396-.576.592-.222.195-.461.371-.718.526-.257.155-.521.28-.793.373-.273.094-.541.142-.805.142-.427,0-.818-.095-1.175-.286-.356-.191-.662-.441-.919-.752-.257-.31-.456-.663-.595-1.057-.14-.394-.21-.794-.21-1.201m1.312-1.663c0,.04.013.075.038.103.026.028.059.041.1.041h2.876c.132,0,.198-.057.198-.175,0-.197-.044-.402-.133-.61s-.206-.398-.352-.569c-.144-.17-.311-.31-.499-.419-.188-.109-.384-.164-.587-.164-.205,0-.396.051-.577.152-.18.102-.343.233-.488.394-.145.16-.267.341-.366.545-.099.204-.169.407-.21.61v.092Z"/>
    <path class="cls-1" d="m129.096,81.893c.02-.01.042-.02.065-.031.022-.009.039-.015.049-.015.087,0,.13.061.13.183v1.236c0,.016.001.035.004.058.002.022.017.034.042.034s.045-.009.061-.027c.015-.018.03-.034.045-.049.092-.123.191-.258.299-.409.106-.15.219-.291.338-.423.12-.133.245-.243.375-.332.129-.089.26-.133.393-.133.091,0,.214.021.37.064.155.043.307.094.457.153.15.058.278.121.385.187.108.066.161.121.161.168,0,.046-.016.118-.046.217s-.07.198-.118.298c-.049.099-.104.186-.168.262-.064.077-.129.116-.195.116-.01,0-.018-.002-.022-.005-.006-.002-.011-.003-.016-.003-.086-.031-.176-.068-.27-.111-.095-.043-.189-.086-.283-.126-.095-.04-.19-.075-.289-.103-.1-.028-.198-.041-.294-.041-.153,0-.303.042-.451.129-.147.086-.279.194-.393.324-.114.13-.207.267-.278.412-.071.145-.107.274-.107.385v3.449c0,.152.032.277.095.373.064.097.146.178.245.241.099.063.208.112.327.145.121.033.236.06.348.08.112.02.214.037.305.049.092.014.161.03.206.051.05.019.076.053.076.098,0,.071-.026.113-.076.123h-3.822c-.051-.01-.077-.052-.077-.123,0-.045.026-.079.077-.098.065-.031.16-.056.282-.073.122-.018.245-.053.366-.107.122-.054.229-.137.32-.252.092-.114.138-.284.138-.507v-4.036c0-.122-.033-.217-.099-.286-.066-.069-.15-.121-.252-.156-.102-.037-.211-.065-.328-.089-.117-.022-.229-.049-.336-.079-.031-.011-.054-.025-.072-.042-.018-.018-.027-.055-.027-.111,0-.026.008-.051.023-.076.015-.026.045-.051.092-.076l1.945-.916Z"/>
    <path class="cls-1" d="m133.476,81.946c0-.04.015-.08.046-.118.03-.038.066-.073.107-.104.04-.03.08-.058.117-.083.039-.026.068-.049.089-.069.086-.076.178-.163.274-.259.097-.097.184-.201.263-.313.079-.112.146-.227.199-.348.053-.119.079-.245.079-.377,0-.03-.001-.064-.003-.103-.003-.038-.013-.073-.03-.107-.019-.033-.046-.061-.084-.084-.039-.022-.094-.034-.165-.034-.147,0-.287-.015-.419-.046s-.25-.081-.35-.152c-.103-.072-.184-.166-.246-.283-.06-.116-.09-.264-.09-.442,0-.122.025-.236.075-.34.051-.104.119-.194.203-.27.084-.077.18-.138.289-.183.11-.047.221-.069.332-.069.204,0,.382.045.535.138.152.091.279.21.381.357.102.148.178.313.229.493s.077.357.077.53c0,.234-.034.457-.1.667-.066.212-.157.411-.274.599-.118.189-.256.364-.416.527s-.338.313-.531.45c-.071.051-.149.102-.236.152-.086.052-.165.077-.237.077-.05,0-.082-.027-.096-.08-.012-.054-.018-.096-.018-.126"/>
    <path class="cls-1" d="m136.359,88.916c-.02-.14-.039-.307-.057-.504-.018-.196-.036-.4-.054-.614-.018-.213-.027-.394-.027-.542,0-.055.009-.089.027-.099.018-.009.05-.015.096-.015.035,0,.067.013.095.039.028.025.052.057.073.094.02.039.037.079.049.119.013.04.026.076.042.107.087.188.18.357.282.507.102.15.219.278.351.386.133.106.282.189.45.247.168.059.359.088.572.088.163,0,.311-.033.443-.099.133-.066.244-.155.336-.268.091-.111.161-.236.21-.373.048-.137.072-.28.072-.427,0-.275-.076-.512-.229-.71-.152-.198-.342-.379-.568-.542-.227-.162-.473-.321-.74-.476-.267-.155-.514-.328-.74-.516-.227-.187-.416-.406-.569-.655-.152-.249-.228-.55-.228-.9,0-.245.064-.483.194-.714.13-.231.301-.436.511-.614.211-.179.451-.32.721-.427.27-.108.547-.161.832-.161.158,0,.309.013.453.038.146.026.277.056.398.092.119.036.218.071.297.107.079.036.131.063.156.083.035.026.064.058.084.096.02.038.036.088.046.149.01.061.016.14.019.237.002.096.004.213.004.351v.701c0,.046-.007.086-.023.119-.016.032-.053.049-.114.049-.056,0-.093-.01-.111-.03-.018-.021-.034-.054-.049-.1-.062-.157-.136-.317-.225-.476-.089-.161-.193-.304-.31-.431-.116-.128-.252-.23-.408-.309-.155-.079-.329-.119-.522-.119-.143,0-.277.027-.401.08-.125.054-.233.133-.324.237-.092.104-.164.234-.218.389-.053.155-.08.332-.08.53,0,.076.028.157.084.24.056.084.127.168.214.252.086.084.181.167.286.249.104.081.207.152.309.212.259.163.526.325.801.485.275.16.524.339.748.539.224.198.406.425.549.682.143.257.213.563.213.919,0,.295-.06.561-.183.798-.122.236-.285.435-.488.598-.203.163-.436.289-.698.378-.262.089-.533.134-.812.134-.143,0-.285-.013-.428-.039-.142-.025-.272-.054-.389-.087-.116-.033-.213-.063-.29-.088-.076-.025-.12-.038-.13-.038-.045,0-.086.013-.122.038-.035.025-.069.055-.102.088-.034.033-.065.062-.096.087-.03.026-.066.039-.106.039h-.131c-.01,0-.025-.07-.045-.21"/>
    <path class="cls-1" d="m145.186,88.676c0-.041.021-.061.062-.061.096-.006.209-.02.339-.042.13-.023.262-.072.397-.146.135-.073.266-.182.393-.327.127-.146.234-.345.321-.599l3.112-9.01c0,.005.001.002.003-.008.003-.011.004-.02.004-.031,0-.035-.014-.08-.042-.133-.027-.053-.042-.093-.042-.118,0-.026.01-.039.031-.039h1.526c.01.005.024.01.042.016.017.005.032.021.042.046l3.227,9.056c.071.137.129.262.171.373.044.112.094.215.15.31.055.093.129.18.221.258.091.079.218.152.381.218.072.036.168.074.29.114.123.041.239.062.351.062.025,0,.042.007.05.022.007.015.011.031.011.046v.176c0,.01-.004.023-.011.038-.008.015-.025.022-.05.022h-4.669c-.026,0-.042-.007-.05-.022-.008-.015-.011-.028-.011-.038v-.183c0-.01.003-.024.011-.039.008-.015.024-.022.05-.022.02,0,.041-.001.061-.004.02-.002.035-.004.045-.004.057-.005.136-.01.241-.015s.217-.014.34-.027c.122-.013.245-.033.369-.061.125-.028.238-.068.341-.122.101-.054.184-.124.251-.21.066-.087.099-.193.099-.32,0-.031-.005-.067-.015-.108l-1.152-3.249c-.005-.01-.014-.033-.027-.069-.013-.035-.033-.073-.061-.111s-.064-.072-.107-.103c-.043-.03-.095-.045-.156-.045h-2.708c-.067,0-.123.015-.168.045-.046.031-.084.064-.115.099-.031.036-.055.072-.073.108-.017.035-.026.055-.026.06l-1.145,3.349v.069c0,.02.006.044.016.069.041.127.116.233.225.317.109.084.235.15.378.198.142.048.288.082.438.103.15.02.284.031.401.031h.198c.025,0,.042.007.05.022.007.015.011.029.011.039v.183c0,.01-.004.023-.011.038-.008.015-.025.022-.05.022h-3.898c-.041,0-.062-.02-.062-.06v-.183Zm3.945-5.608c-.01.025-.018.051-.023.076-.006.026-.008.051-.008.077,0,.03.008.054.023.072.016.018.046.027.092.027h2.25c.057,0,.094-.012.111-.034.018-.024.026-.05.026-.08,0-.026-.002-.049-.006-.069-.006-.02-.014-.044-.024-.069l-1.136-3.128c-.052-.137-.09-.206-.115-.206-.026,0-.046.019-.061.057-.015.039-.035.091-.061.156l-1.068,3.121Z"/>
    <path class="cls-1" d="m156.897,88.916c-.02-.14-.039-.307-.057-.504-.018-.196-.036-.4-.054-.614-.018-.213-.027-.394-.027-.542,0-.055.009-.089.027-.099.018-.009.05-.015.096-.015.035,0,.067.013.095.039.028.025.052.057.073.094.02.039.037.079.049.119.013.04.026.076.042.107.087.188.18.357.282.507.102.15.219.278.351.386.133.106.282.189.45.247.168.059.359.088.572.088.163,0,.311-.033.443-.099.133-.066.244-.155.336-.268.091-.111.161-.236.21-.373.048-.137.072-.28.072-.427,0-.275-.076-.512-.229-.71-.152-.198-.342-.379-.568-.542-.227-.162-.473-.321-.74-.476-.267-.155-.514-.328-.74-.516-.227-.187-.416-.406-.569-.655-.152-.249-.228-.55-.228-.9,0-.245.064-.483.194-.714.13-.231.301-.436.511-.614.211-.179.451-.32.721-.427.27-.108.547-.161.832-.161.158,0,.309.013.453.038.146.026.277.056.398.092.119.036.218.071.297.107.079.036.131.063.156.083.035.026.064.058.084.096.02.038.036.088.046.149.01.061.016.14.019.237.002.096.004.213.004.351v.701c0,.046-.007.086-.023.119-.016.032-.053.049-.114.049-.056,0-.093-.01-.111-.03-.018-.021-.034-.054-.049-.1-.062-.157-.136-.317-.225-.476-.089-.161-.193-.304-.31-.431-.116-.128-.252-.23-.408-.309-.155-.079-.329-.119-.522-.119-.143,0-.277.027-.401.08-.125.054-.233.133-.324.237-.092.104-.164.234-.218.389-.053.155-.08.332-.08.53,0,.076.028.157.084.24.056.084.127.168.214.252.086.084.181.167.286.249.104.081.207.152.309.212.259.163.526.325.801.485.275.16.524.339.748.539.224.198.406.425.549.682.143.257.213.563.213.919,0,.295-.06.561-.183.798-.122.236-.285.435-.488.598-.203.163-.436.289-.698.378-.262.089-.533.134-.812.134-.143,0-.285-.013-.428-.039-.142-.025-.272-.054-.389-.087-.116-.033-.213-.063-.29-.088-.076-.025-.12-.038-.13-.038-.045,0-.086.013-.122.038-.035.025-.069.055-.102.088-.034.033-.065.062-.096.087-.03.026-.066.039-.106.039h-.131c-.01,0-.025-.07-.045-.21"/>
    <path class="cls-1" d="m162.123,88.916c-.02-.14-.039-.307-.057-.504-.018-.196-.036-.4-.054-.614-.018-.213-.027-.394-.027-.542,0-.055.009-.089.027-.099.018-.009.05-.015.096-.015.035,0,.067.013.095.039.028.025.052.057.073.094.02.039.037.079.049.119.013.04.026.076.042.107.087.188.18.357.282.507.102.15.219.278.351.386.133.106.282.189.45.247.168.059.359.088.572.088.163,0,.311-.033.443-.099.133-.066.244-.155.336-.268.091-.111.161-.236.21-.373.048-.137.072-.28.072-.427,0-.275-.076-.512-.229-.71-.152-.198-.342-.379-.568-.542-.227-.162-.473-.321-.74-.476-.267-.155-.514-.328-.74-.516-.227-.187-.416-.406-.569-.655-.152-.249-.228-.55-.228-.9,0-.245.064-.483.194-.714.13-.231.301-.436.511-.614.211-.179.451-.32.721-.427.27-.108.547-.161.832-.161.158,0,.309.013.453.038.146.026.277.056.398.092.119.036.218.071.297.107.079.036.131.063.156.083.035.026.064.058.084.096.02.038.036.088.046.149.01.061.016.14.019.237.002.096.004.213.004.351v.701c0,.046-.007.086-.023.119-.016.032-.053.049-.114.049-.056,0-.093-.01-.111-.03-.018-.021-.034-.054-.049-.1-.062-.157-.136-.317-.225-.476-.089-.161-.193-.304-.31-.431-.116-.128-.252-.23-.408-.309-.155-.079-.329-.119-.522-.119-.143,0-.277.027-.401.08-.125.054-.233.133-.324.237-.092.104-.164.234-.218.389-.053.155-.08.332-.08.53,0,.076.028.157.084.24.056.084.127.168.214.252.086.084.181.167.286.249.104.081.207.152.309.212.259.163.526.325.801.485.275.16.524.339.748.539.224.198.406.425.549.682.143.257.213.563.213.919,0,.295-.06.561-.183.798-.122.236-.285.435-.488.598-.203.163-.436.289-.698.378-.262.089-.533.134-.812.134-.143,0-.285-.013-.428-.039-.142-.025-.272-.054-.389-.087-.116-.033-.213-.063-.29-.088-.076-.025-.12-.038-.13-.038-.045,0-.086.013-.122.038-.035.025-.069.055-.102.088-.034.033-.065.062-.096.087-.03.026-.066.039-.106.039h-.131c-.01,0-.025-.07-.045-.21"/>
    <path class="cls-1" d="m167.288,85.409c0-.472.096-.924.287-1.354.191-.43.449-.809.775-1.14.326-.331.706-.594,1.138-.79.433-.196.888-.294,1.367-.294.504,0,.983.092,1.435.275.454.183.851.437,1.192.763.341.325.613.708.814,1.149.2.439.301.914.301,1.422,0,.524-.091,1.01-.275,1.457-.184.448-.437.837-.763,1.168-.326.33-.713.589-1.161.778-.448.188-.939.282-1.474.282-.53,0-1.016-.097-1.459-.29-.443-.193-.826-.456-1.149-.79-.324-.333-.576-.725-.756-1.178-.181-.453-.272-.939-.272-1.458m1.267-.48c0,.422.052.856.156,1.3.104.446.265.853.481,1.221.216.369.492.672.828.909.336.236.737.354,1.205.354.361,0,.672-.08.931-.24.26-.16.473-.368.641-.622s.291-.539.37-.855c.079-.315.118-.631.118-.946,0-.248-.027-.515-.08-.797-.054-.282-.132-.562-.237-.839-.104-.277-.232-.542-.385-.794-.152-.251-.329-.473-.53-.668-.201-.193-.424-.346-.671-.461-.247-.114-.515-.171-.805-.171-.341,0-.639.079-.893.236-.255.158-.465.362-.633.614-.168.252-.293.533-.374.843-.082.31-.122.616-.122.916"/>
    <path class="cls-1" d="m175.848,85.906c.005-.769.104-1.413.297-1.935.194-.52.462-.939.805-1.254.344-.315.749-.541,1.213-.676.466-.134.974-.201,1.522-.201.163,0,.338.004.523.01.186.009.365.032.538.069.173.039.332.102.476.191.146.089.264.213.356.37.025.041.049.087.072.137.023.052.034.1.034.146,0,.193-.059.33-.179.412-.12.081-.266.122-.439.122-.127,0-.24-.024-.339-.073-.099-.048-.192-.108-.278-.179-.087-.071-.17-.149-.248-.233-.08-.084-.162-.161-.249-.232-.086-.072-.18-.131-.282-.179-.102-.049-.216-.073-.343-.073-.244,0-.467.044-.668.133-.201.089-.383.21-.545.363-.163.152-.303.328-.42.526-.116.198-.216.407-.297.626-.082.218-.141.438-.18.66-.038.221-.057.431-.057.629,0,.397.045.777.134,1.141.089.364.232.684.431.961.198.277.455.499.771.663.315.166.696.249,1.144.249.229,0,.447-.039.656-.115.208-.076.401-.177.579-.305.082-.056.163-.122.241-.198.079-.077.15-.151.214-.222.064-.071.117-.131.159-.179.044-.048.074-.072.089-.072.045,0,.086.015.121.045.037.031.054.067.054.108,0,.019-.001.045-.004.075-.003.031-.017.059-.042.084-.365.509-.793.908-1.281,1.194-.489.288-1.041.432-1.656.432-.442,0-.843-.089-1.202-.267-.358-.178-.666-.416-.923-.714-.256-.297-.453-.64-.591-1.026-.137-.386-.206-.791-.206-1.213"/>
    <path class="cls-1" d="m182.821,88.92c-.05-.011-.076-.052-.076-.123,0-.045.026-.079.076-.099.067-.03.161-.055.282-.072.123-.018.245-.053.367-.107.122-.054.229-.138.32-.252.092-.114.137-.284.137-.507v-4.036c0-.122-.032-.217-.099-.286-.066-.069-.15-.121-.251-.156-.102-.037-.211-.065-.328-.089-.118-.022-.229-.049-.336-.079-.03-.011-.055-.025-.072-.042-.018-.018-.027-.055-.027-.111,0-.026.007-.051.022-.076.015-.026.047-.051.092-.076l1.946-.916c.019-.01.041-.021.065-.031.023-.009.039-.015.049-.015.086,0,.13.061.13.183v5.73c0,.223.046.393.138.507.091.114.197.198.32.252.121.054.244.089.366.107.122.017.216.042.282.072.051.02.076.054.076.099,0,.071-.025.112-.076.123h-3.403Zm.794-9.972c0-.234.076-.42.228-.557.153-.138.347-.206.58-.206.098,0,.189.023.276.068.086.047.162.106.228.18.066.074.119.155.156.244.038.09.057.179.057.271,0,.102-.019.197-.057.286-.037.089-.089.169-.153.24-.063.071-.138.128-.225.168-.086.041-.174.061-.267.061-.228,0-.422-.066-.583-.198-.16-.133-.24-.318-.24-.557"/>
    <path class="cls-1" d="m190.711,88.042c-.305.229-.555.413-.748.553-.193.14-.356.248-.488.325-.133.075-.247.127-.344.152-.096.026-.2.038-.313.038-.193,0-.385-.037-.575-.11-.191-.074-.363-.179-.515-.313-.153-.135-.277-.298-.371-.489-.094-.191-.141-.406-.141-.644,0-.198.032-.376.096-.534.063-.158.181-.305.354-.442.173-.138.409-.267.706-.39.298-.122.683-.244,1.156-.366.254-.066.459-.137.614-.214.155-.076.299-.15.431-.22.086-.047.136-.087.149-.123.013-.035.02-.069.02-.099v-1.465c0-.167-.026-.332-.077-.492s-.126-.301-.225-.424c-.1-.122-.223-.221-.37-.297-.148-.076-.318-.114-.511-.114-.092,0-.192.017-.302.053-.109.036-.213.092-.313.168-.099.076-.181.173-.248.29-.066.117-.099.259-.099.427,0,.015.002.038.004.069.003.03.006.062.011.095.005.033.011.062.015.088.005.025.009.04.009.045-.011.021-.065.057-.165.111-.099.054-.212.109-.339.168-.127.058-.251.114-.37.164-.119.051-.205.081-.256.091-.055,0-.09-.029-.103-.087-.012-.059-.019-.116-.019-.172,0-.218.059-.448.176-.686.116-.24.283-.46.5-.661.215-.2.475-.366.777-.495.303-.13.643-.195,1.019-.195.29,0,.561.047.813.141.252.094.47.223.656.386.185.163.333.353.442.572.109.219.164.45.164.693v4.022c0,.131.062.237.187.316s.266.119.424.119c.091,0,.17-.013.236-.039.066-.025.123-.055.172-.087.048-.033.088-.062.122-.089.033-.025.064-.037.096-.037.04,0,.063.016.068.049.005.033.008.062.008.088,0,.086-.012.149-.035.187-.023.038-.062.077-.118.118-.249.183-.458.33-.626.439-.168.109-.31.193-.427.252-.117.058-.214.097-.29.118-.076.02-.145.031-.206.031-.107,0-.198-.028-.275-.084-.076-.057-.143-.125-.202-.206-.059-.082-.107-.17-.149-.263-.04-.095-.074-.182-.103-.264-.028-.081-.05-.148-.065-.198-.015-.051-.027-.074-.037-.069m-2.297-.641c0,.138.027.265.081.381.053.118.122.218.209.302.086.084.185.149.294.195.109.045.222.068.339.068.107,0,.24-.026.397-.08.158-.054.311-.124.462-.213.149-.089.279-.191.385-.305.107-.115.161-.23.161-.348v-1.549c0-.055-.021-.083-.062-.083-.01,0-.021.002-.031.007l-1.77.824c-.071.051-.136.098-.194.141s-.108.095-.148.153c-.042.058-.072.127-.092.206-.021.078-.031.179-.031.301"/>
    <path class="cls-1" d="m194.486,83.053h-.572c-.071,0-.128-.018-.168-.053-.041-.036-.064-.074-.069-.115,0-.025.005-.053.015-.084.01-.03.024-.05.039-.061.203-.132.396-.279.579-.442.184-.163.362-.326.535-.488.05-.056.119-.14.205-.252.087-.112.177-.223.272-.332.093-.109.187-.206.282-.291.093-.083.174-.125.24-.125.061,0,.092.035.092.107,0,.036-.009.09-.027.164-.019.074-.04.156-.065.247-.026.092-.053.189-.084.29-.031.103-.059.202-.084.298,0,.041.006.074.019.1.013.025.047.04.103.045h1.946c.081,0,.137.014.168.042.03.028.053.065.068.111.01.025.021.07.031.133.01.064.02.134.03.21.01.076.019.155.027.236.007.082.012.153.012.214,0,.031-.021.046-.062.046h-2.296c-.026,0-.04.005-.042.015-.003.01-.004.028-.004.054v4.211c0,.163.02.305.061.427.041.122.093.224.157.305.063.082.135.143.217.183.081.042.163.062.244.062.234,0,.428-.035.584-.104.154-.068.29-.143.404-.225.115-.08.217-.156.309-.225.092-.068.188-.102.29-.102.041,0,.061.017.061.053,0,.071-.005.126-.016.163-.009.039-.025.071-.045.096-.01.015-.063.086-.161.21-.095.124-.226.257-.389.397-.162.14-.351.267-.564.381-.213.115-.443.171-.686.171-.275,0-.517-.05-.725-.152-.209-.101-.382-.237-.519-.408-.137-.17-.241-.365-.309-.584-.069-.218-.103-.445-.103-.678v-4.25Z"/>
    <path class="cls-1" d="m198.804,88.92c-.05-.011-.076-.052-.076-.123,0-.045.026-.079.076-.099.067-.03.161-.055.282-.072.123-.018.245-.053.367-.107.122-.054.229-.138.32-.252.092-.114.137-.284.137-.507v-4.036c0-.122-.032-.217-.099-.286-.066-.069-.15-.121-.251-.156-.102-.037-.211-.065-.328-.089-.118-.022-.229-.049-.336-.079-.03-.011-.055-.025-.072-.042-.018-.018-.027-.055-.027-.111,0-.026.007-.051.022-.076.015-.026.047-.051.092-.076l1.946-.916c.019-.01.041-.021.065-.031.023-.009.039-.015.049-.015.086,0,.13.061.13.183v5.73c0,.223.046.393.138.507.091.114.197.198.32.252.121.054.244.089.366.107.122.017.216.042.282.072.051.02.076.054.076.099,0,.071-.025.112-.076.123h-3.403Zm.794-9.972c0-.234.076-.42.228-.557.153-.138.347-.206.58-.206.098,0,.189.023.276.068.086.047.162.106.228.18.066.074.119.155.156.244.038.09.057.179.057.271,0,.102-.019.197-.057.286-.037.089-.089.169-.153.24-.063.071-.138.128-.225.168-.086.041-.174.061-.267.061-.228,0-.422-.066-.583-.198-.16-.133-.24-.318-.24-.557"/>
    <path class="cls-1" d="m203.236,85.409c0-.472.096-.924.287-1.354.191-.43.449-.809.775-1.14.326-.331.706-.594,1.138-.79.433-.196.888-.294,1.367-.294.504,0,.983.092,1.435.275.454.183.851.437,1.192.763.341.325.613.708.814,1.149.2.439.301.914.301,1.422,0,.524-.091,1.01-.275,1.457-.184.448-.437.837-.763,1.168-.326.33-.713.589-1.161.778-.448.188-.939.282-1.474.282-.53,0-1.016-.097-1.459-.29-.443-.193-.826-.456-1.149-.79-.324-.333-.576-.725-.756-1.178-.181-.453-.272-.939-.272-1.458m1.267-.48c0,.422.052.856.156,1.3.104.446.265.853.481,1.221.216.369.492.672.828.909.336.236.737.354,1.205.354.361,0,.672-.08.931-.24.26-.16.473-.368.641-.622s.291-.539.37-.855c.079-.315.118-.631.118-.946,0-.248-.027-.515-.08-.797-.054-.282-.132-.562-.237-.839-.104-.277-.232-.542-.385-.794-.152-.251-.329-.473-.53-.668-.201-.193-.424-.346-.671-.461-.247-.114-.515-.171-.805-.171-.341,0-.639.079-.893.236-.255.158-.465.362-.633.614-.168.252-.293.533-.374.843-.082.31-.122.616-.122.916"/>
    <path class="cls-1" d="m212.919,81.519c.02-.01.042-.02.065-.03.022-.01.039-.015.049-.015.087,0,.13.06.13.183v1.19c.016.05.036.076.061.076.026,0,.044-.003.057-.008.013-.005.034-.013.066-.023.325-.168.607-.309.846-.423.239-.114.445-.211.618-.29.173-.079.319-.14.438-.183.12-.043.225-.076.317-.099.092-.024.173-.037.244-.042.072-.005.146-.008.222-.008.249,0,.465.053.648.161.183.106.336.247.462.422.124.176.226.378.305.604.079.225.138.457.179.693.041.237.069.471.084.703.015.231.023.441.023.629,0,.351-.012.703-.034,1.056-.023.354-.035.745-.035,1.171v.443c0,.153.029.28.084.381.056.103.129.186.218.252.089.067.186.116.293.149.107.034.212.061.313.08.102.021.194.037.279.05.084.013.149.03.194.05.051.02.077.055.077.107,0,.071-.026.111-.077.121h-3.677c-.051-.01-.076-.05-.076-.121,0-.052.025-.087.076-.107.066-.031.16-.055.282-.073.122-.018.244-.056.367-.114.122-.058.227-.152.316-.279.089-.126.133-.313.133-.557.025-.157.042-.332.05-.523.008-.19.012-.4.012-.629s-.003-.474-.008-.736-.007-.553-.007-.873c0-.25-.012-.503-.035-.76-.023-.257-.079-.49-.168-.702-.089-.211-.22-.384-.393-.518-.173-.135-.412-.203-.717-.203-.051,0-.114.007-.191.02-.077.012-.182.042-.316.087-.135.046-.309.115-.523.207-.214.091-.483.216-.808.373-.041.026-.083.055-.126.088-.044.033-.068.075-.073.126v4.104c0,.229.046.403.137.523.092.12.199.206.32.259.123.054.245.089.367.107.122.018.216.042.282.073.051.02.076.055.076.107,0,.071-.025.111-.076.121h-3.402c-.051-.01-.077-.05-.077-.121,0-.052.026-.087.077-.107.065-.031.16-.055.282-.073.122-.018.245-.053.366-.107.122-.053.229-.139.32-.259.092-.12.138-.294.138-.523v-4.379c0-.122-.033-.217-.099-.286-.066-.069-.15-.121-.252-.156-.102-.036-.211-.065-.328-.088-.117-.023-.229-.049-.336-.08-.031-.011-.054-.024-.072-.042-.018-.018-.027-.055-.027-.111,0-.026.008-.051.023-.076.015-.026.045-.05.092-.076l1.945-.916Z"/>
  </g>
</svg>