<?xml version="1.0" encoding="UTF-8"?>
<svg id="Resources" xmlns="http://www.w3.org/2000/svg" viewBox="0 0 349.36 62.99">
  <defs>
    <style>
      .cls-1 {
        fill: #d6ad6b;
      }

      .cls-2 {
        fill: #9c0015;
      }

      .cls-3 {
        fill: #0d2040;
      }
    </style>
  </defs>
  <g>
    <path class="cls-3" d="M67.78,8.14h21.58v5.17h-7.72v19.63h-6.17V13.31h-7.69v-5.17ZM102.97,8.14c2.06,0,3.76.37,5.12,1.12,1.36.74,2.37,1.73,3.05,2.96.67,1.23,1.01,2.56,1.01,4,0,.99-.18,1.97-.55,2.94-.37.97-.92,1.84-1.67,2.62s-1.7,1.4-2.85,1.86c-1.16.46-2.53.69-4.11.69h-5.24v8.61h-6.17V8.14h11.41ZM105.88,16.22c0-.9-.27-1.61-.81-2.13-.54-.52-1.37-.78-2.48-.78h-4.85v5.85h4.85c.73,0,1.34-.11,1.82-.34.48-.22.85-.56,1.1-1.01.25-.45.37-.98.37-1.59ZM106.09,22.21l6.52,10.74h-6.8l-6.17-10.74h6.45ZM114.13,8.14h6.17v24.8h-6.17V8.14ZM136.24,13.31h-1.24l-6.87,19.63h-6.38l9.07-24.8h9.78l9,24.8h-6.38l-6.98-19.63ZM128.38,22.81h14.46v5.17h-14.46v-5.17ZM157.18,8.14v19.63h10.81v5.17h-16.97V8.14h6.17ZM185.25,8.14v19.63h10.81v5.17h-16.97V8.14h6.17ZM210.69,13.31h-1.24l-6.87,19.63h-6.38l9.07-24.8h9.78l9,24.8h-6.38l-6.98-19.63ZM202.82,22.81h14.46v5.17h-14.46v-5.17ZM235.07,32.94h-7.58l-6.34-24.8h6.73l3.47,17.54,4.25-17.54h6.87l4.15,17.5,3.51-17.5h6.7l-6.34,24.8h-7.55l-3.93-16.05-3.93,16.05ZM275.36,8.14h7.05l-9.39,16.65v8.15h-6.17v-8.15l-9.43-16.65h7.05l5.46,10.24,5.42-10.24ZM302.93,13.31h-12.44v4.64h9.28v4.82h-9.28v5h12.44v5.17h-18.6V8.14h18.6v5.17ZM316.82,8.14c2.06,0,3.76.37,5.12,1.12,1.36.74,2.37,1.73,3.05,2.96.67,1.23,1.01,2.56,1.01,4,0,.99-.18,1.97-.55,2.94-.37.97-.92,1.84-1.67,2.62s-1.7,1.4-2.85,1.86c-1.16.46-2.53.69-4.11.69h-5.24v8.61h-6.17V8.14h11.41ZM319.72,16.22c0-.9-.27-1.61-.81-2.13-.54-.52-1.37-.78-2.48-.78h-4.85v5.85h4.85c.73,0,1.34-.11,1.82-.34.48-.22.85-.56,1.1-1.01.25-.45.37-.98.37-1.59ZM319.93,22.21l6.52,10.74h-6.8l-6.17-10.74h6.45ZM333.65,25.4c.12.69.36,1.23.73,1.65.37.41.81.71,1.35.89.53.18,1.12.27,1.75.27,1.11,0,1.97-.23,2.57-.69.6-.46.9-1.06.9-1.79,0-.59-.18-1.06-.55-1.42-.37-.35-.87-.66-1.52-.9-.65-.25-1.4-.5-2.25-.76-.94-.26-1.9-.56-2.87-.9-.97-.34-1.87-.78-2.69-1.31-.83-.53-1.49-1.22-1.98-2.07s-.73-1.91-.71-3.19c0-1.56.4-2.88,1.21-3.97.8-1.09,1.89-1.91,3.26-2.46,1.37-.55,2.94-.83,4.71-.83,1.61,0,3.04.24,4.29.71,1.25.47,2.29,1.16,3.1,2.07.81.91,1.39,2.04,1.72,3.38l-5.67.99c-.09-.52-.31-.94-.64-1.28-.33-.33-.73-.57-1.19-.73-.46-.15-.92-.23-1.36-.23-.57,0-1.09.09-1.56.28-.47.19-.86.46-1.15.82-.3.35-.44.77-.44,1.24,0,.52.17.95.51,1.28.34.33.81.63,1.4.89.59.26,1.24.51,1.95.74.97.31,1.96.64,2.98.99s1.96.81,2.83,1.36c.87.56,1.58,1.26,2.11,2.13.53.86.8,1.94.8,3.24,0,1.39-.34,2.65-1.03,3.76-.69,1.11-1.71,2-3.08,2.66-1.37.66-3.11.99-5.21.99-1.77,0-3.36-.25-4.77-.76-1.41-.51-2.56-1.26-3.46-2.25-.9-.99-1.49-2.21-1.77-3.65l5.74-1.13Z"/>
    <path class="cls-2" d="M73.36,54.36c-1.07,0-2.03-.24-2.88-.71-.85-.47-1.52-1.14-2-2.01-.48-.87-.72-1.89-.72-3.06s.25-2.22.75-3.09c.5-.87,1.17-1.55,2.03-2.02.86-.47,1.82-.71,2.89-.71s2.04.24,2.9.71c.87.47,1.55,1.14,2.04,2.01.5.87.75,1.89.75,3.06s-.25,2.22-.76,3.09c-.5.87-1.19,1.55-2.07,2.02-.87.47-1.85.71-2.94.71ZM73.34,52.42c.6,0,1.17-.14,1.69-.42.53-.28.96-.7,1.3-1.28.34-.57.51-1.3.51-2.19s-.16-1.59-.49-2.16c-.32-.56-.75-.99-1.28-1.27-.53-.28-1.09-.42-1.69-.42s-1.13.14-1.64.42c-.5.28-.92.7-1.23,1.28-.32.57-.47,1.3-.47,2.19s.15,1.59.46,2.16c.31.56.71.99,1.21,1.27.5.28,1.04.42,1.63.42ZM80.91,41.65c0-.86.15-1.58.44-2.17.29-.59.75-1.01,1.37-1.28.62-.26,1.43-.35,2.44-.26v1.87c-.78-.08-1.33.05-1.64.36-.31.32-.46.81-.46,1.47v1.27h2.24v1.9h-2.24v9.4h-2.15v-9.4h-1.45v-1.9h1.45v-1.27ZM92,42.91v-3.16h2.15v3.16h2.82v1.9h-2.82v5.56c0,.69.14,1.18.42,1.47.28.29.63.45,1.06.49.43.04.88.03,1.34-.03v1.83c-.62.14-1.22.18-1.82.12-.6-.05-1.13-.22-1.6-.51-.47-.29-.85-.7-1.13-1.25-.28-.55-.42-1.25-.42-2.11v-5.56h-1.63v-1.9h1.63ZM97.99,37.94h2.12v6.21c.36-.44.83-.78,1.4-1.03.57-.25,1.2-.37,1.9-.37.84,0,1.58.18,2.23.55.64.37,1.14.92,1.5,1.65.36.73.54,1.64.54,2.72v6.53h-2.24v-6.26c0-1.05-.22-1.86-.66-2.42-.44-.56-1.08-.84-1.92-.84s-1.55.29-2.03.86c-.48.57-.72,1.41-.72,2.51v6.14h-2.12v-16.26ZM114.3,54.36c-1.08,0-2.04-.25-2.88-.76-.84-.5-1.49-1.2-1.97-2.09-.47-.89-.71-1.9-.71-3.05s.23-2.08.7-2.94c.47-.86,1.11-1.54,1.93-2.03s1.75-.75,2.79-.75,1.99.23,2.8.69c.81.46,1.45,1.1,1.9,1.92.45.82.67,1.77.66,2.84,0,.18,0,.37-.02.55-.02.19-.04.4-.07.62h-8.36c.05.6.21,1.13.51,1.59.29.46.67.82,1.13,1.07.46.26.98.38,1.57.38.75,0,1.41-.15,1.97-.44.56-.29.95-.69,1.17-1.19l1.85.66c-.45.92-1.11,1.63-1.98,2.15-.87.51-1.86.77-2.99.77ZM117.19,47.54c0-.54-.14-1.03-.41-1.47-.27-.44-.64-.78-1.1-1.03-.46-.25-.98-.37-1.55-.37-.51,0-.98.12-1.41.37-.43.25-.79.59-1.08,1.02-.29.43-.48.92-.55,1.48h6.1ZM138.06,43.23c-.57-1.07-1.3-1.84-2.18-2.33-.88-.48-1.84-.72-2.88-.72s-2.02.26-2.89.77c-.87.51-1.56,1.22-2.07,2.13-.5.91-.76,1.98-.76,3.22s.25,2.29.75,3.21c.5.92,1.18,1.63,2.04,2.15.87.51,1.83.77,2.9.77.77,0,1.49-.14,2.17-.41.68-.27,1.27-.65,1.77-1.13.5-.48.9-1.05,1.19-1.72v-1.72h-4.97v-1.85h7.25v3.68c-.36.96-.9,1.83-1.62,2.6-.72.77-1.57,1.37-2.55,1.82-.99.44-2.07.67-3.24.67s-2.16-.2-3.13-.59c-.97-.39-1.82-.94-2.54-1.66-.72-.72-1.29-1.57-1.69-2.55-.41-.99-.61-2.07-.61-3.26s.2-2.26.61-3.24c.41-.99.97-1.84,1.69-2.56.72-.72,1.57-1.28,2.54-1.67.97-.39,2.01-.59,3.13-.59,1.01,0,1.97.17,2.89.5.92.33,1.74.81,2.46,1.45.72.63,1.29,1.41,1.69,2.33l-1.97.72ZM141.72,42.91h1.94l.14,1.51c.32-.39.68-.72,1.1-.98.41-.26.87-.45,1.36-.55.49-.11,1-.1,1.52.02v2.01c-.5-.12-.98-.14-1.45-.05-.47.09-.88.28-1.25.58s-.67.68-.89,1.16c-.23.48-.34,1.06-.34,1.74v5.85h-2.12v-11.29ZM153.24,54.36c-1.08,0-2.04-.25-2.88-.76-.84-.5-1.49-1.2-1.97-2.09-.47-.89-.71-1.9-.71-3.05s.23-2.08.7-2.94c.47-.86,1.11-1.54,1.93-2.03s1.75-.75,2.79-.75,1.99.23,2.8.69c.81.46,1.45,1.1,1.9,1.92.45.82.67,1.77.66,2.84,0,.18,0,.37-.02.55-.02.19-.04.4-.07.62h-8.36c.05.6.21,1.13.51,1.59.29.46.67.82,1.13,1.07.46.26.98.38,1.57.38.75,0,1.41-.15,1.97-.44.56-.29.95-.69,1.17-1.19l1.85.66c-.45.92-1.11,1.63-1.98,2.15-.87.51-1.86.77-2.99.77ZM156.13,47.54c0-.54-.14-1.03-.41-1.47-.27-.44-.64-.78-1.1-1.03-.46-.25-.98-.37-1.55-.37-.51,0-.98.12-1.41.37-.43.25-.79.59-1.08,1.02-.29.43-.48.92-.55,1.48h6.1ZM166.59,54.21l-.18-1.65c-.35.57-.79,1.01-1.34,1.32-.55.31-1.26.46-2.13.46-.81,0-1.51-.13-2.08-.4-.57-.26-1.01-.63-1.32-1.11-.31-.47-.46-1.03-.46-1.66,0-.95.35-1.74,1.06-2.36.71-.62,1.73-1.01,3.07-1.16l3.21-.36v-.88c0-.48-.2-.89-.59-1.23-.39-.34-.96-.51-1.69-.51-.69,0-1.28.16-1.76.49-.48.32-.81.8-.97,1.43l-1.9-.68c.29-.99.85-1.77,1.68-2.33.84-.56,1.85-.84,3.04-.84,1.42,0,2.49.35,3.23,1.06.74.71,1.11,1.64,1.11,2.8v7.59h-1.97ZM166.41,49.03l-3.09.38c-.66.09-1.16.27-1.49.55-.33.28-.5.64-.5,1.1,0,.42.16.77.49,1.05.32.28.78.42,1.37.42.72,0,1.32-.14,1.81-.41.48-.27.84-.65,1.07-1.14.23-.49.35-1.06.35-1.71v-.25ZM170.97,42.91v-3.16h2.15v3.16h2.82v1.9h-2.82v5.56c0,.69.14,1.18.42,1.47.28.29.63.45,1.06.49.43.04.88.03,1.34-.03v1.83c-.62.14-1.22.18-1.82.12-.6-.05-1.13-.22-1.6-.51-.47-.29-.85-.7-1.13-1.25-.28-.55-.42-1.25-.42-2.11v-5.56h-1.63v-1.9h1.63ZM181.86,54.36c-1.08,0-2.04-.25-2.88-.76-.84-.5-1.49-1.2-1.97-2.09-.47-.89-.71-1.9-.71-3.05s.23-2.08.7-2.94c.47-.86,1.11-1.54,1.93-2.03s1.75-.75,2.79-.75,1.99.23,2.8.69c.81.46,1.45,1.1,1.9,1.92.45.82.67,1.77.66,2.84,0,.18,0,.37-.02.55-.02.19-.04.4-.07.62h-8.36c.05.6.21,1.13.51,1.59.29.46.67.82,1.13,1.07.46.26.98.38,1.57.38.75,0,1.41-.15,1.97-.44.56-.29.95-.69,1.17-1.19l1.85.66c-.45.92-1.11,1.63-1.98,2.15-.87.51-1.86.77-2.99.77ZM184.75,47.54c0-.54-.14-1.03-.41-1.47-.27-.44-.64-.78-1.1-1.03-.46-.25-.98-.37-1.55-.37-.51,0-.98.12-1.41.37-.43.25-.79.59-1.08,1.02-.29.43-.48.92-.55,1.48h6.1ZM188.32,42.91h1.94l.14,1.51c.32-.39.68-.72,1.1-.98.41-.26.87-.45,1.36-.55.49-.11,1-.1,1.52.02v2.01c-.5-.12-.98-.14-1.45-.05-.47.09-.88.28-1.25.58s-.67.68-.89,1.16c-.23.48-.34,1.06-.34,1.74v5.85h-2.12v-11.29ZM206.75,40.29h-.79l-4.97,13.92h-2.3l5.69-15.81h3.91l5.69,15.81h-2.3l-4.92-13.92ZM201.6,48.29h9.22v1.9h-9.22v-1.9ZM214.41,42.91h1.94l.14,1.31c.36-.47.82-.83,1.38-1.08.56-.26,1.17-.38,1.85-.38.87,0,1.63.18,2.27.55.64.37,1.14.91,1.49,1.64.35.72.53,1.63.53,2.71v6.55h-2.12v-6.28c0-1.05-.22-1.86-.67-2.41-.44-.55-1.09-.82-1.93-.82s-1.55.28-2.03.85c-.48.56-.72,1.4-.72,2.5v6.17h-2.12v-11.29ZM233.12,42.91h2.21l-6.55,15.81h-2.1l1.99-4.74-4.47-11.07h2.35l3.28,8.56,3.3-8.56ZM236.73,42.91v-3.16h2.15v3.16h2.82v1.9h-2.82v5.56c0,.69.14,1.18.42,1.47.28.29.63.45,1.06.49.43.04.88.03,1.34-.03v1.83c-.62.14-1.22.18-1.82.12-.6-.05-1.13-.22-1.6-.51-.47-.29-.85-.7-1.13-1.25-.28-.55-.42-1.25-.42-2.11v-5.56h-1.63v-1.9h1.63ZM247.66,54.36c-1.07,0-2.03-.24-2.88-.71-.85-.47-1.52-1.14-2-2.01-.48-.87-.72-1.89-.72-3.06s.25-2.22.75-3.09c.5-.87,1.17-1.55,2.03-2.02.86-.47,1.82-.71,2.89-.71s2.04.24,2.9.71c.87.47,1.55,1.14,2.04,2.01.5.87.75,1.89.75,3.06s-.25,2.22-.76,3.09c-.5.87-1.19,1.55-2.07,2.02-.87.47-1.85.71-2.94.71ZM247.64,52.42c.6,0,1.17-.14,1.69-.42.53-.28.96-.7,1.3-1.28.34-.57.51-1.3.51-2.19s-.16-1.59-.49-2.16c-.32-.56-.75-.99-1.28-1.27-.53-.28-1.09-.42-1.69-.42s-1.13.14-1.64.42c-.5.28-.92.7-1.23,1.28-.32.57-.47,1.3-.47,2.19s.15,1.59.46,2.16c.31.56.71.99,1.21,1.27.5.28,1.04.42,1.63.42ZM258.94,54.21h-2.03l-3.55-11.29h2.17l2.37,8.76,2.53-8.76h2.03l2.44,8.72,2.35-8.72h2.1l-3.5,11.29h-2.06l-2.42-8.2-2.44,8.2ZM270.16,42.91h1.94l.14,1.31c.36-.47.82-.83,1.38-1.08.56-.26,1.17-.38,1.85-.38.87,0,1.63.18,2.27.55.64.37,1.14.91,1.49,1.64.35.72.53,1.63.53,2.71v6.55h-2.12v-6.28c0-1.05-.22-1.86-.67-2.41-.44-.55-1.09-.82-1.93-.82s-1.55.28-2.03.85c-.48.56-.72,1.4-.72,2.5v6.17h-2.12v-11.29ZM292.48,38.39c1.25,0,2.28.21,3.08.64s1.41,1,1.81,1.71c.4.71.6,1.5.6,2.37,0,.57-.1,1.14-.29,1.69-.2.56-.51,1.07-.95,1.52-.44.46-1.01.82-1.71,1.08-.7.26-1.54.4-2.52.4h-3.64v6.39h-2.26v-15.81h5.87ZM295.69,43.11c0-.86-.26-1.54-.77-2.06-.51-.51-1.33-.77-2.44-.77h-3.61v5.62h3.64c.74,0,1.34-.12,1.81-.35.47-.23.81-.56,1.04-.98.23-.42.34-.91.34-1.47ZM293.93,47.04l4.36,7.16h-2.55l-4.2-7.16h2.39ZM304.36,54.36c-1.08,0-2.04-.25-2.88-.76-.84-.5-1.49-1.2-1.97-2.09-.47-.89-.71-1.9-.71-3.05s.23-2.08.7-2.94c.47-.86,1.11-1.54,1.93-2.03s1.75-.75,2.79-.75,1.99.23,2.8.69c.81.46,1.45,1.1,1.9,1.92.45.82.67,1.77.66,2.84,0,.18,0,.37-.02.55-.02.19-.04.4-.07.62h-8.36c.05.6.21,1.13.51,1.59.29.46.67.82,1.13,1.07.46.26.98.38,1.57.38.75,0,1.41-.15,1.97-.44.56-.29.95-.69,1.17-1.19l1.85.66c-.45.92-1.11,1.63-1.98,2.15-.87.51-1.86.77-2.99.77ZM307.25,47.54c0-.54-.14-1.03-.41-1.47-.27-.44-.64-.78-1.1-1.03-.46-.25-.98-.37-1.55-.37-.51,0-.98.12-1.41.37-.43.25-.79.59-1.08,1.02-.29.43-.48.92-.55,1.48h6.1ZM319.29,42.91h1.94v9.44c0,1.33-.32,2.46-.95,3.41-.63.95-1.54,1.68-2.72,2.19-1.18.51-2.61.77-4.28.77l-.34-1.87c2.02-.05,3.55-.45,4.59-1.21,1.04-.76,1.56-1.86,1.56-3.29v-.11l.25.02c-.36.57-.88,1.07-1.55,1.48-.67.41-1.5.62-2.5.62s-1.9-.24-2.68-.72c-.78-.48-1.38-1.16-1.81-2.03-.43-.87-.64-1.89-.64-3.05s.21-2.18.64-3.05c.43-.87,1.03-1.55,1.81-2.03.78-.48,1.67-.72,2.68-.72.62,0,1.17.08,1.66.25.49.17.91.39,1.28.67.36.28.66.59.9.94l.16-1.69ZM312.45,48.56c0,1.16.31,2.09.92,2.8.61.71,1.43,1.06,2.45,1.06.6,0,1.15-.15,1.65-.46.5-.31.89-.75,1.19-1.33.29-.58.44-1.27.44-2.07s-.15-1.51-.44-2.08c-.29-.57-.69-1.01-1.2-1.32-.5-.31-1.05-.46-1.64-.46-1.02,0-1.84.35-2.45,1.06-.61.71-.92,1.64-.92,2.8ZM324.54,40.92c-.41,0-.75-.14-1.02-.41-.27-.27-.41-.6-.41-.99s.14-.75.41-1.03c.27-.28.61-.42,1.02-.42s.73.14,1,.42c.28.28.42.62.42,1.03s-.14.72-.42.99c-.28.27-.61.41-1,.41ZM323.45,42.91h2.15v11.29h-2.15v-11.29ZM332.76,54.36c-1.07,0-2.03-.24-2.88-.71-.85-.47-1.52-1.14-2-2.01-.48-.87-.72-1.89-.72-3.06s.25-2.22.75-3.09c.5-.87,1.17-1.55,2.03-2.02.86-.47,1.82-.71,2.89-.71s2.04.24,2.9.71c.87.47,1.55,1.14,2.04,2.01.5.87.75,1.89.75,3.06s-.25,2.22-.76,3.09c-.5.87-1.19,1.55-2.07,2.02-.87.47-1.85.71-2.94.71ZM332.73,52.42c.6,0,1.17-.14,1.69-.42.53-.28.96-.7,1.3-1.28.34-.57.51-1.3.51-2.19s-.16-1.59-.49-2.16c-.32-.56-.75-.99-1.28-1.27-.53-.28-1.09-.42-1.69-.42s-1.13.14-1.64.42c-.5.28-.92.7-1.23,1.28-.32.57-.47,1.3-.47,2.19s.15,1.59.46,2.16c.31.56.71.99,1.21,1.27.5.28,1.04.42,1.63.42ZM339.76,42.91h1.94l.14,1.31c.36-.47.82-.83,1.38-1.08.56-.26,1.17-.38,1.85-.38.87,0,1.63.18,2.27.55.64.37,1.14.91,1.49,1.64.35.72.53,1.63.53,2.71v6.55h-2.12v-6.28c0-1.05-.22-1.86-.67-2.41-.44-.55-1.09-.82-1.93-.82s-1.55.28-2.03.85c-.48.56-.72,1.4-.72,2.5v6.17h-2.12v-11.29Z"/>
  </g>
  <path class="cls-1" d="M36.91,23.81v23.72h4.81v2.88h-8.85v-29.49h16.32v2.88h-12.28ZM13.8,20.92v3.54h12.28v25.95h4.04v-29.49H13.8ZM13.8,15.58v2.88h35.39v-2.88H13.8ZM47.4,30.91v.02c0,1.21-1.42,2.18-3.17,2.18s-3.14-.96-3.17-2.14c0-.02,0-.04,0-.06,0-.06.02-.11.05-.15l2.93-5.06c.07-.13.24-.17.36-.1.05.03.08.07.1.11l2.87,5.06s.04.09.04.14h0ZM44,26.81l-2.22,3.82h2.22v-3.82ZM46.68,30.64l-2.17-3.83v3.83h2.17ZM21.93,30.91v.02c0,1.21-1.42,2.18-3.17,2.18s-3.14-.96-3.17-2.14c0-.02,0-.04,0-.06,0-.06.02-.11.05-.15l2.93-5.06c.07-.13.24-.17.36-.1.05.03.08.07.1.11l2.87,5.06s.04.09.04.14h0ZM18.53,26.81l-2.22,3.82h2.22v-3.82ZM21.21,30.64l-2.17-3.83v3.83h2.17ZM60.61,31.49c0,16.06-13.06,29.12-29.12,29.12S2.38,47.55,2.38,31.49,15.44,2.38,31.49,2.38s29.12,13.06,29.12,29.12ZM58.99,31.49c0-15.16-12.33-27.49-27.49-27.49S4,16.33,4,31.49s12.33,27.49,27.49,27.49,27.49-12.33,27.49-27.49ZM62.99,31.49c0,17.37-14.13,31.49-31.49,31.49S0,48.86,0,31.49,14.13,0,31.49,0s31.49,14.13,31.49,31.49ZM61.36,31.49C61.36,15.02,47.96,1.62,31.49,1.62S1.62,15.02,1.62,31.49s13.4,29.87,29.87,29.87,29.87-13.4,29.87-29.87Z"/>
</svg>