<svg class="favicon" version="1.2" xmlns="http://www.w3.org/2000/svg" viewBox="0 0 16 16" width="16" height="16">
	<style>
		.favicon .s0 { fill: #031126 } 
		.favicon .s1 { fill: #ffffff } 
	</style>
	<g id="Layer 1">
		<path fill-rule="evenodd" class="s0" d="m16 0v16h-16v-16z"/>
		<path class="s1" aria-label="JZ"  d="m3.8 13.1q-0.3 0-0.6 0-0.3-0.1-0.6-0.2-0.3-0.2-0.5-0.4l0.3-1.2q0.3 0.4 0.6 0.6 0.4 0.2 0.8 0.2 0.5 0 0.9-0.3 0.4-0.4 0.4-1.3v-6.3l1.1 0.1v6.3q0 0.9-0.3 1.4-0.4 0.6-0.9 0.9-0.5 0.2-1.2 0.2zm8.9-0.1h-5.3l3.8-7.8h-3.4v-0.9h5.1l-3.8 7.7h3.6z"/>
	</g>
</svg>