<?xml version="1.0" encoding="UTF-8"?>
<svg id="Layer_2" data-name="Layer 2" xmlns="http://www.w3.org/2000/svg" width="394" height="340" viewBox="0 0 394 340">
  <defs>
    <style>
      .cls-1 {
        fill: #717382;
      }

      .cls-1, .cls-2, .cls-3, .cls-4 {
        stroke-width: 0px;
      }

      .cls-2 {
        fill: #ec802e;
      }

      .cls-3 {
        fill: #fff;
      }

      .cls-4 {
        fill: #565d6e;
      }
    </style>
  </defs>
  <g id="Layer_1-2" data-name="Layer 1">
    <g>
      <rect class="cls-3" width="394" height="340"/>
      <g>
        <path class="cls-2" d="m56.858,138.583h6.436v12.578h11.128v-12.578h6.414v33.338h-6.414v-14.618h-11.128v14.618h-6.436v-33.338Zm92.964,14.003l-15.609,12.306c1.311,1.199,2.776,1.819,4.396,1.859,1.62.042,3.189-.536,4.707-1.734,1.816-1.431,2.876-3.296,3.18-5.595h5.622c-.061,1.74-.443,3.34-1.147,4.799-.877,1.816-2.294,3.496-4.251,5.039-3.038,2.395-6.267,3.388-9.688,2.978s-6.268-2.057-8.541-4.94c-2.33-2.955-3.311-6.158-2.946-9.611.366-3.454,1.984-6.312,4.855-8.576,3.049-2.403,6.298-3.383,9.748-2.938,3.449.446,6.436,2.27,8.962,5.474l.712.939h0Zm-7.876.005c-1.172-.827-2.497-1.205-3.976-1.138-1.478.07-2.84.596-4.088,1.581-1.355,1.068-2.244,2.384-2.667,3.949-.268.981-.203,2.286.195,3.915,0,0,10.536-8.307,10.536-8.307Zm35.445,16.747c1.14-1.616,2.143-3.372,3.011-5.268v-11.011l-2.509-.535c-.915,5.248-2.255,9.256-4.019,12.024l-7.804-11.253c5.56-3.126,8.34-7.09,8.34-11.891,0-2.836-.91-5.197-2.729-7.084-1.821-1.886-4.338-2.831-7.554-2.831-3.193,0-5.789.995-7.787,2.982-1.999,1.987-2.998,4.287-2.998,6.9,0,2.88,1.329,6.386,3.986,10.516-3.76,1.748-6.454,3.955-8.082,6.621h3.819l-.033.946c-.064,1.861-.48,3.598-1.237,5.165-.836,1.732-2.143,3.361-3.889,4.849.563,2.036,1.576,3.863,3.041,5.48,2.378,2.625,5.778,3.936,10.199,3.936,4.288,0,8.184-1.575,11.69-4.723,2.367,2.993,4.99,4.488,7.871,4.488,1.005,0,2.211-.201,3.617-.602v-5.896c-.893.18-1.596.268-2.11.268-1.563,0-3.171-1.026-4.823-3.081m-16.144-31.484c.826-.826,1.83-1.24,3.014-1.24,1.228,0,2.222.441,2.981,1.323.759.883,1.139,2.016,1.139,3.4,0,3.149-1.775,5.75-5.325,7.804-2.033-3.149-3.048-5.794-3.048-7.938,0-1.407.412-2.523,1.239-3.349m.837,35.336c-2.233,0-4.035-.758-5.409-2.278-1.373-1.518-2.061-3.472-2.061-5.861,0-3.684,1.888-6.654,5.661-8.91l9.278,13.499c-2.099,2.367-4.589,3.55-7.469,3.55m13.317-34.607h18.426v6.254h-6.074v27.084h-6.436v-27.084h-5.916v-6.254h0Zm106.016,20.719l.014-.11v-2.115l-4.113,3.243v4.809c.42-.223.839-.5,1.26-.831,1.636-1.29,2.564-2.924,2.839-4.996m4.232-6.716l-15.607,12.306c1.31,1.198,2.776,1.817,4.395,1.859,1.619.041,3.189-.537,4.707-1.735,1.816-1.431,2.876-3.296,3.179-5.595h5.623c-.061,1.741-.443,3.34-1.147,4.799-.877,1.817-2.294,3.496-4.251,5.039-3.038,2.396-6.267,3.387-9.688,2.977s-6.268-2.056-8.541-4.94c-2.33-2.953-3.311-6.157-2.946-9.61.366-3.453,1.984-6.312,4.855-8.576,3.05-2.403,6.299-3.383,9.748-2.938,3.449.447,6.436,2.27,8.961,5.474,0,0,.712.94.712.94Zm-7.875.004c-1.172-.826-2.497-1.205-3.975-1.138-1.478.07-2.841.596-4.089,1.58-1.354,1.068-2.244,2.385-2.668,3.95-.266.981-.202,2.285.196,3.915l10.536-8.307h0Zm-166.408,10.791l-3.091-7.026-7.033,3.086,2.506.975c-.45,1.848-1.447,3.382-2.994,4.601-1.518,1.198-3.087,1.776-4.707,1.734-1.62-.04-3.084-.66-4.395-1.859l15.608-12.306-.712-.939c-2.526-3.204-5.513-5.028-8.962-5.474-3.449-.445-6.698.535-9.748,2.938-2.871,2.264-4.489,5.122-4.855,8.576-.365,3.453.617,6.656,2.946,9.611,2.274,2.883,5.12,4.53,8.541,4.94s6.65-.583,9.688-2.978c1.958-1.543,3.375-3.223,4.251-5.039.269-.557.49-1.134.665-1.731,0,0,2.292.891,2.292.891Zm-22.713-6.398c.423-1.565,1.312-2.881,2.667-3.949,1.249-.985,2.611-1.511,4.089-1.581,1.479-.067,2.804.311,3.975,1.138l-10.536,8.307c-.398-1.629-.463-2.934-.195-3.915m38.661-7.825s-1.62-1.434-3.28-1.982c-.528-.175-1.624-.547-2.379-.547-1.133,0-2.175.316-3.127.951-.951.635-1.715,1.564-2.289,2.788v-3.106h-5.303v24.659h6.142v-9.973l-.023-1.201c0-3.444.328-5.757.986-6.934.657-1.179,1.483-1.571,2.413-1.768,2.662-.565,3.929,1.964,3.929,1.964.963-1.593,2.931-4.851,2.931-4.851m135.833,0s-1.621-1.434-3.281-1.982c-.528-.175-1.624-.547-2.378-.547-1.134,0-2.176.316-3.128.951-.952.635-1.715,1.564-2.288,2.788v-3.106h-5.304v24.659h6.142v-9.973l-.023-1.201c0-3.444.329-5.757.986-6.934.657-1.179,1.483-1.571,2.414-1.768,2.662-.565,3.929,1.964,3.929,1.964.962-1.593,2.931-4.851,2.931-4.851m-52.247,11.952v7.474l1.358,1.358,4.739-3.69v-10.627c0-2.84-.717-4.993-2.153-6.459-1.677-1.692-3.739-2.537-6.187-2.537-1.255,0-2.493.26-3.717.781-1.224.522-2.44,1.303-3.649,2.346v-12.012h-6.141v34.177h6.141v-9.904c0-2.644.091-4.336.273-5.077.346-1.435.97-2.568,1.869-3.4.899-.83,1.975-1.246,3.229-1.246.967,0,1.78.249,2.437.748.657.498,1.122,1.254,1.394,2.266.272,1.012.407,2.946.407,5.802m29.195-1.688c-.304,2.299-1.364,4.163-3.18,5.594-1.518,1.198-3.087,1.776-4.707,1.735-1.62-.04-3.084-.66-4.395-1.859l15.608-12.306-.712-.939c-2.526-3.204-5.513-5.028-8.962-5.474s-6.698.534-9.747,2.937c-2.872,2.264-4.49,5.123-4.855,8.576-.256,2.414.148,4.706,1.209,6.876l-1.755,1.365-6.341,4.937-1.998-1.998v7.677l7.68.007-2.283-2.284,5.874-4.572,1.578-1.228c2.087,2.162,4.595,3.42,7.523,3.771,3.421.41,6.65-.582,9.687-2.977,1.958-1.543,3.375-3.224,4.251-5.041.704-1.458,1.087-3.057,1.147-4.797h-5.622,0Zm-15.281-2.44c.423-1.565,1.312-2.882,2.667-3.95,1.248-.984,2.611-1.51,4.089-1.579,1.478-.068,2.804.311,3.976,1.138l-10.536,8.306c-.399-1.629-.464-2.934-.196-3.915"/>
        <path class="cls-4" d="m120.48,181.787h1.738v2.483c.686-.944,1.476-1.652,2.369-2.123.894-.472,1.89-.708,2.99-.708,1.918,0,3.559.691,4.924,2.074,1.364,1.382,2.047,3.046,2.047,4.991,0,1.987-.676,3.674-2.029,5.06-1.352,1.386-2.983,2.08-4.892,2.08-1.076,0-2.064-.224-2.965-.671-.902-.446-1.716-1.113-2.444-1.999v7.263h-1.738s0-18.45,0-18.45Zm6.953,1.328c-1.503,0-2.769.526-3.797,1.575-1.028,1.051-1.542,2.357-1.542,3.92,0,1.025.229,1.947.687,2.766.458.818,1.115,1.467,1.97,1.947.855.48,1.757.719,2.707.719.933,0,1.81-.242,2.632-.726.822-.483,1.476-1.159,1.964-2.027.487-.868.731-1.778.731-2.729,0-.959-.243-1.868-.725-2.728-.483-.86-1.134-1.528-1.951-2.003-.818-.475-1.71-.714-2.676-.714m9.656-6.544h1.738v7.637c.704-.927,1.478-1.62,2.322-2.08.844-.459,1.759-.689,2.744-.689,1.01,0,1.906.257,2.689.77.782.514,1.359,1.203,1.732,2.067.372.866.558,2.221.558,4.067v6.953h-1.738v-6.444c0-1.556-.062-2.595-.186-3.117-.215-.894-.607-1.566-1.174-2.017-.567-.452-1.31-.677-2.229-.677-1.051,0-1.992.348-2.825,1.043-.831.695-1.38,1.556-1.644,2.583-.166.662-.249,1.887-.249,3.675v4.954h-1.738s0-18.725,0-18.725Zm21.242,4.868c2.081,0,3.806.753,5.174,2.26,1.245,1.374,1.866,3.001,1.866,4.879,0,1.888-.657,3.537-1.971,4.949-1.315,1.411-3.004,2.117-5.069,2.117s-3.767-.706-5.081-2.117c-1.315-1.412-1.972-3.061-1.972-4.949,0-1.87.622-3.493,1.866-4.867,1.368-1.515,3.098-2.272,5.187-2.272m-.007,1.701c-1.444,0-2.687.534-3.725,1.602s-1.558,2.36-1.558,3.874c0,.977.237,1.887.711,2.731.473.845,1.113,1.497,1.919,1.956.806.46,1.69.689,2.653.689s1.849-.229,2.655-.689c.806-.459,1.445-1.111,1.919-1.956.474-.844.71-1.754.71-2.731,0-1.514-.521-2.806-1.564-3.874-1.042-1.068-2.282-1.602-3.72-1.602m9.628-1.353h1.738v2.421c.695-.927,1.465-1.62,2.31-2.08.844-.459,1.762-.689,2.756-.689,1.009,0,1.906.257,2.688.77.782.514,1.36,1.205,1.732,2.073.373.87.559,2.223.559,4.061v6.953h-1.739v-6.444c0-1.556-.064-2.595-.193-3.117-.201-.894-.588-1.566-1.159-2.017-.571-.452-1.316-.677-2.235-.677-1.051,0-1.993.348-2.825,1.043-.833.695-1.381,1.556-1.646,2.583-.165.67-.248,1.895-.248,3.675v4.954h-1.738v-13.509h0Zm26.221,9.027l1.464.77c-.479.943-1.035,1.704-1.665,2.284-.629.58-1.337,1.021-2.125,1.322-.787.303-1.678.454-2.671.454-2.205,0-3.928-.722-5.171-2.167-1.243-1.444-1.864-3.078-1.864-4.899,0-1.713.526-3.24,1.579-4.581,1.333-1.705,3.118-2.558,5.355-2.558,2.303,0,4.143.874,5.518,2.62.978,1.233,1.475,2.773,1.492,4.619h-12.156c.033,1.569.534,2.856,1.504,3.859.97,1.004,2.168,1.505,3.593,1.505.688,0,1.357-.119,2.007-.359.651-.239,1.204-.556,1.66-.952.456-.396.95-1.035,1.48-1.917m0-3.638c-.232-.928-.57-1.668-1.014-2.223-.443-.554-1.029-1.001-1.759-1.341-.73-.34-1.496-.51-2.3-.51-1.326,0-2.466.427-3.419,1.28-.696.621-1.222,1.552-1.578,2.794h10.07Zm11.535-5.389h1.776v1.974c.529-.778,1.089-1.36,1.677-1.745.587-.385,1.2-.577,1.837-.577.48,0,.994.153,1.54.459l-.907,1.466c-.364-.158-.671-.237-.919-.237-.58,0-1.138.239-1.676.715-.538.475-.948,1.214-1.229,2.216-.216.77-.323,2.327-.323,4.669v4.569h-1.776s0-13.509,0-13.509Zm18.485,9.027l1.466.77c-.48.943-1.036,1.704-1.666,2.284-.629.58-1.337,1.021-2.125,1.322-.787.303-1.678.454-2.671.454-2.205,0-3.928-.722-5.171-2.167-1.243-1.444-1.864-3.078-1.864-4.899,0-1.713.526-3.24,1.578-4.581,1.333-1.705,3.119-2.558,5.357-2.558,2.303,0,4.142.874,5.517,2.62.978,1.233,1.475,2.773,1.491,4.619h-12.155c.033,1.569.534,2.856,1.504,3.859.97,1.004,2.168,1.505,3.593,1.505.688,0,1.357-.119,2.008-.359.65-.239,1.203-.556,1.66-.952.455-.396.948-1.035,1.478-1.917m0-3.638c-.231-.928-.569-1.668-1.013-2.223-.443-.554-1.029-1.001-1.759-1.341-.729-.34-1.496-.51-2.3-.51-1.325,0-2.465.427-3.419,1.28-.696.621-1.222,1.552-1.579,2.794,0,0,10.07,0,10.07,0Zm4.415-5.389h1.739v2.483c.686-.944,1.475-1.652,2.368-2.123.894-.472,1.89-.708,2.99-.708,1.919,0,3.56.691,4.925,2.074,1.364,1.382,2.046,3.046,2.046,4.991,0,1.987-.676,3.674-2.027,5.06-1.353,1.386-2.984,2.08-4.894,2.08-1.075,0-2.063-.224-2.965-.671-.901-.446-1.716-1.113-2.443-1.999v7.263h-1.739v-18.45h0Zm6.954,1.328c-1.504,0-2.769.526-3.798,1.575-1.028,1.051-1.541,2.357-1.541,3.92,0,1.025.228,1.947.687,2.766.458.818,1.115,1.467,1.969,1.947.856.48,1.758.719,2.707.719.934,0,1.811-.242,2.633-.726.822-.483,1.476-1.159,1.963-2.027.488-.868.731-1.778.731-2.729,0-.959-.241-1.868-.724-2.728-.484-.86-1.133-1.528-1.952-2.003-.817-.475-1.709-.714-2.675-.714m23.039-1.328v13.509h-1.713v-2.322c-.728.886-1.546,1.553-2.453,1.999-.906.447-1.897.671-2.973.671-1.912,0-3.545-.694-4.899-2.08-1.353-1.386-2.03-3.073-2.03-5.06,0-1.945.683-3.609,2.049-4.991,1.366-1.383,3.009-2.074,4.929-2.074,1.11,0,2.113.236,3.012.708.898.471,1.686,1.179,2.365,2.123v-2.483h1.713Zm-6.947,1.328c-.967,0-1.86.239-2.678.714-.819.475-1.471,1.143-1.954,2.003s-.726,1.769-.726,2.728c0,.951.245,1.861.732,2.729.488.868,1.143,1.544,1.966,2.027.822.484,1.706.726,2.648.726.95,0,1.852-.239,2.703-.719.852-.48,1.507-1.129,1.967-1.947.458-.819.688-1.741.688-2.766,0-1.563-.515-2.869-1.545-3.92-1.029-1.049-2.296-1.575-3.801-1.575m11.003-6.891c.396,0,.733.141,1.013.422.281.282.421.621.421,1.018,0,.389-.14.725-.421,1.006-.28.282-.617.422-1.013.422-.387,0-.721-.14-1.002-.422-.28-.281-.419-.617-.419-1.006,0-.397.139-.736.419-1.018.281-.281.615-.422,1.002-.422m-.863,5.563h1.739v13.509h-1.739v-13.509Zm5.111,0h1.776v1.974c.529-.778,1.088-1.36,1.676-1.745s1.2-.577,1.837-.577c.48,0,.994.153,1.54.459l-.906,1.466c-.364-.158-.671-.237-.919-.237-.579,0-1.138.239-1.676.715-.538.475-.948,1.214-1.229,2.216-.216.77-.323,2.327-.323,4.669v4.569h-1.776v-13.509h0Z"/>
        <path class="cls-1" d="m325.503,104.164h-37.609c-5.817,0-10.577,4.759-10.577,10.576v30.743c1.451.328,2.824.9,4.113,1.71v-28.747h50.537v66.043h-50.537v-13.334c-1.332.818-2.706,1.398-4.113,1.735v15.304c0,5.818,4.76,10.578,10.577,10.578h37.609c5.817,0,10.578-4.76,10.578-10.578v-73.454c0-5.817-4.761-10.576-10.578-10.576m-44.073,12.325v-1.749c0-1.715.676-3.334,1.903-4.561,1.226-1.226,2.846-1.902,4.561-1.902h37.609c1.715,0,3.335.676,4.562,1.902,1.227,1.227,1.902,2.846,1.902,4.561v1.749h-50.537Zm48.635,76.267c-1.227,1.227-2.847,1.903-4.562,1.903h-37.609c-1.715,0-3.335-.676-4.561-1.903-1.227-1.227-1.903-2.846-1.903-4.562v-1.748h50.537v1.748c0,1.716-.675,3.335-1.902,4.562m-48.649-33.454l.014-.11v-2.115l-4.113,3.244v4.809c.421-.223.84-.5,1.26-.832,1.637-1.289,2.565-2.924,2.839-4.996"/>
        <path class="cls-1" d="m315.503,111.473h-17.607c-.54,0-.978.438-.978.978s.438.979.978.979h17.607c.54,0,.978-.438.978-.979s-.438-.978-.978-.978"/>
        <path class="cls-1" d="m309.352,190.291c0,1.465-1.188,2.653-2.653,2.653s-2.653-1.188-2.653-2.653,1.188-2.652,2.653-2.652,2.653,1.187,2.653,2.652"/>
      </g>
    </g>
  </g>
</svg>