<?xml version="1.0" encoding="UTF-8"?>
<svg id="Layer_2" data-name="Layer 2" xmlns="http://www.w3.org/2000/svg" width="394" height="340" viewBox="0 0 394 340">
  <defs>
    <style>
      .cls-1 {
        fill: #432459;
      }

      .cls-1, .cls-2, .cls-3 {
        stroke-width: 0px;
      }

      .cls-2 {
        fill: #fff;
      }

      .cls-3 {
        fill: #4a3459;
      }
    </style>
  </defs>
  <g id="Layer_1-2" data-name="Layer 1">
    <g>
      <rect class="cls-2" width="394" height="340"/>
      <g>
        <g>
          <polygon class="cls-1" points="174.616 186.93 149.117 186.93 180.833 111.697 206.332 111.697 236.889 186.93 210.442 186.93 174.616 186.93"/>
          <path class="cls-1" d="m301.376,124.657l-14.33,17.07c-4.531-6.111-11.275-10.115-17.07-10.115-8.956,0-15.595,7.165-15.595,17.175,0,10.115,6.533,17.386,15.595,17.386,5.374,0,12.117-3.372,17.07-8.535l14.33,15.384c-8.324,9.167-21.074,15.068-32.665,15.068-23.076,0-39.83-16.438-39.83-38.776,0-22.128,17.175-38.144,40.778-38.144,11.485-.211,24.024,5.163,31.716,13.487Z"/>
          <path class="cls-1" d="m148.59,166.173v20.652h-50.999v-75.128h24.867v54.476h26.132Z"/>
        </g>
        <path id="Capital" class="cls-2" d="m202.75,160.272s-3.583-1.581-9.167-1.686h-.316c-5.585.105-9.167,1.686-9.167,1.686,0-10.115,3.583-12.539,8.113-12.855l1.159-13.277,1.159,13.277c4.742.316,8.219,2.74,8.219,12.855Zm-8.746,3.583h-1.054c-10.326.211-18.334,2.74-18.545,21.179v2.213h3.161v-1.581c0-4.636,0-8.43,2.107-8.43s2.107,3.793,2.107,8.43v1.581h3.899v-1.897c0-5.163,0-9.378,2.634-9.378,2.74,0,2.74,4.215,2.74,9.378v1.897h4.847v-1.897c0-5.163,0-9.378,2.74-9.378s2.74,4.215,2.74,9.378v1.897h3.793v-1.581c0-4.636,0-8.43,2.107-8.43s2.107,3.793,2.107,8.43v1.581h3.161v-2.213c-.211-18.44-8.324-21.074-18.545-21.179Z"/>
        <rect class="cls-2" x="192.318" y="146.785" width="2.424" height=".632"/>
        <g>
          <path class="cls-3" d="m84.841,197.151c-.527,0-1.37-.105-1.791-.211-.105-.316-.105-1.054,0-1.37h6.322c.105.316,0,1.054,0,1.37-.632.105-1.581.211-2.213.211v13.698h6.006c0-.738.105-1.897.211-2.424.316-.105,1.159-.211,1.581-.211v4.109h-12.223c0-.316.211-.948.316-1.264.421-.105,1.37-.211,1.897-.316v-13.593h-.105Z"/>
          <path class="cls-3" d="m102.649,210.955c-.632,1.159-1.897,1.897-3.372,1.897-1.791,0-3.477-1.054-3.477-3.266,0-2.529,2.107-3.793,4.531-3.793.738,0,1.686.105,2.213.421v-1.264c0-1.791-.738-2.74-2.318-2.74-1.054,0-2.74.632-3.583,1.159-.105-.211-.105-.527-.105-.843,0-.421.105-.948.316-1.264.843-.421,2.634-.843,4.004-.843,2.634,0,3.793,1.264,3.793,4.636v4.742c0,.527.105,1.054.316,1.264.316,0,1.264-.105,1.686-.316v.316c0,.421-.105.843-.211,1.054-.527.316-1.791.738-2.634.738-.527-.316-.948-1.054-1.054-1.897h-.105Zm-.105-3.688c-.421-.105-1.264-.211-1.686-.211-1.897,0-2.95.843-2.95,2.107,0,1.37,1.054,1.897,2.213,1.897.948,0,2.002-.421,2.424-1.159v-2.634Z"/>
          <path class="cls-3" d="m111.184,210.955c.632,0,1.37.211,1.791.316.105.316.105.843,0,1.159h-5.795c0-.316.211-.738.316-1.054.421-.211,1.054-.316,1.581-.421v-8.64h-1.791c0-.421.211-.948.421-1.264.527-.211,1.264-.316,2.002-.316.421,0,.843,0,1.159.105v1.791h.211c.421-.843,1.686-2.107,3.899-2.107,1.897,0,3.583.632,3.583,4.32,0,2.002,0,4.004-.105,6.111.632,0,1.475.211,2.002.316,0,.211.105.527.105.738v.421h-5.795c0-.316.211-.738.316-1.054.316-.211.948-.316,1.37-.421v-5.69c0-1.897-.632-3.056-2.318-3.056-1.264,0-2.529.843-3.056,1.581v7.165h.105Z"/>
          <path class="cls-3" d="m127.41,201.998c-.316-.105-.948-.316-1.475-.316-1.264,0-2.002.527-2.002,1.475,0,2.74,5.69,1.897,5.69,6.111,0,2.529-2.107,3.477-4.32,3.477-1.37,0-2.634-.316-3.688-.948-.105-.316-.105-.738-.105-1.159,0-.632.105-1.264.211-1.686.527,0,1.264.105,1.791.211v1.686c.527.316,1.264.527,2.002.527,1.264,0,2.002-.738,2.002-1.791,0-2.845-5.69-1.897-5.69-6.111,0-1.791,1.581-3.056,4.004-3.056,1.159,0,2.318.211,3.372.632v.738c0,.632-.105,1.475-.316,2.002-.527,0-1.264-.105-1.581-.421v-1.37h.105Z"/>
          <path class="cls-3" d="m130.993,202.209c0-.421.211-.948.421-1.264.527-.211,1.37-.316,2.213-.316.421,0,.948,0,1.264.105v10.115c.632,0,1.37.211,1.897.316,0,.211.105.527.105.738v.421h-6.006c0-.316.211-.738.316-1.054.421-.211,1.054-.316,1.581-.421v-8.64h-1.791Zm4.215-5.585c0,.948-.527,1.475-1.37,1.475-.948,0-1.37-.527-1.37-1.475,0-.843.632-1.37,1.37-1.37s1.37.421,1.37,1.37Z"/>
          <path class="cls-3" d="m141.53,210.955c.632,0,1.37.211,1.791.316.105.316.105.843,0,1.159h-5.795c0-.316.211-.738.316-1.054.421-.211,1.054-.316,1.581-.421v-8.64h-1.791c0-.421.211-.948.421-1.264.527-.211,1.264-.316,2.002-.316.421,0,.843,0,1.159.105v1.791h.211c.421-.843,1.686-2.107,3.899-2.107,1.897,0,3.583.632,3.583,4.32,0,2.002,0,4.004-.105,6.111.632,0,1.475.211,2.002.316,0,.211.105.527.105.738v.421h-5.795c0-.316.211-.738.316-1.054.316-.211.948-.316,1.37-.421v-5.69c0-1.897-.632-3.056-2.318-3.056-1.264,0-2.529.843-3.056,1.581v7.165h.105Z"/>
          <path class="cls-3" d="m153.542,212.219c-.632-.211-1.159-.843-1.159-1.686s.632-1.686,1.37-2.107v-.211c-.948-.632-1.581-1.791-1.581-3.477,0-2.74,2.002-4.32,4.636-4.32,1.054,0,2.002.211,2.74.632.421-.211,1.475-.421,2.318-.421.421,0,.738,0,1.054.105.105.316.211,1.054.211,1.475h-2.424c.421.632.738,1.475.738,2.529,0,2.74-1.791,4.32-4.636,4.32-.632,0-1.37-.105-2.002-.316-.211.211-.316.632-.316.948,0,.948,1.264,1.159,3.477,1.159,2.845,0,4.952.632,4.952,3.161,0,2.95-2.845,4.32-6.111,4.32-2.845,0-5.479-1.159-5.479-3.688,0-1.37,1.159-2.318,2.107-2.634v.211h.105Zm0,2.424c0,1.686,2.002,2.529,3.793,2.529,1.897,0,3.688-.843,3.688-2.529,0-1.264-.948-1.791-3.477-1.791-.843,0-1.897,0-2.74-.211-.948.316-1.264,1.159-1.264,2.002Zm3.266-6.744c1.686,0,2.529-1.159,2.529-3.056,0-1.791-.948-3.056-2.529-3.056-1.686,0-2.529,1.159-2.529,3.056,0,1.791.948,3.056,2.529,3.056Z"/>
          <path class="cls-3" d="m178.725,212.43c0-.421.211-.948.316-1.264.421-.105,1.264-.211,1.791-.316-.421-.527-.738-1.264-.948-1.897l-.738-2.107h-6.428l-.843,2.213c-.211.632-.527,1.264-.843,1.791.632,0,1.37.105,2.002.211.105.316.211.948.211,1.264h-5.795c0-.421.211-.948.421-1.264.316-.105.948-.211,1.264-.211l6.217-15.595h1.581l6.006,15.595c.421,0,1.159.105,1.581.211.105.421.211.948.316,1.37h-6.111Zm-2.95-14.541c-.105.527-.421,1.686-.632,2.318l-1.897,5.268h5.374l-2.002-5.268c-.211-.632-.527-1.686-.632-2.318h-.211Z"/>
          <path class="cls-3" d="m189.262,203.052c.316-1.475,1.581-2.634,3.161-2.634.316,0,.843.105,1.054.211.211.316.316.843.316,1.475,0,.211,0,.421-.105.632-.421-.316-1.054-.421-1.686-.421-1.159,0-2.213.632-2.74,2.002v6.533c.632,0,1.791.211,2.424.421.105.316.105.738,0,1.159h-6.322c0-.316.211-.738.316-1.054.421-.211,1.054-.316,1.581-.421v-8.64h-1.791c0-.421.211-.948.421-1.264.527-.211,1.264-.316,2.002-.316.421,0,.843,0,1.159.105v2.318h.211v-.105Z"/>
          <path class="cls-3" d="m196.744,206.951c0,2.634,1.686,4.215,4.004,4.215,1.054,0,2.529-.316,3.372-.632,0,.316-.105,1.054-.316,1.37-.843.527-2.318.948-3.793.948-3.477,0-5.479-2.634-5.479-5.901,0-3.583,2.213-6.428,5.585-6.428,2.95,0,4.109,2.107,4.109,5.163,0,.421,0,.843-.105,1.264h-7.376Zm5.374-1.475c.211-1.686-.316-3.688-2.318-3.688-1.686,0-2.845,1.475-2.95,3.688h5.268Z"/>
          <path class="cls-3" d="m212.549,210.955c-.632,1.159-1.897,1.897-3.372,1.897-1.791,0-3.477-1.054-3.477-3.266,0-2.529,2.107-3.793,4.531-3.793.738,0,1.686.105,2.213.421v-1.264c0-1.791-.738-2.74-2.318-2.74-1.054,0-2.74.632-3.583,1.159-.105-.211-.105-.527-.105-.843,0-.421.105-.948.316-1.264.843-.421,2.634-.843,4.004-.843,2.634,0,3.793,1.264,3.793,4.636v4.742c0,.527.105,1.054.316,1.264.316,0,1.264-.105,1.686-.316v.316c0,.421-.105.843-.211,1.054-.527.316-1.791.738-2.634.738-.527-.316-.948-1.054-1.054-1.897h-.105Zm0-3.688c-.421-.105-1.264-.211-1.686-.211-1.897,0-2.95.843-2.95,2.107,0,1.37,1.054,1.897,2.213,1.897.948,0,2.002-.421,2.424-1.159v-2.634Z"/>
          <path class="cls-3" d="m232.464,197.151c-.843-.421-1.686-.527-2.634-.527-3.266,0-5.901,2.424-5.901,7.06,0,4.952,2.318,7.27,5.795,7.27,1.37,0,3.372-.421,4.531-.843,0,.421-.105,1.159-.316,1.475-1.264.632-3.266,1.264-5.163,1.264-4.32,0-7.27-3.583-7.27-8.535,0-5.795,3.793-9.273,8.43-9.273,1.791,0,3.266.316,4.531.948,0,1.264-.105,3.056-.316,4.004-.527,0-1.264-.211-1.686-.421v-2.423Z"/>
          <path class="cls-3" d="m239.629,203.052c.316-1.475,1.581-2.634,3.161-2.634.316,0,.843.105,1.054.211.211.316.316.843.316,1.475,0,.211,0,.421-.105.632-.421-.316-1.054-.421-1.686-.421-1.159,0-2.213.632-2.74,2.002v6.533c.632,0,1.791.211,2.424.421.105.316.105.738,0,1.159h-6.428c0-.316.211-.738.316-1.054.421-.211,1.054-.316,1.581-.421v-8.64h-1.791c0-.421.211-.948.421-1.264.527-.211,1.264-.316,2.002-.316.421,0,.843,0,1.159.105v2.318h.316v-.105Z"/>
          <path class="cls-3" d="m247.11,206.951c0,2.634,1.686,4.215,4.004,4.215,1.054,0,2.529-.316,3.372-.632,0,.316-.105,1.054-.316,1.37-.843.527-2.318.948-3.793.948-3.477,0-5.479-2.634-5.479-5.901,0-3.583,2.213-6.428,5.585-6.428,2.95,0,4.109,2.107,4.109,5.163,0,.421,0,.843-.105,1.264h-7.376Zm5.374-1.475c.211-1.686-.316-3.688-2.318-3.688-1.686,0-2.845,1.475-2.95,3.688h5.268Z"/>
          <path class="cls-3" d="m262.916,210.955c-.632,1.159-1.897,1.897-3.372,1.897-1.791,0-3.477-1.054-3.477-3.266,0-2.529,2.107-3.793,4.531-3.793.738,0,1.686.105,2.213.421v-1.264c0-1.791-.738-2.74-2.318-2.74-1.054,0-2.74.632-3.583,1.159-.105-.211-.105-.527-.105-.843,0-.421.105-.948.316-1.264.843-.421,2.634-.843,4.004-.843,2.634,0,3.793,1.264,3.793,4.636v4.742c0,.527.105,1.054.316,1.264.316,0,1.264-.105,1.686-.316v.316c0,.421-.105.843-.211,1.054-.527.316-1.791.738-2.634.738-.527-.316-.948-1.054-1.054-1.897h-.105Zm0-3.688c-.421-.105-1.264-.211-1.686-.211-1.897,0-2.95.843-2.95,2.107,0,1.37,1.054,1.897,2.213,1.897.948,0,2.002-.421,2.423-1.159v-2.634h0Z"/>
          <path class="cls-3" d="m269.238,197.889c.316-.211,1.159-.421,1.581-.421v3.372h3.477c0,.211.105,1.054.105,1.37h-3.583v6.638c0,1.581.211,2.213,1.581,2.213.632,0,1.475-.105,2.213-.316v.316c0,.316-.105.738-.211.948-.948.421-2.002.632-2.95.632-1.897,0-2.845-1.054-2.845-3.477,0-1.475,0-4.531.105-7.06h-1.686c0-.316.105-.948.316-1.264.421-.211.948-.316,1.37-.421l.527-2.529Z"/>
          <path class="cls-3" d="m275.349,202.209c0-.421.211-.948.421-1.264.527-.211,1.37-.316,2.213-.316.421,0,.948,0,1.264.105v10.115c.632,0,1.37.211,1.897.316,0,.211.105.527.105.738v.421h-6.006c0-.316.211-.738.316-1.054.421-.211,1.054-.316,1.581-.421v-8.64h-1.791Zm4.32-5.585c0,.948-.527,1.475-1.37,1.475-.948,0-1.37-.527-1.37-1.475,0-.843.632-1.37,1.37-1.37s1.37.421,1.37,1.37Z"/>
          <path class="cls-3" d="m287.256,210.955c.105-.527.421-1.581.527-2.107l1.475-4.32c.211-.632.527-1.475.948-2.213-.421,0-1.054-.211-1.475-.316-.105-.421-.211-.843-.211-1.264h4.636c0,.421-.105.948-.211,1.37-.316.105-.843.211-1.159.211l-3.688,10.01-2.213.211-3.583-10.221c-.421-.105-.948-.211-1.264-.421-.105-.316-.211-.843-.211-1.264h5.479c0,.421-.105.948-.211,1.264-.421.105-1.159.211-1.686.316.316.527.632,1.37.843,2.107l1.475,4.531c.105.421.421,1.475.527,2.002h0v.105Z"/>
          <path class="cls-3" d="m295.686,206.951c0,2.634,1.686,4.215,4.004,4.215,1.054,0,2.529-.316,3.372-.632,0,.316-.105,1.054-.316,1.37-.843.527-2.318.948-3.793.948-3.477,0-5.479-2.634-5.479-5.901,0-3.583,2.213-6.428,5.585-6.428,2.95,0,4.109,2.107,4.109,5.163,0,.421,0,.843-.105,1.264h-7.376Zm5.268-1.475c.211-1.686-.316-3.688-2.318-3.688-1.686,0-2.845,1.475-2.95,3.688h5.268Z"/>
          <path class="cls-3" d="m310.753,201.998c-.316-.105-.948-.316-1.475-.316-1.264,0-2.002.527-2.002,1.475,0,2.74,5.69,1.897,5.69,6.111,0,2.529-2.107,3.477-4.32,3.477-1.37,0-2.634-.316-3.688-.948-.105-.316-.105-.738-.105-1.159,0-.632.105-1.264.211-1.686.527,0,1.264.105,1.791.211v1.686c.527.316,1.264.527,2.002.527,1.264,0,2.002-.738,2.002-1.791,0-2.845-5.69-1.897-5.69-6.111,0-1.791,1.581-3.056,4.004-3.056,1.159,0,2.318.211,3.372.632v.738c0,.632-.105,1.475-.316,2.002-.527,0-1.264-.105-1.581-.421v-1.37h.105Z"/>
        </g>
      </g>
    </g>
  </g>
</svg>