<svg version="1.1" xmlns="http://www.w3.org/2000/svg" xmlns:xlink="http://www.w3.org/1999/xlink" x="0px" y="0px" width="394px"
	 height="340px" viewBox="0 0 394 340" style="overflow:visible;enable-background:new 0 0 394 340;" xml:space="preserve">
<style type="text/css">
	.st0{fill:#432459;}
	.st1{fill:#FFFFFF;}
	.st2{fill:#4A3459;}
	.st3{fill:none;}
</style>
<defs>
</defs>
<g>
	<polygon class="st0" points="175.8,185.8 151.6,185.8 181.7,114.4 205.9,114.4 234.9,185.8 209.8,185.8 	"/>
	<path class="st0" d="M296.1,126.7l-13.6,16.2c-4.3-5.8-10.7-9.6-16.2-9.6c-8.5,0-14.8,6.8-14.8,16.3c0,9.6,6.2,16.5,14.8,16.5
		c5.1,0,11.5-3.2,16.2-8.1l13.6,14.6c-7.9,8.7-20,14.3-31,14.3c-21.9,0-37.8-15.6-37.8-36.8c0-21,16.3-36.2,38.7-36.2
		C276.9,113.7,288.8,118.8,296.1,126.7z"/>
	<path class="st0" d="M151.1,166.1v19.6h-48.4v-71.3h23.6v51.7H151.1z"/>
</g>
<path id="Capital_1_" class="st1" d="M202.5,160.5c0,0-3.4-1.5-8.7-1.6h-0.3c-5.3,0.1-8.7,1.6-8.7,1.6c0-9.6,3.4-11.9,7.7-12.2
	l1.1-12.6l1.1,12.6C199.2,148.6,202.5,150.9,202.5,160.5z M194.2,163.9h-1c-9.8,0.2-17.4,2.6-17.6,20.1v2.1h3v-1.5c0-4.4,0-8,2-8
	c2,0,2,3.6,2,8v1.5h3.7v-1.8c0-4.9,0-8.9,2.5-8.9c2.6,0,2.6,4,2.6,8.9v1.8h4.6v-1.8c0-4.9,0-8.9,2.6-8.9c2.6,0,2.6,4,2.6,8.9v1.8
	h3.6v-1.5c0-4.4,0-8,2-8c2,0,2,3.6,2,8v1.5h3V184C211.6,166.5,203.9,164,194.2,163.9z"/>
<rect x="192.6" y="147.7" class="st1" width="2.3" height="0.6"/>
<g>
	<path class="st2" d="M90.6,195.5c-0.5,0-1.3-0.1-1.7-0.2c-0.1-0.3-0.1-1,0-1.3h6c0.1,0.3,0,1,0,1.3c-0.6,0.1-1.5,0.2-2.1,0.2v13
		h5.7c0-0.7,0.1-1.8,0.2-2.3c0.3-0.1,1.1-0.2,1.5-0.2v3.9H88.6c0-0.3,0.2-0.9,0.3-1.2c0.4-0.1,1.3-0.2,1.8-0.3V195.5z"/>
	<path class="st2" d="M107.5,208.6c-0.6,1.1-1.8,1.8-3.2,1.8c-1.7,0-3.3-1-3.3-3.1c0-2.4,2-3.6,4.3-3.6c0.7,0,1.6,0.1,2.1,0.4v-1.2
		c0-1.7-0.7-2.6-2.2-2.6c-1,0-2.6,0.6-3.4,1.1c-0.1-0.2-0.1-0.5-0.1-0.8c0-0.4,0.1-0.9,0.3-1.2c0.8-0.4,2.5-0.8,3.8-0.8
		c2.5,0,3.6,1.2,3.6,4.4v4.5c0,0.5,0.1,1,0.3,1.2c0.3,0,1.2-0.1,1.6-0.3c0,0.1,0,0.2,0,0.3c0,0.4-0.1,0.8-0.2,1
		c-0.5,0.3-1.7,0.7-2.5,0.7c-0.5-0.3-0.9-1-1-1.8H107.5z M107.4,205.1c-0.4-0.1-1.2-0.2-1.6-0.2c-1.8,0-2.8,0.8-2.8,2
		c0,1.3,1,1.8,2.1,1.8c0.9,0,1.9-0.4,2.3-1.1V205.1z"/>
	<path class="st2" d="M115.6,208.6c0.6,0,1.3,0.2,1.7,0.3c0.1,0.3,0.1,0.8,0,1.1h-5.5c0-0.3,0.2-0.7,0.3-1c0.4-0.2,1-0.3,1.5-0.4
		v-8.2h-1.7c0-0.4,0.2-0.9,0.4-1.2c0.5-0.2,1.2-0.3,1.9-0.3c0.4,0,0.8,0,1.1,0.1v1.7h0.2c0.4-0.8,1.6-2,3.7-2c1.8,0,3.4,0.6,3.4,4.1
		c0,1.9,0,3.8-0.1,5.8c0.6,0,1.4,0.2,1.9,0.3c0,0.2,0.1,0.5,0.1,0.7c0,0.1,0,0.3,0,0.4H119c0-0.3,0.2-0.7,0.3-1
		c0.3-0.2,0.9-0.3,1.3-0.4v-5.4c0-1.8-0.6-2.9-2.2-2.9c-1.2,0-2.4,0.8-2.9,1.5V208.6z"/>
	<path class="st2" d="M131,200.1c-0.3-0.1-0.9-0.3-1.4-0.3c-1.2,0-1.9,0.5-1.9,1.4c0,2.6,5.4,1.8,5.4,5.8c0,2.4-2,3.3-4.1,3.3
		c-1.3,0-2.5-0.3-3.5-0.9c-0.1-0.3-0.1-0.7-0.1-1.1c0-0.6,0.1-1.2,0.2-1.6c0.5,0,1.2,0.1,1.7,0.2v1.6c0.5,0.3,1.2,0.5,1.9,0.5
		c1.2,0,1.9-0.7,1.9-1.7c0-2.7-5.4-1.8-5.4-5.8c0-1.7,1.5-2.9,3.8-2.9c1.1,0,2.2,0.2,3.2,0.6c0,0.2,0,0.5,0,0.7
		c0,0.6-0.1,1.4-0.3,1.9c-0.5,0-1.2-0.1-1.5-0.4V200.1z"/>
	<path class="st2" d="M134.4,200.3c0-0.4,0.2-0.9,0.4-1.2c0.5-0.2,1.3-0.3,2.1-0.3c0.4,0,0.9,0,1.2,0.1v9.6c0.6,0,1.3,0.2,1.8,0.3
		c0,0.2,0.1,0.5,0.1,0.7c0,0.1,0,0.3,0,0.4h-5.7c0-0.3,0.2-0.7,0.3-1c0.4-0.2,1-0.3,1.5-0.4v-8.2H134.4z M138.4,195
		c0,0.9-0.5,1.4-1.3,1.4c-0.9,0-1.3-0.5-1.3-1.4c0-0.8,0.6-1.3,1.3-1.3S138.4,194.1,138.4,195z"/>
	<path class="st2" d="M144.4,208.6c0.6,0,1.3,0.2,1.7,0.3c0.1,0.3,0.1,0.8,0,1.1h-5.5c0-0.3,0.2-0.7,0.3-1c0.4-0.2,1-0.3,1.5-0.4
		v-8.2h-1.7c0-0.4,0.2-0.9,0.4-1.2c0.5-0.2,1.2-0.3,1.9-0.3c0.4,0,0.8,0,1.1,0.1v1.7h0.2c0.4-0.8,1.6-2,3.7-2c1.8,0,3.4,0.6,3.4,4.1
		c0,1.9,0,3.8-0.1,5.8c0.6,0,1.4,0.2,1.9,0.3c0,0.2,0.1,0.5,0.1,0.7c0,0.1,0,0.3,0,0.4h-5.5c0-0.3,0.2-0.7,0.3-1
		c0.3-0.2,0.9-0.3,1.3-0.4v-5.4c0-1.8-0.6-2.9-2.2-2.9c-1.2,0-2.4,0.8-2.9,1.5V208.6z"/>
	<path class="st2" d="M155.8,209.8c-0.6-0.2-1.1-0.8-1.1-1.6c0-0.8,0.6-1.6,1.3-2V206c-0.9-0.6-1.5-1.7-1.5-3.3
		c0-2.6,1.9-4.1,4.4-4.1c1,0,1.9,0.2,2.6,0.6c0.4-0.2,1.4-0.4,2.2-0.4c0.4,0,0.7,0,1,0.1c0.1,0.3,0.2,1,0.2,1.4h-2.3
		c0.4,0.6,0.7,1.4,0.7,2.4c0,2.6-1.7,4.1-4.4,4.1c-0.6,0-1.3-0.1-1.9-0.3c-0.2,0.2-0.3,0.6-0.3,0.9c0,0.9,1.2,1.1,3.3,1.1
		c2.7,0,4.7,0.6,4.7,3c0,2.8-2.7,4.1-5.8,4.1c-2.7,0-5.2-1.1-5.2-3.5c0-1.3,1.1-2.2,2-2.5V209.8z M155.8,212.1
		c0,1.6,1.9,2.4,3.6,2.4c1.8,0,3.5-0.8,3.5-2.4c0-1.2-0.9-1.7-3.3-1.7c-0.8,0-1.8,0-2.6-0.2C156.1,210.5,155.8,211.3,155.8,212.1z
		 M158.9,205.7c1.6,0,2.4-1.1,2.4-2.9c0-1.7-0.9-2.9-2.4-2.9c-1.6,0-2.4,1.1-2.4,2.9C156.5,204.5,157.4,205.7,158.9,205.7z"/>
	<path class="st2" d="M179.7,210c0-0.4,0.2-0.9,0.3-1.2c0.4-0.1,1.2-0.2,1.7-0.3c-0.4-0.5-0.7-1.2-0.9-1.8l-0.7-2h-6.1l-0.8,2.1
		c-0.2,0.6-0.5,1.2-0.8,1.7c0.6,0,1.3,0.1,1.9,0.2c0.1,0.3,0.2,0.9,0.2,1.2H169c0-0.4,0.2-0.9,0.4-1.2c0.3-0.1,0.9-0.2,1.2-0.2
		l5.9-14.8h1.5l5.7,14.8c0.4,0,1.1,0.1,1.5,0.2c0.1,0.4,0.2,0.9,0.3,1.3H179.7z M176.9,196.2c-0.1,0.5-0.4,1.6-0.6,2.2l-1.8,5h5.1
		l-1.9-5c-0.2-0.6-0.5-1.6-0.6-2.2H176.9z"/>
	<path class="st2" d="M189.7,201.1c0.3-1.4,1.5-2.5,3-2.5c0.3,0,0.8,0.1,1,0.2c0.2,0.3,0.3,0.8,0.3,1.4c0,0.2,0,0.4-0.1,0.6
		c-0.4-0.3-1-0.4-1.6-0.4c-1.1,0-2.1,0.6-2.6,1.9v6.2c0.6,0,1.7,0.2,2.3,0.4c0.1,0.3,0.1,0.7,0,1.1H186c0-0.3,0.2-0.7,0.3-1
		c0.4-0.2,1-0.3,1.5-0.4v-8.2h-1.7c0-0.4,0.2-0.9,0.4-1.2c0.5-0.2,1.2-0.3,1.9-0.3c0.4,0,0.8,0,1.1,0.1v2.2H189.7z"/>
	<path class="st2" d="M196.8,204.8c0,2.5,1.6,4,3.8,4c1,0,2.4-0.3,3.2-0.6c0,0.3-0.1,1-0.3,1.3c-0.8,0.5-2.2,0.9-3.6,0.9
		c-3.3,0-5.2-2.5-5.2-5.6c0-3.4,2.1-6.1,5.3-6.1c2.8,0,3.9,2,3.9,4.9c0,0.4,0,0.8-0.1,1.2H196.8z M201.9,203.4
		c0.2-1.6-0.3-3.5-2.2-3.5c-1.6,0-2.7,1.4-2.8,3.5H201.9z"/>
	<path class="st2" d="M211.8,208.6c-0.6,1.1-1.8,1.8-3.2,1.8c-1.7,0-3.3-1-3.3-3.1c0-2.4,2-3.6,4.3-3.6c0.7,0,1.6,0.1,2.1,0.4v-1.2
		c0-1.7-0.7-2.6-2.2-2.6c-1,0-2.6,0.6-3.4,1.1c-0.1-0.2-0.1-0.5-0.1-0.8c0-0.4,0.1-0.9,0.3-1.2c0.8-0.4,2.5-0.8,3.8-0.8
		c2.5,0,3.6,1.2,3.6,4.4v4.5c0,0.5,0.1,1,0.3,1.2c0.3,0,1.2-0.1,1.6-0.3c0,0.1,0,0.2,0,0.3c0,0.4-0.1,0.8-0.2,1
		c-0.5,0.3-1.7,0.7-2.5,0.7c-0.5-0.3-0.9-1-1-1.8H211.8z M211.8,205.1c-0.4-0.1-1.2-0.2-1.6-0.2c-1.8,0-2.8,0.8-2.8,2
		c0,1.3,1,1.8,2.1,1.8c0.9,0,1.9-0.4,2.3-1.1V205.1z"/>
	<path class="st2" d="M230.7,195.5c-0.8-0.4-1.6-0.5-2.5-0.5c-3.1,0-5.6,2.3-5.6,6.7c0,4.7,2.2,6.9,5.5,6.9c1.3,0,3.2-0.4,4.3-0.8
		c0,0.4-0.1,1.1-0.3,1.4c-1.2,0.6-3.1,1.2-4.9,1.2c-4.1,0-6.9-3.4-6.9-8.1c0-5.5,3.6-8.8,8-8.8c1.7,0,3.1,0.3,4.3,0.9
		c0,1.2-0.1,2.9-0.3,3.8c-0.5,0-1.2-0.2-1.6-0.4V195.5z"/>
	<path class="st2" d="M237.5,201.1c0.3-1.4,1.5-2.5,3-2.5c0.3,0,0.8,0.1,1,0.2c0.2,0.3,0.3,0.8,0.3,1.4c0,0.2,0,0.4-0.1,0.6
		c-0.4-0.3-1-0.4-1.6-0.4c-1.1,0-2.1,0.6-2.6,1.9v6.2c0.6,0,1.7,0.2,2.3,0.4c0.1,0.3,0.1,0.7,0,1.1h-6.1c0-0.3,0.2-0.7,0.3-1
		c0.4-0.2,1-0.3,1.5-0.4v-8.2h-1.7c0-0.4,0.2-0.9,0.4-1.2c0.5-0.2,1.2-0.3,1.9-0.3c0.4,0,0.8,0,1.1,0.1v2.2H237.5z"/>
	<path class="st2" d="M244.6,204.8c0,2.5,1.6,4,3.8,4c1,0,2.4-0.3,3.2-0.6c0,0.3-0.1,1-0.3,1.3c-0.8,0.5-2.2,0.9-3.6,0.9
		c-3.3,0-5.2-2.5-5.2-5.6c0-3.4,2.1-6.1,5.3-6.1c2.8,0,3.9,2,3.9,4.9c0,0.4,0,0.8-0.1,1.2H244.6z M249.7,203.4
		c0.2-1.6-0.3-3.5-2.2-3.5c-1.6,0-2.7,1.4-2.8,3.5H249.7z"/>
	<path class="st2" d="M259.6,208.6c-0.6,1.1-1.8,1.8-3.2,1.8c-1.7,0-3.3-1-3.3-3.1c0-2.4,2-3.6,4.3-3.6c0.7,0,1.6,0.1,2.1,0.4v-1.2
		c0-1.7-0.7-2.6-2.2-2.6c-1,0-2.6,0.6-3.4,1.1c-0.1-0.2-0.1-0.5-0.1-0.8c0-0.4,0.1-0.9,0.3-1.2c0.8-0.4,2.5-0.8,3.8-0.8
		c2.5,0,3.6,1.2,3.6,4.4v4.5c0,0.5,0.1,1,0.3,1.2c0.3,0,1.2-0.1,1.6-0.3c0,0.1,0,0.2,0,0.3c0,0.4-0.1,0.8-0.2,1
		c-0.5,0.3-1.7,0.7-2.5,0.7c-0.5-0.3-0.9-1-1-1.8H259.6z M259.6,205.1c-0.4-0.1-1.2-0.2-1.6-0.2c-1.8,0-2.8,0.8-2.8,2
		c0,1.3,1,1.8,2.1,1.8c0.9,0,1.9-0.4,2.3-1.1V205.1z"/>
	<path class="st2" d="M265.6,196.2c0.3-0.2,1.1-0.4,1.5-0.4v3.2h3.3c0,0.2,0.1,1,0.1,1.3h-3.4v6.3c0,1.5,0.2,2.1,1.5,2.1
		c0.6,0,1.4-0.1,2.1-0.3c0,0.1,0,0.2,0,0.3c0,0.3-0.1,0.7-0.2,0.9c-0.9,0.4-1.9,0.6-2.8,0.6c-1.8,0-2.7-1-2.7-3.3
		c0-1.4,0-4.3,0.1-6.7h-1.6c0-0.3,0.1-0.9,0.3-1.2c0.4-0.2,0.9-0.3,1.3-0.4L265.6,196.2z"/>
	<path class="st2" d="M271.4,200.3c0-0.4,0.2-0.9,0.4-1.2c0.5-0.2,1.3-0.3,2.1-0.3c0.4,0,0.9,0,1.2,0.1v9.6c0.6,0,1.3,0.2,1.8,0.3
		c0,0.2,0.1,0.5,0.1,0.7c0,0.1,0,0.3,0,0.4h-5.7c0-0.3,0.2-0.7,0.3-1c0.4-0.2,1-0.3,1.5-0.4v-8.2H271.4z M275.5,195
		c0,0.9-0.5,1.4-1.3,1.4c-0.9,0-1.3-0.5-1.3-1.4c0-0.8,0.6-1.3,1.3-1.3C274.9,193.7,275.5,194.1,275.5,195z"/>
	<path class="st2" d="M282.7,208.6c0.1-0.5,0.4-1.5,0.5-2l1.4-4.1c0.2-0.6,0.5-1.4,0.9-2.1c-0.4,0-1-0.2-1.4-0.3
		c-0.1-0.4-0.2-0.8-0.2-1.2h4.4c0,0.4-0.1,0.9-0.2,1.3c-0.3,0.1-0.8,0.2-1.1,0.2l-3.5,9.5l-2.1,0.2l-3.4-9.7
		c-0.4-0.1-0.9-0.2-1.2-0.4c-0.1-0.3-0.2-0.8-0.2-1.2h5.2c0,0.4-0.1,0.9-0.2,1.2c-0.4,0.1-1.1,0.2-1.6,0.3c0.3,0.5,0.6,1.3,0.8,2
		l1.4,4.3c0.1,0.4,0.4,1.4,0.5,1.9H282.7z"/>
	<path class="st2" d="M290.7,204.8c0,2.5,1.6,4,3.8,4c1,0,2.4-0.3,3.2-0.6c0,0.3-0.1,1-0.3,1.3c-0.8,0.5-2.2,0.9-3.6,0.9
		c-3.3,0-5.2-2.5-5.2-5.6c0-3.4,2.1-6.1,5.3-6.1c2.8,0,3.9,2,3.9,4.9c0,0.4,0,0.8-0.1,1.2H290.7z M295.7,203.4
		c0.2-1.6-0.3-3.5-2.2-3.5c-1.6,0-2.7,1.4-2.8,3.5H295.7z"/>
	<path class="st2" d="M305,200.1c-0.3-0.1-0.9-0.3-1.4-0.3c-1.2,0-1.9,0.5-1.9,1.4c0,2.6,5.4,1.8,5.4,5.8c0,2.4-2,3.3-4.1,3.3
		c-1.3,0-2.5-0.3-3.5-0.9c-0.1-0.3-0.1-0.7-0.1-1.1c0-0.6,0.1-1.2,0.2-1.6c0.5,0,1.2,0.1,1.7,0.2v1.6c0.5,0.3,1.2,0.5,1.9,0.5
		c1.2,0,1.9-0.7,1.9-1.7c0-2.7-5.4-1.8-5.4-5.8c0-1.7,1.5-2.9,3.8-2.9c1.1,0,2.2,0.2,3.2,0.6c0,0.2,0,0.5,0,0.7
		c0,0.6-0.1,1.4-0.3,1.9c-0.5,0-1.2-0.1-1.5-0.4V200.1z"/>
</g>
<rect x="0" class="st3" width="394" height="340"/>
</svg>
