<?xml version="1.0" encoding="UTF-8"?>
<svg id="Layer_2" data-name="Layer 2" xmlns="http://www.w3.org/2000/svg" width="394" height="340" viewBox="0 0 394 340">
  <defs>
    <style>
      .cls-1 {
        fill: #432459;
      }

      .cls-1, .cls-2, .cls-3 {
        stroke-width: 0px;
      }

      .cls-2 {
        fill: #fff;
      }

      .cls-3 {
        fill: #4a3459;
      }
    </style>
  </defs>
  <g id="Layer_1-2" data-name="Layer 1">
    <g>
      <rect class="cls-2" width="394" height="340"/>
      <g>
        <polygon class="cls-1" points="178.488 183.233 157.239 183.233 183.669 120.538 204.919 120.538 230.383 183.233 208.343 183.233 178.488 183.233"/>
        <path class="cls-1" d="m284.121,131.339l-11.942,14.225c-3.776-5.093-9.395-8.43-14.225-8.43-7.464,0-12.996,5.971-12.996,14.313,0,8.43,5.444,14.488,12.996,14.488,4.478,0,10.098-2.81,14.225-7.112l11.942,12.82c-6.937,7.639-17.562,12.557-27.22,12.557-19.23,0-33.191-13.698-33.191-32.313,0-18.44,14.313-31.786,33.982-31.786,9.571-.176,20.02,4.303,26.43,11.239Z"/>
        <path class="cls-1" d="m156.8,165.935v17.21h-42.499v-62.607h20.723v45.397h21.776Z"/>
      </g>
      <path id="Capital" class="cls-2" d="m201.933,161.018s-2.985-1.317-7.639-1.405h-.263c-4.654.088-7.639,1.405-7.639,1.405,0-8.43,2.985-10.449,6.761-10.713l.966-11.064.966,11.064c3.951.263,6.849,2.283,6.849,10.713Zm-7.288,2.985h-.878c-8.605.176-15.279,2.283-15.454,17.649v1.844h2.634v-1.317c0-3.864,0-7.025,1.756-7.025s1.756,3.161,1.756,7.025v1.317h3.249v-1.581c0-4.303,0-7.815,2.195-7.815,2.283,0,2.283,3.512,2.283,7.815v1.581h4.039v-1.581c0-4.303,0-7.815,2.283-7.815s2.283,3.512,2.283,7.815v1.581h3.161v-1.317c0-3.864,0-7.025,1.756-7.025s1.756,3.161,1.756,7.025v1.317h2.634v-1.844c-.176-15.366-6.937-17.562-15.454-17.649Z"/>
      <rect class="cls-2" x="193.24" y="149.778" width="2.02" height=".527"/>
      <g>
        <path class="cls-3" d="m103.676,191.751c-.439,0-1.142-.088-1.493-.176-.088-.263-.088-.878,0-1.142h5.268c.088.263,0,.878,0,1.142-.527.088-1.317.176-1.844.176v11.415h5.005c0-.615.088-1.581.176-2.02.263-.088.966-.176,1.317-.176v3.425h-10.186c0-.263.176-.79.263-1.054.351-.088,1.142-.176,1.581-.263v-11.327h-.088Z"/>
        <path class="cls-3" d="m118.516,203.253c-.527.966-1.581,1.581-2.81,1.581-1.493,0-2.898-.878-2.898-2.722,0-2.107,1.756-3.161,3.776-3.161.615,0,1.405.088,1.844.351v-1.054c0-1.493-.615-2.283-1.932-2.283-.878,0-2.283.527-2.985.966-.088-.176-.088-.439-.088-.702,0-.351.088-.79.263-1.054.702-.351,2.195-.702,3.337-.702,2.195,0,3.161,1.054,3.161,3.864v3.951c0,.439.088.878.263,1.054.263,0,1.054-.088,1.405-.263v.263c0,.351-.088.702-.176.878-.439.263-1.493.615-2.195.615-.439-.263-.79-.878-.878-1.581h-.088Zm-.088-3.073c-.351-.088-1.054-.176-1.405-.176-1.581,0-2.459.702-2.459,1.756,0,1.142.878,1.581,1.844,1.581.79,0,1.668-.351,2.02-.966v-2.195Z"/>
        <path class="cls-3" d="m125.628,203.253c.527,0,1.142.176,1.493.263.088.263.088.702,0,.966h-4.829c0-.263.176-.615.263-.878.351-.176.878-.263,1.317-.351v-7.2h-1.493c0-.351.176-.79.351-1.054.439-.176,1.054-.263,1.668-.263.351,0,.702,0,.966.088v1.493h.176c.351-.702,1.405-1.756,3.249-1.756,1.581,0,2.985.527,2.985,3.6,0,1.668,0,3.337-.088,5.093.527,0,1.229.176,1.668.263,0,.176.088.439.088.615v.351h-4.829c0-.263.176-.615.263-.878.263-.176.79-.263,1.142-.351v-4.742c0-1.581-.527-2.546-1.932-2.546-1.054,0-2.107.702-2.546,1.317v5.971h.088Z"/>
        <path class="cls-3" d="m139.15,195.79c-.263-.088-.79-.263-1.229-.263-1.054,0-1.668.439-1.668,1.229,0,2.283,4.742,1.581,4.742,5.093,0,2.107-1.756,2.898-3.6,2.898-1.142,0-2.195-.263-3.073-.79-.088-.263-.088-.615-.088-.966,0-.527.088-1.054.176-1.405.439,0,1.054.088,1.493.176v1.405c.439.263,1.054.439,1.668.439,1.054,0,1.668-.615,1.668-1.493,0-2.371-4.742-1.581-4.742-5.093,0-1.493,1.317-2.546,3.337-2.546.966,0,1.932.176,2.81.527v.615c0,.527-.088,1.229-.263,1.668-.439,0-1.054-.088-1.317-.351v-1.142h.088Z"/>
        <path class="cls-3" d="m142.136,195.965c0-.351.176-.79.351-1.054.439-.176,1.142-.263,1.844-.263.351,0,.79,0,1.054.088v8.43c.527,0,1.142.176,1.581.263,0,.176.088.439.088.615v.351h-5.005c0-.263.176-.615.263-.878.351-.176.878-.263,1.317-.351v-7.2h-1.493Zm3.512-4.654c0,.79-.439,1.229-1.142,1.229-.79,0-1.142-.439-1.142-1.229,0-.702.527-1.142,1.142-1.142s1.142.351,1.142,1.142Z"/>
        <path class="cls-3" d="m150.917,203.253c.527,0,1.142.176,1.493.263.088.263.088.702,0,.966h-4.829c0-.263.176-.615.263-.878.351-.176.878-.263,1.317-.351v-7.2h-1.493c0-.351.176-.79.351-1.054.439-.176,1.054-.263,1.668-.263.351,0,.702,0,.966.088v1.493h.176c.351-.702,1.405-1.756,3.249-1.756,1.581,0,2.985.527,2.985,3.6,0,1.668,0,3.337-.088,5.093.527,0,1.229.176,1.668.263,0,.176.088.439.088.615v.351h-4.829c0-.263.176-.615.263-.878.263-.176.79-.263,1.142-.351v-4.742c0-1.581-.527-2.546-1.932-2.546-1.054,0-2.107.702-2.546,1.317v5.971h.088Z"/>
        <path class="cls-3" d="m160.927,204.307c-.527-.176-.966-.702-.966-1.405s.527-1.405,1.142-1.756v-.176c-.79-.527-1.317-1.493-1.317-2.898,0-2.283,1.668-3.6,3.864-3.6.878,0,1.668.176,2.283.527.351-.176,1.229-.351,1.932-.351.351,0,.615,0,.878.088.088.263.176.878.176,1.229h-2.02c.351.527.615,1.229.615,2.107,0,2.283-1.493,3.6-3.864,3.6-.527,0-1.142-.088-1.668-.263-.176.176-.263.527-.263.79,0,.79,1.054.966,2.898.966,2.371,0,4.127.527,4.127,2.634,0,2.459-2.371,3.6-5.093,3.6-2.371,0-4.566-.966-4.566-3.073,0-1.142.966-1.932,1.756-2.195v.176h.088Zm0,2.02c0,1.405,1.668,2.107,3.161,2.107,1.581,0,3.073-.702,3.073-2.107,0-1.054-.79-1.493-2.898-1.493-.702,0-1.581,0-2.283-.176-.79.263-1.054.966-1.054,1.668Zm2.722-5.62c1.405,0,2.107-.966,2.107-2.546,0-1.493-.79-2.546-2.107-2.546-1.405,0-2.107.966-2.107,2.546,0,1.493.79,2.546,2.107,2.546Z"/>
        <path class="cls-3" d="m181.913,204.483c0-.351.176-.79.263-1.054.351-.088,1.054-.176,1.493-.263-.351-.439-.615-1.054-.79-1.581l-.615-1.756h-5.356l-.702,1.844c-.176.527-.439,1.054-.702,1.493.527,0,1.142.088,1.668.176.088.263.176.79.176,1.054h-4.829c0-.351.176-.79.351-1.054.263-.088.79-.176,1.054-.176l5.181-12.996h1.317l5.005,12.996c.351,0,.966.088,1.317.176.088.351.176.79.263,1.142h-5.093Zm-2.459-12.118c-.088.439-.351,1.405-.527,1.932l-1.581,4.39h4.478l-1.668-4.39c-.176-.527-.439-1.405-.527-1.932h-.176Z"/>
        <path class="cls-3" d="m190.694,196.668c.263-1.229,1.317-2.195,2.634-2.195.263,0,.702.088.878.176.176.263.263.702.263,1.229,0,.176,0,.351-.088.527-.351-.263-.878-.351-1.405-.351-.966,0-1.844.527-2.283,1.668v5.444c.527,0,1.493.176,2.02.351.088.263.088.615,0,.966h-5.268c0-.263.176-.615.263-.878.351-.176.878-.263,1.317-.351v-7.2h-1.493c0-.351.176-.79.351-1.054.439-.176,1.054-.263,1.668-.263.351,0,.702,0,.966.088v1.932h.176v-.088Z"/>
        <path class="cls-3" d="m196.928,199.917c0,2.195,1.405,3.512,3.337,3.512.878,0,2.107-.263,2.81-.527,0,.263-.088.878-.263,1.142-.702.439-1.932.79-3.161.79-2.898,0-4.566-2.195-4.566-4.917,0-2.985,1.844-5.356,4.654-5.356,2.459,0,3.425,1.756,3.425,4.303,0,.351,0,.702-.088,1.054h-6.147Zm4.478-1.229c.176-1.405-.263-3.073-1.932-3.073-1.405,0-2.371,1.229-2.459,3.073h4.39Z"/>
        <path class="cls-3" d="m210.099,203.253c-.527.966-1.581,1.581-2.81,1.581-1.493,0-2.898-.878-2.898-2.722,0-2.107,1.756-3.161,3.776-3.161.615,0,1.405.088,1.844.351v-1.054c0-1.493-.615-2.283-1.932-2.283-.878,0-2.283.527-2.985.966-.088-.176-.088-.439-.088-.702,0-.351.088-.79.263-1.054.702-.351,2.195-.702,3.337-.702,2.195,0,3.161,1.054,3.161,3.864v3.951c0,.439.088.878.263,1.054.263,0,1.054-.088,1.405-.263v.263c0,.351-.088.702-.176.878-.439.263-1.493.615-2.195.615-.439-.263-.79-.878-.878-1.581h-.088Zm0-3.073c-.351-.088-1.054-.176-1.405-.176-1.581,0-2.459.702-2.459,1.756,0,1.142.878,1.581,1.844,1.581.79,0,1.668-.351,2.02-.966v-2.195Z"/>
        <path class="cls-3" d="m226.695,191.751c-.702-.351-1.405-.439-2.195-.439-2.722,0-4.917,2.02-4.917,5.883,0,4.127,1.932,6.059,4.829,6.059,1.142,0,2.81-.351,3.776-.702,0,.351-.088.966-.263,1.229-1.054.527-2.722,1.054-4.303,1.054-3.6,0-6.059-2.985-6.059-7.112,0-4.829,3.161-7.727,7.025-7.727,1.493,0,2.722.263,3.776.79,0,1.054-.088,2.546-.263,3.337-.439,0-1.054-.176-1.405-.351v-2.02Z"/>
        <path class="cls-3" d="m232.666,196.668c.263-1.229,1.317-2.195,2.634-2.195.263,0,.702.088.878.176.176.263.263.702.263,1.229,0,.176,0,.351-.088.527-.351-.263-.878-.351-1.405-.351-.966,0-1.844.527-2.283,1.668v5.444c.527,0,1.493.176,2.02.351.088.263.088.615,0,.966h-5.356c0-.263.176-.615.263-.878.351-.176.878-.263,1.317-.351v-7.2h-1.493c0-.351.176-.79.351-1.054.439-.176,1.054-.263,1.668-.263.351,0,.702,0,.966.088v1.932h.263v-.088Z"/>
        <path class="cls-3" d="m238.9,199.917c0,2.195,1.405,3.512,3.337,3.512.878,0,2.107-.263,2.81-.527,0,.263-.088.878-.263,1.142-.702.439-1.932.79-3.161.79-2.898,0-4.566-2.195-4.566-4.917,0-2.985,1.844-5.356,4.654-5.356,2.459,0,3.425,1.756,3.425,4.303,0,.351,0,.702-.088,1.054h-6.147Zm4.478-1.229c.176-1.405-.263-3.073-1.932-3.073-1.405,0-2.371,1.229-2.459,3.073h4.39Z"/>
        <path class="cls-3" d="m252.071,203.253c-.527.966-1.581,1.581-2.81,1.581-1.493,0-2.898-.878-2.898-2.722,0-2.107,1.756-3.161,3.776-3.161.615,0,1.405.088,1.844.351v-1.054c0-1.493-.615-2.283-1.932-2.283-.878,0-2.283.527-2.985.966-.088-.176-.088-.439-.088-.702,0-.351.088-.79.263-1.054.702-.351,2.195-.702,3.337-.702,2.195,0,3.161,1.054,3.161,3.864v3.951c0,.439.088.878.263,1.054.263,0,1.054-.088,1.405-.263v.263c0,.351-.088.702-.176.878-.439.263-1.493.615-2.195.615-.439-.263-.79-.878-.878-1.581h-.088Zm0-3.073c-.351-.088-1.054-.176-1.405-.176-1.581,0-2.459.702-2.459,1.756,0,1.142.878,1.581,1.844,1.581.79,0,1.668-.351,2.02-.966v-2.195h0Z"/>
        <path class="cls-3" d="m257.34,192.365c.263-.176.966-.351,1.317-.351v2.81h2.898c0,.176.088.878.088,1.142h-2.985v5.532c0,1.317.176,1.844,1.317,1.844.527,0,1.229-.088,1.844-.263v.263c0,.263-.088.615-.176.79-.79.351-1.668.527-2.459.527-1.581,0-2.371-.878-2.371-2.898,0-1.229,0-3.776.088-5.883h-1.405c0-.263.088-.79.263-1.054.351-.176.79-.263,1.141-.351l.439-2.107Z"/>
        <path class="cls-3" d="m262.433,195.965c0-.351.176-.79.351-1.054.439-.176,1.141-.263,1.844-.263.351,0,.79,0,1.054.088v8.43c.527,0,1.141.176,1.581.263,0,.176.088.439.088.615v.351h-5.005c0-.263.176-.615.263-.878.351-.176.878-.263,1.317-.351v-7.2h-1.493Zm3.6-4.654c0,.79-.439,1.229-1.141,1.229-.79,0-1.141-.439-1.141-1.229,0-.702.527-1.142,1.141-1.142s1.141.351,1.141,1.142Z"/>
        <path class="cls-3" d="m272.355,203.253c.088-.439.351-1.317.439-1.756l1.229-3.6c.176-.527.439-1.229.79-1.844-.351,0-.878-.176-1.229-.263-.088-.351-.176-.702-.176-1.054h3.864c0,.351-.088.79-.176,1.142-.263.088-.702.176-.966.176l-3.073,8.342-1.844.176-2.985-8.517c-.351-.088-.79-.176-1.054-.351-.088-.263-.176-.702-.176-1.054h4.566c0,.351-.088.79-.176,1.054-.351.088-.966.176-1.405.263.263.439.527,1.142.702,1.756l1.229,3.776c.088.351.351,1.229.439,1.668h0v.088Z"/>
        <path class="cls-3" d="m279.38,199.917c0,2.195,1.405,3.512,3.337,3.512.878,0,2.107-.263,2.81-.527,0,.263-.088.878-.263,1.142-.702.439-1.932.79-3.161.79-2.898,0-4.566-2.195-4.566-4.917,0-2.985,1.844-5.356,4.654-5.356,2.459,0,3.425,1.756,3.425,4.303,0,.351,0,.702-.088,1.054h-6.147Zm4.39-1.229c.176-1.405-.263-3.073-1.932-3.073-1.405,0-2.371,1.229-2.459,3.073h4.39Z"/>
        <path class="cls-3" d="m291.936,195.79c-.263-.088-.79-.263-1.229-.263-1.054,0-1.668.439-1.668,1.229,0,2.283,4.742,1.581,4.742,5.093,0,2.107-1.756,2.898-3.6,2.898-1.141,0-2.195-.263-3.073-.79-.088-.263-.088-.615-.088-.966,0-.527.088-1.054.176-1.405.439,0,1.054.088,1.493.176v1.405c.439.263,1.054.439,1.668.439,1.054,0,1.668-.615,1.668-1.493,0-2.371-4.742-1.581-4.742-5.093,0-1.493,1.317-2.546,3.337-2.546.966,0,1.932.176,2.81.527v.615c0,.527-.088,1.229-.263,1.668-.439,0-1.054-.088-1.317-.351v-1.142h.088Z"/>
      </g>
    </g>
  </g>
</svg>