<svg class="linkedin-icon" xmlns="http://www.w3.org/2000/svg" width="30" height="30" viewBox="0 0 30 30">
  <defs>
    <style>
      .linkedin-icon .cls-1 {
        fill: #027bb6;
      }

      .linkedin-icon .cls-1, .linkedin-icon .cls-2 {
        stroke-width: 0px;
      }

      .linkedin-icon .cls-2 {
        fill: #fff;
      }
    </style>
  </defs>
  <rect class="cls-1" width="30" height="30"/>
  <path class="cls-2" d="m25.276,17.269v7.764h-4.501v-7.243c0-1.82-.651-3.062-2.28-3.062-1.244,0-1.984.837-2.309,1.646-.119.289-.149.692-.149,1.097v7.561h-4.502s.061-12.268,0-13.54h4.502v1.92c-.009.014-.021.03-.03.044h.03v-.044c.598-.921,1.666-2.237,4.057-2.237,2.962,0,5.183,1.935,5.183,6.094ZM6.824,4.966c-1.54,0-2.548,1.011-2.548,2.339,0,1.3.979,2.341,2.488,2.341h.03c1.57,0,2.546-1.041,2.546-2.341-.03-1.328-.976-2.339-2.517-2.339Zm-2.28,20.067h4.501v-13.54h-4.501v13.54Z"/>
</svg>