<?xml version="1.0" encoding="UTF-8"?>
<svg id="Layer_2" data-name="Layer 2" xmlns="http://www.w3.org/2000/svg" width="394" height="340" viewBox="0 0 394 340">
  <defs>
    <style>
      .cls-1 {
        fill: #604f6c;
      }

      .cls-1, .cls-2, .cls-3, .cls-4, .cls-5 {
        stroke-width: 0px;
      }

      .cls-2 {
        fill: #fff;
      }

      .cls-3 {
        fill: #2d2a69;
        fill-rule: evenodd;
      }

      .cls-4 {
        fill: #2a6940;
      }

      .cls-5 {
        fill: #7b6e84;
      }
    </style>
  </defs>
  <g id="Layer_1-2" data-name="Layer 1">
    <g>
      <rect class="cls-2" width="394" height="340"/>
      <g>
        <g id="Sign">
          <path id="Post_right" data-name="Post right" class="cls-1" d="m49.149,194.411l7.306-1.111h.022v-76.031l-7.549-1.346v78.451l.222.037Zm3.697-6.65c-.581-.024-1.054-.568-1.054-1.21s.473-1.144,1.054-1.118c.583.026,1.054.566,1.054,1.211,0,.639-.47,1.14-1.054,1.117Zm-.3-7.865c.583.043,1.054.715,1.054,1.5s-.47,1.392-1.054,1.353c-.581-.037-1.054-.71-1.054-1.498s.473-1.395,1.054-1.355Z"/>
          <path id="Post_left" data-name="Post left" class="cls-5" d="m42.48,193.3l6.504,1.084v-78.518l-6.805,1.587v76.091l.301-.243Zm2.922-13.581c.526-.042.95.563.95,1.349s-.424,1.457-.95,1.497c-.523.039-.948-.566-.948-1.352s.424-1.452.948-1.494Zm0,5.687c.526-.027.95.479.95,1.128s-.424,1.197-.95,1.221c-.523.024-.948-.482-.948-1.13s.424-1.194.948-1.22Z"/>
          <g id="Little_Sign" data-name="Little Sign">
            <g id="Sign_shadow" data-name="Sign shadow">
              <path class="cls-5" d="m86.382,116.171l-.241-.231S16.041,153.975,15.988,153.975c-.148,0-.285-.034-.42-.082.269.343.622.533,1.011.483l67.32-8.778c2.939-.384,2.939-3.089,2.939-3.96v-23.815c0-.665-.175-1.233-.456-1.653Z"/>
            </g>
            <g id="Sign-2" data-name="Sign">
              <path class="cls-4" d="m86.467,141.481c0,1.508-.873,2.849-1.948,2.991l-68.182,8.982c-.844.112-1.527-.88-1.527-2.211v-20.962c0-1.332.682-2.542,1.527-2.705l68.182-13.08c1.075-.208,1.948.852,1.948,2.361v24.625Z"/>
              <path class="cls-2" d="m15.881,153.874c-.901,0-1.581-1.032-1.581-2.403v-20.962c0-1.436.736-2.704,1.676-2.884l68.182-13.08c1.199-.239,2.166.939,2.166,2.54v24.625c0,1.596-.945,3.019-2.108,3.173l-68.182,8.982c-.052.007-.103.01-.153.01Zm68.578-38.993c-.076,0-.154.007-.233.023l-68.182,13.08c-.746.145-1.378,1.3-1.378,2.525v20.962c0,1.201.591,2.136,1.319,2.029l68.182-8.982c.986-.129,1.789-1.389,1.789-2.808v-24.625c0-1.256-.644-2.204-1.497-2.204Z"/>
            </g>
            <g id="Little">
              <g id="L">
                <path class="cls-2" d="m27.362,144.198c0,1.249-.835,1.936-1.087,2.069-.255.13-.618.231-1.091.302l-3.03.453c-.475.071-.82.103-1.037.094-.22-.005-.394-.051-.526-.133-.133-.082-.282-.226-.447-.434-.212-.279-.353-.619-.42-1.02-.066-.404-.101-.767-.101-1.738v-8.574c0-.865.029-1.525.089-1.981.059-.456.181-.847.363-1.178.347-.603.765-.95,1.254-1.036.489-.087.911.105,1.259.575.193.266.318.613.379,1.044.06.429.09,1.098.09,1.992v8.249l2.127-.333c.489-.079.858-.093,1.102-.049s1.075.449,1.075,1.698Z"/>
              </g>
              <g id="I">
                <path class="cls-2" d="m32.587,141.727c0,.89-.032,1.56-.093,2.012s-.19.844-.385,1.177c-.342.63-.776.985-1.299,1.064-.508.076-.942-.135-1.302-.632-.192-.268-.318-.627-.38-1.08-.06-.455-.09-.792-.09-1.663v-8.99c0-.879.03-1.552.09-2.019.062-.464.188-.863.38-1.194.089-.15.196-.299.325-.45.13-.151.277-.28.445-.391.166-.108.339-.182.518-.212.255-.046.496-.017.719.081.225.097.42.265.583.499.196.269.328.632.393,1.09.063.458.097,1.121.097,1.994v8.716Z"/>
              </g>
              <g id="T">
                <path class="cls-2" d="m44.485,129.264c0,.675-.165.963-.494,1.515-.179.299-.399.516-.662.654-.263.136-.645.249-1.147.331l-.954.162v8.456c0,.911-.035,1.597-.1,2.062-.066.466-.2.865-.398,1.196-.382.63-.822.984-1.323,1.06-.236.033-.469-.005-.7-.119-.233-.109-.442-.285-.626-.523-.193-.271-.325-.641-.393-1.11-.071-.469-.105-1.136-.105-1.999v-8.407l-.922.155c-.304.051-.565.076-.787.071-.22-.005-.405-.036-.551-.101-.147-.063-.28-.171-.401-.328-.337-.444-.507-.666-.507-1.315,0-.664.149-.935.447-1.461.16-.301.371-.518.632-.654.26-.138.649-.253,1.167-.344l5.518-.976c.497-.087.877-.106,1.144-.055.265.049.477.181.638.393.347.461.521.692.521,1.337Z"/>
              </g>
              <g id="T-2" data-name="T">
                <path class="cls-2" d="m55.533,127.322c0,.675-.165.963-.494,1.515-.179.299-.399.516-.662.654-.263.136-.645.249-1.147.331l-.954.162v8.78c0,.911-.035,1.597-.1,2.062-.066.466-.2.865-.398,1.196-.382.63-.822.984-1.323,1.06-.236.033-.469-.005-.7-.119-.233-.109-.442-.285-.626-.523-.193-.271-.325-.641-.393-1.11-.071-.469-.105-1.136-.105-1.999v-8.731l-.922.155c-.304.051-.565.076-.787.071-.22-.005-.405-.036-.551-.101-.147-.063-.28-.171-.401-.328-.337-.444-.507-.666-.507-1.315,0-.664.149-.935.447-1.461.16-.301.371-.518.632-.654.26-.138.649-.253,1.167-.344l5.518-.976c.497-.087.877-.106,1.144-.055.265.049.477.181.638.393.347.461.521.692.521,1.337Z"/>
              </g>
              <g id="L-2" data-name="L">
                <path class="cls-2" d="m66.625,138.495c0,1.595-.946,2.089-1.234,2.234-.285.143-.698.253-1.235.334l-3.429.513c-.534.079-.927.116-1.174.111-.249-.003-.447-.051-.596-.138-.147-.087-.315-.238-.504-.456-.239-.295-.398-.656-.474-1.083-.078-.428-.116-1.158-.116-2.189v-9.118c0-.92.033-1.624.101-2.11.066-.485.203-.904.409-1.256.393-.646.866-1.02,1.419-1.117.554-.098,1.031.1,1.427.595.219.279.36.648.428,1.106.068.458.101,1.166.101,2.119v9.08l2.406-.379c.558-.087.976-.108,1.251-.063.277.046,1.218.222,1.218,1.817Z"/>
              </g>
              <g id="E">
                <path class="cls-2" d="m77.948,136.856c0,1.434-.957,2.044-1.254,2.184-.296.143-.697.25-1.204.326l-4.088.611c-.38.057-.687.093-.922.106-.239.014-.44.005-.605-.029-.166-.032-.306-.09-.418-.177-.111-.085-.247-.215-.405-.385-.247-.298-.41-.664-.489-1.099-.079-.434-.117-1.177-.117-2.225v-8.958c0-.792.013-1.376.04-1.752.028-.377.078-.681.152-.912.074-.23.203-.502.386-.813.166-.287.341-.505.516-.657.176-.154.396-.276.659-.364.265-.09.665-.181,1.204-.277l3.969-.7c.545-.097.949-.124,1.213-.084.263.041,1.18.522,1.18,1.741,0,1.328-.931,2.012-1.21,2.158-.279.144-.673.258-1.183.344l-2.905.493v2.376l2.525-.423c.535-.09.934-.111,1.194-.07.261.044,1.159.383,1.159,1.732s-.925,1.651-1.193,1.786c-.269.131-.656.239-1.161.318l-2.525.405v3.053l3.024-.475c.542-.084.954-.101,1.235-.052.282.051,1.223.386,1.223,1.82Z"/>
              </g>
            </g>
          </g>
          <g id="Town_Sign" data-name="Town Sign">
            <g id="Sign_shadow-2" data-name="Sign shadow">
              <path class="cls-5" d="m88.381,183.006c0,1.305-.736,2.313-1.644,2.291l-72.861-4.822c-1.944-.127-2.823-2.105-2.823-3.297v-26.787c0-1.478.942-2.564,2.101-2.424l73.58,8.834c.911.11,1.647,1.257,1.647,2.561v23.645Z"/>
            </g>
            <g id="Sign-3" data-name="Sign">
              <path class="cls-4" d="m88.901,182.293c0,1.302-.736,2.312-1.644,2.25l-73.44-4.916c-1.156-.077-2.096-1.337-2.096-2.817v-27.191c0-1.475.94-2.559,2.096-2.417l73.44,8.91c.908.111,1.644,1.259,1.644,2.562v23.62Z"/>
              <path class="cls-2" d="m87.336,184.725c-.03,0-.061-.001-.091-.003l-73.439-4.916c-1.249-.083-2.265-1.428-2.265-2.997v-27.191c0-1.581,1.011-2.745,2.299-2.596l73.439,8.91c.994.122,1.803,1.352,1.803,2.741v23.62c0,1.364-.767,2.433-1.745,2.433ZM13.615,147.368c-.977,0-1.713.967-1.713,2.25v27.191c0,1.384.865,2.566,1.928,2.638l73.44,4.916c.825.055,1.452-.876,1.452-2.071v-23.62c0-1.214-.667-2.282-1.486-2.383l-73.44-8.91c-.061-.007-.121-.011-.181-.011Z"/>
            </g>
            <g id="Town">
              <g id="T-3" data-name="T">
                <path class="cls-2" d="m31.248,157.947c0,.831-.233,1.205-.697,1.766-.252.304-.564.495-.937.574-.372.075-.915.079-1.634.007l-1.37-.139v10.543c0,1.136-.046,1.986-.143,2.544-.094.557-.285,1.015-.574,1.37-.551.673-1.192.98-1.924.925-.343-.03-.683-.151-1.025-.361-.337-.213-.648-.495-.918-.852-.285-.403-.482-.91-.583-1.527-.1-.615-.154-1.467-.154-2.561v-10.626l-1.368-.139c-.455-.048-.846-.115-1.177-.198-.333-.087-.609-.196-.828-.333-.224-.134-.424-.324-.607-.567-.51-.694-.767-1.132-.767-1.963,0-.849.227-1.309.677-1.864.242-.322.56-.519.949-.592.394-.073.98-.066,1.753.021l8.06.891c.712.078,1.254.198,1.63.36.376.16.676.398.903.722.492.698.736,1.203.736,1.998Z"/>
              </g>
              <g id="O">
                <path class="cls-2" d="m47.841,167.575c-.052,1.488-.249,2.843-.59,4.066-.341,1.224-.834,2.273-1.478,3.144-.646.872-1.463,1.52-2.454,1.944-.993.424-2.133.562-3.419.414-1.261-.141-2.377-.529-3.343-1.16-.971-.63-1.765-1.465-2.381-2.498-.615-1.035-1.065-2.226-1.344-3.577-.281-1.352-.394-2.815-.34-4.387.069-1.982.411-3.731,1.028-5.246.613-1.514,1.517-2.659,2.707-3.429,1.187-.772,2.625-1.03,4.314-.783,1.31.192,2.445.621,3.407,1.29.959.665,1.73,1.51,2.322,2.531.587,1.015,1.008,2.169,1.265,3.456.257,1.287.358,2.697.305,4.235Zm-5.009-.918c.037-1.069-.084-2.268-.375-3.254-.291-.994-.966-1.886-2.034-2.033-.852-.116-1.508.203-1.972.963-.464.757-.73,2.126-.782,3.621-.022.637-.013,1.936.036,2.435.054.501.132.92.241,1.258.108.338.227.628.358.871.408.794.993,1.235,1.751,1.329.461.056.884-.038,1.259-.278.379-.244.682-.591.912-1.049.341-.691.547-1.989.597-3.405l.007-.457Z"/>
              </g>
              <g id="W">
                <path class="cls-2" d="m68.075,162.138c0,.454-.085,1.176-.252,2.162l-1.728,10.075c-.179,1.079-.346,1.871-.495,2.388-.154.513-.351.942-.595,1.285-.495.672-1.127.974-1.901.913-.322-.025-.588-.109-.8-.239-.212-.134-.461-.366-.749-.688-.307-.379-.561-.873-.761-1.477-.2-.601-.395-1.449-.574-2.537l-1.209-7.462-1.186,7.254c-.154.965-.322,1.715-.504,2.252-.182.533-.406.986-.669,1.357-.443.649-1.03.946-1.761.888-.746-.061-1.382-.431-1.907-1.112-.292-.369-.519-.846-.687-1.433-.166-.584-.348-1.471-.54-2.664l-1.8-10.618c-.178-.991-.264-1.742-.264-2.25,0-.561.101-1.067.307-1.518.204-.445.483-.795.845-1.042.357-.248.755-.349,1.185-.3.436.048.871.27,1.306.673.303.264.519.648.651,1.148.133.501.266,1.307.398,2.419l.794,6.66.924-5.572c.17-1.004.333-1.809.489-2.416.16-.606.439-1.131.839-1.58.398-.445.946-.627,1.64-.549.518.057.94.215,1.273.475.33.261.597.607.795,1.036.201.431.355.9.464,1.406.11.506.233,1.213.366,2.128l.872,5.63.757-6.296c.116-1.013.242-1.752.372-2.215.133-.46.342-.804.627-1.03.419-.303.845-.427,1.274-.382.406.048.776.224,1.109.528.333.307.598.698.798,1.183.199.483.3.988.3,1.519Z"/>
              </g>
              <g id="N">
                <path class="cls-2" d="m82.94,175.169c0,.946-.022,1.68-.066,2.204-.043.519-.127.939-.246,1.258-.122.318-.312.631-.572.939-.507.557-1.067.813-1.677.763-.416-.031-.758-.151-1.03-.354-.27-.206-.525-.525-.768-.973-.243-.445-.551-1.146-.927-2.1l-2.503-6.394v4.971c0,.991-.039,1.73-.115,2.219-.075.489-.236.895-.479,1.215-.452.6-.977.877-1.58.83-.301-.024-.592-.134-.874-.322-.281-.189-.525-.442-.731-.763-.234-.364-.392-.803-.476-1.328-.084-.519-.124-1.263-.124-2.23v-10.249c0-.697.012-1.282.034-1.762.024-.478.064-.864.119-1.16.058-.292.14-.555.249-.782.109-.228.266-.457.473-.688.518-.549,1.095-.789,1.731-.718.413.046.766.172,1.058.379.29.206.566.543.825,1.007.258.464.558,1.142.895,2.033l2.512,6.663v-5.059c0-.986.037-1.733.112-2.234.076-.507.231-.91.464-1.216.433-.567.954-.815,1.559-.748.281.03.563.14.84.33.281.187.513.431.701.734.23.339.388.773.47,1.301.082.533.124,1.289.124,2.276v9.958Z"/>
              </g>
            </g>
          </g>
        </g>
        <path id="Adventures" class="cls-3" d="m380.173,141.318c.625,1.742.336,1.533,1.077,1.805.745.273,1.327.946,1.293,1.237-.378,2.139,2.248,1.382,1.87,3.522-1.296-.115-1.093.888-2.627.596.275-1.232-1.167-.811-1.7-1.267-5.349,1.679-10.053,3.25-11.663,8.337-.182.574-.435,1.966-.361,2.284.292,1.241,2.527,2.733,4.036,3.857.411.306,1.332.466,1.666.815.367.386.345.944.635,1.324.174.231.496-.087.565.423.019.134,2.109,1.632,2.587,2.027,2.726,2.258,2.842,5.101,2.993,8.087.028.52-.019,1.878-.326,2.736-.065.184-.504.014-.499.48.017,1.23-1.113,1.556-2.456,2.851-.664.64-.928,1.531-1.46,1.892-.183.124-.934-.097-1.066.058-.496.589-.813.968-2.026,1.469-.843.35-1.445.306-2.096.567-.502.202-.761.499-1.563.538-1.828.089-1.482-.843-4.328-.67.292-1.41-1.527-.787-1.235-2.198-1.307-.837-3.395-.923-3.933-2.504,1.719-.186,3.279-.301,4.758-.712.374-.102,1.496-.304,2.095-.566.342-.151.714-.816.996-.961.189-.096.945.085,1.064-.058.122-.144.313-.84.464-.931.543-.324,1.12-.181,1.563-.539,1.924-1.549,3.441-3.92,3.351-5.164-.192-2.647-3.954-4.222-6.335-5.996-.785-.585-1.709-1.15-2.267-1.689-.394-.38-.22-.991-.635-1.324-.199-.159-.95-.223-1.099-.392-.137-.158.113-.793-.068-.903-.067-.04-.496.084-.532.029-.104-.159.094-.803-.069-.903-.458-.278-.393-.324-.6-.872-.315-.836-1.773-4.569-.978-5.836.586.081.431.878,1.134.845-.151-.696.138-1.42.361-2.285.163-.626.468-1.931.86-2.765.104-.224.504.016.497-.479-.008-.58.846-.619.996-.961.103-.228-.22-.698-.068-.903.286-.383,1.396-1.343,1.992-1.92,1.55-1.494,2.804-2.34,5.617-3.476.185-.074.954.073,1.064-.059.032-.035-.071-.441-.033-.451,1.58-.359,3.48-.179,4.293.219.322.159,1.642.232,2.198.786Zm-76.374,21.601c.019-.258.592-.859.607-1.17.031-.645-.258-1.421-.276-1.849-.129-3.138-1.564-7.833-1.964-10.508-.282-1.878-1.835-3.393-2.431-4.048-1.138-1.243-1.799-1.924-3.151-1.872.86,1.228-.533,2.105-.524,2.598.032,1.553,1.671,3.017.941,4.54-1.437-.235.357-1.655-1.574-.936.313,1.962.514,4.08.525,6.132.006.872.228,1.879.167,2.856-.014.246-.572.872-.607,1.17-.085.705.393,1.169.278,1.849-.051.293-.536.84-.608,1.17-.246,1.116-.236,1.842-.524,2.598-.518,1.356-.972,2.698-1.628,3.933-1.196,2.245-2.817,4.41-5.472,5.913l-1.238-1.52c-1.485-1.247-2.152-3.358-2.528-5.164-.295-1.407.151-1.703.132-2.302-.035-1.144-.586-4.363-.552-5.26,0-.031.414-.21.449-.514.243-2.132.064-4.011.636-5.564-1.946.161-3.529.408-4.141.981-.149.139.31.762.157.895-.408.358-1.143.311-1.503.647-.149.139.251.716.157.895-.3.57-1.002.921-.739,1.921-.264.763-2.601.226-1.874,1.609.347,4.053,1.714,10.574,3.397,12.212.464.454-.164,1.03.418,1.324.172.087.039.743.157.894.04.052.458-.101.528-.067.194.099-.007.751.158.895.213.186.488.338.777.469l-2.395,1.032c.19.053.231.718.386.843.053.044.42-.185.497-.164.215.06.189.733.388.842.782.434,2.046.465,2.569.609.221.061.171.759.388.843.225.087.766-.413.993-.328.215.081.167.784.388.843.254.069.72-.34.993-.327.431.019.731.696,1.381.514.545-.152.424.248.692.257,2.347.082,5.032-1.443,5.964-1.967.418-.234,1.113-.219,1.493-.492.156-.112.436-.978.607-1.17.342-.387.942-.48,1.298-.913.335-.407.365-.743.607-1.17,1.125-1.987,2.848-3.772,3.727-5.594.356-.735.229-1.741.525-2.598.118-.35.456-.776.607-1.171.192-.505.285-1.016.414-1.592.068-.314.563-.816.607-1.17.086-.712-.332-1.152-.276-1.849Zm-101.221,4.109c1.495-.351,1.889-.172,2.252-.689.086-.121.775-.04.931-.118.724-.358,1.675-.992,2.184-1.081.499-.086.193-.344.394-.453,1.877-1.018,3.872-1.839,4.694-3.009.103-.146.781.006.929-.118.181-.151.157-.666.325-.846.315-.334.957-.247,1.325-.57.433-.38.782-.973,1.185-1.357.684-.652,1.359-1.062,1.65-1.417.265-.323.263-1.049.652-1.692.195-.32.848-.394.791-.905-.051-.456.278-.218.395-.453.45-.903,1-2.111.909-2.931-.037-.33.392-.396.395-.453.082-1.501-.728-2.623-.695-3.936-1.891-1.462-4.041-2.626-5.153-4.983-2.01-.15-4.653-1.297-5.715-.081-.393.452-1.43.12-1.788.63-.075.107-.779.061-.929.118-1.036.386-1.877.786-2.649,1.141-.521.238-.614.447-1.324.57-.51.088-.181.327-.396.452-.989.584-2.06,1.265-2.974,1.987-.425.337-.69.905-1.185,1.357-.904.829-2.148.965-2.045,1.869.053.464-.224.203-.396.452-1.074,1.559-2.216,2.964-3.023,4.407-1.252,2.241-2.238,4.546-2.605,6.77-.689-.096-2.916-2.075-2.858-.041-1.224,1.435,2.221,1.537,2.019,3.368-1.95,5.148,1.238,12.295,7.402,12.344.868.792,1.556,1.234,2.206,1.733.149.114,1.291.152,1.463.218.941.354,1.514.57,2.463.493.431-.035.407.323.533.334.743.073,1.573-.292,2.323-.294.707-.001.91.37,1.928.159,1.111-.231,1.767-1.469,3.113-1.199,1.06-.941-2.221-.893-2.276-2.127,2.473-.901,5.557-1.417,6.553-3.244-5.033,1.61-14.037,3.494-17.863,1.055-1.25-1.617-1.528-5.296-.717-6.751,2.12.726,4.355-.42,5.576-.706Zm12.069-20.445c-.386.959-.053,2.381-.374,3.268-.089.244-.727.304-.86.511-.099.155.275.662.139.787-.061.057-.428-.008-.465.059-.36.647-.338,1.281-.652,1.692-.703.924-1.848,1.506-2.905,2.381-.482.399-.654.939-1.185,1.357-.15.119-.828-.026-.929.118-.574.817-1.87,1.696-3.369,2.439-.156.077-.845-.005-.929.118-.032.045.115.372.069.393-1.395.659-2.909.663-3.975,1.71-1.059.134-.503-1.167-.278-1.574.09-.16.368-.386.396-.453.117-.27.06-.93.257-1.24.132-.208.747-.316.86-.512.347-.613.613-1.467,1.046-2.145.228-.356.57-.467.791-.904.106-.211.163-.651.325-.846.467-.558,1.471-.859,2.116-1.476.592-.565.936-1.289,1.58-1.809.263-.212.542-.726.79-.905.454-.326.975-.76,1.72-1.023.264-.092.689.008.929-.118.199-.104.65-.853.791-.905.306-.109,2.515.035,2.787-.353.245-.345.599-.536,1.325-.57Zm-30.132-3.252c.113,1.001-.872.749-.74,1.922.074.647-.886.876-.818,1.475.057.505-.346.266-.449.513-.411.994-.424,1.918-.661,2.37-.174.331-.24.646-.37.961-.57,1.393-1.178,2.427-1.559,3.397-.231.589.064,1.121-.213,1.854-.036.101-.868.481-.975.582-.136.127.224.719.157.893-.329.875-1.163,2.405-1.11,2.883.057.498-.361.278-.449.514-.254.685.065,1.199-.211,1.855-.05.118-.857.469-.977.58-.665.622.817,3.017-1.189,2.436.329-2.656-1.642-7.839-2.341-10.215-.599-2.04-.62-3.237-1.316-4.404-.59-.499-1.2-.786-1.82-1.141-.572-.326-1.635-.44-1.82-1.141-1.877.001-1.524-2.553-4.087-1.768.571,1.122-.656,1.739-.582,2.816.064.924.811,2.052,1.079,3.063.59,2.225,1.077,3.948,1.474,5.298.238.806.303,1.903.474,2.682.146.674.697.391.157.895-.32.299.64.805.685.828.122.061.115.763.158.893.91,2.815,1.953,6.9,2.633,8.809.482,1.354.792,2.189,1,2.614,1.089,2.225,1.195,3.761,1.025,5.813,1.568,1.015,2.526-.383,3.402.939,1.72-.29,2.678,1.706,3.851.427,1.412-1.415,1.338-3.084,1.849-4.805.378-1.269,1.314-3.533,1.4-4.291.032-.268-.243-.637-.157-.895.058-.165.881-.383.977-.58.108-.22-.186-.651-.158-.893.05-.423.374-.311.449-.514.317-.849.228-1.935.582-2.816.076-.19.871-.363.977-.582.108-.22-.185-.651-.157-.893.051-.451.343-.274.449-.514.218-.49.057-.857.29-1.408.115-.27.77-.713.897-1.028.292-.715.382-1.619.661-2.368.181-.486.061-.869.29-1.408.115-.272.778-.712.897-1.028.147-.387-.347-.944-.236-1.342.058-.211.756-.676.897-1.028.197-.487.06-.862.292-1.408.115-.271.767-.715.897-1.028.308-.739.385-1.67.661-2.368.382-.966.888-1.535,1.188-2.437.59-1.767.782-3.421,1.243-5.184-1.071-.101-2.145-1.305-2.426-1.521-.621-.478-2.604.671-2.269-.627-.899-.222-.265-2.202-1.898-1.588-.383,1.227-2.113,2.976-2.008,3.911Zm69.259,41.009c-1.503-.114-2.884-.427-3.898-1.33-.435-.106-.69-.125-1.192-.155-.206-.012-.872.363-1.032.275-.631-.345-1.193-.463-2.028-.881-.396-.285-.19-1.529-.64-1.725-.563-.244-.279-.398-.482-1.294-.239-1.066-.578-2.265-.603-3.157-.006-.133.479-.157.354-.569-.11-.363-.035-1.823.072-2.862.022-.209.497-.107.356-.569-.035-.117-.171-.313-.161-.432.218-2.26.628-6.174.572-9.156-.086-4.573-.303-8.33-2.026-13.665-1.775.746-3.472,1.599-4.683,2.67-1.053.933-2.123,2.638-3.009,4.12-.295.494-.29,1.056-.553,1.569-.233.46-1.011.818-1.228,1.275-.088.189.45.698.32.863-.117.15-.822.552-.871.706-.085.274-.402.24-.743.109.003.152.006.307.008.461.03.214.041.407.01.619.008.53.017,1.064.031,1.61l-.176.009c.022.27.067.532.144.752.138.396-.278.934-.65,1.155.531.826.201,1.23.211,1.855,0,.054-.001.118-.002.175l.904.496c-.57.762-.258,3.807-.171,5.289.047.809-.213,1.839.506,2.716-.866.111-.713.652-1.35.858.058.5-.893.574-.675,1.143-1.195-.253-2.238-.763-3.056-1.655-.493.226-1.005.412-1.515.534-1.712-.685-1.835-1.449-2.458-2.737l.363-2.554c-.351-2.654-.243-5.348-.247-8.313l.354.194c-.138-.723-.453-1.573-.502-2.215-.003-.046.361-.279.325-.577-.033-.306-.882-1.467-.711-1.704.55-.771.171-3.81.05-5.29-.065-.809.171-1.842-.567-2.707.861-.124.697-.663,1.331-.879-.071-.5.879-.59.65-1.154,1.475.288,2.731.97,3.632,2.282.317-.324.754-.598.978-.959.263-.419.225-1.198.552-1.568.144-.162.947-.097,1.032-.275.399-.823.692-.954,1.585-1.845,1.318-1.311,5.165-3.149,8.456-3.203.571.511,1.538.888,2.189,1.313.381.248.547.886.996,1.156.253.152.975.005,1.193.155.774.533.868,1.251,1.832,1.88.275.18.927-.002,1.193.157.194.118.106.791.32.863.529.175.479.233.836.724.84,1.154,2.873,5.224,2.723,7.33-.011.171.425.73.32.863-.595.759.399,1.68.408,3.196.001.066-.376.257-.356.569.118,1.762.265,4.354.178,6.587-.003.104-.379.227-.357.569.053.795.367,1.209.285,2.294-.008.132-.379.205-.354.569.017.274.352.592.318.863-.035.29-.688.906-.711,1.137-.031.274.301.586.321.862.031.473-.326,1.131-.393,2.001-.071.939-.064,1.953-.071,2.863-.013,1.854-.393,3.754,1.564,5.742Zm-14.536-39.709c-1.707.175-2.78.932-2.938,1.257-.042.086-.903.251-1.032.275-.57.112-.993.957-1.23,1.275-.276.378-1.16.946-.194,1.001-.1-.525.64-.686,1.388-.844-.008-.366-.301-.855.196-1.001.401.51.806.2,1.034-.275.381-.792,3.555-.786,2.777-1.688Zm112.709-.517c-.799-.31-3.55-.315-5.349.295-.038.013.04-.269.014-.229-.104.158-.878.029-1.051.15-.27.186-.536.871-.866,1.059-.401.23-1.145.04-1.578.225-.167.073-.658.915-.866,1.06-.368.255-.633.358-.959.604-.368.279-.946,1.05-1.39,1.135-.591.112-.184.357-.434.529-1.3.899-1.918,1.21-2.784,2.27-1.034,1.266-1.553,2.267-2.597,3.179-.481.42-.539.558-.866,1.059-.114.173-.924-.018-1.051.15-.133.178.247.698.185.911-.047.158-.862.418-.959.604-.119.233.258.661.185.911-.05.166-.869.404-.958.604-.29.647.078,1.244-.155,1.894-.023.065-.47.02-.525.075-.367.363.328,2.223-.694,2.198-.19-.523-.172-1.304-.802-1.289-1.086,3.122.464,7.22,1.233,8.717.276.54.22.593.712.835.181.091.049.758.185.911.048.055.45-.113.525-.075.2.098.013.768.185.909.723.592,1.334.628,1.855,1.14.327.321,1.226.829,1.329,1.214.232.873,4.189,2.673,4.328,2.66.656-.064,2.065.828,2.38,1.065.183.138,1.456.147,1.668.23.876.341,2.718.427,3.865.385,2.954-.106,5.721-1.058,7.266-1.504.693-.106.318-.866.866-1.06,1.813-.477,2.643-1.558,3.835-2.418.107-1.457-1.622-.669-1.515-2.125-.652.04-1.273.042-1.237-.76-.633.016-1.475.29-1.668-.231.246-.319.79-2.332-.464-2.273-.355.929-1.796.891-2.969,1.359-1.089.435-2.238,1.19-3.493,1.433-4.21.819-8.961.299-11.594-1.154-.432-2.652-1.751-5.852.187-7.048,1.522.663,3.402,1.262,5.101,1.146.89-.062,4.279-1.058,6.555-2.339.225-.127.617-.87.866-1.06.447-.342.988-.308,1.484-.68.278-.208.56-.825.866-1.059,1.373-1.049,2.229-1.592,3.217-2.8.544-.668,1.605-1.853,1.731-2.119.197-.417-.145-1.571.062-2.349.014-.057.477-.027.524-.075.133-.131-.241-.732-.184-.909.019-.062.473-.023.525-.075.885-.881-1.622-4.032-1.021-5.004-1.52-.864-2.389-1.766-3.708-2.279Zm-.251,4.63c.154.758.709,1.386.464,2.275-.949.022-1.261.23-1.325-.828-.985.192-.059,1.557-1.299,1.59.948,1.379-1.728-.252-.778,1.128-3.701,1.837-4.995,5.155-10.729,5.743-.698-1.146.824-.951.681-1.969-.031-.218.601-1.356.774-1.515.319-.299,1.147-.339,1.483-.68.622-.633.631-1.557,1.207-2.044.431-.368,1.065-.361,1.483-.681.288-.22.601-.879.866-1.059.531-.361,1.002-.368,1.484-.68.091-.06,1.927-.629,2.008-.755.024-.036-.124-.447-.09-.455,1.172-.333,2.587-.479,3.771-.071Zm-191.418-29.861c-1.432,1.413-1.873,3.114-3.59,4.111-.325,1.652-.597,3.337-1.928,4.358-.175-.516-.133-1.281-.764-1.275-.991,3.139-1.039,7.945-1.352,10.684-.068.592-.243,1.587-.213,1.855.044.385-.442.431-.449.513-.203,2.612.413,5.371.364,8.181-2.38.656-4.63,1.895-6.464,3.103-.278.182-.589.817-.897,1.029-.242.164-.796-.009-1.056.133-.167.091-.183.826-.37.961-.186.134-.802.551-.977.582-.578.099-.21.374-.449.513-.64.372-1.517.261-2.031.715-.24.211-.672.77-.897,1.028-.286.326-.631.7-.897,1.028-.471.573-.486,1.966-1.796,2.055-.92-2.167,1.253-2.395.874-4.224-1.468-.426-.842.91-1.346,1.542-.633.791-1.867,1.424-1.795,2.055.058.52-.304.241-.449.513-.55,1.026-.756,1.656-1.189,2.437-.549.989-.308,1.912-.503,3.263-.161,1.116-.613,2.032-.582,2.816.05,1.362.176,3.491.867,4.917.058.12,1.07.592,1.213.76.45.533.307,1.289.843,1.722-.013-.011,3.19,1.25,3.482,1.387.49.232.74.542,1.213.76,1.48.686,2.94,1.311,4.087,1.768.577.23.918.186,1.662.246,2.566.211,6.6-.094,9.497-1.202.617,2.052.816,2.593,1.923,4.784,3.312-.211,4.694,1.789,7.412,2.261-.684-3.875-1.367-7.749-2.051-11.624.174-1.083,1.542-1.419,1.716-2.503-1.366.311-1.839-.399-1.898-1.588-.096-17.158-2.217-35.585,1.35-50.446-.178-.333-.533-.464-1.134-.313-.065.618-1.017.692-1.425,1.095Zm-8.804,32.651c.433-.139.528.112.606.38.614.009.372.412.079.447.829,5.954-.14,10.78.807,16.809-2.855,1.789-6.685,2.966-11.214,3.704-1.705-2.152-2.048-4.402-1.71-6.639.024-.157-.272-.786-.157-.893.039-.038.521-.026.528-.067.236-1.491-.031-2.304.503-3.263.285-.516.496-.962.818-1.475.21-.335.702-.712.897-1.028.456-.736,1.359-1.556,2.244-2.57,1.092-1.249,1.21-1.619,2.772-2.636.254-.166-.145-.412.449-.514.964-.166,1.424-1.168,2.402-1.675.625-.005.921-.217.977-.58Zm-20.33,42.811c-1.731.039-2.28-1.064-4.011-1.025.029-1.515-2.654-.407-3.522-1.052-1.053-4.371-.849-8.448-1.425-11.996-.125-.763-.588-1.704-.683-2.46-.042-.331-.185-.921-.096-1.243.054-.206.46-.485.457-.443.025-.32-.649-.395-.554-.802.028-.124.5-.033.457-.441.007.08-.49-.153-.521-.387-.104-.736-.113-1.727-.226-2.903-.068-.697.593-.341-.065-.829-.863-.642.242-4.599-.482-6.219-.554-1.001-1.835.676-3.426.191-1.416.029-3.186.406-3.947-.195-1.463,1.024-.747,2.884-1.635,4.254-.295.456.081,1.707-.328,2.101-.04.039-.477-.017-.489.027-.307,1.059-.39,2.298-.721,3.371-.194.634-.458,1.692-.785,2.543-.189.493-.164.969-.36,1.686l-.332,1.207c-.296.456.081,1.707-.328,2.1-.042.04-.477-.016-.489.028-.188.618-.067,1.082-.361,1.686-.452.929-1.548,1.474-1.763,2.597-1.36-.848-1.731-.956-3.033-1.079-.383-.981-.627-.905-1.564-1.162-.835-.228-1.453.137-1.989-.306.192-1.091.485-1.84.753-2.956.033-.142-.179-.74-.065-.83.043-.035.477.014.49-.027.272-.872.383-1.948.729-2.885l-.039-.007c.058-.152-.192-.729-.064-.83.643-.51.774-2.41,1.178-3.813,1.709-5.947,3.515-12.094,5.461-18.212.047-.147-.185-.732-.064-.829.054-.042.465.026.489-.027.074-.155-.199-.723-.064-.83.535-.423-.096-1.245.36-1.686.044-.041.474.02.489-.027.313-.93.322-2.168.754-2.957.094-.173.339-.102.456-.441.308-.897.417-2.076.753-2.957.14-.364.55-1.516.786-2.543.176-.773.165-1.513.328-2.1.035-.133.463-.042.457-.443-.014-.91.374-1.703.753-2.956.043-.146.463-.033.457-.443-.003-.157-.215-1.15-.097-1.244.683-.542.857-2.339,1.178-3.813.265-1.218,1.053-2.111,1.699-3.427-.196-.732.396-.876.457-.441.799.073.811-.439,1.435-.497.703-2.343,1.744-4.434,3.462-6.023,1.473-.383,1.817.325,2.969.251-.617,2.111.094,4.056.485,6.219.771,4.306.379,8.875,1.031,13.268.142.944.586,1.908.716,2.875.379,2.842.183,5.608.678,8.707.121.762.625,1.675.682,2.46-.008-.109-.782.25-.457.441.582.345.075.213.065.83-.013.69.158,1.382.161,2.073.215.534.911.604,1.075,1.189,2.114-.262,2.958.127,2.958.99,0,1.255-1.028,2.485-3.645,2.796,1.096,4.154,1.246,9.703,1.682,15.314.432,5.548.886,11.394,1.291,16.584Zm-11.905-39.31c-.001-.015.464-.007.489-.027.097-.078-.076-.702-.065-.83.228-2.531-.82-6.946-1.027-8.238.004.025.934-.804-.065-.829-.085-.463.661-.685-.064-.83-1.16,4.478-3.119,9.978-3.87,14.758,1.835-.33,2.979-1.174,5.318-1.13.435-.777-.643-1.931-.716-2.875Zm213.837-8.44c-.196-.081-.058-.711-.229-.833-.351-.251-1.031-.113-1.211-.64-.161-.476-.224-2.807-1.725-2.758-.639.307-1.177-.189-1.589-.127-.465.069-.458-.315-.606-.321-1.071-.04-2.52.491-3.44.676-.347.069-.113-.557-.493.097-.071.124-.828.119-.982.193-1.313.63-2.845,1.19-3.213,1.508-.264.228-.597.44-.87.61-1.292.802-1.674.97-2.117,1.732-.093.161-.832.058-.981.193-.14.125-.169.764-.265.93-.097.166-.846.042-.984.193-.311.338.1.968-.15,1.345-.101.152-.813.084-.982.193-.087.057-.194.82-.265.93-.359.561-.69,1.044-.961,1.48-.037-.006-.067-.014-.105-.02-.079-.011.067-.374.072-.447.113-1.107-1.211-1.228-1.894-1.592-.609-.324-1.131-2.76-2.497-1.205.827.97,1.2,2.21,1.602,3.382.418,1.217,1.004,2.697.928,4.217l.488,1.223c-.272,1.147-.543,2.378-.63,2.868-.168.919-.128,1.207.078,2.179.075.363-.381.434-.378.513.022,1.588.731,3.577.154,4.359-.189.257.446,1.342.456,1.666.018.694-.401,2.105-.414,2.275-.113,1.451.445,2.359.42,3.429-.001.04-.461.057-.492.097-.378.511.424,1.258-.036,1.762-.11.121.257.672.228.833l.464-.065c.036.883,1.116,1.461,2.221,1.491.376.523.898.877,1.718.891.696-.061,1.053-.346,1.423-.612.768-.551.393-.583.775-1.395.149-.319.272-.78.365-1.232.04-.026.079-.053.119-.078l.895-.127c-.001-.034-.047-.06-.021-.097.036-.049.058-.139.075-.244.064-.025.123-.055.189-.078l-.34-4.119c-.082-1.901-.16-3.836-.281-5.756.003-.547-.046-1.119-.113-1.644-.115-1.451-.271-2.88-.481-4.267-.001-.012-.003-.024-.006-.034-.082-.543-.168-1.083-.27-1.611,2.048-2.436,3.004-6.775,6.421-8.72,1.418-.807,2.83-.828,4.312-1.285,1.553-.48,1.192-.892,1.966-.386.14.093.792-.218.982-.192.895.117,1.13.26,1.422-.254.244-.431.878.678,1.427-.141.606-.971.071-.876-.179-.981Zm-50.611,3.839c.062-.652.799-.823.928-1.428-1.441-1.031-2.926-2.019-5.058-2.354-1.034-1.079.633-1.806-1.245-1.725-.918-1.062-4.551.609-5.407-.514-.1-8.012.454-15.556,1.442-22.79-1.446-.364-1.97-1.656-3.416-2.02-.938-.04-1.927.975-1.792.227.243-1.35.133-2.014-.607-1.907-2.049.35-1.329,1.806-1.717,3.34-.677-.051-1.157-.623-1.017.527-1.073,7.87-1.495,16.205-1.791,24.629-3.58,1.066-9.422.521-9.782,3.886.278,1.045,1.749.889,2.31,1.648-.193,2.012,1.906,1.719,2.444,2.998,1.87.457,3.608-1.274,4.253-.31l.36-.081c.007.094.008.193.018.285.018.171-.393.743-.285.871.385.465.218.69.085,1.428-.025.134-.368.772-.286.871.574.691-.024,3.368-.032,5.154-.003.779.283,1.688.313,2.42.047,1.102.199,1.976.171,2.855-.025.818.096,1.373.147,2.14l-.787.242c.015.139.382.186.371.557-.029.923-.165,1.162-.058,1.862.033.217.493.087.371.557-.403,1.537.857,3.985.853,5.832-.257,1.071,4.235.287,4.599-2.2-.146,1.72,2.642,1.583,3.455,1.284.813-.299.115-2.192-.026-3.291-.024-.173.395-.74.286-.871-.042-.049-.508-.068-.514-.121-.14-1.111-.127-2.213-.183-3.302l.595-.072c-.049-.239-.497-.072-.371-.557.135-.516.275-1.318.201-2.299-.014-.177-.488-.112-.371-.557.182-.692-.06-.846-.086-1.427-.047-1.112-.032-2.221-.026-3.291.001-.157.383-.753.286-.871-.182-.219-.475-1.106-.456-1.983.056-2.514.56-4.918.65-7.541,3.409-.926,7.428-1.417,11.177-2.101Z"/>
      </g>
    </g>
  </g>
</svg>