<?xml version="1.0" encoding="UTF-8"?>
<svg id="Layer_2" data-name="Layer 2" xmlns="http://www.w3.org/2000/svg" width="394" height="340" viewBox="0 0 394 340">
  <defs>
    <style>
      .cls-1 {
        fill: #ad0d0d;
      }

      .cls-1, .cls-2, .cls-3 {
        stroke-width: 0px;
      }

      .cls-2 {
        fill: #333;
      }

      .cls-3 {
        fill: #fff;
      }
    </style>
  </defs>
  <g id="Layer_1-2" data-name="Layer 1">
    <g>
      <rect class="cls-3" width="394" height="340"/>
      <polygon class="cls-2" points="136.791 138.319 136.791 135.391 135.409 137.942 127.787 151.175 126.741 151.175 118.659 137.901 117.528 135.728 117.528 138.277 117.528 158.001 114.262 158.001 114.262 128.688 116.858 128.688 126.029 143.679 127.411 145.864 128.792 143.596 137.545 128.688 140.267 128.688 140.267 158.001 136.791 158.001 136.791 138.319"/>
      <path class="cls-2" d="m152.621,139.491c-1.648,0-2.968.434-3.958,1.299-.991.866-1.584,2.345-1.779,4.439h10.385c0-2.121-.405-3.608-1.214-4.46-.81-.85-1.954-1.277-3.434-1.277m7.202,16.835c-.838.67-1.891,1.201-3.161,1.592-1.271.391-2.617.587-4.041.587-1.592,0-2.974-.259-4.147-.775-1.172-.516-2.135-1.257-2.889-2.219-.753-.964-1.312-2.115-1.675-3.455s-.544-2.847-.544-4.523c0-3.573.796-6.295,2.386-8.165,1.593-1.871,3.867-2.807,6.827-2.807.948,0,1.899.105,2.847.314.949.209,1.801.607,2.555,1.194.753.587,1.367,1.417,1.842,2.491.474,1.075.712,2.492.712,4.251,0,.922-.083,1.941-.252,3.057h-13.442c0,1.229.126,2.317.377,3.265.25.949.642,1.752,1.172,2.408.531.657,1.221,1.16,2.073,1.508.851.349,1.891.524,3.12.524.948,0,1.898-.168,2.848-.503.948-.335,1.66-.726,2.135-1.172l1.257,2.429Z"/>
      <path class="cls-2" d="m175.569,158.001v-11.851c0-1.116-.049-2.086-.146-2.911-.098-.823-.287-1.514-.566-2.073-.279-.558-.677-.977-1.193-1.257-.517-.278-1.194-.418-2.032-.418-1.284,0-2.352.392-3.204,1.173-.851.781-1.444,1.758-1.779,2.93v14.406h-3.35v-20.938h2.345l.628,2.554h.168c.753-.894,1.626-1.626,2.617-2.199.991-.572,2.282-.859,3.874-.859,1.34,0,2.435.259,3.287.775.851.516,1.514,1.417,1.988,2.701.642-1.088,1.529-1.94,2.659-2.554,1.131-.613,2.408-.922,3.831-.922,1.173,0,2.164.133,2.974.398.809.266,1.479.733,2.01,1.403.53.67.914,1.578,1.151,2.722.237,1.145.357,2.597.357,4.355v12.563h-3.351v-12.605c0-1.005-.048-1.877-.146-2.617-.098-.739-.293-1.353-.585-1.842-.294-.489-.699-.851-1.214-1.09-.517-.236-1.195-.356-2.032-.356-1.397,0-2.485.392-3.267,1.173-.782.781-1.34,1.899-1.675,3.35v13.987h-3.35Z"/>
      <path class="cls-2" d="m203.416,139.492c-1.397,0-2.527.391-3.392,1.172-.866.782-1.494,1.884-1.884,3.309v10.552c.53.308,1.172.538,1.927.692.753.154,1.535.23,2.345.23,1.898,0,3.412-.67,4.544-2.01,1.13-1.34,1.696-3.434,1.696-6.282,0-1.088-.098-2.108-.294-3.057-.195-.948-.502-1.758-.92-2.428s-.957-1.2-1.613-1.592c-.656-.391-1.459-.585-2.407-.585m-8.627-10.805h3.35v10.427h.167c.642-.809,1.46-1.438,2.45-1.884s2.073-.67,3.245-.67c2.708,0,4.739.866,6.094,2.597,1.353,1.731,2.031,4.411,2.031,8.04,0,3.657-.894,6.435-2.68,8.333-1.787,1.899-4.299,2.848-7.538,2.848-1.564,0-2.98-.168-4.251-.503-1.27-.335-2.226-.697-2.868-1.088v-28.1h0Z"/>
      <path class="cls-2" d="m222.971,139.491c-1.647,0-2.967.434-3.957,1.299-.991.866-1.584,2.345-1.779,4.439h10.385c0-2.121-.405-3.608-1.214-4.46-.81-.85-1.954-1.277-3.435-1.277m7.203,16.835c-.838.67-1.891,1.201-3.161,1.592-1.271.391-2.617.587-4.042.587-1.59,0-2.973-.259-4.146-.775-1.172-.516-2.135-1.257-2.889-2.219-.753-.964-1.312-2.115-1.675-3.455s-.544-2.847-.544-4.523c0-3.573.796-6.295,2.386-8.165,1.593-1.871,3.867-2.807,6.827-2.807.948,0,1.899.105,2.847.314.949.209,1.801.607,2.555,1.194.753.587,1.367,1.417,1.842,2.491.474,1.075.712,2.492.712,4.251,0,.922-.083,1.941-.252,3.057h-13.442c0,1.229.126,2.317.377,3.265.25.949.642,1.752,1.172,2.408.531.657,1.221,1.16,2.073,1.508.851.349,1.891.524,3.12.524.948,0,1.898-.168,2.847-.503.949-.335,1.661-.726,2.136-1.172l1.257,2.429h0Z"/>
      <path class="cls-2" d="m243.533,140.287c-.838-.278-1.633-.418-2.386-.418-1.201,0-2.15.329-2.848.984s-1.131,1.486-1.298,2.491v14.657h-3.35v-20.938h2.344l.629,2.554h.168c.529-.948,1.165-1.681,1.905-2.199.739-.516,1.681-.774,2.826-.774.809,0,1.717.139,2.722.418l-.712,3.224h0Z"/>
      <polygon class="cls-1" points="264.052 158.001 245.501 158.001 245.501 128.688 251.238 128.688 251.238 152.892 264.052 152.892 264.052 158.001"/>
      <path class="cls-1" d="m273.557,140.831c-1.423,0-2.478.427-3.161,1.277-.684.852-1.096,1.989-1.235,3.413h7.789c.111-1.507-.119-2.666-.691-3.476-.572-.809-1.473-1.214-2.702-1.214m7.79,15.369c-.838.67-1.976,1.235-3.413,1.696-1.439.461-2.967.691-4.586.691-3.378,0-5.849-.983-7.412-2.951-1.564-1.969-2.345-4.669-2.345-8.104,0-3.685.88-6.449,2.639-8.292,1.758-1.842,4.229-2.764,7.412-2.764,1.061,0,2.094.14,3.098.418,1.005.279,1.898.74,2.68,1.382.781.642,1.41,1.507,1.884,2.597.474,1.088.712,2.443.712,4.062,0,.585-.035,1.214-.104,1.884-.071.67-.175,1.368-.314,2.093h-12.563c.083,1.758.537,3.085,1.361,3.979s2.156,1.339,3.999,1.339c1.144,0,2.171-.173,3.078-.523.907-.348,1.598-.705,2.073-1.068l1.801,3.559h0Z"/>
      <path class="cls-1" d="m290.977,153.855c1.09,0,1.954-.244,2.597-.733s1.116-1.011,1.425-1.57v-2.722c-.866-.085-1.697-.098-2.492-.042-.796.057-1.501.182-2.115.377-.613.196-1.103.475-1.465.837-.364.364-.544.824-.544,1.382,0,.782.23,1.389.691,1.821.461.433,1.095.649,1.905.649m-6.909-15.578c1.116-.503,2.443-.901,3.979-1.194,1.534-.293,3.14-.44,4.815-.44,1.452,0,2.667.175,3.644.524.977.349,1.751.845,2.324,1.487.571.642.977,1.41,1.214,2.303.237.894.356,1.899.356,3.015,0,1.229-.041,2.465-.126,3.706-.083,1.243-.132,2.465-.146,3.664-.014,1.201.021,2.367.105,3.497.083,1.13.293,2.199.628,3.203h-4.439l-.879-2.889h-.209c-.56.866-1.334,1.612-2.324,2.241-.992.628-2.269.942-3.832.942-.977,0-1.856-.146-2.638-.44-.781-.293-1.451-.711-2.01-1.255-.559-.545-.992-1.186-1.299-1.927s-.46-1.571-.46-2.492c0-1.283.286-2.366.858-3.245.572-.879,1.396-1.592,2.471-2.136s2.359-.922,3.853-1.131c1.494-.209,3.161-.272,5.004-.189.195-1.563.083-2.686-.335-3.371-.42-.683-1.354-1.026-2.806-1.026-1.09,0-2.241.111-3.455.335-1.214.224-2.213.516-2.994.879l-1.298-4.062h0Z"/>
      <path class="cls-1" d="m312.628,141.083c-1.061,0-1.891.266-2.491.796-.6.531-1.068,1.327-1.403,2.387v8.71c.391.307.816.551,1.278.733.46.181,1.067.272,1.821.272,1.563,0,2.735-.55,3.517-1.654.781-1.102,1.173-2.924,1.173-5.464,0-1.843-.307-3.267-.922-4.272s-1.606-1.508-2.974-1.508m-9.338-4.02h3.979l.628,2.513h.167c.726-1.061,1.584-1.843,2.576-2.346.991-.502,2.199-.753,3.622-.753,2.624,0,4.592.831,5.904,2.492,1.312,1.661,1.969,4.333,1.969,8.018,0,1.787-.209,3.399-.629,4.837-.418,1.438-1.04,2.658-1.864,3.663-.824,1.006-1.829,1.774-3.015,2.304s-2.547.796-4.083.796c-.865,0-1.577-.063-2.136-.189s-1.116-.329-1.675-.607v8.584h-5.444v-29.313h0Z"/>
      <path class="cls-2" d="m116.951,167.879c-.223,0-.447.005-.674.014-.228.01-.397.026-.508.045v7.107c.04.009.109.018.204.023.097.005.2.01.311.014.11.005.217.01.317.015.102.005.177.007.228.007.585,0,1.074-.103,1.463-.31s.697-.482.924-.826c.228-.343.387-.74.478-1.19.091-.449.136-.911.136-1.386,0-.414-.04-.831-.122-1.25-.08-.418-.23-.796-.447-1.129-.216-.333-.512-.606-.886-.818-.373-.212-.848-.317-1.423-.317m-3.258-1.698c.212-.03.453-.056.721-.075.267-.021.542-.036.826-.045.282-.01.558-.019.826-.023.267-.006.507-.008.719-.008.939,0,1.743.131,2.41.394.667.263,1.206.632,1.62,1.106.414.475.717,1.041.91,1.698.191.657.287,1.378.287,2.167,0,.717-.091,1.409-.272,2.076-.182.667-.484,1.258-.909,1.773-.424.514-.982.929-1.674,1.242-.693.313-1.548.47-2.569.47-.162,0-.376-.005-.644-.015s-.545-.023-.833-.038c-.289-.014-.564-.03-.826-.045-.264-.014-.46-.033-.592-.053v-10.622Z"/>
      <path class="cls-2" d="m123.314,169.212h1.97v7.576h-1.97v-7.576Zm-.288-2.137c0-.293.108-.543.325-.75.217-.206.518-.31.902-.31s.695.104.933.31c.237.207.355.458.355.75s-.118.538-.355.735c-.238.197-.548.296-.933.296s-.684-.099-.902-.296c-.216-.197-.325-.442-.325-.735"/>
      <path class="cls-2" d="m130.056,174.696c0-.202-.086-.364-.257-.484-.172-.122-.384-.233-.636-.334-.253-.101-.531-.204-.834-.31-.304-.106-.581-.253-.834-.439-.253-.188-.465-.425-.636-.712-.172-.288-.258-.66-.258-1.114,0-.747.222-1.318.667-1.712.444-.394,1.085-.591,1.923-.591.576,0,1.097.061,1.561.181.465.122.829.258,1.092.409l-.44,1.425c-.232-.091-.525-.187-.878-.288-.354-.101-.712-.152-1.076-.152-.585,0-.878.227-.878.681,0,.181.086.329.258.44s.383.214.636.31.531.2.834.31c.303.111.58.256.833.432.253.177.465.407.636.69.172.283.258.646.258,1.092,0,.767-.245,1.371-.734,1.81-.491.44-1.226.66-2.205.66-.536,0-1.038-.069-1.508-.205s-.851-.295-1.144-.477l.545-1.47c.232.132.54.26.925.387s.777.19,1.182.19c.293,0,.527-.056.704-.167.176-.111.265-.298.265-.561"/>
      <path class="cls-2" d="m138.375,176.318c-.303.222-.669.392-1.099.507-.429.116-.871.174-1.326.174-.606,0-1.119-.096-1.538-.288-.42-.192-.76-.462-1.023-.81-.262-.348-.453-.771-.568-1.266-.116-.495-.175-1.04-.175-1.636,0-1.283.289-2.271.865-2.962.576-.693,1.413-1.038,2.515-1.038.555,0,1.002.045,1.341.136.338.091.644.207.916.348l-.47,1.606c-.233-.11-.462-.197-.69-.258-.227-.06-.488-.091-.78-.091-.545,0-.96.179-1.242.538s-.424.932-.424,1.72c0,.323.035.621.105.894.071.273.176.51.319.712.141.202.326.361.554.477.228.116.492.174.795.174.334,0,.616-.043.849-.129.232-.086.439-.19.622-.311,0,0,.454,1.501.454,1.501Z"/>
      <path class="cls-2" d="m140.678,173c0,.333.032.641.091.925.061.282.153.53.274.742.121.212.279.376.477.493.196.116.431.174.704.174.515,0,.899-.188,1.151-.561.253-.374.379-.965.379-1.773,0-.697-.116-1.26-.349-1.689-.232-.43-.626-.644-1.181-.644-.485,0-.864.182-1.136.546-.273.363-.41.96-.41,1.787m-2.03,0c0-1.283.312-2.271.939-2.962s1.505-1.038,2.637-1.038c.606,0,1.131.096,1.576.288.444.193.812.463,1.106.811.293.348.512.77.659,1.265.146.496.22,1.041.22,1.637,0,1.283-.31,2.271-.932,2.962-.621.692-1.498,1.038-2.628,1.038-.606,0-1.132-.097-1.576-.289s-.816-.462-1.114-.81c-.298-.348-.52-.77-.666-1.265s-.22-1.041-.22-1.637"/>
      <polygon class="cls-2" points="149.285 173.181 149.543 174.348 149.618 174.348 149.83 173.151 151.119 169.212 153.24 169.212 150.074 176.863 148.876 176.863 145.588 169.212 147.876 169.212 149.285 173.181"/>
      <path class="cls-2" d="m156.724,170.575c-.515,0-.896.155-1.144.463-.247.308-.397.719-.446,1.235h2.818c.04-.546-.043-.965-.25-1.258-.207-.294-.533-.44-.977-.44m2.818,5.561c-.303.242-.714.447-1.235.613-.521.167-1.073.25-1.659.25-1.222,0-2.117-.357-2.682-1.068-.566-.712-.848-1.689-.848-2.933,0-1.333.317-2.334.954-3,.636-.667,1.53-1.001,2.681-1.001.384,0,.758.052,1.121.152.364.101.688.268.97.501.282.232.51.545.681.939.172.394.258.884.258,1.47,0,.212-.012.439-.037.681-.026.242-.064.496-.114.758h-4.545c.03.637.194,1.116.492,1.44s.781.484,1.448.484c.413,0,.785-.063,1.112-.19.329-.126.578-.255.75-.386,0,0,.651,1.287.651,1.287Z"/>
      <path class="cls-2" d="m165.059,171.06c-.313-.111-.596-.167-.848-.167-.354,0-.649.094-.886.28-.238.188-.397.427-.477.719v4.895h-1.97v-7.576h1.53l.228,1h.061c.171-.374.403-.662.697-.864.293-.202.637-.303,1.031-.303.262,0,.561.056.894.167,0,0-.258,1.848-.258,1.848Z"/>
      <polygon class="cls-2" points="177.696 171.288 177.923 169.182 177.832 169.182 177.181 170.878 174.923 174.833 174.257 174.833 171.878 170.864 171.211 169.182 171.134 169.182 171.439 171.272 171.439 176.788 169.468 176.788 169.468 166.181 171.362 166.181 174.196 171.03 174.696 172.242 174.757 172.242 175.211 171 177.893 166.181 179.772 166.181 179.772 176.788 177.696 176.788 177.696 171.288"/>
      <path class="cls-2" d="m184.483,170.575c-.515,0-.897.155-1.144.463s-.397.719-.446,1.235h2.818c.04-.546-.043-.965-.25-1.258-.207-.294-.533-.44-.977-.44m2.818,5.561c-.303.242-.714.447-1.235.613-.52.167-1.074.25-1.66.25-1.221,0-2.115-.357-2.682-1.068-.566-.712-.848-1.689-.848-2.933,0-1.333.319-2.334.956-3,.636-.667,1.53-1.001,2.681-1.001.384,0,.758.052,1.121.152.364.101.686.268.97.501.282.232.509.545.681.939s.259.884.259,1.47c0,.212-.012.439-.039.681-.025.242-.063.496-.113.758h-4.546c.031.637.195,1.116.493,1.44s.78.484,1.447.484c.413,0,.785-.063,1.113-.19.329-.126.578-.255.75-.386l.651,1.287Z"/>
      <path class="cls-2" d="m192.938,176.788v-4.121c0-.698-.066-1.193-.197-1.485s-.404-.439-.817-.439c-.344,0-.622.093-.834.279-.212.188-.373.428-.485.721v5.046h-1.97v-7.576h1.531l.227,1h.061c.232-.324.529-.606.886-.848.359-.242.82-.364,1.386-.364.485,0,.881.099,1.19.296.308.197.548.528.719.993.233-.394.531-.707.895-.94.364-.232.803-.348,1.318-.348.424,0,.785.051,1.083.152s.54.275.727.523c.187.248.326.578.416.993.092.414.137.94.137,1.576v4.546h-1.97v-4.258c0-.596-.063-1.042-.19-1.341-.126-.298-.406-.446-.841-.446-.354,0-.634.096-.841.288-.207.192-.361.455-.462.788v4.97h-1.97,0Z"/>
      <path class="cls-2" d="m203.908,170.697c-.364,0-.659.093-.885.279-.228.188-.402.458-.524.811v3.304c.162.08.336.136.524.166.186.031.386.045.598.045.535,0,.942-.194,1.219-.583.278-.389.417-1.007.417-1.855,0-1.445-.449-2.167-1.349-2.167m-3.379-4.516h1.97v3.637h.061c.212-.242.484-.434.818-.576.333-.141.702-.211,1.106-.211.909,0,1.603.31,2.083.932.479.621.719,1.568.719,2.841,0,1.364-.336,2.399-1.007,3.106-.672.708-1.594,1.061-2.765,1.061-.647,0-1.239-.053-1.774-.159s-.939-.225-1.212-.356c0,0,0-10.274,0-10.274Z"/>
      <path class="cls-2" d="m211.59,170.575c-.515,0-.897.155-1.144.463s-.397.719-.446,1.235h2.818c.04-.546-.043-.965-.25-1.258-.207-.294-.533-.44-.977-.44m2.818,5.561c-.302.242-.714.447-1.235.613-.52.167-1.073.25-1.659.25-1.223,0-2.116-.357-2.682-1.068-.566-.712-.849-1.689-.849-2.933,0-1.333.319-2.334.956-3,.636-.667,1.53-1.001,2.681-1.001.384,0,.758.052,1.121.152.364.101.688.268.97.501.282.232.51.545.681.939.172.394.259.884.259,1.47,0,.212-.012.439-.039.681-.025.242-.063.496-.113.758h-4.545c.03.637.194,1.116.492,1.44s.78.484,1.447.484c.414,0,.785-.063,1.113-.19.329-.126.578-.255.75-.386l.651,1.287h0Z"/>
      <path class="cls-2" d="m219.925,171.06c-.314-.111-.596-.167-.848-.167-.355,0-.649.094-.887.28-.237.188-.397.427-.477.719v4.895h-1.97v-7.576h1.531l.227,1h.061c.172-.374.404-.662.697-.864.294-.202.637-.303,1.031-.303.263,0,.561.056.894.167l-.257,1.848h0Z"/>
      <path class="cls-2" d="m223.894,174.696c0-.202-.086-.364-.258-.484-.171-.122-.383-.233-.635-.334-.254-.101-.532-.204-.835-.31-.303-.106-.581-.253-.833-.439-.253-.188-.465-.425-.636-.712-.172-.288-.258-.66-.258-1.114,0-.747.222-1.318.667-1.712.444-.394,1.085-.591,1.923-.591.576,0,1.097.061,1.562.181.464.122.828.258,1.091.409l-.44,1.425c-.232-.091-.525-.187-.878-.288s-.712-.152-1.076-.152c-.585,0-.878.227-.878.681,0,.181.086.329.258.44.171.111.383.214.636.31.253.096.531.2.834.31.303.111.58.256.833.432.253.177.465.407.636.69.172.283.258.646.258,1.092,0,.767-.245,1.371-.734,1.81-.491.44-1.226.66-2.206.66-.535,0-1.037-.069-1.506-.205-.471-.136-.852-.295-1.145-.477l.545-1.47c.232.132.54.26.925.387.383.127.777.19,1.181.19.294,0,.528-.056.705-.167.176-.111.265-.298.265-.561"/>
      <path class="cls-2" d="m231.485,176.788v-4.303c0-.615-.087-1.061-.258-1.334-.172-.272-.484-.408-.939-.408-.334,0-.639.113-.916.34-.278.228-.463.518-.554.872v4.833h-1.97v-10.607h1.97v3.879h.06c.243-.323.541-.58.895-.772.354-.193.804-.289,1.349-.289.383,0,.722.051,1.014.152s.538.268.735.5c.197.233.343.548.439.947.097.399.144.892.144,1.477v4.713h-1.97,0Z"/>
      <path class="cls-2" d="m234.97,169.212h1.97v7.576h-1.97v-7.576Zm-.288-2.137c0-.293.108-.543.326-.75.216-.206.517-.31.902-.31s.694.104.932.31c.237.207.356.458.356.75s-.119.538-.356.735c-.238.197-.548.296-.932.296s-.685-.099-.902-.296c-.217-.197-.326-.442-.326-.735"/>
      <path class="cls-2" d="m241.956,170.666c-.384,0-.684.096-.902.288-.217.193-.387.48-.507.864v3.152c.141.111.295.199.462.265s.387.099.659.099c.567,0,.991-.2,1.274-.599.282-.399.424-1.059.424-1.977,0-.667-.111-1.182-.333-1.546-.223-.363-.581-.545-1.076-.545m-3.379-1.454h1.439l.227.909h.061c.263-.383.574-.667.933-.848.358-.182.795-.273,1.31-.273.949,0,1.662.301,2.137.902.474.601.712,1.568.712,2.902,0,.646-.076,1.23-.228,1.75-.15.521-.376.962-.674,1.326s-.662.641-1.092.833c-.428.192-.92.289-1.477.289-.313,0-.57-.023-.772-.068-.203-.045-.404-.12-.606-.221v3.107h-1.97s0-10.607,0-10.607Z"/>
      <path class="cls-2" d="m254.607,173.939c0-.324-.119-.587-.357-.788-.237-.203-.535-.387-.893-.554-.36-.167-.748-.338-1.167-.515-.42-.176-.809-.394-1.168-.651-.358-.258-.656-.578-.894-.963-.237-.383-.356-.873-.356-1.469,0-.515.086-.963.258-1.341.171-.379.416-.695.735-.947.317-.253.694-.439,1.129-.561.434-.121.918-.181,1.454-.181.616,0,1.198.053,1.743.159.545.106.995.26,1.348.462l-.651,1.743c-.223-.141-.556-.27-1.001-.387-.444-.115-.924-.174-1.439-.174-.484,0-.856.096-1.113.288-.258.193-.387.449-.387.773,0,.303.119.556.356.758.238.202.536.389.894.561.359.172.748.348,1.167.531.42.181.808.401,1.168.659.358.258.656.575.894.954.237.378.356.85.356,1.416s-.094,1.053-.28,1.463-.449.75-.788,1.023c-.339.273-.748.475-1.228.606-.48.131-1.008.197-1.583.197-.758,0-1.425-.07-2-.212-.576-.141-1-.282-1.273-.424l.667-1.773c.111.061.255.126.431.197.177.071.376.136.599.197.223.061.458.111.705.152.247.041.502.061.765.061.615,0,1.088-.103,1.416-.31s.493-.524.493-.947"/>
      <path class="cls-2" d="m259.381,173c0,.333.031.641.091.925.061.282.152.53.273.742.121.212.28.376.477.493s.432.174.704.174c.515,0,.899-.188,1.152-.561.252-.374.378-.965.378-1.773,0-.697-.115-1.26-.348-1.689s-.627-.644-1.182-.644c-.484,0-.864.182-1.136.546-.273.363-.409.96-.409,1.787m-2.031,0c0-1.283.312-2.271.939-2.962s1.506-1.038,2.637-1.038c.606,0,1.132.096,1.576.288.444.193.813.463,1.106.811.293.348.513.77.66,1.265.146.496.22,1.041.22,1.637,0,1.283-.31,2.271-.932,2.962-.622.692-1.498,1.038-2.629,1.038-.606,0-1.131-.097-1.575-.289-.445-.192-.816-.462-1.114-.81-.298-.348-.521-.77-.667-1.265s-.22-1.041-.22-1.637"/>
      <path class="cls-2" d="m267.579,174.242c0,.354.045.611.136.773s.237.242.44.242c.121,0,.24-.01.356-.031.115-.02.26-.065.432-.136l.211,1.546c-.162.08-.408.161-.742.242-.333.08-.676.121-1.03.121-.576,0-1.015-.134-1.318-.401-.303-.268-.455-.709-.455-1.327v-9.09h1.97v8.061h0Z"/>
      <path class="cls-2" d="m271.594,169.212v4.303c0,.616.073,1.061.22,1.333.146.273.432.409.857.409.373,0,.684-.111.932-.333.247-.223.432-.495.552-.818v-4.894h1.97v5.273c0,.414.021.82.061,1.219s.101.76.182,1.083h-1.485l-.348-1.121h-.06c-.233.384-.557.702-.971.954s-.904.379-1.469.379c-.384,0-.727-.051-1.031-.152-.303-.101-.556-.268-.758-.5-.202-.233-.356-.546-.462-.94-.107-.394-.16-.889-.16-1.484v-4.713s1.97,0,1.97,0Z"/>
      <path class="cls-2" d="m276.76,169.212h1.045v-1.425l1.97-.561v1.985h1.848v1.667h-1.848v2.909c0,.526.053.902.159,1.129.106.228.306.341.6.341.201,0,.375-.02.522-.061.146-.04.311-.1.493-.181l.348,1.515c-.273.132-.591.242-.954.334-.363.091-.732.136-1.106.136-.697,0-1.21-.179-1.538-.538-.329-.359-.493-.947-.493-1.766v-3.818h-1.045v-1.667Z"/>
      <path class="cls-2" d="m282.699,169.212h1.97v7.576h-1.97v-7.576Zm-.288-2.137c0-.293.108-.543.326-.75.217-.206.517-.31.901-.31.386,0,.695.104.933.31.238.207.356.458.356.75s-.118.538-.356.735-.547.296-.933.296c-.383,0-.683-.099-.901-.296s-.326-.442-.326-.735"/>
      <path class="cls-2" d="m287.973,173c0,.333.031.641.091.925.061.282.152.53.273.742.121.212.28.376.477.493s.432.174.704.174c.515,0,.9-.188,1.152-.561.252-.374.378-.965.378-1.773,0-.697-.116-1.26-.348-1.689-.233-.43-.627-.644-1.182-.644-.484,0-.863.182-1.136.546-.272.363-.409.96-.409,1.787m-2.031,0c0-1.283.313-2.271.94-2.962.626-.692,1.505-1.038,2.636-1.038.607,0,1.132.096,1.576.288.444.193.813.463,1.107.811.293.348.512.77.659,1.265.146.496.22,1.041.22,1.637,0,1.283-.31,2.271-.932,2.962-.622.692-1.498,1.038-2.629,1.038-.605,0-1.131-.097-1.575-.289-.445-.192-.816-.462-1.114-.81-.298-.348-.521-.77-.666-1.265-.147-.495-.221-1.041-.221-1.637"/>
      <path class="cls-2" d="m298.776,176.788v-4.303c0-.615-.089-1.061-.265-1.334-.177-.272-.477-.408-.902-.408-.374,0-.69.108-.947.326-.257.216-.441.488-.552.81v4.91h-1.97v-7.576h1.561l.228,1h.06c.233-.324.541-.606.925-.848.383-.242.878-.364,1.484-.364.374,0,.708.051,1.001.152s.54.268.742.5c.202.233.354.548.455.947.101.399.152.892.152,1.477v4.713h-1.97Z"/>
      <path class="cls-2" d="m305.231,174.696c0-.202-.086-.364-.258-.484-.171-.122-.383-.233-.636-.334-.253-.101-.53-.204-.834-.31-.303-.106-.581-.253-.833-.439-.253-.188-.465-.425-.636-.712-.172-.288-.258-.66-.258-1.114,0-.747.222-1.318.667-1.712.444-.394,1.085-.591,1.923-.591.576,0,1.097.061,1.562.181.464.122.828.258,1.091.409l-.44,1.425c-.232-.091-.525-.187-.878-.288s-.712-.152-1.076-.152c-.585,0-.878.227-.878.681,0,.181.086.329.258.44.171.111.383.214.636.31.253.096.531.2.833.31.304.111.581.256.834.432.253.177.465.407.636.69.172.283.258.646.258,1.092,0,.767-.245,1.371-.735,1.81-.49.44-1.225.66-2.205.66-.535,0-1.038-.069-1.507-.205-.47-.136-.851-.295-1.144-.477l.545-1.47c.233.132.54.26.925.387.383.127.778.19,1.181.19.294,0,.528-.056.706-.167.176-.111.264-.298.264-.561"/>
      <path class="cls-1" d="m103.418,148.245c0,9.769-7.947,17.715-17.715,17.715s-17.716-7.946-17.716-17.715c0-2.14.401-4.183,1.099-6.083l9.633,19.727,5.859-12.038-5.162-10.572h-8.967c3.084-5.226,8.758-8.749,15.254-8.749,3.139,0,6.085.829,8.644,2.267l-14.852,30.519h2.095l4.937-8.662-3.539,8.662h1.814l4.937-8.662-3.539,8.662h1.814l4.937-8.661-3.539,8.661h1.818l10.74-22.067c.928,2.147,1.446,4.512,1.446,6.996m5.358-20.976l-11.73-.015-1.538,3.159c-2.911-1.607-6.252-2.527-9.805-2.527-11.227,0-20.36,9.134-20.36,20.36s9.133,20.36,20.36,20.36,20.359-9.134,20.359-20.36c0-3.628-.965-7.031-2.636-9.985l5.35-10.991Z"/>
    </g>
  </g>
</svg>