<?xml version="1.0" encoding="UTF-8"?>
<svg id="Layer_1" data-name="Layer 1" xmlns="http://www.w3.org/2000/svg" width="249.125" height="50.996" viewBox="0 0 249.125 50.996">
  <defs>
    <style>
      .cls-1 {
        fill: #ad0d0d;
      }

      .cls-1, .cls-2 {
        stroke-width: 0px;
      }

      .cls-2 {
        fill: #333;
      }
    </style>
  </defs>
  <polygon class="cls-2" points="69.315 10.736 69.315 7.895 67.974 10.37 60.58 23.208 59.565 23.208 51.724 10.33 50.627 8.222 50.627 10.695 50.627 29.83 47.458 29.83 47.458 1.392 49.977 1.392 58.874 15.936 60.215 18.055 61.555 15.855 70.046 1.392 72.687 1.392 72.687 29.83 69.315 29.83 69.315 10.736"/>
  <path class="cls-2" d="m84.672,11.873c-1.599,0-2.879.421-3.84,1.26-.961.84-1.537,2.275-1.726,4.306h10.075c0-2.058-.393-3.5-1.178-4.327-.786-.825-1.896-1.239-3.331-1.239m6.987,16.332c-.813.65-1.835,1.165-3.067,1.544-1.233.379-2.539.569-3.92.569-1.544,0-2.885-.251-4.023-.752-1.137-.501-2.071-1.219-2.803-2.153-.731-.935-1.273-2.052-1.625-3.352-.352-1.3-.528-2.762-.528-4.388,0-3.466.772-6.107,2.315-7.921,1.545-1.815,3.752-2.723,6.623-2.723.92,0,1.842.102,2.762.305.921.203,1.747.589,2.479,1.158.731.569,1.326,1.375,1.787,2.417.46,1.043.691,2.418.691,4.124,0,.894-.081,1.883-.244,2.966h-13.041c0,1.192.122,2.248.366,3.168.243.921.623,1.7,1.137,2.336.515.637,1.185,1.125,2.011,1.463.826.339,1.835.508,3.027.508.92,0,1.841-.163,2.763-.488.92-.325,1.61-.704,2.071-1.137l1.219,2.356Z"/>
  <path class="cls-2" d="m106.935,29.83v-11.497c0-1.083-.048-2.024-.142-2.824-.095-.798-.278-1.469-.549-2.011-.271-.541-.657-.948-1.157-1.219-.502-.27-1.158-.406-1.971-.406-1.246,0-2.282.38-3.108,1.138-.826.758-1.401,1.706-1.726,2.843v13.976h-3.25V9.517h2.275l.609,2.478h.163c.731-.867,1.577-1.577,2.539-2.133.961-.555,2.214-.833,3.758-.833,1.3,0,2.362.251,3.189.752.826.501,1.469,1.375,1.929,2.62.623-1.056,1.483-1.882,2.58-2.478,1.097-.595,2.336-.894,3.717-.894,1.138,0,2.099.129,2.885.386.785.258,1.435.711,1.95,1.361.514.65.887,1.531,1.117,2.641.23,1.111.346,2.519.346,4.225v12.188h-3.251v-12.229c0-.975-.047-1.821-.142-2.539-.095-.717-.284-1.313-.568-1.787-.285-.474-.678-.826-1.178-1.057-.502-.229-1.159-.345-1.971-.345-1.355,0-2.411.38-3.169,1.138-.759.758-1.3,1.842-1.625,3.25v13.569h-3.25Z"/>
  <path class="cls-2" d="m133.951,11.874c-1.355,0-2.452.379-3.291,1.137-.84.759-1.449,1.828-1.828,3.21v10.237c.514.299,1.137.522,1.869.671.731.149,1.489.223,2.275.223,1.841,0,3.31-.65,4.408-1.95,1.096-1.3,1.645-3.331,1.645-6.094,0-1.056-.095-2.045-.285-2.966-.189-.92-.487-1.706-.893-2.356-.406-.65-.928-1.164-1.565-1.544-.636-.379-1.415-.568-2.335-.568m-8.369-10.482h3.25v10.116h.162c.623-.785,1.416-1.395,2.377-1.828.961-.433,2.011-.65,3.148-.65,2.627,0,4.598.84,5.912,2.519,1.313,1.679,1.97,4.279,1.97,7.8,0,3.548-.867,6.243-2.6,8.084-1.734,1.842-4.171,2.763-7.313,2.763-1.517,0-2.891-.163-4.124-.488-1.232-.325-2.16-.676-2.782-1.056V1.391Z"/>
  <path class="cls-2" d="m152.922,11.873c-1.598,0-2.878.421-3.839,1.26-.961.84-1.537,2.275-1.726,4.306h10.075c0-2.058-.393-3.5-1.178-4.327-.786-.825-1.896-1.239-3.332-1.239m6.988,16.332c-.813.65-1.835,1.165-3.067,1.544-1.233.379-2.539.569-3.921.569-1.543,0-2.884-.251-4.022-.752-1.137-.501-2.071-1.219-2.803-2.153-.731-.935-1.273-2.052-1.625-3.352-.352-1.3-.528-2.762-.528-4.388,0-3.466.772-6.107,2.315-7.921,1.545-1.815,3.752-2.723,6.623-2.723.92,0,1.842.102,2.762.305.921.203,1.747.589,2.479,1.158.731.569,1.326,1.375,1.787,2.417.46,1.043.691,2.418.691,4.124,0,.894-.081,1.883-.244,2.966h-13.041c0,1.192.122,2.248.366,3.168.243.921.623,1.7,1.137,2.336.515.637,1.185,1.125,2.011,1.463.826.339,1.835.508,3.027.508.92,0,1.841-.163,2.762-.488.921-.325,1.611-.704,2.072-1.137l1.219,2.356Z"/>
  <path class="cls-2" d="m172.87,12.645c-.813-.27-1.584-.406-2.315-.406-1.165,0-2.086.319-2.763.955-.677.636-1.097,1.442-1.259,2.417v14.219h-3.25V9.517h2.274l.61,2.478h.163c.513-.92,1.13-1.631,1.848-2.133.717-.501,1.631-.751,2.742-.751.785,0,1.666.135,2.641.406l-.691,3.128Z"/>
  <polygon class="cls-1" points="192.777 29.83 174.779 29.83 174.779 1.392 180.345 1.392 180.345 24.874 192.777 24.874 192.777 29.83"/>
  <path class="cls-1" d="m201.998,13.173c-1.381,0-2.404.414-3.067,1.239-.664.827-1.063,1.93-1.198,3.311h7.556c.108-1.462-.115-2.586-.67-3.372-.555-.785-1.429-1.178-2.621-1.178m7.557,14.91c-.813.65-1.917,1.198-3.311,1.645-1.396.447-2.878.67-4.449.67-3.277,0-5.674-.954-7.191-2.863-1.517-1.91-2.275-4.53-2.275-7.862,0-3.575.854-6.256,2.56-8.044,1.706-1.787,4.103-2.681,7.191-2.681,1.029,0,2.031.136,3.006.406.975.271,1.841.718,2.6,1.341.758.623,1.368,1.462,1.828,2.519.46,1.056.691,2.37.691,3.941,0,.568-.034,1.178-.101,1.828-.069.65-.17,1.327-.305,2.031h-12.188c.081,1.706.521,2.993,1.32,3.86s2.092,1.299,3.88,1.299c1.11,0,2.106-.168,2.986-.507.88-.338,1.55-.684,2.011-1.036l1.747,3.453Z"/>
  <path class="cls-1" d="m218.898,25.808c1.057,0,1.896-.237,2.519-.711s1.083-.981,1.382-1.523v-2.641c-.84-.082-1.646-.095-2.418-.041-.772.055-1.456.177-2.052.366-.595.19-1.07.461-1.421.812-.353.353-.528.799-.528,1.341,0,.759.223,1.348.67,1.767.447.42,1.062.63,1.848.63m-6.703-15.113c1.083-.488,2.37-.874,3.86-1.158,1.488-.284,3.046-.427,4.671-.427,1.409,0,2.587.17,3.535.508.948.339,1.699.82,2.255,1.443.554.623.948,1.368,1.178,2.234.23.867.345,1.842.345,2.925,0,1.192-.04,2.391-.122,3.595-.081,1.206-.128,2.391-.142,3.555-.014,1.165.02,2.296.102,3.393.081,1.096.284,2.133.609,3.107h-4.306l-.853-2.803h-.203c-.543.84-1.294,1.564-2.255,2.174-.962.609-2.201.914-3.718.914-.948,0-1.801-.142-2.559-.427-.758-.284-1.408-.69-1.95-1.218-.542-.529-.962-1.151-1.26-1.869s-.446-1.524-.446-2.418c0-1.245.277-2.295.832-3.148.555-.853,1.354-1.544,2.397-2.072,1.043-.528,2.289-.894,3.738-1.097,1.449-.203,3.067-.264,4.855-.183.189-1.516.081-2.606-.325-3.27-.407-.663-1.314-.995-2.722-.995-1.057,0-2.174.108-3.352.325-1.178.217-2.147.501-2.905.853l-1.259-3.941Z"/>
  <path class="cls-1" d="m239.902,13.417c-1.029,0-1.835.258-2.417.772-.582.515-1.036,1.287-1.361,2.316v8.45c.379.298.792.535,1.24.711.446.176,1.035.264,1.767.264,1.516,0,2.653-.534,3.412-1.605.758-1.069,1.138-2.837,1.138-5.301,0-1.788-.298-3.169-.894-4.144-.596-.975-1.558-1.463-2.885-1.463m-9.059-3.9h3.86l.609,2.438h.162c.704-1.029,1.537-1.788,2.499-2.276.961-.487,2.133-.731,3.514-.731,2.546,0,4.455.806,5.728,2.418,1.273,1.611,1.91,4.204,1.91,7.779,0,1.734-.203,3.298-.61,4.693-.406,1.395-1.009,2.579-1.808,3.554-.799.976-1.774,1.721-2.925,2.235s-2.471.772-3.961.772c-.839,0-1.53-.061-2.072-.183-.542-.122-1.083-.319-1.625-.589v8.328h-5.281V9.517Z"/>
  <path class="cls-2" d="m50.067,39.413c-.216,0-.434.005-.654.014-.221.01-.385.025-.493.044v6.895c.039.009.106.017.198.022.094.005.194.01.302.014.107.005.211.01.308.015.099.005.172.007.221.007.568,0,1.042-.1,1.419-.301.377-.201.676-.468.896-.801.221-.333.375-.718.464-1.154.088-.436.132-.884.132-1.345,0-.402-.039-.806-.118-1.213-.078-.406-.223-.772-.434-1.095-.21-.323-.497-.588-.86-.794-.362-.206-.823-.308-1.381-.308m-3.161-1.647c.206-.029.439-.054.699-.073.259-.02.526-.035.801-.044.274-.01.541-.018.801-.022.259-.006.492-.008.698-.008.911,0,1.691.127,2.338.382.647.255,1.17.613,1.572,1.073.402.461.696,1.01.883,1.647.185.637.278,1.337.278,2.102,0,.696-.088,1.367-.264,2.014-.177.647-.47,1.22-.882,1.72-.411.499-.953.901-1.624,1.205-.672.304-1.502.456-2.492.456-.157,0-.365-.005-.625-.015-.26-.01-.529-.022-.808-.037-.28-.014-.547-.029-.801-.044-.256-.014-.446-.032-.574-.051v-10.305Z"/>
  <path class="cls-2" d="m56.24,40.706h1.911v7.35h-1.911v-7.35Zm-.279-2.073c0-.284.105-.527.315-.728.211-.2.503-.301.875-.301s.674.101.905.301c.23.201.344.444.344.728s-.114.522-.344.713c-.231.191-.532.287-.905.287s-.664-.096-.875-.287c-.21-.191-.315-.429-.315-.713"/>
  <path class="cls-2" d="m62.781,46.027c0-.196-.083-.353-.249-.47-.167-.118-.373-.226-.617-.324-.245-.098-.515-.198-.809-.301-.295-.103-.564-.245-.809-.426-.245-.182-.451-.412-.617-.691-.167-.279-.25-.64-.25-1.081,0-.725.215-1.279.647-1.661.431-.382,1.053-.573,1.866-.573.559,0,1.064.059,1.514.176.451.118.804.25,1.059.397l-.427,1.382c-.225-.088-.509-.181-.852-.279-.343-.098-.691-.147-1.044-.147-.568,0-.852.22-.852.661,0,.176.083.319.25.427s.372.208.617.301c.245.093.515.194.809.301.294.108.563.248.808.419.245.172.451.395.617.669.167.275.25.627.25,1.059,0,.744-.238,1.33-.712,1.756-.476.427-1.189.64-2.139.64-.52,0-1.007-.067-1.463-.199-.456-.132-.826-.286-1.11-.463l.529-1.426c.225.128.524.252.897.375.373.123.754.184,1.147.184.284,0,.511-.054.683-.162.171-.108.257-.289.257-.544"/>
  <path class="cls-2" d="m70.852,47.6c-.294.215-.649.38-1.066.492-.416.113-.845.169-1.286.169-.588,0-1.086-.093-1.492-.279-.407-.186-.737-.448-.992-.786-.254-.338-.439-.748-.551-1.228-.113-.48-.17-1.009-.17-1.587,0-1.245.28-2.203.839-2.874.559-.672,1.371-1.007,2.44-1.007.538,0,.972.044,1.301.132.328.088.625.201.889.338l-.456,1.558c-.226-.107-.448-.191-.669-.25-.22-.058-.473-.088-.757-.088-.529,0-.931.174-1.205.522-.274.348-.411.904-.411,1.669,0,.313.034.602.102.867.069.265.171.495.309.691.137.196.316.35.537.463.221.113.477.169.771.169.324,0,.598-.042.824-.125.225-.083.426-.184.603-.302l.44,1.456Z"/>
  <path class="cls-2" d="m73.086,44.381c0,.323.031.622.088.897.059.274.148.514.266.72.117.206.271.365.463.478.19.113.418.169.683.169.5,0,.872-.182,1.117-.544.245-.363.368-.936.368-1.72,0-.676-.113-1.222-.339-1.639-.225-.417-.607-.625-1.146-.625-.471,0-.838.177-1.102.53-.265.352-.398.931-.398,1.734m-1.969,0c0-1.245.303-2.203.911-2.874.608-.671,1.46-1.007,2.558-1.007.588,0,1.097.093,1.529.279.431.187.788.449,1.073.787.284.338.497.747.639,1.227.142.481.213,1.01.213,1.588,0,1.245-.301,2.203-.904,2.874-.602.671-1.453,1.007-2.55,1.007-.588,0-1.098-.094-1.529-.28s-.792-.448-1.081-.786c-.289-.338-.504-.747-.646-1.227s-.213-1.01-.213-1.588"/>
  <polygon class="cls-2" points="81.436 44.557 81.686 45.689 81.759 45.689 81.965 44.528 83.215 40.706 85.273 40.706 82.201 48.129 81.039 48.129 77.849 40.706 80.069 40.706 81.436 44.557"/>
  <path class="cls-2" d="m88.653,42.029c-.5,0-.869.15-1.11.449-.24.299-.385.698-.433,1.198h2.734c.039-.53-.042-.936-.243-1.22-.201-.285-.517-.427-.948-.427m2.734,5.395c-.294.235-.693.434-1.198.595-.505.162-1.041.243-1.609.243-1.186,0-2.054-.346-2.602-1.036-.549-.691-.823-1.639-.823-2.845,0-1.293.308-2.264.926-2.91.617-.647,1.484-.971,2.601-.971.373,0,.735.05,1.088.147.353.098.667.26.941.486.274.225.495.529.661.911.167.382.25.858.25,1.426,0,.206-.012.426-.036.661-.025.235-.062.481-.111.735h-4.409c.029.618.188,1.083.477,1.397s.758.47,1.405.47c.401,0,.762-.061,1.079-.184.319-.122.561-.247.728-.374l.632,1.249Z"/>
  <path class="cls-2" d="m96.739,42.499c-.304-.108-.578-.162-.823-.162-.343,0-.63.091-.86.272-.231.182-.385.414-.463.698v4.749h-1.911v-7.35h1.484l.221.97h.059c.166-.363.391-.642.676-.838.284-.196.618-.294,1-.294.254,0,.544.054.867.162l-.25,1.793Z"/>
  <polygon class="cls-2" points="108.999 42.72 109.219 40.677 109.131 40.677 108.499 42.323 106.308 46.16 105.662 46.16 103.354 42.309 102.707 40.677 102.633 40.677 102.928 42.705 102.928 48.056 101.016 48.056 101.016 37.766 102.854 37.766 105.603 42.47 106.088 43.646 106.147 43.646 106.588 42.441 109.19 37.766 111.013 37.766 111.013 48.056 108.999 48.056 108.999 42.72"/>
  <path class="cls-2" d="m115.583,42.029c-.5,0-.87.15-1.11.449s-.385.698-.433,1.198h2.734c.039-.53-.042-.936-.243-1.22-.201-.285-.517-.427-.948-.427m2.734,5.395c-.294.235-.693.434-1.198.595-.504.162-1.042.243-1.61.243-1.185,0-2.052-.346-2.602-1.036-.549-.691-.823-1.639-.823-2.845,0-1.293.309-2.264.927-2.91.617-.647,1.484-.971,2.601-.971.373,0,.735.05,1.088.147.353.098.666.26.941.486.274.225.494.529.661.911.167.382.251.858.251,1.426,0,.206-.012.426-.038.661-.024.235-.061.481-.11.735h-4.41c.03.618.189,1.083.478,1.397s.757.47,1.404.47c.401,0,.762-.061,1.08-.184.319-.122.561-.247.728-.374l.632,1.249Z"/>
  <path class="cls-2" d="m123.786,48.056v-3.998c0-.677-.064-1.157-.191-1.441s-.392-.426-.793-.426c-.334,0-.603.09-.809.271-.206.182-.362.415-.471.699v4.895h-1.911v-7.35h1.485l.22.97h.059c.225-.314.513-.588.86-.823.348-.235.796-.353,1.345-.353.471,0,.855.096,1.154.287.299.191.532.512.698.963.226-.382.515-.686.868-.912.353-.225.779-.338,1.279-.338.411,0,.762.049,1.051.147.289.098.524.267.705.507.181.241.316.561.404.963.089.402.133.912.133,1.529v4.41h-1.911v-4.131c0-.578-.061-1.011-.184-1.301-.122-.289-.394-.433-.816-.433-.343,0-.615.093-.816.279-.201.186-.35.441-.448.764v4.822h-1.911Z"/>
  <path class="cls-2" d="m134.428,42.147c-.353,0-.639.09-.859.271-.221.182-.39.444-.508.787v3.205c.157.078.326.132.508.161.18.03.374.044.58.044.519,0,.914-.188,1.183-.566.27-.377.405-.977.405-1.8,0-1.402-.436-2.102-1.309-2.102m-3.278-4.381h1.911v3.528h.059c.206-.235.47-.421.794-.559.323-.137.681-.205,1.073-.205.882,0,1.555.301,2.021.904.465.602.698,1.521.698,2.756,0,1.323-.326,2.327-.977,3.013-.652.687-1.546,1.029-2.682,1.029-.628,0-1.202-.051-1.721-.154s-.911-.218-1.176-.345v-9.967Z"/>
  <path class="cls-2" d="m141.881,42.029c-.5,0-.87.15-1.11.449s-.385.698-.433,1.198h2.734c.039-.53-.042-.936-.243-1.22-.201-.285-.517-.427-.948-.427m2.734,5.395c-.293.235-.693.434-1.198.595-.504.162-1.041.243-1.609.243-1.186,0-2.053-.346-2.602-1.036-.549-.691-.824-1.639-.824-2.845,0-1.293.309-2.264.927-2.91.617-.647,1.484-.971,2.601-.971.373,0,.735.05,1.088.147.353.098.667.26.941.486.274.225.495.529.661.911.167.382.251.858.251,1.426,0,.206-.012.426-.038.661-.024.235-.061.481-.11.735h-4.409c.029.618.188,1.083.477,1.397s.757.47,1.404.47c.402,0,.762-.061,1.08-.184.319-.122.561-.247.728-.374l.632,1.249Z"/>
  <path class="cls-2" d="m149.967,42.499c-.305-.108-.578-.162-.823-.162-.344,0-.63.091-.861.272-.23.182-.385.414-.463.698v4.749h-1.911v-7.35h1.485l.22.97h.059c.167-.363.392-.642.676-.838.285-.196.618-.294,1-.294.255,0,.544.054.867.162l-.249,1.793Z"/>
  <path class="cls-2" d="m153.817,46.027c0-.196-.083-.353-.25-.47-.166-.118-.372-.226-.616-.324-.246-.098-.516-.198-.81-.301-.294-.103-.564-.245-.808-.426-.245-.182-.451-.412-.617-.691-.167-.279-.25-.64-.25-1.081,0-.725.215-1.279.647-1.661.431-.382,1.053-.573,1.866-.573.559,0,1.064.059,1.515.176.45.118.803.25,1.058.397l-.427,1.382c-.225-.088-.509-.181-.852-.279s-.691-.147-1.044-.147c-.568,0-.852.22-.852.661,0,.176.083.319.25.427.166.108.372.208.617.301.245.093.515.194.809.301.294.108.563.248.808.419.245.172.451.395.617.669.167.275.25.627.25,1.059,0,.744-.238,1.33-.712,1.756-.476.427-1.189.64-2.14.64-.519,0-1.006-.067-1.461-.199-.457-.132-.827-.286-1.111-.463l.529-1.426c.225.128.524.252.897.375.372.123.754.184,1.146.184.285,0,.512-.054.684-.162.171-.108.257-.289.257-.544"/>
  <path class="cls-2" d="m161.182,48.056v-4.175c0-.597-.084-1.029-.25-1.294-.167-.264-.47-.396-.911-.396-.324,0-.62.11-.889.33-.27.221-.449.503-.537.846v4.689h-1.911v-10.29h1.911v3.763h.058c.236-.313.525-.563.868-.749.343-.187.78-.28,1.309-.28.372,0,.7.049.984.147.284.098.522.26.713.485.191.226.333.532.426.919.094.387.14.865.14,1.433v4.572h-1.911Z"/>
  <path class="cls-2" d="m164.563,40.706h1.911v7.35h-1.911v-7.35Zm-.279-2.073c0-.284.105-.527.316-.728.21-.2.502-.301.875-.301s.673.101.904.301c.23.201.345.444.345.728s-.115.522-.345.713c-.231.191-.532.287-.904.287s-.665-.096-.875-.287c-.211-.191-.316-.429-.316-.713"/>
  <path class="cls-2" d="m171.34,42.117c-.373,0-.664.093-.875.279-.211.187-.375.466-.492.838v3.058c.137.108.286.193.448.257s.375.096.639.096c.55,0,.961-.194,1.236-.581.274-.387.411-1.027.411-1.918,0-.647-.108-1.147-.323-1.5-.216-.352-.564-.529-1.044-.529m-3.278-1.411h1.396l.22.882h.059c.255-.372.557-.647.905-.823.347-.177.771-.265,1.271-.265.921,0,1.612.292,2.073.875.46.583.691,1.521.691,2.815,0,.627-.074,1.193-.221,1.698-.146.505-.365.933-.654,1.286s-.642.622-1.059.808c-.415.186-.893.28-1.433.28-.304,0-.553-.022-.749-.066-.197-.044-.392-.116-.588-.214v3.014h-1.911v-10.29Z"/>
  <path class="cls-2" d="m183.614,45.292c0-.314-.115-.569-.346-.764-.23-.197-.519-.375-.866-.537-.349-.162-.726-.328-1.132-.5-.407-.171-.785-.382-1.133-.632-.347-.25-.636-.561-.867-.934-.23-.372-.345-.847-.345-1.425,0-.5.083-.934.25-1.301.166-.368.404-.674.713-.919.308-.245.673-.426,1.095-.544.421-.117.891-.176,1.411-.176.598,0,1.162.051,1.691.154.529.103.965.252,1.308.448l-.632,1.691c-.216-.137-.539-.262-.971-.375-.431-.112-.896-.169-1.396-.169-.47,0-.83.093-1.08.279-.25.187-.375.436-.375.75,0,.294.115.539.345.735.231.196.52.377.867.544.348.167.726.338,1.132.515.407.176.784.389,1.133.639.347.25.636.558.867.926.23.367.345.825.345,1.374s-.091,1.022-.272,1.419c-.181.397-.436.728-.764.992-.329.265-.726.461-1.191.588-.466.127-.978.191-1.536.191-.735,0-1.382-.068-1.94-.206-.559-.137-.97-.274-1.235-.411l.647-1.72c.108.059.247.122.418.191.172.069.365.132.581.191.216.059.444.108.684.147.24.04.487.059.742.059.597,0,1.056-.1,1.374-.301.318-.201.478-.508.478-.919"/>
  <path class="cls-2" d="m188.245,44.381c0,.323.03.622.088.897.059.274.147.514.265.72.117.206.272.365.463.478.191.113.419.169.683.169.5,0,.872-.182,1.118-.544.244-.363.367-.936.367-1.72,0-.676-.112-1.222-.338-1.639-.226-.417-.608-.625-1.147-.625-.47,0-.838.177-1.102.53-.265.352-.397.931-.397,1.734m-1.97,0c0-1.245.303-2.203.911-2.874.608-.671,1.461-1.007,2.558-1.007.588,0,1.098.093,1.529.279.431.187.789.449,1.073.787.284.338.498.747.64,1.227.142.481.213,1.01.213,1.588,0,1.245-.301,2.203-.904,2.874-.603.671-1.453,1.007-2.551,1.007-.588,0-1.097-.094-1.528-.28-.432-.186-.792-.448-1.081-.786-.289-.338-.505-.747-.647-1.227s-.213-1.01-.213-1.588"/>
  <path class="cls-2" d="m196.198,45.586c0,.343.044.593.132.75.088.157.23.235.427.235.117,0,.233-.01.345-.03.112-.019.252-.063.419-.132l.205,1.5c-.157.078-.396.156-.72.235-.323.078-.656.117-.999.117-.559,0-.985-.13-1.279-.389-.294-.26-.441-.688-.441-1.287v-8.819h1.911v7.82Z"/>
  <path class="cls-2" d="m200.093,40.706v4.175c0,.598.071,1.029.213,1.293.142.265.419.397.831.397.362,0,.664-.108.904-.323.24-.216.419-.48.536-.794v-4.748h1.911v5.116c0,.402.02.796.059,1.183s.098.737.177,1.051h-1.441l-.338-1.088h-.058c-.226.373-.54.681-.942.926s-.877.368-1.425.368c-.373,0-.705-.049-1-.147-.294-.098-.539-.26-.735-.485-.196-.226-.345-.53-.448-.912-.104-.382-.155-.862-.155-1.44v-4.572h1.911Z"/>
  <path class="cls-2" d="m205.105,40.706h1.014v-1.382l1.911-.544v1.926h1.793v1.617h-1.793v2.822c0,.51.051.875.154,1.095.103.221.297.331.582.331.195,0,.364-.019.506-.059.142-.039.302-.097.478-.176l.338,1.47c-.265.128-.573.235-.926.324-.352.088-.71.132-1.073.132-.676,0-1.174-.174-1.492-.522-.319-.348-.478-.919-.478-1.713v-3.704h-1.014v-1.617Z"/>
  <path class="cls-2" d="m210.867,40.706h1.911v7.35h-1.911v-7.35Zm-.279-2.073c0-.284.105-.527.316-.728.211-.2.502-.301.874-.301.374,0,.674.101.905.301.231.201.345.444.345.728s-.114.522-.345.713c-.231.191-.531.287-.905.287-.372,0-.663-.096-.874-.287s-.316-.429-.316-.713"/>
  <path class="cls-2" d="m215.983,44.381c0,.323.03.622.088.897.059.274.147.514.265.72.117.206.272.365.463.478.191.113.419.169.683.169.5,0,.873-.182,1.118-.544.244-.363.367-.936.367-1.72,0-.676-.113-1.222-.338-1.639-.226-.417-.608-.625-1.147-.625-.47,0-.837.177-1.102.53-.264.352-.397.931-.397,1.734m-1.97,0c0-1.245.304-2.203.912-2.874.607-.671,1.46-1.007,2.557-1.007.589,0,1.098.093,1.529.279.431.187.789.449,1.074.787.284.338.497.747.639,1.227.142.481.213,1.01.213,1.588,0,1.245-.301,2.203-.904,2.874-.603.671-1.453,1.007-2.551,1.007-.587,0-1.097-.094-1.528-.28-.432-.186-.792-.448-1.081-.786-.289-.338-.505-.747-.646-1.227-.143-.48-.214-1.01-.214-1.588"/>
  <path class="cls-2" d="m226.464,48.056v-4.175c0-.597-.086-1.029-.257-1.294-.172-.264-.463-.396-.875-.396-.363,0-.669.105-.919.316-.249.21-.428.473-.536.786v4.763h-1.911v-7.35h1.514l.221.97h.058c.226-.314.525-.588.897-.823.372-.235.852-.353,1.44-.353.363,0,.687.049.971.147.284.098.524.26.72.485.196.226.343.532.441.919.098.387.147.865.147,1.433v4.572h-1.911Z"/>
  <path class="cls-2" d="m232.726,46.027c0-.196-.083-.353-.25-.47-.166-.118-.372-.226-.617-.324-.245-.098-.514-.198-.809-.301-.294-.103-.564-.245-.808-.426-.245-.182-.451-.412-.617-.691-.167-.279-.25-.64-.25-1.081,0-.725.215-1.279.647-1.661.431-.382,1.053-.573,1.866-.573.559,0,1.064.059,1.515.176.45.118.803.25,1.058.397l-.427,1.382c-.225-.088-.509-.181-.852-.279-.343-.098-.691-.147-1.044-.147-.568,0-.852.22-.852.661,0,.176.083.319.25.427.166.108.372.208.617.301.245.093.515.194.808.301.295.108.564.248.809.419.245.172.451.395.617.669.167.275.25.627.25,1.059,0,.744-.238,1.33-.713,1.756-.475.427-1.188.64-2.139.64-.519,0-1.007-.067-1.462-.199-.456-.132-.826-.286-1.11-.463l.529-1.426c.226.128.524.252.897.375.372.123.755.184,1.146.184.285,0,.512-.054.685-.162.171-.108.256-.289.256-.544"/>
  <path class="cls-1" d="m36.938,20.365c0,9.477-7.71,17.186-17.186,17.186S2.565,29.842,2.565,20.365c0-2.076.389-4.058,1.066-5.901l9.345,19.138,5.684-11.679-5.008-10.256H4.953C7.945,6.597,13.45,3.179,19.752,3.179c3.045,0,5.903.804,8.386,2.199l-14.409,29.608h2.032l4.79-8.403-3.433,8.403h1.76l4.79-8.403-3.433,8.403h1.76l4.79-8.402-3.433,8.402h1.764l10.419-21.408c.9,2.083,1.403,4.377,1.403,6.787M42.136.015l-11.38-.015-1.492,3.065c-2.824-1.559-6.065-2.452-9.512-2.452C8.86.613,0,9.474,0,20.365s8.86,19.752,19.752,19.752,19.751-8.861,19.751-19.752c0-3.52-.936-6.821-2.557-9.687L42.136.015Z"/>
</svg>