<?xml version="1.0" encoding="UTF-8"?>
<svg id="Layer_2" data-name="Layer 2" xmlns="http://www.w3.org/2000/svg" width="394" height="340" viewBox="0 0 394 340">
  <defs>
    <style>
      .cls-1 {
        fill: #666;
      }

      .cls-1, .cls-2, .cls-3, .cls-4, .cls-5 {
        stroke-width: 0px;
      }

      .cls-2 {
        fill: #ad0d0d;
      }

      .cls-3 {
        fill: #333;
      }

      .cls-4 {
        fill: #fff;
      }

      .cls-5 {
        fill: #4b864b;
      }
    </style>
  </defs>
  <g id="Layer_1-2" data-name="Layer 1">
    <g>
      <rect class="cls-4" width="394" height="340"/>
      <g>
        <polygon class="cls-3" points="124.876 96.018 124.876 92.309 123.125 95.54 113.473 112.299 112.148 112.299 101.911 95.488 100.479 92.736 100.479 95.964 100.479 120.944 96.342 120.944 96.342 83.819 99.631 83.819 111.245 102.806 112.996 105.572 114.745 102.7 125.83 83.819 129.278 83.819 129.278 120.944 124.876 120.944 124.876 96.018"/>
        <path class="cls-3" d="m144.924,97.502c-2.087,0-3.758.55-5.013,1.645-1.255,1.097-2.007,2.97-2.253,5.621h13.153c0-2.687-.513-4.569-1.538-5.649-1.026-1.077-2.475-1.617-4.349-1.617m9.121,21.321c-1.061.849-2.396,1.521-4.004,2.016-1.61.495-3.315.743-5.117.743-2.016,0-3.766-.328-5.252-.982-1.484-.654-2.704-1.591-3.659-2.811-.954-1.221-1.662-2.679-2.121-4.376s-.689-3.606-.689-5.728c0-4.525,1.008-7.973,3.022-10.341,2.017-2.369,4.898-3.555,8.646-3.555,1.201,0,2.405.133,3.606.398,1.202.265,2.281.769,3.236,1.512.954.743,1.731,1.795,2.333,3.155.601,1.362.902,3.157.902,5.384,0,1.167-.106,2.458-.319,3.872h-17.025c0,1.556.159,2.935.478,4.136.317,1.202.813,2.219,1.484,3.05.672.832,1.547,1.469,2.625,1.91,1.078.443,2.396.663,3.952.663,1.201,0,2.403-.213,3.607-.637,1.201-.424,2.102-.919,2.704-1.484l1.591,3.076Z"/>
        <path class="cls-3" d="m173.988,120.944v-15.009c0-1.414-.063-2.642-.185-3.687-.124-1.042-.363-1.918-.717-2.625-.354-.706-.858-1.238-1.51-1.591-.655-.352-1.512-.53-2.573-.53-1.627,0-2.979.496-4.057,1.486-1.078.99-1.829,2.227-2.253,3.711v18.245h-4.243v-26.518h2.97l.795,3.235h.213c.954-1.132,2.059-2.059,3.315-2.785,1.255-.725,2.89-1.087,4.906-1.087,1.697,0,3.084.328,4.163.982,1.078.654,1.918,1.795,2.518,3.42.813-1.379,1.936-2.457,3.368-3.235,1.432-.777,3.05-1.167,4.852-1.167,1.486,0,2.74.168,3.766.504,1.025.337,1.873.928,2.546,1.777.671.849,1.158,1.999,1.458,3.448.3,1.45.452,3.288.452,5.516v15.911h-4.244v-15.965c0-1.273-.061-2.377-.185-3.315-.124-.936-.371-1.714-.742-2.333-.372-.619-.885-1.078-1.538-1.38-.655-.299-1.513-.45-2.573-.45-1.769,0-3.147.496-4.137,1.486-.991.99-1.697,2.405-2.121,4.243v17.714h-4.243Z"/>
        <path class="cls-3" d="m209.256,97.503c-1.769,0-3.201.495-4.296,1.484-1.097.991-1.892,2.386-2.386,4.191v13.364c.671.39,1.484.681,2.44.876.954.195,1.944.291,2.97.291,2.403,0,4.321-.849,5.755-2.546,1.431-1.697,2.148-4.349,2.148-7.956,0-1.379-.124-2.67-.372-3.872-.247-1.201-.636-2.227-1.166-3.076s-1.211-1.52-2.043-2.016c-.83-.495-1.847-.742-3.048-.742m-10.926-13.684h4.243v13.206h.211c.813-1.025,1.849-1.821,3.103-2.386s2.625-.849,4.11-.849c3.429,0,6.003,1.097,7.718,3.288,1.714,2.192,2.572,5.586,2.572,10.183,0,4.632-1.132,8.15-3.394,10.553-2.264,2.405-5.445,3.607-9.547,3.607-1.98,0-3.774-.213-5.384-.637-1.608-.424-2.82-.883-3.632-1.379v-35.588h0Z"/>
        <path class="cls-3" d="m234.023,97.502c-2.086,0-3.757.55-5.012,1.645-1.255,1.097-2.007,2.97-2.253,5.621h13.153c0-2.687-.513-4.569-1.538-5.649-1.026-1.077-2.475-1.617-4.35-1.617m9.123,21.321c-1.061.849-2.396,1.521-4.004,2.016-1.61.495-3.315.743-5.119.743-2.014,0-3.765-.328-5.251-.982-1.484-.654-2.704-1.591-3.659-2.811-.954-1.221-1.662-2.679-2.121-4.376s-.689-3.606-.689-5.728c0-4.525,1.008-7.973,3.022-10.341,2.017-2.369,4.898-3.555,8.646-3.555,1.201,0,2.405.133,3.606.398,1.202.265,2.281.769,3.236,1.512.954.743,1.731,1.795,2.333,3.155.601,1.362.902,3.157.902,5.384,0,1.167-.106,2.458-.319,3.872h-17.025c0,1.556.159,2.935.478,4.136.317,1.202.813,2.219,1.484,3.05.672.832,1.547,1.469,2.625,1.91,1.078.443,2.396.663,3.952.663,1.201,0,2.403-.213,3.606-.637,1.202-.424,2.103-.919,2.705-1.484l1.591,3.076h0Z"/>
        <path class="cls-3" d="m260.064,98.51c-1.061-.352-2.068-.53-3.022-.53-1.521,0-2.723.416-3.607,1.247s-1.432,1.882-1.644,3.155v18.563h-4.243v-26.518h2.969l.796,3.235h.213c.67-1.201,1.475-2.129,2.413-2.785.936-.654,2.129-.98,3.58-.98,1.025,0,2.175.176,3.448.53l-.902,4.084h0Z"/>
        <polygon class="cls-2" points="286.052 120.944 262.556 120.944 262.556 83.819 269.823 83.819 269.823 114.474 286.052 114.474 286.052 120.944"/>
        <path class="cls-2" d="m298.09,99.199c-1.803,0-3.138.54-4.004,1.617-.867,1.08-1.388,2.52-1.564,4.322h9.864c.141-1.909-.15-3.376-.875-4.402-.725-1.025-1.866-1.538-3.422-1.538m9.865,19.465c-1.061.849-2.503,1.564-4.322,2.148-1.822.584-3.757.875-5.808.875-4.278,0-7.407-1.245-9.388-3.738-1.98-2.493-2.97-5.914-2.97-10.264,0-4.667,1.115-8.167,3.342-10.501,2.227-2.333,5.356-3.5,9.388-3.5,1.343,0,2.651.178,3.924.53,1.273.354,2.403.937,3.394,1.751.99.813,1.786,1.909,2.386,3.288.601,1.379.902,3.094.902,5.145,0,.742-.044,1.538-.132,2.386-.09.849-.222,1.732-.398,2.651h-15.911c.106,2.227.68,3.907,1.723,5.039s2.731,1.696,5.065,1.696c1.449,0,2.749-.219,3.898-.662,1.149-.441,2.023-.893,2.625-1.352l2.281,4.508h0Z"/>
        <path class="cls-2" d="m320.152,115.694c1.38,0,2.475-.309,3.288-.928s1.414-1.281,1.804-1.988v-3.448c-1.097-.107-2.149-.124-3.157-.054-1.008.072-1.901.231-2.679.478-.777.248-1.397.602-1.855,1.06-.461.461-.689,1.043-.689,1.751,0,.991.291,1.76.875,2.307.584.548,1.386.822,2.413.822m-8.751-19.73c1.414-.637,3.094-1.141,5.039-1.512,1.943-.371,3.976-.557,6.098-.557,1.839,0,3.377.222,4.615.663,1.238.443,2.218,1.07,2.944,1.884.723.813,1.238,1.786,1.538,2.916.3,1.132.45,2.405.45,3.819,0,1.556-.052,3.121-.159,4.693-.106,1.574-.167,3.121-.185,4.641-.018,1.521.026,2.997.133,4.429.106,1.431.371,2.785.795,4.056h-5.621l-1.114-3.659h-.265c-.709,1.097-1.689,2.042-2.944,2.838-1.256.795-2.873,1.193-4.854,1.193-1.238,0-2.351-.185-3.341-.557-.99-.371-1.838-.901-2.546-1.59-.708-.691-1.256-1.503-1.645-2.44s-.582-1.99-.582-3.157c0-1.625.362-2.996,1.086-4.11.725-1.114,1.768-2.016,3.129-2.705s2.988-1.167,4.88-1.432c1.892-.265,4.004-.345,6.338-.239.247-1.979.106-3.402-.424-4.269-.531-.866-1.715-1.299-3.553-1.299-1.38,0-2.838.141-4.376.424-1.538.283-2.803.654-3.792,1.114l-1.644-5.145h0Z"/>
        <path class="cls-2" d="m347.573,99.518c-1.343,0-2.396.337-3.155,1.008-.76.672-1.352,1.68-1.777,3.023v11.031c.495.389,1.034.698,1.619.928.582.23,1.351.345,2.307.345,1.979,0,3.463-.697,4.454-2.095.99-1.396,1.486-3.704,1.486-6.92,0-2.334-.389-4.137-1.167-5.41s-2.034-1.91-3.766-1.91m-11.826-5.091h5.039l.795,3.183h.211c.919-1.343,2.007-2.334,3.262-2.971,1.255-.636,2.785-.954,4.587-.954,3.324,0,5.816,1.052,7.478,3.157,1.662,2.103,2.493,5.488,2.493,10.155,0,2.264-.265,4.305-.796,6.127-.53,1.821-1.317,3.367-2.36,4.64-1.043,1.274-2.316,2.247-3.819,2.918s-3.226,1.008-5.171,1.008c-1.095,0-1.997-.08-2.705-.239s-1.414-.416-2.121-.769v10.872h-6.894v-37.125h0Z"/>
        <path class="cls-3" d="m99.748,133.455c-.282,0-.567.007-.854.018-.289.013-.503.033-.644.057v9.001c.051.012.138.022.258.029.123.007.253.013.394.018.14.007.275.013.402.02.129.007.225.009.289.009.742,0,1.36-.131,1.852-.393s.882-.611,1.17-1.046c.289-.435.49-.937.606-1.507.115-.569.172-1.154.172-1.756,0-.525-.051-1.052-.154-1.584-.102-.53-.291-1.008-.567-1.429-.274-.422-.649-.768-1.123-1.037-.473-.269-1.074-.402-1.803-.402m-4.127-2.15c.269-.038.573-.07.913-.095.338-.026.687-.046,1.046-.057.358-.013.706-.024,1.046-.029.338-.008.642-.01.911-.01,1.189,0,2.208.166,3.052.499.845.333,1.527.8,2.052,1.401.525.602.909,1.319,1.153,2.15.242.832.363,1.745.363,2.744,0,.909-.115,1.785-.345,2.629-.231.845-.614,1.593-1.151,2.245-.537.651-1.244,1.176-2.12,1.573-.877.397-1.961.595-3.253.595-.205,0-.476-.007-.816-.02s-.691-.029-1.055-.048c-.366-.018-.714-.038-1.046-.057-.334-.018-.582-.042-.749-.067v-13.453Z"/>
        <path class="cls-3" d="m107.807,135.143h2.495v9.595h-2.495v-9.595Zm-.364-2.706c0-.371.137-.688.411-.95.275-.261.657-.393,1.142-.393s.88.132,1.181.393c.3.262.449.58.449.95s-.149.681-.449.931c-.302.249-.695.375-1.181.375s-.867-.125-1.142-.375c-.274-.249-.411-.56-.411-.931"/>
        <path class="cls-3" d="m116.346,142.089c0-.256-.108-.461-.325-.614-.218-.154-.487-.295-.805-.423-.32-.128-.672-.258-1.056-.393-.385-.134-.736-.32-1.056-.556-.32-.238-.589-.538-.805-.902-.218-.364-.326-.836-.326-1.411,0-.946.281-1.67.845-2.168.563-.499,1.375-.748,2.436-.748.73,0,1.389.077,1.976.23.589.154,1.05.326,1.382.518l-.557,1.804c-.294-.115-.664-.236-1.112-.364-.448-.128-.902-.192-1.363-.192-.742,0-1.112.287-1.112.863,0,.23.108.416.326.557s.486.272.805.393.672.253,1.056.393c.384.141.735.324,1.055.547.32.225.589.516.805.873.218.359.326.819.326,1.382,0,.971-.311,1.736-.929,2.292-.621.557-1.552.836-2.792.836-.679,0-1.315-.087-1.91-.26s-1.078-.373-1.449-.604l.691-1.862c.294.167.684.329,1.171.49s.984.24,1.497.24c.371,0,.667-.07.892-.211.223-.141.336-.377.336-.71"/>
        <path class="cls-3" d="m126.882,144.143c-.384.281-.847.496-1.392.642-.543.148-1.103.221-1.679.221-.768,0-1.418-.121-1.948-.364-.531-.243-.962-.585-1.295-1.026-.332-.441-.573-.976-.719-1.603-.148-.627-.222-1.317-.222-2.072,0-1.625.366-2.876,1.095-3.752.73-.877,1.79-1.315,3.185-1.315.702,0,1.269.057,1.698.172.428.115.816.262,1.161.441l-.595,2.034c-.295-.14-.585-.249-.873-.326-.287-.076-.617-.115-.988-.115-.691,0-1.215.227-1.573.681s-.537,1.18-.537,2.179c0,.409.044.786.133,1.132.09.346.223.646.403.902.179.256.413.457.701.604.289.148.623.221,1.007.221.423,0,.781-.055,1.076-.163.294-.108.556-.24.787-.394l.574,1.901Z"/>
        <path class="cls-3" d="m129.799,139.94c0,.422.04.812.115,1.171.077.358.193.671.347.94.153.269.354.476.604.624.248.148.546.221.892.221.653,0,1.138-.238,1.458-.71.32-.474.48-1.222.48-2.245,0-.882-.148-1.595-.443-2.14-.294-.544-.792-.816-1.496-.816-.615,0-1.094.231-1.439.692-.346.46-.52,1.215-.52,2.264m-2.57,0c0-1.625.396-2.876,1.189-3.752s1.906-1.315,3.339-1.315c.768,0,1.432.121,1.996.364.563.244,1.029.586,1.401,1.027.371.441.649.975.834,1.602.185.628.278,1.319.278,2.073,0,1.625-.393,2.876-1.18,3.752-.786.876-1.897,1.315-3.329,1.315-.768,0-1.433-.123-1.996-.366s-1.034-.585-1.411-1.026c-.377-.441-.658-.975-.843-1.602s-.278-1.319-.278-2.073"/>
        <polygon class="cls-3" points="140.7 140.17 141.026 141.648 141.121 141.648 141.39 140.132 143.022 135.143 145.709 135.143 141.698 144.833 140.181 144.833 136.017 135.143 138.915 135.143 140.7 140.17"/>
        <path class="cls-3" d="m150.121,136.87c-.653,0-1.134.196-1.449.586-.313.39-.503.911-.565,1.564h3.569c.051-.692-.055-1.222-.317-1.593-.262-.372-.675-.557-1.238-.557m3.569,7.043c-.384.307-.905.567-1.564.777-.659.211-1.359.317-2.101.317-1.548,0-2.681-.452-3.397-1.352-.717-.902-1.074-2.14-1.074-3.714,0-1.688.402-2.956,1.209-3.799.805-.845,1.937-1.268,3.396-1.268.487,0,.96.065,1.42.192.461.128.871.339,1.228.634.358.294.646.691.863,1.189.218.499.326,1.12.326,1.862,0,.269-.016.556-.047.863-.033.307-.081.628-.145.96h-5.756c.038.807.245,1.414.623,1.824s.99.614,1.834.614c.523,0,.995-.08,1.409-.24.416-.159.732-.322.95-.488,0,0,.825,1.631.825,1.631Z"/>
        <path class="cls-3" d="m160.677,137.483c-.397-.141-.755-.211-1.074-.211-.448,0-.822.119-1.123.355-.302.238-.503.54-.604.911v6.2h-2.495v-9.595h1.937l.289,1.266h.077c.217-.474.51-.838.883-1.094.371-.256.807-.384,1.305-.384.332,0,.71.07,1.132.211,0,0-.326,2.341-.326,2.341Z"/>
        <polygon class="cls-3" points="176.682 137.772 176.969 135.105 176.855 135.105 176.03 137.254 173.169 142.263 172.326 142.263 169.313 137.235 168.468 135.105 168.372 135.105 168.757 137.752 168.757 144.738 166.261 144.738 166.261 131.305 168.66 131.305 172.249 137.445 172.882 138.981 172.959 138.981 173.535 137.408 176.932 131.305 179.312 131.305 179.312 144.738 176.682 144.738 176.682 137.772"/>
        <path class="cls-3" d="m185.278,136.87c-.653,0-1.136.196-1.449.586s-.503.911-.565,1.564h3.569c.051-.692-.055-1.222-.317-1.593-.262-.372-.675-.557-1.238-.557m3.569,7.043c-.384.307-.905.567-1.564.777-.658.211-1.36.317-2.102.317-1.547,0-2.679-.452-3.397-1.352-.717-.902-1.074-2.14-1.074-3.714,0-1.688.403-2.956,1.21-3.799.805-.845,1.937-1.268,3.396-1.268.487,0,.96.065,1.42.192.461.128.869.339,1.228.634.358.294.645.691.863,1.189s.328,1.12.328,1.862c0,.269-.016.556-.05.863-.031.307-.08.628-.144.96h-5.757c.039.807.247,1.414.624,1.824s.988.614,1.833.614c.523,0,.995-.08,1.41-.24.416-.159.732-.322.95-.488l.825,1.631Z"/>
        <path class="cls-3" d="m195.986,144.738v-5.219c0-.884-.084-1.51-.249-1.881s-.512-.556-1.035-.556c-.436,0-.787.117-1.056.354-.269.238-.473.542-.615.913v6.39h-2.495v-9.595h1.939l.287,1.266h.077c.294-.41.67-.768,1.123-1.074.454-.307,1.039-.461,1.756-.461.615,0,1.116.125,1.507.375.39.249.695.668.911,1.257.295-.499.672-.896,1.133-1.191.461-.294,1.017-.441,1.67-.441.537,0,.995.064,1.372.192s.684.349.92.662c.236.315.413.732.527,1.257.116.525.174,1.191.174,1.996v5.757h-2.495v-5.393c0-.755-.08-1.32-.24-1.698-.159-.377-.514-.565-1.065-.565-.448,0-.803.121-1.065.364-.262.243-.457.576-.585.997v6.295h-2.495,0Z"/>
        <path class="cls-3" d="m209.879,137.024c-.461,0-.834.117-1.121.354-.289.238-.509.58-.663,1.027v4.184c.205.102.426.172.663.21.235.039.488.057.757.057.678,0,1.193-.245,1.544-.739.352-.492.529-1.275.529-2.35,0-1.83-.569-2.744-1.709-2.744m-4.279-5.719h2.495v4.606h.077c.269-.307.614-.55,1.037-.73.422-.179.889-.268,1.401-.268,1.151,0,2.03.393,2.638,1.18.607.786.911,1.986.911,3.598,0,1.727-.426,3.038-1.275,3.933-.851.897-2.018,1.343-3.501,1.343-.82,0-1.569-.067-2.247-.201s-1.189-.285-1.535-.45v-13.012Z"/>
        <path class="cls-3" d="m219.609,136.87c-.653,0-1.136.196-1.449.586s-.503.911-.565,1.564h3.569c.051-.692-.055-1.222-.317-1.593-.262-.372-.675-.557-1.238-.557m3.569,7.043c-.383.307-.905.567-1.564.777-.658.211-1.359.317-2.1.317-1.548,0-2.68-.452-3.397-1.352-.717-.902-1.076-2.14-1.076-3.714,0-1.688.403-2.956,1.21-3.799.805-.845,1.937-1.268,3.396-1.268.487,0,.96.065,1.42.192.461.128.871.339,1.228.634.358.294.646.691.863,1.189.218.499.328,1.12.328,1.862,0,.269-.016.556-.05.863-.031.307-.08.628-.144.96h-5.756c.038.807.245,1.414.623,1.824s.988.614,1.833.614c.525,0,.995-.08,1.41-.24.416-.159.732-.322.95-.488l.825,1.631h0Z"/>
        <path class="cls-3" d="m230.165,137.483c-.398-.141-.755-.211-1.074-.211-.449,0-.822.119-1.124.355-.3.238-.503.54-.604.911v6.2h-2.495v-9.595h1.939l.287,1.266h.077c.218-.474.512-.838.882-1.094.372-.256.807-.384,1.305-.384.333,0,.71.07,1.132.211l-.325,2.341h0Z"/>
        <path class="cls-3" d="m235.191,142.089c0-.256-.108-.461-.326-.614-.217-.154-.486-.295-.804-.423-.321-.128-.674-.258-1.057-.393-.384-.134-.736-.32-1.055-.556-.32-.238-.589-.538-.805-.902-.218-.364-.326-.836-.326-1.411,0-.946.281-1.67.845-2.168.563-.499,1.375-.748,2.436-.748.73,0,1.389.077,1.978.23.587.154,1.048.326,1.381.518l-.557,1.804c-.294-.115-.664-.236-1.112-.364s-.902-.192-1.363-.192c-.741,0-1.112.287-1.112.863,0,.23.108.416.326.557.217.141.486.272.805.393.32.121.672.253,1.056.393.384.141.735.324,1.055.547.32.225.589.516.805.873.218.359.326.819.326,1.382,0,.971-.311,1.736-.93,2.292-.621.557-1.552.836-2.794.836-.678,0-1.313-.087-1.907-.26-.597-.172-1.08-.373-1.45-.604l.691-1.862c.294.167.684.329,1.171.49.486.161.984.24,1.496.24.372,0,.668-.07.893-.211.223-.141.336-.377.336-.71"/>
        <path class="cls-3" d="m244.806,144.738v-5.45c0-.779-.11-1.343-.326-1.689-.218-.345-.614-.517-1.189-.517-.423,0-.809.144-1.161.431-.352.289-.586.657-.701,1.104v6.121h-2.495v-13.433h2.495v4.912h.076c.308-.409.685-.735,1.133-.978.448-.244,1.018-.366,1.709-.366.486,0,.914.064,1.285.192s.681.339.931.633c.249.295.435.695.556,1.2.123.505.183,1.129.183,1.871v5.969h-2.495,0Z"/>
        <path class="cls-3" d="m249.22,135.143h2.495v9.595h-2.495v-9.595Zm-.364-2.706c0-.371.137-.688.413-.95.274-.261.655-.393,1.142-.393s.879.132,1.18.393c.3.262.45.58.45.95s-.15.681-.45.931c-.302.249-.695.375-1.18.375s-.868-.125-1.142-.375c-.275-.249-.413-.56-.413-.931"/>
        <path class="cls-3" d="m258.067,136.985c-.487,0-.867.121-1.142.364-.275.244-.49.608-.642,1.094v3.992c.179.141.373.252.585.336s.49.125.834.125c.718,0,1.255-.253,1.614-.758.358-.505.537-1.341.537-2.504,0-.845-.141-1.497-.422-1.958-.282-.46-.736-.691-1.363-.691m-4.279-1.842h1.822l.287,1.151h.077c.333-.486.727-.845,1.181-1.074.453-.231,1.007-.346,1.659-.346,1.202,0,2.104.381,2.706,1.142.601.761.902,1.986.902,3.675,0,.819-.097,1.557-.289,2.217-.191.659-.477,1.218-.854,1.679s-.838.812-1.383,1.055c-.542.243-1.166.366-1.871.366-.397,0-.722-.029-.978-.086-.257-.057-.512-.151-.768-.279v3.935h-2.495s0-13.433,0-13.433Z"/>
        <path class="cls-3" d="m274.09,141.129c0-.41-.15-.743-.452-.997-.3-.257-.678-.49-1.131-.701-.456-.211-.948-.428-1.478-.653-.531-.223-1.025-.499-1.479-.825-.453-.326-.83-.732-1.132-1.219-.3-.486-.45-1.106-.45-1.86,0-.653.108-1.219.326-1.698.217-.48.527-.88.931-1.2.402-.32.879-.556,1.429-.71.55-.153,1.163-.23,1.842-.23.781,0,1.517.067,2.208.201.691.134,1.26.329,1.708.585l-.825,2.208c-.282-.179-.704-.342-1.268-.49-.563-.146-1.17-.221-1.822-.221-.614,0-1.084.121-1.41.364-.326.244-.49.569-.49.979,0,.384.15.704.45.96.302.256.679.492,1.132.71.454.218.948.441,1.478.672.531.23,1.023.508,1.479.834.453.326.83.728,1.132,1.209.3.479.45,1.077.45,1.794s-.119,1.334-.355,1.852-.569.95-.997,1.295c-.429.346-.948.602-1.555.768-.608.166-1.277.249-2.005.249-.96,0-1.804-.089-2.533-.269-.73-.179-1.266-.358-1.612-.537l.845-2.245c.141.077.322.159.546.249.225.09.477.172.758.249.282.077.58.141.893.192.313.052.636.077.969.077.779,0,1.379-.131,1.794-.393s.624-.663.624-1.2"/>
        <path class="cls-3" d="m280.136,139.94c0,.422.039.812.115,1.171.077.358.192.671.346.94.153.269.355.476.604.624s.547.221.892.221c.653,0,1.138-.238,1.46-.71.319-.474.479-1.222.479-2.245,0-.882-.146-1.595-.441-2.14s-.794-.816-1.497-.816c-.614,0-1.094.231-1.439.692-.346.46-.518,1.215-.518,2.264m-2.572,0c0-1.625.396-2.876,1.189-3.752s1.907-1.315,3.339-1.315c.768,0,1.433.121,1.996.364.563.244,1.03.586,1.401,1.027.371.441.65.975.836,1.602.185.628.278,1.319.278,2.073,0,1.625-.393,2.876-1.18,3.752-.787.876-1.897,1.315-3.33,1.315-.768,0-1.432-.123-1.995-.366-.564-.243-1.034-.585-1.411-1.026-.377-.441-.659-.975-.845-1.602s-.278-1.319-.278-2.073"/>
        <path class="cls-3" d="m290.518,141.513c0,.448.057.774.172.979s.3.307.557.307c.153,0,.304-.013.45-.039.146-.025.329-.082.547-.172l.268,1.958c-.205.102-.517.204-.94.307-.422.102-.856.153-1.304.153-.73,0-1.286-.17-1.67-.508-.384-.339-.576-.898-.576-1.68v-11.513h2.495v10.209h0Z"/>
        <path class="cls-3" d="m295.603,135.143v5.45c0,.781.093,1.343.278,1.688.185.346.547.518,1.085.518.473,0,.867-.141,1.18-.422.313-.282.547-.627.7-1.037v-6.198h2.495v6.679c0,.525.026,1.039.077,1.544s.128.962.231,1.372h-1.881l-.441-1.42h-.076c-.295.487-.705.889-1.23,1.209s-1.145.48-1.86.48c-.487,0-.92-.064-1.305-.192-.384-.128-.704-.339-.96-.633-.256-.295-.45-.692-.585-1.191-.136-.499-.202-1.125-.202-1.88v-5.969s2.495,0,2.495,0Z"/>
        <path class="cls-3" d="m302.146,135.143h1.324v-1.804l2.495-.71v2.514h2.341v2.111h-2.341v3.684c0,.666.067,1.142.201,1.429.134.289.388.432.76.432.255,0,.475-.025.661-.077.185-.051.394-.127.624-.23l.441,1.919c-.346.167-.748.307-1.209.423-.46.115-.927.172-1.401.172-.882,0-1.533-.227-1.948-.681-.416-.454-.624-1.2-.624-2.236v-4.835h-1.324v-2.111Z"/>
        <path class="cls-3" d="m309.668,135.143h2.495v9.595h-2.495v-9.595Zm-.364-2.706c0-.371.137-.688.413-.95.275-.261.655-.393,1.141-.393.488,0,.88.132,1.181.393.302.262.45.58.45.95s-.149.681-.45.931-.693.375-1.181.375c-.486,0-.866-.125-1.141-.375s-.413-.56-.413-.931"/>
        <path class="cls-3" d="m316.347,139.94c0,.422.039.812.115,1.171.077.358.192.671.346.94.153.269.355.476.604.624s.547.221.892.221c.653,0,1.14-.238,1.46-.71.319-.474.479-1.222.479-2.245,0-.882-.148-1.595-.441-2.14-.295-.544-.794-.816-1.497-.816-.614,0-1.093.231-1.439.692-.345.46-.518,1.215-.518,2.264m-2.572,0c0-1.625.397-2.876,1.191-3.752.792-.876,1.906-1.315,3.338-1.315.769,0,1.433.121,1.996.364.563.244,1.03.586,1.402,1.027.371.441.649.975.834,1.602.185.628.278,1.319.278,2.073,0,1.625-.393,2.876-1.18,3.752-.787.876-1.897,1.315-3.33,1.315-.766,0-1.432-.123-1.995-.366-.564-.243-1.034-.585-1.411-1.026-.377-.441-.659-.975-.843-1.602-.187-.627-.279-1.319-.279-2.073"/>
        <path class="cls-3" d="m330.03,144.738v-5.45c0-.779-.112-1.343-.336-1.689-.225-.345-.604-.517-1.142-.517-.474,0-.873.137-1.2.413-.325.274-.559.617-.7,1.026v6.218h-2.495v-9.595h1.976l.289,1.266h.076c.295-.41.685-.768,1.171-1.074.486-.307,1.112-.461,1.88-.461.474,0,.897.064,1.268.192s.684.339.94.633c.256.295.448.695.576,1.2.128.505.192,1.129.192,1.871v5.969h-2.495Z"/>
        <path class="cls-3" d="m338.204,142.089c0-.256-.108-.461-.326-.614-.217-.154-.486-.295-.805-.423-.32-.128-.671-.258-1.056-.393-.384-.134-.736-.32-1.055-.556-.32-.238-.589-.538-.805-.902-.218-.364-.326-.836-.326-1.411,0-.946.281-1.67.845-2.168.563-.499,1.375-.748,2.436-.748.73,0,1.389.077,1.978.23.587.154,1.048.326,1.381.518l-.557,1.804c-.294-.115-.664-.236-1.112-.364s-.902-.192-1.363-.192c-.741,0-1.112.287-1.112.863,0,.23.108.416.326.557.217.141.486.272.805.393.32.121.672.253,1.055.393.385.141.736.324,1.056.547.32.225.589.516.805.873.218.359.326.819.326,1.382,0,.971-.311,1.736-.931,2.292-.62.557-1.551.836-2.792.836-.678,0-1.315-.087-1.909-.26-.595-.172-1.078-.373-1.449-.604l.691-1.862c.295.167.684.329,1.171.49.486.161.986.24,1.496.24.372,0,.668-.07.894-.211.223-.141.334-.377.334-.71"/>
        <path class="cls-2" d="m82.609,108.588c0,12.372-10.065,22.436-22.436,22.436s-22.437-10.064-22.437-22.436c0-2.71.508-5.298,1.392-7.704l12.2,24.984,7.42-15.247-6.538-13.389h-11.356c3.906-6.619,11.093-11.081,19.32-11.081,3.975,0,7.706,1.05,10.948,2.871l-18.811,38.652h2.653l6.253-10.97-4.482,10.97h2.298l6.253-10.97-4.482,10.97h2.298l6.253-10.969-4.482,10.969h2.303l13.602-27.948c1.175,2.719,1.832,5.714,1.832,8.86m6.786-26.566l-14.856-.02-1.948,4.001c-3.687-2.035-7.918-3.201-12.418-3.201-14.219,0-25.786,11.568-25.786,25.786s11.566,25.786,25.786,25.786,25.784-11.568,25.784-25.786c0-4.595-1.222-8.905-3.338-12.646l6.775-13.92Z"/>
      </g>
      <g>
        <path class="cls-5" d="m103.001,199.439c0,8.372-6.81,15.183-15.182,15.183s-15.183-6.811-15.183-15.183c0-1.834.344-3.585.942-5.213l8.255,16.906,5.022-10.317-4.424-9.059h-7.684c2.643-4.479,7.505-7.499,13.072-7.499,2.691,0,5.215.71,7.409,1.943l-12.729,26.155h1.796l4.23-7.423-3.033,7.423h1.556l4.231-7.423-3.033,7.423h1.555l4.23-7.422-3.033,7.422h1.558l9.205-18.911c.794,1.84,1.238,3.867,1.238,5.995m4.592-17.977l-10.053-.013-1.317,2.708c-2.495-1.377-5.358-2.166-8.404-2.166-9.622,0-17.448,7.828-17.448,17.448s7.827,17.448,17.448,17.448,17.448-7.828,17.448-17.448c0-3.109-.828-6.026-2.26-8.556l4.585-9.42Z"/>
        <path class="cls-1" d="m110.802,184.883h3.044l3.592,12.11c.822,2.668,1.335,4.789,2.19,7.423h.137c.821-2.634,1.368-4.755,2.155-7.423l3.591-12.11h2.908l-7.116,22.44h-3.318l-7.184-22.44Z"/>
        <path class="cls-1" d="m129.175,190.699h2.805v16.625h-2.805v-16.625Zm-.334-5.234c0-1.094.776-1.813,1.77-1.813s1.77.718,1.77,1.813c0,1.06-.776,1.813-1.77,1.813s-1.77-.753-1.77-1.813"/>
        <path class="cls-1" d="m145.938,197.677c0-3.352-1.505-5.166-4.105-5.166-2.327,0-4.448,1.882-4.79,5.166h8.895Zm-11.631,1.368c0-5.439,3.661-8.758,7.457-8.758,4.242,0,6.637,3.045,6.637,7.8,0,.581-.034,1.197-.102,1.608h-11.221c.206,3.523,2.36,5.781,5.542,5.781,1.573,0,2.907-.513,4.139-1.299l.992,1.847c-1.436.923-3.216,1.71-5.473,1.71-4.447,0-7.971-3.25-7.971-8.689"/>
        <path class="cls-1" d="m151.276,202.193v-9.202h-2.463v-2.121l2.6-.17.342-4.653h2.36v4.653h4.481v2.291h-4.481v9.237c0,2.052.65,3.216,2.566,3.216.581,0,1.334-.239,1.881-.444l.548,2.12c-.924.308-2.052.616-3.079.616-3.557,0-4.755-2.257-4.755-5.541"/>
        <path class="cls-1" d="m160.309,182.967h2.805v6.637l-.102,3.42c1.573-1.505,3.25-2.737,5.542-2.737,3.488,0,5.062,2.258,5.062,6.5v10.536h-2.805v-10.16c0-3.113-.958-4.448-3.147-4.448-1.711,0-2.874.89-4.55,2.566v12.041h-2.805v-24.356Z"/>
        <path class="cls-5" d="m180.427,196.309c0-7.389,4.892-11.699,10.536-11.699,2.874,0,5.2,1.368,6.705,2.908l-2.668,3.216c-1.129-1.026-2.326-1.779-3.934-1.779-3.045,0-5.473,2.703-5.473,7.184,0,4.585,2.121,7.253,5.404,7.253,1.814,0,3.25-.923,4.344-2.087l2.668,3.147c-1.846,2.155-4.309,3.284-7.217,3.284-5.645,0-10.365-3.934-10.365-11.426"/>
        <path class="cls-5" d="m208.651,198.84c0-2.942-1.06-4.823-3.112-4.823-2.087,0-3.114,1.882-3.114,4.823s1.026,4.823,3.114,4.823c2.052,0,3.112-1.882,3.112-4.823m-11.391,0c0-5.645,3.968-8.894,8.279-8.894,4.276,0,8.244,3.249,8.244,8.894s-3.968,8.894-8.244,8.894c-4.311,0-8.279-3.249-8.279-8.894"/>
        <path class="cls-5" d="m215.189,190.356h4.105l.342,2.155h.137c1.436-1.368,3.147-2.566,5.439-2.566,3.695,0,5.269,2.6,5.269,6.842v10.536h-5.029v-9.886c0-2.463-.65-3.216-2.087-3.216-1.266,0-2.052.581-3.147,1.641v11.46h-5.029v-16.967Z"/>
        <path class="cls-5" d="m231.201,205.374l2.258-3.147c1.539,1.163,2.942,1.779,4.379,1.779,1.505,0,2.155-.548,2.155-1.436,0-1.129-1.711-1.642-3.456-2.327-2.052-.786-4.481-2.189-4.481-4.995,0-3.147,2.565-5.302,6.5-5.302,2.6,0,4.516,1.061,5.987,2.155l-2.258,3.011c-1.231-.89-2.395-1.437-3.592-1.437-1.3,0-1.916.479-1.916,1.334,0,1.095,1.573,1.505,3.318,2.155,2.155.787,4.584,1.984,4.584,5.097,0,3.079-2.428,5.473-6.978,5.473-2.223,0-4.789-.958-6.5-2.36"/>
        <path class="cls-5" d="m245.639,200.892v-10.536h5.029v9.886c0,2.429.649,3.216,2.12,3.216,1.266,0,2.019-.547,3.011-1.881v-11.221h5.029v16.967h-4.105l-.376-2.36h-.102c-1.437,1.711-3.011,2.771-5.336,2.771-3.695,0-5.268-2.6-5.268-6.842"/>
        <path class="cls-5" d="m262.507,202.056v-18.712h5.028v18.917c0,1.06.479,1.402.89,1.402.206,0,.342,0,.616-.068l.616,3.728c-.547.24-1.402.411-2.532.411-3.454,0-4.617-2.258-4.617-5.678"/>
        <path class="cls-5" d="m270.923,201.166v-6.876h-2.326v-3.729l2.6-.205.581-4.516h4.174v4.516h4.071v3.934h-4.071v6.807c0,1.916.855,2.703,2.189,2.703.548,0,1.163-.171,1.608-.343l.786,3.661c-.889.274-2.12.616-3.762.616-4.208,0-5.85-2.634-5.85-6.568"/>
        <path class="cls-5" d="m281.29,190.357h5.029v16.967h-5.029v-16.967Zm-.411-5.132c0-1.54,1.231-2.6,2.908-2.6,1.71,0,2.907,1.06,2.907,2.6s-1.197,2.634-2.907,2.634c-1.677,0-2.908-1.095-2.908-2.634"/>
        <path class="cls-5" d="m288.68,190.356h4.104l.343,2.155h.137c1.436-1.368,3.147-2.566,5.439-2.566,3.694,0,5.269,2.6,5.269,6.842v10.536h-5.029v-9.886c0-2.463-.65-3.216-2.087-3.216-1.266,0-2.052.581-3.147,1.641v11.46h-5.028v-16.967Z"/>
        <path class="cls-5" d="m314.954,196.069c0-1.779-.992-2.737-2.327-2.737s-2.326.923-2.326,2.737c0,1.882.993,2.839,2.326,2.839s2.327-.958,2.327-2.839m1.984,13.238c0-1.06-.924-1.334-2.6-1.334h-1.745c-1.163,0-1.847-.068-2.395-.205-.616.547-.923,1.06-.923,1.676,0,1.266,1.505,1.951,3.763,1.951s3.899-.924,3.899-2.087m-11.802.924c0-1.403.855-2.532,2.429-3.42v-.137c-.89-.582-1.574-1.472-1.574-2.874,0-1.231.821-2.429,1.916-3.182v-.136c-1.197-.822-2.292-2.429-2.292-4.413,0-4.071,3.352-6.124,7.012-6.124.958,0,1.882.137,2.634.411h6.192v3.66h-2.702c.308.513.548,1.335.548,2.224,0,3.899-2.942,5.712-6.671,5.712-.615,0-1.299-.102-2.052-.342-.444.376-.616.685-.616,1.266,0,.855.685,1.266,2.566,1.266h2.736c4.174,0,6.466,1.266,6.466,4.31,0,3.524-3.661,6.089-9.476,6.089-3.968,0-7.116-1.299-7.116-4.31"/>
        <path class="cls-1" d="m115.109,215.053c.182-.026.387-.048.617-.066s.465-.029.708-.038c.242-.009.478-.016.707-.021.229-.003.435-.005.617-.005.805,0,1.493.112,2.064.336.572.226,1.034.542,1.39.949.355.407.614.89.779,1.454.165.562.247,1.18.247,1.856,0,.614-.078,1.208-.234,1.779-.155.571-.415,1.078-.779,1.52-.363.44-.842.795-1.435,1.065-.594.267-1.327.402-2.202.402-.138,0-.323-.005-.551-.012-.23-.01-.468-.021-.714-.033-.247-.014-.483-.026-.708-.04-.225-.012-.394-.028-.506-.045v-9.103Zm2.792,1.454c-.191,0-.384.003-.578.012-.195.009-.34.022-.436.04v6.09c.035.009.093.016.176.019.082.005.171.009.266.014.096.003.186.009.273.012.087.005.152.007.195.007.502,0,.92-.09,1.253-.266.333-.178.597-.414.792-.709.195-.293.331-.633.409-1.018.078-.386.117-.782.117-1.189,0-.355-.035-.713-.104-1.071s-.197-.682-.383-.968c-.186-.285-.439-.519-.76-.7-.32-.183-.726-.273-1.22-.273Zm5.467-.688c0-.252.092-.466.279-.644s.443-.266.773-.266.595.088.799.266c.203.178.305.392.305.644,0,.25-.102.461-.305.63-.204.169-.47.254-.799.254s-.587-.085-.773-.254-.279-.38-.279-.63Zm.247,1.831h1.687v6.492h-1.687v-6.492Zm6.038,4.702c0-.174-.073-.312-.221-.416s-.329-.2-.545-.286-.455-.174-.714-.266-.498-.216-.714-.376-.399-.364-.545-.611c-.148-.247-.221-.566-.221-.954,0-.642.191-1.13.571-1.468.381-.336.931-.506,1.649-.506.493,0,.939.052,1.337.155.399.104.71.221.935.35l-.376,1.222c-.199-.078-.45-.16-.753-.247-.304-.086-.611-.131-.922-.131-.502,0-.753.195-.753.585,0,.155.073.281.221.376.147.097.329.185.545.267.217.081.455.171.714.266s.498.219.714.369c.216.152.398.35.545.592.147.242.221.554.221.935,0,.657-.21,1.175-.63,1.551-.42.376-1.05.566-1.889.566-.459,0-.89-.059-1.292-.176-.403-.117-.73-.254-.981-.409l.468-1.26c.199.112.463.223.792.331.33.109.667.162,1.014.162.251,0,.452-.048.604-.143.151-.095.227-.255.227-.48Zm7.389,1.389c-.26.19-.574.335-.942.435-.367.1-.746.15-1.136.15-.519,0-.958-.083-1.318-.247-.359-.166-.651-.397-.876-.695s-.387-.661-.487-1.084c-.1-.424-.149-.892-.149-1.403,0-1.101.247-1.946.74-2.54.493-.592,1.212-.889,2.156-.889.475,0,.858.038,1.149.116.29.079.551.178.785.3l-.402,1.375c-.199-.095-.396-.169-.591-.221s-.418-.078-.669-.078c-.468,0-.823.154-1.065.461-.242.309-.363.799-.363,1.475,0,.276.03.531.091.766.06.233.152.437.273.609.122.174.28.311.474.411.195.098.422.148.682.148.286,0,.528-.036.727-.11.199-.072.376-.162.532-.266l.39,1.285Zm.56-2.843c0-1.101.268-1.946.805-2.54.537-.592,1.29-.889,2.259-.889.519,0,.97.081,1.351.247.38.164.696.395.948.694.25.298.439.661.564,1.085.126.424.189.892.189,1.403,0,1.099-.267,1.944-.799,2.538s-1.284.89-2.253.89c-.519,0-.97-.083-1.35-.247-.381-.166-.7-.397-.955-.695s-.446-.661-.571-1.084c-.126-.424-.188-.892-.188-1.403Zm1.74,0c0,.285.026.549.078.792.052.242.13.454.234.637.104.181.241.323.409.421.169.1.37.15.604.15.442,0,.77-.16.987-.481.217-.319.325-.826.325-1.518,0-.599-.1-1.08-.299-1.449-.199-.367-.537-.55-1.013-.55-.415,0-.74.155-.974.468-.234.311-.35.821-.35,1.532Zm7.791.155l.221.999h.065l.182-1.025,1.104-3.377h1.818l-2.714,6.558h-1.026l-2.818-6.558h1.961l1.208,3.402Zm9.142,2.533c-.26.207-.612.383-1.058.525-.446.143-.92.216-1.422.216-1.047,0-1.813-.305-2.298-.916-.485-.611-.727-1.448-.727-2.512,0-1.144.273-2,.818-2.572.545-.571,1.311-.856,2.298-.856.33,0,.65.043.961.129.312.086.589.229.832.428.242.2.437.468.584.806s.221.757.221,1.26c0,.181-.011.376-.033.585-.022.207-.053.424-.097.649h-3.883c.026.545.166.958.42,1.234.254.278.667.416,1.236.416.354,0,.67-.053.951-.162s.494-.219.641-.331l.556,1.104Zm-2.409-4.767c-.439,0-.764.133-.976.397-.21.264-.337.616-.38,1.058h2.403c.035-.468-.037-.826-.213-1.077-.177-.252-.455-.378-.833-.378Zm7.475.416c-.269-.095-.512-.143-.727-.143-.304,0-.556.081-.76.242s-.34.366-.409.616v4.194h-1.688v-6.492h1.311l.195.857h.052c.148-.321.347-.568.598-.74.251-.174.545-.261.883-.261.225,0,.481.048.766.143l-.22,1.584Zm8.22,2.467c0-.276-.102-.502-.305-.675s-.459-.331-.766-.474-.641-.29-1-.442c-.359-.15-.693-.336-1-.557s-.562-.497-.766-.825c-.204-.33-.305-.749-.305-1.26,0-.442.073-.825.221-1.149.148-.326.357-.595.63-.813.273-.216.595-.376.968-.48.372-.104.788-.157,1.247-.157.528,0,1.026.047,1.493.136.468.091.852.224,1.156.397l-.559,1.494c-.191-.122-.476-.233-.857-.331-.381-.1-.792-.15-1.234-.15-.416,0-.734.083-.955.247s-.33.385-.33.663c0,.259.101.476.305.649.204.174.459.333.766.481.307.147.641.298,1,.454.36.155.693.345,1,.566.308.219.563.493.767.818.203.324.305.728.305,1.213s-.08.902-.24,1.254c-.16.35-.386.642-.675.876-.29.233-.641.407-1.052.519-.411.112-.864.169-1.357.169-.65,0-1.221-.062-1.714-.183s-.857-.242-1.091-.362l.572-1.52c.095.052.218.109.37.169.151.06.322.117.512.169s.392.095.604.129.43.052.656.052c.528,0,.933-.088,1.215-.266s.422-.449.422-.813Zm2.273-.804c0-1.101.268-1.946.805-2.54.537-.592,1.29-.889,2.259-.889.519,0,.97.081,1.351.247.38.164.696.395.948.694.25.298.439.661.564,1.085.126.424.189.892.189,1.403,0,1.099-.267,1.944-.799,2.538s-1.284.89-2.253.89c-.519,0-.97-.083-1.35-.247-.381-.166-.7-.397-.955-.695s-.446-.661-.571-1.084c-.126-.424-.188-.892-.188-1.403Zm1.74,0c0,.285.026.549.078.792.052.242.13.454.234.637.104.181.241.323.409.421.169.1.37.15.604.15.442,0,.77-.16.987-.481.217-.319.325-.826.325-1.518,0-.599-.1-1.08-.299-1.449-.199-.367-.537-.55-1.013-.55-.415,0-.74.155-.974.468-.234.311-.35.821-.35,1.532Zm4.947-3.247h.895v-.364c0-.821.173-1.417.519-1.786.347-.367.849-.55,1.506-.55.693,0,1.268.081,1.727.247l-.324,1.349c-.199-.069-.374-.114-.525-.136-.152-.021-.31-.033-.474-.033-.173,0-.31.028-.409.079-.1.052-.173.131-.221.24s-.078.242-.091.402-.02.345-.02.552h1.429v1.429h-1.429v5.064h-1.688v-5.064h-.895v-1.429Zm4.09,0h.896v-1.22l1.688-.481v1.701h1.584v1.429h-1.584v2.493c0,.45.045.773.136.968.091.195.261.292.512.292.173,0,.323-.017.449-.052.125-.035.266-.086.422-.155l.298,1.297c-.234.114-.506.209-.818.286s-.628.117-.948.117c-.597,0-1.037-.155-1.318-.462s-.422-.811-.422-1.511v-3.273h-.896v-1.429Zm9.908,0l1.182,3.325.234,1.077h.052l.182-1.09.831-3.311h1.545l-2,6.558h-1.247l-1.311-3.637-.169-.818h-.065l-.156.832-1.247,3.623h-1.285l-2.09-6.558h1.831l.948,3.259.156,1.156h.065l.221-1.168,1.077-3.247h1.247Zm4.65.376c.346-.155.757-.28,1.234-.369.476-.091.974-.136,1.493-.136.45,0,.826.053,1.13.162.303.109.543.262.72.461.178.2.303.437.376.714.074.278.11.588.11.935,0,.381-.013.764-.039,1.149s-.041.764-.045,1.137c-.005.371.006.733.032,1.084s.091.682.195.994h-1.377l-.273-.897h-.065c-.173.269-.413.5-.72.695-.308.195-.704.292-1.189.292-.303,0-.575-.045-.818-.136-.242-.09-.45-.221-.624-.388-.173-.169-.307-.369-.402-.599-.096-.228-.143-.487-.143-.771,0-.399.089-.735.267-1.008.177-.273.432-.493.766-.663.333-.167.732-.285,1.195-.35.462-.064.98-.085,1.552-.059.06-.485.026-.832-.104-1.044-.129-.212-.42-.319-.87-.319-.338,0-.695.035-1.071.104-.377.071-.687.16-.929.273l-.402-1.26Zm2.143,4.831c.337,0,.606-.076.805-.228.199-.15.346-.312.442-.487v-.844c-.269-.026-.526-.031-.773-.014-.247.019-.466.057-.656.117-.191.06-.342.148-.455.261-.113.112-.169.255-.169.428,0,.243.072.431.215.564.142.135.339.202.591.202Zm7.921-3.623c-.269-.095-.512-.143-.727-.143-.304,0-.556.081-.76.242s-.34.366-.409.616v4.194h-1.688v-6.492h1.311l.195.857h.052c.148-.321.347-.568.598-.74.251-.174.545-.261.883-.261.225,0,.481.048.766.143l-.22,1.584Zm6.167,4.351c-.26.207-.612.383-1.058.525-.446.143-.92.216-1.422.216-1.047,0-1.813-.305-2.298-.916s-.727-1.448-.727-2.512c0-1.144.273-2,.818-2.572.545-.571,1.311-.856,2.298-.856.33,0,.65.043.961.129.312.086.589.229.832.428.242.2.437.468.584.806s.221.757.221,1.26c0,.181-.011.376-.033.585-.022.207-.053.424-.097.649h-3.883c.026.545.166.958.42,1.234.254.278.667.416,1.236.416.354,0,.67-.053.951-.162s.494-.219.641-.331l.556,1.104Zm-2.409-4.767c-.439,0-.764.133-.976.397-.21.264-.337.616-.38,1.058h2.403c.035-.468-.037-.826-.213-1.077-.177-.252-.455-.378-.833-.378Zm11.058,2.883c0-.276-.102-.502-.305-.675s-.459-.331-.766-.474-.641-.29-1-.442c-.359-.15-.693-.336-1-.557s-.562-.497-.766-.825c-.204-.33-.305-.749-.305-1.26,0-.442.073-.825.221-1.149.148-.326.357-.595.63-.813.273-.216.595-.376.968-.48.372-.104.788-.157,1.247-.157.528,0,1.026.047,1.493.136.468.091.852.224,1.156.397l-.559,1.494c-.191-.122-.476-.233-.857-.331-.381-.1-.792-.15-1.234-.15-.416,0-.734.083-.955.247s-.33.385-.33.663c0,.259.101.476.305.649.204.174.459.333.766.481.307.147.641.298,1,.454.36.155.693.345,1,.566.308.219.563.493.767.818.203.324.305.728.305,1.213s-.08.902-.24,1.254c-.16.35-.386.642-.675.876-.29.233-.641.407-1.052.519-.411.112-.864.169-1.357.169-.65,0-1.221-.062-1.714-.183s-.857-.242-1.091-.362l.572-1.52c.095.052.218.109.37.169.151.06.322.117.512.169s.392.095.604.129.43.052.656.052c.528,0,.933-.088,1.215-.266s.422-.449.422-.813Zm2.61-.804c0-1.101.268-1.946.805-2.54.537-.592,1.29-.889,2.259-.889.519,0,.97.081,1.351.247.38.164.696.395.948.694.25.298.439.661.564,1.085.126.424.189.892.189,1.403,0,1.099-.267,1.944-.799,2.538-.532.594-1.284.89-2.253.89-.519,0-.97-.083-1.35-.247-.381-.166-.7-.397-.955-.695s-.446-.661-.571-1.084c-.126-.424-.188-.892-.188-1.403Zm1.74,0c0,.285.026.549.078.792.052.242.13.454.234.637.104.181.241.323.409.421.169.1.37.15.604.15.442,0,.77-.16.987-.481.217-.319.325-.826.325-1.518,0-.599-.1-1.08-.299-1.449-.199-.367-.537-.55-1.013-.55-.415,0-.74.155-.974.468-.234.311-.35.821-.35,1.532Zm7.285,1.065c0,.304.039.523.117.663.078.138.203.207.376.207.104,0,.205-.009.305-.026.099-.017.223-.057.37-.117l.182,1.325c-.139.069-.351.138-.637.207-.286.071-.58.105-.883.105-.493,0-.87-.116-1.129-.345s-.39-.607-.39-1.135v-7.792h1.688v6.908Zm3.701-4.312v3.689c0,.528.062.908.188,1.142.125.233.37.35.733.35.321,0,.587-.095.799-.285.212-.192.37-.424.474-.702v-4.194h1.687v4.519c0,.355.017.704.053,1.046.035.342.086.652.155.928h-1.272l-.298-.961h-.052c-.199.33-.476.602-.832.818-.355.217-.775.326-1.26.326-.329,0-.623-.045-.883-.131-.261-.086-.476-.229-.65-.428s-.305-.468-.396-.806c-.091-.336-.136-.761-.136-1.272v-4.039h1.688Zm4.687,0h.896v-1.22l1.688-.481v1.701h1.584v1.429h-1.584v2.493c0,.45.045.773.136.968.091.195.261.292.512.292.173,0,.323-.017.449-.052.125-.035.266-.086.422-.155l.298,1.297c-.234.114-.506.209-.818.286s-.628.117-.948.117c-.597,0-1.037-.155-1.318-.462s-.422-.811-.422-1.511v-3.273h-.896v-1.429Zm5.104-1.831c0-.252.092-.466.279-.644s.443-.266.773-.266.595.088.799.266c.203.178.305.392.305.644,0,.25-.102.461-.305.63-.204.169-.47.254-.799.254s-.587-.085-.773-.254-.279-.38-.279-.63Zm.247,1.831h1.687v6.492h-1.687v-6.492Zm3.038,3.247c0-1.101.268-1.946.805-2.54.537-.592,1.29-.889,2.259-.889.519,0,.97.081,1.351.247.38.164.696.395.948.694.25.298.439.661.564,1.085.126.424.189.892.189,1.403,0,1.099-.267,1.944-.799,2.538s-1.284.89-2.253.89c-.519,0-.97-.083-1.35-.247-.381-.166-.7-.397-.955-.695s-.446-.661-.571-1.084c-.126-.424-.188-.892-.188-1.403Zm1.74,0c0,.285.026.549.078.792.052.242.13.454.234.637.104.181.241.323.409.421.169.1.37.15.604.15.442,0,.77-.16.987-.481.217-.319.325-.826.325-1.518,0-.599-.1-1.08-.299-1.449-.199-.367-.537-.55-1.013-.55-.415,0-.74.155-.974.468-.234.311-.35.821-.35,1.532Zm9.518,3.245v-3.687c0-.528-.076-.909-.227-1.144-.152-.233-.409-.35-.773-.35-.32,0-.591.093-.812.28s-.379.418-.474.695v4.206h-1.688v-6.492h1.337l.195.857h.052c.199-.278.463-.519.793-.728.329-.207.753-.311,1.272-.311.32,0,.606.043.857.129s.463.229.637.428c.173.2.303.471.39.813.086.342.129.764.129,1.266v4.037h-1.688Zm5.792-1.791c0-.174-.073-.312-.221-.416s-.329-.2-.545-.286-.455-.174-.714-.266-.498-.216-.714-.376-.399-.364-.545-.611c-.148-.247-.221-.566-.221-.954,0-.642.191-1.13.571-1.468.381-.336.931-.506,1.649-.506.493,0,.939.052,1.337.155.399.104.71.221.935.35l-.376,1.222c-.199-.078-.45-.16-.753-.247-.304-.086-.611-.131-.922-.131-.502,0-.753.195-.753.585,0,.155.073.281.221.376.147.097.329.185.545.267.217.081.455.171.714.266s.498.219.714.369c.216.152.398.35.545.592.147.242.221.554.221.935,0,.657-.21,1.175-.63,1.551-.42.376-1.05.566-1.889.566-.459,0-.89-.059-1.292-.176-.403-.117-.73-.254-.981-.409l.468-1.26c.199.112.463.223.792.331.33.109.667.162,1.014.162.251,0,.452-.048.604-.143.151-.095.227-.255.227-.48Z"/>
      </g>
    </g>
  </g>
</svg>