<svg version="1.1" xmlns="http://www.w3.org/2000/svg" xmlns:xlink="http://www.w3.org/1999/xlink" x="0px" y="0px" width="394px"
	 height="340px" viewBox="0 0 394 340" style="overflow:visible;enable-background:new 0 0 394 340;" xml:space="preserve">
<style type="text/css">
	.st0{fill:#E007B4;}
	.st1{fill:none;}
</style>
<defs>
</defs>
<path class="st0" d="M126.4,143.8c2.5,0,4.6,1.9,4.6,4.4c0,0.1,0,0.1,0,0.2v4.6l0,0v27.7h-12.9v-27.1h-10.8v27.1H94.1v-36.9H126.4z
	 M294,132.1h-12.9v49.2h8.3c2.5,0,4.6-1.9,4.6-4.4c0-0.1,0-0.1,0-0.2V132.1z M148.5,181.3h27.7v-36.9h-12.9v27.1h-10.8v-27.1h-13.2
	v32.3c0,2.5,1.9,4.6,4.4,4.6c0.1,0,0.1,0,0.2,0H148.5z M219.3,181.3c2.5,0,4.6-1.9,4.6-4.4c0-0.1,0-0.1,0-0.2v-32.3h-25.2v10.1h12.3
	v16.9h-12.3v-39.4h-13.2v49.2H219.3z M266.9,181.3c2.5,0,4.6-1.9,4.6-4.4c0-0.1,0-0.1,0-0.2v-32.3h-25.2v10.1h12.3v16.9h-12.3v-39.4
	h-13.2v49.2H266.9z"/>
<rect class="st1" width="394" height="340"/>
</svg>

