<svg version="1.1" xmlns="http://www.w3.org/2000/svg" xmlns:xlink="http://www.w3.org/1999/xlink" x="0px" y="0px" width="394px"
	 height="340px" viewBox="0 0 394 340" style="overflow:visible;enable-background:new 0 0 394 340;" xml:space="preserve">
<style type="text/css">
	.st0{fill:#58704C;}
	.st1{fill:#A5AA43;}
	.st2{fill:#4D413A;}
	.st3{fill:#9E8E81;}
	.st4{fill:#FFFFFF;}
	.st5{fill:none;}
</style>
<defs>
</defs>
<g>
	<g>
		<path class="st0" d="M52.9,180.5l0,2v22.9h-6.5v-20.2c0-2.6-0.2-4.5-0.5-5.6c-0.4-1.1-1.1-2.4-2.3-3.9l5.7-4
			c0.9,0.6,1.8,1.6,2.5,3.1c2.5-2,4.2-3.1,5-3.1c0.9,0,2.3,0.8,4.2,2.5c1.9,1.7,3.1,2.8,3.6,3.5c0.5,0.7,0.7,1.6,0.7,2.7v25h-6.6
			v-24c0-0.3-0.1-0.6-0.4-1.1s-0.6-0.9-1.1-1.4c-0.5-0.5-0.9-0.8-1.4-0.8c-0.4,0-1,0.2-1.6,0.7C53.8,179.3,53.3,179.9,52.9,180.5z"
			/>
		<path class="st0" d="M80.3,203.7c-1.9,1.5-3.4,2.3-4.3,2.3c-0.9,0-2.3-0.8-4.3-2.3c-1.9-1.5-3.1-2.7-3.6-3.4c-0.7-1.2-1-3.7-1-7.5
			c0-3.9,0.3-6.4,1-7.5c0.4-0.8,1.6-1.9,3.6-3.4c1.9-1.5,3.4-2.3,4.3-2.3c0.9,0,2.3,0.8,4.3,2.3c1.9,1.5,3.1,2.7,3.6,3.4
			c0.7,1.1,1,3.6,1,7.5c0,3.9-0.3,6.4-1,7.5C83.5,201,82.3,202.1,80.3,203.7z M74.9,199.9c0.5,0.5,0.9,0.7,1.2,0.7s0.7-0.2,1.2-0.7
			c0.5-0.5,0.8-0.9,1.1-1.3c0.4-0.7,0.6-2.6,0.6-5.8s-0.2-5.2-0.6-5.9c-0.2-0.4-0.6-0.8-1.1-1.3c-0.5-0.5-0.9-0.7-1.2-0.7
			s-0.7,0.2-1.2,0.7c-0.5,0.5-0.8,0.9-1.1,1.3c-0.4,0.7-0.6,2.6-0.6,5.8c0,3.2,0.2,5.2,0.6,5.9C74.1,199,74.4,199.4,74.9,199.9z"/>
		<path class="st0" d="M93.7,185v10.4c0,1.5,0.5,2.8,1.5,4.1c1,1.2,2.4,2.2,4.2,2.9l-5.2,3.6c-1.9-0.9-3.5-2.1-4.8-3.7
			c-1.3-1.6-1.9-3.2-1.9-4.9V185h-2.4v-3.5l2.4-0.6c-0.1-1.5-0.3-2.8-0.6-3.7c-0.3-0.9-0.9-1.8-1.8-2.6l5.2-3.6
			c2.3,1.8,3.4,4.3,3.4,7.6v1.4H99v5H93.7z"/>
		<path class="st0" d="M108,185v10.4c0,1.5,0.5,2.8,1.5,4.1c1,1.2,2.4,2.2,4.2,2.9l-5.2,3.6c-1.9-0.9-3.5-2.1-4.8-3.7
			c-1.3-1.6-1.9-3.2-1.9-4.9V185h-2.4v-3.5l2.4-0.6c-0.1-1.5-0.3-2.8-0.6-3.7c-0.3-0.9-0.9-1.8-1.8-2.6l5.2-3.6
			c2.3,1.8,3.4,4.3,3.4,7.6v1.4h5.3v5H108z"/>
		<path class="st0" d="M118,170.1c0.3,0,1.1,0.5,2.3,1.5c1.2,1,1.8,1.7,1.8,2.1s-0.6,1.1-1.8,2.1c-1.2,1-2,1.6-2.3,1.6
			c-0.3,0-1.1-0.5-2.3-1.5c-1.2-1-1.8-1.7-1.8-2.1c0-0.4,0.6-1.1,1.8-2.1C116.9,170.7,117.7,170.1,118,170.1z M114.8,180h6.2v16.3
			c0,1.6,0.2,2.8,0.6,3.7c0.4,0.9,1,1.7,1.8,2.3l-5.2,3.6c-2.3-1.8-3.4-4.3-3.4-7.6V180z"/>
		<path class="st0" d="M130.8,205.4h-6.2v-16.3c0-1.6-0.2-2.8-0.6-3.7c-0.4-0.9-1-1.7-1.8-2.3l5.2-3.6c1.2,0.9,2,2,2.6,3.3
			c2.3-2.2,4-3.3,4.9-3.3s2.4,0.9,4.3,2.6c1.9,1.7,2.9,3.5,2.9,5.2v9.1c0,1.6,0.2,2.8,0.6,3.7c0.4,0.9,1,1.7,1.8,2.3l-5.2,3.6
			c-2.3-1.8-3.4-4.3-3.4-7.6v-10.5c0-0.5-0.3-1.1-0.8-1.7c-0.6-0.6-1.1-0.9-1.6-0.9s-1.4,0.7-2.7,2V205.4z"/>
		<path class="st0" d="M162.3,180v23.9c0,4-0.2,6.4-0.5,7.2c-0.4,0.8-1.6,2-3.8,3.7c-2.2,1.7-3.8,2.5-4.9,2.5
			c-1.1,0-2.4-0.5-4.1-1.6c-1.6-1.1-2.9-2.3-3.7-3.8l4.9-3.3l0.5,0.6c1.2,1.5,2,2.2,2.4,2.2s1-0.2,1.6-0.6c0.6-0.4,1-0.8,1.2-1.3
			c0.2-0.5,0.3-2.4,0.3-5.8l0.1-1.8c-2.1,1.5-3.6,2.3-4.4,2.3c-0.8,0-2-0.8-3.7-2.5c-1.7-1.7-2.7-2.9-3-3.7
			c-0.3-0.8-0.5-2.8-0.5-6.1c0-3.2,0.2-5.3,0.5-6.1c0.3-0.8,1.4-2.1,3-3.8c1.7-1.7,2.9-2.5,3.8-2.5c0.9,0,2.6,1,5,3l0.6-2.5H162.3z
			 M155.9,187.1c-0.2-0.4-0.7-0.8-1.3-1.2c-0.7-0.4-1.2-0.6-1.5-0.6c-0.3,0-0.7,0.2-1.1,0.6c-0.4,0.4-0.7,0.8-0.8,1.1
			c-0.3,0.5-0.4,2.1-0.4,4.7c0,2.6,0.1,4.2,0.4,4.7c0.1,0.3,0.4,0.7,0.8,1.1c0.4,0.4,0.8,0.6,1.1,0.6c0.3,0,0.9-0.2,1.5-0.6
			c0.7-0.4,1.1-0.8,1.3-1.2c0.2-0.4,0.3-1.9,0.3-4.6C156.2,189,156.1,187.5,155.9,187.1z"/>
		<path class="st0" d="M171.4,205.4h-6.2v-25.8c0-1.6-0.2-2.8-0.6-3.7c-0.4-0.8-1-1.6-1.8-2.3l5.2-3.6c2.3,1.8,3.4,4.3,3.4,7.6v4.4
			c2-1.7,3.4-2.6,4.2-2.6c0.9,0,2.3,0.9,4.2,2.6c1.9,1.7,2.9,3.5,2.9,5.2v9.1c0,1.6,0.2,2.8,0.6,3.7c0.4,0.9,1,1.7,1.8,2.3l-5.2,3.6
			c-2.3-1.8-3.4-4.3-3.4-7.6v-10.5c0-0.5-0.3-1.1-0.8-1.7c-0.6-0.6-1.1-0.9-1.6-0.9c-0.5,0-1.4,0.7-2.7,2V205.4z"/>
		<path class="st0" d="M203.3,180v19.3c0.2,1.1,0.9,2.1,2.2,2.9l-4.2,3.6c-0.4-0.3-0.9-0.8-1.5-1.5c-0.6-0.7-1.1-1.5-1.5-2.2
			c-2.6,2.5-4.4,3.8-5.5,3.8c-0.8,0-2-0.8-3.7-2.5c-1.7-1.7-2.7-3-3.1-4.1s-0.6-3.3-0.6-6.7c0-3.4,0.2-5.7,0.6-6.7s1.5-2.4,3.1-4.1
			s2.9-2.5,3.7-2.5c1.1,0,2.9,1.1,5.3,3.4l0.6-2.8H203.3z M196.7,187.2c-0.2-0.4-0.7-0.8-1.3-1.2s-1.2-0.6-1.5-0.6
			c-0.3,0-0.7,0.2-1.1,0.6c-0.4,0.4-0.7,0.8-0.8,1.1c-0.4,0.6-0.6,2.4-0.6,5.6s0.2,5.1,0.6,5.6c0.1,0.3,0.4,0.7,0.8,1.1
			c0.4,0.4,0.8,0.6,1.1,0.6c0.3,0,0.9-0.2,1.5-0.6s1.1-0.8,1.3-1.2c0.2-0.3,0.3-2.2,0.4-5.5C197.1,189.4,197,187.6,196.7,187.2z"/>
		<path class="st0" d="M224.1,205.4h-6.2v-17.5c0-0.5-0.3-1.1-0.8-1.7c-0.6-0.6-1-0.9-1.4-0.9c-0.4,0-1,0.4-1.9,1.1v19h-6.2v-16.3
			c0-1.6-0.2-2.8-0.6-3.7c-0.4-0.9-1-1.7-1.8-2.3l5.2-3.6c1,0.9,1.8,1.8,2.3,2.7c2-1.8,3.5-2.7,4.2-2.7c0.5,0,1.2,0.3,2.3,1
			c1.1,0.7,2,1.5,2.9,2.5c2.5-2.4,4.2-3.5,5.2-3.5c1,0,2.4,0.9,4.3,2.6c1.9,1.7,2.9,3.5,2.9,5.2v9.1c0,1.6,0.2,2.8,0.6,3.7
			c0.4,0.9,1,1.7,1.8,2.3l-5.2,3.6c-2.3-1.8-3.4-4.3-3.4-7.6v-10.5c0-0.5-0.3-1.1-0.8-1.7c-0.6-0.6-1-0.9-1.4-0.9s-1,0.4-2,1.2
			c0.1,0.3,0.1,0.6,0.1,0.7V205.4z"/>
		<path class="st0" d="M248.8,205.4v-18.8c0-3.9,0.3-6.4,0.9-7.5c0.6-1.1,2-2.6,4-4.5c2.1-1.9,3.6-2.8,4.6-2.8
			c1.4,0,3.1,0.6,5.1,1.7c2,1.1,3.6,2.3,4.6,3.7l-5.2,3.6c-1.8-1.8-3.2-2.6-4.2-2.6c-0.4,0-0.9,0.3-1.4,0.8c-0.5,0.5-1,1.1-1.3,1.7
			s-0.5,2.1-0.5,4.4v1.1h8.4v5.7h-8.4v13.6H248.8z"/>
		<path class="st0" d="M278.8,203.7c-1.9,1.5-3.4,2.3-4.3,2.3s-2.3-0.8-4.3-2.3c-1.9-1.5-3.1-2.7-3.6-3.4c-0.7-1.2-1-3.7-1-7.5
			c0-3.9,0.3-6.4,1-7.5c0.4-0.8,1.6-1.9,3.6-3.4c1.9-1.5,3.4-2.3,4.3-2.3s2.3,0.8,4.3,2.3c1.9,1.5,3.1,2.7,3.6,3.4
			c0.7,1.1,1,3.6,1,7.5c0,3.9-0.3,6.4-1,7.5C281.9,201,280.7,202.1,278.8,203.7z M273.3,199.9c0.5,0.5,0.9,0.7,1.2,0.7
			c0.3,0,0.7-0.2,1.2-0.7c0.5-0.5,0.8-0.9,1.1-1.3c0.4-0.7,0.6-2.6,0.6-5.8s-0.2-5.2-0.6-5.9c-0.2-0.4-0.6-0.8-1.1-1.3
			c-0.5-0.5-0.9-0.7-1.2-0.7c-0.3,0-0.7,0.2-1.2,0.7c-0.5,0.5-0.8,0.9-1.1,1.3c-0.4,0.7-0.6,2.6-0.6,5.8c0,3.2,0.2,5.2,0.6,5.9
			C272.5,199,272.8,199.4,273.3,199.9z"/>
		<path class="st0" d="M292.1,205.4h-6.2v-16.3c0-1.6-0.2-2.9-0.6-3.8c-0.4-0.9-1-1.7-1.8-2.3l5.2-3.6c1.1,0.9,2,2,2.6,3.3
			c2.3-2.2,4-3.3,4.9-3.3c0.6,0,1.6,0.6,2.9,1.7c1.3,1.2,2,2.4,2.3,3.8l-5,3.6c0-0.8-0.2-1.5-0.5-2.2c-0.3-0.7-0.6-1.1-0.9-1.1
			c-0.5,0-1.5,0.7-2.8,2V205.4z"/>
		<path class="st0" d="M318.1,192.6v1.7h-11.4c0,1.9,0.2,3.4,0.7,4.5c0.2,0.4,0.4,0.8,0.8,1.2c0.4,0.4,0.8,0.6,1.3,0.6
			s1-0.4,1.7-1.1c0.7-0.8,1.2-1.7,1.6-2.7l4.9,3.4c-0.8,1.6-2.1,2.9-3.9,4.1c-1.7,1.2-3.2,1.7-4.2,1.7c-1.1,0-2.6-0.8-4.6-2.5
			c-2-1.7-3.3-3-3.7-3.9c-0.4-0.9-0.7-3.2-0.7-6.9s0.2-6,0.7-6.9c0.4-0.9,1.7-2.2,3.7-3.9s3.5-2.5,4.5-2.5c0.9,0,2.4,0.8,4.5,2.5
			c2,1.7,3.3,3,3.7,3.9C317.9,186.8,318.1,189,318.1,192.6z M311.5,186.7c-0.2-0.4-0.6-0.8-1.1-1.3c-0.5-0.4-0.9-0.6-1.4-0.6
			c-0.4,0-0.9,0.4-1.4,1.3c-0.5,0.8-0.9,2.1-1,3.8h5.4C311.9,188.2,311.8,187.1,311.5,186.7z"/>
		<path class="st0" d="M336.3,197.8c0,1-1.2,2.6-3.6,4.8c-2.4,2.2-4.2,3.4-5.4,3.4c-1.2,0-2.6-0.6-4.4-1.7c-1.7-1.2-3-2.5-3.9-4.1
			l4.9-3.3c1.6,2.2,2.7,3.3,3.4,3.3c0.5,0,1.2-0.3,2-0.8c0.8-0.5,1.2-1,1.2-1.5c0-0.1-0.4-0.4-1.1-0.8c-0.8-0.4-1.7-1-2.8-1.6
			s-2.2-1.4-3.2-2.2c-1.1-0.8-2-1.8-2.7-2.9c-0.8-1.2-1.1-2.3-1.1-3.5s1.1-2.7,3.2-4.5c2.1-1.8,3.8-2.7,4.9-2.7
			c1.1,0,2.6,0.6,4.3,1.7c1.7,1.2,3,2.5,3.9,4.1l-4.9,3.3c-1.6-2.2-2.7-3.3-3.4-3.3c-0.4,0-0.8,0.2-1.4,0.6
			c-0.6,0.4-0.8,0.8-0.8,1.2c0,0.3,0.6,0.9,1.7,1.6c1.1,0.7,2.4,1.5,3.8,2.2c1.4,0.8,2.6,1.8,3.8,3
			C335.8,195.2,336.3,196.5,336.3,197.8z"/>
		<path class="st0" d="M344.7,185v10.4c0,1.5,0.5,2.8,1.5,4.1c1,1.2,2.4,2.2,4.2,2.9l-5.2,3.6c-1.9-0.9-3.5-2.1-4.8-3.7
			c-1.3-1.6-1.9-3.2-1.9-4.9V185h-2.4v-3.5l2.4-0.6c-0.1-1.5-0.3-2.8-0.6-3.7s-0.9-1.8-1.8-2.6l5.2-3.6c2.3,1.8,3.4,4.3,3.4,7.6v1.4
			h5.3v5H344.7z"/>
		<path class="st1" d="M82,218.8l0.2-1.2h8.6l-0.2,1.2l-2.7,0.6v7h10v-6.9l-2.9-0.7l0.2-1.2h8.7l-0.2,1.2l-2.7,0.6v16.1l2.9,0.5
			l-0.2,1.3h-8.6l0.2-1.2l2.6-0.7V228H88v7.5l2.9,0.5l-0.2,1.3h-8.6l0.1-1.2l2.7-0.7v-16L82,218.8z"/>
		<path class="st1" d="M103.9,230.6c0-1.2,0.2-2.2,0.6-3.2c0.4-1,0.9-1.8,1.5-2.4s1.4-1.1,2.2-1.5c0.8-0.3,1.7-0.5,2.6-0.5
			c1.9,0,3.5,0.7,4.6,2c1.1,1.3,1.7,3.1,1.7,5.3c0,2.2-0.6,4-1.9,5.4c-1.3,1.4-2.9,2.1-4.7,2.1c-2,0-3.6-0.7-4.8-2
			C104.4,234.4,103.9,232.7,103.9,230.6z M106.7,229.5c0,0.9,0.1,1.7,0.2,2.4s0.4,1.5,0.7,2.2c0.3,0.7,0.8,1.2,1.3,1.6
			c0.6,0.4,1.2,0.6,2,0.6c1,0,1.9-0.5,2.4-1.4s0.9-2,0.9-3.2c0-0.8-0.1-1.6-0.2-2.4c-0.2-0.8-0.4-1.5-0.7-2.2
			c-0.3-0.7-0.7-1.3-1.3-1.7c-0.6-0.4-1.2-0.6-1.9-0.6c-0.8,0-1.4,0.2-1.9,0.7c-0.5,0.5-0.9,1-1.1,1.7
			C106.8,227.8,106.7,228.6,106.7,229.5z"/>
		<path class="st1" d="M117.9,237.4l0.2-1.2l2.4-0.6v-9.6l-2.5-0.8l0.2-1.2l4.8-0.7l0.3,0.3l-0.3,2h0.1c0.6-0.7,1.3-1.3,2.1-1.8
			c0.8-0.5,1.7-0.7,2.7-0.7c0.8,0,1.5,0.2,2.2,0.6c0.7,0.4,1.1,1.1,1.3,2h0.2c0.6-0.7,1.2-1.3,2.1-1.8c0.8-0.5,1.7-0.7,2.6-0.7
			c2.5,0,3.7,1.5,3.7,4.4v7.8l2.2,0.6l-0.2,1.3h-6.8l0.1-1.2l2-0.6v-7.5c0-0.8-0.2-1.5-0.7-2c-0.5-0.5-1.1-0.8-2-0.8
			c-0.6,0-1.2,0.1-1.6,0.4c-0.5,0.3-0.9,0.7-1.4,1.2v8.7l2.4,0.6l-0.2,1.3h-7l0.2-1.2l2.1-0.6v-7.5c0-0.8-0.3-1.5-0.8-2
			c-0.5-0.5-1.2-0.8-1.9-0.8c-1.3,0-2.3,0.5-3.1,1.4v8.9l2.3,0.6l-0.2,1.3H117.9z"/>
		<path class="st1" d="M142.6,230.6c0-1.1,0.2-2.2,0.6-3.2c0.4-1,0.9-1.8,1.5-2.4c0.6-0.6,1.3-1.1,2.1-1.4c0.8-0.3,1.5-0.5,2.3-0.5
			c1.2,0,2.2,0.4,3,1.3c0.8,0.9,1.2,2.1,1.2,3.7c0,0.7-0.1,1.3-0.3,2.1l-7.7,0.1c0,0.5,0.1,1,0.2,1.5c0.1,0.5,0.3,1,0.5,1.5
			c0.2,0.5,0.5,0.9,0.9,1.3c0.3,0.4,0.7,0.6,1.2,0.9c0.5,0.2,1,0.3,1.6,0.3c0.5,0,0.9,0,1.1,0c0.2,0,0.6-0.1,1-0.2
			c0.4-0.1,0.9-0.3,1.4-0.6l0.3,0.8c-0.6,0.7-1.4,1.2-2.3,1.6c-0.9,0.4-1.9,0.6-2.9,0.6c-0.8,0-1.5-0.2-2.2-0.5
			c-0.7-0.3-1.3-0.8-1.9-1.4c-0.6-0.6-1-1.4-1.4-2.3C142.7,232.8,142.6,231.7,142.6,230.6z M145.4,229.1l5-0.4
			c0.1-0.3,0.1-0.6,0.1-1.1c0-2-0.7-3-2.2-3c-0.7,0-1.4,0.4-1.9,1.1C145.8,226.5,145.5,227.6,145.4,229.1z"/>
		<path class="st1" d="M154.6,235.1c0-0.6,0.2-1,0.6-1.4c0.4-0.4,0.9-0.6,1.5-0.7c0.3,1.1,0.8,1.9,1.3,2.5s1.1,0.8,1.7,0.8
			c0.6,0,1.1-0.1,1.5-0.4c0.4-0.3,0.6-0.7,0.6-1.2c0-0.3-0.1-0.7-0.4-1s-0.6-0.6-1-0.8s-0.8-0.5-1.3-0.8c-0.5-0.3-1-0.6-1.5-0.9
			c-0.5-0.3-0.9-0.7-1.3-1c-0.4-0.4-0.7-0.8-1-1.3c-0.2-0.5-0.4-1.1-0.4-1.7c0-0.5,0.1-1,0.3-1.4c0.2-0.5,0.5-0.9,0.9-1.4
			c0.4-0.4,0.9-0.8,1.5-1s1.3-0.4,2.1-0.4c1.1,0,2,0.2,2.8,0.7s1.1,1.1,1.1,1.9c0,0.7-0.2,1.2-0.6,1.6c-0.4,0.4-0.9,0.6-1.6,0.7
			l-0.1-0.7c-0.4-1.9-1.2-2.9-2.4-2.9c-0.5,0-1,0.2-1.3,0.6c-0.3,0.4-0.5,0.8-0.5,1.4c0,0.4,0.1,0.8,0.4,1.1c0.3,0.3,0.6,0.7,1,0.9
			s0.9,0.5,1.4,0.8c0.5,0.3,1,0.6,1.5,0.9c0.5,0.3,1,0.6,1.4,1c0.4,0.3,0.7,0.8,1,1.2c0.3,0.5,0.4,1,0.4,1.6c0,0.8-0.2,1.4-0.7,2.1
			s-1.1,1.1-1.8,1.5s-1.5,0.5-2.3,0.5c-1.4,0-2.5-0.3-3.3-0.8C155,236.5,154.6,235.9,154.6,235.1z"/>
		<path class="st1" d="M167.8,237.4l0.1-1.2l2.4-0.9l7-17.6l2.4-0.5l6.2,18.2l2.2,0.7l-0.1,1.3h-8.2l0.2-1.2l2.7-0.9l-1.7-4.8h-6.7
			l-1.8,4.9l3,0.7l-0.2,1.3H167.8z M174.9,228.9h5.6l-2.6-7.9L174.9,228.9z"/>
		<path class="st1" d="M188.2,235.1c0-0.6,0.2-1,0.6-1.4c0.4-0.4,0.9-0.6,1.5-0.7c0.3,1.1,0.8,1.9,1.3,2.5c0.5,0.6,1.1,0.8,1.7,0.8
			c0.6,0,1.1-0.1,1.5-0.4c0.4-0.3,0.6-0.7,0.6-1.2c0-0.3-0.1-0.7-0.4-1c-0.2-0.3-0.6-0.6-1-0.8s-0.8-0.5-1.3-0.8
			c-0.5-0.3-1-0.6-1.5-0.9c-0.5-0.3-0.9-0.7-1.3-1c-0.4-0.4-0.7-0.8-1-1.3c-0.2-0.5-0.4-1.1-0.4-1.7c0-0.5,0.1-1,0.3-1.4
			c0.2-0.5,0.5-0.9,0.9-1.4c0.4-0.4,0.9-0.8,1.5-1c0.6-0.3,1.3-0.4,2.1-0.4c1.1,0,2,0.2,2.8,0.7c0.7,0.5,1.1,1.1,1.1,1.9
			c0,0.7-0.2,1.2-0.6,1.6c-0.4,0.4-0.9,0.6-1.6,0.7l-0.1-0.7c-0.4-1.9-1.2-2.9-2.4-2.9c-0.5,0-1,0.2-1.3,0.6
			c-0.3,0.4-0.5,0.8-0.5,1.4c0,0.4,0.1,0.8,0.4,1.1c0.3,0.3,0.6,0.7,1,0.9s0.9,0.5,1.4,0.8c0.5,0.3,1,0.6,1.5,0.9
			c0.5,0.3,1,0.6,1.4,1c0.4,0.3,0.7,0.8,1,1.2c0.3,0.5,0.4,1,0.4,1.6c0,0.8-0.2,1.4-0.7,2.1s-1.1,1.1-1.8,1.5
			c-0.7,0.3-1.5,0.5-2.3,0.5c-1.4,0-2.5-0.3-3.3-0.8S188.2,235.9,188.2,235.1z"/>
		<path class="st1" d="M198.7,235.1c0-0.6,0.2-1,0.6-1.4c0.4-0.4,0.9-0.6,1.5-0.7c0.3,1.1,0.8,1.9,1.3,2.5c0.5,0.6,1.1,0.8,1.7,0.8
			c0.6,0,1.1-0.1,1.5-0.4c0.4-0.3,0.6-0.7,0.6-1.2c0-0.3-0.1-0.7-0.4-1c-0.2-0.3-0.6-0.6-1-0.8s-0.8-0.5-1.3-0.8
			c-0.5-0.3-1-0.6-1.5-0.9c-0.5-0.3-0.9-0.7-1.3-1c-0.4-0.4-0.7-0.8-1-1.3c-0.2-0.5-0.4-1.1-0.4-1.7c0-0.5,0.1-1,0.3-1.4
			c0.2-0.5,0.5-0.9,0.9-1.4c0.4-0.4,0.9-0.8,1.5-1c0.6-0.3,1.3-0.4,2.1-0.4c1.1,0,2,0.2,2.8,0.7c0.7,0.5,1.1,1.1,1.1,1.9
			c0,0.7-0.2,1.2-0.6,1.6c-0.4,0.4-0.9,0.6-1.6,0.7l-0.1-0.7c-0.4-1.9-1.2-2.9-2.4-2.9c-0.5,0-1,0.2-1.3,0.6
			c-0.3,0.4-0.5,0.8-0.5,1.4c0,0.4,0.1,0.8,0.4,1.1c0.3,0.3,0.6,0.7,1,0.9s0.9,0.5,1.4,0.8c0.5,0.3,1,0.6,1.5,0.9
			c0.5,0.3,1,0.6,1.4,1c0.4,0.3,0.7,0.8,1,1.2c0.3,0.5,0.4,1,0.4,1.6c0,0.8-0.2,1.4-0.7,2.1s-1.1,1.1-1.8,1.5
			c-0.7,0.3-1.5,0.5-2.3,0.5c-1.4,0-2.5-0.3-3.3-0.8S198.7,235.9,198.7,235.1z"/>
		<path class="st1" d="M209.1,230.6c0-1.2,0.2-2.2,0.6-3.2c0.4-1,0.9-1.8,1.5-2.4c0.6-0.6,1.4-1.1,2.2-1.5c0.8-0.3,1.7-0.5,2.6-0.5
			c1.9,0,3.5,0.7,4.6,2c1.1,1.3,1.7,3.1,1.7,5.3c0,2.2-0.6,4-1.9,5.4s-2.9,2.1-4.7,2.1c-2,0-3.6-0.7-4.8-2
			C209.7,234.4,209.1,232.7,209.1,230.6z M211.9,229.5c0,0.9,0.1,1.7,0.2,2.4c0.2,0.8,0.4,1.5,0.7,2.2c0.3,0.7,0.8,1.2,1.3,1.6
			c0.6,0.4,1.2,0.6,2,0.6c1,0,1.9-0.5,2.4-1.4c0.6-0.9,0.9-2,0.9-3.2c0-0.8-0.1-1.6-0.2-2.4c-0.2-0.8-0.4-1.5-0.7-2.2
			c-0.3-0.7-0.7-1.3-1.3-1.7c-0.6-0.4-1.2-0.6-1.9-0.6c-0.8,0-1.4,0.2-1.9,0.7c-0.5,0.5-0.9,1-1.1,1.7
			C212,227.8,211.9,228.6,211.9,229.5z"/>
		<path class="st1" d="M223.3,230.8c0-1.1,0.2-2.2,0.6-3.2c0.4-1,0.9-1.8,1.5-2.4c0.6-0.7,1.3-1.2,2.2-1.5s1.6-0.5,2.5-0.5
			c1.3,0,2.2,0.2,2.9,0.7c0.7,0.5,1,1,1,1.7c0,0.5-0.2,0.9-0.5,1.2c-0.3,0.3-0.8,0.5-1.5,0.5c-0.1-0.3-0.3-0.6-0.4-0.9
			c-0.1-0.2-0.3-0.5-0.5-0.8c-0.2-0.3-0.5-0.5-0.7-0.7c-0.3-0.2-0.6-0.2-0.9-0.2c-0.9,0-1.7,0.4-2.3,1.3c-0.6,0.9-0.9,2-0.9,3.5
			c0,0.7,0.1,1.4,0.3,2.2c0.2,0.7,0.5,1.5,0.8,2.1c0.4,0.7,0.9,1.2,1.5,1.7c0.6,0.4,1.3,0.7,2.1,0.7c0.7,0,1.3-0.1,1.8-0.3
			c0.5-0.2,1-0.4,1.4-0.7l0.4,0.9c-0.4,0.5-1.1,1-2.1,1.4s-1.9,0.6-2.9,0.6c-1.9,0-3.4-0.7-4.5-2.1S223.3,232.7,223.3,230.8z"/>
		<path class="st1" d="M234.8,237.4l0.2-1.3l2.4-0.6v-9.8l-2.4-0.9l0.2-1.2l4.5-0.4l0.4,0.4v11.8l2.5,0.6l-0.2,1.3H234.8z
			 M236.7,218.4c0-0.5,0.2-0.9,0.6-1.3c0.4-0.3,0.8-0.5,1.3-0.5c0.5,0,1,0.2,1.4,0.5c0.4,0.3,0.6,0.8,0.6,1.3c0,0.5-0.2,1-0.6,1.4
			c-0.4,0.4-0.8,0.6-1.4,0.6c-0.5,0-1-0.2-1.3-0.6S236.7,218.9,236.7,218.4z"/>
		<path class="st1" d="M242.8,234.7c0-0.6,0.1-1.2,0.4-1.7s0.7-1.1,1.3-1.5c0.6-0.5,1.3-0.9,2.3-1.2s2.1-0.5,3.3-0.6v-0.9
			c0-0.6,0-1.1-0.1-1.6c-0.1-0.5-0.2-0.9-0.4-1.3c-0.2-0.4-0.5-0.7-0.9-1c-0.4-0.2-0.8-0.3-1.4-0.3c-0.3,0-0.5,0-0.7,0.1
			c-0.2,0.1-0.3,0.2-0.5,0.3c-0.1,0.1-0.2,0.3-0.3,0.6c-0.1,0.2-0.1,0.5-0.2,0.9c0,0.3-0.1,0.8-0.1,1.3c0,0.1,0,0.2,0,0.3
			c-0.2,0-0.4,0-0.6,0c-0.2,0-0.3,0-0.6-0.1s-0.4-0.1-0.5-0.3c-0.1-0.1-0.3-0.3-0.4-0.5c-0.1-0.2-0.2-0.5-0.2-0.8
			c0-0.5,0.3-1.1,0.9-1.6s1.3-0.9,2.2-1.2c0.8-0.3,1.6-0.4,2.4-0.4c1.4,0,2.4,0.4,3,1.2c0.6,0.8,0.9,2,0.9,3.7v5.8
			c0,0.7,0.1,1.3,0.3,1.5c0.2,0.3,0.7,0.5,1.4,0.6l0.8,0.1l-0.2,1.4c-0.1,0-0.4,0.1-0.9,0.2c-0.5,0.1-0.9,0.1-1.3,0.1
			c-0.8,0-1.5-0.2-1.9-0.7c-0.4-0.4-0.6-0.9-0.6-1.5v-0.2h-0.2c-0.1,0.3-0.3,0.5-0.5,0.8s-0.5,0.5-0.8,0.8s-0.8,0.5-1.3,0.7
			c-0.5,0.2-1.1,0.3-1.7,0.3c-0.9,0-1.6-0.3-2.2-0.8C243.1,236.4,242.8,235.6,242.8,234.7z M245.6,233.9c0,0.4,0.2,0.9,0.5,1.3
			c0.3,0.4,0.8,0.6,1.3,0.6c0.5,0,1-0.1,1.5-0.4c0.5-0.3,0.9-0.6,1.2-1v-3.8c-1.7,0.3-2.8,0.8-3.5,1.3
			C246,232.4,245.6,233.1,245.6,233.9z"/>
		<path class="st1" d="M255.1,224.9v-0.9c1.4-1,2.7-2.4,3.9-4h0.8v3.5h4.5l-0.1,1.4h-4.4l0,7.3c0,1.2,0.2,2,0.5,2.4
			c0.4,0.5,1,0.7,1.8,0.7c0.3,0,0.7-0.1,1.1-0.2c0.4-0.1,0.7-0.3,0.9-0.4l0.3-0.2l0.3,0.9c-0.5,0.7-1.1,1.3-1.9,1.7
			s-1.6,0.6-2.4,0.6c-0.5,0-1-0.1-1.4-0.2c-0.4-0.1-0.7-0.4-1.1-0.7c-0.3-0.3-0.6-0.8-0.7-1.4s-0.2-1.3-0.2-2.2l0.1-8.3H255.1z"/>
		<path class="st1" d="M264.9,237.4l0.2-1.3l2.4-0.6v-9.8l-2.4-0.9l0.2-1.2l4.5-0.4l0.4,0.4v11.8l2.5,0.6l-0.2,1.3H264.9z
			 M266.8,218.4c0-0.5,0.2-0.9,0.6-1.3c0.4-0.3,0.8-0.5,1.3-0.5c0.5,0,1,0.2,1.4,0.5c0.4,0.3,0.6,0.8,0.6,1.3c0,0.5-0.2,1-0.6,1.4
			c-0.4,0.4-0.8,0.6-1.4,0.6c-0.5,0-1-0.2-1.3-0.6S266.8,218.9,266.8,218.4z"/>
		<path class="st1" d="M273,230.6c0-1.2,0.2-2.2,0.6-3.2c0.4-1,0.9-1.8,1.5-2.4c0.6-0.6,1.4-1.1,2.2-1.5c0.8-0.3,1.7-0.5,2.6-0.5
			c1.9,0,3.5,0.7,4.6,2c1.1,1.3,1.7,3.1,1.7,5.3c0,2.2-0.6,4-1.9,5.4s-2.9,2.1-4.7,2.1c-2,0-3.6-0.7-4.8-2
			C273.6,234.4,273,232.7,273,230.6z M275.9,229.5c0,0.9,0.1,1.7,0.2,2.4c0.2,0.8,0.4,1.5,0.7,2.2c0.3,0.7,0.8,1.2,1.3,1.6
			c0.6,0.4,1.2,0.6,2,0.6c1,0,1.9-0.5,2.4-1.4c0.6-0.9,0.9-2,0.9-3.2c0-0.8-0.1-1.6-0.2-2.4c-0.2-0.8-0.4-1.5-0.7-2.2
			c-0.3-0.7-0.7-1.3-1.3-1.7c-0.6-0.4-1.2-0.6-1.9-0.6c-0.8,0-1.4,0.2-1.9,0.7c-0.5,0.5-0.9,1-1.1,1.7
			C276,227.8,275.9,228.6,275.9,229.5z"/>
		<path class="st1" d="M287,237.4l0.2-1.2l2.4-0.7v-9.6l-2.4-0.8l0.2-1.2l4.7-0.6l0.3,0.3l-0.3,2h0.2c0.6-0.7,1.3-1.3,2.1-1.8
			s1.7-0.7,2.6-0.7c1.2,0,2.2,0.4,2.8,1.2c0.7,0.8,1,1.9,1,3.3v8l2.3,0.6l-0.2,1.3h-7.1l0.2-1.2l2.2-0.7v-7.4c0-1-0.3-1.7-0.8-2.2
			c-0.5-0.5-1.2-0.7-2-0.7c-1.3,0-2.3,0.5-3.1,1.4v8.9l2.4,0.6l-0.2,1.3H287z"/>
	</g>
	<g>
		<g>
			<path class="st0" d="M230,82.1c0,0,0,7.2,0,25.3c0,28.3-33.3,50.9-33.3,50.9s-33.3-21.3-33.3-50.9c0-18,0-25.3,0-25.3
				s7.5-14,33.3-14S230,82.1,230,82.1z"/>
		</g>
		<g>
			<path class="st2" d="M196.3,156.7c-0.3-0.2-33.6-20.8-33.6-49.1V83.4l0.1-0.1c0.3-0.6,8-13.7,33.9-13.7s33.6,13.1,33.9,13.7
				l0.1,0.1v24.3c0,27-33.3,48.8-33.6,49l-0.3,0.2L196.3,156.7z"/>
			<path class="st0" d="M196.6,70.2c25.8,0,33.3,13.3,33.3,13.3s0,6.9,0,24.1c0,27-33.3,48.5-33.3,48.5s-33.3-20.3-33.3-48.5
				c0-17.2,0-24.1,0-24.1S170.8,70.2,196.6,70.2 M196.6,69c-26.2,0-34.1,13.4-34.4,14l-0.2,0.3v0.3v24.1c0,11.9,5.9,24.2,17,35.7
				c8.3,8.6,16.6,13.7,16.9,13.9l0.6,0.4l0.6-0.4c0.3-0.2,8.6-5.6,16.9-14.3c11.1-11.7,17-23.9,17-35.2V83.5v-0.3l-0.2-0.3
				C230.7,82.4,222.8,69,196.6,69L196.6,69z"/>
		</g>
		<g>
			<path class="st0" d="M159.8,143.6l0.1-0.5h7.1l-0.2,2.3l-0.6-0.1l-0.3-1.5h-3.3v3.4h2.1l0.3-0.9l0.7-0.1l-0.2,2.8l-0.6,0.1
				l-0.2-1.2h-1.9v3.5h3.5l0.7-1.6l0.6,0.1l-0.2,2.2h-7.2l0.1-0.5l1.2-0.3v-7.1L159.8,143.6z"/>
			<path class="st0" d="M167.7,150.9c0-0.2,0.1-0.5,0.3-0.6c0.2-0.2,0.4-0.3,0.7-0.3c0.1,0.5,0.3,0.9,0.6,1.1
				c0.2,0.2,0.5,0.4,0.8,0.4c0.3,0,0.5-0.1,0.7-0.2c0.2-0.1,0.3-0.3,0.3-0.5c0-0.2-0.1-0.3-0.2-0.4c-0.1-0.1-0.3-0.3-0.4-0.4
				c-0.2-0.1-0.4-0.2-0.6-0.4c-0.2-0.1-0.4-0.3-0.6-0.4c-0.2-0.1-0.4-0.3-0.6-0.5c-0.2-0.2-0.3-0.4-0.4-0.6
				c-0.1-0.2-0.2-0.5-0.2-0.7c0-0.2,0-0.4,0.1-0.6c0.1-0.2,0.2-0.4,0.4-0.6c0.2-0.2,0.4-0.3,0.7-0.5c0.3-0.1,0.6-0.2,0.9-0.2
				c0.5,0,0.9,0.1,1.2,0.3s0.5,0.5,0.5,0.9c0,0.3-0.1,0.5-0.3,0.7c-0.2,0.2-0.4,0.3-0.7,0.3l0-0.3c-0.2-0.9-0.5-1.3-1.1-1.3
				c-0.2,0-0.4,0.1-0.6,0.2c-0.1,0.2-0.2,0.4-0.2,0.6c0,0.2,0.1,0.3,0.2,0.5c0.1,0.2,0.3,0.3,0.4,0.4c0.2,0.1,0.4,0.2,0.6,0.4
				c0.2,0.1,0.4,0.2,0.7,0.4c0.2,0.1,0.4,0.3,0.6,0.4c0.2,0.2,0.3,0.3,0.4,0.6c0.1,0.2,0.2,0.5,0.2,0.7c0,0.3-0.1,0.6-0.3,0.9
				c-0.2,0.3-0.5,0.5-0.8,0.6c-0.3,0.2-0.7,0.2-1,0.2c-0.6,0-1.1-0.1-1.5-0.4C167.9,151.6,167.7,151.3,167.7,150.9z"/>
			<path class="st0" d="M172.8,146.4V146c0.6-0.5,1.2-1.1,1.8-1.8h0.4v1.5h2l-0.1,0.6h-2l0,3.3c0,0.5,0.1,0.9,0.2,1.1
				c0.2,0.2,0.4,0.3,0.8,0.3c0.2,0,0.3,0,0.5-0.1c0.2-0.1,0.3-0.1,0.4-0.2l0.1-0.1l0.1,0.4c-0.2,0.3-0.5,0.6-0.8,0.8
				c-0.3,0.2-0.7,0.3-1.1,0.3c-0.2,0-0.4,0-0.6-0.1c-0.2-0.1-0.3-0.2-0.5-0.3c-0.1-0.1-0.3-0.4-0.3-0.6c-0.1-0.3-0.1-0.6-0.1-1
				l0-3.7H172.8z"/>
			<path class="st0" d="M178,151.3c0-0.2,0.1-0.4,0.2-0.6c0.2-0.2,0.4-0.2,0.6-0.2c0.2,0,0.4,0.1,0.6,0.2c0.2,0.2,0.3,0.4,0.3,0.6
				c0,0.2-0.1,0.4-0.3,0.6c-0.2,0.2-0.4,0.3-0.6,0.3c-0.2,0-0.4-0.1-0.6-0.3C178.1,151.7,178,151.5,178,151.3z"/>
		</g>
		<g>
			<g>
				<g>
					<path class="st3" d="M199,107.1c-0.3,0.1-1-0.2-1-0.2l-0.7,0.6c-0.2,0.8-0.4,1.5-0.5,2.1c-0.3,1-0.4,1.7-0.6,2.2
						c-0.9-2.5-6-23.5-6-23.5c-0.6,0.1-1.1,0.3-1.7,0.4c-0.6,0.1-1.2,0.2-1.8,0.3c-1.7,0.2-3.1,0.5-4.3,0.7c-1.1,0.2-2,0.5-2.6,0.7
						c-1.9,0.8-3.3,2-4.4,3.5c-1.1,1.5-1.7,3.4-1.7,5.6c0,1.3,0.2,2.3,0.7,3c0.4,0.7,1,1,1.6,1c0.4,0,0.8-0.1,1.1-0.4
						c0.3-0.3,0.4-0.6,0.4-1c0-0.1-0.1-0.3-0.2-0.6c-0.1-0.3-0.2-0.5-0.4-0.8c-0.2-0.3-0.3-0.5-0.4-0.8s-0.2-0.5-0.3-0.6
						c-0.1-0.5-0.2-1-0.2-1.6c0-1.7,0.6-3.1,1.9-4.3c1.3-1.2,3.1-2,5.5-2.4c1.6-0.3,2.7-0.5,3.3-0.5c-0.8,4.5-1.7,8.5-2.5,12
						c-0.8,3.5-1.7,6.4-2.6,8.8c-0.9,2.4-1.8,4.2-2.8,5.5c-1,1.2-2,1.9-3.1,1.9c-0.3,0-0.7-0.1-1.1-0.4c-0.4-0.2-0.8-0.5-1.2-0.8
						c-0.4-0.3-0.8-0.5-1.2-0.8c-0.4-0.2-0.7-0.4-1-0.4c-0.4,0-0.7,0.1-1,0.4c-0.3,0.3-0.4,0.6-0.4,1c0,0.9,0.5,1.6,1.5,2.1
						c1,0.6,2.1,0.8,3.5,0.8c0.9,0,1.8-0.1,2.6-0.4c0.8-0.3,1.6-0.8,2.3-1.4c0.7-0.7,1.4-1.5,2-2.6c0.6-1.1,1.2-2.4,1.8-4.1
						c0,0,0.1-0.4,0.3-1.2c0.2-0.8,0.5-1.8,0.8-3c0.3-1.2,0.6-2.5,1-3.9c0.4-1.4,0.7-2.8,1-4.1c0.3-1.3,0.6-2.5,0.9-3.6
						c0.2-1.1,0.7-2,0.8-2.4c0,0,7,23.6,8.2,26.1l0.5-0.5l0.1-3C197.6,113,198.4,109.8,199,107.1L199,107.1z"/>
					<path class="st3" d="M212.9,82.2c-0.7-0.5-1.6-0.7-2.8-0.7c-1.3,0-5.4,0-8.3,9.2c-0.7,2.4-3.2,11-4.2,15.1
						c0,0.1-0.1,0.3-0.1,0.4l0,0c0.6-0.2,1.2-0.5,1.8-0.6l0,0c0.2-0.8,0.4-1.6,0.6-2.4c0.9-3.4,3.2-11.5,4-13.4
						c1.8-4.4,3.8-4.3,4.5-4.3h0.5c0.1,0,0.2,0,0.3,0c0,0,0.1,0,0.4,0.1l1.1,0.5c0.5,0.2,0.9,0.3,1.2,0.3c0.6,0,1.1-0.2,1.6-0.7
						c0.4-0.4,0.6-0.9,0.6-1.5C214.1,83.6,213.9,82.9,212.9,82.2z"/>
				</g>
				<g>
					<path class="st3" d="M192.1,122.2c0-0.1-0.1-0.4-0.2-0.7c-0.2-0.3-0.3-0.7-0.5-1.1c-0.2-0.4-0.3-0.8-0.5-1.1
						c-0.2-0.4-0.3-0.7-0.3-0.8c-0.2-0.8-0.3-1.5-0.3-2.2c0-1.3,0.3-2.7,0.9-4c0.2-0.4,0.4-0.8,0.6-1.1l-0.1-2.5l-0.4,0.3
						c-1,1.2-1.8,2.5-2.4,3.9c-0.7,1.8-1.1,3.5-1.1,5.3c0,1.7,0.2,3,0.7,4c0.5,1,1.1,1.5,2,1.5c0.5,0,0.9-0.1,1.2-0.4
						C191.9,123,192.1,122.6,192.1,122.2z"/>
					<path class="st3" d="M218.6,107.4c0.3-1.2,0.6-2.8,1.1-4.7c-1,0.2-1.8,0.4-2.4,0.5c-0.6,0.1-1.1,0.2-1.6,0.2
						c-0.4,0-0.9,0.1-1.3,0.1c-0.4,0-0.8,0-1.3,0h-9.8c-2.4,0-4.5,0.4-6.4,1.3c-1,0.4-1.8,0.9-2.6,1.5c-0.8,0.5-0.9,2.8-0.5,2.5
						c0.3-0.3,0.6-0.6,1-0.8c0.9-0.7,1.8-1.2,2.9-1.7c1.5-0.7,3.2-1,5-1l-4.2,16.4c-1.5,5.8-2.6,9.2-3.1,10.3
						c-0.1,0.3-0.3,0.6-0.5,0.8c-0.2,0.2-0.4,0.4-0.8,0.6c-0.3,0.2-1.2,0.6-1.2,0.6l-1.2-0.2l-0.8,0.7l-0.3,1.5
						c2-0.3,3.9-0.5,5.7-0.5c0.6,0,1.3,0,2.1,0.1c0.8,0,1.5,0.1,2.2,0.1c0.7,0,0.6,0.1,1.1,0.1c0.5,0,0.8,0.1,0.9,0.1
						c0.2,0,0.5,0,0.7,0c0.2,0,0.5,0,0.8-0.1l0.8-0.7l-0.3-0.9c-0.7,0.1-1.5,0.2-2.2,0.2c-1.2,0-1.8-0.1-3.2-0.3
						c0.3-0.7,0.6-1.7,1-3c0.4-1.2,0.8-2.6,1.2-4c0.4-1.4,0.8-2.8,1.1-4.2c0.4-1.4,0.7-2.7,1-3.9h4.5c0.6,0,1.1,0.1,1.5,0.1
						c0.4,0.1,0.6,0.1,0.8,0.2c0.2,0.1,0.3,0.2,0.4,0.3c0.1,0.1,0.1,0.3,0.1,0.5c0,0.1,0,0.3-0.1,0.6c0,0.3-0.1,0.7-0.2,1.3h1.5
						l0.8-0.7v-7.2l-0.8,0.7c0,0-0.3,1-0.4,1.3c-0.2,0.3-0.3,0.6-0.6,0.7c-0.2,0.1-0.6,0.2-1,0.3c-0.4,0-0.9,0.1-1.5,0.1h-4.6
						c0.1-0.6,0.4-1.5,0.6-2.6c0.3-1.1,0.6-2.2,0.9-3.4c0.3-1.2,0.6-2.3,0.9-3.4c0.3-1.1,0.5-1.9,0.7-2.6l5.4,0.1l1.7-0.1
						c1.2,0,1.9,0.1,2.4,0.4c0.4,0.3,0.6,0.7,0.6,1.3c0,0.4-0.1,1.4-0.4,3h1.5l0.8-0.7C218.8,109.3,218.4,108.3,218.6,107.4z"/>
				</g>
			</g>
			<path class="st4" d="M213.7,81.5c-0.7-0.5-1.6-0.7-2.8-0.7c-1.3,0-5.4,0-8.3,9.2c-0.7,2.4-3.2,11-4.2,15.1c0,0.1-0.1,0.3-0.1,0.4
				l0,0c0.6-0.2,1.2-0.5,1.8-0.6l0,0c0.2-0.8,0.4-1.6,0.6-2.4c0.9-3.4,3.2-11.5,4-13.4c1.8-4.4,3.8-4.3,4.5-4.3h0.5
				c0.1,0,0.2,0,0.3,0c0,0,0.1,0,0.4,0.1l1.1,0.5c0.5,0.2,0.9,0.3,1.2,0.3c0.6,0,1.1-0.2,1.6-0.7c0.4-0.4,0.6-0.9,0.6-1.5
				C214.8,83,214.6,82.2,213.7,81.5z"/>
			<g>
				<path class="st4" d="M192.8,121.6c0-0.1-0.1-0.4-0.2-0.7c-0.1-0.3-0.3-0.7-0.5-1.1c-0.2-0.4-0.3-0.8-0.5-1.1
					c-0.2-0.4-0.3-0.7-0.3-0.8c-0.2-0.8-0.3-1.5-0.3-2.2c0-1.3,0.3-2.7,0.9-4c0.2-0.3,0.3-0.7,0.5-1l-0.7-1.9
					c-0.9,1.1-1.6,2.2-2.1,3.5c-0.7,1.8-1.1,3.5-1.1,5.3c0,1.7,0.2,3,0.7,4c0.5,1,1.1,1.5,2,1.5c0.5,0,0.9-0.1,1.2-0.4
					C192.7,122.3,192.8,121.9,192.8,121.6z"/>
				<path class="st4" d="M218.1,102.5c-0.6,0.1-1.1,0.2-1.6,0.2c-0.4,0-0.9,0.1-1.3,0.1c-0.4,0-0.8,0-1.3,0h-9.8
					c-2.4,0-4.5,0.4-6.4,1.3c-1.9,0.9-3.5,2-4.9,3.3l0.6,1.8c0.3-0.4,0.7-0.8,1.1-1.2c1.1-1,2.4-1.8,3.8-2.5c0,0,0.5-0.2,0.7-0.3
					c0.4-0.2,1.1-0.4,1.1-0.4c1-0.3,2.1-0.4,3.3-0.4l-4.2,16.4c-1.5,5.8-2.6,9.2-3.1,10.3c-0.1,0.3-0.3,0.6-0.5,0.8
					c-0.2,0.2-0.4,0.4-0.8,0.6c-0.3,0.2-0.7,0.4-1.2,0.6c-0.5,0.2-1.1,0.4-1.9,0.5l-0.3,1.5c2-0.3,3.9-0.5,5.7-0.5
					c0.6,0,1.3,0,2.1,0.1c0.8,0,1.5,0.1,2.2,0.1c0.7,0,0.6,0.1,1.1,0.1c0.5,0,0.8,0.1,0.9,0.1c0.2,0,0.5,0,0.7,0
					c0.2,0,0.5,0,0.8-0.1l0.4-1.6c-0.7,0.1-1.5,0.2-2.2,0.2c-1.2,0-1.8-0.1-3.2-0.3c0.3-0.7,0.6-1.7,1-3c0.4-1.2,0.8-2.5,1.2-4
					c0.4-1.4,0.8-2.8,1.1-4.2c0.4-1.4,0.7-2.7,1-3.9h4.5c0.6,0,1.1,0.1,1.5,0.1c0.4,0.1,0.6,0.1,0.8,0.2c0.2,0.1,0.3,0.2,0.4,0.3
					c0.1,0.1,0.1,0.3,0.1,0.5c0,0.1,0,0.3-0.1,0.6c0,0.3-0.1,0.7-0.2,1.3h1.5c0.4-2.5,0.9-4.9,1.5-7.2h-1.5c-0.1,0.6-0.3,1-0.4,1.3
					c-0.2,0.3-0.3,0.6-0.6,0.7c-0.2,0.1-0.6,0.2-1,0.3c-0.4,0-0.9,0.1-1.5,0.1h-4.6c0.1-0.6,0.4-1.5,0.6-2.6
					c0.3-1.1,0.6-2.2,0.9-3.4c0.3-1.2,0.6-2.3,0.9-3.4c0.3-1.1,0.5-1.9,0.7-2.6l5.4,0.1l1.7-0.1c1.2,0,1.9,0.2,2.4,0.4
					c0.4,0.3,0.6,0.7,0.6,1.3c0,0.4-0.1,1.4-0.4,3h1.5c0.1-0.5,0.2-1.4,0.5-2.6c0.3-1.2,0.6-2.8,1.1-4.7
					C219.5,102.2,218.7,102.4,218.1,102.5z"/>
			</g>
			<path class="st4" d="M199.7,106.4c-0.6,0.1-1.2,0.3-1.7,0.5c-0.2,0.8-0.4,1.5-0.5,2c-0.3,1-0.4,1.7-0.6,2.2
				c-0.9-2.5-6-23.5-6-23.5c-0.6,0.1-1.1,0.3-1.7,0.4c-0.6,0.1-1.2,0.2-1.8,0.3c-1.7,0.2-3.1,0.5-4.3,0.7c-1.1,0.2-2,0.5-2.6,0.7
				c-1.9,0.8-3.3,2-4.4,3.5c-1.1,1.5-1.7,3.4-1.7,5.6c0,1.3,0.2,2.3,0.7,3c0.4,0.7,1,1,1.6,1c0.4,0,0.8-0.1,1.1-0.4
				c0.3-0.3,0.4-0.6,0.4-1c0-0.1-0.1-0.3-0.2-0.6c-0.1-0.3-0.2-0.5-0.4-0.8c-0.2-0.3-0.3-0.5-0.4-0.8c-0.1-0.3-0.2-0.5-0.3-0.6
				c-0.1-0.5-0.2-1-0.2-1.6c0-1.7,0.6-3.1,1.9-4.3c1.3-1.2,3.1-2,5.5-2.4c1.6-0.3,2.7-0.5,3.3-0.5c-0.8,4.5-1.7,8.5-2.5,12
				c-0.8,3.5-1.7,6.4-2.6,8.8c-0.9,2.4-1.8,4.2-2.8,5.5c-1,1.2-2,1.9-3.1,1.9c-0.3,0-0.7-0.1-1.1-0.4c-0.4-0.2-0.8-0.5-1.2-0.8
				c-0.4-0.3-0.8-0.5-1.2-0.8c-0.4-0.2-0.7-0.4-1-0.4c-0.4,0-0.7,0.1-1,0.4c-0.3,0.3-0.4,0.6-0.4,1c0,0.9,0.5,1.6,1.5,2.1
				c1,0.6,2.1,0.8,3.5,0.8c0.9,0,1.8-0.1,2.6-0.4c0.8-0.3,1.6-0.8,2.3-1.4c0.7-0.7,1.4-1.5,2-2.6c0.6-1.1,1.2-2.4,1.8-4.1
				c0,0,0.1-0.4,0.3-1.2c0.2-0.8,0.5-1.8,0.8-3c0.3-1.2,0.6-2.5,1-3.9c0.4-1.4,0.7-2.8,1-4.1c0.3-1.3,0.6-2.5,0.9-3.6
				c0.2-1.1,0.4-1.8,0.5-2.2c0,0,7,23.6,8.2,26.1l0.8-3.6C198.4,112.3,199.1,109.1,199.7,106.4L199.7,106.4z"/>
		</g>
		<g>
			<path class="st0" d="M214.4,151.9l0.1-0.5l1.3-0.3v-4.8l-1.2,0l0.1-0.5l2.2-0.5h0.2v6l1.3,0.2l-0.1,0.6H214.4z"/>
			<path class="st0" d="M218.5,147.8c0-0.8,0.3-1.4,0.8-2c0.5-0.5,1.1-0.8,1.8-0.8c0.4,0,0.8,0.1,1.2,0.3c0.3,0.2,0.6,0.4,0.8,0.7
				c0.2,0.3,0.3,0.6,0.4,1c0.1,0.4,0.1,0.8,0.1,1.2c0,0.8-0.2,1.6-0.6,2.4c-0.4,0.8-0.9,1.5-1.5,2.1c-0.7,0.6-1.4,1-2.1,1.3
				l-0.2-0.5c0.4-0.2,0.8-0.4,1.1-0.6c0.3-0.2,0.6-0.5,0.8-0.7c0.2-0.2,0.4-0.5,0.5-0.8c0.2-0.3,0.3-0.6,0.4-0.9
				c0.1-0.3,0.2-0.6,0.2-0.9h-0.1c-0.2,0.2-0.4,0.4-0.7,0.6c-0.3,0.1-0.6,0.2-0.9,0.2c-0.7,0-1.2-0.2-1.5-0.6
				C218.7,149.2,218.5,148.6,218.5,147.8z M219.8,147.6c0,0.7,0.1,1.1,0.3,1.4c0.2,0.3,0.5,0.5,1,0.5c0.2,0,0.5-0.1,0.7-0.2
				c0.2-0.1,0.4-0.3,0.5-0.4c0-0.2,0-0.5,0-1c0-0.4,0-0.8-0.1-1.1c-0.1-0.3-0.2-0.6-0.4-0.9s-0.4-0.3-0.7-0.3
				C220.2,145.6,219.8,146.3,219.8,147.6z"/>
			<path class="st0" d="M224,147.6l0.3-2.3h4.5l0.1,0.7c-0.9,1.6-1.5,2.7-1.8,3.3c-0.7,1.6-1.2,3.1-1.4,4.5c0,0.1,0,0.2,0,0.3
				c0,0-0.1,0-0.2,0c-0.1,0-0.1,0-0.2,0c-0.3,0-0.5-0.1-0.6-0.2c-0.1-0.2-0.2-0.3-0.2-0.6c0-0.8,1.1-3.1,3.4-6.9h-3l-0.5,1.3
				L224,147.6z"/>
			<path class="st0" d="M229.3,149.9c0-0.8,0.5-1.6,1.5-2.2v-0.1c-0.3-0.2-0.6-0.5-0.8-0.8c-0.3-0.4-0.4-0.8-0.4-1.2
				c0-0.6,0.2-1.1,0.7-1.6c0.4-0.4,1-0.7,1.6-0.7c0.6,0,1.1,0.2,1.5,0.5c0.4,0.3,0.6,0.8,0.6,1.3c0,0.8-0.4,1.5-1.2,2.1v0.1
				c1,0.6,1.5,1.4,1.5,2.3c0,0.7-0.3,1.2-0.8,1.7c-0.5,0.5-1.2,0.7-2,0.7c-0.7,0-1.2-0.2-1.6-0.6
				C229.5,151.1,229.3,150.6,229.3,149.9z M230.4,149.8c0,0.4,0.1,0.8,0.4,1.2c0.3,0.3,0.6,0.5,0.9,0.5c0.4,0,0.7-0.1,1-0.4
				c0.2-0.2,0.4-0.6,0.4-1.1c0-0.3-0.2-0.7-0.5-1c-0.3-0.3-0.8-0.7-1.4-1c-0.2,0.2-0.4,0.4-0.5,0.7
				C230.5,149.1,230.4,149.4,230.4,149.8z M230.6,145c0,0.4,0.1,0.8,0.4,1.2c0.3,0.4,0.6,0.7,1.1,1c0.1-0.1,0.2-0.3,0.3-0.4
				c0.1-0.1,0.1-0.3,0.2-0.5c0.1-0.2,0.1-0.5,0.1-0.8c0-0.4-0.1-0.8-0.3-1.1c-0.2-0.3-0.5-0.5-0.8-0.5c-0.3,0-0.5,0.1-0.7,0.3
				C230.7,144.5,230.6,144.7,230.6,145z"/>
		</g>
	</g>
</g>
<rect class="st5" width="394" height="340"/>
</svg>
