<?xml version="1.0" encoding="UTF-8"?>
<svg id="Layer_2" data-name="Layer 2" xmlns="http://www.w3.org/2000/svg" width="394" height="340" viewBox="0 0 394 340">
  <defs>
    <style>
      .cls-1 {
        fill: #a5aa43;
      }

      .cls-1, .cls-2, .cls-3, .cls-4, .cls-5 {
        stroke-width: 0px;
      }

      .cls-2 {
        fill: #58704c;
      }

      .cls-3 {
        fill: #fff;
      }

      .cls-4 {
        fill: #4d413a;
      }

      .cls-5 {
        fill: #9e8e81;
      }
    </style>
  </defs>
  <g id="Layer_1-2" data-name="Layer 1">
    <g>
      <rect class="cls-3" width="394" height="340"/>
      <g>
        <g>
          <path class="cls-2" d="m34.048,183.085v28.157h-7.35v-22.843c0-2.94-.226-5.089-.565-6.333-.452-1.244-1.244-2.714-2.601-4.41l6.446-4.523c1.018.679,2.035,1.809,2.827,3.506,2.827-2.262,4.749-3.506,5.654-3.506,1.018,0,2.601.905,4.749,2.827s3.506,3.166,4.071,3.958.792,1.809.792,3.053v28.271h-7.463v-27.14c0-.339-.113-.679-.452-1.244s-.678-1.018-1.244-1.583-1.018-.905-1.583-.905c-.452,0-1.131.226-1.809.792-.452.565-1.018,1.244-1.47,1.922Z"/>
          <path class="cls-2" d="m65.033,209.32c-2.149,1.696-3.845,2.601-4.863,2.601s-2.601-.905-4.863-2.601c-2.149-1.696-3.506-3.053-4.071-3.845-.792-1.357-1.131-4.184-1.131-8.481,0-4.41.339-7.237,1.131-8.481.452-.905,1.809-2.149,4.071-3.845,2.149-1.696,3.845-2.601,4.863-2.601s2.601.905,4.863,2.601c2.149,1.696,3.506,3.053,4.071,3.845.792,1.244,1.131,4.071,1.131,8.481s-.339,7.237-1.131,8.481c-.452.792-1.809,2.035-4.071,3.845Zm-6.106-4.297c.565.565,1.018.792,1.357.792s.792-.226,1.357-.792.905-1.018,1.244-1.47c.452-.792.678-2.94.678-6.559s-.226-5.88-.678-6.672c-.226-.452-.678-.905-1.244-1.47s-1.018-.792-1.357-.792-.792.226-1.357.792-.905,1.018-1.244,1.47c-.452.792-.678,2.94-.678,6.559s.226,5.88.678,6.672c.339.452.678.905,1.244,1.47Z"/>
          <path class="cls-2" d="m80.186,188.173v11.761c0,1.696.565,3.166,1.696,4.636,1.131,1.357,2.714,2.488,4.749,3.279l-5.88,4.071c-2.149-1.018-3.958-2.375-5.428-4.184-1.47-1.809-2.149-3.619-2.149-5.541v-14.022h-2.714v-3.958l2.714-.679c-.113-1.696-.339-3.166-.678-4.184-.339-1.018-1.018-2.035-2.035-2.94l5.88-4.071c2.601,2.035,3.845,4.863,3.845,8.594v1.583h5.993v5.654h-5.993Z"/>
          <path class="cls-2" d="m96.357,188.173v11.761c0,1.696.565,3.166,1.696,4.636,1.131,1.357,2.714,2.488,4.749,3.279l-5.88,4.071c-2.149-1.018-3.958-2.375-5.428-4.184-1.47-1.809-2.149-3.619-2.149-5.541v-14.022h-2.714v-3.958l2.714-.679c-.113-1.696-.339-3.166-.678-4.184-.339-1.018-1.018-2.035-2.035-2.94l5.88-4.071c2.601,2.035,3.845,4.863,3.845,8.594v1.583h5.993v5.654h-5.993Z"/>
          <path class="cls-2" d="m107.665,171.324c.339,0,1.244.565,2.601,1.696,1.357,1.131,2.035,1.922,2.035,2.375s-.678,1.244-2.035,2.375c-1.357,1.131-2.262,1.809-2.601,1.809s-1.244-.565-2.601-1.696c-1.357-1.131-2.035-1.922-2.035-2.375s.678-1.244,2.035-2.375c1.357-1.131,2.262-1.809,2.601-1.809Zm-3.619,11.195h7.011v18.432c0,1.809.226,3.166.678,4.184s1.131,1.922,2.035,2.601l-5.88,4.071c-2.601-2.035-3.845-4.863-3.845-8.594v-20.694Z"/>
          <path class="cls-2" d="m122.139,211.242h-7.011v-18.432c0-1.809-.226-3.166-.678-4.184s-1.131-1.922-2.035-2.601l5.88-4.071c1.357,1.018,2.262,2.262,2.94,3.732,2.601-2.488,4.523-3.732,5.541-3.732s2.714,1.018,4.863,2.94c2.149,1.922,3.279,3.958,3.279,5.88v10.291c0,1.809.226,3.166.679,4.184.452,1.018,1.131,1.922,2.035,2.601l-5.88,4.071c-2.601-2.035-3.845-4.863-3.845-8.594v-11.874c0-.565-.339-1.244-.905-1.922-.679-.679-1.244-1.018-1.809-1.018s-1.583.792-3.053,2.262v20.468Z"/>
          <path class="cls-2" d="m157.76,182.519v27.027c0,4.523-.226,7.237-.565,8.142-.452.905-1.809,2.262-4.297,4.184s-4.297,2.827-5.541,2.827-2.714-.565-4.636-1.809c-1.809-1.244-3.279-2.601-4.184-4.297l5.541-3.732.565.679c1.357,1.696,2.262,2.488,2.714,2.488s1.131-.226,1.809-.679c.679-.452,1.131-.905,1.357-1.47s.339-2.714.339-6.559l.113-2.035c-2.375,1.696-4.071,2.601-4.976,2.601s-2.262-.905-4.184-2.827-3.053-3.279-3.392-4.184-.565-3.166-.565-6.898c0-3.619.226-5.993.565-6.898s1.583-2.375,3.392-4.297c1.922-1.922,3.279-2.827,4.297-2.827s2.94,1.131,5.654,3.392l.679-2.827h5.315Zm-7.237,8.029c-.226-.452-.792-.905-1.47-1.357-.792-.452-1.357-.679-1.696-.679s-.792.226-1.244.679-.792.905-.905,1.244c-.339.565-.452,2.375-.452,5.315s.113,4.749.452,5.315c.113.339.452.792.905,1.244s.905.679,1.244.679,1.018-.226,1.696-.679c.792-.452,1.244-.905,1.47-1.357s.339-2.149.339-5.202-.113-4.749-.339-5.202Z"/>
          <path class="cls-2" d="m168.051,211.242h-7.011v-29.175c0-1.809-.226-3.166-.679-4.184-.452-.905-1.131-1.809-2.035-2.601l5.88-4.071c2.601,2.035,3.845,4.863,3.845,8.594v4.976c2.262-1.922,3.845-2.94,4.749-2.94,1.018,0,2.601,1.018,4.749,2.94,2.149,1.922,3.279,3.958,3.279,5.88v10.291c0,1.809.226,3.166.679,4.184.452,1.018,1.131,1.922,2.035,2.601l-5.88,4.071c-2.601-2.035-3.845-4.863-3.845-8.594v-11.874c0-.565-.339-1.244-.905-1.922-.679-.679-1.244-1.018-1.809-1.018s-1.583.792-3.053,2.262v20.581h0Z"/>
          <path class="cls-2" d="m204.124,182.519v21.825c.226,1.244,1.018,2.375,2.488,3.279l-4.749,4.071c-.452-.339-1.018-.905-1.696-1.696s-1.244-1.696-1.696-2.488c-2.94,2.827-4.976,4.297-6.22,4.297-.905,0-2.262-.905-4.184-2.827s-3.053-3.392-3.506-4.636-.679-3.732-.679-7.577.226-6.446.679-7.577,1.696-2.714,3.506-4.636,3.279-2.827,4.184-2.827c1.244,0,3.279,1.244,5.993,3.845l.679-3.166h5.202v.113Zm-7.463,8.142c-.226-.452-.792-.905-1.47-1.357s-1.357-.679-1.696-.679-.792.226-1.244.679-.792.905-.905,1.244c-.452.679-.679,2.714-.679,6.333s.226,5.767.679,6.333c.113.339.452.792.905,1.244s.905.679,1.244.679,1.018-.226,1.696-.679,1.244-.905,1.47-1.357c.226-.339.339-2.488.452-6.22,0-3.732-.113-5.767-.452-6.22Z"/>
          <path class="cls-2" d="m227.645,211.242h-7.011v-19.789c0-.565-.339-1.244-.905-1.922-.679-.679-1.131-1.018-1.583-1.018s-1.131.452-2.149,1.244v21.486h-7.011v-18.432c0-1.809-.226-3.166-.679-4.184-.452-1.018-1.131-1.922-2.035-2.601l5.88-4.071c1.131,1.018,2.035,2.035,2.601,3.053,2.262-2.035,3.958-3.053,4.749-3.053.565,0,1.357.339,2.601,1.131s2.262,1.696,3.279,2.827c2.827-2.714,4.749-3.958,5.88-3.958s2.714,1.018,4.863,2.94c2.149,1.922,3.279,3.958,3.279,5.88v10.291c0,1.809.226,3.166.679,4.184.452,1.018,1.131,1.922,2.035,2.601l-5.88,4.071c-2.601-2.035-3.845-4.863-3.845-8.594v-11.874c0-.565-.339-1.244-.905-1.922-.679-.679-1.131-1.018-1.583-1.018s-1.131.452-2.262,1.357c.113.339.113.679.113.792v20.581h-.113Z"/>
          <path class="cls-2" d="m255.577,211.242v-21.259c0-4.41.339-7.237,1.018-8.481.679-1.244,2.262-2.94,4.523-5.089,2.375-2.149,4.071-3.166,5.202-3.166,1.583,0,3.506.679,5.767,1.922,2.262,1.244,4.071,2.601,5.202,4.184l-5.88,4.071c-2.035-2.035-3.619-2.94-4.749-2.94-.452,0-1.018.339-1.583.905s-1.131,1.244-1.47,1.922-.565,2.375-.565,4.976v1.244h9.499v6.446h-9.499v15.379h-7.463v-.113Z"/>
          <path class="cls-2" d="m289.501,209.32c-2.149,1.696-3.845,2.601-4.863,2.601s-2.601-.905-4.863-2.601c-2.149-1.696-3.506-3.053-4.071-3.845-.792-1.357-1.131-4.184-1.131-8.481,0-4.41.339-7.237,1.131-8.481.452-.905,1.809-2.149,4.071-3.845,2.149-1.696,3.845-2.601,4.863-2.601s2.601.905,4.863,2.601c2.149,1.696,3.506,3.053,4.071,3.845.792,1.244,1.131,4.071,1.131,8.481s-.339,7.237-1.131,8.481c-.565.792-1.922,2.035-4.071,3.845Zm-6.22-4.297c.565.565,1.018.792,1.357.792s.792-.226,1.357-.792.905-1.018,1.244-1.47c.452-.792.679-2.94.679-6.559s-.226-5.88-.679-6.672c-.226-.452-.679-.905-1.244-1.47s-1.018-.792-1.357-.792-.792.226-1.357.792-.905,1.018-1.244,1.47c-.452.792-.679,2.94-.679,6.559s.226,5.88.679,6.672c.339.452.679.905,1.244,1.47Z"/>
          <path class="cls-2" d="m304.541,211.242h-7.011v-18.432c0-1.809-.226-3.279-.679-4.297-.452-1.018-1.131-1.922-2.035-2.601l5.88-4.071c1.244,1.018,2.262,2.262,2.94,3.732,2.601-2.488,4.523-3.732,5.541-3.732.679,0,1.809.679,3.279,1.922,1.47,1.357,2.262,2.714,2.601,4.297l-5.654,4.071c0-.905-.226-1.696-.565-2.488s-.679-1.244-1.018-1.244c-.565,0-1.696.792-3.166,2.262v20.581h-.113Z"/>
          <path class="cls-2" d="m333.943,196.768v1.922h-12.891c0,2.149.226,3.845.792,5.089.226.452.452.905.905,1.357s.905.679,1.47.679,1.131-.452,1.922-1.244c.792-.905,1.357-1.922,1.809-3.053l5.541,3.845c-.905,1.809-2.375,3.279-4.41,4.636-1.922,1.357-3.619,1.922-4.749,1.922-1.244,0-2.94-.905-5.202-2.827s-3.732-3.392-4.184-4.41c-.452-1.018-.792-3.619-.792-7.803s.226-6.785.792-7.803c.452-1.018,1.922-2.488,4.184-4.41s3.958-2.827,5.089-2.827c1.018,0,2.714.905,5.089,2.827,2.262,1.922,3.732,3.392,4.184,4.41.226,1.131.452,3.619.452,7.69Zm-7.463-6.672c-.226-.452-.679-.905-1.244-1.47-.565-.452-1.018-.679-1.583-.679-.452,0-1.018.452-1.583,1.47-.565.905-1.018,2.375-1.131,4.297h6.106c-.113-1.922-.226-3.166-.565-3.619Z"/>
          <path class="cls-2" d="m354.524,202.648c0,1.131-1.357,2.94-4.071,5.428s-4.749,3.845-6.106,3.845-2.94-.679-4.976-1.922c-1.922-1.357-3.392-2.827-4.41-4.636l5.541-3.732c1.809,2.488,3.053,3.732,3.845,3.732.565,0,1.357-.339,2.262-.905s1.357-1.131,1.357-1.696c0-.113-.452-.452-1.244-.905-.905-.452-1.922-1.131-3.166-1.809s-2.488-1.583-3.619-2.488c-1.244-.905-2.262-2.035-3.053-3.279-.905-1.357-1.244-2.601-1.244-3.958s1.244-3.053,3.619-5.089,4.297-3.053,5.541-3.053,2.94.679,4.863,1.922c1.922,1.357,3.392,2.827,4.41,4.636l-5.541,3.732c-1.809-2.488-3.053-3.732-3.845-3.732-.452,0-.905.226-1.583.679-.679.452-.905.905-.905,1.357,0,.339.679,1.018,1.922,1.809,1.244.792,2.714,1.696,4.297,2.488,1.583.905,2.94,2.035,4.297,3.392,1.244,1.244,1.809,2.714,1.809,4.184Z"/>
          <path class="cls-2" d="m364.023,188.173v11.761c0,1.696.565,3.166,1.696,4.636,1.131,1.357,2.714,2.488,4.749,3.279l-5.88,4.071c-2.149-1.018-3.958-2.375-5.428-4.184-1.47-1.809-2.149-3.619-2.149-5.541v-14.022h-2.714v-3.958l2.714-.679c-.113-1.696-.339-3.166-.679-4.184s-1.018-2.035-2.035-2.94l5.88-4.071c2.601,2.035,3.845,4.863,3.845,8.594v1.583h5.993v5.654h-5.993Z"/>
          <path class="cls-1" d="m66.955,226.395l.226-1.357h9.725l-.226,1.357-3.053.679v7.916h11.308v-7.803l-3.279-.792.226-1.357h9.838l-.226,1.357-3.053.679v18.206l3.279.565-.226,1.47h-9.725l.226-1.357,2.94-.792v-8.368h-11.195v8.481l3.279.565-.226,1.47h-9.725l.113-1.357,3.053-.792v-18.093l-3.279-.679Z"/>
          <path class="cls-1" d="m91.72,239.739c0-1.357.226-2.488.678-3.619s1.018-2.035,1.696-2.714,1.583-1.244,2.488-1.696c.905-.339,1.922-.565,2.94-.565,2.149,0,3.958.792,5.202,2.262s1.922,3.506,1.922,5.993-.678,4.523-2.149,6.106-3.279,2.375-5.315,2.375c-2.262,0-4.071-.792-5.428-2.262-1.47-1.583-2.035-3.506-2.035-5.88Zm3.166-1.244c0,1.018.113,1.922.226,2.714s.452,1.696.792,2.488c.339.792.905,1.357,1.47,1.809.678.452,1.357.679,2.262.679,1.131,0,2.149-.565,2.714-1.583s1.018-2.262,1.018-3.619c0-.905-.113-1.809-.226-2.714-.226-.905-.452-1.696-.792-2.488-.339-.792-.792-1.47-1.47-1.922-.678-.452-1.357-.679-2.149-.679-.905,0-1.583.226-2.149.792s-1.018,1.131-1.244,1.922c-.339.678-.452,1.583-.452,2.601Z"/>
          <path class="cls-1" d="m107.552,247.428l.226-1.357,2.714-.679v-10.856l-2.827-.905.226-1.357,5.428-.792.339.339-.339,2.262h.113c.678-.792,1.47-1.47,2.375-2.035.905-.565,1.922-.792,3.053-.792.905,0,1.696.226,2.488.679.792.452,1.244,1.244,1.47,2.262h.226c.679-.792,1.357-1.47,2.375-2.035.905-.565,1.922-.792,2.94-.792,2.827,0,4.184,1.696,4.184,4.976v8.82l2.488.679-.226,1.47h-7.69l.113-1.357,2.262-.679v-8.481c0-.905-.226-1.696-.792-2.262s-1.244-.905-2.262-.905c-.679,0-1.357.113-1.809.452-.565.339-1.018.792-1.583,1.357v9.838l2.714.679-.226,1.47h-7.916l.226-1.357,2.375-.679v-8.481c0-.905-.339-1.696-.905-2.262s-1.357-.905-2.149-.905c-1.47,0-2.601.565-3.506,1.583v10.064l2.601.679-.226,1.47h-8.481v-.113Z"/>
          <path class="cls-1" d="m135.483,239.739c0-1.244.226-2.488.679-3.619.452-1.131,1.018-2.035,1.696-2.714.679-.679,1.47-1.244,2.375-1.583.905-.339,1.696-.565,2.601-.565,1.357,0,2.488.452,3.392,1.47.905,1.018,1.357,2.375,1.357,4.184,0,.792-.113,1.47-.339,2.375l-8.707.113c0,.565.113,1.131.226,1.696.113.565.339,1.131.565,1.696s.565,1.018,1.018,1.47c.339.452.792.679,1.357,1.018.565.226,1.131.339,1.809.339h1.244c.226,0,.679-.113,1.131-.226.452-.113,1.018-.339,1.583-.679l.339.905c-.679.792-1.583,1.357-2.601,1.809-1.018.452-2.149.679-3.279.679-.905,0-1.696-.226-2.488-.565s-1.47-.905-2.149-1.583-1.131-1.583-1.583-2.601c-.113-1.131-.226-2.375-.226-3.619Zm3.166-1.696l5.654-.452c.113-.339.113-.679.113-1.244,0-2.262-.792-3.392-2.488-3.392-.792,0-1.583.452-2.149,1.244-.679.905-1.018,2.149-1.131,3.845Z"/>
          <path class="cls-1" d="m149.053,244.828c0-.679.226-1.131.679-1.583.452-.452,1.018-.679,1.696-.792.339,1.244.905,2.149,1.47,2.827s1.244.905,1.922.905,1.244-.113,1.696-.452c.452-.339.679-.792.679-1.357,0-.339-.113-.792-.452-1.131s-.679-.679-1.131-.905-.905-.565-1.47-.905-1.131-.679-1.696-1.018c-.565-.339-1.018-.792-1.47-1.131-.452-.452-.792-.905-1.131-1.47-.226-.565-.452-1.244-.452-1.922,0-.565.113-1.131.339-1.583.226-.565.565-1.018,1.018-1.583.452-.452,1.018-.905,1.696-1.131s1.47-.452,2.375-.452c1.244,0,2.262.226,3.166.792s1.244,1.244,1.244,2.149c0,.792-.226,1.357-.679,1.809s-1.018.679-1.809.792l-.113-.792c-.452-2.149-1.357-3.279-2.714-3.279-.565,0-1.131.226-1.47.679-.339.452-.565.905-.565,1.583,0,.452.113.905.452,1.244.339.339.679.792,1.131,1.018s1.018.565,1.583.905,1.131.679,1.696,1.018c.565.339,1.131.679,1.583,1.131.452.339.792.905,1.131,1.357.339.565.452,1.131.452,1.809,0,.905-.226,1.583-.792,2.375s-1.244,1.244-2.035,1.696-1.696.565-2.601.565c-1.583,0-2.827-.339-3.732-.905-1.244-.679-1.696-1.357-1.696-2.262Z"/>
          <path class="cls-1" d="m163.98,247.428l.113-1.357,2.714-1.018,7.916-19.903,2.714-.565,7.011,20.581,2.488.792-.113,1.47h-9.273l.226-1.357,3.053-1.018-1.922-5.428h-7.577l-2.035,5.541,3.392.792-.226,1.47h-8.481Zm8.029-9.612h6.333l-2.94-8.933-3.392,8.933Z"/>
          <path class="cls-1" d="m187.049,244.828c0-.679.226-1.131.679-1.583.452-.452,1.018-.679,1.696-.792.339,1.244.905,2.149,1.47,2.827s1.244.905,1.922.905,1.244-.113,1.696-.452c.452-.339.679-.792.679-1.357,0-.339-.113-.792-.452-1.131-.226-.339-.679-.679-1.131-.905s-.905-.565-1.47-.905-1.131-.679-1.696-1.018c-.565-.339-1.018-.792-1.47-1.131-.452-.452-.792-.905-1.131-1.47-.226-.565-.452-1.244-.452-1.922,0-.565.113-1.131.339-1.583.226-.565.565-1.018,1.018-1.583.452-.452,1.018-.905,1.696-1.131.679-.339,1.47-.452,2.375-.452,1.244,0,2.262.226,3.166.792.792.565,1.244,1.244,1.244,2.149,0,.792-.226,1.357-.679,1.809s-1.018.679-1.809.792l-.113-.792c-.452-2.149-1.357-3.279-2.714-3.279-.565,0-1.131.226-1.47.679-.339.452-.565.905-.565,1.583,0,.452.113.905.452,1.244.339.339.679.792,1.131,1.018s1.018.565,1.583.905,1.131.679,1.696,1.018c.565.339,1.131.679,1.583,1.131.452.339.792.905,1.131,1.357.339.565.452,1.131.452,1.809,0,.905-.226,1.583-.792,2.375s-1.244,1.244-2.035,1.696c-.792.339-1.696.565-2.601.565-1.583,0-2.827-.339-3.732-.905s-1.696-1.357-1.696-2.262Z"/>
          <path class="cls-1" d="m198.922,244.828c0-.679.226-1.131.679-1.583.452-.452,1.018-.679,1.696-.792.339,1.244.905,2.149,1.47,2.827s1.244.905,1.922.905,1.244-.113,1.696-.452c.452-.339.679-.792.679-1.357,0-.339-.113-.792-.452-1.131-.226-.339-.679-.679-1.131-.905s-.905-.565-1.47-.905-1.131-.679-1.696-1.018c-.565-.339-1.018-.792-1.47-1.131-.452-.452-.792-.905-1.131-1.47-.226-.565-.452-1.244-.452-1.922,0-.565.113-1.131.339-1.583.226-.565.565-1.018,1.018-1.583.452-.452,1.018-.905,1.696-1.131.679-.339,1.47-.452,2.375-.452,1.244,0,2.262.226,3.166.792.792.565,1.244,1.244,1.244,2.149,0,.792-.226,1.357-.679,1.809s-1.018.679-1.809.792l-.113-.792c-.452-2.149-1.357-3.279-2.714-3.279-.565,0-1.131.226-1.47.679-.339.452-.565.905-.565,1.583,0,.452.113.905.452,1.244.339.339.679.792,1.131,1.018s1.018.565,1.583.905,1.131.679,1.696,1.018c.565.339,1.131.679,1.583,1.131.452.339.792.905,1.131,1.357.339.565.452,1.131.452,1.809,0,.905-.226,1.583-.792,2.375s-1.244,1.244-2.035,1.696c-.792.339-1.696.565-2.601.565-1.583,0-2.827-.339-3.732-.905s-1.696-1.357-1.696-2.262Z"/>
          <path class="cls-1" d="m210.683,239.739c0-1.357.226-2.488.679-3.619.452-1.131,1.018-2.035,1.696-2.714.679-.679,1.583-1.244,2.488-1.696.905-.339,1.922-.565,2.94-.565,2.149,0,3.958.792,5.202,2.262s1.922,3.506,1.922,5.993-.679,4.523-2.149,6.106-3.279,2.375-5.315,2.375c-2.262,0-4.071-.792-5.428-2.262-1.357-1.583-2.036-3.506-2.036-5.88Zm3.166-1.244c0,1.018.113,1.922.226,2.714.226.905.452,1.696.792,2.488s.905,1.357,1.47,1.809c.679.452,1.357.679,2.262.679,1.131,0,2.149-.565,2.714-1.583.679-1.018,1.018-2.262,1.018-3.619,0-.905-.113-1.809-.226-2.714-.226-.905-.452-1.696-.792-2.488s-.792-1.47-1.47-1.922-1.357-.679-2.149-.679c-.905,0-1.583.226-2.149.792s-1.018,1.131-1.244,1.922c-.339.678-.452,1.583-.452,2.601Z"/>
          <path class="cls-1" d="m226.741,239.965c0-1.244.226-2.488.679-3.619.452-1.131,1.018-2.035,1.696-2.714.679-.792,1.47-1.357,2.488-1.696s1.809-.565,2.827-.565c1.47,0,2.488.226,3.279.792s1.131,1.131,1.131,1.922c0,.565-.226,1.018-.565,1.357s-.905.565-1.696.565c-.113-.339-.339-.679-.452-1.018-.113-.226-.339-.565-.565-.905s-.565-.565-.792-.792c-.339-.226-.679-.226-1.018-.226-1.018,0-1.922.452-2.601,1.47-.679,1.018-1.018,2.262-1.018,3.958,0,.792.113,1.583.339,2.488.226.792.565,1.696.905,2.375.452.792,1.018,1.357,1.696,1.922.679.452,1.47.792,2.375.792.792,0,1.47-.113,2.035-.339s1.131-.452,1.583-.792l.452,1.018c-.452.565-1.244,1.131-2.375,1.583s-2.149.679-3.279.679c-2.149,0-3.845-.792-5.089-2.375s-2.036-3.732-2.036-5.88Z"/>
          <path class="cls-1" d="m239.745,247.428l.226-1.47,2.714-.679v-11.082l-2.714-1.018.226-1.357,5.089-.452.452.452v13.344l2.827.679-.226,1.47h-8.594v.113Zm2.149-21.486c0-.565.226-1.018.679-1.47.452-.339.905-.565,1.47-.565s1.131.226,1.583.565.679.905.679,1.47-.226,1.131-.679,1.583c-.452.452-.905.679-1.583.679-.565,0-1.131-.226-1.47-.679s-.679-1.018-.679-1.583Z"/>
          <path class="cls-1" d="m248.792,244.375c0-.679.113-1.357.452-1.922s.792-1.244,1.47-1.696c.679-.565,1.47-1.018,2.601-1.357s2.375-.565,3.732-.679v-1.018c0-.679,0-1.244-.113-1.809s-.226-1.018-.452-1.47c-.226-.452-.565-.792-1.018-1.131-.452-.226-.905-.339-1.583-.339-.339,0-.565,0-.792.113s-.339.226-.565.339c-.113.113-.226.339-.339.679-.113.226-.113.565-.226,1.018,0,.339-.113.905-.113,1.47v.339h-.679c-.226,0-.339,0-.679-.113s-.452-.113-.565-.339c-.113-.113-.339-.339-.452-.565-.113-.226-.226-.565-.226-.905,0-.565.339-1.244,1.018-1.809s1.47-1.018,2.488-1.357c.905-.339,1.809-.452,2.714-.452,1.583,0,2.714.452,3.392,1.357s1.018,2.262,1.018,4.184v6.559c0,.792.113,1.47.339,1.696.226.339.792.565,1.583.679l.905.113-.226,1.583c-.113,0-.452.113-1.018.226-.565.113-1.018.113-1.47.113-.905,0-1.696-.226-2.149-.792-.452-.452-.679-1.018-.679-1.696v-.226h-.226c-.113.339-.339.565-.565.905s-.565.565-.905.905-.905.565-1.47.792-1.244.339-1.922.339c-1.018,0-1.809-.339-2.488-.905-.452-.905-.792-1.809-.792-2.827Zm3.166-.905c0,.452.226,1.018.565,1.47.339.452.905.679,1.47.679s1.131-.113,1.696-.452c.565-.339,1.018-.679,1.357-1.131v-4.297c-1.922.339-3.166.905-3.958,1.47-.679.565-1.131,1.357-1.131,2.262Z"/>
          <path class="cls-1" d="m262.701,233.293v-1.018c1.583-1.131,3.053-2.714,4.41-4.523h.905v3.958h5.089l-.113,1.583h-4.976v8.255c0,1.357.226,2.262.565,2.714.452.565,1.131.792,2.035.792.339,0,.792-.113,1.244-.226.452-.113.792-.339,1.018-.452l.339-.226.339,1.018c-.565.792-1.244,1.47-2.149,1.922s-1.809.679-2.714.679c-.565,0-1.131-.113-1.583-.226-.452-.113-.792-.452-1.244-.792-.339-.339-.679-.905-.792-1.583s-.226-1.47-.226-2.488l.113-9.386h-2.262Z"/>
          <path class="cls-1" d="m273.783,247.428l.226-1.47,2.714-.679v-11.082l-2.714-1.018.226-1.357,5.089-.452.452.452v13.344l2.827.679-.226,1.47h-8.594v.113Zm2.149-21.486c0-.565.226-1.018.679-1.47.452-.339.905-.565,1.47-.565s1.131.226,1.583.565.679.905.679,1.47-.226,1.131-.679,1.583-.905.679-1.583.679c-.565,0-1.131-.226-1.47-.679s-.679-1.018-.679-1.583Z"/>
          <path class="cls-1" d="m282.943,239.739c0-1.357.226-2.488.679-3.619s1.018-2.035,1.696-2.714c.679-.679,1.583-1.244,2.488-1.696.905-.339,1.922-.565,2.94-.565,2.149,0,3.958.792,5.202,2.262s1.922,3.506,1.922,5.993-.679,4.523-2.149,6.106-3.279,2.375-5.315,2.375c-2.262,0-4.071-.792-5.428-2.262-1.357-1.583-2.036-3.506-2.036-5.88Zm3.279-1.244c0,1.018.113,1.922.226,2.714.226.905.452,1.696.792,2.488.339.792.905,1.357,1.47,1.809.679.452,1.357.679,2.262.679,1.131,0,2.149-.565,2.714-1.583.679-1.018,1.018-2.262,1.018-3.619,0-.905-.113-1.809-.226-2.714-.226-.905-.452-1.696-.792-2.488-.339-.792-.792-1.47-1.47-1.922-.679-.452-1.357-.679-2.149-.679-.905,0-1.583.226-2.149.792s-1.018,1.131-1.244,1.922c-.339.678-.452,1.583-.452,2.601Z"/>
          <path class="cls-1" d="m298.774,247.428l.226-1.357,2.714-.792v-10.856l-2.714-.905.226-1.357,5.315-.679.339.339-.339,2.262h.226c.679-.792,1.47-1.47,2.375-2.035s1.922-.792,2.94-.792c1.357,0,2.488.452,3.166,1.357.792.905,1.131,2.149,1.131,3.732v9.047l2.601.679-.226,1.47h-8.029l.226-1.357,2.488-.792v-8.368c0-1.131-.339-1.922-.905-2.488s-1.357-.792-2.262-.792c-1.47,0-2.601.565-3.506,1.583v10.064l2.714.679-.226,1.47h-8.481v-.113Z"/>
        </g>
        <g>
          <path class="cls-2" d="m234.317,71.812v28.61c0,32.002-37.656,57.559-37.656,57.559,0,0-37.656-24.087-37.656-57.559v-28.61s8.481-15.832,37.656-15.832,37.656,15.832,37.656,15.832Z"/>
          <g>
            <path class="cls-4" d="m196.208,156.171c-.339-.226-37.996-23.521-37.996-55.523v-27.366l.113-.113c.339-.678,9.047-15.492,38.335-15.492s37.996,14.814,38.335,15.492l.113.113v27.479c0,30.532-37.656,55.184-37.996,55.41l-.339.226-.565-.226Z"/>
            <path class="cls-2" d="m196.548,58.355c29.175,0,37.656,15.04,37.656,15.04v27.253c0,30.532-37.656,54.845-37.656,54.845,0,0-37.656-22.956-37.656-54.845v-27.253s8.481-15.04,37.656-15.04m0-1.357c-29.628,0-38.561,15.153-38.9,15.832l-.226.339v27.592c0,13.457,6.672,27.366,19.224,40.37,9.386,9.725,18.772,15.492,19.111,15.718l.679.452.679-.452c.339-.226,9.725-6.333,19.111-16.171,12.552-13.231,19.224-27.027,19.224-39.805v-27.818l-.226-.339c-.113-.565-9.047-15.718-38.674-15.718h0Z"/>
          </g>
          <g>
            <path class="cls-2" d="m154.933,141.357l.113-.565h8.029l-.226,2.601-.679-.113-.339-1.696h-3.732v3.845h2.375l.339-1.018.792-.113-.226,3.166-.679.113-.226-1.357h-2.149v3.958h3.958l.792-1.809.679.113-.226,2.488h-8.142l.113-.565,1.357-.339v-8.029l-1.922-.678Z"/>
            <path class="cls-2" d="m163.867,149.612c0-.226.113-.565.339-.679.226-.226.452-.339.792-.339.113.565.339,1.018.679,1.244.226.226.565.452.905.452s.565-.113.792-.226c.226-.113.339-.339.339-.565s-.113-.339-.226-.452l-.452-.452c-.226-.113-.452-.226-.679-.452-.226-.113-.452-.339-.679-.452-.226-.113-.452-.339-.679-.565-.226-.226-.339-.452-.452-.679-.113-.226-.226-.565-.226-.792s0-.452.113-.679c.113-.226.226-.452.452-.679.226-.226.452-.339.792-.565.339-.113.679-.226,1.018-.226.565,0,1.018.113,1.357.339s.565.565.565,1.018c0,.339-.113.565-.339.792s-.452.339-.792.339v-.339c-.226-1.018-.565-1.47-1.244-1.47-.226,0-.452.113-.679.226-.113.226-.226.452-.226.679s.113.339.226.565c.113.226.339.339.452.452.226.113.452.226.679.452.226.113.452.226.792.452.226.113.452.339.679.452.226.226.339.339.452.679.113.226.226.565.226.792,0,.339-.113.679-.339,1.018-.226.339-.565.565-.905.679-.339.226-.792.226-1.131.226-.679,0-1.244-.113-1.696-.452-.678,0-.905-.339-.905-.792Z"/>
            <path class="cls-2" d="m169.634,144.523v-.452c.679-.565,1.357-1.244,2.035-2.035h.452v1.696h2.262l-.113.679h-2.262v3.732c0,.565.113,1.018.226,1.244.226.226.452.339.905.339.226,0,.339,0,.565-.113s.339-.113.452-.226l.113-.113.113.452c-.226.339-.565.679-.905.905s-.792.339-1.244.339c-.226,0-.452,0-.679-.113-.226-.113-.339-.226-.565-.339-.113-.113-.339-.452-.339-.679-.113-.339-.113-.679-.113-1.131v-4.184h-.905Z"/>
            <path class="cls-2" d="m175.514,150.065c0-.226.113-.452.226-.679.226-.226.452-.226.679-.226s.452.113.679.226c.226.226.339.452.339.679s-.113.452-.339.679c-.226.226-.452.339-.679.339s-.452-.113-.679-.339c-.113-.226-.226-.452-.226-.679Z"/>
          </g>
          <g>
            <g>
              <g>
                <path class="cls-5" d="m199.262,100.082c-.339.113-1.131-.226-1.131-.226l-.792.678c-.226.905-.452,1.696-.565,2.375-.339,1.131-.452,1.922-.679,2.488-1.018-2.827-6.785-26.574-6.785-26.574-.679.113-1.244.339-1.922.452-.679.113-1.357.226-2.035.339-1.922.226-3.506.565-4.863.792-1.244.226-2.262.565-2.94.792-2.149.905-3.732,2.262-4.976,3.958-1.244,1.696-1.922,3.845-1.922,6.333,0,1.47.226,2.601.792,3.392.452.792,1.131,1.131,1.809,1.131.452,0,.905-.113,1.244-.452s.452-.678.452-1.131c0-.113-.113-.339-.226-.678-.113-.339-.226-.565-.452-.905s-.339-.565-.452-.905-.226-.565-.339-.678c-.113-.565-.226-1.131-.226-1.809,0-1.922.679-3.506,2.149-4.863,1.47-1.357,3.506-2.262,6.22-2.714,1.809-.339,3.053-.565,3.732-.565-.905,5.089-1.922,9.612-2.827,13.57s-1.922,7.237-2.94,9.951c-1.018,2.714-2.035,4.749-3.166,6.22-1.131,1.357-2.262,2.149-3.506,2.149-.339,0-.792-.113-1.244-.452-.452-.226-.905-.565-1.357-.905s-.905-.565-1.357-.905c-.452-.226-.792-.452-1.131-.452-.452,0-.792.113-1.131.452s-.452.678-.452,1.131c0,1.018.565,1.809,1.696,2.375,1.131.678,2.375.905,3.958.905,1.018,0,2.035-.113,2.94-.452s1.809-.905,2.601-1.583c.792-.792,1.583-1.696,2.262-2.94s1.357-2.714,2.035-4.636c0,0,.113-.452.339-1.357.226-.905.565-2.035.905-3.392s.679-2.827,1.131-4.41.792-3.166,1.131-4.636c.339-1.47.679-2.827,1.018-4.071.226-1.244.792-2.262.905-2.714,0,0,7.916,26.687,9.273,29.514l.565-.565.113-3.392c.565-3.958,1.47-7.576,2.149-10.63h0Z"/>
                <path class="cls-5" d="m214.98,71.925c-.792-.565-1.809-.792-3.166-.792-1.47,0-6.106,0-9.386,10.404-.792,2.714-3.619,12.439-4.749,17.075,0,.113-.113.339-.113.452h0c.679-.226,1.357-.565,2.035-.678h0c.226-.905.452-1.809.679-2.714,1.018-3.845,3.619-13.004,4.523-15.153,2.035-4.976,4.297-4.863,5.089-4.863h.905s.113,0,.452.113l1.244.565c.565.226,1.018.339,1.357.339.679,0,1.244-.226,1.809-.792.452-.452.679-1.018.679-1.696s-.226-1.47-1.357-2.262Z"/>
              </g>
              <g>
                <path class="cls-5" d="m191.459,117.158c0-.113-.113-.452-.226-.792-.226-.339-.339-.792-.565-1.244s-.339-.905-.565-1.244c-.226-.452-.339-.792-.339-.905-.226-.905-.339-1.696-.339-2.488,0-1.47.339-3.053,1.018-4.523.226-.452.452-.905.679-1.244l-.113-2.827-.452.339c-1.131,1.357-2.035,2.827-2.714,4.41-.792,2.035-1.244,3.958-1.244,5.993,0,1.922.226,3.392.792,4.523s1.244,1.696,2.262,1.696c.565,0,1.018-.113,1.357-.452.226-.339.452-.792.452-1.244Z"/>
                <path class="cls-5" d="m221.426,100.421c.339-1.357.679-3.166,1.244-5.315-1.131.226-2.035.452-2.714.565-.679.113-1.244.226-1.809.226-.452,0-1.018.113-1.47.113h-12.552c-2.714,0-5.089.452-7.237,1.47-1.131.452-2.035,1.018-2.94,1.696-.905.565-1.018,3.166-.565,2.827.339-.339.679-.678,1.131-.905,1.018-.792,2.035-1.357,3.279-1.922,1.696-.792,3.619-1.131,5.654-1.131l-4.749,18.546c-1.696,6.559-2.94,10.404-3.506,11.647-.113.339-.339.679-.565.905s-.452.452-.905.679c-.339.226-1.357.679-1.357.679l-1.357-.226-.905.792-.339,1.696c2.262-.339,4.41-.565,6.446-.565.679,0,1.47,0,2.375.113.905,0,1.696.113,2.488.113s.679.113,1.244.113.905.113,1.018.113h.792c.226,0,.565,0,.905-.113l.905-.792-.339-1.018c-.792.113-1.696.226-2.488.226-1.357,0-2.035-.113-3.619-.339.339-.792.679-1.922,1.131-3.392.452-1.357.905-2.94,1.357-4.523.452-1.583.905-3.166,1.244-4.749.452-1.583.792-3.053,1.131-4.41h5.089c.679,0,1.244.113,1.696.113.452.113.679.113.905.226s.339.226.452.339c.113.113.113.339.113.565,0,.113,0,.339-.113.678,0,.339-.113.792-.226,1.47h1.696l.905-.792v-8.142l-.905.792s-.339,1.131-.452,1.47c-.226.339-.339.678-.679.792-.226.113-.679.226-1.131.339-.452,0-1.018.113-1.696.113h-5.202c.113-.678.452-1.696.679-2.94.339-1.244.679-2.488,1.018-3.845.339-1.357.679-2.601,1.018-3.845.339-1.244.565-2.149.792-2.94l6.106.113,1.922-.113c1.357,0,2.149.113,2.714.452.452.339.679.792.679,1.47,0,.452-.113,1.583-.452,3.392h1.696l.905-.792c-.226.113-.678-1.018-.452-2.036Z"/>
              </g>
            </g>
            <path class="cls-3" d="m215.885,71.133c-.792-.565-1.809-.792-3.166-.792-1.47,0-6.106,0-9.386,10.404-.792,2.714-3.619,12.439-4.749,17.075,0,.113-.113.339-.113.452h0c.679-.226,1.357-.565,2.035-.678h0c.226-.905.452-1.809.679-2.714,1.018-3.845,3.619-13.004,4.523-15.153,2.035-4.976,4.297-4.863,5.089-4.863h.905s.113,0,.452.113l1.244.565c.565.226,1.018.339,1.357.339.679,0,1.244-.226,1.809-.792.452-.452.679-1.018.679-1.696-.113-.565-.339-1.47-1.357-2.262Z"/>
            <g>
              <path class="cls-3" d="m192.251,116.479c0-.113-.113-.452-.226-.792-.113-.339-.339-.792-.565-1.244s-.339-.905-.565-1.244c-.226-.452-.339-.792-.339-.905-.226-.905-.339-1.696-.339-2.488,0-1.47.339-3.053,1.018-4.523.226-.339.339-.792.565-1.131l-.792-2.149c-1.018,1.244-1.809,2.488-2.375,3.958-.792,2.035-1.244,3.958-1.244,5.993,0,1.922.226,3.392.792,4.523s1.244,1.696,2.262,1.696c.565,0,1.018-.113,1.357-.452.339-.452.452-.905.452-1.244Z"/>
              <path class="cls-3" d="m220.86,94.88c-.679.113-1.244.226-1.809.226-.452,0-1.018.113-1.47.113h-12.552c-2.714,0-5.089.452-7.237,1.47s-3.958,2.262-5.541,3.732l.679,2.035c.339-.452.792-.905,1.244-1.357,1.244-1.131,2.714-2.035,4.297-2.827,0,0,.565-.226.792-.339.452-.226,1.244-.452,1.244-.452,1.131-.339,2.375-.452,3.732-.452l-4.749,18.546c-1.696,6.559-2.94,10.404-3.506,11.647-.113.339-.339.679-.565.905s-.452.452-.905.679c-.339.226-.792.452-1.357.679-.565.226-1.244.452-2.149.565l-.339,1.696c2.262-.339,4.41-.565,6.446-.565.679,0,1.47,0,2.375.113.905,0,1.696.113,2.488.113s.679.113,1.244.113.905.113,1.018.113h.792c.226,0,.565,0,.905-.113l.452-1.809c-.792.113-1.696.226-2.488.226-1.357,0-2.035-.113-3.619-.339.339-.792.679-1.922,1.131-3.392.452-1.357.905-2.827,1.357-4.523.452-1.583.905-3.166,1.244-4.749.452-1.583.792-3.053,1.131-4.41h5.089c.679,0,1.244.113,1.696.113.452.113.679.113.905.226s.339.226.452.339c.113.113.113.339.113.565,0,.113,0,.339-.113.678,0,.339-.113.792-.226,1.47h1.696c.452-2.827,1.018-5.541,1.696-8.142h-1.696c-.113.678-.339,1.131-.452,1.47-.226.339-.339.678-.679.792-.226.113-.679.226-1.131.339-.452,0-1.018.113-1.696.113h-5.202c.113-.678.452-1.696.679-2.94.339-1.244.679-2.488,1.018-3.845.339-1.357.679-2.601,1.018-3.845.339-1.244.565-2.149.792-2.94l6.106.113,1.922-.113c1.357,0,2.149.226,2.714.452.452.339.679.792.679,1.47,0,.452-.113,1.583-.452,3.392h1.696c.113-.565.226-1.583.565-2.94s.679-3.166,1.244-5.315c-1.131.565-2.036.792-2.714.905Z"/>
            </g>
            <path class="cls-3" d="m200.053,99.291c-.679.113-1.357.339-1.922.565-.226.905-.452,1.696-.565,2.262-.339,1.131-.452,1.922-.679,2.488-1.018-2.827-6.785-26.574-6.785-26.574-.679.113-1.244.339-1.922.452-.679.113-1.357.226-2.035.339-1.922.226-3.506.565-4.863.792-1.244.226-2.262.565-2.94.792-2.149.905-3.732,2.262-4.976,3.958-1.244,1.696-1.922,3.845-1.922,6.333,0,1.47.226,2.601.792,3.392.452.792,1.131,1.131,1.809,1.131.452,0,.905-.113,1.244-.452s.452-.678.452-1.131c0-.113-.113-.339-.226-.678-.113-.339-.226-.565-.452-.905s-.339-.565-.452-.905c-.113-.339-.226-.565-.339-.678-.113-.565-.226-1.131-.226-1.809,0-1.922.679-3.506,2.149-4.863,1.47-1.357,3.506-2.262,6.22-2.714,1.809-.339,3.053-.565,3.732-.565-.905,5.089-1.922,9.612-2.827,13.57s-1.922,7.237-2.94,9.951c-1.018,2.714-2.035,4.749-3.166,6.22-1.131,1.357-2.262,2.149-3.506,2.149-.339,0-.792-.113-1.244-.452-.452-.226-.905-.565-1.357-.905s-.905-.565-1.357-.905c-.452-.226-.792-.452-1.131-.452-.452,0-.792.113-1.131.452s-.452.678-.452,1.131c0,1.018.565,1.809,1.696,2.375,1.131.678,2.375.905,3.958.905,1.018,0,2.035-.113,2.94-.452s1.809-.905,2.601-1.583c.792-.792,1.583-1.696,2.262-2.94s1.357-2.714,2.035-4.636c0,0,.113-.452.339-1.357.226-.905.565-2.035.905-3.392s.679-2.827,1.131-4.41.792-3.166,1.131-4.636c.339-1.47.679-2.827,1.018-4.071.226-1.244.452-2.035.565-2.488,0,0,7.916,26.687,9.273,29.514l.905-4.071c.792-4.071,1.583-7.69,2.262-10.743h0Z"/>
          </g>
          <g>
            <path class="cls-2" d="m216.676,150.743l.113-.565,1.47-.339v-5.428h-1.357l.113-.565,2.488-.565h.226v6.785l1.47.226-.113.679h-4.41v-.226Z"/>
            <path class="cls-2" d="m221.313,146.107c0-.905.339-1.583.905-2.262.565-.565,1.244-.905,2.035-.905.452,0,.905.113,1.357.339.339.226.679.452.905.792s.339.679.452,1.131c.113.452.113.905.113,1.357,0,.905-.226,1.809-.679,2.714-.452.905-1.018,1.696-1.696,2.375-.792.679-1.583,1.131-2.375,1.47l-.226-.565c.452-.226.905-.452,1.244-.679.339-.226.679-.565.905-.792s.452-.565.565-.905c.226-.339.339-.679.452-1.018.113-.339.226-.679.226-1.018h-.113c-.226.226-.452.452-.792.679-.339.113-.679.226-1.018.226-.792,0-1.357-.226-1.696-.679-.339-.679-.565-1.357-.565-2.262Zm1.47-.226c0,.792.113,1.244.339,1.583.226.339.565.565,1.131.565.226,0,.565-.113.792-.226.226-.113.452-.339.565-.452v-1.131c0-.452,0-.905-.113-1.244s-.226-.679-.452-1.018-.452-.339-.792-.339c-1.018,0-1.47.792-1.47,2.262Z"/>
            <path class="cls-2" d="m227.532,145.88l.339-2.601h5.089l.113.792c-1.018,1.809-1.696,3.053-2.035,3.732-.792,1.809-1.357,3.506-1.583,5.089v.339h-.452c-.339,0-.565-.113-.679-.226-.113-.226-.226-.339-.226-.679,0-.905,1.244-3.506,3.845-7.803h-3.392l-.565,1.47-.452-.113Z"/>
            <path class="cls-2" d="m233.526,148.481c0-.905.565-1.809,1.696-2.488v-.113c-.339-.226-.679-.565-.905-.905-.339-.452-.452-.905-.452-1.357,0-.679.226-1.244.792-1.809.452-.452,1.131-.792,1.809-.792s1.244.226,1.696.565.679.905.679,1.47c0,.905-.452,1.696-1.357,2.375v.113c1.131.679,1.696,1.583,1.696,2.601,0,.792-.339,1.357-.905,1.922s-1.357.792-2.262.792c-.792,0-1.357-.226-1.809-.679-.452-.339-.679-.905-.679-1.696Zm1.244-.113c0,.452.113.905.452,1.357.339.339.679.565,1.018.565.452,0,.792-.113,1.131-.452.226-.226.452-.679.452-1.244,0-.339-.226-.792-.565-1.131s-.905-.792-1.583-1.131c-.226.226-.452.452-.565.792-.226.452-.339.792-.339,1.244Zm.226-5.428c0,.452.113.905.452,1.357.339.452.679.792,1.244,1.131.113-.113.226-.339.339-.452.113-.113.113-.339.226-.565.113-.226.113-.565.113-.905,0-.452-.113-.905-.339-1.244s-.565-.565-.905-.565-.565.113-.792.339c-.226.339-.339.565-.339.905Z"/>
          </g>
        </g>
      </g>
    </g>
  </g>
</svg>