<?xml version="1.0" encoding="UTF-8"?>
<svg id="Layer_2" data-name="Layer 2" xmlns="http://www.w3.org/2000/svg" width="394" height="340" viewBox="0 0 394 340">
  <defs>
    <style>
      .cls-1 {
        fill: #a5aa43;
      }

      .cls-1, .cls-2, .cls-3, .cls-4, .cls-5 {
        stroke-width: 0px;
      }

      .cls-2 {
        fill: #58704c;
      }

      .cls-3 {
        fill: #fff;
      }

      .cls-4 {
        fill: #4d413a;
      }

      .cls-5 {
        fill: #9e8e81;
      }
    </style>
  </defs>
  <g id="Layer_1-2" data-name="Layer 1">
    <rect class="cls-3" width="394" height="340"/>
    <g>
      <g>
        <path class="cls-2" d="m61.207,177.92v23.465h-6.125v-19.036c0-2.45-.188-4.241-.471-5.277-.377-1.037-1.037-2.262-2.167-3.675l5.371-3.769c.848.565,1.696,1.508,2.356,2.921,2.356-1.885,3.958-2.921,4.712-2.921.848,0,2.167.754,3.958,2.356s2.921,2.639,3.392,3.298.66,1.508.66,2.544v23.559h-6.22v-22.616c0-.283-.094-.565-.377-1.037s-.565-.848-1.037-1.319-.848-.754-1.319-.754c-.377,0-.942.188-1.508.66-.377.471-.848,1.037-1.225,1.602Z"/>
        <path class="cls-2" d="m87.027,199.783c-1.79,1.414-3.204,2.167-4.052,2.167s-2.167-.754-4.052-2.167c-1.79-1.414-2.921-2.544-3.392-3.204-.66-1.131-.942-3.487-.942-7.068,0-3.675.283-6.031.942-7.068.377-.754,1.508-1.79,3.392-3.204,1.79-1.414,3.204-2.167,4.052-2.167s2.167.754,4.052,2.167c1.79,1.414,2.921,2.544,3.392,3.204.66,1.037.942,3.392.942,7.068s-.283,6.031-.942,7.068c-.377.66-1.508,1.696-3.392,3.204Zm-5.089-3.581c.471.471.848.66,1.131.66s.66-.188,1.131-.66.754-.848,1.037-1.225c.377-.66.565-2.45.565-5.466s-.188-4.9-.565-5.56c-.188-.377-.565-.754-1.037-1.225s-.848-.66-1.131-.66-.66.188-1.131.66-.754.848-1.037,1.225c-.377.66-.565,2.45-.565,5.466s.188,4.9.565,5.56c.283.377.565.754,1.037,1.225Z"/>
        <path class="cls-2" d="m99.655,182.161v9.8c0,1.414.471,2.639,1.414,3.864.942,1.131,2.262,2.073,3.958,2.733l-4.9,3.392c-1.79-.848-3.298-1.979-4.523-3.487-1.225-1.508-1.79-3.016-1.79-4.618v-11.685h-2.262v-3.298l2.262-.565c-.094-1.414-.283-2.639-.565-3.487-.283-.848-.848-1.696-1.696-2.45l4.9-3.392c2.167,1.696,3.204,4.052,3.204,7.162v1.319h4.994v4.712h-4.994Z"/>
        <path class="cls-2" d="m113.131,182.161v9.8c0,1.414.471,2.639,1.414,3.864.942,1.131,2.262,2.073,3.958,2.733l-4.9,3.392c-1.79-.848-3.298-1.979-4.523-3.487-1.225-1.508-1.79-3.016-1.79-4.618v-11.685h-2.262v-3.298l2.262-.565c-.094-1.414-.283-2.639-.565-3.487-.283-.848-.848-1.696-1.696-2.45l4.9-3.392c2.167,1.696,3.204,4.052,3.204,7.162v1.319h4.994v4.712h-4.994Z"/>
        <path class="cls-2" d="m122.554,168.12c.283,0,1.037.471,2.167,1.414,1.131.942,1.696,1.602,1.696,1.979s-.565,1.037-1.696,1.979c-1.131.942-1.885,1.508-2.167,1.508s-1.037-.471-2.167-1.414c-1.131-.942-1.696-1.602-1.696-1.979s.565-1.037,1.696-1.979c1.131-.942,1.885-1.508,2.167-1.508Zm-3.016,9.329h5.843v15.36c0,1.508.188,2.639.565,3.487s.942,1.602,1.696,2.167l-4.9,3.392c-2.167-1.696-3.204-4.052-3.204-7.162v-17.245Z"/>
        <path class="cls-2" d="m134.616,201.385h-5.843v-15.36c0-1.508-.188-2.639-.565-3.487s-.942-1.602-1.696-2.167l4.9-3.392c1.131.848,1.885,1.885,2.45,3.11,2.167-2.073,3.769-3.11,4.618-3.11s2.262.848,4.052,2.45c1.79,1.602,2.733,3.298,2.733,4.9v8.575c0,1.508.188,2.639.565,3.487.377.848.942,1.602,1.696,2.167l-4.9,3.392c-2.167-1.696-3.204-4.052-3.204-7.162v-9.895c0-.471-.283-1.037-.754-1.602-.565-.565-1.037-.848-1.508-.848s-1.319.66-2.544,1.885v17.057Z"/>
        <path class="cls-2" d="m164.3,177.449v22.522c0,3.769-.188,6.031-.471,6.785-.377.754-1.508,1.885-3.581,3.487s-3.581,2.356-4.618,2.356-2.262-.471-3.864-1.508c-1.508-1.037-2.733-2.167-3.487-3.581l4.618-3.11.471.565c1.131,1.414,1.885,2.073,2.262,2.073s.942-.188,1.508-.565c.565-.377.942-.754,1.131-1.225s.283-2.262.283-5.466l.094-1.696c-1.979,1.414-3.392,2.167-4.146,2.167s-1.885-.754-3.487-2.356-2.544-2.733-2.827-3.487-.471-2.639-.471-5.748c0-3.016.188-4.994.471-5.748s1.319-1.979,2.827-3.581c1.602-1.602,2.733-2.356,3.581-2.356s2.45.942,4.712,2.827l.565-2.356h4.429Zm-6.031,6.691c-.188-.377-.66-.754-1.225-1.131-.66-.377-1.131-.565-1.414-.565s-.66.188-1.037.565-.66.754-.754,1.037c-.283.471-.377,1.979-.377,4.429s.094,3.958.377,4.429c.094.283.377.66.754,1.037s.754.565,1.037.565.848-.188,1.414-.565c.66-.377,1.037-.754,1.225-1.131s.283-1.79.283-4.335-.094-3.958-.283-4.335Z"/>
        <path class="cls-2" d="m172.876,201.385h-5.843v-24.313c0-1.508-.188-2.639-.565-3.487-.377-.754-.942-1.508-1.696-2.167l4.9-3.392c2.167,1.696,3.204,4.052,3.204,7.162v4.146c1.885-1.602,3.204-2.45,3.958-2.45.848,0,2.167.848,3.958,2.45,1.79,1.602,2.733,3.298,2.733,4.9v8.575c0,1.508.188,2.639.565,3.487.377.848.942,1.602,1.696,2.167l-4.9,3.392c-2.167-1.696-3.204-4.052-3.204-7.162v-9.895c0-.471-.283-1.037-.754-1.602-.565-.565-1.037-.848-1.508-.848s-1.319.66-2.544,1.885v17.151h0Z"/>
        <path class="cls-2" d="m202.937,177.449v18.187c.188,1.037.848,1.979,2.073,2.733l-3.958,3.392c-.377-.283-.848-.754-1.414-1.414s-1.037-1.414-1.414-2.073c-2.45,2.356-4.146,3.581-5.183,3.581-.754,0-1.885-.754-3.487-2.356s-2.544-2.827-2.921-3.864-.565-3.11-.565-6.314.188-5.371.565-6.314,1.414-2.262,2.921-3.864,2.733-2.356,3.487-2.356c1.037,0,2.733,1.037,4.994,3.204l.565-2.639h4.335v.094Zm-6.22,6.785c-.188-.377-.66-.754-1.225-1.131s-1.131-.565-1.414-.565-.66.188-1.037.565-.66.754-.754,1.037c-.377.565-.565,2.262-.565,5.277s.188,4.806.565,5.277c.094.283.377.66.754,1.037s.754.565,1.037.565.848-.188,1.414-.565,1.037-.754,1.225-1.131c.188-.283.283-2.073.377-5.183,0-3.11-.094-4.806-.377-5.183Z"/>
        <path class="cls-2" d="m222.538,201.385h-5.843v-16.491c0-.471-.283-1.037-.754-1.602-.565-.565-.942-.848-1.319-.848s-.942.377-1.79,1.037v17.905h-5.843v-15.36c0-1.508-.188-2.639-.565-3.487-.377-.848-.942-1.602-1.696-2.167l4.9-3.392c.942.848,1.696,1.696,2.167,2.544,1.885-1.696,3.298-2.544,3.958-2.544.471,0,1.131.283,2.167.942s1.885,1.414,2.733,2.356c2.356-2.262,3.958-3.298,4.9-3.298s2.262.848,4.052,2.45c1.79,1.602,2.733,3.298,2.733,4.9v8.575c0,1.508.188,2.639.565,3.487.377.848.942,1.602,1.696,2.167l-4.9,3.392c-2.167-1.696-3.204-4.052-3.204-7.162v-9.895c0-.471-.283-1.037-.754-1.602-.565-.565-.942-.848-1.319-.848s-.942.377-1.885,1.131c.094.283.094.565.094.66v17.151h-.094Z"/>
        <path class="cls-2" d="m245.814,201.385v-17.716c0-3.675.283-6.031.848-7.068.565-1.037,1.885-2.45,3.769-4.241,1.979-1.79,3.392-2.639,4.335-2.639,1.319,0,2.921.565,4.806,1.602,1.885,1.037,3.392,2.167,4.335,3.487l-4.9,3.392c-1.696-1.696-3.016-2.45-3.958-2.45-.377,0-.848.283-1.319.754s-.942,1.037-1.225,1.602-.471,1.979-.471,4.146v1.037h7.916v5.371h-7.916v12.816h-6.22v-.094Z"/>
        <path class="cls-2" d="m274.084,199.783c-1.79,1.414-3.204,2.167-4.052,2.167s-2.167-.754-4.052-2.167c-1.79-1.414-2.921-2.544-3.392-3.204-.66-1.131-.942-3.487-.942-7.068,0-3.675.283-6.031.942-7.068.377-.754,1.508-1.79,3.392-3.204,1.79-1.414,3.204-2.167,4.052-2.167s2.167.754,4.052,2.167c1.79,1.414,2.921,2.544,3.392,3.204.66,1.037.942,3.392.942,7.068s-.283,6.031-.942,7.068c-.471.66-1.602,1.696-3.392,3.204Zm-5.183-3.581c.471.471.848.66,1.131.66s.66-.188,1.131-.66.754-.848,1.037-1.225c.377-.66.565-2.45.565-5.466s-.188-4.9-.565-5.56c-.188-.377-.565-.754-1.037-1.225s-.848-.66-1.131-.66-.66.188-1.131.66-.754.848-1.037,1.225c-.377.66-.565,2.45-.565,5.466s.188,4.9.565,5.56c.283.377.565.754,1.037,1.225Z"/>
        <path class="cls-2" d="m286.618,201.385h-5.843v-15.36c0-1.508-.188-2.733-.565-3.581-.377-.848-.942-1.602-1.696-2.167l4.9-3.392c1.037.848,1.885,1.885,2.45,3.11,2.167-2.073,3.769-3.11,4.618-3.11.565,0,1.508.565,2.733,1.602,1.225,1.131,1.885,2.262,2.167,3.581l-4.712,3.392c0-.754-.188-1.414-.471-2.073s-.565-1.037-.848-1.037c-.471,0-1.414.66-2.639,1.885v17.151h-.094Z"/>
        <path class="cls-2" d="m311.119,189.323v1.602h-10.743c0,1.79.188,3.204.66,4.241.188.377.377.754.754,1.131s.754.565,1.225.565.942-.377,1.602-1.037c.66-.754,1.131-1.602,1.508-2.544l4.618,3.204c-.754,1.508-1.979,2.733-3.675,3.864-1.602,1.131-3.016,1.602-3.958,1.602-1.037,0-2.45-.754-4.335-2.356s-3.11-2.827-3.487-3.675c-.377-.848-.66-3.016-.66-6.502s.188-5.654.66-6.502c.377-.848,1.602-2.073,3.487-3.675s3.298-2.356,4.241-2.356c.848,0,2.262.754,4.241,2.356,1.885,1.602,3.11,2.827,3.487,3.675.188.942.377,3.016.377,6.408Zm-6.22-5.56c-.188-.377-.565-.754-1.037-1.225-.471-.377-.848-.565-1.319-.565-.377,0-.848.377-1.319,1.225-.471.754-.848,1.979-.942,3.581h5.089c-.094-1.602-.188-2.639-.471-3.016Z"/>
        <path class="cls-2" d="m328.27,194.223c0,.942-1.131,2.45-3.392,4.523s-3.958,3.204-5.089,3.204-2.45-.565-4.146-1.602c-1.602-1.131-2.827-2.356-3.675-3.864l4.618-3.11c1.508,2.073,2.544,3.11,3.204,3.11.471,0,1.131-.283,1.885-.754s1.131-.942,1.131-1.414c0-.094-.377-.377-1.037-.754-.754-.377-1.602-.942-2.639-1.508s-2.073-1.319-3.016-2.073c-1.037-.754-1.885-1.696-2.544-2.733-.754-1.131-1.037-2.167-1.037-3.298s1.037-2.544,3.016-4.241,3.581-2.544,4.618-2.544,2.45.565,4.052,1.602c1.602,1.131,2.827,2.356,3.675,3.864l-4.618,3.11c-1.508-2.073-2.544-3.11-3.204-3.11-.377,0-.754.188-1.319.565-.565.377-.754.754-.754,1.131,0,.283.565.848,1.602,1.508,1.037.66,2.262,1.414,3.581,2.073,1.319.754,2.45,1.696,3.581,2.827,1.037,1.037,1.508,2.262,1.508,3.487Z"/>
        <path class="cls-2" d="m336.186,182.161v9.8c0,1.414.471,2.639,1.414,3.864.942,1.131,2.262,2.073,3.958,2.733l-4.9,3.392c-1.79-.848-3.298-1.979-4.523-3.487-1.225-1.508-1.79-3.016-1.79-4.618v-11.685h-2.262v-3.298l2.262-.565c-.094-1.414-.283-2.639-.565-3.487s-.848-1.696-1.696-2.45l4.9-3.392c2.167,1.696,3.204,4.052,3.204,7.162v1.319h4.994v4.712h-4.994Z"/>
        <path class="cls-1" d="m88.629,214.013l.188-1.131h8.104l-.188,1.131-2.544.565v6.596h9.424v-6.502l-2.733-.66.188-1.131h8.198l-.188,1.131-2.544.565v15.172l2.733.471-.188,1.225h-8.104l.188-1.131,2.45-.66v-6.973h-9.329v7.068l2.733.471-.188,1.225h-8.104l.094-1.131,2.544-.66v-15.078l-2.733-.565Z"/>
        <path class="cls-1" d="m109.267,225.132c0-1.131.188-2.073.565-3.016s.848-1.696,1.414-2.262,1.319-1.037,2.073-1.414c.754-.283,1.602-.471,2.45-.471,1.79,0,3.298.66,4.335,1.885s1.602,2.921,1.602,4.994-.565,3.769-1.79,5.089-2.733,1.979-4.429,1.979c-1.885,0-3.392-.66-4.523-1.885-1.225-1.319-1.696-2.921-1.696-4.9Zm2.639-1.037c0,.848.094,1.602.188,2.262s.377,1.414.66,2.073c.283.66.754,1.131,1.225,1.508.565.377,1.131.565,1.885.565.942,0,1.79-.471,2.262-1.319s.848-1.885.848-3.016c0-.754-.094-1.508-.188-2.262-.188-.754-.377-1.414-.66-2.073-.283-.66-.66-1.225-1.225-1.602-.565-.377-1.131-.565-1.79-.565-.754,0-1.319.188-1.79.66s-.848.942-1.037,1.602c-.283.565-.377,1.319-.377,2.167Z"/>
        <path class="cls-1" d="m122.46,231.54l.188-1.131,2.262-.565v-9.047l-2.356-.754.188-1.131,4.523-.66.283.283-.283,1.885h.094c.565-.66,1.225-1.225,1.979-1.696.754-.471,1.602-.66,2.544-.66.754,0,1.414.188,2.073.565.66.377,1.037,1.037,1.225,1.885h.188c.565-.66,1.131-1.225,1.979-1.696.754-.471,1.602-.66,2.45-.66,2.356,0,3.487,1.414,3.487,4.146v7.35l2.073.565-.188,1.225h-6.408l.094-1.131,1.885-.565v-7.068c0-.754-.188-1.414-.66-1.885s-1.037-.754-1.885-.754c-.565,0-1.131.094-1.508.377-.471.283-.848.66-1.319,1.131v8.198l2.262.565-.188,1.225h-6.596l.188-1.131,1.979-.565v-7.068c0-.754-.283-1.414-.754-1.885s-1.131-.754-1.79-.754c-1.225,0-2.167.471-2.921,1.319v8.387l2.167.565-.188,1.225h-7.068v-.094Z"/>
        <path class="cls-1" d="m145.736,225.132c0-1.037.188-2.073.565-3.016.377-.942.848-1.696,1.414-2.262.565-.565,1.225-1.037,1.979-1.319.754-.283,1.414-.471,2.167-.471,1.131,0,2.073.377,2.827,1.225.754.848,1.131,1.979,1.131,3.487,0,.66-.094,1.225-.283,1.979l-7.256.094c0,.471.094.942.188,1.414.094.471.283.942.471,1.414s.471.848.848,1.225c.283.377.66.565,1.131.848.471.188.942.283,1.508.283h1.037c.188,0,.565-.094.942-.188.377-.094.848-.283,1.319-.565l.283.754c-.565.66-1.319,1.131-2.167,1.508-.848.377-1.79.565-2.733.565-.754,0-1.414-.188-2.073-.471s-1.225-.754-1.79-1.319-.942-1.319-1.319-2.167c-.094-.942-.188-1.979-.188-3.016Zm2.639-1.414l4.712-.377c.094-.283.094-.565.094-1.037,0-1.885-.66-2.827-2.073-2.827-.66,0-1.319.377-1.79,1.037-.565.754-.848,1.79-.942,3.204Z"/>
        <path class="cls-1" d="m157.044,229.373c0-.565.188-.942.565-1.319.377-.377.848-.565,1.414-.66.283,1.037.754,1.79,1.225,2.356s1.037.754,1.602.754,1.037-.094,1.414-.377c.377-.283.565-.66.565-1.131,0-.283-.094-.66-.377-.942s-.565-.565-.942-.754-.754-.471-1.225-.754-.942-.565-1.414-.848c-.471-.283-.848-.66-1.225-.942-.377-.377-.66-.754-.942-1.225-.188-.471-.377-1.037-.377-1.602,0-.471.094-.942.283-1.319.188-.471.471-.848.848-1.319.377-.377.848-.754,1.414-.942s1.225-.377,1.979-.377c1.037,0,1.885.188,2.639.66s1.037,1.037,1.037,1.79c0,.66-.188,1.131-.565,1.508s-.848.565-1.508.66l-.094-.66c-.377-1.79-1.131-2.733-2.262-2.733-.471,0-.942.188-1.225.565-.283.377-.471.754-.471,1.319,0,.377.094.754.377,1.037.283.283.565.66.942.848s.848.471,1.319.754.942.565,1.414.848c.471.283.942.565,1.319.942.377.283.66.754.942,1.131.283.471.377.942.377,1.508,0,.754-.188,1.319-.66,1.979s-1.037,1.037-1.696,1.414-1.414.471-2.167.471c-1.319,0-2.356-.283-3.11-.754-1.037-.565-1.414-1.131-1.414-1.885Z"/>
        <path class="cls-1" d="m169.483,231.54l.094-1.131,2.262-.848,6.596-16.585,2.262-.471,5.843,17.151,2.073.66-.094,1.225h-7.727l.188-1.131,2.544-.848-1.602-4.523h-6.314l-1.696,4.618,2.827.66-.188,1.225h-7.068Zm6.691-8.01h5.277l-2.45-7.445-2.827,7.445Z"/>
        <path class="cls-1" d="m188.707,229.373c0-.565.188-.942.565-1.319.377-.377.848-.565,1.414-.66.283,1.037.754,1.79,1.225,2.356s1.037.754,1.602.754,1.037-.094,1.414-.377c.377-.283.565-.66.565-1.131,0-.283-.094-.66-.377-.942-.188-.283-.565-.565-.942-.754s-.754-.471-1.225-.754-.942-.565-1.414-.848c-.471-.283-.848-.66-1.225-.942-.377-.377-.66-.754-.942-1.225-.188-.471-.377-1.037-.377-1.602,0-.471.094-.942.283-1.319.188-.471.471-.848.848-1.319.377-.377.848-.754,1.414-.942.565-.283,1.225-.377,1.979-.377,1.037,0,1.885.188,2.639.66.66.471,1.037,1.037,1.037,1.79,0,.66-.188,1.131-.565,1.508s-.848.565-1.508.66l-.094-.66c-.377-1.79-1.131-2.733-2.262-2.733-.471,0-.942.188-1.225.565-.283.377-.471.754-.471,1.319,0,.377.094.754.377,1.037.283.283.565.66.942.848s.848.471,1.319.754.942.565,1.414.848c.471.283.942.565,1.319.942.377.283.66.754.942,1.131.283.471.377.942.377,1.508,0,.754-.188,1.319-.66,1.979s-1.037,1.037-1.696,1.414c-.66.283-1.414.471-2.167.471-1.319,0-2.356-.283-3.11-.754s-1.414-1.131-1.414-1.885Z"/>
        <path class="cls-1" d="m198.602,229.373c0-.565.188-.942.565-1.319.377-.377.848-.565,1.414-.66.283,1.037.754,1.79,1.225,2.356s1.037.754,1.602.754,1.037-.094,1.414-.377c.377-.283.565-.66.565-1.131,0-.283-.094-.66-.377-.942-.188-.283-.565-.565-.942-.754s-.754-.471-1.225-.754-.942-.565-1.414-.848c-.471-.283-.848-.66-1.225-.942-.377-.377-.66-.754-.942-1.225-.188-.471-.377-1.037-.377-1.602,0-.471.094-.942.283-1.319.188-.471.471-.848.848-1.319.377-.377.848-.754,1.414-.942.565-.283,1.225-.377,1.979-.377,1.037,0,1.885.188,2.639.66.66.471,1.037,1.037,1.037,1.79,0,.66-.188,1.131-.565,1.508s-.848.565-1.508.66l-.094-.66c-.377-1.79-1.131-2.733-2.262-2.733-.471,0-.942.188-1.225.565-.283.377-.471.754-.471,1.319,0,.377.094.754.377,1.037.283.283.565.66.942.848s.848.471,1.319.754.942.565,1.414.848c.471.283.942.565,1.319.942.377.283.66.754.942,1.131.283.471.377.942.377,1.508,0,.754-.188,1.319-.66,1.979s-1.037,1.037-1.696,1.414c-.66.283-1.414.471-2.167.471-1.319,0-2.356-.283-3.11-.754s-1.414-1.131-1.414-1.885Z"/>
        <path class="cls-1" d="m208.402,225.132c0-1.131.188-2.073.565-3.016.377-.942.848-1.696,1.414-2.262.565-.565,1.319-1.037,2.073-1.414.754-.283,1.602-.471,2.45-.471,1.79,0,3.298.66,4.335,1.885s1.602,2.921,1.602,4.994-.565,3.769-1.79,5.089-2.733,1.979-4.429,1.979c-1.885,0-3.392-.66-4.523-1.885-1.131-1.319-1.696-2.921-1.696-4.9Zm2.639-1.037c0,.848.094,1.602.188,2.262.188.754.377,1.414.66,2.073s.754,1.131,1.225,1.508c.565.377,1.131.565,1.885.565.942,0,1.79-.471,2.262-1.319.565-.848.848-1.885.848-3.016,0-.754-.094-1.508-.188-2.262-.188-.754-.377-1.414-.66-2.073s-.66-1.225-1.225-1.602-1.131-.565-1.79-.565c-.754,0-1.319.188-1.79.66s-.848.942-1.037,1.602c-.283.565-.377,1.319-.377,2.167Z"/>
        <path class="cls-1" d="m221.784,225.321c0-1.037.188-2.073.565-3.016.377-.942.848-1.696,1.414-2.262.565-.66,1.225-1.131,2.073-1.414s1.508-.471,2.356-.471c1.225,0,2.073.188,2.733.66s.942.942.942,1.602c0,.471-.188.848-.471,1.131s-.754.471-1.414.471c-.094-.283-.283-.565-.377-.848-.094-.188-.283-.471-.471-.754s-.471-.471-.66-.66c-.283-.188-.565-.188-.848-.188-.848,0-1.602.377-2.167,1.225-.565.848-.848,1.885-.848,3.298,0,.66.094,1.319.283,2.073.188.66.471,1.414.754,1.979.377.66.848,1.131,1.414,1.602.565.377,1.225.66,1.979.66.66,0,1.225-.094,1.696-.283s.942-.377,1.319-.66l.377.848c-.377.471-1.037.942-1.979,1.319s-1.79.565-2.733.565c-1.79,0-3.204-.66-4.241-1.979s-1.696-3.11-1.696-4.9Z"/>
        <path class="cls-1" d="m232.621,231.54l.188-1.225,2.262-.565v-9.235l-2.262-.848.188-1.131,4.241-.377.377.377v11.12l2.356.565-.188,1.225h-7.162v.094Zm1.79-17.905c0-.471.188-.848.565-1.225.377-.283.754-.471,1.225-.471s.942.188,1.319.471.565.754.565,1.225-.188.942-.565,1.319c-.377.377-.754.565-1.319.565-.471,0-.942-.188-1.225-.565s-.565-.848-.565-1.319Z"/>
        <path class="cls-1" d="m240.16,228.996c0-.565.094-1.131.377-1.602s.66-1.037,1.225-1.414c.565-.471,1.225-.848,2.167-1.131s1.979-.471,3.11-.565v-.848c0-.565,0-1.037-.094-1.508s-.188-.848-.377-1.225c-.188-.377-.471-.66-.848-.942-.377-.188-.754-.283-1.319-.283-.283,0-.471,0-.66.094s-.283.188-.471.283c-.094.094-.188.283-.283.565-.094.188-.094.471-.188.848,0,.283-.094.754-.094,1.225v.283h-.565c-.188,0-.283,0-.565-.094s-.377-.094-.471-.283c-.094-.094-.283-.283-.377-.471-.094-.188-.188-.471-.188-.754,0-.471.283-1.037.848-1.508s1.225-.848,2.073-1.131c.754-.283,1.508-.377,2.262-.377,1.319,0,2.262.377,2.827,1.131s.848,1.885.848,3.487v5.466c0,.66.094,1.225.283,1.414.188.283.66.471,1.319.565l.754.094-.188,1.319c-.094,0-.377.094-.848.188-.471.094-.848.094-1.225.094-.754,0-1.414-.188-1.79-.66-.377-.377-.565-.848-.565-1.414v-.188h-.188c-.094.283-.283.471-.471.754s-.471.471-.754.754-.754.471-1.225.66-1.037.283-1.602.283c-.848,0-1.508-.283-2.073-.754-.377-.754-.66-1.508-.66-2.356Zm2.639-.754c0,.377.188.848.471,1.225.283.377.754.565,1.225.565s.942-.094,1.414-.377c.471-.283.848-.565,1.131-.942v-3.581c-1.602.283-2.639.754-3.298,1.225-.565.471-.942,1.131-.942,1.885Z"/>
        <path class="cls-1" d="m251.751,219.761v-.848c1.319-.942,2.544-2.262,3.675-3.769h.754v3.298h4.241l-.094,1.319h-4.146v6.879c0,1.131.188,1.885.471,2.262.377.471.942.66,1.696.66.283,0,.66-.094,1.037-.188.377-.094.66-.283.848-.377l.283-.188.283.848c-.471.66-1.037,1.225-1.79,1.602s-1.508.565-2.262.565c-.471,0-.942-.094-1.319-.188-.377-.094-.66-.377-1.037-.66-.283-.283-.565-.754-.66-1.319s-.188-1.225-.188-2.073l.094-7.822h-1.885Z"/>
        <path class="cls-1" d="m260.986,231.54l.188-1.225,2.262-.565v-9.235l-2.262-.848.188-1.131,4.241-.377.377.377v11.12l2.356.565-.188,1.225h-7.162v.094Zm1.79-17.905c0-.471.188-.848.565-1.225.377-.283.754-.471,1.225-.471s.942.188,1.319.471.565.754.565,1.225-.188.942-.565,1.319-.754.565-1.319.565c-.471,0-.942-.188-1.225-.565s-.565-.848-.565-1.319Z"/>
        <path class="cls-1" d="m268.619,225.132c0-1.131.188-2.073.565-3.016s.848-1.696,1.414-2.262c.565-.565,1.319-1.037,2.073-1.414.754-.283,1.602-.471,2.45-.471,1.79,0,3.298.66,4.335,1.885s1.602,2.921,1.602,4.994-.565,3.769-1.79,5.089-2.733,1.979-4.429,1.979c-1.885,0-3.392-.66-4.523-1.885-1.131-1.319-1.696-2.921-1.696-4.9Zm2.733-1.037c0,.848.094,1.602.188,2.262.188.754.377,1.414.66,2.073.283.66.754,1.131,1.225,1.508.565.377,1.131.565,1.885.565.942,0,1.79-.471,2.262-1.319.565-.848.848-1.885.848-3.016,0-.754-.094-1.508-.188-2.262-.188-.754-.377-1.414-.66-2.073-.283-.66-.66-1.225-1.225-1.602-.565-.377-1.131-.565-1.79-.565-.754,0-1.319.188-1.79.66s-.848.942-1.037,1.602c-.283.565-.377,1.319-.377,2.167Z"/>
        <path class="cls-1" d="m281.812,231.54l.188-1.131,2.262-.66v-9.047l-2.262-.754.188-1.131,4.429-.565.283.283-.283,1.885h.188c.565-.66,1.225-1.225,1.979-1.696s1.602-.66,2.45-.66c1.131,0,2.073.377,2.639,1.131.66.754.942,1.79.942,3.11v7.539l2.167.565-.188,1.225h-6.691l.188-1.131,2.073-.66v-6.973c0-.942-.283-1.602-.754-2.073s-1.131-.66-1.885-.66c-1.225,0-2.167.471-2.921,1.319v8.387l2.262.565-.188,1.225h-7.068v-.094Z"/>
      </g>
      <g>
        <path class="cls-2" d="m228.098,85.193v23.842c0,26.669-31.38,47.966-31.38,47.966,0,0-31.38-20.072-31.38-47.966v-23.842s7.068-13.193,31.38-13.193,31.38,13.193,31.38,13.193Z"/>
        <g>
          <path class="cls-4" d="m196.34,155.492c-.283-.188-31.663-19.601-31.663-46.27v-22.805l.094-.094c.283-.565,7.539-12.91,31.946-12.91s31.663,12.345,31.946,12.91l.094.094v22.899c0,25.444-31.38,45.987-31.663,46.175l-.283.188-.471-.188Z"/>
          <path class="cls-2" d="m196.623,73.979c24.313,0,31.38,12.533,31.38,12.533v22.711c0,25.444-31.38,45.704-31.38,45.704,0,0-31.38-19.13-31.38-45.704v-22.711s7.068-12.533,31.38-12.533m0-1.131c-24.69,0-32.134,12.628-32.417,13.193l-.188.283v22.993c0,11.214,5.56,22.805,16.02,33.642,7.822,8.104,15.643,12.91,15.926,13.099l.565.377.565-.377c.283-.188,8.104-5.277,15.926-13.476,10.46-11.026,16.02-22.522,16.02-33.171v-23.182l-.188-.283c-.094-.471-7.539-13.099-32.228-13.099h0Z"/>
        </g>
        <g>
          <path class="cls-2" d="m161.944,143.148l.094-.471h6.691l-.188,2.167-.565-.094-.283-1.414h-3.11v3.204h1.979l.283-.848.66-.094-.188,2.639-.565.094-.188-1.131h-1.79v3.298h3.298l.66-1.508.565.094-.188,2.073h-6.785l.094-.471,1.131-.283v-6.691l-1.602-.565Z"/>
          <path class="cls-2" d="m169.389,150.027c0-.188.094-.471.283-.565.188-.188.377-.283.66-.283.094.471.283.848.565,1.037.188.188.471.377.754.377s.471-.094.66-.188c.188-.094.283-.283.283-.471s-.094-.283-.188-.377l-.377-.377c-.188-.094-.377-.188-.565-.377-.188-.094-.377-.283-.565-.377-.188-.094-.377-.283-.565-.471-.188-.188-.283-.377-.377-.565-.094-.188-.188-.471-.188-.66s0-.377.094-.565c.094-.188.188-.377.377-.565.188-.188.377-.283.66-.471.283-.094.565-.188.848-.188.471,0,.848.094,1.131.283s.471.471.471.848c0,.283-.094.471-.283.66s-.377.283-.66.283v-.283c-.188-.848-.471-1.225-1.037-1.225-.188,0-.377.094-.565.188-.094.188-.188.377-.188.565s.094.283.188.471c.094.188.283.283.377.377.188.094.377.188.565.377.188.094.377.188.66.377.188.094.377.283.565.377.188.188.283.283.377.565.094.188.188.471.188.66,0,.283-.094.565-.283.848-.188.283-.471.471-.754.565-.283.188-.66.188-.942.188-.565,0-1.037-.094-1.414-.377-.565,0-.754-.283-.754-.66Z"/>
          <path class="cls-2" d="m174.195,145.786v-.377c.565-.471,1.131-1.037,1.696-1.696h.377v1.414h1.885l-.094.565h-1.885v3.11c0,.471.094.848.188,1.037.188.188.377.283.754.283.188,0,.283,0,.471-.094s.283-.094.377-.188l.094-.094.094.377c-.188.283-.471.565-.754.754s-.66.283-1.037.283c-.188,0-.377,0-.565-.094-.188-.094-.283-.188-.471-.283-.094-.094-.283-.377-.283-.565-.094-.283-.094-.565-.094-.942v-3.487h-.754Z"/>
          <path class="cls-2" d="m179.095,150.404c0-.188.094-.377.188-.565.188-.188.377-.188.565-.188s.377.094.565.188c.188.188.283.377.283.565s-.094.377-.283.565c-.188.188-.377.283-.565.283s-.377-.094-.565-.283c-.094-.188-.188-.377-.188-.565Z"/>
        </g>
        <g>
          <g>
            <g>
              <path class="cls-5" d="m198.885,108.752c-.283.094-.942-.188-.942-.188l-.66.565c-.188.754-.377,1.414-.471,1.979-.283.942-.377,1.602-.565,2.073-.848-2.356-5.654-22.145-5.654-22.145-.565.094-1.037.283-1.602.377-.565.094-1.131.188-1.696.283-1.602.188-2.921.471-4.052.66-1.037.188-1.885.471-2.45.66-1.79.754-3.11,1.885-4.146,3.298-1.037,1.414-1.602,3.204-1.602,5.277,0,1.225.188,2.167.66,2.827.377.66.942.942,1.508.942.377,0,.754-.094,1.037-.377s.377-.565.377-.942c0-.094-.094-.283-.188-.565-.094-.283-.188-.471-.377-.754s-.283-.471-.377-.754-.188-.471-.283-.565c-.094-.471-.188-.942-.188-1.508,0-1.602.565-2.921,1.79-4.052,1.225-1.131,2.921-1.885,5.183-2.262,1.508-.283,2.544-.471,3.11-.471-.754,4.241-1.602,8.01-2.356,11.308s-1.602,6.031-2.45,8.293c-.848,2.262-1.696,3.958-2.639,5.183-.942,1.131-1.885,1.79-2.921,1.79-.283,0-.66-.094-1.037-.377-.377-.188-.754-.471-1.131-.754s-.754-.471-1.131-.754c-.377-.188-.66-.377-.942-.377-.377,0-.66.094-.942.377s-.377.565-.377.942c0,.848.471,1.508,1.414,1.979.942.565,1.979.754,3.298.754.848,0,1.696-.094,2.45-.377s1.508-.754,2.167-1.319c.66-.66,1.319-1.414,1.885-2.45s1.131-2.262,1.696-3.864c0,0,.094-.377.283-1.131.188-.754.471-1.696.754-2.827s.565-2.356.942-3.675.66-2.639.942-3.864c.283-1.225.565-2.356.848-3.392.188-1.037.66-1.885.754-2.262,0,0,6.596,22.24,7.727,24.595l.471-.471.094-2.827c.471-3.298,1.225-6.314,1.79-8.858h0Z"/>
              <path class="cls-5" d="m211.983,85.287c-.66-.471-1.508-.66-2.639-.66-1.225,0-5.089,0-7.822,8.67-.66,2.262-3.016,10.366-3.958,14.23,0,.094-.094.283-.094.377h0c.565-.188,1.131-.471,1.696-.565h0c.188-.754.377-1.508.565-2.262.848-3.204,3.016-10.837,3.769-12.628,1.696-4.146,3.581-4.052,4.241-4.052h.754s.094,0,.377.094l1.037.471c.471.188.848.283,1.131.283.565,0,1.037-.188,1.508-.66.377-.377.565-.848.565-1.414s-.188-1.225-1.131-1.885Z"/>
            </g>
            <g>
              <path class="cls-5" d="m192.382,122.981c0-.094-.094-.377-.188-.66-.188-.283-.283-.66-.471-1.037s-.283-.754-.471-1.037c-.188-.377-.283-.66-.283-.754-.188-.754-.283-1.414-.283-2.073,0-1.225.283-2.544.848-3.769.188-.377.377-.754.565-1.037l-.094-2.356-.377.283c-.942,1.131-1.696,2.356-2.262,3.675-.66,1.696-1.037,3.298-1.037,4.994,0,1.602.188,2.827.66,3.769s1.037,1.414,1.885,1.414c.471,0,.848-.094,1.131-.377.188-.283.377-.66.377-1.037Z"/>
              <path class="cls-5" d="m217.355,109.034c.283-1.131.565-2.639,1.037-4.429-.942.188-1.696.377-2.262.471-.565.094-1.037.188-1.508.188-.377,0-.848.094-1.225.094h-10.46c-2.262,0-4.241.377-6.031,1.225-.942.377-1.696.848-2.45,1.414-.754.471-.848,2.639-.471,2.356.283-.283.565-.565.942-.754.848-.66,1.696-1.131,2.733-1.602,1.414-.66,3.016-.942,4.712-.942l-3.958,15.455c-1.414,5.466-2.45,8.67-2.921,9.706-.094.283-.283.565-.471.754s-.377.377-.754.565c-.283.188-1.131.565-1.131.565l-1.131-.188-.754.66-.283,1.414c1.885-.283,3.675-.471,5.371-.471.565,0,1.225,0,1.979.094.754,0,1.414.094,2.073.094s.565.094,1.037.094.754.094.848.094h.66c.188,0,.471,0,.754-.094l.754-.66-.283-.848c-.66.094-1.414.188-2.073.188-1.131,0-1.696-.094-3.016-.283.283-.66.565-1.602.942-2.827.377-1.131.754-2.45,1.131-3.769.377-1.319.754-2.639,1.037-3.958.377-1.319.66-2.544.942-3.675h4.241c.565,0,1.037.094,1.414.094.377.094.565.094.754.188s.283.188.377.283c.094.094.094.283.094.471,0,.094,0,.283-.094.565,0,.283-.094.66-.188,1.225h1.414l.754-.66v-6.785l-.754.66s-.283.942-.377,1.225c-.188.283-.283.565-.565.66-.188.094-.565.188-.942.283-.377,0-.848.094-1.414.094h-4.335c.094-.565.377-1.414.565-2.45.283-1.037.565-2.073.848-3.204.283-1.131.565-2.167.848-3.204.283-1.037.471-1.79.66-2.45l5.089.094,1.602-.094c1.131,0,1.79.094,2.262.377.377.283.565.66.565,1.225,0,.377-.094,1.319-.377,2.827h1.414l.754-.66c-.188.094-.565-.848-.377-1.696Z"/>
            </g>
          </g>
          <path class="cls-3" d="m212.737,84.628c-.66-.471-1.508-.66-2.639-.66-1.225,0-5.089,0-7.822,8.67-.66,2.262-3.016,10.366-3.958,14.23,0,.094-.094.283-.094.377h0c.565-.188,1.131-.471,1.696-.565h0c.188-.754.377-1.508.565-2.262.848-3.204,3.016-10.837,3.769-12.628,1.696-4.146,3.581-4.052,4.241-4.052h.754s.094,0,.377.094l1.037.471c.471.188.848.283,1.131.283.565,0,1.037-.188,1.508-.66.377-.377.565-.848.565-1.414-.094-.471-.283-1.225-1.131-1.885Z"/>
          <g>
            <path class="cls-3" d="m193.042,122.416c0-.094-.094-.377-.188-.66-.094-.283-.283-.66-.471-1.037s-.283-.754-.471-1.037c-.188-.377-.283-.66-.283-.754-.188-.754-.283-1.414-.283-2.073,0-1.225.283-2.544.848-3.769.188-.283.283-.66.471-.942l-.66-1.79c-.848,1.037-1.508,2.073-1.979,3.298-.66,1.696-1.037,3.298-1.037,4.994,0,1.602.188,2.827.66,3.769s1.037,1.414,1.885,1.414c.471,0,.848-.094,1.131-.377.283-.377.377-.754.377-1.037Z"/>
            <path class="cls-3" d="m216.884,104.417c-.565.094-1.037.188-1.508.188-.377,0-.848.094-1.225.094h-10.46c-2.262,0-4.241.377-6.031,1.225s-3.298,1.885-4.618,3.11l.565,1.696c.283-.377.66-.754,1.037-1.131,1.037-.942,2.262-1.696,3.581-2.356,0,0,.471-.188.66-.283.377-.188,1.037-.377,1.037-.377.942-.283,1.979-.377,3.11-.377l-3.958,15.455c-1.414,5.466-2.45,8.67-2.921,9.706-.094.283-.283.565-.471.754s-.377.377-.754.565c-.283.188-.66.377-1.131.565-.471.188-1.037.377-1.79.471l-.283,1.414c1.885-.283,3.675-.471,5.371-.471.565,0,1.225,0,1.979.094.754,0,1.414.094,2.073.094s.565.094,1.037.094.754.094.848.094h.66c.188,0,.471,0,.754-.094l.377-1.508c-.66.094-1.414.188-2.073.188-1.131,0-1.696-.094-3.016-.283.283-.66.565-1.602.942-2.827.377-1.131.754-2.356,1.131-3.769.377-1.319.754-2.639,1.037-3.958.377-1.319.66-2.544.942-3.675h4.241c.565,0,1.037.094,1.414.094.377.094.565.094.754.188s.283.188.377.283c.094.094.094.283.094.471,0,.094,0,.283-.094.565,0,.283-.094.66-.188,1.225h1.414c.377-2.356.848-4.618,1.414-6.785h-1.414c-.094.565-.283.942-.377,1.225-.188.283-.283.565-.565.66-.188.094-.565.188-.942.283-.377,0-.848.094-1.414.094h-4.335c.094-.565.377-1.414.565-2.45.283-1.037.565-2.073.848-3.204.283-1.131.565-2.167.848-3.204.283-1.037.471-1.79.66-2.45l5.089.094,1.602-.094c1.131,0,1.79.188,2.262.377.377.283.565.66.565,1.225,0,.377-.094,1.319-.377,2.827h1.414c.094-.471.188-1.319.471-2.45s.565-2.639,1.037-4.429c-.942.471-1.696.66-2.262.754Z"/>
          </g>
          <path class="cls-3" d="m199.544,108.092c-.565.094-1.131.283-1.602.471-.188.754-.377,1.414-.471,1.885-.283.942-.377,1.602-.565,2.073-.848-2.356-5.654-22.145-5.654-22.145-.565.094-1.037.283-1.602.377-.565.094-1.131.188-1.696.283-1.602.188-2.921.471-4.052.66-1.037.188-1.885.471-2.45.66-1.79.754-3.11,1.885-4.146,3.298-1.037,1.414-1.602,3.204-1.602,5.277,0,1.225.188,2.167.66,2.827.377.66.942.942,1.508.942.377,0,.754-.094,1.037-.377s.377-.565.377-.942c0-.094-.094-.283-.188-.565-.094-.283-.188-.471-.377-.754s-.283-.471-.377-.754c-.094-.283-.188-.471-.283-.565-.094-.471-.188-.942-.188-1.508,0-1.602.565-2.921,1.79-4.052,1.225-1.131,2.921-1.885,5.183-2.262,1.508-.283,2.544-.471,3.11-.471-.754,4.241-1.602,8.01-2.356,11.308s-1.602,6.031-2.45,8.293c-.848,2.262-1.696,3.958-2.639,5.183-.942,1.131-1.885,1.79-2.921,1.79-.283,0-.66-.094-1.037-.377-.377-.188-.754-.471-1.131-.754s-.754-.471-1.131-.754c-.377-.188-.66-.377-.942-.377-.377,0-.66.094-.942.377s-.377.565-.377.942c0,.848.471,1.508,1.414,1.979.942.565,1.979.754,3.298.754.848,0,1.696-.094,2.45-.377s1.508-.754,2.167-1.319c.66-.66,1.319-1.414,1.885-2.45s1.131-2.262,1.696-3.864c0,0,.094-.377.283-1.131.188-.754.471-1.696.754-2.827s.565-2.356.942-3.675.66-2.639.942-3.864c.283-1.225.565-2.356.848-3.392.188-1.037.377-1.696.471-2.073,0,0,6.596,22.24,7.727,24.595l.754-3.392c.66-3.392,1.319-6.408,1.885-8.952h0Z"/>
        </g>
        <g>
          <path class="cls-2" d="m213.397,150.969l.094-.471,1.225-.283v-4.523h-1.131l.094-.471,2.073-.471h.188v5.654l1.225.188-.094.565h-3.675v-.188Z"/>
          <path class="cls-2" d="m217.261,147.106c0-.754.283-1.319.754-1.885.471-.471,1.037-.754,1.696-.754.377,0,.754.094,1.131.283.283.188.565.377.754.66s.283.565.377.942c.094.377.094.754.094,1.131,0,.754-.188,1.508-.565,2.262-.377.754-.848,1.414-1.414,1.979-.66.565-1.319.942-1.979,1.225l-.188-.471c.377-.188.754-.377,1.037-.565.283-.188.565-.471.754-.66s.377-.471.471-.754c.188-.283.283-.565.377-.848.094-.283.188-.565.188-.848h-.094c-.188.188-.377.377-.66.565-.283.094-.565.188-.848.188-.66,0-1.131-.188-1.414-.565-.283-.565-.471-1.131-.471-1.885Zm1.225-.188c0,.66.094,1.037.283,1.319.188.283.471.471.942.471.188,0,.471-.094.66-.188.188-.094.377-.283.471-.377v-.942c0-.377,0-.754-.094-1.037s-.188-.565-.377-.848-.377-.283-.66-.283c-.848,0-1.225.66-1.225,1.885Z"/>
          <path class="cls-2" d="m222.444,146.917l.283-2.167h4.241l.094.66c-.848,1.508-1.414,2.544-1.696,3.11-.66,1.508-1.131,2.921-1.319,4.241v.283h-.377c-.283,0-.471-.094-.565-.188-.094-.188-.188-.283-.188-.565,0-.754,1.037-2.921,3.204-6.502h-2.827l-.471,1.225-.377-.094Z"/>
          <path class="cls-2" d="m227.438,149.084c0-.754.471-1.508,1.414-2.073v-.094c-.283-.188-.565-.471-.754-.754-.283-.377-.377-.754-.377-1.131,0-.565.188-1.037.66-1.508.377-.377.942-.66,1.508-.66s1.037.188,1.414.471.565.754.565,1.225c0,.754-.377,1.414-1.131,1.979v.094c.942.565,1.414,1.319,1.414,2.167,0,.66-.283,1.131-.754,1.602s-1.131.66-1.885.66c-.66,0-1.131-.188-1.508-.565-.377-.283-.565-.754-.565-1.414Zm1.037-.094c0,.377.094.754.377,1.131.283.283.565.471.848.471.377,0,.66-.094.942-.377.188-.188.377-.565.377-1.037,0-.283-.188-.66-.471-.942s-.754-.66-1.319-.942c-.188.188-.377.377-.471.66-.188.377-.283.66-.283,1.037Zm.188-4.523c0,.377.094.754.377,1.131.283.377.565.66,1.037.942.094-.094.188-.283.283-.377.094-.094.094-.283.188-.471.094-.188.094-.471.094-.754,0-.377-.094-.754-.283-1.037s-.471-.471-.754-.471-.471.094-.66.283c-.188.283-.283.471-.283.754Z"/>
        </g>
      </g>
    </g>
  </g>
</svg>