<?xml version="1.0" encoding="UTF-8"?>
<svg id="Layer_2" data-name="Layer 2" xmlns="http://www.w3.org/2000/svg" width="394" height="340" viewBox="0 0 394 340">
  <defs>
    <style>
      .cls-1 {
        fill: #e007b4;
      }

      .cls-1, .cls-2 {
        stroke-width: 0px;
      }

      .cls-2 {
        fill: #fff;
      }
    </style>
  </defs>
  <g id="Layer_1-2" data-name="Layer 1">
    <g>
      <rect class="cls-2" width="394" height="340"/>
      <path class="cls-1" d="m112.87,141.23c3,0,5.52,2.28,5.52,5.28v5.76h0v33.24h-15.48v-32.52h-12.96v32.52h-15.84v-44.28h38.76Zm201.12-14.04h-15.48v59.04h9.96c3,0,5.52-2.28,5.52-5.28v-53.76Zm-174.6,59.04h33.24v-44.28h-15.48v32.52h-12.96v-32.52h-15.84v38.76c0,3,2.28,5.52,5.28,5.52h5.76Zm84.96,0c3,0,5.52-2.28,5.52-5.28v-39h-30.24v12.12h14.76v20.28h-14.76v-47.28h-15.84v59.04h40.56v.12Zm57.12,0c3,0,5.52-2.28,5.52-5.28v-39h-30.24v12.12h14.76v20.28h-14.76v-47.28h-15.84v59.04h40.56v.12Z"/>
    </g>
  </g>
</svg>