<?xml version="1.0" encoding="UTF-8"?>
<svg id="Layer_2" data-name="Layer 2" xmlns="http://www.w3.org/2000/svg" width="394" height="340" viewBox="0 0 394 340">
  <defs>
    <style>
      .cls-1 {
        fill: #7399a6;
      }

      .cls-1, .cls-2, .cls-3, .cls-4 {
        stroke-width: 0px;
      }

      .cls-2 {
        fill: #a31f21;
      }

      .cls-3 {
        fill: #fff;
      }

      .cls-4 {
        fill: #706659;
      }
    </style>
  </defs>
  <g id="Layer_1-2" data-name="Layer 1">
    <g>
      <rect class="cls-3" width="394" height="340"/>
      <g>
        <path class="cls-4" d="m26.703,176.984c0,.899.133,1.757.397,2.571.264.816.647,1.534,1.147,2.155s1.112,1.113,1.834,1.481c.722.366,1.548.548,2.475.548.917,0,1.735-.182,2.453-.548.718-.367,1.324-.86,1.821-1.481.494-.62.875-1.339,1.139-2.155.264-.815.397-1.672.397-2.571v-.584c0-.88-.133-1.726-.397-2.536-.264-.811-.646-1.529-1.147-2.155-.5-.626-1.112-1.126-1.834-1.501s-1.544-.564-2.46-.564-1.738.189-2.46.564c-.724.375-1.332.875-1.829,1.501-.494.626-.875,1.344-1.139,2.155-.264.811-.397,1.656-.397,2.536,0,0,0,.584,0,.584Zm-.75-.584c0-1.103.159-2.113.48-3.03.32-.918.769-1.708,1.348-2.37.58-.662,1.272-1.179,2.078-1.55.807-.37,1.696-.556,2.669-.556.982,0,1.879.186,2.689.556.811.371,1.503.888,2.078,1.55.575.662,1.022,1.452,1.341,2.37.32.917.48,1.927.48,3.03v.584c0,1.103-.158,2.113-.473,3.03-.315.918-.762,1.708-1.341,2.37s-1.272,1.179-2.078,1.55c-.805.37-1.695.555-2.668.555-.984,0-1.879-.185-2.691-.555-.811-.371-1.505-.888-2.085-1.55-.579-.662-1.028-1.452-1.348-2.37-.32-.917-.48-1.927-.48-3.03,0,0,0-.584,0-.584Z"/>
        <path class="cls-4" d="m42.983,184.212v-14.276h-2.613v-.764h2.613v-2.141c0-.722.09-1.36.272-1.911.18-.552.439-1.017.777-1.398.339-.379.752-.667,1.238-.862.485-.194,1.036-.292,1.647-.292.287,0,.582.016.883.05.3.032.599.094.896.188l-.111.722c-.13-.038-.256-.067-.375-.091-.121-.023-.244-.043-.368-.062-.126-.019-.263-.032-.41-.042-.149-.009-.316-.015-.501-.015-.992,0-1.771.323-2.342.966-.569.645-.855,1.56-.855,2.746v2.141h3.976v.764h-3.976v14.276h-.75Z"/>
      </g>
      <path class="cls-4" d="m59.038,177.414h9.354l-4.67-12.538s-4.684,12.538-4.684,12.538Zm9.633.75h-9.911l-2.251,6.047h-.82l7.575-20.238h.918l7.576,20.238h-.82s-2.266-6.047-2.266-6.047Z"/>
      <g>
        <path class="cls-4" d="m85.455,184.212h-.75v-10.008c0-.899-.103-1.643-.307-2.231s-.488-1.057-.855-1.404c-.366-.347-.801-.591-1.306-.73-.505-.138-1.053-.208-1.647-.208-.833,0-1.561.172-2.183.515-.62.343-1.144.77-1.57,1.285s-.764,1.067-1.014,1.655-.422,1.128-.515,1.619v9.508h-.764v-15.039h.764v3.557c.222-.537.502-1.04.841-1.507.338-.468.734-.874,1.189-1.217.453-.343.957-.614,1.507-.813.552-.2,1.147-.299,1.786-.299,1.261,0,2.291.279,3.093.835.803.555,1.328,1.463,1.578,2.724.204-.501.48-.966.827-1.398.347-.43.757-.807,1.23-1.126.473-.32,1.001-.572,1.585-.757.583-.186,1.213-.279,1.891-.279.758,0,1.438.105,2.035.312.598.209,1.103.539,1.515.988.413.45.728,1.026.945,1.731.218.703.327,1.556.327,2.557v9.731h-.75v-9.731c0-.954-.102-1.746-.305-2.377-.204-.63-.489-1.128-.855-1.494-.366-.366-.801-.623-1.306-.772-.505-.147-1.055-.217-1.647-.208-.594.009-1.134.09-1.62.243s-.925.355-1.313.606c-.39.249-.728.535-1.016.855-.287.319-.531.646-.729.979-.2.334-.355.665-.466.994-.111.328-.176.627-.194.896v10.008h0Z"/>
        <path class="cls-4" d="m105.075,169.644c-.76,0-1.458.149-2.093.445-.634.296-1.193.707-1.674,1.23-.482.524-.875,1.138-1.175,1.842-.301.703-.494,1.463-.578,2.279h10.481v-.181c0-.75-.118-1.467-.354-2.148-.237-.681-.571-1.278-1.001-1.793-.431-.515-.953-.922-1.564-1.223-.612-.301-1.293-.452-2.043-.452m.277,14.845c-.918,0-1.774-.185-2.571-.556-.797-.37-1.494-.887-2.092-1.55-.598-.662-1.068-1.45-1.411-2.362s-.515-1.916-.515-3.009v-.611c0-1.093.166-2.101.5-3.024.334-.922.785-1.714,1.356-2.377.569-.662,1.237-1.179,2.002-1.549.764-.371,1.582-.556,2.453-.556.833,0,1.6.155,2.299.465.699.311,1.302.749,1.808,1.314s.899,1.241,1.182,2.029c.283.788.423,1.659.423,2.613v.876h-11.273v.82c0,.937.149,1.814.445,2.634s.706,1.533,1.23,2.141c.524.606,1.143,1.085,1.856,1.438.714.352,1.483.528,2.307.528.426,0,.841-.032,1.243-.096.403-.066.791-.177,1.162-.334.37-.158.728-.368,1.069-.632.343-.264.673-.6.988-1.008l.528.375c-.249.36-.537.69-.862.986-.324.297-.693.552-1.105.765-.411.213-.868.379-1.369.5-.5.121-1.05.181-1.653.181"/>
        <path class="cls-4" d="m120.483,169.714c-.149-.019-.304-.036-.465-.055-.163-.019-.332-.028-.508-.028-.695,0-1.32.121-1.877.362-.555.241-1.037.572-1.446.993-.407.422-.744.921-1.008,1.494-.264.575-.456,1.201-.576,1.877v9.855h-.75v-15.041h.75v3.129c.407-1.048,1.02-1.877,1.834-2.488.816-.612,1.84-.918,3.072-.918.23,0,.435.013.611.042.177.028.324.066.445.111,0,0-.083.667-.083.667Z"/>
        <path class="cls-4" d="m123.94,184.212h-.75v-15.039h.75v15.039Zm-1.139-19.738c0-.213.074-.397.222-.549.147-.153.328-.229.541-.229.214,0,.397.076.549.229.153.153.229.336.229.549s-.076.394-.229.543c-.153.147-.335.222-.549.222-.213,0-.394-.075-.541-.222-.149-.149-.222-.33-.222-.543"/>
        <path class="cls-4" d="m133.481,183.739c.584,0,1.155-.078,1.716-.236.56-.158,1.064-.401,1.509-.73.445-.328.811-.75,1.097-1.265.288-.515.454-1.132.5-1.856h.752c-.038.769-.21,1.452-.521,2.05s-.718,1.103-1.223,1.515-1.087.728-1.745.945c-.658.218-1.353.327-2.085.327-.973,0-1.842-.185-2.606-.556-.764-.37-1.41-.887-1.932-1.549-.524-.663-.922-1.452-1.195-2.37-.273-.918-.41-1.927-.41-3.031v-.583c0-1.103.137-2.113.41-3.031.273-.917.671-1.707,1.195-2.369.523-.663,1.163-1.179,1.919-1.55.754-.371,1.619-.556,2.591-.556.724,0,1.416.111,2.078.334.663.222,1.249.553,1.758.994.511.439.922.986,1.238,1.64.315.653.49,1.411.528,2.273h-.752c-.036-.75-.194-1.407-.472-1.967-.279-.56-.638-1.029-1.077-1.404s-.946-.655-1.515-.84c-.569-.186-1.164-.279-1.786-.279-.917,0-1.714.177-2.39.528-.677.352-1.235.835-1.675,1.446-.439.612-.766,1.328-.981,2.148-.212.82-.319,1.698-.319,2.634v.583c0,.946.107,1.829.319,2.649.214.82.543,1.533.988,2.14s1.006,1.087,1.682,1.439c.677.352,1.478.528,2.405.528"/>
        <path class="cls-4" d="m146.15,183.753c.722,0,1.392-.084,2.007-.251.616-.167,1.172-.407,1.67-.722.494-.316.93-.694,1.305-1.134s.689-.938.939-1.494v-3.572h-3.559c-.973,0-1.845.095-2.613.284-.769.19-1.423.457-1.96.8s-.95.753-1.237,1.23-.431.998-.431,1.564c0,.454.095.88.285,1.278.19.399.456.749.799,1.051.343.3.75.537,1.223.709.473.172.996.257,1.572.257m6.198.458c-.102-.352-.174-.776-.216-1.272-.042-.496-.062-.989-.062-1.481-.251.407-.561.795-.931,1.16-.371.366-.803.689-1.293.966-.492.279-1.042.498-1.655.661-.611.162-1.292.243-2.042.243-.705,0-1.343-.099-1.912-.299-.569-.198-1.056-.478-1.459-.84-.403-.362-.714-.793-.931-1.293-.218-.501-.327-1.052-.327-1.653,0-.667.158-1.284.473-1.849s.772-1.049,1.368-1.452c.599-.403,1.328-.718,2.189-.946.863-.226,1.836-.34,2.92-.34h3.6v-2.196c0-1.26-.397-2.238-1.189-2.933-.793-.694-1.925-1.042-3.399-1.042-.685,0-1.32.094-1.904.279-.583.185-1.091.442-1.522.772-.43.328-.769.718-1.014,1.167s-.368.934-.368,1.452l-.75-.028c0-.583.137-1.142.41-1.675.273-.532.658-1.001,1.154-1.404.496-.402,1.084-.722,1.765-.958.682-.237,1.424-.355,2.231-.355.778,0,1.494.099,2.148.299s1.217.496,1.69.89c.472.394.84.89,1.104,1.487.265.598.397,1.29.397,2.078v7.533c0,.269.009.545.028.828.017.283.043.551.076.805.032.256.071.494.118.717.047.222.102.407.166.555v.126s-.862,0-.862,0Z"/>
        <path class="cls-2" d="m163.661,174.524c14.095,2.555,28.798,1.261,42.685-2.61,6.957-1.936,13.76-4.445,20.383-7.368,6.587-3.007,13.031-6.337,19.282-10.012,6.26-3.666,12.37-7.575,18.547-11.447,3.09-1.938,6.203-3.856,9.491-5.577,1.644-.863,3.326-1.688,5.149-2.357.91-.335,1.858-.632,2.904-.807,1.036-.17,2.196-.251,3.478.138.326.106.698.264,1.089.564.387.288.789.799.949,1.371.301,1.184-.079,1.921-.322,2.476-.565,1.108-1.221,1.833-1.903,2.546-1.351,1.4-2.833,2.52-4.29,3.655l-4.428,3.267-4.329,3.336c-5.764,4.438-11.486,8.929-16.792,13.859-2.607,2.499-5.228,5.014-7.351,7.891-1.05,1.438-1.935,2.987-2.633,4.53-.673,1.548-1.093,3.142-1.016,4.463.075,1.316.756,2.389,1.968,3.346.6.462,1.296.884,2.041,1.258.741.371,1.466.643,2.264.827,1.582.367,3.302.346,5.009.058,1.706-.311,3.382-.907,4.991-1.656,3.213-1.529,6.227-3.517,9.13-5.645,2.902-2.137,5.699-4.435,8.44-6.8,5.482-4.737,10.762-9.729,16.066-14.707,10.64-9.909,21.144-20.107,33.233-28.554,6.06-4.155,12.519-7.966,19.763-10.234,3.612-1.117,7.438-1.789,11.332-1.716,3.887.056,7.806.942,11.38,2.554,1.081.486,1.562,1.758,1.075,2.838-.486,1.08-1.757,1.561-2.837,1.075-.019-.008-.046-.021-.063-.029-3.013-1.477-6.306-2.348-9.693-2.511-3.385-.177-6.836.295-10.201,1.215-6.755,1.842-13.121,5.303-19.095,9.259-5.991,3.973-11.661,8.48-17.189,13.162-5.538,4.678-10.89,9.59-16.245,14.513-5.361,4.916-10.715,9.862-16.297,14.576-2.794,2.353-5.65,4.646-8.632,6.788-2.983,2.134-6.094,4.136-9.472,5.705-1.682.791-3.429,1.489-5.27,1.988-1.832.523-3.807.808-5.822.588-.998-.102-2.027-.354-2.96-.693-.93-.331-1.864-.741-2.743-1.341-.882-.582-1.738-1.344-2.364-2.345-.64-.985-1.022-2.188-1.053-3.343-.092-2.346.868-4.28,1.889-5.916,1.045-1.653,2.307-3.062,3.555-4.438,2.503-2.746,5.097-5.33,7.847-7.747,5.452-4.875,11.174-9.39,16.775-14.032,2.83-2.278,5.589-4.659,8.103-7.249,1.274-1.265,2.495-2.59,3.586-3.887.521-.645,1.056-1.327,1.293-1.857.135-.252.079-.444.126-.153.035.134.15.264.177.276.032.021-.012-.019-.119-.05-.969-.322-2.711.005-4.27.584-1.6.563-3.205,1.318-4.79,2.126-3.166,1.636-6.303,3.454-9.449,5.258-6.279,3.647-12.56,7.37-18.983,10.839-6.416,3.478-12.905,6.848-19.611,9.763-6.661,3.005-13.523,5.608-20.567,7.632-7.048,1.994-14.254,3.54-21.588,4.233-3.665.342-7.351.519-11.042.492-3.691-.035-7.386-.289-11.065-.728-.899-.106-1.542-.922-1.435-1.821s.923-1.541,1.821-1.434c.032.004.07.009.1.015"/>
        <path class="cls-2" d="m378.18,127.743c-.043.804-.729,1.423-1.533,1.38-.804-.042-1.423-.729-1.381-1.533.043-.804.729-1.423,1.534-1.38.804.042,1.423.729,1.38,1.533"/>
        <path class="cls-1" d="m31.59,142.186c.718.214,1.901.323,3.3.323,2.189,0,4.127-1.184,5.06-2.44.789-1.041.934-2.368.934-3.624,0-4.7-4.378-5.956-6.495-5.956-.611,0-2.081,0-2.799.251v11.447Zm0,3.157c0,1.687.035,6.567.071,7.068.072.789.431,1.148,1.184,1.148h2.297c.251,0,.287.109.287.252v.86c0,.18-.036.288-.323.288-.502,0-1.615-.109-4.987-.109-3.157,0-4.557.109-4.951.109-.252,0-.288-.109-.288-.252v-.896c0-.18.036-.252.216-.252h1.542c1.221,0,1.471-.18,1.58-1.148.036-.358.143-5.956.143-10.118v-4.126c0-2.369-.036-6.28-.072-6.638-.071-.718-.43-.791-1.399-.791h-2.046c-.178,0-.214-.071-.214-.287v-.86c0-.18.036-.252.214-.252.395,0,1.687.107,5.096.107.646,0,2.763-.107,3.947-.107,4.055,0,5.956.395,8.001,1.794,1.687,1.148,2.727,3.157,2.727,5.203,0,4.521-3.407,7.319-9.113,7.319-1.328,0-2.763-.035-3.911-.178,0,0,0,1.865,0,1.865Z"/>
        <path class="cls-1" d="m51.751,146.958c-1.292.969-4.808,1.687-4.808,4.664,0,1.328.789,1.974,1.865,1.974,1.041,0,2.942-1.256,2.942-2.224,0,0,0-4.414,0-4.414Zm3.696,6.315c.575,0,1.076-.287,1.256-.537.145-.181.216-.252.359-.145l.359.288c.107.107.18.287-.036.646-.287.537-.969,1.758-2.799,1.758-1.29,0-2.224-.934-2.547-2.404h-.071c-.754.896-1.938,1.649-3.552,2.188-.682.216-1.328.216-2.117.216-.862,0-2.153-.718-2.153-2.979,0-1.651.753-3.086,3.588-4.341,1.615-.718,3.48-1.578,4.055-2.081v-2.297c-.072-.61-.109-1.542-.502-2.009-.395-.468-1.112-.791-2.153-.791-.717,0-1.83.288-2.331.754-.502.466-.18,1.004-.18,1.651,0,1.256-.431,2.045-1.901,2.045-.575,0-.862-.323-.862-1.148,0-1.148,1.005-2.511,2.476-3.373,1.506-.898,2.762-1.256,4.378-1.256,1.686,0,2.368.502,2.87.969.753.753.789,1.578.789,2.547v7.607c0,2.045.43,2.691,1.076,2.691"/>
        <path class="cls-1" d="m59.966,154.241c-.18-.107-.18-.323-.216-.502l-.61-3.409c-.036-.18.072-.251.216-.287l.466-.109c.143-.035.251.036.323.216l.896,1.759c.718,1.327,1.221,2.224,3.122,2.224,1.256,0,2.834-.754,2.834-2.44,0-1.615-.789-2.547-3.48-3.302-2.117-.61-4.234-1.722-4.234-4.557,0-2.475,2.333-4.378,5.023-4.378,1.723,0,2.656.431,3.3.754.539.251.611.43.646.646l.539,2.511c0,.143-.071.252-.251.323l-.43.143c-.145.036-.216,0-.323-.18l-1.221-1.649c-.43-.682-1.112-1.4-2.512-1.4-1.363,0-2.762.825-2.762,2.369,0,2.081,1.686,2.475,3.444,2.977,2.62.753,4.27,1.83,4.307,4.593-.036,2.906-2.404,4.735-5.455,4.735-1.758,0-3.193-.717-3.623-1.04"/>
        <path class="cls-1" d="m76.469,150.366c0,2.691,1.219,3.158,1.865,3.158.825,0,1.867-.145,2.369-.468.18-.107.323-.071.43.072l.18.323c.107.143.036.287-.072.394-.358.359-1.829,1.436-3.982,1.436-1.758,0-3.48-1.687-3.48-3.051,0-1.47.107-4.628.107-5.131v-.789c0-.646.036-3.086.071-4.592h-2.188c-.323,0-.539-.145-.539-.431s.216-.395.646-.646c.862-.502,3.624-3.265,4.091-4.485.109-.287.287-.359.502-.359.287,0,.359.252.359.539l-.18,3.516h4.987c.214,0,.323.18.251.323l-.358,1.256c-.036.18-.109.288-.323.288h-4.629c-.071,1.649-.107,3.409-.107,5.058v3.588Z"/>
        <path class="cls-1" d="m85.33,145.307c0-1.83-.288-2.188-1.292-2.727l-.682-.359c-.216-.071-.287-.107-.287-.251v-.216c0-.143.071-.216.287-.323l3.552-1.83c.216-.107.359-.143.502-.143.216,0,.251.216.251.431l.18,2.547h.143c1.077-1.651,2.763-3.122,4.307-3.122,1.219,0,1.829.753,1.829,1.578,0,1.041-.86,1.759-1.506,1.759-.395,0-.754-.145-1.041-.288-.287-.18-.717-.287-1.184-.287-.573,0-1.506.359-2.117,1.507-.214.394-.358,1.04-.358,1.148v7.462c0,1.113.251,1.471,1.004,1.471h1.687c.216,0,.252.109.252.323v.646c0,.216-.036.323-.18.323-.216,0-1.867-.107-3.804-.107-2.224,0-3.732.107-3.946.107-.143,0-.216-.071-.216-.358v-.611c0-.251.072-.323.395-.323h1.399c.537,0,.789-.214.789-.681.036-1.184.036-2.44.036-4.307,0,0,0-3.373,0-3.373Z"/>
        <path class="cls-1" d="m95.302,162.781c0-.753.789-1.399,1.651-1.399.682,0,1.328.323,1.651.394.251.036.539,0,.753-.214.539-.646,2.369-4.737,2.87-6.137-.178-.896-3.982-12.126-4.269-12.881-.431-.896-.754-1.507-1.687-1.507h-.933c-.252,0-.287-.107-.287-.322v-.718c0-.143.035-.251.287-.251.323,0,1.184.107,3.3.107,1.83,0,2.942-.107,3.338-.107.287,0,.323.107.323.251v.753c0,.18-.036.287-.216.287h-.682c-.394,0-.537.252-.466.791.109.789,2.549,8.719,2.942,9.508h.143c.359-.575,3.48-8.037,3.696-8.935.216-.896-.071-1.364-.61-1.364h-.573c-.216,0-.252-.107-.252-.287v-.717c0-.18.036-.287.216-.287.466,0,1.219.107,2.942.107.969,0,1.794-.107,2.188-.107.216,0,.216.143.216.287v.682c0,.214,0,.322-.18.322h-.575c-.394,0-.896.181-1.256.647-.789.969-3.157,6.458-5.633,12.091-1.758,3.982-3.157,7.319-3.803,8.503-.502.933-1.148,2.333-3.05,2.333-1.364,0-2.046-.754-2.046-1.83"/>
        <path class="cls-1" d="m125.654,152.088c-2.583-2.44-3.839-6.602-3.839-10.047,0-3.336,1.076-6.781,3.659-9.508,1.83-1.938,5.06-3.624,8.969-3.624,3.265,0,5.956,1.221,7.249,1.974.466.288.646.252.717,0l.287-1.04c.072-.216.145-.216.468-.216s.394.072.394.575c0,.681.717,5.956.898,6.96.035.18,0,.323-.145.359l-.537.143c-.18.036-.251,0-.359-.287-.502-1.184-1.292-2.906-2.799-4.449-1.506-1.544-3.409-2.763-6.243-2.763-6.422,0-9.007,5.704-8.971,10.943,0,2.081.646,6.136,3.445,9.221,2.44,2.727,4.485,3.013,6.889,3.013,4.055,0,7.213-2.224,8.864-4.557.107-.178.18-.214.287-.107l.466.359c.107.071.18.143.071.323-2.152,3.122-5.633,6.028-10.691,6.028-4.234,0-6.925-1.328-9.078-3.302"/>
        <path class="cls-1" d="m150.371,135.296c0-2.188-.43-2.583-1.722-3.013l-.61-.216c-.216-.072-.252-.107-.252-.216v-.323c0-.143.107-.178.431-.358l3.73-1.974c.287-.143.539-.287.825-.287.216,0,.359.287.288.896-.072.61-.109,7.893-.109,9.688v2.297h.18c1.256-1.507,3.336-2.333,4.916-2.333,1.506,0,2.547.466,3.552,1.435,1.615,1.507,1.542,3.338,1.542,5.275v2.045c0,2.01.072,4.234.072,4.916,0,.43.573.537,1.328.537h.61c.287,0,.394.072.394.323v.539c0,.287-.071.43-.287.43-.251,0-1.399-.107-3.445-.107-1.758,0-3.05.107-3.373.107-.251,0-.323-.107-.323-.394v-.61c0-.18.036-.288.252-.288h.825c.61,0,1.327-.071,1.363-.681.036-.502,0-2.405,0-3.552v-2.906c0-2.01-.143-3.445-1.184-4.414-.717-.682-1.47-1.005-2.368-1.005-1.04,0-2.331.359-3.336,1.507-.323.394-.718,1.112-.718,1.758v7.822c0,1.147.109,1.47.789,1.47h1.077c.251,0,.394.072.394.288v.61c0,.251-.071.394-.287.394-.287,0-1.758-.107-3.409-.107-1.794,0-3.157.107-3.48.107-.145,0-.252-.107-.252-.358v-.646c0-.252.143-.288.539-.288h.753c.575,0,1.112-.143,1.184-.573.107-.682.107-4.628.107-6.961v-10.836h0Z"/>
        <path class="cls-1" d="m176.024,144.231c.681,0,.969-.18.969-.502,0-.825-.43-3.193-2.763-3.193-1.578,0-3.086,1.04-3.768,3.696,0,0,5.562,0,5.562,0Zm-5.705,1.076c-.071.323-.107.896-.107,1.722,0,3.517,2.224,6.172,5.094,6.172,2.189,0,3.732-1.256,4.341-2.44.072-.143.216-.214.323-.18l.468.252c.107.036.18.143,0,.539-.646,1.435-2.512,3.91-5.705,3.91-2.045,0-4.307-.61-5.633-2.547-1.257-1.83-1.58-3.157-1.58-5.669,0-1.399.359-3.803,2.262-5.704,1.542-1.58,3.336-1.903,5.129-1.903,4.127,0,5.275,3.875,5.275,5.275,0,.501-.43.573-1.004.573,0,0-8.864,0-8.864,0Z"/>
        <path class="cls-1" d="m182.839,141.575c-.18,0-.252-.072-.18-.395l.143-1.076c.036-.216.143-.251.431-.251h2.081v-.646c0-3.552,1.005-5.885,2.404-7.463,1.901-2.081,3.875-2.835,5.884-2.835,1.687,0,3.265.646,3.265,2.01,0,.86-.933,1.542-1.506,1.542-.359,0-.718-.071-1.005-.214-.323-.18-.718-.646-.862-.825-.466-.575-.969-.825-1.651-.825-.933,0-1.901.251-2.691,1.256-1.328,1.687-1.256,4.808-1.256,7.32v.682h4.341c.251,0,.287.214.251.358l-.18,1.184c-.035.143-.178.18-.466.18h-3.946v3.229c0,4.234,0,7.534.035,7.93.072.61.18.933.934.933h2.045c.323,0,.395.072.395.287v.575c0,.287-.072.43-.252.43-.216,0-1.542-.107-4.305-.107-1.974,0-3.804.107-4.091.107-.214,0-.287-.071-.287-.251v-.789c0-.18.072-.252.359-.252h1.722c.682,0,.825-.43.862-1.256v-10.836h-2.476Z"/>
        <path class="cls-1" d="m195.359,154.241c-.18-.107-.18-.323-.216-.502l-.61-3.409c-.036-.18.072-.251.214-.287l.468-.109c.143-.035.251.036.323.216l.896,1.759c.718,1.327,1.221,2.224,3.122,2.224,1.256,0,2.834-.754,2.834-2.44,0-1.615-.789-2.547-3.48-3.302-2.117-.61-4.234-1.722-4.234-4.557,0-2.475,2.333-4.378,5.023-4.378,1.723,0,2.656.431,3.3.754.539.251.611.43.646.646l.539,2.511c0,.143-.071.252-.251.323l-.43.143c-.145.036-.216,0-.323-.18l-1.221-1.649c-.43-.682-1.112-1.4-2.512-1.4-1.363,0-2.762.825-2.762,2.369,0,2.081,1.686,2.475,3.444,2.977,2.62.753,4.27,1.83,4.307,4.593-.036,2.906-2.404,4.735-5.455,4.735-1.758,0-3.193-.717-3.623-1.04"/>
      </g>
    </g>
  </g>
</svg>