<?xml version="1.0" encoding="UTF-8"?>
<svg id="Layer_1" data-name="Layer 1" xmlns="http://www.w3.org/2000/svg" width="291.06" height="87.425" viewBox="0 0 291.06 87.425">
  <defs>
    <style>
      .cls-1 {
        fill: #7399a6;
      }

      .cls-1, .cls-2, .cls-3, .cls-4 {
        stroke-width: 0px;
      }

      .cls-2 {
        fill: #a31f21;
      }

      .cls-3 {
        fill: #fff;
      }

      .cls-4 {
        fill: #706659;
      }
    </style>
  </defs>
  <rect class="cls-3" width="291.06" height="87.425"/>
  <g>
    <path class="cls-4" d="m15.69,54.102c0,.671.099,1.311.296,1.919.197.609.483,1.145.856,1.608s.83.831,1.369,1.105c.539.273,1.155.409,1.847.409.684,0,1.295-.136,1.831-.409.536-.274.988-.642,1.359-1.105.369-.463.653-.999.85-1.608.197-.608.296-1.248.296-1.919v-.436c0-.657-.099-1.288-.296-1.893-.197-.605-.482-1.141-.856-1.608-.373-.467-.83-.84-1.369-1.12s-1.152-.421-1.836-.421-1.297.141-1.836.421c-.54.28-.994.653-1.365,1.12-.369.467-.653,1.003-.85,1.608-.197.605-.296,1.236-.296,1.893v.436Zm-.56-.436c0-.823.119-1.577.358-2.261.239-.685.574-1.275,1.006-1.769.433-.494.949-.88,1.551-1.157.602-.276,1.266-.415,1.992-.415.733,0,1.402.139,2.007.415.605.277,1.122.663,1.551,1.157.429.494.763,1.084,1.001,1.769.239.684.358,1.438.358,2.261v.436c0,.823-.118,1.577-.353,2.261-.235.685-.569,1.275-1.001,1.769-.432.494-.949.88-1.551,1.157-.601.276-1.265.414-1.991.414-.734,0-1.402-.138-2.008-.414-.605-.277-1.123-.663-1.556-1.157-.432-.494-.767-1.084-1.006-1.769-.239-.684-.358-1.438-.358-2.261v-.436Z"/>
    <path class="cls-4" d="m27.84,59.496v-10.654h-1.95v-.57h1.95v-1.598c0-.539.067-1.015.203-1.426.134-.412.328-.759.58-1.043.253-.283.561-.498.924-.643.362-.145.773-.218,1.229-.218.214,0,.434.012.659.037.224.024.447.07.669.14l-.083.539c-.097-.028-.191-.05-.28-.068-.09-.017-.182-.032-.275-.046-.094-.014-.196-.024-.306-.031-.111-.007-.236-.011-.374-.011-.74,0-1.322.241-1.748.721-.425.481-.638,1.164-.638,2.049v1.598h2.967v.57h-2.967v10.654h-.56Z"/>
  </g>
  <path class="cls-4" d="m39.822,54.423h6.981l-3.485-9.357-3.496,9.357Zm7.189.56h-7.397l-1.68,4.513h-.612l5.653-15.104h.685l5.654,15.104h-.612l-1.691-4.513Z"/>
  <g>
    <path class="cls-4" d="m59.537,59.496h-.56v-7.469c0-.671-.077-1.226-.229-1.665-.152-.439-.364-.789-.638-1.048-.273-.259-.598-.441-.975-.545-.377-.103-.786-.155-1.229-.155-.622,0-1.165.128-1.629.384-.463.256-.854.575-1.172.959-.318.384-.57.796-.757,1.235-.187.439-.315.842-.384,1.208v7.096h-.57v-11.224h.57v2.655c.166-.401.375-.776.628-1.125.252-.349.548-.652.887-.908.338-.256.714-.458,1.125-.607.412-.149.856-.223,1.333-.223.941,0,1.71.208,2.308.623.599.414.991,1.092,1.178,2.033.152-.374.358-.721.617-1.043.259-.321.565-.602.918-.84.353-.239.747-.427,1.183-.565.435-.139.905-.208,1.411-.208.566,0,1.073.078,1.519.233.446.156.823.402,1.131.737.308.336.543.766.705,1.292.163.525.244,1.161.244,1.908v7.262h-.56v-7.262c0-.712-.076-1.303-.228-1.774-.152-.47-.365-.842-.638-1.115-.273-.273-.598-.465-.975-.576-.377-.11-.787-.162-1.229-.155-.443.007-.846.067-1.209.181-.363.114-.69.265-.98.452-.291.186-.543.399-.758.638-.214.238-.396.482-.544.731-.149.249-.265.496-.348.742-.083.245-.131.468-.145.669v7.469Z"/>
    <path class="cls-4" d="m74.18,48.624c-.567,0-1.088.111-1.562.332-.473.221-.89.528-1.249.918-.36.391-.653.849-.877,1.375-.225.525-.369,1.092-.431,1.701h7.822v-.135c0-.56-.088-1.095-.264-1.603-.177-.508-.426-.954-.747-1.338-.322-.384-.711-.688-1.167-.913-.457-.225-.965-.337-1.525-.337m.207,11.079c-.685,0-1.324-.138-1.919-.415-.595-.276-1.115-.662-1.561-1.157-.446-.494-.797-1.082-1.053-1.763s-.384-1.43-.384-2.246v-.456c0-.816.124-1.568.373-2.257.249-.688.586-1.279,1.012-1.774.425-.494.923-.88,1.494-1.156.57-.277,1.181-.415,1.831-.415.622,0,1.194.116,1.716.347.522.232.972.559,1.349.981s.671.926.882,1.514c.211.588.316,1.238.316,1.95v.654h-8.413v.612c0,.699.111,1.354.332,1.966.221.612.527,1.144.918,1.598.391.452.853.81,1.385,1.073.533.263,1.107.394,1.722.394.318,0,.628-.024.928-.072.301-.049.59-.132.867-.249.276-.118.543-.275.798-.472.256-.197.502-.448.737-.752l.394.28c-.186.269-.401.515-.643.736-.242.222-.517.412-.825.571-.307.159-.648.283-1.022.373-.373.09-.784.135-1.234.135"/>
    <path class="cls-4" d="m85.679,48.676c-.111-.014-.227-.027-.347-.041-.122-.014-.248-.021-.379-.021-.519,0-.985.09-1.401.27-.414.18-.774.427-1.079.741-.304.315-.555.687-.752,1.115-.197.429-.34.896-.43,1.401v7.355h-.56v-11.225h.56v2.335c.304-.782.761-1.401,1.369-1.857.609-.457,1.373-.685,2.293-.685.172,0,.325.01.456.031.132.021.242.049.332.083l-.062.498Z"/>
    <path class="cls-4" d="m88.259,59.496h-.56v-11.224h.56v11.224Zm-.85-14.731c0-.159.055-.296.166-.41.11-.114.245-.171.404-.171.16,0,.296.057.41.171.114.114.171.251.171.41s-.057.294-.171.405c-.114.11-.25.166-.41.166-.159,0-.294-.056-.404-.166-.111-.111-.166-.246-.166-.405"/>
    <path class="cls-4" d="m95.38,59.143c.436,0,.862-.058,1.281-.176.418-.118.794-.299,1.126-.545.332-.245.605-.56.819-.944.215-.384.339-.845.373-1.385h.561c-.028.574-.157,1.084-.389,1.53-.232.446-.536.823-.913,1.131-.377.308-.811.543-1.302.705-.491.163-1.01.244-1.556.244-.726,0-1.375-.138-1.945-.415-.57-.276-1.052-.662-1.442-1.156-.391-.495-.688-1.084-.892-1.769-.204-.685-.306-1.438-.306-2.262v-.435c0-.823.102-1.577.306-2.262.204-.684.501-1.274.892-1.768.39-.495.868-.88,1.432-1.157.563-.277,1.208-.415,1.934-.415.54,0,1.057.083,1.551.249.495.166.932.413,1.312.742.381.328.688.736.924,1.224.235.487.366,1.053.394,1.696h-.561c-.027-.56-.145-1.05-.352-1.468-.208-.418-.476-.768-.804-1.048s-.706-.489-1.131-.627c-.425-.139-.869-.208-1.333-.208-.684,0-1.279.132-1.784.394-.505.263-.922.623-1.25,1.079-.328.457-.572.991-.732,1.603-.158.612-.238,1.267-.238,1.966v.435c0,.706.08,1.365.238,1.977.16.612.405,1.144.737,1.597s.751.811,1.255,1.074c.505.263,1.103.394,1.795.394"/>
    <path class="cls-4" d="m104.835,59.154c.539,0,1.039-.063,1.498-.187.46-.125.875-.304,1.246-.539.369-.236.694-.518.974-.846.28-.328.514-.7.701-1.115v-2.666h-2.656c-.726,0-1.377.071-1.95.212-.574.142-1.062.341-1.463.597s-.709.562-.923.918-.322.745-.322,1.167c0,.339.071.657.213.954.142.298.34.559.596.784.256.224.56.401.913.529.353.128.743.192,1.173.192m4.626.342c-.076-.263-.13-.579-.161-.949-.031-.37-.046-.738-.046-1.105-.187.304-.419.593-.695.866-.277.273-.599.514-.965.721-.367.208-.778.372-1.235.493-.456.121-.964.181-1.524.181-.526,0-1.002-.074-1.427-.223-.425-.148-.788-.357-1.089-.627-.301-.27-.533-.592-.695-.965-.163-.374-.244-.785-.244-1.234,0-.498.118-.958.353-1.38s.576-.783,1.021-1.084c.447-.301.991-.536,1.634-.706.644-.169,1.37-.254,2.179-.254h2.687v-1.639c0-.94-.296-1.67-.887-2.189-.592-.518-1.437-.778-2.537-.778-.511,0-.985.07-1.421.208-.435.138-.814.33-1.136.576-.321.245-.574.536-.757.871s-.275.697-.275,1.084l-.56-.021c0-.435.102-.852.306-1.25.204-.397.491-.747.861-1.048.37-.3.809-.539,1.317-.715.509-.177,1.063-.265,1.665-.265.581,0,1.115.074,1.603.223.488.149.908.37,1.261.664.352.294.627.664.824,1.11.198.446.296.963.296,1.551v5.622c0,.201.007.407.021.618.013.211.032.411.057.601.024.191.053.369.088.535.035.166.076.304.124.414v.094h-.643Z"/>
    <path class="cls-2" d="m117.903,52.266c10.519,1.907,21.492.941,31.856-1.948,5.192-1.445,10.269-3.317,15.212-5.499,4.916-2.244,9.725-4.729,14.39-7.472,4.672-2.736,9.232-5.653,13.842-8.543,2.306-1.446,4.629-2.878,7.083-4.162,1.227-.644,2.482-1.26,3.843-1.759.679-.25,1.387-.472,2.167-.602.773-.127,1.639-.187,2.596.103.243.079.521.197.813.421.289.215.589.596.708,1.023.225.884-.059,1.434-.24,1.848-.422.827-.911,1.368-1.42,1.9-1.008,1.045-2.114,1.881-3.202,2.728l-3.305,2.438-3.231,2.49c-4.302,3.312-8.572,6.664-12.532,10.343-1.946,1.865-3.902,3.742-5.486,5.889-.784,1.073-1.444,2.229-1.965,3.381-.502,1.155-.816,2.345-.758,3.331.056.982.564,1.783,1.469,2.497.448.345.967.66,1.523.939.553.277,1.094.48,1.69.617,1.181.274,2.464.258,3.738.043,1.273-.232,2.524-.677,3.725-1.236,2.398-1.141,4.647-2.625,6.814-4.213,2.166-1.595,4.253-3.31,6.299-5.075,4.091-3.535,8.032-7.261,11.99-10.976,7.941-7.395,15.78-15.006,24.802-21.31,4.523-3.101,9.343-5.945,14.749-7.638,2.696-.834,5.551-1.335,8.457-1.281,2.901.042,5.826.703,8.493,1.906.807.363,1.166,1.312.802,2.118-.363.806-1.311,1.165-2.117.802-.014-.006-.034-.016-.047-.022-2.249-1.102-4.706-1.752-7.234-1.874-2.526-.132-5.102.22-7.613.907-5.041,1.375-9.792,3.958-14.251,6.91-4.471,2.965-8.703,6.329-12.828,9.823-4.133,3.491-8.127,7.157-12.124,10.831-4.001,3.669-7.997,7.36-12.163,10.878-2.085,1.756-4.217,3.467-6.442,5.066-2.226,1.593-4.548,3.087-7.069,4.258-1.255.59-2.559,1.111-3.933,1.484-1.367.39-2.841.603-4.345.439-.745-.076-1.513-.264-2.209-.517-.694-.247-1.391-.553-2.047-1.001-.658-.434-1.297-1.003-1.764-1.75-.478-.735-.763-1.633-.786-2.495-.069-1.751.648-3.194,1.41-4.415.78-1.234,1.722-2.285,2.653-3.312,1.868-2.049,3.804-3.978,5.856-5.782,4.069-3.638,8.339-7.008,12.519-10.472,2.112-1.7,4.171-3.477,6.047-5.41.951-.944,1.862-1.933,2.676-2.901.389-.481.788-.99.965-1.386.101-.188.059-.331.094-.114.026.1.112.197.132.206.024.016-.009-.014-.089-.037-.723-.24-2.023.004-3.187.436-1.194.42-2.392.984-3.575,1.587-2.363,1.221-4.704,2.578-7.052,3.924-4.686,2.722-9.374,5.5-14.167,8.089-4.788,2.596-9.631,5.111-14.636,7.286-4.971,2.243-10.092,4.185-15.349,5.696-5.26,1.488-10.638,2.642-16.111,3.159-2.735.255-5.486.387-8.241.367-2.755-.026-5.512-.216-8.258-.543-.671-.079-1.151-.688-1.071-1.359.08-.671.689-1.15,1.359-1.07.024.003.052.007.075.011"/>
    <path class="cls-2" d="m278.001,17.353c-.032.6-.544,1.062-1.144,1.03-.6-.031-1.062-.544-1.031-1.144.032-.6.544-1.062,1.145-1.03.6.031,1.062.544,1.03,1.144"/>
    <path class="cls-1" d="m19.337,28.132c.536.16,1.419.241,2.463.241,1.634,0,3.08-.884,3.776-1.821.589-.777.697-1.767.697-2.705,0-3.508-3.267-4.445-4.847-4.445-.456,0-1.553,0-2.089.187v8.543Zm0,2.356c0,1.259.026,4.901.053,5.275.054.589.322.857.884.857h1.714c.187,0,.214.081.214.188v.642c0,.134-.027.215-.241.215-.375,0-1.205-.081-3.722-.081-2.356,0-3.401.081-3.695.081-.188,0-.215-.081-.215-.188v-.669c0-.134.027-.188.161-.188h1.151c.911,0,1.098-.134,1.179-.857.027-.267.107-4.445.107-7.551v-3.079c0-1.768-.027-4.687-.054-4.954-.053-.536-.321-.59-1.044-.59h-1.527c-.133,0-.16-.053-.16-.214v-.642c0-.134.027-.188.16-.188.295,0,1.259.08,3.803.08.482,0,2.062-.08,2.946-.08,3.026,0,4.445.295,5.971,1.339,1.259.857,2.035,2.356,2.035,3.883,0,3.374-2.543,5.462-6.801,5.462-.991,0-2.062-.026-2.919-.133v1.392Z"/>
    <path class="cls-1" d="m34.384,31.693c-.964.723-3.588,1.259-3.588,3.481,0,.991.589,1.473,1.392,1.473.777,0,2.196-.937,2.196-1.66v-3.294Zm2.758,4.713c.429,0,.803-.214.937-.401.108-.135.161-.188.268-.108l.268.215c.08.08.134.214-.027.482-.214.401-.723,1.312-2.089,1.312-.963,0-1.66-.697-1.901-1.794h-.053c-.563.669-1.446,1.231-2.651,1.633-.509.161-.991.161-1.58.161-.643,0-1.607-.536-1.607-2.223,0-1.232.562-2.303,2.678-3.24,1.205-.536,2.597-1.178,3.026-1.553v-1.714c-.054-.455-.081-1.151-.375-1.499-.295-.349-.83-.59-1.607-.59-.535,0-1.366.215-1.74.563-.375.348-.134.749-.134,1.232,0,.937-.322,1.526-1.419,1.526-.429,0-.643-.241-.643-.857,0-.857.75-1.874,1.848-2.517,1.124-.67,2.061-.937,3.267-.937,1.258,0,1.767.375,2.142.723.562.562.589,1.178.589,1.901v5.677c0,1.526.321,2.008.803,2.008"/>
    <path class="cls-1" d="m40.515,37.129c-.134-.08-.134-.241-.161-.375l-.455-2.544c-.027-.134.054-.187.161-.214l.348-.081c.107-.026.187.027.241.161l.669,1.313c.536.99.911,1.66,2.33,1.66.937,0,2.115-.563,2.115-1.821,0-1.205-.589-1.901-2.597-2.464-1.58-.455-3.16-1.285-3.16-3.401,0-1.847,1.741-3.267,3.749-3.267,1.286,0,1.982.322,2.463.563.402.187.456.321.482.482l.402,1.874c0,.107-.053.188-.187.241l-.321.107c-.108.027-.161,0-.241-.134l-.911-1.231c-.321-.509-.83-1.045-1.875-1.045-1.017,0-2.061.616-2.061,1.768,0,1.553,1.258,1.847,2.57,2.222,1.955.562,3.187,1.366,3.214,3.428-.027,2.169-1.794,3.534-4.071,3.534-1.312,0-2.383-.535-2.704-.776"/>
    <path class="cls-1" d="m52.831,34.237c0,2.008.91,2.357,1.392,2.357.616,0,1.393-.108,1.768-.349.134-.08.241-.053.321.054l.134.241c.08.107.027.214-.054.294-.267.268-1.365,1.072-2.972,1.072-1.312,0-2.597-1.259-2.597-2.277,0-1.097.08-3.454.08-3.829v-.589c0-.482.027-2.303.053-3.427h-1.633c-.241,0-.402-.108-.402-.322s.161-.295.482-.482c.643-.375,2.705-2.437,3.053-3.347.081-.214.214-.268.375-.268.214,0,.268.188.268.402l-.134,2.624h3.722c.16,0,.241.134.187.241l-.267.937c-.027.134-.081.215-.241.215h-3.455c-.053,1.231-.08,2.544-.08,3.775v2.678Z"/>
    <path class="cls-1" d="m59.444,30.461c0-1.366-.215-1.633-.964-2.035l-.509-.268c-.161-.053-.214-.08-.214-.187v-.161c0-.107.053-.161.214-.241l2.651-1.366c.161-.08.268-.107.375-.107.161,0,.187.161.187.322l.134,1.901h.107c.804-1.232,2.062-2.33,3.214-2.33.91,0,1.365.562,1.365,1.178,0,.777-.642,1.313-1.124,1.313-.295,0-.563-.108-.777-.215-.214-.134-.535-.214-.884-.214-.428,0-1.124.268-1.58,1.125-.16.294-.267.776-.267.857v5.569c0,.831.187,1.098.749,1.098h1.259c.161,0,.188.081.188.241v.482c0,.161-.027.241-.134.241-.161,0-1.393-.08-2.839-.08-1.66,0-2.785.08-2.945.08-.107,0-.161-.053-.161-.267v-.456c0-.187.054-.241.295-.241h1.044c.401,0,.589-.16.589-.508.027-.884.027-1.821.027-3.214v-2.517Z"/>
    <path class="cls-1" d="m66.886,43.502c0-.562.589-1.044,1.232-1.044.509,0,.991.241,1.232.294.187.027.402,0,.562-.16.402-.482,1.768-3.535,2.142-4.58-.133-.669-2.972-9.05-3.186-9.613-.322-.669-.563-1.125-1.259-1.125h-.696c-.188,0-.214-.08-.214-.24v-.536c0-.107.026-.187.214-.187.241,0,.884.08,2.463.08,1.366,0,2.196-.08,2.491-.08.214,0,.241.08.241.187v.562c0,.134-.027.214-.161.214h-.509c-.294,0-.401.188-.348.59.081.589,1.902,6.507,2.196,7.096h.107c.268-.429,2.597-5.998,2.758-6.668.161-.669-.053-1.018-.455-1.018h-.428c-.161,0-.188-.08-.188-.214v-.535c0-.134.027-.214.161-.214.348,0,.91.08,2.196.08.723,0,1.339-.08,1.633-.08.161,0,.161.107.161.214v.509c0,.16,0,.24-.134.24h-.429c-.294,0-.669.135-.937.483-.589.723-2.356,4.82-4.204,9.024-1.312,2.972-2.356,5.462-2.838,6.346-.375.696-.857,1.741-2.276,1.741-1.018,0-1.527-.563-1.527-1.366"/>
    <path class="cls-1" d="m89.538,35.522c-1.928-1.821-2.865-4.927-2.865-7.498,0-2.49.803-5.061,2.731-7.096,1.366-1.446,3.776-2.705,6.694-2.705,2.437,0,4.445.911,5.41,1.473.348.215.482.188.535,0l.214-.776c.054-.161.108-.161.349-.161s.294.054.294.429c0,.508.535,4.445.67,5.194.026.134,0,.241-.108.268l-.401.107c-.134.027-.187,0-.268-.214-.375-.884-.964-2.169-2.089-3.32-1.124-1.152-2.544-2.062-4.659-2.062-4.793,0-6.722,4.257-6.695,8.167,0,1.553.482,4.579,2.571,6.882,1.821,2.035,3.347,2.249,5.141,2.249,3.026,0,5.383-1.66,6.615-3.401.08-.133.134-.16.214-.08l.348.268c.08.053.134.107.053.241-1.606,2.33-4.204,4.499-7.979,4.499-3.16,0-5.168-.991-6.775-2.464"/>
    <path class="cls-1" d="m107.985,22.99c0-1.633-.321-1.928-1.285-2.249l-.455-.161c-.161-.054-.188-.08-.188-.161v-.241c0-.107.08-.133.322-.267l2.784-1.473c.214-.107.402-.214.616-.214.161,0,.268.214.215.669-.054.455-.081,5.891-.081,7.23v1.714h.134c.937-1.125,2.49-1.741,3.669-1.741,1.124,0,1.901.348,2.651,1.071,1.205,1.125,1.151,2.491,1.151,3.937v1.526c0,1.5.054,3.16.054,3.669,0,.321.428.401.991.401h.455c.214,0,.294.054.294.241v.402c0,.214-.053.321-.214.321-.187,0-1.044-.08-2.571-.08-1.312,0-2.276.08-2.517.08-.187,0-.241-.08-.241-.294v-.455c0-.134.027-.215.188-.215h.616c.455,0,.99-.053,1.017-.508.027-.375,0-1.795,0-2.651v-2.169c0-1.5-.107-2.571-.884-3.294-.535-.509-1.097-.75-1.767-.75-.776,0-1.74.268-2.49,1.125-.241.294-.536.83-.536,1.312v5.838c0,.856.081,1.097.589,1.097h.804c.187,0,.294.054.294.215v.455c0,.187-.053.294-.214.294-.214,0-1.312-.08-2.544-.08-1.339,0-2.356.08-2.597.08-.108,0-.188-.08-.188-.267v-.482c0-.188.107-.215.402-.215h.562c.429,0,.83-.107.884-.428.08-.509.08-3.454.08-5.195v-8.087Z"/>
    <path class="cls-1" d="m127.13,29.658c.508,0,.723-.134.723-.375,0-.616-.321-2.383-2.062-2.383-1.178,0-2.303.776-2.812,2.758h4.151Zm-4.258.803c-.053.241-.08.669-.08,1.285,0,2.625,1.66,4.606,3.802,4.606,1.634,0,2.785-.937,3.24-1.821.054-.107.161-.16.241-.134l.349.188c.08.027.134.107,0,.402-.482,1.071-1.875,2.918-4.258,2.918-1.526,0-3.214-.455-4.204-1.901-.938-1.366-1.179-2.356-1.179-4.231,0-1.044.268-2.838,1.688-4.257,1.151-1.179,2.49-1.42,3.828-1.42,3.08,0,3.937,2.892,3.937,3.937,0,.374-.321.428-.749.428h-6.615Z"/>
    <path class="cls-1" d="m132.216,27.676c-.134,0-.188-.054-.134-.295l.107-.803c.027-.161.107-.187.322-.187h1.553v-.482c0-2.651.75-4.392,1.794-5.57,1.419-1.553,2.892-2.116,4.391-2.116,1.259,0,2.437.482,2.437,1.5,0,.642-.696,1.151-1.124,1.151-.268,0-.536-.053-.75-.16-.241-.134-.536-.482-.643-.616-.348-.429-.723-.616-1.232-.616-.696,0-1.419.187-2.008.937-.991,1.259-.937,3.588-.937,5.463v.509h3.24c.187,0,.214.16.187.267l-.134.884c-.026.107-.133.134-.348.134h-2.945v2.41c0,3.16,0,5.623.026,5.918.054.455.134.696.697.696h1.526c.241,0,.295.054.295.214v.429c0,.214-.054.321-.188.321-.161,0-1.151-.08-3.213-.08-1.473,0-2.839.08-3.053.08-.16,0-.214-.053-.214-.187v-.589c0-.134.054-.188.268-.188h1.285c.509,0,.616-.321.643-.937v-8.087h-1.848Z"/>
    <path class="cls-1" d="m141.56,37.129c-.134-.08-.134-.241-.161-.375l-.455-2.544c-.027-.134.054-.187.16-.214l.349-.081c.107-.026.187.027.241.161l.669,1.313c.536.99.911,1.66,2.33,1.66.937,0,2.115-.563,2.115-1.821,0-1.205-.589-1.901-2.597-2.464-1.58-.455-3.16-1.285-3.16-3.401,0-1.847,1.741-3.267,3.749-3.267,1.286,0,1.982.322,2.463.563.402.187.456.321.482.482l.402,1.874c0,.107-.053.188-.187.241l-.321.107c-.108.027-.161,0-.241-.134l-.911-1.231c-.321-.509-.83-1.045-1.875-1.045-1.017,0-2.061.616-2.061,1.768,0,1.553,1.258,1.847,2.57,2.222,1.955.562,3.187,1.366,3.214,3.428-.027,2.169-1.794,3.534-4.071,3.534-1.312,0-2.383-.535-2.704-.776"/>
  </g>
</svg>