<?xml version="1.0" encoding="UTF-8"?>
<svg id="Layer_2" data-name="Layer 2" xmlns="http://www.w3.org/2000/svg" width="394" height="340" viewBox="0 0 394 340">
  <defs>
    <style>
      .cls-1 {
        fill: #643f9e;
      }

      .cls-1, .cls-2, .cls-3 {
        stroke-width: 0px;
      }

      .cls-2 {
        fill: #656263;
      }

      .cls-3 {
        fill: #fff;
      }
    </style>
  </defs>
  <g id="Layer_1-2" data-name="Layer 1">
    <g>
      <rect class="cls-3" width="394" height="340"/>
      <path id="Shadow" class="cls-2" d="m131.867,113.669c-.348,0-.692.018-1.033.044.06.17.274.233.464.233,6.605,0,12.369,4.791,13.774,11.418l-11.341,16.222c-.097.139-.089.307-.013.445.061-.009.124-.015.186-.023l11.559-16.563c-1.137-6.681-6.799-11.775-13.594-11.775h-.001Zm-34.315-3.54h-6.19v.339h5.558c4.74,0,8.181,3.44,8.181,8.181,0,.181.111.338.268.405.042-.341.072-.686.072-1.037,0-4.57-3.317-7.889-7.889-7.889Zm7.571,37.856l-13.506-17.479v.726l13.208,17.093h6.973c.208,0,.373-.146.42-.339h-7.094Zm-21.198,0v-42.66c-.193.047-.404.212-.404.42v42.581h6.728c.208,0,.373-.146.42-.339h-6.744Zm98.335,0v-28.063l-.339.483v27.481c0,.243.198.439.439.439.208,0,.373-.148.42-.339h-.519Zm-17.712-15.17l16.882-23.865c-.192-.097-.427-.048-.555.132l-16.328,23.081v.653Zm-6.847,15.17v-27.954l-.339.487v27.807h3.714c.208,0,.373-.148.42-.339h-3.794Zm-.727-39.034c-.193-.098-.43-.05-.559.133l-6.402,9.172c-.127.181-.091.423.069.571l6.892-9.874h0Zm32.133,39.034h-6.847s-.11.339.133.339h6.402c.208,0,.373-.148.42-.341h-.108Zm20.289-28.609l-.339.502v10.341h.339v-10.842h0Zm0,28.581v-11.753h-11.414l-.297.452c.022.003.042.013.066.013h11.304v11.628h6.254c.208,0,.373-.148.42-.339h-6.335.001Zm-.836-38.952s0-.003-.003-.003c-.202-.138-.474-.088-.612.111l-18.84,27.27v.778l19.453-28.157h.001Zm35.611,26.76v-26.821c-.193.047-.467.212-.467.42v25.775l.467.626Zm.217,12.248l-18.651-27.859v.862l18.366,27.336h5.926c.208,0,.373-.146.42-.339h-6.061Zm-25.557,0v-39.069c-.193.047-.531.212-.531.42v38.989h5.88c.208,0,.563-.146.61-.339,0,0-5.959,0-5.959,0Zm64.689-29.462c-2.608-2.823-6.304-4.441-10.145-4.441-.351,0-.699.018-1.045.044.06.171.219.297.411.297,3.922,0,7.697,1.654,10.36,4.535.086.094.205.142.323.142.107,0,.214-.038.299-.117.042-.04.073-.085.097-.133l-.3-.325h0Zm-30.983,9.579c-.196.044-.345.211-.345.421,0,11.332,9.219,20.552,20.551,20.552.209,0,.376-.149.421-.345-11.325-.114-20.511-9.302-20.625-20.627h-.001Zm48.146,3.863h12.276c.243,0,.439-.198.439-.439,0-.01-.004-.018-.006-.026h-12.709v.467h0Zm-.086-16.901h12.362c.243,0,.439-.198.439-.439,0-.009-.004-.018-.006-.026h-12.797v.467h.001Zm-6.819,32.866v-38.901c-.01,0-.018-.006-.028-.006-.243,0-.439.198-.439.439v38.933h19.521c.243,0,.439-.198.439-.439,0-.009-.004-.018-.006-.026h-19.488.001Zm-161.328,10.833h-6.19v.339h5.558c4.741,0,8.181,3.44,8.181,8.181,0,.181.111.338.268.405.042-.341.072-.686.072-1.037,0-4.571-3.317-7.889-7.889-7.889Zm-13.626,37.856v-42.662c-.193.047-.339.212-.339.42v42.581h6.664c.208,0,.373-.146.42-.339,0,0-6.744,0-6.744,0Zm21.198,0h-6.523l3.055-4.488-10.038-12.99v.91l9.4,12.184-3.194,4.725h13.214c.208,0,.373-.146.42-.339h-6.333Zm20.912-28.14l-.339.502v9.588c0,.075.023.142.056.203h.284v-10.293Zm0,28.14v-10.921h-11.644l-.23.339h11.534v10.921h6.384c.208,0,.373-.146.42-.339h-6.465Zm-1.097-38.687c-.187-.075-.468-.02-.588.152l-18.979,27.879c-.119.173-.025.395.113.543l19.453-28.574h.001Zm35.936,26.439v-26.821c-.193.047-.339.212-.339.42v25.902l.339.499Zm.217,12.246l-18.662-27.873-.003.762,18.379,27.452h5.926c.208,0,.373-.146.42-.339h-6.061Zm-25.747,0v-39.068c-.193.047-.404.212-.404.42v38.989h6.008c.208,0,.373-.146.42-.339h-6.024Zm46.67.669c-8.645,0-12.696-6.241-12.911-12.492-.202.044-.162.217-.158.43.067,3.133,1.184,6.187,3.064,8.377,2.264,2.638,5.566,4.026,9.569,4.026.124,0,.06,0,.186-.004.203-.004.364-.149.41-.338-.054,0-.108.001-.161.001h.001Zm-4.492-19.225c1.049.457,2.114.827,3.146,1.184,3.701,1.283,6.497,2.296,6.598,6.254.004.184-.003.338.161.398.04-.331.06-.67.051-1.023-.097-3.755-2.934-4.74-6.528-5.985-1.036-.36-2.109-.73-3.167-1.191-3.752-1.633-7.598-4.084-7.807-9.828-.203.042-.102.217-.098.432.123,5.723,3.933,8.146,7.644,9.76h-.001Zm8.714-10.252l.042-.789c0-.016.072-1.863-1.149-3.14-.817-.855-2.052-1.289-3.667-1.289l-.2.003c-.38.007-.717.053-1.032.113.072.136.208.228.392.228,1.793-.042,3.215.353,4.125,1.289,1.336,1.374,1.191,3.429,1.191,3.449l-.023.473,5.923-.129c.202-.004.363-.148.41-.335l-6.011.13v-.003Zm29.462-5.446c-.351,0-.698.018-1.043.044.06.171.219.296.41.296,7.775,0,14.101,6.523,14.101,14.541,0,.193.126.353.299.411.025-.345.041-.692.041-1.045,0-7.857-6.194-14.247-13.808-14.247h.001Zm-20.838,14.46c-.196.045-.345.211-.345.421,0,11.332,9.219,20.552,20.551,20.552.209,0,.376-.149.421-.345-11.325-.114-20.511-9.302-20.625-20.627h-.001Zm77.663,19.796v-28.713l-.404.917v28.135h5.944c.208,0,.373-.146.42-.339,0,0-5.96,0-5.96,0Zm-13.508-11.761l11.06-27.281c-.009-.004-.015-.012-.023-.016-.227-.091-.481.018-.574.241l-10.71,26.417.247.637h0Zm-2.107,11.761l-11.43-28.713v1.431l10.995,27.622h3.489c.208,0,.373-.146.42-.339h-3.474Zm-18.337,0v-38.956c-.01,0-.018-.006-.028-.006-.243,0-.439.198-.439.439v38.99h5.88c.243,0,.439-.198.439-.439,0-.01-.006-.018-.006-.028h-5.847.001Zm-162.441-68.517c-.196.044-.281.148-.281.357,0,11.332,9.219,20.552,20.551,20.552.209,0,.313-.086.357-.281-11.325-.114-20.511-9.302-20.627-20.627h0Z"/>
      <path id="Block" class="cls-1" d="m80.322,173.438h4.03c.667-2.81,1.422-4.901,2.278-6.272.855-1.373,1.97-2.455,3.338-3.249,1.373-.793,2.665-1.19,3.882-1.19.682,0,1.201.135,1.55.405.348.268.521.59.521.96,0,.339-.116.619-.354.843-.234.227-.544.338-.928.338-.395,0-1.138-.119-2.229-.357-.543-.108-.967-.167-1.269-.167-.743,0-1.415.458-2.009,1.377-.597.915-1.08,2.155-1.438,3.717l-.847,3.592h3.835l-.271,1.198h-3.892l-2.641,10.761c-.821,3.272-2.132,5.752-3.941,7.438-1.806,1.686-3.764,2.53-5.877,2.53-.711,0-1.247-.138-1.613-.414-.364-.277-.549-.616-.549-1.02,0-.351.127-.628.38-.834.252-.208.615-.313,1.089-.313.237,0,.584.026,1.046.083.789.102,1.541.152,2.258.152,1.114,0,1.923-.263,2.429-.784.509-.522,1.014-1.803,1.517-3.838l3.426-13.762h-4.031l.304-1.198.004.003Zm16.329-1.096c1.1,0,2.016.439,2.75,1.314.73.878,1.095,2.1,1.095,3.663,0,2.495-.875,4.735-2.63,6.72-1.755,1.986-3.609,2.978-5.565,2.978-1.206,0-2.176-.392-2.913-1.181-.736-.786-1.103-1.858-1.103-3.222,0-2.36.678-4.544,2.025-6.545,1.699-2.483,3.813-3.727,6.342-3.727h0Zm-1.434,1.264c-.956,0-1.88.682-2.777,2.05-.891,1.367-1.342,3.254-1.342,5.657,0,1.462.277,2.618.828,3.459.404.619.947.928,1.62.928.944,0,1.806-.584,2.578-1.752.992-1.517,1.487-3.402,1.487-5.65,0-1.689-.23-2.892-.682-3.611-.455-.718-1.027-1.078-1.712-1.078v-.003Zm9.08,12.921h-2.513l1.181-4.538c.574-2.226,1.074-4.34,1.5-6.343.102-.492.152-.802.152-.926,0-.271-.123-.405-.37-.405-.167,0-.429.117-.774.345-.35.231-.98.802-1.889,1.712l-.527-.591c1.084-1.155,2.16-2.025,3.232-2.605,1.074-.579,1.895-.869,2.467-.869.205,0,.364.047.481.145.117.097.179.215.179.361,0,.148-.076.536-.225,1.171l-.73,3.033c1.137-1.794,2.422-3.332,3.851-4.607.688-.609,1.263-.915,1.725-.915.335,0,.616.111.843.329.225.221.339.476.339.768,0,.304-.113.563-.329.777-.221.214-.768.467-1.645.759-.83.281-1.512.616-2.031,1.011-.519.394-1.095.997-1.719,1.806-.623.808-1.059,1.516-1.305,2.116-.247.601-.626,1.997-1.131,4.189l-.761,3.273h-.001Zm175.345,9.386h-5.441v-38.551h8.263l11.431,29.511,11.964-29.511h7.732v38.551h-5.441v-31.802l-12.661,31.802h-3.191l-12.661-31.802v31.802h.003Zm-29.047-34.255c-8.031,0-14.54,6.706-14.54,14.98s6.51,14.98,14.54,14.98,14.54-6.706,14.54-14.98-6.51-14.98-14.54-14.98Zm20.112,14.98c0,11.108-9.005,20.112-20.112,20.112s-20.11-9.005-20.11-20.112,9.004-20.112,20.11-20.112c5.389,0,10.283,2.119,13.891,5.569,3.832,3.661,6.221,8.824,6.221,14.542Zm-43.349-9.67c-.139-6.515-5.408-10.391-10.992-10.272-5.585.12-10.925,3.797-10.773,10.991.116,5.397,3.569,7.709,7.38,9.367,4.741,2.062,9.996,2.378,10.136,7.829.217,8.508-12.457,9.392-12.666-.395-2.482.053-4.387.094-5.716.123.117,5.451,3.585,12.16,12.561,11.968,8.973-.192,11.351-7.16,11.24-12.345-.142-6.635-4.397-9.144-8.638-10.597-4.258-1.46-8.5-1.86-8.609-6.854-.053-2.479,1.327-4.817,4.864-4.893,6.049-.129,5.764,5.199,5.764,5.199l5.451-.119h-.001Zm-50.754-.593l19.775,29.537h5.883v-38.548h-5.758v29.413l-20.025-29.413h-5.505v38.548h5.629v-29.537h.001Zm-8.994-9.087v38.624h-5.945v-10.921h-12.766l-4.012,5.934-.771.999,3.022,3.988h-12.255l2.575-3.783-11.677-15.11v18.893h-6.225v-42.142h10.521c2.84,0,3.47.025,3.47.025,7.182,0,13.003,5.823,13.003,13.004,0,6.733-5.116,12.27-11.674,12.936l5.805,7.659,20.497-30.106h6.434Zm-34.278,17.965c4.348,0,7.739-4.113,7.739-8.575,0-4.762-3.392-8.622-8.62-8.622h-6.923v17.197h7.805-.001Zm28.334-9.138l-9.074,13.419h9.074v-13.419Zm151.927-57.384h-19.082v38.493h19.082v-5.206h-13.641v-11.225h13.641v-5.009h-13.729v-11.891h13.729v-5.161Zm-27.734,26.798c-2.539,4.239-7.179,6.929-12.482,6.929-8.031,0-14.54-6.51-14.54-14.54s6.51-14.541,14.54-14.541c4.223,0,8.026,1.801,10.682,4.677l3.209-4.68c-3.61-3.45-8.503-5.569-13.891-5.569-11.107,0-20.11,9.004-20.11,20.112s9.004,20.112,20.11,20.112c8.331,0,15.477-5.283,18.531-12.501h-6.049Zm-60.853-17.785l19.775,29.537h5.883v-38.55h-5.758v29.413l-20.025-29.413h-5.315v38.548h5.439v-29.537h.001Zm-9.059-9.011v38.493h-5.815v-11.753h-12.542l-7.713,11.781h-6.881v-29.648l-20.842,29.647h-3.718v-29.549l-6.48,9.274c.015.312.025.625.025.939,0,9.01-5.925,16.635-14.09,19.194l-.492.142c-1.757.502-3.611.776-5.53.776-11.107,0-20.11-9.004-20.11-20.112s9.002-20.112,20.109-20.112c5.389,0,10.283,2.119,13.891,5.569,1.902,1.817,3.448,4.005,4.523,6.447l7.76-11.12h5.774v26.419l18.688-26.419h5.871v30.81l21.266-30.781h6.305Zm-69.521,19.186c0-4.037-1.563-7.704-4.096-10.401-.019-.02-.037-.041-.057-.06-.266-.281-.544-.55-.831-.808-.044-.04-.088-.079-.133-.119-.278-.244-.563-.477-.858-.699-.056-.042-.111-.082-.168-.123-.297-.217-.6-.426-.912-.619-.05-.031-.101-.06-.152-.089-.301-.183-.61-.356-.925-.515-.04-.02-.078-.042-.119-.063-.332-.165-.672-.313-1.016-.452-.069-.028-.135-.057-.203-.083-.338-.13-.682-.246-1.032-.35-.076-.023-.152-.045-.228-.067-.353-.1-.711-.186-1.076-.258-.07-.015-.14-.026-.212-.04-.376-.069-.758-.124-1.144-.162-.05-.004-.1-.007-.148-.012-.413-.037-.828-.059-1.248-.059-3.515,0-6.739,1.285-9.253,3.424-3.238,2.75-5.305,6.91-5.305,11.556s2.068,8.808,5.306,11.557c2.514,2.138,5.736,3.423,9.251,3.423.397,0,.787-.02,1.175-.053.038-.003.075-.006.113-.009.394-.035.783-.088,1.166-.155h.007c6.857-1.207,12.096-7.366,12.096-14.762v-.003Zm63.707-10.928l-9.46,13.963h9.46v-13.963Zm-75.192,24.816c6.143-1.444,10.741-7.12,10.741-13.887,0-.474-.023-.941-.067-1.403l-10.673,15.292h0Zm-37.388-32.411c5.228,0,8.62,3.859,8.62,8.62,0,4.463-3.392,8.576-7.739,8.576h-7.805v-17.197h6.924Zm14.101,8.743c0-7.18-5.821-13.004-13.003-13.004,0,0-.629-.023-3.47-.023h-10.521v42.142h6.225v-18.893l14.6,18.893h6.758l-12.261-16.177c6.557-.666,11.673-6.204,11.673-12.936h0Z"/>
    </g>
  </g>
</svg>