<svg version="1.1" xmlns="http://www.w3.org/2000/svg" xmlns:xlink="http://www.w3.org/1999/xlink" x="0px" y="0px" width="394px"
	 height="340px" viewBox="0 0 394 340" style="overflow:visible;enable-background:new 0 0 394 340;" xml:space="preserve">
<style type="text/css">
	.st0{fill:none;}
	.st1{fill:#07657C;}
	.st2{fill:#C5DADD;}
	.st3{fill:#044A6B;}
	.st4{fill:#762B2D;}
	.st5{fill:#FFFFFF;}
</style>
<defs>
</defs>
<rect class="st0" width="394" height="340"/>
<path class="st1" d="M34.7,143.5l-0.2,0.5l1.7,0.7l-0.4,0.9l-4.7-1.9l0.6-1.5c0.1-0.4,0.4-0.7,0.8-0.9c0.4-0.2,0.8-0.2,1.2,0
	c0.5,0.1,0.9,0.6,1,1.2l2.2-0.1h0.1l-0.4,1L34.7,143.5z M33.8,143.7l0.2-0.5c0.1-0.1,0.1-0.3,0-0.5c-0.1-0.1-0.3-0.3-0.4-0.3
	c-0.5-0.2-0.7-0.1-0.9,0.3l-0.2,0.5L33.8,143.7z M37,138.3c0.5,0.2,0.9,0.7,1.2,1.2c0.2,0.5,0.1,1-0.1,1.4c-0.2,0.5-0.6,0.8-1.2,0.9
	c-0.5,0.1-1.2,0-1.6-0.3l-0.7-0.4c-0.5-0.3-0.9-0.7-1.2-1.2c-0.2-0.5-0.1-1,0.1-1.4c0.2-0.5,0.6-0.8,1.2-0.9c0.5-0.1,1.2,0,1.6,0.3
	L37,138.3z M35.8,138.8c-0.3-0.2-0.6-0.3-0.9-0.3c-0.3,0-0.5,0.1-0.6,0.3c-0.1,0.2-0.1,0.5,0,0.7c0.2,0.3,0.5,0.5,0.7,0.6l0.8,0.4
	c0.3,0.2,0.6,0.3,0.9,0.3c0.3,0,0.5-0.1,0.5-0.4c0.1-0.2,0.1-0.5,0-0.7c-0.2-0.3-0.5-0.5-0.7-0.6L35.8,138.8z M39.6,135.2
	c0.4,0.3,0.7,0.7,0.8,1.2c0.1,0.5-0.1,0.9-0.3,1.3c-0.3,0.4-0.7,0.7-1.2,0.7c-0.5,0-1.2-0.1-1.6-0.5l-0.7-0.5
	c-0.5-0.3-0.9-0.7-1.1-1.3c-0.1-0.5,0-1,0.3-1.4c0.2-0.4,0.6-0.7,1.1-0.7s0.9,0.1,1.4,0.3l-0.6,0.8c-0.2-0.1-0.4-0.3-0.7-0.3
	c-0.2,0-0.4,0.1-0.5,0.3c-0.1,0.2-0.2,0.4-0.1,0.6c0.1,0.3,0.4,0.5,0.7,0.7l0.8,0.5c0.3,0.2,0.6,0.4,0.9,0.4c0.2,0,0.5-0.1,0.5-0.3
	c0.1-0.1,0.2-0.3,0.1-0.5c-0.1-0.2-0.3-0.4-0.5-0.5L39.6,135.2z M40.6,133.7l0.1,0.6l1.1,0.9l-0.7,0.7l-3.9-3.3l0.7-0.7l1.7,1.4
	l-0.2-0.6l-0.7-1.8l0.8-0.9l0.7,2.5l3.1,0.7l-0.8,0.9L40.6,133.7z M42.6,130.3l-1-2.2l0.8-0.7l1.3,3.3l1.3,1.3l-0.7,0.7l-1.3-1.3
	l-3.2-1.4l0.8-0.7L42.6,130.3z M45,125.2l2.8,2.4l-1.3-3.5l1.1-0.7l2.9,4.1l-0.8,0.6L49,127l-1.2-1.7l1.2,3.4l-0.5,0.4l-2.8-2.2
	l1.3,1.7l0.8,1.1l-0.8,0.6l-3-4.3L45,125.2z M53.1,123.8c0.3,0.5,0.4,1.1,0.3,1.6c-0.1,0.5-0.5,0.9-0.9,1.1
	c-0.4,0.3-0.9,0.3-1.4,0.1c-0.5-0.2-0.9-0.6-1.2-1.2l-0.4-0.7c-0.3-0.5-0.4-1-0.3-1.6c0.1-0.5,0.5-0.9,0.9-1.2
	c0.4-0.3,0.9-0.3,1.4-0.1c0.5,0.3,0.9,0.7,1.2,1.2L53.1,123.8z M51.8,123.6c-0.1-0.3-0.3-0.6-0.6-0.8c-0.3-0.2-0.8-0.1-0.9,0.3
	c-0.1,0.1-0.1,0.2-0.1,0.3c0,0.3,0.1,0.7,0.3,0.9l0.4,0.8c0.1,0.3,0.3,0.5,0.6,0.7c0.2,0.1,0.5,0.1,0.7,0c0.2-0.1,0.3-0.3,0.4-0.5
	c0-0.3-0.1-0.6-0.3-0.9L51.8,123.6z M55.5,119.7l1.3,3.3c0.2,0.4,0.2,0.9,0.1,1.3c-0.2,0.4-0.5,0.7-1,0.8c-0.4,0.2-0.9,0.2-1.3,0.1
	c-0.4-0.2-0.7-0.5-0.9-0.9l-1.3-3.2l0.9-0.4l1.3,3.2c0.1,0.2,0.2,0.4,0.3,0.5c0.3,0.1,0.7-0.1,0.9-0.3c0-0.2,0-0.4-0.1-0.6l-1.3-3.3
	L55.5,119.7z M61.1,123.4l-1,0.3l-2.3-2.8l0.9,3.2l-1,0.3l-1.3-4.9l0.9-0.3l2.3,2.8l-0.9-3.2l0.9-0.3L61.1,123.4z M63.9,118.7
	l-1.2,0.2l0.7,4.1l-1,0.1l-0.7-4.1l-1.2,0.2l-0.1-0.8l3.5-0.6L63.9,118.7z M66.7,121.7l-1.4,0.1l-0.2,1l-1.1,0.1l1.2-5.1l0.9-0.1
	l1.9,4.9l-1.1,0.1L66.7,121.7z M65.5,120.9l0.9-0.1l-0.6-1.8L65.5,120.9z M69.3,122.6h-1l0.1-5h1L69.3,122.6z M73.3,122.9l-1-0.1
	l-1.2-3.4l-0.3,3.3l-1-0.1l0.4-5.1l1,0.1l1.2,3.5l0.3-3.3l1,0.1L73.3,122.9z M77.5,122.7l-1.4-0.3l-0.5,0.9l-1-0.3l2.7-4.5l0.9,0.2
	l0.3,5.3l-1.1-0.3L77.5,122.7z M76.5,121.7l0.9,0.2V120L76.5,121.7z M81.1,123.6c0.1-0.1,0.1-0.3,0-0.5c-0.1-0.2-0.3-0.3-0.4-0.5
	c-0.4-0.3-0.7-0.7-0.8-1.1c-0.1-0.3-0.1-0.7,0-0.9c0.1-0.4,0.4-0.7,0.7-0.8c0.7-0.2,1.4-0.1,1.9,0.5c0.2,0.2,0.3,0.4,0.3,0.7
	s0,0.5-0.1,0.8l-0.9-0.3c0.1-0.1,0.1-0.3,0-0.5c-0.1-0.3-0.5-0.4-0.8-0.3c-0.1,0.1-0.2,0.2-0.3,0.3c-0.1,0.1-0.1,0.3,0,0.4
	c0.1,0.2,0.3,0.4,0.5,0.5c0.3,0.3,0.6,0.6,0.8,0.9c0.1,0.3,0.1,0.7,0,1s-0.4,0.7-0.7,0.8c-0.4,0.1-0.8,0.1-1.2-0.1
	c-0.3-0.1-0.5-0.3-0.7-0.5s-0.3-0.5-0.3-0.7c-0.1-0.3,0-0.6,0.1-0.9l0.9,0.3c-0.1,0.2-0.1,0.5-0.1,0.7c0.1,0.2,0.3,0.3,0.5,0.4
	C80.7,124,80.9,124,81.1,123.6L81.1,123.6z M84.3,125c0.1-0.1,0.1-0.3,0.1-0.5c-0.1-0.2-0.2-0.4-0.4-0.5c-0.3-0.3-0.5-0.7-0.7-1.1
	c-0.1-0.3-0.1-0.7,0.1-0.9c0.1-0.3,0.5-0.6,0.8-0.7c0.4-0.1,0.8-0.1,1.2,0.1c0.3,0.1,0.5,0.3,0.7,0.5c0.1,0.2,0.3,0.5,0.3,0.7
	s-0.1,0.5-0.2,0.8l-0.9-0.5c0.1-0.1,0.1-0.3,0.1-0.5c-0.1-0.1-0.1-0.3-0.3-0.3c-0.1-0.1-0.3-0.1-0.5,0c-0.1,0.1-0.3,0.2-0.3,0.3
	c-0.1,0.1-0.1,0.3,0,0.4c0.1,0.2,0.2,0.4,0.4,0.5c0.3,0.3,0.5,0.7,0.7,1c0.1,0.3,0.1,0.7-0.1,1c-0.1,0.3-0.5,0.6-0.8,0.7
	c-0.4,0.1-0.8,0.1-1.2-0.1c-0.3-0.1-0.5-0.3-0.7-0.5c-0.2-0.2-0.3-0.5-0.3-0.8c-0.1-0.3,0-0.6,0.1-0.9l1,0.5
	c-0.1,0.2-0.1,0.4-0.1,0.6c0.1,0.2,0.2,0.3,0.4,0.4c0.2,0.1,0.5,0.1,0.7-0.1C84.3,125.2,84.3,125.1,84.3,125z M89,126.9
	c-0.3,0.5-0.7,0.9-1.2,1.1c-0.5,0.1-1,0.1-1.4-0.2c-0.5-0.3-0.7-0.7-0.9-1.2c-0.1-0.5,0.1-1.1,0.4-1.6l0.5-0.7
	c0.3-0.5,0.7-0.9,1.2-1.2c0.5-0.1,1-0.1,1.4,0.2c0.5,0.3,0.7,0.7,0.8,1.2c0.1,0.5-0.1,1.2-0.4,1.6L89,126.9z M88.6,125.7
	c0.2-0.3,0.3-0.6,0.3-0.9c0-0.3-0.1-0.5-0.3-0.6c-0.2-0.1-0.5-0.1-0.7,0c-0.3,0.2-0.5,0.4-0.7,0.7l-0.5,0.7
	c-0.2,0.3-0.3,0.6-0.3,0.9c0,0.3,0.1,0.5,0.3,0.6c0.2,0.1,0.5,0.1,0.7,0.1c0.3-0.1,0.5-0.4,0.7-0.7L88.6,125.7z M91.9,129.6
	c-0.3,0.4-0.7,0.6-1.2,0.7c-0.5,0.1-0.9-0.1-1.3-0.4c-0.4-0.3-0.7-0.7-0.7-1.2c0-0.6,0.2-1.2,0.6-1.6l0.5-0.7
	c0.3-0.5,0.8-0.8,1.4-0.9c0.5-0.1,1,0.1,1.4,0.3c0.4,0.3,0.6,0.7,0.7,1.2c0,0.5-0.1,0.9-0.4,1.4l-0.9-0.7c0.1-0.2,0.3-0.4,0.3-0.7
	c0-0.2-0.1-0.4-0.3-0.5c-0.1-0.1-0.4-0.2-0.6-0.1c-0.3,0.1-0.5,0.3-0.7,0.6l-0.5,0.8c-0.3,0.3-0.4,0.5-0.5,0.9
	c0,0.2,0.1,0.5,0.3,0.6c0.1,0.1,0.3,0.2,0.5,0.2c0.2-0.1,0.4-0.3,0.5-0.5L91.9,129.6z M91.8,131.8l-0.7-0.7l3.4-3.7l0.7,0.7
	L91.8,131.8z M94.6,133.2l-0.9-1l-0.9,0.5L92,132l4.7-2.3l0.6,0.7l-2.6,4.6l-0.7-0.9L94.6,133.2z M94.4,131.8l0.6,0.7l0.9-1.6
	L94.4,131.8z M99.8,134.6l-0.7-0.9l-3.3,2.6l-0.6-0.8l3.3-2.6l-0.7-0.9l0.7-0.5l2.2,2.7L99.8,134.6z M97.3,138.3l-0.5-0.9l4.2-2.8
	l0.5,0.9L97.3,138.3z M101.1,140.7c-0.5,0.3-1,0.4-1.6,0.3c-0.5-0.1-0.9-0.4-1.2-0.9c-0.3-0.4-0.3-0.9-0.2-1.4
	c0.2-0.5,0.6-0.9,1.2-1.2l0.7-0.4c0.5-0.3,1.1-0.5,1.6-0.4c0.9,0.2,1.6,1.2,1.4,2.2c0,0.1,0,0.1-0.1,0.1c-0.2,0.5-0.6,0.9-1.2,1.2
	L101.1,140.7z M101.3,139.4c0.3-0.1,0.6-0.4,0.8-0.7c0.2-0.3,0.1-0.8-0.3-0.9c-0.1-0.1-0.2-0.1-0.3-0.1c-0.3,0-0.7,0.1-0.9,0.3
	l-0.8,0.4c-0.3,0.1-0.5,0.4-0.7,0.7c-0.1,0.2-0.1,0.5,0,0.7c0.1,0.2,0.3,0.3,0.5,0.3c0.3,0,0.7-0.1,0.9-0.3L101.3,139.4z
	 M100.8,145.2l-0.4-0.9l2.4-2.6l-3,1.3l-0.4-0.9l4.6-2l0.4,0.9l-2.4,2.7l3-1.3l0.4,0.9L100.8,145.2z M32.2,150
	c0.4,0.1,0.8,0.2,1.1,0.5c0.5,0.6,0.3,1.4-0.3,1.9c0,0,0,0-0.1,0c-0.4,0.2-0.8,0.3-1.2,0.2h-0.3c-0.4-0.1-0.8-0.2-1.1-0.5
	c-0.2-0.3-0.3-0.7-0.3-1c0.1-0.4,0.3-0.7,0.6-0.9c0.3-0.2,0.8-0.3,1.2-0.1H32.2z M31.8,150.8c-0.6-0.1-0.9,0-0.9,0.3
	c-0.1,0.3,0.2,0.5,0.7,0.5l0.3,0.1c0.2,0.1,0.5,0.1,0.7,0c0.1-0.1,0.3-0.1,0.3-0.3c0-0.1-0.1-0.3-0.1-0.3c-0.2-0.1-0.4-0.2-0.6-0.2
	L31.8,150.8z M30,153.1l2.6,0.2l0.1-0.4l0.6,0.1l-0.1,0.4h0.3c0.3,0,0.6,0.1,0.8,0.3c0.2,0.2,0.3,0.5,0.2,0.8c0,0.1-0.1,0.3-0.1,0.4
	l-0.7-0.1c0-0.1,0.1-0.1,0.1-0.2c0-0.3-0.1-0.4-0.4-0.4h-0.3l-0.1,0.5l-0.6-0.1v-0.5l-2.6-0.2L30,153.1z M30.4,158.6
	c0.2,0,0.3-0.1,0.5-0.2c0.1-0.2,0.3-0.3,0.3-0.6c0.1-0.4,0.3-0.8,0.7-1.1c0.3-0.2,0.5-0.3,0.9-0.3c0.4,0,0.7,0.1,1,0.4
	c0.3,0.3,0.4,0.7,0.4,1.2c0,0.3-0.1,0.5-0.2,0.8c-0.1,0.3-0.3,0.5-0.5,0.5c-0.2,0.2-0.5,0.3-0.8,0.3v-1c0.2,0,0.4-0.1,0.5-0.1
	c0.1-0.1,0.2-0.3,0.2-0.4c0-0.1-0.1-0.3-0.1-0.4c-0.1-0.1-0.3-0.1-0.4-0.1c-0.1,0-0.3,0.1-0.4,0.2c-0.1,0.2-0.3,0.4-0.3,0.6
	c-0.1,0.4-0.3,0.8-0.6,1.1c-0.3,0.2-0.6,0.3-0.9,0.3c-0.4,0-0.7-0.1-1-0.4c-0.3-0.4-0.5-0.8-0.5-1.2c0-0.3,0.1-0.6,0.2-0.9
	c0.1-0.3,0.3-0.5,0.5-0.7c0.3-0.1,0.5-0.3,0.9-0.3v1c-0.2,0-0.5,0.1-0.6,0.2c-0.1,0.1-0.2,0.3-0.2,0.5
	C29.9,158.4,30,158.6,30.4,158.6z M33.7,163.2l-0.1-1.2l-4.1,0.5l-0.1-1l4.1-0.5l-0.1-1.2l0.8-0.1l0.5,3.5L33.7,163.2z M35.4,166.5
	l-3.4,0.9c-0.4,0.1-0.9,0.1-1.3-0.1c-0.7-0.6-0.9-1.6-0.5-2.4c0.3-0.3,0.6-0.6,1.1-0.7l3.3-0.8l0.2,0.9l-3.3,0.8
	c-0.2,0-0.4,0.1-0.5,0.3s-0.1,0.3-0.1,0.5c0,0.2,0.1,0.3,0.3,0.5c0.2,0.1,0.4,0.1,0.6,0l3.4-0.8L35.4,166.5z M30.7,168.5l4.7-1.6
	l0.4,1.2c0.2,0.5,0.2,1-0.1,1.5s-0.7,0.8-1.3,1l-0.7,0.3c-0.5,0.2-1.1,0.2-1.6,0c-0.5-0.2-0.9-0.7-1-1.2L30.7,168.5z M35,168.1
	l-3.1,1.2l0.1,0.3c0.1,0.3,0.3,0.5,0.5,0.6c0.3,0.1,0.7,0,0.9-0.1l0.9-0.3c0.3-0.1,0.6-0.3,0.9-0.5c0.1-0.2,0.1-0.5,0.1-0.7
	L35,168.1z M35.2,173.9l-0.7-1.4l-1.2,0.5l0.8,1.7l-0.7,0.3l-1.2-2.6l4.5-2.1l1.2,2.6l-0.7,0.3l-0.8-1.7l-1.1,0.5l0.7,1.4
	L35.2,173.9z M35.6,178.8l-0.5-0.9l2-3l-2.8,1.7l-0.5-0.9l4.3-2.6l0.5,0.9l-2,3l2.8-1.7l0.5,0.9L35.6,178.8z M41.4,179.6l-0.7-0.9
	l-3.3,2.5l-0.6-0.8l3.3-2.5l-0.7-0.9l0.7-0.5l2.1,2.8L41.4,179.6z M42.6,184l-1.1-1.2l-1.5,1.4l-0.7-0.7l3.6-3.5l2,2l-0.6,0.6
	l-1.2-1.2l-0.9,0.9l1.1,1.2L42.6,184z M42.5,186.8l-0.7-0.7l3.3-3.7l0.7,0.7L42.5,186.8z M46.1,189.5l-0.8-0.6l0.8-3.5l-2,2.6
	l-0.8-0.6l3-4l0.8,0.6l-0.8,3.5l2-2.6l0.8,0.6L46.1,189.5z M49.5,190.4l-1.2-0.7l-0.7,0.7l-0.9-0.5l3.9-3.5l0.8,0.5l-1.2,5.1
	l-0.9-0.5L49.5,190.4z M49,189.1l0.8,0.5l0.5-1.8L49,189.1z M54,193.7l-0.9-0.4v-3.6l-1.4,3l-0.9-0.4l2-4.6l0.9,0.4v3.6l1.4-3
	l0.9,0.4L54,193.7z M58.8,193.5c-0.1,0.5-0.5,0.9-0.9,1.1c-0.4,0.2-0.9,0.2-1.4,0.1c-0.5-0.1-0.9-0.5-1.1-0.9
	c-0.2-0.5-0.1-1.2,0.1-1.7l0.3-0.8c0.1-0.5,0.5-1,0.9-1.4c0.9-0.5,2-0.1,2.4,0.7c0.2,0.5,0.2,0.9,0.1,1.4l-0.9-0.3
	c0.1-0.3,0.1-0.5,0.1-0.7c-0.1-0.2-0.3-0.3-0.5-0.3c-0.2-0.1-0.5-0.1-0.6,0.1c-0.2,0.3-0.3,0.5-0.5,0.8l-0.3,0.9
	c-0.1,0.3-0.2,0.7-0.1,1c0.1,0.2,0.3,0.4,0.5,0.5c0.2,0.1,0.4,0.1,0.6,0c0.2-0.1,0.3-0.4,0.4-0.6L58.8,193.5z M59.9,195.5l-1-0.2
	l1.2-4.9l1,0.2L59.9,195.5z M63.4,195.1l-1.4-0.2l-0.4,0.9l-1.1-0.1l2.3-4.7l0.9,0.1l0.8,5.2l-1.1-0.1L63.4,195.1z M62.4,194.1
	l0.9,0.1l-0.2-1.8L62.4,194.1z M66.3,195.5l1.8,0.1l-0.1,0.8l-2.8-0.1l0.2-5l1,0.1L66.3,195.5z M72.6,195.2l-1.4,0.1l-0.2,1
	l-1.1,0.1l1.1-5.1l0.9-0.1l2,4.9l-1.1,0.1L72.6,195.2z M71.3,194.4l0.9-0.1l-0.6-1.8L71.3,194.4z M75.6,195.8l-1,0.2l-0.9-4.9l1-0.2
	L75.6,195.8z M76.5,195.6l-1.2-4.9l1.3-0.3c0.5-0.1,1.1-0.1,1.5,0.2c0.5,0.3,0.8,0.8,0.9,1.4l0.2,0.8c0.2,0.5,0.1,1.2-0.1,1.6
	s-0.7,0.8-1.3,0.9L76.5,195.6z M76.5,191.3l0.8,3.3l0.3-0.1c0.3-0.1,0.5-0.2,0.6-0.4c0.1-0.3,0.1-0.6,0-0.9l-0.2-0.9
	c-0.1-0.3-0.2-0.7-0.4-0.9c-0.2-0.1-0.5-0.2-0.7-0.1L76.5,191.3z M83.8,192.2l-1.3,0.5l0.1,1.1l-1,0.4l-0.5-5.2l0.9-0.3l3.4,4.1
	l-1,0.4L83.8,192.2z M82.4,191.8l0.9-0.3l-1.2-1.5L82.4,191.8z M86,192.3l-2.4-4.4l1.2-0.6c0.5-0.3,1-0.3,1.5-0.2
	c0.5,0.2,0.9,0.6,1.2,1.1l0.4,0.7c0.3,0.5,0.4,1.1,0.3,1.6s-0.5,0.9-0.9,1.2L86,192.3z M84.9,188.1l1.6,2.9l0.3-0.1
	c0.3-0.1,0.4-0.3,0.5-0.6c0-0.3-0.1-0.6-0.3-0.9l-0.4-0.7c-0.1-0.3-0.4-0.6-0.7-0.7c-0.3-0.1-0.5-0.1-0.7,0.1L84.9,188.1z
	 M87.9,185.3l2.9,2.4l-1.4-3.5l1-0.8l3,4.1l-0.8,0.6l-0.8-1.1l-1.2-1.8l1.2,3.4l-0.5,0.4l-2.8-2.2l1.3,1.6l0.8,1.1l-0.8,0.6l-3-4.1
	L87.9,185.3z M95,186.1l-0.7,0.7l-3.3-3.7l0.7-0.7L95,186.1z M98.1,183l-0.7,0.7l-3.4-1.2l2.4,2.3l-0.7,0.7L92,182l0.7-0.7l3.4,1.2
	l-2.4-2.3l0.7-0.7L98.1,183z M99.3,181.5l-0.6,0.8l-3.9-3.2l0.6-0.8L99.3,181.5z M100,178.3c-0.1-0.1-0.3-0.1-0.5-0.1
	c-0.2,0.1-0.4,0.1-0.6,0.3c-0.3,0.3-0.7,0.4-1.2,0.5c-0.3,0.1-0.7-0.1-0.9-0.3c-0.3-0.2-0.5-0.5-0.6-0.9c0-0.4,0.1-0.8,0.3-1.2
	c0.1-0.3,0.4-0.4,0.6-0.5c0.3-0.1,0.5-0.2,0.7-0.1c0.3,0,0.5,0.1,0.7,0.3l-0.5,0.8c-0.1-0.1-0.3-0.2-0.5-0.2
	c-0.3,0.1-0.5,0.3-0.5,0.7c0.1,0.1,0.1,0.3,0.3,0.3c0.1,0.1,0.3,0.1,0.4,0.1c0.2-0.1,0.4-0.1,0.6-0.3c0.3-0.3,0.7-0.4,1.2-0.5
	c0.3,0,0.7,0.1,1,0.3c0.3,0.2,0.5,0.5,0.6,0.9c0.1,0.4-0.1,0.8-0.3,1.2c-0.2,0.3-0.4,0.5-0.7,0.6s-0.5,0.2-0.8,0.2
	c-0.3,0-0.6-0.1-0.9-0.3l0.5-0.8c0.2,0.1,0.4,0.2,0.6,0.2c0.2-0.1,0.4-0.1,0.5-0.3C100.2,178.8,100.1,178.6,100,178.3
	C100,178.3,100,178.3,100,178.3z M100,172.6l-0.6,1.1l3.7,2l-0.5,0.9l-3.7-2l-0.6,1.1l-0.7-0.4l1.7-3L100,172.6z M102.9,171.8
	l-0.2,0.5l1.7,0.7L104,174l-4.6-2l0.6-1.5c0.1-0.4,0.4-0.7,0.8-0.9c0.9-0.3,1.8,0.2,2.2,1.1c0,0.1,0,0.1,0.1,0.2h2.2h0.1l-0.5,0.9
	H102.9z M101.9,171.9l0.2-0.5c0.1-0.1,0.1-0.3,0-0.5c-0.1-0.1-0.3-0.3-0.4-0.3c-0.5-0.2-0.7-0.1-0.9,0.3l-0.2,0.5L101.9,171.9z
	 M105.3,167.5l-0.4,1.4l0.9,0.5l-0.3,1l-4.3-3l0.3-0.9l5.3-0.1l-0.3,1H105.3z M104.1,168.4l0.3-0.9l-1.8-0.1L104.1,168.4z
	 M103.2,162.3l-0.3,1.2l4.1,0.8l-0.2,1l-4.1-0.8l-0.3,1.2l-0.8-0.2l0.7-3.4L103.2,162.3z M105.7,158.8c0.5,0,1.1,0.3,1.6,0.6
	c0.3,0.3,0.5,0.9,0.4,1.4c0,0.5-0.3,0.9-0.7,1.3c-0.5,0.3-1,0.4-1.6,0.3l-0.9-0.1c-0.6,0-1.2-0.3-1.6-0.6c-0.3-0.3-0.5-0.9-0.5-1.4
	c0-0.5,0.3-0.9,0.7-1.3c0.5-0.3,1.1-0.4,1.6-0.3L105.7,158.8z M104.8,159.7c-0.3-0.1-0.7,0-1,0.1c-0.3,0.2-0.5,0.6-0.3,0.9
	c0.1,0.1,0.1,0.2,0.2,0.2c0.3,0.2,0.6,0.3,0.9,0.3l0.9,0.1c0.3,0.1,0.7,0,1-0.1c0.2-0.1,0.3-0.3,0.3-0.5s-0.1-0.5-0.3-0.6
	c-0.3-0.2-0.6-0.3-0.9-0.3H104.8z M105.9,156.5v0.5h1.8v1l-5,0.1v-1.6c0-0.4,0.1-0.9,0.4-1.2c0.7-0.6,1.8-0.5,2.4,0.1
	c0.1,0.1,0.1,0.1,0.1,0.1l2-0.9h0.1v1.1L105.9,156.5z M105.1,157v-0.5c0-0.2-0.1-0.3-0.2-0.5c-0.1-0.1-0.3-0.1-0.5-0.1
	c-0.5,0-0.7,0.2-0.7,0.6v0.6L105.1,157z M106.1,151.9c-0.2,0-0.3,0.1-0.5,0.2c-0.1,0.2-0.2,0.4-0.3,0.6c-0.1,0.4-0.3,0.8-0.5,1.2
	c-0.2,0.3-0.5,0.4-0.9,0.5c-0.4,0.1-0.8-0.1-1.1-0.3c-0.3-0.3-0.5-0.7-0.5-1.1c-0.1-0.3,0-0.5,0.1-0.8c0.1-0.3,0.3-0.5,0.5-0.6
	c0.2-0.1,0.5-0.3,0.8-0.3l0.1,1c-0.2,0-0.4,0.1-0.5,0.2c-0.1,0.1-0.1,0.3-0.1,0.5c0,0.1,0.1,0.3,0.2,0.4c0.1,0.1,0.3,0.1,0.4,0.1
	c0.1,0,0.3-0.1,0.3-0.2c0.1-0.2,0.2-0.4,0.3-0.6c0.1-0.4,0.3-0.8,0.5-1.2c0.3-0.3,0.6-0.4,0.9-0.5c0.4-0.1,0.7,0.1,1.1,0.3
	c0.3,0.3,0.5,0.7,0.5,1.1c0.1,0.3,0,0.6-0.1,0.9s-0.3,0.5-0.5,0.7c-0.3,0.2-0.5,0.3-0.9,0.3l-0.1-1c0.2,0,0.5-0.1,0.6-0.3
	c0.1-0.1,0.2-0.3,0.1-0.5C106.5,152.2,106.3,152,106.1,151.9C106.1,152,106.1,152,106.1,151.9L106.1,151.9z"/>
<path class="st1" d="M135,154.1h-5.3v14.4h-9.8v-40.6h16c4.8,0,8.6,1.1,11.3,3.2c2.7,2.1,4.1,5.1,4.1,9.1c0.1,2.4-0.5,4.9-1.7,7
	c-1.3,2-3.2,3.6-5.4,4.5l8.5,16.4v0.4h-10.5L135,154.1z M129.7,146.6h6.2c1.9,0,3.3-0.5,4.2-1.5c1-1.2,1.5-2.6,1.4-4.1
	c0.1-1.5-0.4-3-1.4-4.1c-0.9-1-2.4-1.5-4.2-1.5h-6.2V146.6z M168.9,127.8l9.1,28.3l9.1-28.3h12.9v40.6h-9.8V159l0.9-19.4l-9.8,28.9
	h-6.5l-9.8-29l0.9,19.4v9.5h-9.8v-40.6L168.9,127.8z M229.1,157.1h-18.5l-4.2,11.4h-3.6l15.4-40.6h3.3l15.4,40.6h-3.6L229.1,157.1z
	 M211.7,154.2H228l-8.1-22.1L211.7,154.2z M262.4,158.5c0.1-2-0.8-4.1-2.4-5.4c-1.6-1.3-4.5-2.6-8.7-3.7c-4.2-1.2-7.3-2.4-9.2-3.9
	c-2.6-1.7-4.2-4.6-4.1-7.8c-0.1-3,1.4-5.8,3.9-7.6c2.6-2,5.8-2.9,9.8-2.9c2.5-0.1,5,0.5,7.2,1.6c2,0.9,3.8,2.4,5,4.3
	c1.2,1.9,1.8,4,1.8,6.2h-3.5c0.1-2.6-0.9-5-2.8-6.7c-1.9-1.7-4.5-2.5-7.7-2.5c-3.1,0-5.6,0.7-7.5,2.1c-1.8,1.2-2.8,3.3-2.8,5.4
	c-0.1,2,0.9,3.9,2.5,5.1c1.6,1.3,4.3,2.4,8,3.5c2.8,0.7,5.7,1.8,8.3,3.1c1.7,0.9,3.2,2.2,4.3,3.9c0.9,1.6,1.5,3.4,1.4,5.3
	c0.1,3-1.4,6-3.9,7.7c-2.6,2-6,3-10.2,3c-2.7,0-5.4-0.5-7.9-1.6c-2.2-0.9-4.1-2.4-5.4-4.3c-1.3-1.9-1.9-4.1-1.9-6.4h3.5
	c-0.1,2.6,1.1,5.1,3.2,6.8c2.2,1.6,5,2.5,8.5,2.5c3.2,0,5.7-0.7,7.7-2.1C261.4,162.8,262.5,160.7,262.4,158.5L262.4,158.5z
	 M294.5,149.5h-19v19h-3.5v-40.6h25.2v2.9h-21.7v15.8h19V149.5z M320.8,157.1h-18.5l-4.2,11.4h-3.6l15.4-40.6h3.3l15.4,40.6H325
	L320.8,157.1z M303.4,154.2h16.3l-8.1-22.1L303.4,154.2z M355.4,157.1h-18.5l-4.2,11.4h-3.6l15.4-40.6h3.3l15.4,40.6h-3.5
	L355.4,157.1z M338,154.2h16.3l-8.1-22.1L338,154.2z"/>
<circle class="st2" cx="68.4" cy="156.8" r="30.6"/>
<path class="st3" d="M98,159.6h-2c-9.7-0.3-19.4,0.1-29.1,1.1c-2.6,0.3-5.3,0.6-7.9,0.7c-6.3,0.1-12.7-1.4-19-0.7h-1.2
	c0.1,0.3,0.1,0.7,0.1,1h1h0.1c-0.2,0.2-0.5,0.5-0.7,0.7c-0.1,0.1-0.1,0.1-0.2,0.2c0.1,0.7,0.3,1.3,0.5,2c0.3-0.3,0.7-0.7,0.9-0.9
	c1-1,1.6-1.6,2-2c0.5,0,0.9,0,1.4,0c-0.4,0.5-0.9,1-1.3,1.5c-0.9,1.1-1.8,2.2-2.6,3.1c0.2,0.6,0.4,1.3,0.7,1.9
	c0.9-1.3,2.2-2.7,3.2-3.9c1.1-1.2,1.8-2,2.2-2.6c0.5,0,1,0.1,1.5,0.1c-0.5,0.7-1,1.4-1.5,2.1c-2,2.8-3.5,4.9-3.9,6.2
	c-0.1,0-0.3,0.1-0.5,0.1c0.3,0.6,0.6,1.2,0.9,1.7c0.3-0.4,0.5-0.7,0.9-1c0.5-0.1,0.9-0.2,1.4-0.2c-0.5,0.7-1,1.6-1.5,2.5
	c0.4,0.6,0.8,1.2,1.2,1.7c0.9-1.8,1.8-3.4,2.7-4.3c0.1-0.1,0.1-0.1,0.2-0.2c0.3,0,0.7-0.1,1-0.1c0.1,0,0.2,0,0.3,0
	c-1.1,1.6-2.1,3.9-2.9,6.2c0.5,0.5,0.9,1.1,1.5,1.6c1.1-3.3,2.4-6.5,3.9-7.9h1.2c-0.1,0.2-0.2,0.4-0.3,0.6c-1.3,2.3-2.3,5.7-3,8.9
	c0.5,0.5,1.1,0.9,1.6,1.3c0.9-4.1,2.4-8.8,3.9-10.6c0.4,0,0.8,0,1.2,0.1c0.1,0,0.1,0,0.1,0c-0.1,0.1-0.1,0.3-0.2,0.5
	c-1.4,3-2.4,7.8-2.9,11.6c0.5,0.3,1.2,0.7,1.8,1c0.5-4.3,1.8-10.4,3.4-12.9c0.5,0.1,1,0.1,1.5,0.1c-1.5,3.6-2.2,9.8-2.4,13.9
	c0.6,0.3,1.2,0.5,1.8,0.7c0.2-3.9,1-10.8,2.4-14c0.1-0.1,0.1-0.3,0.2-0.3c0.2,0,0.4,0.1,0.6,0.1c0.3,0,0.7,0.1,1,0.1
	c-1.3,4.1-1.6,11-1.6,15c0.6,0.1,1.2,0.3,1.8,0.3c-0.1-3.7,0.3-11.4,1.6-15.1v-0.1c0.3,0.1,0.7,0.1,0.9,0.1c0.2,0,0.4,0.1,0.7,0.1
	c0.1,0,0.1,0,0.1,0c-0.9,4.4-0.9,11.6-0.6,15.3c0.6,0.1,1.2,0.1,1.8,0.1c-0.3-3.6-0.3-11.3,0.6-15.2c0.5,0.1,0.9,0.1,1.4,0.1
	c0.1,0,0.3,0,0.5,0.1c-0.6,4.4-0.1,11.2,0.3,14.9c0.6-0.1,1.2-0.1,1.8-0.2c-0.5-3.8-0.9-10.8-0.3-14.6c0.6,0.1,1.3,0.1,1.9,0.2
	c-0.2,4.1,0.4,10.2,0.9,13.9c0.6-0.1,1.2-0.3,1.8-0.5c-0.5-3.8-1-9.6-0.9-13.3c0.7,0.1,1.3,0.1,2,0.1c0.1,3.7,0.8,8.7,1.4,12.3l0,0
	c0.6-0.2,1.2-0.5,1.8-0.7c-0.6-3.6-1.2-8.3-1.3-11.4c0.7,0.1,1.3,0.1,2,0.1c0.3,3,0.9,6.8,1.6,10.1c0.5-0.3,1.2-0.7,1.7-1.1
	c-0.6-3.1-1.2-6.4-1.4-8.9c0.3,0,0.7,0.1,1,0.1c0.3,0,0.6,0.1,0.9,0.1c0.3,1.9,0.8,4.3,1.5,7.3c0.5-0.5,1.1-0.9,1.6-1.4
	c-0.5-2.5-0.9-4.4-1.2-5.8c0.7,0,1.3,0.1,2,0.1c0.3,1.2,0.6,2.6,0.9,4c0.5-0.5,1-1.2,1.5-1.8c-0.2-0.8-0.4-1.6-0.5-2.3
	c0.6,0,1.2-0.1,1.8-0.1c0.1,0.1,0.1,0.3,0.1,0.5c0.3-0.5,0.7-1,0.9-1.6c-0.1,0-0.3,0.1-0.4,0.1c-0.4-2.3-2.4-8.1-4.4-11
	c0.5,0,0.9,0,1.4,0c1.4,1.2,3.5,5.3,4.7,8.4c0.3-0.7,0.7-1.5,0.9-2.3c-1-2.2-2.2-4.5-3.4-6.1c0.5,0,0.9,0,1.4,0
	c0.7,0.7,1.8,2.1,2.8,3.7c0.2-0.8,0.4-1.6,0.5-2.4c-0.3-0.5-0.6-0.9-0.9-1.2H98C98,160.3,98,159.9,98,159.6z M47.1,169.3
	c-0.9,0.1-1.9,0.2-2.8,0.3c0.7-1.4,2.2-3.3,3.3-4.9c1-1.4,1.6-2.2,2-2.9c0.5,0.1,0.9,0.1,1.4,0.1c0.1,0,0.2,0,0.3,0
	c-0.5,0.8-1,1.8-1.5,2.5C48.8,166.2,47.7,168,47.1,169.3z M51.8,169.1c-0.9,0-1.8,0-2.7,0.1c0.5-1.1,1.4-2.5,2.1-3.7
	c0.9-1.5,1.5-2.5,1.9-3.3c0.6,0.1,1.2,0.1,1.8,0.1c-0.4,0.9-0.9,2.2-1.4,3C52.8,166.7,52.2,168,51.8,169.1z M56.2,169.2
	c-0.9-0.1-1.8-0.1-2.6-0.1c0.4-0.9,0.9-2,1.4-3c0.7-1.6,1.4-2.8,1.7-3.7c0.5,0,1.1,0.1,1.7,0.1h0.3c-0.3,1.2-0.9,2.7-1.3,3.8
	C56.9,167.2,56.6,168.3,56.2,169.2z M61.3,167.2c-0.2,0.9-0.5,1.7-0.6,2.4c-0.9-0.1-1.8-0.1-2.6-0.2c0.3-0.7,0.6-1.7,0.9-2.5
	c0.7-1.9,1.2-3.3,1.5-4.4c0.7,0,1.4-0.1,2-0.1C62.2,163.7,61.6,165.8,61.3,167.2z M65.4,168.4c-0.1,0.5-0.2,1.2-0.3,1.6
	c-0.9-0.1-1.8-0.2-2.7-0.3c0.1-0.6,0.3-1.4,0.5-2.1c0.7-2.4,1.1-4.3,1.3-5.6c0.5-0.1,1.1-0.1,1.6-0.2l0.3-0.1
	C66.2,163.6,65.6,166.8,65.4,168.4z M69.6,170c0,0.1,0,0.3-0.1,0.5c-0.9-0.1-1.8-0.2-2.7-0.3c0.1-0.4,0.1-0.9,0.3-1.5
	c0.5-3.3,0.9-5.6,0.9-7c0.6-0.1,1.3-0.1,2-0.2C70.1,162.8,70,165.7,69.6,170z M74,170.9c-0.9-0.1-1.8-0.1-2.7-0.3
	c0-0.1,0-0.3,0.1-0.5c0.4-4.4,0.5-7.2,0.3-8.9c0.6-0.1,1.2-0.1,1.8-0.1C74,162.8,74.2,167.2,74,170.9z M75.7,171
	c0.1-2,0.2-7.1-0.6-10c0.6-0.1,1.2-0.1,1.8-0.1c0.9,1.6,1.6,7.1,1.7,10.3C77.6,171.2,76.7,171.1,75.7,171z M80.3,171.4
	c-0.1-1.5-0.3-7.4-1.6-10.6c0.5,0,1.1-0.1,1.6-0.1c1.2,1.5,2.6,7.8,2.8,10.8C82.2,171.5,81.2,171.4,80.3,171.4z M84.8,171.6
	c-0.1-1.8-1-7.9-2.6-11c0.5,0,1,0,1.6-0.1c1.4,1.5,3.6,8.3,3.9,11.2C86.7,171.7,85.7,171.7,84.8,171.6z M92.1,171.8
	c-0.9,0.1-1.8,0.1-2.7,0.1c-0.2-2-1.7-8.1-3.5-11.2c0.5,0,0.9,0,1.4,0C88.9,162.1,91.6,168.9,92.1,171.8z"/>
<path class="st4" d="M365.8,183.8H117.4v-10.3h248.4L365.8,183.8L365.8,183.8z M133.6,179.3c0,0.3-0.1,0.5-0.2,0.8
	c-0.1,0.2-0.4,0.3-0.6,0.2c-0.3,0.1-0.5-0.1-0.7-0.3c-0.1-0.4-0.2-0.8-0.2-1.2v-1.1c0-0.3,0.1-0.7,0.2-1.1c0.1-0.2,0.4-0.3,0.7-0.3
	c0.2,0,0.5,0.1,0.6,0.2c0.1,0.3,0.2,0.5,0.2,0.9h1.2c0-0.5-0.2-1.1-0.5-1.5c-0.9-0.7-2.2-0.7-2.9,0.1c-0.4,0.5-0.6,1.2-0.5,1.8v0.9
	c-0.1,0.7,0.1,1.3,0.5,1.8c0.3,0.5,0.9,0.7,1.5,0.7c0.5,0.1,1.1-0.1,1.4-0.5c0.3-0.4,0.5-0.9,0.5-1.5L133.6,179.3z M139.6,177.9
	c0-0.7-0.1-1.3-0.5-1.8c-0.8-0.8-2.1-0.9-3-0.1c-0.1,0.1-0.1,0.1-0.1,0.1c-0.4,0.5-0.6,1.2-0.5,1.8v1c-0.1,0.6,0.1,1.3,0.5,1.8
	c0.8,0.8,2.2,0.9,3,0l0,0c0.4-0.5,0.6-1.2,0.5-1.8L139.6,177.9L139.6,177.9z M138.4,178.9c0,0.4-0.1,0.7-0.2,1.1
	c-0.1,0.2-0.4,0.3-0.7,0.3s-0.5-0.1-0.7-0.3c-0.2-0.3-0.3-0.7-0.2-1.2v-1c0-0.4,0.1-0.7,0.2-1.2c0.3-0.4,0.7-0.5,1.2-0.2
	c0.1,0.1,0.1,0.1,0.2,0.2c0.2,0.3,0.3,0.7,0.2,1.2V178.9z M150.4,179.6c0.3,0,0.5-0.2,0.5-0.5c0-0.3-0.2-0.5-0.5-0.5
	s-0.5,0.2-0.5,0.5l0,0C150,179.4,150.2,179.6,150.4,179.6C150.4,179.6,150.4,179.6,150.4,179.6L150.4,179.6z M164.1,181.3h1.4
	l-1.7-3.3l1.6-2.6H164l-1.1,1.9l-0.3,0.6v-2.5h-1.2v5.8h1.2v-1.6l0.5-0.6L164.1,181.3z M167.8,180.4c-0.2,0-0.5-0.1-0.6-0.2
	c-0.1-0.2-0.2-0.5-0.2-0.7h-1.2c0,0.3,0.1,0.7,0.3,1c0.1,0.3,0.4,0.5,0.7,0.7c0.3,0.1,0.7,0.2,1,0.2c0.5,0,0.9-0.1,1.3-0.4
	c0.3-0.3,0.5-0.7,0.5-1.2s-0.1-0.8-0.4-1.2c-0.3-0.3-0.7-0.6-1.2-0.7c-0.3-0.1-0.5-0.2-0.7-0.4c-0.1-0.1-0.2-0.3-0.2-0.4
	c0-0.2,0.1-0.3,0.2-0.5c0.1-0.1,0.3-0.2,0.5-0.2c0.2,0,0.3,0.1,0.5,0.2c0.1,0.2,0.2,0.4,0.2,0.6h1.2c0-0.3-0.1-0.7-0.2-0.9
	c-0.1-0.3-0.3-0.5-0.6-0.6c-0.3-0.1-0.6-0.2-0.9-0.2c-0.5,0-0.9,0.1-1.3,0.5c-0.3,0.3-0.5,0.7-0.5,1.2s0.1,0.7,0.4,1.1
	c0.3,0.3,0.8,0.6,1.3,0.7c0.3,0.1,0.5,0.2,0.7,0.4c0.1,0.1,0.2,0.3,0.2,0.5C168.4,180.1,168.1,180.4,167.8,180.4L167.8,180.4z
	 M180.3,179.6c0.3,0,0.5-0.2,0.5-0.5c0,0,0,0,0-0.1c0-0.3-0.2-0.5-0.4-0.5c0,0,0,0-0.1,0c-0.3,0-0.5,0.2-0.5,0.5c0,0,0,0,0,0.1
	C179.8,179.4,180,179.6,180.3,179.6C180.3,179.6,180.3,179.6,180.3,179.6L180.3,179.6z M191.3,175.4v5.8h1.2v-1.6l-0.1-2.4l1.2,4
	h0.8l1.2-4l-0.1,2.4v1.6h1.2v-5.8H195l-1.1,4.2l-1.1-4.2L191.3,175.4z M201.1,175.4H197v0.9h1.4v4.9h1.2v-4.8h1.4L201.1,175.4
	L201.1,175.4z M211.5,179.6c0.3,0,0.5-0.2,0.5-0.5c0-0.3-0.2-0.5-0.5-0.5c-0.3,0-0.5,0.2-0.5,0.5l0,0
	C211.1,179.4,211.3,179.6,211.5,179.6C211.5,179.6,211.5,179.6,211.5,179.6L211.5,179.6z M226.5,175.4h-1.2v3.8l-1.7-3.8h-1.2v5.8
	h1.2v-3.8l1.7,3.8h1.2V175.4z M228.9,181.3c0.6,0,1.2-0.2,1.7-0.7c0.4-0.5,0.6-1.2,0.6-1.8v-0.9c0-0.6-0.2-1.3-0.6-1.8
	c-0.4-0.5-1-0.7-1.6-0.7h-1.6v5.8L228.9,181.3z M229.1,176.5c0.3,0,0.6,0.1,0.7,0.3c0.2,0.3,0.3,0.7,0.2,1.2v1
	c0,0.3-0.1,0.7-0.3,1.1c-0.2,0.2-0.5,0.3-0.8,0.3h-0.3v-3.9L229.1,176.5z M242.1,179.6c0.3,0,0.5-0.2,0.5-0.5c0,0,0,0,0-0.1
	c0-0.3-0.2-0.5-0.5-0.5c-0.3,0-0.5,0.2-0.5,0.5S241.7,179.6,242.1,179.6C242,179.6,242.1,179.6,242.1,179.6L242.1,179.6z
	 M257.1,175.4H256v3.8l-1.7-3.8H253v5.8h1.2v-3.8l1.7,3.8h1.2V175.4z M261,177.8h-1.8v-1.4h2.2v-0.9h-3.3v5.8h3.3v-0.9h-2.2v-1.6
	h1.8V177.8z M272,179.6c0.3,0,0.5-0.2,0.5-0.5c0,0,0,0,0-0.1c0-0.3-0.1-0.5-0.4-0.5H272c-0.3,0-0.5,0.3-0.5,0.5
	C271.5,179.4,271.7,179.6,272,179.6L272,179.6z M284.8,180.4c-0.2,0-0.5-0.1-0.6-0.2c-0.1-0.2-0.2-0.5-0.2-0.7h-1.2
	c0,0.3,0.1,0.7,0.3,1c0.1,0.3,0.4,0.5,0.7,0.7c0.3,0.1,0.7,0.2,1,0.2c0.5,0,0.9-0.1,1.3-0.4c0.3-0.3,0.5-0.7,0.5-1.2
	s-0.1-0.8-0.3-1.2c-0.3-0.3-0.7-0.6-1.2-0.7c-0.3-0.1-0.5-0.2-0.7-0.4c-0.1-0.1-0.2-0.3-0.2-0.4c0-0.2,0.1-0.3,0.2-0.5
	c0.1-0.1,0.3-0.2,0.5-0.2c0.2,0,0.4,0.1,0.5,0.2c0.1,0.2,0.2,0.4,0.2,0.6h1.2c0-0.3-0.1-0.7-0.2-0.9c-0.1-0.3-0.3-0.5-0.7-0.6
	c-0.7-0.3-1.6-0.3-2.2,0.2c-0.3,0.3-0.5,0.7-0.5,1.2s0.1,0.7,0.4,1.1c0.3,0.3,0.7,0.6,1.2,0.7c0.3,0.1,0.5,0.2,0.7,0.4
	c0.1,0.1,0.2,0.3,0.2,0.5C285.4,180.1,285.2,180.4,284.8,180.4L284.8,180.4z M288.9,181.2c0.6,0,1.2-0.2,1.7-0.7
	c0.4-0.5,0.6-1.2,0.6-1.8v-0.9c0-0.7-0.2-1.3-0.6-1.8s-1-0.7-1.6-0.7h-1.6v5.8H288.9z M288.9,176.4c0.3,0,0.6,0.1,0.7,0.3
	c0.2,0.3,0.3,0.7,0.2,1.2v1c0,0.3-0.1,0.7-0.3,1.1c-0.2,0.2-0.5,0.3-0.8,0.3h-0.3v-3.9L288.9,176.4z M301.9,179.6
	c0.3,0,0.5-0.2,0.5-0.5s-0.2-0.5-0.5-0.5s-0.5,0.2-0.5,0.5l0,0C301.5,179.4,301.7,179.6,301.9,179.6L301.9,179.6L301.9,179.6z
	 M315.5,175.4v4c0,0.2-0.1,0.5-0.1,0.7c-0.3,0.3-0.8,0.3-1.2,0c-0.1-0.2-0.2-0.5-0.1-0.7v-4h-1.2v4c-0.1,0.5,0.1,1,0.5,1.4
	c0.8,0.6,2,0.6,2.8,0c0.3-0.3,0.5-0.9,0.5-1.4v-4L315.5,175.4z M321.3,175.4h-4v0.9h1.4v4.8h1.2v-4.8h1.4L321.3,175.4z M331.7,179.6
	c0.3,0,0.5-0.2,0.5-0.5c0,0,0,0,0-0.1c0-0.3-0.2-0.5-0.4-0.5c0,0,0,0-0.1,0c-0.3,0-0.5,0.2-0.5,0.5c0,0,0,0,0,0.1
	C331.3,179.4,331.4,179.6,331.7,179.6C331.7,179.6,331.7,179.6,331.7,179.6z M345.8,175.4h-1l-0.7,3.6l-0.5-3.6h-1.2l1,5.8h1.2
	l0.7-3.4l0.7,3.4h1.2l1-5.8H347l-0.5,3.7L345.8,175.4z M349.7,175.4h-1.3l1.6,3.7v2.1h1.2v-2.1l1.6-3.7h-1.2l-0.9,2.6L349.7,175.4z"
	/>
<path class="st5" d="M61.2,161.3c-0.7,0.1-1.4,0.1-2.2,0.1c-6.4,0.1-12.7-1.4-19-0.7c0.3-0.1,0.7-0.1,1.1-0.1l23.2-21.4l-5.5,7.5
	h6.5l-9.4,8.1h10.4L61.2,161.3z M83.3,157.4h-4.9l4.1-2.5h-3.9l3.9-6.2L66,160.8c0.3-0.1,0.7-0.1,0.9-0.1c4.3-0.5,8.6-0.7,12.9-0.9
	L83.3,157.4z"/>
<path class="st4" d="M40.1,160.7c0.3-0.1,0.7-0.1,1.1-0.1l23.2-21.4l-5.5,7.5h6.5l-9.4,8.1h10.4l-5.2,6.6c1.6-0.1,3.2-0.3,4.7-0.5
	l16.5-12.1l-3.9,6.2h3.9l-4.1,2.5h4.9l-3.5,2.4c5.4-0.3,10.8-0.3,16.2-0.1h0.2l-13.1-13.1l-4.1,2.4l-14.2-13.2l-25.6,25H40.1z"/>
<path class="st3" d="M68.4,188.2c-17.3,0-31.4-14.1-31.4-31.4s14.1-31.4,31.4-31.4s31.4,14.1,31.4,31.4S85.7,188.2,68.4,188.2z
	 M68.4,127.1c-16.4,0-29.7,13.3-29.7,29.7s13.3,29.7,29.7,29.7s29.7-13.3,29.7-29.7S84.8,127.1,68.4,127.1z"/>
</svg>
