<?xml version="1.0" encoding="UTF-8"?>
<svg id="Layer_2" data-name="Layer 2" xmlns="http://www.w3.org/2000/svg" width="394" height="340" viewBox="0 0 394 340">
  <defs>
    <style>
      .cls-1 {
        fill: #c5dadd;
      }

      .cls-1, .cls-2, .cls-3, .cls-4, .cls-5 {
        stroke-width: 0px;
      }

      .cls-2 {
        fill: #07657c;
      }

      .cls-3 {
        fill: #fff;
      }

      .cls-4 {
        fill: #044a6b;
      }

      .cls-5 {
        fill: #762b2d;
      }
    </style>
  </defs>
  <g id="Layer_1-2" data-name="Layer 1">
    <g>
      <rect class="cls-3" width="394" height="340"/>
      <g>
        <path class="cls-2" d="m96.545,239.853h-4.994v13.57h-9.235v-38.26h15.078c4.523,0,8.104,1.037,10.649,3.016s3.864,4.806,3.864,8.575c.094,2.262-.471,4.618-1.602,6.596-1.225,1.885-3.016,3.392-5.089,4.241l8.01,15.455v.377h-9.895l-6.785-13.57Zm-4.994-7.068h5.843c1.79,0,3.11-.471,3.958-1.414.942-1.131,1.414-2.45,1.319-3.864.094-1.414-.377-2.827-1.319-3.864-.848-.942-2.262-1.414-3.958-1.414h-5.843v10.554Zm36.94-17.716l8.575,26.669,8.575-26.669h12.156v38.26h-9.235v-8.858l.848-18.282-9.235,27.234h-6.125l-9.235-27.328.848,18.282v8.952h-9.235v-38.26h12.062Zm56.73,27.611h-17.434l-3.958,10.743h-3.392l14.512-38.26h3.11l14.512,38.26h-3.392l-3.958-10.743Zm-16.397-2.733h15.36l-7.633-20.826-7.727,20.826Zm47.777,4.052c.094-1.885-.754-3.864-2.262-5.089-1.508-1.225-4.241-2.45-8.198-3.487-3.958-1.131-6.879-2.262-8.67-3.675-2.45-1.602-3.958-4.335-3.864-7.35-.094-2.827,1.319-5.466,3.675-7.162,2.45-1.885,5.466-2.733,9.235-2.733,2.356-.094,4.712.471,6.785,1.508,1.885.848,3.581,2.262,4.712,4.052,1.131,1.79,1.696,3.769,1.696,5.843h-3.298c.094-2.45-.848-4.712-2.639-6.314s-4.241-2.356-7.256-2.356c-2.921,0-5.277.66-7.068,1.979-1.696,1.131-2.639,3.11-2.639,5.089-.094,1.885.848,3.675,2.356,4.806,1.508,1.225,4.052,2.262,7.539,3.298,2.639.66,5.371,1.696,7.822,2.921,1.602.848,3.016,2.073,4.052,3.675.848,1.508,1.414,3.204,1.319,4.994.094,2.827-1.319,5.654-3.675,7.256-2.45,1.885-5.654,2.827-9.612,2.827-2.544,0-5.089-.471-7.445-1.508-2.073-.848-3.864-2.262-5.089-4.052-1.225-1.79-1.79-3.864-1.79-6.031h3.298c-.094,2.45,1.037,4.806,3.016,6.408,2.073,1.508,4.712,2.356,8.01,2.356,3.016,0,5.371-.66,7.256-1.979,1.79-1.225,2.827-3.204,2.733-5.277h0Zm30.25-8.481h-17.905v17.905h-3.298v-38.26h23.747v2.733h-20.449v14.889h17.905v2.733Zm24.784,7.162h-17.434l-3.958,10.743h-3.392l14.512-38.26h3.11l14.512,38.26h-3.392l-3.958-10.743Zm-16.397-2.733h15.36l-7.633-20.826-7.727,20.826Zm49.002,2.733h-17.434l-3.958,10.743h-3.392l14.512-38.26h3.11l14.512,38.26h-3.298l-4.052-10.743Zm-16.397-2.733h15.36l-7.633-20.826-7.727,20.826Z"/>
        <path class="cls-5" d="m314.04,267.841H79.96v-9.706h234.08v9.706h0Zm-218.814-4.241c0,.283-.094.471-.188.754-.094.188-.377.283-.565.188-.283.094-.471-.094-.66-.283-.094-.377-.188-.754-.188-1.131v-1.037c0-.283.094-.66.188-1.037.094-.188.377-.283.66-.283.188,0,.471.094.565.188.094.283.188.471.188.848h1.131c0-.471-.188-1.037-.471-1.414-.848-.66-2.073-.66-2.733.094-.377.471-.565,1.131-.471,1.696v.848c-.094.66.094,1.225.471,1.696.283.471.848.66,1.414.66.471.094,1.037-.094,1.319-.471.283-.377.471-.848.471-1.414l-1.131.094Zm5.654-1.319c0-.66-.094-1.225-.471-1.696-.754-.754-1.979-.848-2.827-.094l-.094.094c-.377.471-.565,1.131-.471,1.696v.942c-.094.565.094,1.225.471,1.696.754.754,2.073.848,2.827,0h0c.377-.471.565-1.131.471-1.696l.094-.942h0Zm-1.131.942c0,.377-.094.66-.188,1.037-.094.188-.377.283-.66.283s-.471-.094-.66-.283c-.188-.283-.283-.66-.188-1.131v-.942c0-.377.094-.66.188-1.131.283-.377.66-.471,1.131-.188l.188.188c.188.283.283.66.188,1.131v1.037Zm11.308.66c.283,0,.471-.188.471-.471s-.188-.471-.471-.471-.471.188-.471.471h0c.094.283.283.471.471.471h0Zm12.91,1.602h1.319l-1.602-3.11,1.508-2.45h-1.319l-1.037,1.79-.283.565v-2.356h-1.131v5.466h1.131v-1.508l.471-.565.942,2.167Zm3.487-.848c-.188,0-.471-.094-.565-.188-.094-.188-.188-.471-.188-.66h-1.131c0,.283.094.66.283.942.094.283.377.471.66.66.283.094.66.188.942.188.471,0,.848-.094,1.225-.377.283-.283.471-.66.471-1.131s-.094-.754-.377-1.131c-.283-.283-.66-.565-1.131-.66-.283-.094-.471-.188-.66-.377-.094-.094-.188-.283-.188-.377,0-.188.094-.283.188-.471.094-.094.283-.188.471-.188s.283.094.471.188c.094.188.188.377.188.565h1.131c0-.283-.094-.66-.188-.848-.094-.283-.283-.471-.565-.565s-.565-.188-.848-.188c-.471,0-.848.094-1.225.471-.283.283-.471.66-.471,1.131s.094.66.377,1.037c.283.283.754.565,1.225.66.283.094.471.188.66.377.094.094.188.283.188.471-.377.188-.66.471-.942.471h0Zm11.779-.754c.283,0,.471-.188.471-.471v-.094c0-.283-.188-.471-.377-.471h-.094c-.283,0-.471.188-.471.471v.094c0,.283.188.471.471.471h0Zm10.366-3.958v5.466h1.131v-1.508l-.094-2.262,1.131,3.769h.754l1.131-3.769-.094,2.262v1.508h1.131v-5.466h-1.602l-1.037,3.958-1.037-3.958h-1.414Zm9.235,0h-3.864v.848h1.319v4.618h1.131v-4.523h1.319l.094-.942h0Zm9.8,3.958c.283,0,.471-.188.471-.471s-.188-.471-.471-.471-.471.188-.471.471h0c.094.283.283.471.471.471h0Zm14.135-3.958h-1.131v3.581l-1.602-3.581h-1.131v5.466h1.131v-3.581l1.602,3.581h1.131v-5.466Zm2.262,5.56c.565,0,1.131-.188,1.602-.66.377-.471.565-1.131.565-1.696v-.848c0-.565-.188-1.225-.565-1.696-.377-.471-.942-.66-1.508-.66h-1.508v5.466l1.414.094Zm.188-4.523c.283,0,.565.094.66.283.188.283.283.66.188,1.131v.942c0,.283-.094.66-.283,1.037-.188.188-.471.283-.754.283h-.283v-3.675h.471Zm12.251,2.921c.283,0,.471-.188.471-.471v-.094c0-.283-.188-.471-.471-.471s-.471.188-.471.471.094.565.471.565c-.094,0,0,0,0,0h0Zm14.135-3.958h-1.037v3.581l-1.602-3.581h-1.225v5.466h1.131v-3.581l1.602,3.581h1.131v-5.466Zm3.675,2.262h-1.696v-1.319h2.073v-.848h-3.11v5.466h3.11v-.848h-2.073v-1.508h1.696v-.942Zm10.366,1.696c.283,0,.471-.188.471-.471v-.094c0-.283-.094-.471-.377-.471h-.094c-.283,0-.471.283-.471.471,0,.377.188.565.471.565h0Zm12.062.754c-.188,0-.471-.094-.565-.188-.094-.188-.188-.471-.188-.66h-1.131c0,.283.094.66.283.942.094.283.377.471.66.66.283.094.66.188.942.188.471,0,.848-.094,1.225-.377.283-.283.471-.66.471-1.131s-.094-.754-.283-1.131c-.283-.283-.66-.565-1.131-.66-.283-.094-.471-.188-.66-.377-.094-.094-.188-.283-.188-.377,0-.188.094-.283.188-.471.094-.094.283-.188.471-.188s.377.094.471.188c.094.188.188.377.188.565h1.131c0-.283-.094-.66-.188-.848-.094-.283-.283-.471-.66-.565-.66-.283-1.508-.283-2.073.188-.283.283-.471.66-.471,1.131s.094.66.377,1.037c.283.283.66.565,1.131.66.283.094.471.188.66.377.094.094.188.283.188.471-.283.283-.471.565-.848.565h0Zm3.864.754c.565,0,1.131-.188,1.602-.66.377-.471.565-1.131.565-1.696v-.848c0-.66-.188-1.225-.565-1.696s-.942-.66-1.508-.66h-1.508v5.466h1.414v.094Zm0-4.523c.283,0,.565.094.66.283.188.283.283.66.188,1.131v.942c0,.283-.094.66-.283,1.037-.188.188-.471.283-.754.283h-.283v-3.675h.471Zm12.251,3.016c.283,0,.471-.188.471-.471s-.188-.471-.471-.471-.471.188-.471.471h0c.094.283.283.471.471.471h0Zm12.816-3.958v3.769c0,.188-.094.471-.094.66-.283.283-.754.283-1.131,0-.094-.188-.188-.471-.094-.66v-3.769h-1.131v3.769c-.094.471.094.942.471,1.319.754.565,1.885.565,2.639,0,.283-.283.471-.848.471-1.319v-3.769h-1.131Zm5.466,0h-3.769v.848h1.319v4.523h1.131v-4.523h1.319v-.848Zm9.8,3.958c.283,0,.471-.188.471-.471v-.094c0-.283-.188-.471-.377-.471h-.094c-.283,0-.471.188-.471.471v.094c.094.283.188.471.471.471h0Zm13.287-3.958h-.942l-.66,3.392-.471-3.392h-1.131l.942,5.466h1.131l.66-3.204.66,3.204h1.131l.942-5.466h-1.131l-.471,3.487-.66-3.487Zm3.675,0h-1.225l1.508,3.487v1.979h1.131v-1.979l1.508-3.487h-1.131l-.848,2.45-.942-2.45Z"/>
      </g>
      <g>
        <path class="cls-2" d="m147.519,85.508l-.293.733,2.491,1.026-.586,1.319-6.888-2.785.879-2.198c.147-.586.586-1.026,1.172-1.319s1.172-.293,1.759,0c.733.147,1.319.879,1.466,1.759l3.224-.147h.147l-.586,1.466-2.785.147Zm-1.319.293l.293-.733c.147-.147.147-.44,0-.733-.147-.147-.44-.44-.586-.44-.733-.293-1.026-.147-1.319.44l-.293.733,1.905.733Zm4.69-7.914c.733.293,1.319,1.026,1.759,1.759.293.733.147,1.466-.147,2.052-.293.733-.879,1.172-1.759,1.319-.733.147-1.759,0-2.345-.44l-1.026-.586c-.733-.44-1.319-1.026-1.759-1.759-.293-.733-.147-1.466.147-2.052.293-.733.879-1.172,1.759-1.319.733-.147,1.759,0,2.345.44l1.026.586Zm-1.759.733c-.44-.293-.879-.44-1.319-.44s-.733.147-.879.44-.147.733,0,1.026c.293.44.733.733,1.026.879l1.172.586c.44.293.879.44,1.319.44s.733-.147.733-.586c.147-.293.147-.733,0-1.026-.293-.44-.733-.733-1.026-.879l-1.026-.44Zm5.569-5.276c.586.44,1.026,1.026,1.172,1.759s-.147,1.319-.44,1.905c-.44.586-1.026,1.026-1.759,1.026s-1.759-.147-2.345-.733l-1.026-.733c-.733-.44-1.319-1.026-1.612-1.905-.147-.733,0-1.466.44-2.052.293-.586.879-1.026,1.612-1.026s1.319.147,2.052.44l-.879,1.172c-.293-.147-.586-.44-1.026-.44-.293,0-.586.147-.733.44s-.293.586-.147.879c.147.44.586.733,1.026,1.026l1.172.733c.44.293.879.586,1.319.586.293,0,.733-.147.733-.44.147-.147.293-.44.147-.733-.147-.293-.44-.586-.733-.733l1.026-1.172Zm1.466-2.198l.147.879,1.612,1.319-1.026,1.026-5.716-4.836,1.026-1.026,2.491,2.052-.293-.879-1.026-2.638,1.172-1.319,1.026,3.664,4.543,1.026-1.172,1.319-2.785-.586Zm2.931-4.983l-1.466-3.224,1.172-1.026,1.905,4.836,1.905,1.905-1.026,1.026-1.905-1.905-4.69-2.052,1.172-1.026,2.931,1.466Zm3.517-7.474l4.103,3.517-1.905-5.129,1.612-1.026,4.25,6.009-1.172.879-1.026-1.612-1.759-2.491,1.759,4.983-.733.586-4.103-3.224,1.905,2.491,1.172,1.612-1.172.879-4.397-6.302,1.466-1.172Zm11.871-2.052c.44.733.586,1.612.44,2.345-.147.733-.733,1.319-1.319,1.612-.586.44-1.319.44-2.052.147-.733-.293-1.319-.879-1.759-1.759l-.586-1.026c-.44-.733-.586-1.466-.44-2.345.147-.733.733-1.319,1.319-1.759.586-.44,1.319-.44,2.052-.147.733.44,1.319,1.026,1.759,1.759l.586,1.172Zm-1.905-.293c-.147-.44-.44-.879-.879-1.172-.44-.293-1.172-.147-1.319.44-.147.147-.147.293-.147.44,0,.44.147,1.026.44,1.319l.586,1.172c.147.44.44.733.879,1.026.293.147.733.147,1.026,0s.44-.44.586-.733c0-.44-.147-.879-.44-1.319l-.733-1.172Zm5.422-5.716l1.905,4.836c.293.586.293,1.319.147,1.905-.293.586-.733,1.026-1.466,1.172-.586.293-1.319.293-1.905.147-.586-.293-1.026-.733-1.319-1.319l-1.905-4.69,1.319-.586,1.905,4.69c.147.293.293.586.44.733.44.147,1.026-.147,1.319-.44,0-.293,0-.586-.147-.879l-1.905-4.836,1.612-.733Zm8.207,5.422l-1.466.44-3.371-4.103,1.319,4.69-1.466.44-1.905-7.181,1.319-.44,3.371,4.103-1.319-4.69,1.319-.44,2.198,7.181Zm4.103-6.888l-1.759.293,1.026,6.009-1.466.147-1.026-6.009-1.759.293-.147-1.172,5.129-.879v1.319Zm4.103,4.397l-2.052.147-.293,1.466-1.612.147,1.759-7.474,1.319-.147,2.785,7.181-1.612.147-.293-1.466Zm-1.759-1.172l1.319-.147-.879-2.638-.44,2.785Zm5.569,2.491h-1.466l.147-7.328h1.466l-.147,7.328Zm5.862.44l-1.466-.147-1.759-4.983-.44,4.836-1.466-.147.586-7.474,1.466.147,1.759,5.129.44-4.836,1.466.147-.586,7.328Zm6.155-.293l-2.052-.44-.733,1.319-1.466-.44,3.957-6.595,1.319.293.44,7.767-1.612-.44.147-1.466Zm-1.466-1.466l1.319.293v-2.785l-1.319,2.491Zm6.741,2.785c.147-.147.147-.44,0-.733s-.44-.44-.586-.733c-.586-.44-1.026-1.026-1.172-1.612-.147-.44-.147-1.026,0-1.319.147-.586.586-1.026,1.026-1.172,1.026-.293,2.052-.147,2.785.733.293.293.44.586.44,1.026s0,.733-.147,1.172l-1.319-.44c.147-.147.147-.44,0-.733-.147-.44-.733-.586-1.172-.44l-.44.44c-.147.147-.147.44,0,.586.147.293.44.586.733.733.44.44.879.879,1.172,1.319.147.44.147,1.026,0,1.466s-.586,1.026-1.026,1.172c-.586.147-1.172.147-1.759-.147-.44-.147-.733-.44-1.026-.733s-.44-.733-.44-1.026c-.147-.44,0-.879.147-1.319l1.319.44c-.147.293-.147.733-.147,1.026.147.293.44.44.733.586.293.293.586.293.879-.293h0Zm4.69,2.052c.147-.147.147-.44.147-.733-.147-.293-.293-.586-.586-.733-.44-.44-.733-1.026-1.026-1.612-.147-.44-.147-1.026.147-1.319.147-.44.733-.879,1.172-1.026.586-.147,1.172-.147,1.759.147.44.147.733.44,1.026.733.147.293.44.733.44,1.026s-.147.733-.293,1.172l-1.319-.733c.147-.147.147-.44.147-.733-.147-.147-.147-.44-.44-.44-.147-.147-.44-.147-.733,0-.147.147-.44.293-.44.44-.147.147-.147.44,0,.586.147.293.293.586.586.733.44.44.733,1.026,1.026,1.466.147.44.147,1.026-.147,1.466-.147.44-.733.879-1.172,1.026-.586.147-1.172.147-1.759-.147-.44-.147-.733-.44-1.026-.733s-.44-.733-.44-1.172c-.147-.44,0-.879.147-1.319l1.466.733c-.147.293-.147.586-.147.879.147.293.293.44.586.586.293.147.733.147,1.026-.147-.147.147-.147,0-.147-.147Zm6.888,2.785c-.44.733-1.026,1.319-1.759,1.612-.733.147-1.466.147-2.052-.293-.733-.44-1.026-1.026-1.319-1.759-.147-.733.147-1.612.586-2.345l.733-1.026c.44-.733,1.026-1.319,1.759-1.759.733-.147,1.466-.147,2.052.293.733.44,1.026,1.026,1.172,1.759.147.733-.147,1.759-.586,2.345l-.586,1.172Zm-.586-1.759c.293-.44.44-.879.44-1.319s-.147-.733-.44-.879c-.293-.147-.733-.147-1.026,0-.44.293-.733.586-1.026,1.026l-.733,1.026c-.293.44-.44.879-.44,1.319s.147.733.44.879c.293.147.733.147,1.026.147.44-.147.733-.586,1.026-1.026l.733-1.172Zm4.836,5.716c-.44.586-1.026.879-1.759,1.026-.733.147-1.319-.147-1.905-.586-.586-.44-1.026-1.026-1.026-1.759,0-.879.293-1.759.879-2.345l.733-1.026c.44-.733,1.172-1.172,2.052-1.319.733-.147,1.466.147,2.052.44.586.44.879,1.026,1.026,1.759,0,.733-.147,1.319-.586,2.052l-1.319-1.026c.147-.293.44-.586.44-1.026,0-.293-.147-.586-.44-.733-.147-.147-.586-.293-.879-.147-.44.147-.733.44-1.026.879l-.733,1.172c-.44.44-.586.733-.733,1.319,0,.293.147.733.44.879.147.147.44.293.733.293.293-.147.586-.44.733-.733l1.319.879Zm-.147,3.224l-1.026-1.026,4.983-5.422,1.026,1.026-4.983,5.422Zm4.103,2.052l-1.319-1.466-1.319.733-1.172-1.026,6.888-3.371.879,1.026-3.81,6.741-1.026-1.319.879-1.319Zm-.293-2.052l.879,1.026,1.319-2.345-2.198,1.319Zm7.914,4.103l-1.026-1.319-4.836,3.81-.879-1.172,4.836-3.81-1.026-1.319,1.026-.733,3.224,3.957-1.319.586Zm-3.664,5.422l-.733-1.319,6.155-4.103.733,1.319-6.155,4.103Zm5.569,3.517c-.733.44-1.466.586-2.345.44-.733-.147-1.319-.586-1.759-1.319-.44-.586-.44-1.319-.293-2.052.293-.733.879-1.319,1.759-1.759l1.026-.586c.733-.44,1.612-.733,2.345-.586,1.319.293,2.345,1.759,2.052,3.224q0,.147-.147.147c-.293.733-.879,1.319-1.759,1.759l-.879.733Zm.293-1.905c.44-.147.879-.586,1.172-1.026.293-.44.147-1.172-.44-1.319-.147-.147-.293-.147-.44-.147-.44,0-1.026.147-1.319.44l-1.172.586c-.44.147-.733.586-1.026,1.026-.147.293-.147.733,0,1.026s.44.44.733.44c.44,0,1.026-.147,1.319-.44l1.172-.586Zm-.733,8.5l-.586-1.319,3.517-3.81-4.397,1.905-.586-1.319,6.741-2.931.586,1.319-3.517,3.957,4.397-1.905.586,1.319-6.741,2.785Zm-100.536,7.035c.586.147,1.172.293,1.612.733.733.879.44,2.052-.44,2.785h-.147c-.586.293-1.172.44-1.759.293h-.44c-.586-.147-1.172-.293-1.612-.733-.293-.44-.44-1.026-.44-1.466.147-.586.44-1.026.879-1.319.44-.293,1.172-.44,1.759-.147h.586v-.147Zm-.586,1.172c-.879-.147-1.319,0-1.319.44-.147.44.293.733,1.026.733l.44.147c.293.147.733.147,1.026,0,.147-.147.44-.147.44-.44,0-.147-.147-.44-.147-.44-.293-.147-.586-.293-.879-.293l-.586-.147Zm-2.638,3.371l3.81.293.147-.586.879.147-.147.586h.44c.44,0,.879.147,1.172.44s.44.733.293,1.172c0,.147-.147.44-.147.586l-1.026-.147c0-.147.147-.147.147-.293,0-.44-.147-.586-.586-.586h-.44l-.147.733-.879-.147v-.733l-3.81-.293.293-1.172Zm.586,8.06c.293,0,.44-.147.733-.293.147-.293.44-.44.44-.879.147-.586.44-1.172,1.026-1.612.44-.293.733-.44,1.319-.44s1.026.147,1.466.586c.44.44.586,1.026.586,1.759,0,.44-.147.733-.293,1.172-.147.44-.44.733-.733.733-.293.293-.733.44-1.172.44v-1.466c.293,0,.586-.147.733-.147.147-.147.293-.44.293-.586s-.147-.44-.147-.586c-.147-.147-.44-.147-.586-.147s-.44.147-.586.293c-.147.293-.44.586-.44.879-.147.586-.44,1.172-.879,1.612-.44.293-.879.44-1.319.44-.586,0-1.026-.147-1.466-.586-.44-.586-.733-1.172-.733-1.759,0-.44.147-.879.293-1.319.147-.44.44-.733.733-1.026.44-.147.733-.44,1.319-.44v1.466c-.293,0-.733.147-.879.293-.147.147-.293.44-.293.733-.147.586,0,.879.586.879Zm4.836,6.741l-.147-1.759-6.009.733-.147-1.466,6.009-.733-.147-1.759,1.172-.147.733,5.129h-1.466Zm2.491,4.836l-4.983,1.319c-.586.147-1.319.147-1.905-.147-1.026-.879-1.319-2.345-.733-3.517.44-.44.879-.879,1.612-1.026l4.836-1.172.293,1.319-4.836,1.172c-.293,0-.586.147-.733.44s-.147.44-.147.733.147.44.44.733c.293.147.586.147.879,0l4.983-1.172.293,1.319Zm-6.888,2.931l6.888-2.345.586,1.759c.293.733.293,1.466-.147,2.198s-1.026,1.172-1.905,1.466l-1.026.44c-.733.293-1.612.293-2.345,0s-1.319-1.026-1.466-1.759l-.586-1.759Zm6.302-.586l-4.543,1.759.147.44c.147.44.44.733.733.879.44.147,1.026,0,1.319-.147l1.319-.44c.44-.147.879-.44,1.319-.733.147-.293.147-.733.147-1.026l-.44-.733Zm.293,8.5l-1.026-2.052-1.759.733,1.172,2.491-1.026.44-1.759-3.81,6.595-3.078,1.759,3.81-1.026.44-1.172-2.491-1.612.733,1.026,2.052-1.172.733Zm.586,7.181l-.733-1.319,2.931-4.397-4.103,2.491-.733-1.319,6.302-3.81.733,1.319-2.931,4.397,4.103-2.491.733,1.319-6.302,3.81Zm8.5,1.172l-1.026-1.319-4.836,3.664-.879-1.172,4.836-3.664-1.026-1.319,1.026-.733,3.078,4.103-1.172.44Zm1.759,6.448l-1.612-1.759-2.198,2.052-1.026-1.026,5.276-5.129,2.931,2.931-.879.879-1.759-1.759-1.319,1.319,1.612,1.759-1.026.733Zm-.147,4.103l-1.026-1.026,4.836-5.422,1.026,1.026-4.836,5.422Zm5.276,3.957l-1.172-.879,1.172-5.129-2.931,3.81-1.172-.879,4.397-5.862,1.172.879-1.172,5.129,2.931-3.81,1.172.879-4.397,5.862Zm4.983,1.319l-1.759-1.026-1.026,1.026-1.319-.733,5.716-5.129,1.172.733-1.759,7.474-1.319-.733.293-1.612Zm-.733-1.905l1.172.733.733-2.638-1.905,1.905Zm7.328,6.741l-1.319-.586v-5.276l-2.052,4.397-1.319-.586,2.931-6.741,1.319.586v5.276l2.052-4.397,1.319.586-2.931,6.741Zm7.035-.293c-.147.733-.733,1.319-1.319,1.612-.586.293-1.319.293-2.052.147-.733-.147-1.319-.733-1.612-1.319-.293-.733-.147-1.759.147-2.491l.44-1.172c.147-.733.733-1.466,1.319-2.052,1.319-.733,2.931-.147,3.517,1.026.293.733.293,1.319.147,2.052l-1.319-.44c.147-.44.147-.733.147-1.026-.147-.293-.44-.44-.733-.44-.293-.147-.733-.147-.879.147-.293.44-.44.733-.733,1.172l-.44,1.319c-.147.44-.293,1.026-.147,1.466.147.293.44.586.733.733s.586.147.879,0c.293-.147.44-.586.586-.879l1.319.147Zm1.612,2.931l-1.466-.293,1.759-7.181,1.466.293-1.759,7.181Zm5.129-.586l-2.052-.293-.586,1.319-1.612-.147,3.371-6.888,1.319.147,1.172,7.621-1.612-.147v-1.612Zm-1.466-1.466l1.319.147-.293-2.638-1.026,2.491Zm5.716,2.052l2.638.147-.147,1.172-4.103-.147.293-7.328,1.466.147-.147,6.009Zm9.233-.44l-2.052.147-.293,1.466-1.612.147,1.612-7.474,1.319-.147,2.931,7.181-1.612.147-.293-1.466Zm-1.905-1.172l1.319-.147-.879-2.638-.44,2.785Zm6.302,2.052l-1.466.293-1.319-7.181,1.466-.293,1.319,7.181Zm1.319-.293l-1.759-7.181,1.905-.44c.733-.147,1.612-.147,2.198.293.733.44,1.172,1.172,1.319,2.052l.293,1.172c.293.733.147,1.759-.147,2.345s-1.026,1.172-1.905,1.319l-1.905.44Zm0-6.302l1.172,4.836.44-.147c.44-.147.733-.293.879-.586.147-.44.147-.879,0-1.319l-.293-1.319c-.147-.44-.293-1.026-.586-1.319-.293-.147-.733-.293-1.026-.147h-.586Zm10.698,1.319l-1.905.733.147,1.612-1.466.586-.733-7.621,1.319-.44,4.983,6.009-1.466.586-.879-1.466Zm-2.052-.586l1.319-.44-1.759-2.198.44,2.638Zm5.276.733l-3.517-6.448,1.759-.879c.733-.44,1.466-.44,2.198-.293.733.293,1.319.879,1.759,1.612l.586,1.026c.44.733.586,1.612.44,2.345s-.733,1.319-1.319,1.759l-1.905.879Zm-1.612-6.155l2.345,4.25.44-.147c.44-.147.586-.44.733-.879,0-.44-.147-.879-.44-1.319l-.586-1.026c-.147-.44-.586-.879-1.026-1.026-.44-.147-.733-.147-1.026.147h-.44Zm4.397-4.103l4.25,3.517-2.052-5.129,1.466-1.172,4.397,6.009-1.172.879-1.172-1.612-1.759-2.638,1.759,4.983-.733.586-4.103-3.224,1.905,2.345,1.172,1.612-1.172.879-4.397-6.009,1.612-1.026Zm10.405,1.172l-1.026,1.026-4.836-5.422,1.026-1.026,4.836,5.422Zm4.543-4.543l-1.026,1.026-4.983-1.759,3.517,3.371-1.026,1.026-5.422-5.129,1.026-1.026,4.983,1.759-3.517-3.371,1.026-1.026,5.422,5.129Zm1.759-2.198l-.879,1.172-5.716-4.69.879-1.172,5.716,4.69Zm1.026-4.69c-.147-.147-.44-.147-.733-.147-.293.147-.586.147-.879.44-.44.44-1.026.586-1.759.733-.44.147-1.026-.147-1.319-.44-.44-.293-.733-.733-.879-1.319,0-.586.147-1.172.44-1.759.147-.44.586-.586.879-.733.44-.147.733-.293,1.026-.147.44,0,.733.147,1.026.44l-.733,1.172c-.147-.147-.44-.293-.733-.293-.44.147-.733.44-.733,1.026.147.147.147.44.44.44.147.147.44.147.586.147.293-.147.586-.147.879-.44.44-.44,1.026-.586,1.759-.733.44,0,1.026.147,1.466.44s.733.733.879,1.319-.147,1.172-.44,1.759c-.293.44-.586.733-1.026.879s-.733.293-1.172.293-.879-.147-1.319-.44l.733-1.172c.293.147.586.293.879.293.293-.147.586-.147.733-.44.293-.586.147-.879,0-1.319h0Zm0-8.354l-.879,1.612,5.422,2.931-.733,1.319-5.422-2.931-.879,1.612-1.026-.586,2.491-4.397,1.026.44Zm4.25-1.172l-.293.733,2.491,1.026-.586,1.466-6.741-2.931.879-2.198c.147-.586.586-1.026,1.172-1.319,1.319-.44,2.638.293,3.224,1.612q0,.147.147.293h3.371l-.733,1.319h-2.931Zm-1.466.147l.293-.733c.147-.147.147-.44,0-.733-.147-.147-.44-.44-.586-.44-.733-.293-1.026-.147-1.319.44l-.293.733,1.905.733Zm4.983-6.448l-.586,2.052,1.319.733-.44,1.466-6.302-4.397.44-1.319,7.767-.147-.44,1.466h-1.759v.147Zm-1.759,1.319l.44-1.319-2.638-.147,2.198,1.466Zm-1.319-8.94l-.44,1.759,6.009,1.172-.293,1.466-6.009-1.172-.44,1.759-1.172-.293,1.026-4.983,1.319.293Zm3.664-5.129c.733,0,1.612.44,2.345.879.44.44.733,1.319.586,2.052,0,.733-.44,1.319-1.026,1.905-.733.44-1.466.586-2.345.44l-1.319-.147c-.879,0-1.759-.44-2.345-.879-.44-.44-.733-1.319-.733-2.052s.44-1.319,1.026-1.905c.733-.44,1.612-.586,2.345-.44l1.466.147Zm-1.319,1.319c-.44-.147-1.026,0-1.466.147-.44.293-.733.879-.44,1.319.147.147.147.293.293.293.44.293.879.44,1.319.44l1.319.147c.44.147,1.026,0,1.466-.147.293-.147.44-.44.44-.733s-.147-.733-.44-.879c-.44-.293-.879-.44-1.319-.44h-1.172v-.147Zm1.612-4.69v.733h2.638v1.466l-7.328.147v-2.345c0-.586.147-1.319.586-1.759,1.026-.879,2.638-.733,3.517.147l.147.147,2.931-1.319h.147v1.612l-2.638,1.172Zm-1.172.733v-.733c0-.293-.147-.44-.293-.733-.147-.147-.44-.147-.733-.147-.733,0-1.026.293-1.026.879v.879l2.052-.147Zm1.466-7.474c-.293,0-.44.147-.733.293l-.44.879c-.147.586-.44,1.172-.733,1.759-.293.44-.733.586-1.319.733s-1.172-.147-1.612-.44c-.44-.44-.733-1.026-.733-1.612-.147-.44,0-.733.147-1.172s.44-.733.733-.879.733-.44,1.172-.44l.147,1.466c-.293,0-.586.147-.733.293-.147.147-.147.44-.147.733,0,.147.147.44.293.586.147.147.44.147.586.147s.44-.147.44-.293l.44-.879c.147-.586.44-1.172.733-1.759.44-.44.879-.586,1.319-.733.586-.147,1.026.147,1.612.44.44.44.733,1.026.733,1.612.147.44,0,.879-.147,1.319s-.44.733-.733,1.026c-.44.293-.733.44-1.319.44l-.147-1.466c.293,0,.733-.147.879-.44.147-.147.293-.44.147-.733,0-.44-.293-.733-.586-.879q0,.147,0,0h0Z"/>
        <circle class="cls-1" cx="196.908" cy="105" r="44.845"/>
        <path class="cls-4" d="m240.287,109.104h-2.931c-14.216-.44-28.431.147-42.647,1.612-3.81.44-7.767.879-11.578,1.026-9.233.147-18.612-2.052-27.845-1.026h-1.759c.147.44.147,1.026.147,1.466h1.612c-.293.293-.733.733-1.026,1.026q-.147.147-.293.293c.147,1.026.44,1.905.733,2.931.44-.44,1.026-1.026,1.319-1.319,1.466-1.466,2.345-2.345,2.931-2.931h2.052c-.586.733-1.319,1.466-1.905,2.198-1.319,1.612-2.638,3.224-3.81,4.543.293.879.586,1.905,1.026,2.785,1.319-1.905,3.224-3.957,4.69-5.716,1.612-1.759,2.638-2.931,3.224-3.81.733,0,1.466.147,2.198.147-.733,1.026-1.466,2.052-2.198,3.078-2.931,4.103-5.129,7.181-5.716,9.086-.147,0-.44.147-.733.147.44.879.879,1.759,1.319,2.491.44-.586.733-1.026,1.319-1.466.733-.147,1.319-.293,2.052-.293-.733,1.026-1.466,2.345-2.198,3.664.586.879,1.172,1.759,1.759,2.491,1.319-2.638,2.638-4.983,3.957-6.302q.147-.147.293-.293c.44,0,1.026-.147,1.466-.147h.44c-1.612,2.345-3.078,5.716-4.25,9.086.733.733,1.319,1.612,2.198,2.345,1.612-4.836,3.517-9.526,5.716-11.578h1.759c-.147.293-.293.586-.44.879-1.905,3.371-3.371,8.354-4.397,13.043.733.733,1.612,1.319,2.345,1.905,1.319-6.009,3.517-12.897,5.716-15.535.586,0,1.172,0,1.759.147h.147c-.147.147-.147.44-.293.733-2.052,4.397-3.517,11.431-4.25,17,.733.44,1.759,1.026,2.638,1.466.733-6.302,2.638-15.242,4.983-18.905.733.147,1.466.147,2.198.147-2.198,5.276-3.224,14.362-3.517,20.371.879.44,1.759.733,2.638,1.026.293-5.716,1.466-15.828,3.517-20.517.147-.147.147-.44.293-.44.293,0,.586.147.879.147.44,0,1.026.147,1.466.147-1.905,6.009-2.345,16.121-2.345,21.983.879.147,1.759.44,2.638.44-.147-5.422.44-16.707,2.345-22.13v-.147c.44.147,1.026.147,1.319.147s.586.147,1.026.147h.147c-1.319,6.448-1.319,17-.879,22.423.879.147,1.759.147,2.638.147-.44-5.276-.44-16.561.879-22.276.733.147,1.319.147,2.052.147.147,0,.44,0,.733.147-.879,6.448-.147,16.414.44,21.836.879-.147,1.759-.147,2.638-.293-.733-5.569-1.319-15.828-.44-21.397.879.147,1.905.147,2.785.293-.293,6.009.586,14.948,1.319,20.371.879-.147,1.759-.44,2.638-.733-.733-5.569-1.466-14.069-1.319-19.492,1.026.147,1.905.147,2.931.147.147,5.422,1.172,12.75,2.052,18.026h0c.879-.293,1.759-.733,2.638-1.026-.879-5.276-1.759-12.164-1.905-16.707,1.026.147,1.905.147,2.931.147.44,4.397,1.319,9.966,2.345,14.802.733-.44,1.759-1.026,2.491-1.612-.879-4.543-1.759-9.379-2.052-13.043.44,0,1.026.147,1.466.147s.879.147,1.319.147c.44,2.785,1.172,6.302,2.198,10.698.733-.733,1.612-1.319,2.345-2.052-.733-3.664-1.319-6.448-1.759-8.5,1.026,0,1.905.147,2.931.147.44,1.759.879,3.81,1.319,5.862.733-.733,1.466-1.759,2.198-2.638-.293-1.172-.586-2.345-.733-3.371.879,0,1.759-.147,2.638-.147.147.147.147.44.147.733.44-.733,1.026-1.466,1.319-2.345-.147,0-.44.147-.586.147-.586-3.371-3.517-11.871-6.448-16.121h2.052c2.052,1.759,5.129,7.767,6.888,12.31.44-1.026,1.026-2.198,1.319-3.371-1.466-3.224-3.224-6.595-4.983-8.94h2.052c1.026,1.026,2.638,3.078,4.103,5.422.293-1.172.586-2.345.733-3.517-.44-.733-.879-1.319-1.319-1.759h1.759v-2.345Zm-74.596,14.216c-1.319.147-2.785.293-4.103.44,1.026-2.052,3.224-4.836,4.836-7.181,1.466-2.052,2.345-3.224,2.931-4.25.733.147,1.319.147,2.052.147h.44c-.733,1.172-1.466,2.638-2.198,3.664-1.466,2.638-3.078,5.276-3.957,7.181Zm6.888-.293c-1.319,0-2.638,0-3.957.147.733-1.612,2.052-3.664,3.078-5.422,1.319-2.198,2.198-3.664,2.785-4.836.879.147,1.759.147,2.638.147-.586,1.319-1.319,3.224-2.052,4.397-1.026,2.052-1.905,3.957-2.491,5.569Zm6.448.147c-1.319-.147-2.638-.147-3.81-.147.586-1.319,1.319-2.931,2.052-4.397,1.026-2.345,2.052-4.103,2.491-5.422.733,0,1.612.147,2.491.147h.44c-.44,1.759-1.319,3.957-1.905,5.569-.733,1.319-1.172,2.931-1.759,4.25Zm7.474-2.931c-.293,1.319-.733,2.491-.879,3.517-1.319-.147-2.638-.147-3.81-.293.44-1.026.879-2.491,1.319-3.664,1.026-2.785,1.759-4.836,2.198-6.448,1.026,0,2.052-.147,2.931-.147-.44,1.905-1.319,4.983-1.759,7.035Zm6.009,1.759c-.147.733-.293,1.759-.44,2.345-1.319-.147-2.638-.293-3.957-.44.147-.879.44-2.052.733-3.078,1.026-3.517,1.612-6.302,1.905-8.207.733-.147,1.612-.147,2.345-.293l.44-.147c.147,2.785-.733,7.474-1.026,9.819Zm6.155,2.345c0,.147,0,.44-.147.733-1.319-.147-2.638-.293-3.957-.44.147-.586.147-1.319.44-2.198.733-4.836,1.319-8.207,1.319-10.259.879-.147,1.905-.147,2.931-.293.147,1.905,0,6.155-.586,12.457Zm6.448,1.319c-1.319-.147-2.638-.147-3.957-.44,0-.147,0-.44.147-.733.586-6.448.733-10.552.44-13.043.879-.147,1.759-.147,2.638-.147.733,2.491,1.026,8.94.733,14.362Zm2.491.147c.147-2.931.293-10.405-.879-14.655.879-.147,1.759-.147,2.638-.147,1.319,2.345,2.345,10.405,2.491,15.095-1.466,0-2.785-.147-4.25-.293Zm6.741.586c-.147-2.198-.44-10.845-2.345-15.535.733,0,1.612-.147,2.345-.147,1.759,2.198,3.81,11.431,4.103,15.828-1.319,0-2.785-.147-4.103-.147Zm6.595.293c-.147-2.638-1.466-11.578-3.81-16.121.733,0,1.466,0,2.345-.147,2.052,2.198,5.276,12.164,5.716,16.414-1.466,0-2.931,0-4.25-.147Zm10.698.293c-1.319.147-2.638.147-3.957.147-.293-2.931-2.491-11.871-5.129-16.414h2.052c2.345,2.052,6.302,12.017,7.035,16.267Z"/>
        <path class="cls-3" d="m186.356,111.595c-1.026.147-2.052.147-3.224.147-9.379.147-18.612-2.052-27.845-1.026.44-.147,1.026-.147,1.612-.147l34-31.362-8.06,10.991h9.526l-13.776,11.871h15.242l-7.474,9.526Zm32.388-5.716h-7.181l6.009-3.664h-5.716l5.716-9.086-24.181,17.733c.44-.147,1.026-.147,1.319-.147,6.302-.733,12.604-1.026,18.905-1.319l5.129-3.517Z"/>
        <path class="cls-5" d="m155.433,110.716c.44-.147,1.026-.147,1.612-.147l34-31.362-8.06,10.991h9.526l-13.776,11.871h15.242l-7.621,9.673c2.345-.147,4.69-.44,6.888-.733l24.181-17.733-5.716,9.086h5.716l-6.009,3.664h7.181l-5.129,3.517c7.914-.44,15.828-.44,23.742-.147h.293l-19.198-19.198-6.009,3.517-20.811-19.345-37.518,36.638h1.466v-.293Z"/>
        <path class="cls-4" d="m196.908,151.018c-25.354,0-46.018-20.664-46.018-46.018s20.664-46.018,46.018-46.018,46.018,20.664,46.018,46.018-20.664,46.018-46.018,46.018Zm0-89.544c-24.035,0-43.526,19.492-43.526,43.526s19.492,43.526,43.526,43.526,43.526-19.492,43.526-43.526-19.492-43.526-43.526-43.526Z"/>
      </g>
    </g>
  </g>
</svg>