<svg id="Layer_2" data-name="Layer 2" xmlns="http://www.w3.org/2000/svg" viewBox="0 0 394 340">
  <defs>
    <style>
      .cls-1 {
        fill: #fff;
      }

      .cls-2 {
        fill: #762b2d;
      }

      .cls-3 {
        fill: #07657c;
      }

      .cls-4 {
        fill: #c5dadd;
      }

      .cls-5 {
        fill: #044a6b;
      }
    </style>
  </defs>
  <rect class="cls-1" width="394" height="340"/>
  <g>
    <path class="cls-3" d="M96.54,219.85h-4.99v13.57h-9.24v-38.26h15.08c4.52,0,8.1,1.04,10.65,3.02s3.86,4.81,3.86,8.57c.09,2.26-.47,4.62-1.6,6.6-1.22,1.88-3.02,3.39-5.09,4.24l8.01,15.46v.38h-9.89l-6.79-13.57h0ZM91.55,212.79h5.84c1.79,0,3.11-.47,3.96-1.41.94-1.13,1.41-2.45,1.32-3.86.09-1.41-.38-2.83-1.32-3.86-.85-.94-2.26-1.41-3.96-1.41h-5.84v10.55h0ZM128.49,195.07l8.57,26.67,8.57-26.67h12.16v38.26h-9.24v-8.86l.85-18.28-9.24,27.23h-6.12l-9.24-27.33.85,18.28v8.95h-9.24v-38.26h12.06ZM185.22,222.68h-17.43l-3.96,10.74h-3.39l14.51-38.26h3.11l14.51,38.26h-3.39l-3.96-10.74ZM168.82,219.95h15.36l-7.63-20.83-7.73,20.83ZM216.6,224c.09-1.88-.75-3.86-2.26-5.09s-4.24-2.45-8.2-3.49c-3.96-1.13-6.88-2.26-8.67-3.68-2.45-1.6-3.96-4.34-3.86-7.35-.09-2.83,1.32-5.47,3.68-7.16,2.45-1.88,5.47-2.73,9.24-2.73,2.36-.09,4.71.47,6.79,1.51,1.88.85,3.58,2.26,4.71,4.05,1.13,1.79,1.7,3.77,1.7,5.84h-3.3c.09-2.45-.85-4.71-2.64-6.31s-4.24-2.36-7.26-2.36-5.28.66-7.07,1.98c-1.7,1.13-2.64,3.11-2.64,5.09-.09,1.88.85,3.68,2.36,4.81,1.51,1.23,4.05,2.26,7.54,3.3,2.64.66,5.37,1.7,7.82,2.92,1.6.85,3.02,2.07,4.05,3.68.85,1.51,1.41,3.2,1.32,4.99.09,2.83-1.32,5.65-3.68,7.26-2.45,1.88-5.65,2.83-9.61,2.83-2.54,0-5.09-.47-7.45-1.51-2.07-.85-3.86-2.26-5.09-4.05-1.23-1.79-1.79-3.86-1.79-6.03h3.3c-.09,2.45,1.04,4.81,3.02,6.41,2.07,1.51,4.71,2.36,8.01,2.36,3.02,0,5.37-.66,7.26-1.98,1.79-1.23,2.83-3.2,2.73-5.28h0ZM246.85,215.52h-17.9v17.9h-3.3v-38.26h23.75v2.73h-20.45v14.89h17.9v2.73h0ZM271.63,222.68h-17.43l-3.96,10.74h-3.39l14.51-38.26h3.11l14.51,38.26h-3.39l-3.96-10.74h0ZM255.24,219.95h15.36l-7.63-20.83-7.73,20.83h0ZM304.24,222.68h-17.43l-3.96,10.74h-3.39l14.51-38.26h3.11l14.51,38.26h-3.3l-4.05-10.74h0ZM287.84,219.95h15.36l-7.63-20.83-7.73,20.83Z"/>
    <path class="cls-2" d="M314.04,247.84H79.96v-9.71h234.08v9.71h0ZM95.23,243.6c0,.28-.09.47-.19.75-.09.19-.38.28-.57.19-.28.09-.47-.09-.66-.28-.09-.38-.19-.75-.19-1.13v-1.04c0-.28.09-.66.19-1.04.09-.19.38-.28.66-.28.19,0,.47.09.57.19.09.28.19.47.19.85h1.13c0-.47-.19-1.04-.47-1.41-.85-.66-2.07-.66-2.73.09-.38.47-.57,1.13-.47,1.7v.85c-.09.66.09,1.23.47,1.7.28.47.85.66,1.41.66.47.09,1.04-.09,1.32-.47.28-.38.47-.85.47-1.41l-1.13.09h0ZM100.88,242.28c0-.66-.09-1.23-.47-1.7-.75-.75-1.98-.85-2.83-.09l-.09.09c-.38.47-.57,1.13-.47,1.7v.94c-.09.57.09,1.23.47,1.7.75.75,2.07.85,2.83,0h0c.38-.47.57-1.13.47-1.7l.09-.94h0ZM99.75,243.22c0,.38-.09.66-.19,1.04-.09.19-.38.28-.66.28s-.47-.09-.66-.28c-.19-.28-.28-.66-.19-1.13v-.94c0-.38.09-.66.19-1.13.28-.38.66-.47,1.13-.19l.19.19c.19.28.28.66.19,1.13v1.04h0ZM111.06,243.88c.28,0,.47-.19.47-.47s-.19-.47-.47-.47-.47.19-.47.47h0c.09.28.28.47.47.47h0ZM123.97,245.48h1.32l-1.6-3.11,1.51-2.45h-1.32l-1.04,1.79-.28.57v-2.36h-1.13v5.47h1.13v-1.51l.47-.57.94,2.17h0ZM127.45,244.64c-.19,0-.47-.09-.57-.19-.09-.19-.19-.47-.19-.66h-1.13c0,.28.09.66.28.94.09.28.38.47.66.66.28.09.66.19.94.19.47,0,.85-.09,1.22-.38.28-.28.47-.66.47-1.13s-.09-.75-.38-1.13c-.28-.28-.66-.57-1.13-.66-.28-.09-.47-.19-.66-.38-.09-.09-.19-.28-.19-.38,0-.19.09-.28.19-.47.09-.09.28-.19.47-.19s.28.09.47.19c.09.19.19.38.19.57h1.13c0-.28-.09-.66-.19-.85-.09-.28-.28-.47-.57-.57s-.57-.19-.85-.19c-.47,0-.85.09-1.22.47-.28.28-.47.66-.47,1.13s.09.66.38,1.04c.28.28.75.57,1.22.66.28.09.47.19.66.38.09.09.19.28.19.47-.38.19-.66.47-.94.47h0ZM139.23,243.88c.28,0,.47-.19.47-.47v-.09c0-.28-.19-.47-.38-.47h-.09c-.28,0-.47.19-.47.47v.09c0,.28.19.47.47.47h0ZM149.6,239.92v5.47h1.13v-1.51l-.09-2.26,1.13,3.77h.75l1.13-3.77-.09,2.26v1.51h1.13v-5.47h-1.6l-1.04,3.96-1.04-3.96h-1.41,0ZM158.83,239.92h-3.86v.85h1.32v4.62h1.13v-4.52h1.32l.09-.94h0ZM168.63,243.88c.28,0,.47-.19.47-.47s-.19-.47-.47-.47-.47.19-.47.47h0c.09.28.28.47.47.47h0ZM182.77,239.92h-1.13v3.58l-1.6-3.58h-1.13v5.47h1.13v-3.58l1.6,3.58h1.13v-5.47ZM185.03,245.48c.57,0,1.13-.19,1.6-.66.38-.47.57-1.13.57-1.7v-.85c0-.57-.19-1.23-.57-1.7s-.94-.66-1.51-.66h-1.51v5.47l1.41.09h0ZM185.22,240.96c.28,0,.57.09.66.28.19.28.28.66.19,1.13v.94c0,.28-.09.66-.28,1.04-.19.19-.47.28-.75.28h-.28v-3.67h.47ZM197.47,243.88c.28,0,.47-.19.47-.47v-.09c0-.28-.19-.47-.47-.47s-.47.19-.47.47.09.57.47.57c-.09,0,0,0,0,0h0ZM211.61,239.92h-1.04v3.58l-1.6-3.58h-1.23v5.47h1.13v-3.58l1.6,3.58h1.13v-5.47h0ZM215.28,242.19h-1.7v-1.32h2.07v-.85h-3.11v5.47h3.11v-.85h-2.07v-1.51h1.7v-.94h0ZM225.65,243.88c.28,0,.47-.19.47-.47v-.09c0-.28-.09-.47-.38-.47h-.09c-.28,0-.47.28-.47.47,0,.38.19.57.47.57h0ZM237.71,244.64c-.19,0-.47-.09-.57-.19-.09-.19-.19-.47-.19-.66h-1.13c0,.28.09.66.28.94.09.28.38.47.66.66.28.09.66.19.94.19.47,0,.85-.09,1.23-.38.28-.28.47-.66.47-1.13s-.09-.75-.28-1.13c-.28-.28-.66-.57-1.13-.66-.28-.09-.47-.19-.66-.38-.09-.09-.19-.28-.19-.38,0-.19.09-.28.19-.47.09-.09.28-.19.47-.19s.38.09.47.19c.09.19.19.38.19.57h1.13c0-.28-.09-.66-.19-.85-.09-.28-.28-.47-.66-.57-.66-.28-1.51-.28-2.07.19-.28.28-.47.66-.47,1.13s.09.66.38,1.04c.28.28.66.57,1.13.66.28.09.47.19.66.38.09.09.19.28.19.47-.28.28-.47.57-.85.57h0ZM241.57,245.39c.57,0,1.13-.19,1.6-.66.38-.47.57-1.13.57-1.7v-.85c0-.66-.19-1.23-.57-1.7s-.94-.66-1.51-.66h-1.51v5.47h1.41v.09h0ZM241.57,240.87c.28,0,.57.09.66.28.19.28.28.66.19,1.13v.94c0,.28-.09.66-.28,1.04-.19.19-.47.28-.75.28h-.28v-3.67h.47ZM253.82,243.88c.28,0,.47-.19.47-.47s-.19-.47-.47-.47-.47.19-.47.47h0c.09.28.28.47.47.47h0ZM266.64,239.93v3.77c0,.19-.09.47-.09.66-.28.28-.75.28-1.13,0-.09-.19-.19-.47-.09-.66v-3.77h-1.13v3.77c-.09.47.09.94.47,1.32.75.57,1.89.57,2.64,0,.28-.28.47-.85.47-1.32v-3.77h-1.13ZM272.11,239.93h-3.77v.85h1.32v4.52h1.13v-4.52h1.32v-.85ZM281.9,243.88c.28,0,.47-.19.47-.47v-.09c0-.28-.19-.47-.38-.47h-.09c-.28,0-.47.19-.47.47v.09c.09.28.19.47.47.47h0ZM295.19,239.93h-.94l-.66,3.39-.47-3.39h-1.13l.94,5.47h1.13l.66-3.2.66,3.2h1.13l.94-5.47h-1.13l-.47,3.49-.66-3.49h0ZM298.87,239.93h-1.23l1.51,3.49v1.98h1.13v-1.98l1.51-3.49h-1.13l-.85,2.45-.94-2.45h0Z"/>
  </g>
  <g>
    <path class="cls-3" d="M147.52,105.51l-.29.73,2.49,1.03-.59,1.32-6.89-2.79.88-2.2c.15-.59.59-1.03,1.17-1.32s1.17-.29,1.76,0c.73.15,1.32.88,1.47,1.76l3.22-.15h.15l-.59,1.47-2.79.15h0ZM146.2,105.8l.29-.73c.15-.15.15-.44,0-.73-.15-.15-.44-.44-.59-.44-.73-.29-1.03-.15-1.32.44l-.29.73,1.9.73ZM150.89,97.89c.73.29,1.32,1.03,1.76,1.76.29.73.15,1.47-.15,2.05-.29.73-.88,1.17-1.76,1.32-.73.15-1.76,0-2.35-.44l-1.03-.59c-.73-.44-1.32-1.03-1.76-1.76-.29-.73-.15-1.47.15-2.05.29-.73.88-1.17,1.76-1.32.73-.15,1.76,0,2.35.44l1.03.59ZM149.13,98.62c-.44-.29-.88-.44-1.32-.44s-.73.15-.88.44-.15.73,0,1.03c.29.44.73.73,1.03.88l1.17.59c.44.29.88.44,1.32.44s.73-.15.73-.59c.15-.29.15-.73,0-1.03-.29-.44-.73-.73-1.03-.88l-1.03-.44ZM154.7,93.34c.59.44,1.03,1.03,1.17,1.76s-.15,1.32-.44,1.9c-.44.59-1.03,1.03-1.76,1.03s-1.76-.15-2.35-.73l-1.03-.73c-.73-.44-1.32-1.03-1.61-1.9-.15-.73,0-1.47.44-2.05.29-.59.88-1.03,1.61-1.03s1.32.15,2.05.44l-.88,1.17c-.29-.15-.59-.44-1.03-.44-.29,0-.59.15-.73.44s-.29.59-.15.88c.15.44.59.73,1.03,1.03l1.17.73c.44.29.88.59,1.32.59.29,0,.73-.15.73-.44.15-.15.29-.44.15-.73-.15-.29-.44-.59-.73-.73l1.03-1.17h0ZM156.17,91.15l.15.88,1.61,1.32-1.03,1.03-5.72-4.84,1.03-1.03,2.49,2.05-.29-.88-1.03-2.64,1.17-1.32,1.03,3.66,4.54,1.03-1.17,1.32-2.79-.59h0ZM159.1,86.16l-1.47-3.22,1.17-1.03,1.9,4.84,1.9,1.9-1.03,1.03-1.9-1.9-4.69-2.05,1.17-1.03,2.93,1.47h0ZM162.61,78.69l4.1,3.52-1.9-5.13,1.61-1.03,4.25,6.01-1.17.88-1.03-1.61-1.76-2.49,1.76,4.98-.73.59-4.1-3.22,1.9,2.49,1.17,1.61-1.17.88-4.4-6.3s1.47-1.17,1.47-1.17ZM174.49,76.64c.44.73.59,1.61.44,2.35-.15.73-.73,1.32-1.32,1.61-.59.44-1.32.44-2.05.15s-1.32-.88-1.76-1.76l-.59-1.03c-.44-.73-.59-1.47-.44-2.35.15-.73.73-1.32,1.32-1.76s1.32-.44,2.05-.15c.73.44,1.32,1.03,1.76,1.76l.59,1.17h0ZM172.58,76.34c-.15-.44-.44-.88-.88-1.17-.44-.29-1.17-.15-1.32.44-.15.15-.15.29-.15.44,0,.44.15,1.03.44,1.32l.59,1.17c.15.44.44.73.88,1.03.29.15.73.15,1.03,0s.44-.44.59-.73c0-.44-.15-.88-.44-1.32l-.73-1.17h0ZM178,70.63l1.9,4.84c.29.59.29,1.32.15,1.9-.29.59-.73,1.03-1.47,1.17-.59.29-1.32.29-1.9.15-.59-.29-1.03-.73-1.32-1.32l-1.9-4.69,1.32-.59,1.9,4.69c.15.29.29.59.44.73.44.15,1.03-.15,1.32-.44,0-.29,0-.59-.15-.88l-1.9-4.84,1.61-.73ZM186.21,76.05l-1.47.44-3.37-4.1,1.32,4.69-1.47.44-1.9-7.18,1.32-.44,3.37,4.1-1.32-4.69,1.32-.44,2.2,7.18h0ZM190.31,69.16l-1.76.29,1.03,6.01-1.47.15-1.03-6.01-1.76.29-.15-1.17,5.13-.88v1.32h0ZM194.41,73.56l-2.05.15-.29,1.47-1.61.15,1.76-7.47,1.32-.15,2.79,7.18-1.61.15-.29-1.47h0ZM192.66,72.39l1.32-.15-.88-2.64-.44,2.78ZM198.22,74.88h-1.47l.15-7.33h1.47l-.15,7.33ZM204.09,75.32l-1.47-.15-1.76-4.98-.44,4.84-1.47-.15.59-7.47,1.47.15,1.76,5.13.44-4.84,1.47.15s-.59,7.33-.59,7.33ZM210.24,75.03l-2.05-.44-.73,1.32-1.47-.44,3.96-6.6,1.32.29.44,7.77-1.61-.44.15-1.47h0ZM208.78,73.56l1.32.29v-2.78l-1.32,2.49h0ZM215.52,76.34c.15-.15.15-.44,0-.73s-.44-.44-.59-.73c-.59-.44-1.03-1.03-1.17-1.61-.15-.44-.15-1.03,0-1.32.15-.59.59-1.03,1.03-1.17,1.03-.29,2.05-.15,2.79.73.29.29.44.59.44,1.03s0,.73-.15,1.17l-1.32-.44c.15-.15.15-.44,0-.73-.15-.44-.73-.59-1.17-.44l-.44.44c-.15.15-.15.44,0,.59.15.29.44.59.73.73.44.44.88.88,1.17,1.32.15.44.15,1.03,0,1.47s-.59,1.03-1.03,1.17c-.59.15-1.17.15-1.76-.15-.44-.15-.73-.44-1.03-.73s-.44-.73-.44-1.03c-.15-.44,0-.88.15-1.32l1.32.44c-.15.29-.15.73-.15,1.03.15.29.44.44.73.59.29.29.59.29.88-.29h0ZM220.21,78.4c.15-.15.15-.44.15-.73-.15-.29-.29-.59-.59-.73-.44-.44-.73-1.03-1.03-1.61-.15-.44-.15-1.03.15-1.32.15-.44.73-.88,1.17-1.03.59-.15,1.17-.15,1.76.15.44.15.73.44,1.03.73.15.29.44.73.44,1.03s-.15.73-.29,1.17l-1.32-.73c.15-.15.15-.44.15-.73-.15-.15-.15-.44-.44-.44-.15-.15-.44-.15-.73,0-.15.15-.44.29-.44.44-.15.15-.15.44,0,.59.15.29.29.59.59.73.44.44.73,1.03,1.03,1.47.15.44.15,1.03-.15,1.47-.15.44-.73.88-1.17,1.03-.59.15-1.17.15-1.76-.15-.44-.15-.73-.44-1.03-.73s-.44-.73-.44-1.17c-.15-.44,0-.88.15-1.32l1.47.73c-.15.29-.15.59-.15.88.15.29.29.44.59.59.29.15.73.15,1.03-.15-.15.15-.15,0-.15-.15h0ZM227.09,81.18c-.44.73-1.03,1.32-1.76,1.61-.73.15-1.47.15-2.05-.29-.73-.44-1.03-1.03-1.32-1.76-.15-.73.15-1.61.59-2.35l.73-1.03c.44-.73,1.03-1.32,1.76-1.76.73-.15,1.47-.15,2.05.29.73.44,1.03,1.03,1.17,1.76.15.73-.15,1.76-.59,2.35l-.59,1.17h0ZM226.51,79.42c.29-.44.44-.88.44-1.32s-.15-.73-.44-.88c-.29-.15-.73-.15-1.03,0-.44.29-.73.59-1.03,1.03l-.73,1.03c-.29.44-.44.88-.44,1.32s.15.73.44.88c.29.15.73.15,1.03.15.44-.15.73-.59,1.03-1.03l.73-1.17h0ZM231.34,85.14c-.44.59-1.03.88-1.76,1.03s-1.32-.15-1.9-.59c-.59-.44-1.03-1.03-1.03-1.76,0-.88.29-1.76.88-2.35l.73-1.03c.44-.73,1.17-1.17,2.05-1.32.73-.15,1.47.15,2.05.44.59.44.88,1.03,1.03,1.76,0,.73-.15,1.32-.59,2.05l-1.32-1.03c.15-.29.44-.59.44-1.03,0-.29-.15-.59-.44-.73-.15-.15-.59-.29-.88-.15-.44.15-.73.44-1.03.88l-.73,1.17c-.44.44-.59.73-.73,1.32,0,.29.15.73.44.88.15.15.44.29.73.29.29-.15.59-.44.73-.73l1.32.88h0ZM231.2,88.36l-1.03-1.03,4.98-5.42,1.03,1.03-4.98,5.42ZM235.3,90.41l-1.32-1.47-1.32.73-1.17-1.03,6.89-3.37.88,1.03-3.81,6.74-1.03-1.32.88-1.32h0ZM235.01,88.36l.88,1.03,1.32-2.35-2.2,1.32ZM242.92,92.47l-1.03-1.32-4.84,3.81-.88-1.17,4.84-3.81-1.03-1.32,1.03-.73,3.22,3.96-1.32.59ZM239.26,97.89l-.73-1.32,6.15-4.1.73,1.32-6.15,4.1ZM244.83,101.4c-.73.44-1.47.59-2.35.44-.73-.15-1.32-.59-1.76-1.32-.44-.59-.44-1.32-.29-2.05.29-.73.88-1.32,1.76-1.76l1.03-.59c.73-.44,1.61-.73,2.35-.59,1.32.29,2.35,1.76,2.05,3.22,0,.1-.05.15-.15.15-.29.73-.88,1.32-1.76,1.76l-.88.73h0ZM245.12,99.5c.44-.15.88-.59,1.17-1.03s.15-1.17-.44-1.32c-.15-.15-.29-.15-.44-.15-.44,0-1.03.15-1.32.44l-1.17.59c-.44.15-.73.59-1.03,1.03-.15.29-.15.73,0,1.03s.44.44.73.44c.44,0,1.03-.15,1.32-.44l1.17-.59h0ZM244.39,108l-.59-1.32,3.52-3.81-4.4,1.9-.59-1.32,6.74-2.93.59,1.32-3.52,3.96,4.4-1.9.59,1.32-6.74,2.79h0ZM143.85,115.03c.59.15,1.17.29,1.61.73.73.88.44,2.05-.44,2.79h-.15c-.59.29-1.17.44-1.76.29h-.44c-.59-.15-1.17-.29-1.61-.73-.29-.44-.44-1.03-.44-1.47.15-.59.44-1.03.88-1.32.44-.29,1.17-.44,1.76-.15h.59v-.15h0ZM143.26,116.21c-.88-.15-1.32,0-1.32.44-.15.44.29.73,1.03.73l.44.15c.29.15.73.15,1.03,0,.15-.15.44-.15.44-.44,0-.15-.15-.44-.15-.44-.29-.15-.59-.29-.88-.29l-.59-.15h0ZM140.63,119.58l3.81.29.15-.59.88.15-.15.59h.44c.44,0,.88.15,1.17.44s.44.73.29,1.17c0,.15-.15.44-.15.59l-1.03-.15c0-.15.15-.15.15-.29,0-.44-.15-.59-.59-.59h-.44l-.15.73-.88-.15v-.73l-3.81-.29.29-1.17h0ZM141.21,127.64c.29,0,.44-.15.73-.29.15-.29.44-.44.44-.88.15-.59.44-1.17,1.03-1.61.44-.29.73-.44,1.32-.44s1.03.15,1.47.59c.44.44.59,1.03.59,1.76,0,.44-.15.73-.29,1.17-.15.44-.44.73-.73.73-.29.29-.73.44-1.17.44v-1.47c.29,0,.59-.15.73-.15.15-.15.29-.44.29-.59s-.15-.44-.15-.59c-.15-.15-.44-.15-.59-.15s-.44.15-.59.29c-.15.29-.44.59-.44.88-.15.59-.44,1.17-.88,1.61-.44.29-.88.44-1.32.44-.59,0-1.03-.15-1.47-.59-.44-.59-.73-1.17-.73-1.76,0-.44.15-.88.29-1.32.15-.44.44-.73.73-1.03.44-.15.73-.44,1.32-.44v1.47c-.29,0-.73.15-.88.29s-.29.44-.29.73c-.15.59,0,.88.59.88h0ZM146.05,134.38l-.15-1.76-6.01.73-.15-1.47,6.01-.73-.15-1.76,1.17-.15.73,5.13h-1.47,0ZM148.54,139.21l-4.98,1.32c-.59.15-1.32.15-1.9-.15-1.03-.88-1.32-2.35-.73-3.52.44-.44.88-.88,1.61-1.03l4.84-1.17.29,1.32-4.84,1.17c-.29,0-.59.15-.73.44s-.15.44-.15.73.15.44.44.73c.29.15.59.15.88,0l4.98-1.17.29,1.32h0ZM141.65,142.14l6.89-2.35.59,1.76c.29.73.29,1.47-.15,2.2s-1.03,1.17-1.9,1.47l-1.03.44c-.73.29-1.61.29-2.35,0s-1.32-1.03-1.47-1.76l-.59-1.76h0ZM147.95,141.56l-4.54,1.76.15.44c.15.44.44.73.73.88.44.15,1.03,0,1.32-.15l1.32-.44c.44-.15.88-.44,1.32-.73.15-.29.15-.73.15-1.03l-.44-.73h0ZM148.25,150.06l-1.03-2.05-1.76.73,1.17,2.49-1.03.44-1.76-3.81,6.6-3.08,1.76,3.81-1.03.44-1.17-2.49-1.61.73,1.03,2.05-1.17.73h0ZM148.83,157.24l-.73-1.32,2.93-4.4-4.1,2.49-.73-1.32,6.3-3.81.73,1.32-2.93,4.4,4.1-2.49.73,1.32-6.3,3.81ZM157.33,158.41l-1.03-1.32-4.84,3.66-.88-1.17,4.84-3.66-1.03-1.32,1.03-.73,3.08,4.1-1.17.44h0ZM159.09,164.86l-1.61-1.76-2.2,2.05-1.03-1.03,5.28-5.13,2.93,2.93-.88.88-1.76-1.76-1.32,1.32,1.61,1.76-1.03.73ZM158.94,168.96l-1.03-1.03,4.84-5.42,1.03,1.03-4.84,5.42ZM164.22,172.92l-1.17-.88,1.17-5.13-2.93,3.81-1.17-.88,4.4-5.86,1.17.88-1.17,5.13,2.93-3.81,1.17.88-4.4,5.86ZM169.2,174.24l-1.76-1.03-1.03,1.03-1.32-.73,5.72-5.13,1.17.73-1.76,7.47-1.32-.73.29-1.61h0ZM168.47,172.33l1.17.73.73-2.64-1.9,1.9ZM175.8,179.07l-1.32-.59v-5.28l-2.05,4.4-1.32-.59,2.93-6.74,1.32.59v5.28l2.05-4.4,1.32.59-2.93,6.74ZM182.83,178.78c-.15.73-.73,1.32-1.32,1.61s-1.32.29-2.05.15c-.73-.15-1.32-.73-1.61-1.32-.29-.73-.15-1.76.15-2.49l.44-1.17c.15-.73.73-1.47,1.32-2.05,1.32-.73,2.93-.15,3.52,1.03.29.73.29,1.32.15,2.05l-1.32-.44c.15-.44.15-.73.15-1.03-.15-.29-.44-.44-.73-.44-.29-.15-.73-.15-.88.15-.29.44-.44.73-.73,1.17l-.44,1.32c-.15.44-.29,1.03-.15,1.47.15.29.44.59.73.73s.59.15.88,0,.44-.59.59-.88l1.32.15h0ZM184.45,181.71l-1.47-.29,1.76-7.18,1.47.29-1.76,7.18ZM189.57,181.13l-2.05-.29-.59,1.32-1.61-.15,3.37-6.89,1.32.15,1.17,7.62-1.61-.15v-1.61ZM188.11,179.66l1.32.15-.29-2.64-1.03,2.49ZM193.82,181.71l2.64.15-.15,1.17-4.1-.15.29-7.33,1.47.15-.15,6.01ZM203.06,181.27l-2.05.15-.29,1.47-1.61.15,1.61-7.47,1.32-.15,2.93,7.18-1.61.15-.29-1.47h0ZM201.15,180.1l1.32-.15-.88-2.64-.44,2.79ZM207.45,182.15l-1.47.29-1.32-7.18,1.47-.29,1.32,7.18ZM208.77,181.86l-1.76-7.18,1.9-.44c.73-.15,1.61-.15,2.2.29.73.44,1.17,1.17,1.32,2.05l.29,1.17c.29.73.15,1.76-.15,2.35s-1.03,1.17-1.9,1.32l-1.9.44h0ZM208.77,175.56l1.17,4.84.44-.15c.44-.15.73-.29.88-.59.15-.44.15-.88,0-1.32l-.29-1.32c-.15-.44-.29-1.03-.59-1.32-.29-.15-.73-.29-1.03-.15h-.59ZM219.47,176.88l-1.9.73.15,1.61-1.47.59-.73-7.62,1.32-.44,4.98,6.01-1.47.59-.88-1.47h0ZM217.42,176.29l1.32-.44-1.76-2.2.44,2.64ZM222.7,177.02l-3.52-6.45,1.76-.88c.73-.44,1.47-.44,2.2-.29.73.29,1.32.88,1.76,1.61l.59,1.03c.44.73.59,1.61.44,2.35s-.73,1.32-1.32,1.76l-1.9.88h0ZM221.08,170.87l2.35,4.25.44-.15c.44-.15.59-.44.73-.88,0-.44-.15-.88-.44-1.32l-.59-1.03c-.15-.44-.59-.88-1.03-1.03s-.73-.15-1.03.15h-.44ZM225.48,166.77l4.25,3.52-2.05-5.13,1.47-1.17,4.4,6.01-1.17.88-1.17-1.61-1.76-2.64,1.76,4.98-.73.59-4.1-3.22,1.9,2.35,1.17,1.61-1.17.88-4.4-6.01,1.61-1.03h0ZM235.89,167.94l-1.03,1.03-4.84-5.42,1.03-1.03,4.84,5.42ZM240.43,163.39l-1.03,1.03-4.98-1.76,3.52,3.37-1.03,1.03-5.42-5.13,1.03-1.03,4.98,1.76-3.52-3.37,1.03-1.03,5.42,5.13ZM242.19,161.2l-.88,1.17-5.72-4.69.88-1.17,5.72,4.69ZM243.21,156.51c-.15-.15-.44-.15-.73-.15-.29.15-.59.15-.88.44-.44.44-1.03.59-1.76.73-.44.15-1.03-.15-1.32-.44-.44-.29-.73-.73-.88-1.32,0-.59.15-1.17.44-1.76.15-.44.59-.59.88-.73.44-.15.73-.29,1.03-.15.44,0,.73.15,1.03.44l-.73,1.17c-.15-.15-.44-.29-.73-.29-.44.15-.73.44-.73,1.03.15.15.15.44.44.44.15.15.44.15.59.15.29-.15.59-.15.88-.44.44-.44,1.03-.59,1.76-.73.44,0,1.03.15,1.47.44s.73.73.88,1.32-.15,1.17-.44,1.76c-.29.44-.59.73-1.03.88s-.73.29-1.17.29-.88-.15-1.32-.44l.73-1.17c.29.15.59.29.88.29.29-.15.59-.15.73-.44.29-.59.15-.88,0-1.32h0ZM243.21,148.15l-.88,1.61,5.42,2.93-.73,1.32-5.42-2.93-.88,1.61-1.03-.59,2.49-4.4,1.03.44ZM247.46,146.98l-.29.73,2.49,1.03-.59,1.47-6.74-2.93.88-2.2c.15-.59.59-1.03,1.17-1.32,1.32-.44,2.64.29,3.22,1.61,0,.1.05.2.15.29h3.37l-.73,1.32h-2.93ZM246,147.13l.29-.73c.15-.15.15-.44,0-.73-.15-.15-.44-.44-.59-.44-.73-.29-1.03-.15-1.32.44l-.29.73,1.9.73ZM250.98,140.68l-.59,2.05,1.32.73-.44,1.47-6.3-4.4.44-1.32,7.77-.15-.44,1.47h-1.76v.15h0ZM249.22,142l.44-1.32-2.64-.15,2.2,1.47ZM247.9,133.06l-.44,1.76,6.01,1.17-.29,1.47-6.01-1.17-.44,1.76-1.17-.29,1.03-4.98,1.32.29h0ZM251.57,127.93c.73,0,1.61.44,2.35.88.44.44.73,1.32.59,2.05,0,.73-.44,1.32-1.03,1.9-.73.44-1.47.59-2.35.44l-1.32-.15c-.88,0-1.76-.44-2.35-.88-.44-.44-.73-1.32-.73-2.05s.44-1.32,1.03-1.9c.73-.44,1.61-.59,2.35-.44l1.47.15ZM250.25,129.25c-.44-.15-1.03,0-1.47.15-.44.29-.73.88-.44,1.32.15.15.15.29.29.29.44.29.88.44,1.32.44l1.32.15c.44.15,1.03,0,1.47-.15.29-.15.44-.44.44-.73s-.15-.73-.44-.88c-.44-.29-.88-.44-1.32-.44h-1.17v-.15ZM251.86,124.56v.73h2.64v1.47l-7.33.15v-2.35c0-.59.15-1.32.59-1.76,1.03-.88,2.64-.73,3.52.15l.15.15,2.93-1.32h.15v1.61l-2.64,1.17h0ZM250.69,125.29v-.73c0-.29-.15-.44-.29-.73-.15-.15-.44-.15-.73-.15-.73,0-1.03.29-1.03.88v.88l2.05-.15h0ZM252.15,117.82c-.29,0-.44.15-.73.29l-.44.88c-.15.59-.44,1.17-.73,1.76-.29.44-.73.59-1.32.73s-1.17-.15-1.61-.44c-.44-.44-.73-1.03-.73-1.61-.15-.44,0-.73.15-1.17s.44-.73.73-.88.73-.44,1.17-.44l.15,1.47c-.29,0-.59.15-.73.29-.15.15-.15.44-.15.73,0,.15.15.44.29.59s.44.15.59.15.44-.15.44-.29l.44-.88c.15-.59.44-1.17.73-1.76.44-.44.88-.59,1.32-.73.59-.15,1.03.15,1.61.44.44.44.73,1.03.73,1.61.15.44,0,.88-.15,1.32s-.44.73-.73,1.03c-.44.29-.73.44-1.32.44l-.15-1.47c.29,0,.73-.15.88-.44.15-.15.29-.44.15-.73,0-.44-.29-.73-.59-.88q0,.1,0,0h0Z"/>
    <circle class="cls-4" cx="196.91" cy="125" r="44.85"/>
    <path class="cls-5" d="M240.29,129.1h-2.93c-14.22-.44-28.43.15-42.65,1.61-3.81.44-7.77.88-11.58,1.03-9.23.15-18.61-2.05-27.85-1.03h-1.76c.15.44.15,1.03.15,1.47h1.61l-1.03,1.03c-.1.1-.2.2-.29.29.15,1.03.44,1.9.73,2.93l1.32-1.32,2.93-2.93h2.05c-.59.73-1.32,1.47-1.9,2.2-1.32,1.61-2.64,3.22-3.81,4.54.29.88.59,1.9,1.03,2.79,1.32-1.9,3.22-3.96,4.69-5.72,1.61-1.76,2.64-2.93,3.22-3.81.73,0,1.47.15,2.2.15-.73,1.03-1.47,2.05-2.2,3.08-2.93,4.1-5.13,7.18-5.72,9.09-.15,0-.44.15-.73.15.44.88.88,1.76,1.32,2.49.44-.59.73-1.03,1.32-1.47.73-.15,1.32-.29,2.05-.29-.73,1.03-1.47,2.35-2.2,3.66.59.88,1.17,1.76,1.76,2.49,1.32-2.64,2.64-4.98,3.96-6.3.1-.1.2-.2.29-.29.44,0,1.03-.15,1.47-.15h.44c-1.61,2.35-3.08,5.72-4.25,9.09.73.73,1.32,1.61,2.2,2.35,1.61-4.84,3.52-9.53,5.72-11.58h1.76c-.15.29-.29.59-.44.88-1.9,3.37-3.37,8.35-4.4,13.04.73.73,1.61,1.32,2.35,1.9,1.32-6.01,3.52-12.9,5.72-15.54.59,0,1.17,0,1.76.15h.15c-.15.15-.15.44-.29.73-2.05,4.4-3.52,11.43-4.25,17,.73.44,1.76,1.03,2.64,1.47.73-6.3,2.64-15.24,4.98-18.9.73.15,1.47.15,2.2.15-2.2,5.28-3.22,14.36-3.52,20.37.88.44,1.76.73,2.64,1.03.29-5.72,1.47-15.83,3.52-20.52.15-.15.15-.44.29-.44.29,0,.59.15.88.15.44,0,1.03.15,1.47.15-1.9,6.01-2.35,16.12-2.35,21.98.88.15,1.76.44,2.64.44-.15-5.42.44-16.71,2.35-22.13v-.15c.44.15,1.03.15,1.32.15s.59.15,1.03.15h.15c-1.32,6.45-1.32,17-.88,22.42.88.15,1.76.15,2.64.15-.44-5.28-.44-16.56.88-22.28.73.15,1.32.15,2.05.15.15,0,.44,0,.73.15-.88,6.45-.15,16.41.44,21.84.88-.15,1.76-.15,2.64-.29-.73-5.57-1.32-15.83-.44-21.4.88.15,1.9.15,2.79.29-.29,6.01.59,14.95,1.32,20.37.88-.15,1.76-.44,2.64-.73-.73-5.57-1.47-14.07-1.32-19.49,1.03.15,1.9.15,2.93.15.15,5.42,1.17,12.75,2.05,18.03h0c.88-.29,1.76-.73,2.64-1.03-.88-5.28-1.76-12.16-1.9-16.71,1.03.15,1.9.15,2.93.15.44,4.4,1.32,9.97,2.35,14.8.73-.44,1.76-1.03,2.49-1.61-.88-4.54-1.76-9.38-2.05-13.04.44,0,1.03.15,1.47.15s.88.15,1.32.15c.44,2.79,1.17,6.3,2.2,10.7.73-.73,1.61-1.32,2.35-2.05-.73-3.66-1.32-6.45-1.76-8.5,1.03,0,1.9.15,2.93.15.44,1.76.88,3.81,1.32,5.86.73-.73,1.47-1.76,2.2-2.64-.29-1.17-.59-2.35-.73-3.37.88,0,1.76-.15,2.64-.15.15.15.15.44.15.73.44-.73,1.03-1.47,1.32-2.35-.15,0-.44.15-.59.15-.59-3.37-3.52-11.87-6.45-16.12h2.05c2.05,1.76,5.13,7.77,6.89,12.31.44-1.03,1.03-2.2,1.32-3.37-1.47-3.22-3.22-6.6-4.98-8.94h2.05c1.03,1.03,2.64,3.08,4.1,5.42.29-1.17.59-2.35.73-3.52-.44-.73-.88-1.32-1.32-1.76h1.76v-2.35h0ZM165.69,143.32c-1.32.15-2.79.29-4.1.44,1.03-2.05,3.22-4.84,4.84-7.18,1.47-2.05,2.35-3.22,2.93-4.25.73.15,1.32.15,2.05.15h.44c-.73,1.17-1.47,2.64-2.2,3.66-1.47,2.64-3.08,5.28-3.96,7.18h0ZM172.58,143.03c-1.32,0-2.64,0-3.96.15.73-1.61,2.05-3.66,3.08-5.42,1.32-2.2,2.2-3.66,2.79-4.84.88.15,1.76.15,2.64.15-.59,1.32-1.32,3.22-2.05,4.4-1.03,2.05-1.9,3.96-2.49,5.57h0ZM179.03,143.17c-1.32-.15-2.64-.15-3.81-.15.59-1.32,1.32-2.93,2.05-4.4,1.03-2.35,2.05-4.1,2.49-5.42.73,0,1.61.15,2.49.15h.44c-.44,1.76-1.32,3.96-1.9,5.57-.73,1.32-1.17,2.93-1.76,4.25ZM186.5,140.24c-.29,1.32-.73,2.49-.88,3.52-1.32-.15-2.64-.15-3.81-.29.44-1.03.88-2.49,1.32-3.66,1.03-2.79,1.76-4.84,2.2-6.45,1.03,0,2.05-.15,2.93-.15-.44,1.9-1.32,4.98-1.76,7.04ZM192.51,142c-.15.73-.29,1.76-.44,2.35-1.32-.15-2.64-.29-3.96-.44.15-.88.44-2.05.73-3.08,1.03-3.52,1.61-6.3,1.9-8.21.73-.15,1.61-.15,2.35-.29l.44-.15c.15,2.79-.73,7.47-1.03,9.82h0ZM198.67,144.35c0,.15,0,.44-.15.73-1.32-.15-2.64-.29-3.96-.44.15-.59.15-1.32.44-2.2.73-4.84,1.32-8.21,1.32-10.26.88-.15,1.9-.15,2.93-.29.15,1.9,0,6.15-.59,12.46ZM205.11,145.67c-1.32-.15-2.64-.15-3.96-.44,0-.15,0-.44.15-.73.59-6.45.73-10.55.44-13.04.88-.15,1.76-.15,2.64-.15.73,2.49,1.03,8.94.73,14.36h0ZM207.6,145.81c.15-2.93.29-10.4-.88-14.65.88-.15,1.76-.15,2.64-.15,1.32,2.35,2.35,10.4,2.49,15.1-1.47,0-2.79-.15-4.25-.29ZM214.35,146.4c-.15-2.2-.44-10.85-2.35-15.54.73,0,1.61-.15,2.35-.15,1.76,2.2,3.81,11.43,4.1,15.83-1.32,0-2.79-.15-4.1-.15h0ZM220.94,146.69c-.15-2.64-1.47-11.58-3.81-16.12.73,0,1.47,0,2.35-.15,2.05,2.2,5.28,12.16,5.72,16.41-1.47,0-2.93,0-4.25-.15h0ZM231.64,146.99c-1.32.15-2.64.15-3.96.15-.29-2.93-2.49-11.87-5.13-16.41h2.05c2.35,2.05,6.3,12.02,7.04,16.27h0Z"/>
    <path class="cls-1" d="M186.36,131.6c-1.03.15-2.05.15-3.22.15-9.38.15-18.61-2.05-27.85-1.03.44-.15,1.03-.15,1.61-.15l34-31.36-8.06,10.99h9.53l-13.78,11.87h15.24l-7.47,9.53h0ZM218.74,125.88h-7.18l6.01-3.66h-5.72l5.72-9.09-24.18,17.73c.44-.15,1.03-.15,1.32-.15,6.3-.73,12.6-1.03,18.9-1.32l5.13-3.52Z"/>
    <path class="cls-2" d="M155.43,130.72c.44-.15,1.03-.15,1.61-.15l34-31.36-8.06,10.99h9.53l-13.78,11.87h15.24l-7.62,9.67c2.35-.15,4.69-.44,6.89-.73l24.18-17.73-5.72,9.09h5.72l-6.01,3.66h7.18l-5.13,3.52c7.91-.44,15.83-.44,23.74-.15h.29l-19.2-19.2-6.01,3.52-20.81-19.35-37.52,36.64h1.47v-.29h0Z"/>
    <path class="cls-5" d="M196.91,171.02c-25.35,0-46.02-20.66-46.02-46.02s20.66-46.02,46.02-46.02,46.02,20.66,46.02,46.02-20.66,46.02-46.02,46.02ZM196.91,81.47c-24.04,0-43.53,19.49-43.53,43.53s19.49,43.53,43.53,43.53,43.53-19.49,43.53-43.53-19.49-43.53-43.53-43.53Z"/>
  </g>
</svg>