<svg id="Layer_1" data-name="Layer 1" xmlns="http://www.w3.org/2000/svg" width="165.166" height="63.357" viewBox="0 0 165.166 63.357">
  <defs>
    <style>
      .cls-1 {
        fill: #643f9e;
      }

      .cls-1, .cls-2 {
        stroke-width: 0px;
      }

      .cls-2 {
        fill: #656263;
      }
    </style>
  </defs>
  <path id="Shadow" class="cls-2" d="m40.978,5.848c-.238,0-.473.012-.706.03.041.116.187.159.317.159,4.514,0,8.453,3.274,9.413,7.803l-7.75,11.086c-.066.095-.061.21-.009.304.042-.006.085-.01.127-.016l7.899-11.319c-.777-4.566-4.646-8.047-9.29-8.047Zm47.674,30.293M17.528,3.429h-4.23v.232h3.798c3.239,0,5.591,2.351,5.591,5.591,0,.124.076.231.183.277.029-.233.049-.469.049-.709,0-3.123-2.267-5.391-5.391-5.391Zm5.174,25.87l-9.23-11.945v.496l9.026,11.681h4.765c.142,0,.255-.1.287-.232h-4.848Zm-14.486,0V.146c-.132.032-.276.145-.276.287v29.099h4.598c.142,0,.255-.1.287-.232h-4.609Zm67.2,0V10.121l-.232.33v18.78c0,.166.135.3.3.3.142,0,.255-.101.287-.232h-.355Zm-12.104-10.367l11.537-16.309c-.131-.066-.292-.033-.379.09l-11.158,15.773v.446Zm-4.679,10.367V10.196l-.232.333v19.003h2.538c.142,0,.255-.101.287-.232h-2.592Zm-.497-26.675c-.132-.067-.294-.034-.382.091l-4.375,6.268c-.087.124-.062.289.047.39l4.71-6.748Zm21.959,26.675h0s-4.679,0-4.679,0c0,0-.075.232.091.232h4.375c.142,0,.255-.101.287-.233h-.074Zm13.865-19.551l-.232.343v7.067h.232v-7.409Zm0,19.532v-8.032h-7.8s-.203.309-.203.309c.015.002.029.009.045.009h7.725v7.946h4.274c.142,0,.255-.101.287-.232h-4.329Zm-.571-26.619s0-.002-.002-.002c-.138-.094-.324-.06-.418.076l-12.875,18.636v.532l13.294-19.242Zm24.336,18.287V2.619c-.132.032-.319.145-.319.287v17.614l.319.428Zm.148,8.37l-12.746-19.038v.589l12.551,18.681h4.05c.142,0,.255-.1.287-.232h-4.141Zm-17.465,0V2.619c-.132.032-.363.145-.363.287v26.644h4.018c.142,0,.385-.1.417-.232h-4.072Zm44.207-20.134c-1.782-1.929-4.308-3.035-6.933-3.035-.24,0-.478.012-.714.03.041.117.15.203.281.203,2.68,0,5.26,1.13,7.08,3.099.059.064.14.097.221.097.073,0,.146-.026.204-.08.029-.027.05-.058.066-.091l-.205-.222Zm-21.173,6.546c-.134.03-.236.144-.236.288,0,7.744,6.3,14.045,14.044,14.045.143,0,.257-.102.288-.236-7.739-.078-14.017-6.357-14.095-14.096Zm32.902,2.64h8.389c.166,0,.3-.135.3-.3,0-.007-.003-.012-.004-.018h-8.685v.319Zm-.059-11.55h8.448c.166,0,.3-.135.3-.3,0-.006-.003-.012-.004-.018h-8.745v.319Zm-4.66,22.46V2.696c-.007,0-.012-.004-.019-.004-.166,0-.3.135-.3.3v26.606h13.34c.166,0,.3-.135.3-.3,0-.006-.003-.012-.004-.018h-13.318Zm-110.248,7.403h-4.23v.232h3.798c3.24,0,5.591,2.351,5.591,5.591,0,.124.076.231.183.277.029-.233.049-.469.049-.709,0-3.124-2.267-5.391-5.391-5.391Zm-9.312,25.87v-29.154c-.132.032-.232.145-.232.287v29.099h4.554c.142,0,.255-.1.287-.232h-4.609Zm14.486,0h-4.458l2.088-3.067-6.86-8.877v.622l6.424,8.326-2.183,3.229h9.03c.142,0,.255-.1.287-.232h-4.327Zm14.291-19.23l-.232.343v6.552c0,.051.016.097.038.139h.194v-7.034Zm0,19.23v-7.463h-7.957l-.157.232h7.882v7.463h4.363c.142,0,.255-.1.287-.232h-4.418Zm-.75-26.438c-.128-.051-.32-.014-.402.104l-12.97,19.052c-.081.118-.017.27.077.371l13.294-19.527Zm24.558,18.068v-18.329c-.132.032-.232.145-.232.287v17.701l.232.341Zm.148,8.369l-12.753-19.048-.002.521,12.56,18.76h4.05c.142,0,.255-.1.287-.232h-4.141Zm-17.595,0v-26.698c-.132.032-.276.145-.276.287v26.644h4.106c.142,0,.255-.1.287-.232h-4.117Zm31.893.457c-5.908,0-8.676-4.265-8.823-8.537-.138.03-.111.148-.108.294.046,2.141.809,4.228,2.094,5.725,1.547,1.803,3.804,2.751,6.539,2.751.085,0,.041,0,.127-.003.139-.003.249-.102.28-.231-.037,0-.074.001-.11.001Zm-3.07-13.138c.717.312,1.445.565,2.15.809,2.529.877,4.44,1.569,4.509,4.274.003.126-.002.231.11.272.027-.226.041-.458.035-.699-.066-2.566-2.005-3.239-4.461-4.09-.708-.246-1.441-.499-2.164-.814-2.564-1.116-5.192-2.791-5.335-6.716-.139.029-.07.148-.067.295.084,3.911,2.688,5.567,5.224,6.67Zm5.955-7.006l.029-.539c0-.011.049-1.273-.785-2.146-.558-.584-1.402-.881-2.506-.881l-.137.002c-.26.005-.49.036-.705.077.049.093.142.156.268.156,1.225-.029,2.197.241,2.819.881.913.939.814,2.343.814,2.357l-.016.323,4.048-.088c.138-.003.248-.101.28-.229l-4.108.089Zm20.134-3.722c-.24,0-.477.012-.713.03.041.117.15.202.28.202,5.313,0,9.636,4.458,9.636,9.937,0,.132.086.241.204.281.017-.236.028-.473.028-.714,0-5.369-4.233-9.736-9.436-9.736Zm-14.24,9.882c-.134.031-.236.144-.236.288,0,7.744,6.3,14.045,14.044,14.045.143,0,.257-.102.288-.236-7.739-.078-14.017-6.357-14.095-14.096Zm53.073,13.528v-19.622l-.276.627v19.227h4.062c.142,0,.255-.1.287-.232h-4.073Zm-9.231-8.037l7.558-18.643c-.006-.003-.01-.008-.016-.011-.155-.062-.329.012-.392.165l-7.319,18.053.169.435Zm-1.44,8.037l-7.811-19.622v.978l7.514,18.876h2.384c.142,0,.255-.1.287-.232h-2.374Zm-12.531,0v-26.622c-.007,0-.012-.004-.019-.004-.166,0-.3.135-.3.3v26.645h4.018c.166,0,.3-.135.3-.3,0-.007-.004-.012-.004-.019h-3.996ZM26.737,15.73c-.134.03-.192.101-.192.244,0,7.744,6.3,14.045,14.044,14.045.143,0,.214-.059.244-.192-7.739-.078-14.017-6.357-14.096-14.096Z"/>
  <path id="Block" class="cls-1" d="m5.753,46.693h2.754c.456-1.92.972-3.349,1.557-4.286.584-.938,1.346-1.678,2.281-2.22.938-.542,1.821-.813,2.653-.813.466,0,.821.092,1.059.277.238.183.356.403.356.656,0,.232-.079.423-.242.576-.16.155-.372.231-.634.231-.27,0-.778-.081-1.523-.244-.371-.074-.661-.114-.867-.114-.508,0-.967.313-1.373.941-.408.625-.738,1.473-.983,2.54l-.579,2.455h2.621l-.185.819h-2.66l-1.805,7.354c-.561,2.236-1.457,3.931-2.693,5.083-1.234,1.152-2.572,1.729-4.016,1.729-.486,0-.852-.094-1.102-.283-.249-.189-.375-.421-.375-.697,0-.24.087-.429.26-.57.172-.142.42-.214.744-.214.162,0,.399.018.715.057.539.07,1.053.104,1.543.104.761,0,1.314-.18,1.66-.536.348-.357.693-1.232,1.037-2.623l2.341-9.405h-2.755l.208-.819Zm11.159-.749c.752,0,1.378.3,1.879.898.499.6.748,1.435.748,2.503,0,1.705-.598,3.236-1.797,4.592-1.199,1.357-2.466,2.035-3.803,2.035-.824,0-1.487-.268-1.991-.807-.503-.537-.754-1.27-.754-2.202,0-1.613.463-3.105,1.384-4.473,1.161-1.697,2.606-2.547,4.334-2.547Zm-.98.864c-.653,0-1.285.466-1.898,1.401-.609.934-.917,2.224-.917,3.866,0,.999.189,1.789.566,2.364.276.423.647.634,1.107.634.645,0,1.234-.399,1.762-1.197.678-1.037,1.016-2.325,1.016-3.861,0-1.154-.157-1.976-.466-2.468-.311-.491-.702-.737-1.17-.737Zm6.205,8.83h-1.717l.807-3.101c.392-1.521.734-2.966,1.025-4.335.07-.336.104-.548.104-.633,0-.185-.084-.277-.253-.277-.114,0-.293.08-.529.236-.239.158-.67.548-1.291,1.17l-.36-.404c.741-.789,1.476-1.384,2.209-1.78.734-.396,1.295-.594,1.686-.594.14,0,.249.032.329.099.08.066.122.147.122.247,0,.101-.052.366-.154.8l-.499,2.073c.777-1.226,1.655-2.277,2.632-3.148.47-.416.863-.625,1.179-.625.229,0,.421.076.576.225.154.151.232.325.232.525,0,.208-.077.385-.225.531-.151.146-.525.319-1.124.519-.567.192-1.033.421-1.388.691-.355.269-.748.681-1.175,1.234-.426.552-.724,1.036-.892,1.446-.169.411-.428,1.365-.773,2.863l-.52,2.237Zm119.827,6.414h-3.718v-26.345h5.647l7.812,20.167,8.176-20.167h5.284v26.345h-3.718v-21.733l-8.652,21.733h-2.181l-8.652-21.733v21.733Zm-19.85-23.409c-5.488,0-9.936,4.583-9.936,10.237s4.449,10.237,9.936,10.237,9.936-4.583,9.936-10.237-4.449-10.237-9.936-10.237Zm13.744,10.237c0,7.591-6.154,13.744-13.744,13.744s-13.743-6.154-13.743-13.744,6.153-13.744,13.743-13.744c3.683,0,7.027,1.448,9.493,3.806,2.619,2.502,4.251,6.03,4.251,9.938Zm-29.624-6.608c-.095-4.452-3.696-7.101-7.512-7.02-3.817.082-7.466,2.595-7.362,7.511.079,3.688,2.439,5.268,5.043,6.401,3.24,1.409,6.831,1.625,6.927,5.35.148,5.814-8.513,6.418-8.656-.27q-2.544.054-3.906.084c.08,3.725,2.45,8.31,8.584,8.179,6.132-.131,7.757-4.893,7.681-8.436-.097-4.534-3.005-6.249-5.903-7.242-2.91-.998-5.809-1.271-5.883-4.684-.036-1.694.907-3.292,3.324-3.344,4.134-.088,3.939,3.553,3.939,3.553l3.725-.081Zm-34.684-.405l13.514,20.185h4.02v-26.343h-3.935v20.1l-13.685-20.1h-3.762v26.343h3.847v-20.185Zm-6.146-6.21v26.395h-4.063v-7.463h-8.724l-2.742,4.055-.527.683,2.065,2.725h-8.375l1.76-2.585-7.98-10.326v12.911h-4.254v-28.799h7.19c1.941,0,2.371.017,2.371.017,4.908,0,8.886,3.979,8.886,8.887,0,4.601-3.496,8.385-7.978,8.84l3.967,5.234,14.007-20.574h4.395Zm-23.425,12.277c2.971,0,5.289-2.811,5.289-5.86,0-3.254-2.318-5.892-5.891-5.892h-4.731v11.752h5.334Zm19.363-6.245l-6.201,9.17h6.201v-9.17ZM165.166,2.474h-13.04v26.305h13.04v-3.558h-9.322v-7.671h9.322v-3.423h-9.382V6.001h9.382v-3.527Zm-18.953,18.313c-1.735,2.897-4.906,4.735-8.53,4.735-5.488,0-9.936-4.449-9.936-9.936s4.449-9.937,9.936-9.937c2.886,0,5.485,1.231,7.3,3.196l2.193-3.198c-2.467-2.358-5.811-3.806-9.493-3.806-7.59,0-13.743,6.153-13.743,13.744s6.153,13.744,13.743,13.744c5.693,0,10.577-3.61,12.664-8.543h-4.134Zm-41.586-12.154l13.514,20.185h4.02V2.474h-3.935v20.1l-13.685-20.1h-3.632v26.343h3.717V8.632Zm-6.191-6.158v26.305h-3.974v-8.032h-8.571s-5.271,8.051-5.271,8.051h-1.025s-3.677,0-3.677,0V8.538l-14.243,20.26h-2.541V8.605l-4.428,6.338c.01.213.017.427.017.642,0,6.157-4.049,11.368-9.629,13.117l-.336.097c-1.201.343-2.468.53-3.779.53-7.59,0-13.743-6.153-13.743-13.744S33.388,1.841,40.978,1.841c3.683,0,7.027,1.448,9.493,3.806,1.3,1.242,2.356,2.737,3.091,4.406l5.303-7.599h3.946v18.054l12.771-18.054h4.012v21.055l14.533-21.035h4.308Zm-47.509,13.111c0-2.759-1.068-5.265-2.799-7.108-.013-.014-.025-.028-.039-.041-.182-.192-.372-.376-.568-.552-.03-.027-.06-.054-.091-.081-.19-.167-.385-.326-.586-.478-.038-.029-.076-.056-.115-.084-.203-.148-.41-.291-.623-.423-.034-.021-.069-.041-.104-.061-.206-.125-.417-.243-.632-.352-.027-.014-.053-.029-.081-.043-.227-.113-.459-.214-.694-.309-.047-.019-.092-.039-.139-.057-.231-.089-.466-.168-.705-.239-.052-.016-.104-.031-.156-.046-.241-.068-.486-.127-.735-.176-.048-.01-.096-.018-.145-.027-.257-.047-.518-.085-.782-.111-.034-.003-.068-.005-.101-.008-.282-.025-.566-.04-.853-.04-2.402,0-4.605.878-6.323,2.34-2.213,1.879-3.625,4.722-3.625,7.897s1.413,6.019,3.626,7.898c1.718,1.461,3.92,2.339,6.322,2.339.271,0,.538-.014.803-.036.026-.002.051-.004.077-.006.269-.024.535-.06.797-.106.002,0,.003,0,.005,0h0c4.686-.825,8.266-5.034,8.266-10.088Zm43.536-7.468l-6.465,9.542h6.465v-9.542Zm-51.385,16.959c4.198-.987,7.34-4.866,7.34-9.49,0-.324-.016-.643-.046-.959l-7.294,10.45ZM17.528,2.928c3.573,0,5.891,2.637,5.891,5.891,0,3.05-2.318,5.861-5.289,5.861h-5.334V2.928h4.731Zm9.636,5.975C27.164,3.996,23.186.016,18.278.016c0,0-.43-.016-2.371-.016h-7.19v28.799h4.254v-12.911l9.977,12.911h4.618l-8.379-11.055c4.481-.455,7.977-4.24,7.977-8.84Z"/>
</svg>