<?xml version="1.0" encoding="UTF-8"?>
<svg id="Layer_1" data-name="Layer 1" xmlns="http://www.w3.org/2000/svg" width="282.003" height="82.452" viewBox="0 0 282.003 82.452">
  <defs>
    <style>
      .cls-1 {
        fill: #3b8787;
        stroke-width: 0px;
      }
    </style>
  </defs>
  <path class="cls-1" d="m195.32,51.903v2.894c1.273-2.623,2.353-3.434,4.668-3.434,2.586,0,3.935,1.158,4.553,3.859,1.08-2.701,2.586-3.859,5.016-3.859,1.89,0,3.511.85,4.283,2.277.541,1.003.733,2.392.733,5.556v11.73h-2.816v-11.575c0-2.431-.078-3.319-.425-4.09-.463-1.042-1.274-1.543-2.47-1.543-2.43,0-3.819,2.16-3.819,5.98v11.228h-2.817v-11.228c-.038-3.28-.038-3.318-.232-4.013-.385-1.312-1.311-1.967-2.739-1.967-1.466,0-2.585.771-3.241,2.353-.424,1.003-.502,1.621-.502,3.82v11.035h-2.816v-19.023h2.624Zm-16.667,9.493c0,5.093,1.429,7.716,4.167,7.716s4.167-2.623,4.167-7.716c0-4.978-1.427-7.678-4.128-7.678-2.777,0-4.206,2.623-4.206,7.678m8.759-8.373c1.813,1.698,2.701,4.475,2.701,8.411,0,6.521-2.585,10.032-7.332,10.032-4.629,0-7.253-3.588-7.253-9.994,0-6.559,2.585-10.109,7.331-10.109,1.775,0,3.396.58,4.553,1.66m-16.589,5.363c-.309-1.891-.501-2.624-.849-3.279-.578-.927-1.427-1.389-2.662-1.389-2.817,0-3.897,2.314-3.897,8.333,0,4.862,1.234,7.061,3.974,7.061,1.351,0,2.315-.656,2.855-1.89.27-.618.425-1.351.579-2.74l2.855.348c-.386,2.507-.771,3.549-1.62,4.629-.965,1.274-2.778,2.007-4.9,2.007-4.476,0-6.868-3.434-6.868-9.916,0-6.675,2.43-10.187,7.099-10.187,1.929,0,3.473.618,4.438,1.775.925,1.119,1.349,2.161,1.851,4.669l-2.855.579Zm-13.427,12.54h-3.51v-4.167h3.51v4.167Zm-16.048-7.91c0,2.084.039,2.547.347,3.319.347.848,1.003,1.311,1.892,1.311,1.735,0,2.391-1.659,2.391-6.212,0-4.592-.617-6.289-2.315-6.289-.848,0-1.621.462-1.968,1.235-.27.578-.347.964-.347,2.237v4.399Zm0-17.826v8.488c1.234-1.504,2.315-2.045,3.974-2.045,3.82,0,6.135,3.628,6.135,9.647,0,6.444-2.431,10.032-6.791,10.032-2.16,0-3.434-.811-4.399-2.856-.424.811-.617,1.313-1.003,2.47h-3.125v-25.736h5.209Zm-12.421,14.045c0-1.467-.117-2.239-.387-2.855-.386-.849-1.158-1.351-2.083-1.351-1.659,0-2.393,1.235-2.469,4.206h4.939Zm-4.978,3.048v1.003c0,3.049.733,4.322,2.546,4.322,1.621,0,2.432-.927,2.701-3.242l4.746.309c-.463,2.199-.965,3.241-2.006,4.437-1.35,1.505-3.164,2.2-5.556,2.2-5.016,0-7.911-3.512-7.911-9.647,0-6.366,2.934-10.146,7.911-10.146,2.662,0,5.016,1.311,6.173,3.472,1.081,2.005,1.351,3.588,1.389,7.292h-9.993Zm-27.39-17.093l2.7,17.826,3.357-17.826h5.171l3.164,17.865,3.164-17.865h4.744l-5.517,25.851h-5.055l-3.433-17.864-3.51,17.864h-4.979l-5.593-25.851h5.787Zm181.084-18.21c-.617-1.853-1.428-2.585-2.778-2.585-1.003,0-1.659.656-1.659,1.659,0,1.234.54,1.659,3.164,2.585,2.431.849,2.971,1.119,3.858,1.853,1.157.964,1.775,2.353,1.775,3.974,0,3.704-2.932,6.211-7.216,6.211-2.237,0-4.166-.656-5.401-1.813-1.003-.926-1.428-1.929-1.736-3.82l4.205-.694c.425,1.929,1.389,2.816,3.048,2.816,1.312,0,2.083-.656,2.083-1.775,0-1.235-.54-1.697-3.047-2.469-4.013-1.312-5.71-3.087-5.71-5.98,0-3.589,2.778-6.058,6.752-6.058,1.813,0,3.396.579,4.552,1.659.965.887,1.428,1.659,1.891,3.28l-3.781,1.157Zm-17.09,2.277c0-1.969-.077-2.393-.463-3.474-.27-.77-1.004-1.273-1.852-1.273-1.659,0-2.315,1.544-2.315,5.364,0,2.893.039,3.626.231,4.668.27,1.543.926,2.315,2.045,2.315,1.66,0,2.354-1.273,2.354-4.244v-3.356Zm5.209-14.702v25.736h-4.9v-3.163c-1.003,2.547-2.123,3.434-4.36,3.434-3.859,0-6.059-3.55-6.059-9.762s2.315-9.801,6.29-9.801c1.853,0,2.893.58,3.82,2.045v-8.489h5.209Zm-27.083,6.714v2.585c.965-2.161,2.277-2.97,4.785-2.97,2.007,0,3.434.733,4.244,2.16.541.964.694,1.929.694,4.785v12.462h-5.284v-12.462c0-2.2-.426-2.816-1.853-2.816-1.157,0-1.852.462-2.161,1.427-.154.502-.193,1.157-.193,2.701v11.15h-5.286v-19.022h5.054Zm-13.501,9.917c-3.241.385-4.321,1.273-4.321,3.588,0,1.543.656,2.392,1.775,2.392.695,0,1.311-.386,1.813-1.197.541-.848.733-1.851.733-3.858v-.925Zm-9.144-4.36c.578-3.859,3.279-5.942,7.678-5.942,2.43,0,4.399.733,5.594,2.044.926.965,1.197,2.315,1.197,5.557v7.562c0,2.662.038,3.434.308,4.244h-4.939c-.231-.81-.27-1.157-.27-2.315v-.578c-.616,1.041-.925,1.466-1.427,1.929-.965.848-2.316,1.35-3.782,1.35-3.086,0-5.015-1.968-5.015-5.209,0-2.777,1.311-4.9,3.626-5.787,1.659-.656,3.666-1.042,6.174-1.196v-.733c0-2.585-.425-3.357-1.89-3.357-1.429,0-2.046.81-2.239,2.893l-5.015-.462Zm-3.202,13.465h-5.287V14.555h5.287v25.736Zm-11.536-13.311c-.617-1.853-1.427-2.585-2.777-2.585-1.003,0-1.659.656-1.659,1.659,0,1.234.539,1.659,3.163,2.585,2.431.849,2.972,1.119,3.859,1.853,1.157.964,1.774,2.353,1.774,3.974,0,3.704-2.931,6.211-7.215,6.211-2.237,0-4.167-.656-5.401-1.813-1.003-.926-1.427-1.929-1.737-3.82l4.206-.694c.424,1.929,1.389,2.816,3.048,2.816,1.312,0,2.083-.656,2.083-1.775,0-1.235-.54-1.697-3.048-2.469-4.012-1.312-5.71-3.087-5.71-5.98,0-3.589,2.778-6.058,6.753-6.058,1.813,0,3.395.579,4.552,1.659.965.887,1.427,1.659,1.891,3.28l-3.782,1.157Zm-12.382,13.311h-5.633V14.555h5.633v25.736Zm-25.113-19.022v2.585c.964-2.161,2.277-2.97,4.784-2.97,2.007,0,3.434.733,4.244,2.16.541.964.695,1.929.695,4.785v12.462h-5.285v-12.462c0-2.2-.426-2.816-1.853-2.816-1.157,0-1.851.462-2.161,1.427-.154.502-.193,1.157-.193,2.701v11.15h-5.286v-19.022h5.055Zm-12.384,7.332c0-1.467-.116-2.239-.386-2.856-.386-.848-1.159-1.35-2.084-1.35-1.659,0-2.393,1.234-2.469,4.206h4.939Zm-4.979,3.048v1.002c0,3.049.734,4.322,2.547,4.322,1.621,0,2.432-.926,2.702-3.241l4.745.308c-.463,2.2-.965,3.242-2.005,4.438-1.351,1.505-3.165,2.199-5.557,2.199-5.015,0-7.911-3.511-7.911-9.646,0-6.366,2.934-10.147,7.911-10.147,2.661,0,5.016,1.311,6.173,3.472,1.08,2.006,1.351,3.588,1.389,7.293h-9.994Zm-14.889-10.38l2.623,11.228,2.664-11.228h4.398l-5.209,19.022h-4.206l-5.363-19.022h5.093Zm-9.876,7.332c0-1.467-.115-2.239-.385-2.856-.387-.848-1.158-1.35-2.084-1.35-1.659,0-2.393,1.234-2.469,4.206h4.938Zm-4.978,3.048v1.002c0,3.049.734,4.322,2.547,4.322,1.621,0,2.431-.926,2.702-3.241l4.745.308c-.462,2.2-.965,3.242-2.006,4.438-1.351,1.505-3.163,2.199-5.556,2.199-5.016,0-7.911-3.511-7.911-9.646,0-6.366,2.934-10.147,7.911-10.147,2.662,0,5.016,1.311,6.173,3.472,1.08,2.006,1.35,3.588,1.389,7.293h-9.994Zm-12.266-9.685c-.694-2.238-1.813-3.203-3.626-3.203-1.582,0-2.701.965-2.701,2.354,0,1.466.733,2.045,4.437,3.434,2.508.965,3.433,1.428,4.553,2.353,1.659,1.351,2.546,3.242,2.546,5.557,0,4.939-3.666,8.218-9.105,8.218-4.746,0-7.64-2.277-8.952-7.061l4.939-1.389c.733,2.701,1.968,3.858,4.129,3.858,1.967,0,3.28-1.118,3.28-2.777,0-1.467-.889-2.277-3.55-3.242-3.242-1.157-4.09-1.581-5.363-2.624-1.545-1.35-2.393-3.202-2.393-5.401,0-4.707,3.28-7.871,8.257-7.871,2.276,0,4.244.617,5.71,1.814,1.235.964,1.852,2.005,2.546,4.166l-4.707,1.814ZM49.15.775c-9.679-1.895-19.227-.231-27.299,4.076,11.25-1.356,40.838-3.271,50.285,13.834,9.289,16.818-35.007,23.098-34.298,63.623,20.67,1.733,39.769-12.33,43.847-33.158C86.059,26.807,71.492,5.149,49.15.775m9.923,20.163c2.277-11.634-36.343-15.518-46.941-8.741l-.128-.04C6.436,17.744,2.405,24.986.775,33.309c-2.963,15.136,2.773,29.95,13.723,39.296,8.348-35.927,42.297-40.034,44.575-51.667"/>
</svg>