<?xml version="1.0" encoding="UTF-8"?>
<svg id="Layer_2" data-name="Layer 2" xmlns="http://www.w3.org/2000/svg" width="394" height="340" viewBox="0 0 394 340">
  <defs>
    <style>
      .cls-1 {
        fill: #3b8787;
      }

      .cls-1, .cls-2 {
        stroke-width: 0px;
      }

      .cls-2 {
        fill: #fff;
      }
    </style>
  </defs>
  <g id="Layer_1-2" data-name="Layer 1">
    <g>
      <rect class="cls-2" width="394" height="340"/>
      <path class="cls-1" d="m260.673,168.965v3.473c1.528-3.148,2.824-4.121,5.602-4.121,3.103,0,4.722,1.39,5.464,4.631,1.296-3.241,3.103-4.631,6.019-4.631,2.268,0,4.213,1.02,5.14,2.732.649,1.204.88,2.87.88,6.667v14.076h-3.379v-13.89c0-2.917-.094-3.983-.51-4.908-.556-1.25-1.529-1.852-2.964-1.852-2.916,0-4.583,2.592-4.583,7.176v13.474h-3.38v-13.474c-.046-3.936-.046-3.982-.278-4.816-.462-1.574-1.573-2.36-3.287-2.36-1.759,0-3.102.925-3.889,2.824-.509,1.204-.602,1.945-.602,4.584v13.242h-3.379v-22.828h3.149,0Zm-20,11.392c0,6.112,1.715,9.259,5,9.259s5-3.148,5-9.259c0-5.974-1.712-9.214-4.954-9.214-3.332,0-5.047,3.148-5.047,9.214m10.511-10.048c2.176,2.038,3.241,5.37,3.241,10.093,0,7.825-3.102,12.038-8.798,12.038-5.555,0-8.704-4.306-8.704-11.993,0-7.871,3.102-12.131,8.797-12.131,2.13,0,4.075.696,5.464,1.992m-19.907,6.436c-.371-2.269-.601-3.149-1.019-3.935-.694-1.112-1.712-1.667-3.194-1.667-3.38,0-4.676,2.777-4.676,10,0,5.834,1.481,8.473,4.769,8.473,1.621,0,2.778-.787,3.426-2.268.324-.742.51-1.621.695-3.288l3.426.418c-.463,3.008-.925,4.259-1.944,5.555-1.158,1.529-3.334,2.408-5.88,2.408-5.371,0-8.242-4.121-8.242-11.899,0-8.01,2.916-12.224,8.519-12.224,2.315,0,4.168.742,5.326,2.13,1.11,1.343,1.619,2.593,2.221,5.603,0,0-3.426.695-3.426.695Zm-16.112,15.048h-4.212v-5h4.212v5Zm-19.258-9.492c0,2.501.047,3.056.416,3.983.416,1.018,1.204,1.573,2.27,1.573,2.082,0,2.869-1.991,2.869-7.454,0-5.51-.74-7.547-2.778-7.547-1.018,0-1.945.554-2.362,1.482-.324.694-.416,1.157-.416,2.684v5.279Zm0-21.391v10.186c1.481-1.805,2.778-2.454,4.769-2.454,4.584,0,7.362,4.354,7.362,11.576,0,7.733-2.917,12.038-8.149,12.038-2.592,0-4.121-.973-5.279-3.427-.509.973-.74,1.576-1.204,2.964h-3.75v-30.883h6.251Zm-14.905,16.854c0-1.76-.14-2.687-.464-3.426-.463-1.019-1.39-1.621-2.5-1.621-1.991,0-2.872,1.482-2.963,5.047h5.927Zm-5.974,3.658v1.204c0,3.659.88,5.186,3.055,5.186,1.945,0,2.918-1.112,3.241-3.89l5.695.371c-.556,2.639-1.158,3.889-2.407,5.324-1.62,1.806-3.797,2.64-6.667,2.64-6.019,0-9.493-4.214-9.493-11.576,0-7.639,3.521-12.175,9.493-12.175,3.194,0,6.019,1.573,7.408,4.166,1.297,2.406,1.621,4.306,1.667,8.75h-11.992Zm-32.868-20.512l3.24,21.391,4.028-21.391h6.205l3.797,21.438,3.797-21.438h5.693l-6.62,31.021h-6.066l-4.12-21.437-4.212,21.437h-5.975l-6.712-31.021h6.944Zm217.301-21.852c-.74-2.224-1.714-3.102-3.334-3.102-1.204,0-1.991.787-1.991,1.991,0,1.481.648,1.991,3.797,3.102,2.917,1.019,3.565,1.343,4.63,2.224,1.388,1.157,2.13,2.824,2.13,4.769,0,4.445-3.518,7.453-8.659,7.453-2.684,0-4.999-.787-6.481-2.176-1.204-1.111-1.714-2.315-2.083-4.584l5.046-.833c.51,2.315,1.667,3.379,3.658,3.379,1.574,0,2.5-.787,2.5-2.13,0-1.482-.648-2.036-3.656-2.963-4.816-1.574-6.852-3.704-6.852-7.176,0-4.307,3.334-7.27,8.102-7.27,2.176,0,4.075.695,5.462,1.991,1.158,1.064,1.714,1.991,2.269,3.936,0,0-4.537,1.388-4.537,1.388Zm-20.508,2.732c0-2.363-.092-2.872-.556-4.169-.324-.924-1.205-1.528-2.222-1.528-1.991,0-2.778,1.853-2.778,6.437,0,3.472.047,4.351.277,5.602.324,1.852,1.111,2.778,2.454,2.778,1.992,0,2.825-1.528,2.825-5.093v-4.027Zm6.251-17.642v30.883h-5.88v-3.796c-1.204,3.056-2.548,4.121-5.232,4.121-4.631,0-7.271-4.26-7.271-11.714s2.778-11.761,7.548-11.761c2.224,0,3.472.696,4.584,2.454v-10.187h6.251,0Zm-32.5,8.057v3.102c1.158-2.593,2.732-3.564,5.742-3.564,2.408,0,4.121.88,5.093,2.592.649,1.157.833,2.315.833,5.742v14.954h-6.341v-14.954c0-2.64-.511-3.379-2.224-3.379-1.388,0-2.222.554-2.593,1.712-.185.602-.232,1.388-.232,3.241v13.38h-6.343v-22.826h6.065,0Zm-16.201,11.9c-3.889.462-5.185,1.528-5.185,4.306,0,1.852.787,2.87,2.13,2.87.834,0,1.573-.463,2.176-1.436.649-1.018.88-2.221.88-4.63v-1.11Zm-10.973-5.232c.694-4.631,3.935-7.13,9.214-7.13,2.916,0,5.279.88,6.713,2.453,1.111,1.158,1.436,2.778,1.436,6.668v9.074c0,3.194.046,4.121.37,5.093h-5.927c-.277-.972-.324-1.388-.324-2.778v-.694c-.739,1.249-1.11,1.759-1.712,2.315-1.158,1.018-2.779,1.62-4.538,1.62-3.703,0-6.018-2.362-6.018-6.251,0-3.332,1.573-5.88,4.351-6.944,1.991-.787,4.399-1.25,7.409-1.435v-.88c0-3.102-.51-4.028-2.268-4.028-1.715,0-2.455.972-2.687,3.472l-6.018-.554Zm-3.842,16.158h-6.344v-30.883h6.344v30.883Zm-13.843-15.973c-.74-2.224-1.712-3.102-3.332-3.102-1.204,0-1.991.787-1.991,1.991,0,1.481.647,1.991,3.796,3.102,2.917,1.019,3.566,1.343,4.631,2.224,1.388,1.157,2.129,2.824,2.129,4.769,0,4.445-3.517,7.453-8.658,7.453-2.684,0-5-.787-6.481-2.176-1.204-1.111-1.712-2.315-2.084-4.584l5.047-.833c.509,2.315,1.667,3.379,3.658,3.379,1.574,0,2.5-.787,2.5-2.13,0-1.482-.648-2.036-3.658-2.963-4.814-1.574-6.852-3.704-6.852-7.176,0-4.307,3.334-7.27,8.104-7.27,2.176,0,4.074.695,5.462,1.991,1.158,1.064,1.712,1.991,2.269,3.936,0,0-4.538,1.388-4.538,1.388Zm-14.858,15.973h-6.76v-30.883h6.76v30.883Zm-30.136-22.826v3.102c1.157-2.593,2.732-3.564,5.741-3.564,2.408,0,4.121.88,5.093,2.592.649,1.157.834,2.315.834,5.742v14.954h-6.342v-14.954c0-2.64-.511-3.379-2.224-3.379-1.388,0-2.221.554-2.593,1.712-.185.602-.232,1.388-.232,3.241v13.38h-6.343v-22.826h6.066,0Zm-14.861,8.798c0-1.76-.139-2.687-.463-3.427-.463-1.018-1.391-1.62-2.501-1.62-1.991,0-2.872,1.481-2.963,5.047h5.927Zm-5.975,3.658v1.202c0,3.659.881,5.186,3.056,5.186,1.945,0,2.918-1.111,3.242-3.889l5.694.37c-.556,2.64-1.158,3.89-2.406,5.326-1.621,1.806-3.798,2.639-6.668,2.639-6.018,0-9.493-4.213-9.493-11.575,0-7.639,3.521-12.176,9.493-12.176,3.193,0,6.019,1.573,7.408,4.166,1.296,2.407,1.621,4.306,1.667,8.752h-11.993,0Zm-17.867-12.456l3.148,13.474,3.197-13.474h5.278l-6.251,22.826h-5.047l-6.436-22.826h6.112Zm-11.851,8.798c0-1.76-.138-2.687-.462-3.427-.464-1.018-1.39-1.62-2.501-1.62-1.991,0-2.872,1.481-2.963,5.047h5.926Zm-5.974,3.658v1.202c0,3.659.881,5.186,3.056,5.186,1.945,0,2.917-1.111,3.242-3.889l5.694.37c-.554,2.64-1.158,3.89-2.407,5.326-1.621,1.806-3.796,2.639-6.667,2.639-6.019,0-9.493-4.213-9.493-11.575,0-7.639,3.521-12.176,9.493-12.176,3.194,0,6.019,1.573,7.408,4.166,1.296,2.407,1.62,4.306,1.667,8.752h-11.993Zm-14.719-11.622c-.833-2.686-2.176-3.844-4.351-3.844-1.898,0-3.241,1.158-3.241,2.825,0,1.759.88,2.454,5.324,4.121,3.01,1.158,4.12,1.714,5.464,2.824,1.991,1.621,3.055,3.89,3.055,6.668,0,5.927-4.399,9.862-10.926,9.862-5.695,0-9.168-2.732-10.742-8.473l5.927-1.667c.88,3.241,2.362,4.63,4.955,4.63,2.36,0,3.936-1.342,3.936-3.332,0-1.76-1.067-2.732-4.26-3.89-3.89-1.388-4.908-1.897-6.436-3.149-1.854-1.62-2.872-3.842-2.872-6.481,0-5.648,3.936-9.445,9.908-9.445,2.731,0,5.093.74,6.852,2.177,1.482,1.157,2.222,2.406,3.055,4.999l-5.648,2.177Zm-66.335-25.427c-11.615-2.274-23.072-.277-32.759,4.891,13.5-1.627,49.006-3.925,60.342,16.601,11.147,20.182-42.008,27.718-41.158,76.348,24.804,2.08,47.723-14.796,52.616-39.79,5.249-26.812-12.232-52.801-39.042-58.05m11.908,24.196c2.732-13.961-43.612-18.622-56.329-10.489l-.154-.048c-6.682,6.704-11.519,15.395-13.475,25.382-3.556,18.163,3.328,35.94,16.468,47.155,10.018-43.112,50.756-48.041,53.49-62"/>
    </g>
  </g>
</svg>