<svg id="Layer_1" data-name="Layer 1" xmlns="http://www.w3.org/2000/svg" width="1438.939" height="682.409" xmlns:xlink="http://www.w3.org/1999/xlink" viewBox="0 0 1438.939 682.409">
  <defs>
    <style>
      .cls-1 {
        clip-path: url(#clippath-2);
      }

      .cls-2 {
        clip-path: url(#clippath-6);
      }

      .cls-3 {
        fill: none;
      }

      .cls-3, .cls-4, .cls-5, .cls-6, .cls-7, .cls-8, .cls-9 {
        stroke-width: 0px;
      }

      .cls-4 {
        fill: #029faf;
      }

      .cls-10 {
        clip-path: url(#clippath-1);
      }

      .cls-11 {
        clip-path: url(#clippath-4);
      }

      .cls-5 {
        fill: #fff;
      }

      .cls-6 {
        fill: #7dbac6;
      }

      .cls-7 {
        fill: #e2c04d;
      }

      .cls-12 {
        clip-path: url(#clippath-9);
      }

      .cls-13 {
        clip-path: url(#clippath);
      }

      .cls-14 {
        clip-path: url(#clippath-3);
      }

      .cls-15 {
        clip-path: url(#clippath-8);
      }

      .cls-8 {
        fill: #eb6842;
      }

      .cls-16 {
        clip-path: url(#clippath-5);
      }

      .cls-17 {
        clip-path: url(#clippath-10);
      }

      .cls-9 {
        fill: #bad7de;
      }
    </style>
    <clipPath id="clippath">
      <rect class="cls-3" x="262.412" y="4.567" width="383.999" height="384"/>
    </clipPath>
    <clipPath id="clippath-1">
      <path class="cls-3" d="m1071.144,193.718c0,106.987-86.731,193.718-193.718,193.718s-193.718-86.731-193.718-193.718S770.438,0,877.426,0s193.718,86.731,193.718,193.718"/>
    </clipPath>
    <clipPath id="clippath-2">
      <polygon class="cls-3" points="1258.902 563.55 601.678 563.55 601.678 234.938 883.345 234.938 986.174 188.993 1303.796 189.11 1258.902 563.55"/>
    </clipPath>
    <clipPath id="clippath-3">
      <path class="cls-3" d="m410.287,4.567c-74.405,16.45-132.741,75.69-147.875,150.58v77.143c17.885,88.504,96.101,155.147,189.877,155.147,106.988,0,193.719-86.732,193.719-193.718,0-92.562-64.925-169.963-151.716-189.152h-84.005Z"/>
    </clipPath>
    <clipPath id="clippath-4">
      <path class="cls-3" d="m265.786,193.719c0,101.297,82.115,183.413,183.413,183.413s183.413-82.116,183.413-183.413S550.494,10.305,449.199,10.305s-183.413,82.117-183.413,183.414"/>
    </clipPath>
    <clipPath id="clippath-5">
      <path class="cls-3" d="m410.287,4.567c-74.405,16.45-132.741,75.69-147.875,150.58v77.143c17.885,88.504,96.101,155.147,189.877,155.147,106.988,0,193.719-86.732,193.719-193.718,0-92.562-64.925-169.963-151.716-189.152h-84.005Z"/>
    </clipPath>
    <clipPath id="clippath-6">
      <path class="cls-3" d="m458.21,234.938h-195.243c18.897,87.181,96.484,152.499,189.322,152.499,106.988,0,193.719-86.732,193.719-193.718,0-1.571-.019-3.133-.057-4.695l-84.913-.03-102.828,45.944Z"/>
    </clipPath>
    <clipPath id="clippath-8">
      <path class="cls-3" d="m767.722,99.222c-34.669,7.665-61.845,35.291-68.854,70.203v35.685c8.281,41.252,44.715,72.329,88.406,72.329,49.8,0,90.17-40.373,90.17-90.173,0-43.084-30.22-79.113-70.619-88.045h-39.103Z"/>
    </clipPath>
    <clipPath id="clippath-9">
      <path class="cls-3" d="m700.462,187.266c0,47.152,38.222,85.374,85.374,85.374s85.374-38.222,85.374-85.374-38.225-85.374-85.374-85.374-85.374,38.225-85.374,85.374"/>
    </clipPath>
    <clipPath id="clippath-10">
      <path class="cls-3" d="m790.029,206.453h-90.88c8.796,40.583,44.91,70.986,88.126,70.986,49.8,0,90.17-40.373,90.17-90.173,0-.731-.008-1.457-.025-2.185l-39.526-.013-47.864,21.386Z"/>
    </clipPath>
  </defs>
  <g class="cls-13">
    <g class="cls-10">
      <g class="cls-1">
        <rect class="cls-4" x="425.137" y="38.466" width="1013.802" height="643.943"/>
      </g>
    </g>
  </g>
  <g class="cls-14">
    <path class="cls-7" d="m632.612,193.718c0,101.296-82.117,183.413-183.414,183.413s-183.413-82.117-183.413-183.413S347.902,10.304,449.198,10.304s183.414,82.118,183.414,183.414"/>
  </g>
  <g class="cls-11">
    <path class="cls-5" d="m484.508,242.397c0,16.213-13.144,29.357-29.357,29.357s-29.356-13.144-29.356-29.357,13.144-29.357,29.356-29.357,29.357,13.144,29.357,29.357"/>
    <path class="cls-9" d="m464.379,249.829c0,11.426-9.263,20.689-20.689,20.689s-20.689-9.263-20.689-20.689,9.263-20.689,20.689-20.689,20.689,9.263,20.689,20.689"/>
    <path class="cls-6" d="m452.787,255.505c0,15.491-12.558,28.049-28.049,28.049s-28.049-12.558-28.049-28.049,12.558-28.049,28.049-28.049,28.049,12.558,28.049,28.049"/>
  </g>
  <g class="cls-16">
    <path class="cls-8" d="m282.782,109.119v-4.027c2.627-.525,4.202-1.868,5.312-3.035.584-.701,1.051-1.459,1.4-2.218h3.794v42.898h-6.304v-33.618h-4.202Z"/>
    <path class="cls-8" d="m306.594,122.426c0-1.81-.643-3.152-1.984-3.152-.7,0-1.284.525-1.751,1.168-.467.7-.7,1.517-.7,1.984h-5.312v-22.587h15.233v6.245h-9.806v8.93c.7-.525,1.459-.992,2.335-1.284.408-.175.875-.233,1.284-.175,3.268,0,5.019,1.868,5.953,3.91.934,2.043,1.05,4.261,1.05,4.962v9.571c0,2.043-.116,4.786-1.226,7.062-1.108,2.334-3.21,4.144-7.003,4.144-3.911,0-5.896-1.81-7.004-4.377-1.109-2.51-1.226-5.72-1.226-8.58h6.303v1.692c0,2.16.117,3.678.409,4.494.291.876.759,1.284,1.518,1.284.642,0,1.167-.408,1.459-1.226.291-.817.467-2.335.467-4.494v-9.571Z"/>
    <g>
      <path class="cls-8" d="m318.875,100.095v4.594h2.348v3.096h-2.348v9.256c0,.578,0,1.327.136,1.939s.408,1.123.953,1.123c.271,0,.612-.034.851-.068.136-.034.272-.034.408-.068v3.369c-.17.034-.341.102-.511.136-.34.068-.782.103-1.327.103-2.007,0-2.96-1.021-3.437-2.314s-.511-2.858-.511-3.946v-9.528h-1.735v-3.096h1.735v-4.594h3.438Z"/>
      <path class="cls-8" d="m325.646,123.301h-3.437v-25.01h3.437v7.962c.068-.034.204-.17.408-.375.374-.375.885-.885,1.497-1.225.307-.17.579-.238.885-.238.919,0,1.565.544,1.974,1.225.408.715.612,1.633.612,2.416v15.244h-3.437v-14.734c0-.714-.408-.816-.816-.816-.374,0-.579.204-.816.442-.103.136-.204.272-.307.442v14.666Z"/>
    </g>
    <g>
      <path class="cls-8" d="m340.09,142.737l6.479-42.898h7.704l6.479,42.898h-6.129l-1.167-8.755h-6.07l-1.167,8.755h-6.128Zm10.681-28.949l-.176-1.108h-.35l-.175,1.108-1.81,13.541h4.319l-1.81-13.541Z"/>
      <path class="cls-8" d="m367.987,142.737h-5.895v-31.926h5.895v2.685c.116-.058.351-.291.7-.642.643-.642,1.518-1.518,2.568-2.101.525-.292.992-.409,1.518-.409,1.575,0,2.685.934,3.385,2.101.7,1.226,1.051,2.801,1.051,4.144v26.147h-5.895v-25.272c0-1.226-.701-1.4-1.401-1.4-.642,0-.992.351-1.4.759-.175.233-.351.467-.525.759v25.155Z"/>
      <path class="cls-8" d="m385.32,142.737h-5.895v-31.926h5.895v2.685c.116-.058.351-.291.7-.642.643-.642,1.518-1.518,2.568-2.101.525-.292.992-.409,1.518-.409,1.575,0,2.685.934,3.385,2.101.7,1.226,1.051,2.801,1.051,4.144v26.147h-5.895v-25.272c0-1.226-.701-1.4-1.401-1.4-.642,0-.992.351-1.4.759-.175.233-.351.467-.525.759v25.155Z"/>
    </g>
    <path class="cls-8" d="m405.632,110.811h5.895v31.926h-5.895v-2.685c-.116.059-.351.292-.642.583-.701.701-1.518,1.518-2.568,2.102-.525.292-1.051.467-1.576.467-1.575,0-2.685-.934-3.385-2.159-.7-1.168-1.051-2.743-1.051-4.086v-26.147h5.895v25.272c0,1.226.701,1.4,1.401,1.4.642,0,.992-.351,1.4-.759.175-.175.351-.467.525-.759v-25.155Z"/>
    <g>
      <path class="cls-8" d="m422.79,118.399c0-.525,0-1.343-.176-1.927-.233-.583-.7-.992-1.459-.992-.992,0-1.4.759-1.575,1.693-.059.467-.117.992-.117,1.518v1.517h-5.895v-1.342c0-2.335.875-4.436,2.276-6.012,1.4-1.576,3.385-2.51,5.661-2.51,1.926,0,3.677.759,5.02,2.043,1.342,1.284,2.159,3.093,2.159,5.194v19.61c0,2.86.175,4.145.408,5.545h-5.777c-.525-.642-.525-2.159-.525-2.568h-.409c-.291.525-.816,1.284-1.634,1.927-.817.642-1.926,1.108-3.094,1.108-.759,0-1.984-.292-2.918-1.459-.992-1.109-1.81-3.094-1.81-6.42,0-3.561,1.051-6.129,2.452-7.88,1.4-1.751,3.151-2.859,4.61-3.618s2.568-1.284,2.802-1.926v-3.502Zm0,8.93c-2.86,1.226-4.086,4.085-4.086,7.12,0,.409.059,1.109.292,1.751.233.7.642,1.226,1.343,1.226,1.342,0,2.451-.816,2.451-1.926v-8.171Z"/>
      <path class="cls-8" d="m430.611,142.737v-42.898h5.895v42.898h-5.895Z"/>
    </g>
    <g>
      <path class="cls-8" d="m457.925,115.247v-6.595c0-1.167-.233-1.984-.817-2.685-.291-.292-.759-.467-1.283-.467-1.109,0-1.635.817-1.868,1.576-.175.467-.233.992-.233,1.576v25.797c0,1.226.292,2.043.875,2.685.292.292.701.468,1.227.468,1.108,0,1.634-.701,1.867-1.576.175-.408.233-.934.233-1.576v-7.763h-2.51v-5.311h8.813v21.361h-3.735l-.759-2.043c-1.168,1.459-2.86,2.51-4.902,2.51s-3.444-.525-4.494-1.459c-1.051-.875-1.751-1.984-2.219-3.151-.524-1.343-.758-2.919-.7-4.67v-25.271c.059-1.693.409-3.269,1.051-4.611.525-1.167,1.284-2.334,2.451-3.21,1.168-.875,2.802-1.459,4.903-1.459s3.677.584,4.844,1.459,1.984,2.042,2.51,3.21c.642,1.342.992,2.918,1.051,4.611v6.595h-6.304Z"/>
      <path class="cls-8" d="m478.235,116.881c-.525-.175-1.108-.233-1.634-.233-.934,0-2.043.116-2.977.992-1.109.934-1.284,1.926-1.284,2.918v22.179h-5.895v-31.926h5.895v3.561c.059-.408.467-1.4,1.4-2.334.935-.875,2.335-1.693,4.494-1.693v6.537Z"/>
    </g>
    <path class="cls-8" d="m488.274,118.399c0-.525,0-1.343-.176-1.927-.233-.583-.7-.992-1.459-.992-.992,0-1.4.759-1.575,1.693-.059.467-.117.992-.117,1.518v1.517h-5.895v-1.342c0-2.335.875-4.436,2.276-6.012,1.4-1.576,3.385-2.51,5.661-2.51,1.926,0,3.677.759,5.02,2.043,1.342,1.284,2.159,3.093,2.159,5.194v19.61c0,2.86.175,4.145.408,5.545h-5.777c-.525-.642-.525-2.159-.525-2.568h-.409c-.291.525-.816,1.284-1.634,1.927-.817.642-1.926,1.108-3.094,1.108-.759,0-1.984-.292-2.918-1.459-.992-1.109-1.81-3.094-1.81-6.42,0-3.561,1.051-6.129,2.452-7.88,1.4-1.751,3.151-2.859,4.61-3.618s2.568-1.284,2.802-1.926v-3.502Zm0,8.93c-2.86,1.226-4.086,4.085-4.086,7.12,0,.409.059,1.109.292,1.751.233.7.642,1.226,1.343,1.226,1.342,0,2.451-.816,2.451-1.926v-8.171Z"/>
    <g>
      <path class="cls-8" d="m502.514,142.737h-5.895v-31.926h5.895v2.685c.116-.058.351-.291.7-.642.643-.642,1.518-1.518,2.568-2.101.525-.292.992-.409,1.518-.409,1.575,0,2.685.934,3.385,2.101.7,1.226,1.051,2.801,1.051,4.144v26.147h-5.895v-25.272c0-1.226-.701-1.4-1.401-1.4-.642,0-.992.351-1.4.759-.175.233-.351.467-.525.759v25.155Z"/>
      <path class="cls-8" d="m528.894,142.737h-5.895v-2.102c-.992.935-1.868,1.635-2.978,2.16-.583.292-1.167.408-1.692.408-1.634,0-2.743-.934-3.443-2.159-.759-1.168-1.108-2.743-1.108-4.086v-20.369c0-1.343.35-2.918,1.108-4.144.7-1.167,1.81-2.101,3.443-2.101,1.109,0,2.276.642,3.152,1.284.525.409.992.817,1.518,1.284v-13.074h5.895v42.898Zm-5.895-24.922c0-.934-.876-1.926-1.751-1.926s-1.576.817-1.576,1.926v17.918c0,1.109.7,1.926,1.576,1.926s1.751-.816,1.751-1.926v-17.918Z"/>
      <path class="cls-8" d="m551.595,142.737l-3.268-18.093h-1.693v18.093h-6.303v-42.898h6.303c7.529,0,10.739,4.26,10.739,12.373,0,4.26-1.108,8.113-3.502,9.747l4.027,20.778h-6.304Zm-4.961-23.93c.876,0,2.043-.116,2.977-.934.935-.817,1.693-2.394,1.693-5.428s-.759-4.669-1.693-5.486c-.934-.817-2.101-.875-2.977-.875v12.724Z"/>
      <path class="cls-8" d="m559.474,99.839h5.895v5.895h-5.895v-5.895Zm0,42.898v-31.926h5.895v31.926h-5.895Z"/>
      <path class="cls-8" d="m571.671,142.737l-5.194-31.926h5.72l1.926,18.502.233,2.043h.468l.233-2.043,1.926-18.502h5.72l-5.194,31.926h-5.837Z"/>
      <path class="cls-8" d="m598.343,131.297v3.677c-.175,3.094-1.108,5.253-3.21,6.945-1.051.876-2.51,1.284-4.436,1.284-3.794,0-5.72-2.101-6.653-4.202-.525-1.226-.876-2.626-.935-4.202v-16.051c.176-3.093,1.168-5.369,3.269-7.12.992-.875,2.452-1.284,4.378-1.284,3.794,0,5.72,2.101,6.653,4.144.525,1.227.876,2.568.934,4.086v9.28h-9.747v6.945c.059,1.226.409,2.101.935,2.743.292.292.7.467,1.226.467,1.108,0,1.634-.7,1.867-1.576.176-.467.233-.992.233-1.634v-3.502h5.486Zm-9.747-8.055h4.261v-4.494c0-1.226-.233-2.101-.816-2.801-.292-.292-.759-.468-1.284-.468-1.109,0-1.576.759-1.868,1.635-.175.467-.233.992-.292,1.634v4.494Z"/>
      <path class="cls-8" d="m611.941,116.881c-.525-.175-1.108-.233-1.634-.233-.934,0-2.043.116-2.977.992-1.109.934-1.284,1.926-1.284,2.918v22.179h-5.895v-31.926h5.895v3.561c.059-.408.467-1.4,1.4-2.334.935-.875,2.335-1.693,4.494-1.693v6.537Z"/>
    </g>
    <path class="cls-8" d="m293.458,194.212h-4.902l-5.778-42.898h5.837l2.51,22.296.116,1.4h.467l.176-1.4,2.685-22.296h4.553l2.685,22.296.175,1.4h.467l.117-1.4,2.51-22.296h5.836l-5.778,42.898h-4.902l-2.918-20.311-.351-2.51h-.233l-.35,2.51-2.919,20.311Z"/>
    <g>
      <path class="cls-8" d="m318.905,169.875c0-.525,0-1.343-.176-1.927-.233-.583-.7-.992-1.459-.992-.992,0-1.4.759-1.575,1.693-.059.467-.117.992-.117,1.518v1.517h-5.895v-1.342c0-2.335.875-4.436,2.276-6.012,1.4-1.576,3.385-2.51,5.661-2.51,1.926,0,3.677.759,5.02,2.043,1.342,1.284,2.159,3.093,2.159,5.194v19.61c0,2.86.175,4.145.408,5.545h-5.777c-.525-.642-.525-2.159-.525-2.568h-.409c-.291.525-.816,1.284-1.634,1.927-.817.642-1.926,1.108-3.094,1.108-.759,0-1.984-.292-2.918-1.459-.992-1.109-1.81-3.094-1.81-6.42,0-3.561,1.051-6.129,2.452-7.88,1.4-1.751,3.151-2.859,4.61-3.618s2.568-1.284,2.802-1.926v-3.502Zm0,8.93c-2.86,1.226-4.086,4.085-4.086,7.12,0,.409.059,1.109.292,1.751.233.7.642,1.226,1.343,1.226,1.342,0,2.451-.816,2.451-1.926v-8.171Z"/>
      <path class="cls-8" d="m334.604,154.408v7.879h4.027v5.312h-4.027v15.875c0,.992,0,2.276.233,3.327s.7,1.926,1.635,1.926c.467,0,1.05-.059,1.459-.116.233-.059.467-.059.7-.117v5.778c-.292.059-.584.175-.876.233-.583.116-1.342.175-2.275.175-3.444,0-5.078-1.751-5.896-3.969s-.875-4.902-.875-6.771v-16.342h-2.977v-5.312h2.977v-7.879h5.895Z"/>
    </g>
    <path class="cls-8" d="m354.856,182.773v3.677c-.175,3.094-1.108,5.253-3.21,6.945-1.051.876-2.51,1.284-4.436,1.284-3.794,0-5.72-2.101-6.653-4.202-.525-1.226-.876-2.626-.934-4.202v-16.051c.175-3.093,1.167-5.369,3.268-7.12.992-.876,2.452-1.284,4.378-1.284,3.794,0,5.72,2.102,6.653,4.144.525,1.227.876,2.568.934,4.086v9.28h-9.747v6.945c.059,1.226.409,2.101.935,2.743.292.292.7.467,1.226.467,1.108,0,1.634-.7,1.867-1.576.176-.467.233-.992.233-1.634v-3.502h5.486Zm-9.747-8.055h4.261v-4.494c0-1.226-.233-2.101-.816-2.801-.292-.292-.759-.468-1.284-.468-1.109,0-1.576.759-1.868,1.635-.175.467-.233.992-.292,1.634v4.494Z"/>
    <g>
      <path class="cls-8" d="m368.688,168.357c-.525-.175-1.108-.233-1.634-.233-.934,0-2.043.116-2.977.992-1.109.934-1.284,1.926-1.284,2.918v22.179h-5.895v-31.926h5.895v3.561c.059-.408.467-1.4,1.4-2.335.935-.875,2.335-1.692,4.494-1.692v6.537Z"/>
      <path class="cls-8" d="m378.843,170.458c0-.759,0-1.692-.233-2.451-.292-.7-.759-1.284-1.693-1.284-.758,0-1.226.584-1.459,1.284-.291.7-.35,1.692-.35,2.451,0,.992.525,2.043,1.284,2.977.7.935,1.634,1.868,2.567,2.743,1.226,1.226,2.686,2.627,3.678,4.203.992,1.634,1.75,3.443,1.75,5.544,0,2.043-.467,4.202-1.634,5.837-1.226,1.692-3.094,2.918-5.895,2.918-3.561,0-5.662-1.634-6.829-3.618s-1.4-4.437-1.4-6.129h5.486c0,.876.059,2.102.467,3.035.408.992,1.051,1.81,2.276,1.81,1.692,0,2.043-1.984,2.043-3.853,0-1.926-1.868-3.852-3.678-5.661-1.4-1.343-2.743-2.568-3.793-4.144-1.051-1.576-1.81-3.327-1.81-5.662,0-1.867.35-4.026,1.459-5.72,1.108-1.634,2.918-2.859,5.72-2.918,3.443-.059,5.369,1.226,6.361,2.918.992,1.693,1.168,3.911,1.168,5.72h-5.486Z"/>
      <path class="cls-8" d="m391.741,194.212h-5.895v-42.898h5.895v13.657c.116-.058.351-.291.7-.642.643-.642,1.518-1.518,2.568-2.102.525-.291.992-.408,1.518-.408,1.575,0,2.685.934,3.385,2.102.7,1.226,1.051,2.801,1.051,4.144v26.147h-5.895v-25.272c0-1.226-.701-1.4-1.401-1.4-.642,0-.992.351-1.4.759-.175.233-.351.467-.525.759v25.155Z"/>
    </g>
    <path class="cls-8" d="m417.947,182.773v3.677c-.175,3.094-1.108,5.253-3.21,6.945-1.051.876-2.51,1.284-4.436,1.284-3.794,0-5.72-2.101-6.653-4.202-.525-1.226-.876-2.626-.935-4.202v-16.051c.176-3.093,1.168-5.369,3.269-7.12.992-.876,2.452-1.284,4.378-1.284,3.794,0,5.72,2.102,6.653,4.144.525,1.227.876,2.568.934,4.086v9.28h-9.747v6.945c.059,1.226.409,2.101.935,2.743.292.292.7.467,1.226.467,1.108,0,1.634-.7,1.867-1.576.176-.467.233-.992.233-1.634v-3.502h5.486Zm-9.747-8.055h4.261v-4.494c0-1.226-.233-2.101-.816-2.801-.292-.292-.759-.468-1.284-.468-1.109,0-1.576.759-1.868,1.635-.175.467-.233.992-.292,1.634v4.494Z"/>
    <path class="cls-8" d="m434.814,194.212h-5.895v-2.102c-.992.935-1.868,1.635-2.978,2.16-.583.292-1.167.408-1.692.408-1.634,0-2.743-.934-3.443-2.159-.759-1.168-1.108-2.743-1.108-4.086v-20.369c0-1.343.35-2.918,1.108-4.144.7-1.168,1.81-2.102,3.443-2.102,1.109,0,2.276.642,3.152,1.284.525.408.992.817,1.518,1.284v-13.074h5.895v42.898Zm-5.895-24.922c0-.934-.876-1.926-1.751-1.926s-1.576.817-1.576,1.926v17.918c0,1.109.7,1.926,1.576,1.926s1.751-.816,1.751-1.926v-17.918Z"/>
    <g>
      <path class="cls-8" d="m462.536,179.504v5.895c-.059,1.751-.409,3.327-1.051,4.67-.525,1.167-1.343,2.275-2.51,3.151-1.167.934-2.743,1.459-4.844,1.459s-3.735-.525-4.903-1.459c-1.167-.876-1.926-1.984-2.451-3.151-.642-1.343-.992-2.919-1.051-4.67v-25.271c.059-1.692.409-3.269,1.051-4.611.525-1.167,1.284-2.334,2.451-3.21,1.168-.875,2.802-1.459,4.903-1.459s3.677.584,4.844,1.459c1.167.876,1.984,2.043,2.51,3.21.642,1.343.992,2.919,1.051,4.611v5.895h-5.896v-5.895c0-1.167-.291-1.984-.934-2.685-.292-.292-.817-.467-1.459-.467-1.109,0-1.634.816-1.926,1.575-.176.467-.233.992-.292,1.576v25.271c.059,1.226.408,2.043.992,2.686.292.291.7.467,1.226.467,1.343,0,1.868-.7,2.159-1.576.176-.408.233-.934.233-1.576v-5.895h5.896Z"/>
      <path class="cls-8" d="m479.052,186.45c-.175,3.094-1.109,5.253-3.151,6.945-1.051.876-2.51,1.284-4.436,1.284-3.794,0-5.662-2.101-6.596-4.202-.525-1.226-.875-2.626-.934-4.202v-16.051c.175-3.093,1.108-5.369,3.151-7.12.992-.876,2.451-1.284,4.378-1.284,3.793,0,5.72,2.102,6.653,4.144.525,1.227.875,2.568.934,4.086v16.4Zm-5.545-16.226c.059-1.226-.175-2.101-.759-2.801-.291-.292-.759-.468-1.283-.468-1.109,0-1.576.759-1.81,1.635-.176.467-.233.992-.176,1.634v16.051c-.058,1.226.234,2.101.759,2.743.292.292.701.467,1.227.467,1.108,0,1.634-.7,1.867-1.576.175-.467.233-.992.175-1.634v-16.051Z"/>
      <path class="cls-8" d="m486.872,194.212h-5.895v-31.926h5.895v2.685c.116-.058.351-.291.7-.642.643-.642,1.518-1.518,2.568-2.102.525-.291.992-.408,1.518-.408,1.575,0,2.685.934,3.385,2.102.7,1.226,1.051,2.801,1.051,4.144v26.147h-5.895v-25.272c0-1.226-.701-1.4-1.401-1.4-.642,0-.992.351-1.4.759-.175.233-.351.467-.525.759v25.155Z"/>
      <path class="cls-8" d="m500.296,194.212v-26.614h-2.977v-5.312h2.977v-.875c0-1.635.058-4.261.875-6.421.817-2.159,2.451-3.91,5.896-3.91.934,0,1.575.059,2.042.233l.7.176v5.077c-.175-.059-.35-.059-.524-.116-.409-.059-.817-.117-1.226-.117-.992,0-1.46.876-1.693,1.984-.116.584-.175,1.167-.175,1.751v2.218h2.977v5.312h-2.977v26.614h-5.895Z"/>
      <path class="cls-8" d="m525.567,182.773v3.677c-.175,3.094-1.108,5.253-3.21,6.945-1.051.876-2.51,1.284-4.436,1.284-3.794,0-5.72-2.101-6.653-4.202-.525-1.226-.876-2.626-.934-4.202v-16.051c.175-3.093,1.167-5.369,3.268-7.12.992-.876,2.452-1.284,4.378-1.284,3.794,0,5.72,2.102,6.653,4.144.525,1.227.876,2.568.934,4.086v9.28h-9.747v6.945c.059,1.226.409,2.101.935,2.743.292.292.7.467,1.226.467,1.108,0,1.634-.7,1.867-1.576.176-.467.233-.992.233-1.634v-3.502h5.486Zm-9.747-8.055h4.261v-4.494c0-1.226-.233-2.101-.816-2.801-.292-.292-.759-.468-1.284-.468-1.109,0-1.576.759-1.868,1.635-.175.467-.233.992-.292,1.634v4.494Z"/>
      <path class="cls-8" d="m539.164,168.357c-.525-.175-1.108-.233-1.634-.233-.934,0-2.043.116-2.977.992-1.109.934-1.284,1.926-1.284,2.918v22.179h-5.895v-31.926h5.895v3.561c.059-.408.467-1.4,1.4-2.335.935-.875,2.335-1.692,4.494-1.692v6.537Z"/>
      <path class="cls-8" d="m555.213,182.773v3.677c-.175,3.094-1.108,5.253-3.21,6.945-1.051.876-2.51,1.284-4.436,1.284-3.794,0-5.72-2.101-6.653-4.202-.525-1.226-.876-2.626-.934-4.202v-16.051c.175-3.093,1.167-5.369,3.268-7.12.992-.876,2.452-1.284,4.378-1.284,3.794,0,5.72,2.102,6.653,4.144.525,1.227.876,2.568.934,4.086v9.28h-9.747v6.945c.059,1.226.409,2.101.935,2.743.292.292.7.467,1.226.467,1.108,0,1.634-.7,1.867-1.576.176-.467.233-.992.233-1.634v-3.502h5.486Zm-9.747-8.055h4.261v-4.494c0-1.226-.233-2.101-.816-2.801-.292-.292-.759-.468-1.284-.468-1.109,0-1.576.759-1.868,1.635-.175.467-.233.992-.292,1.634v4.494Z"/>
      <path class="cls-8" d="m562.917,194.212h-5.895v-31.926h5.895v2.685c.116-.058.351-.291.7-.642.643-.642,1.518-1.518,2.568-2.102.525-.291.992-.408,1.518-.408,1.575,0,2.685.934,3.385,2.102.7,1.226,1.051,2.801,1.051,4.144v26.147h-5.895v-25.272c0-1.226-.701-1.4-1.401-1.4-.642,0-.992.351-1.4.759-.175.233-.351.467-.525.759v25.155Z"/>
      <path class="cls-8" d="m579.9,186.859c0,1.167.059,2.567,1.634,2.567,1.343,0,1.692-.642,1.692-2.567v-4.437h5.896v3.094c0,3.561-.643,5.836-1.926,7.237-1.284,1.4-3.152,1.926-5.662,1.926-2.101,0-4.027-.584-5.369-2.043-1.343-1.459-2.16-3.852-2.16-7.412v-13.949c0-3.561.817-5.953,2.16-7.412,1.342-1.459,3.269-2.043,5.369-2.043,2.51,0,4.378.525,5.662,1.926,1.283,1.401,1.926,3.678,1.926,7.237v2.51h-5.896v-3.852c0-1.927-.35-2.568-1.692-2.568-1.575,0-1.634,1.4-1.634,2.568v17.218Z"/>
      <path class="cls-8" d="m605.754,182.773v3.677c-.175,3.094-1.108,5.253-3.21,6.945-1.051.876-2.51,1.284-4.436,1.284-3.794,0-5.72-2.101-6.653-4.202-.525-1.226-.876-2.626-.934-4.202v-16.051c.175-3.093,1.167-5.369,3.268-7.12.992-.876,2.452-1.284,4.378-1.284,3.794,0,5.72,2.102,6.653,4.144.525,1.227.876,2.568.934,4.086v9.28h-9.747v6.945c.059,1.226.409,2.101.935,2.743.292.292.7.467,1.226.467,1.108,0,1.634-.7,1.867-1.576.176-.467.233-.992.233-1.634v-3.502h5.486Zm-9.747-8.055h4.261v-4.494c0-1.226-.233-2.101-.816-2.801-.292-.292-.759-.468-1.284-.468-1.109,0-1.576.759-1.868,1.635-.175.467-.233.992-.292,1.634v4.494Z"/>
    </g>
  </g>
  <g class="cls-2">
    <rect class="cls-4" y="38.466" width="1013.802" height="643.943"/>
    <polygon class="cls-4" points="465.214 245.503 567.843 199.255 471.893 252.081 465.214 245.503"/>
    <polygon class="cls-4" points="476.782 262.95 579.411 216.702 483.461 269.528 476.782 262.95"/>
    <polygon class="cls-4" points="488.35 280.397 590.979 234.15 495.029 286.975 488.35 280.397"/>
    <polygon class="cls-4" points="499.917 297.845 602.546 251.597 506.596 304.423 499.917 297.845"/>
    <polygon class="cls-4" points="511.485 315.292 614.114 269.044 518.164 321.87 511.485 315.292"/>
    <polygon class="cls-4" points="523.053 332.739 625.682 286.492 529.732 339.317 523.053 332.739"/>
    <polygon class="cls-4" points="534.621 350.186 637.25 303.939 541.3 356.764 534.621 350.186"/>
    <polygon class="cls-4" points="546.189 367.633 648.818 321.385 552.868 374.211 546.189 367.633"/>
    <polygon class="cls-4" points="557.757 385.081 660.386 338.833 564.436 391.659 557.757 385.081"/>
    <polygon class="cls-4" points="569.325 402.528 671.954 356.28 576.004 409.106 569.325 402.528"/>
    <polygon class="cls-4" points="580.893 419.975 683.521 373.727 587.572 426.553 580.893 419.975"/>
    <polygon class="cls-6" points="465.214 245.503 567.843 199.255 471.893 252.081 465.214 245.503"/>
    <polygon class="cls-6" points="476.782 262.95 579.411 216.702 483.461 269.528 476.782 262.95"/>
    <polygon class="cls-6" points="488.35 280.397 590.979 234.15 495.029 286.975 488.35 280.397"/>
    <polygon class="cls-6" points="499.917 297.845 602.546 251.597 506.596 304.423 499.917 297.845"/>
    <polygon class="cls-6" points="511.485 315.292 614.114 269.044 518.164 321.87 511.485 315.292"/>
    <polygon class="cls-6" points="523.053 332.739 625.682 286.492 529.732 339.317 523.053 332.739"/>
    <polygon class="cls-6" points="534.621 350.186 637.25 303.939 541.3 356.764 534.621 350.186"/>
    <polygon class="cls-6" points="546.189 367.633 648.818 321.385 552.868 374.211 546.189 367.633"/>
    <polygon class="cls-6" points="557.757 385.081 660.386 338.833 564.436 391.659 557.757 385.081"/>
    <polygon class="cls-6" points="569.325 402.528 671.954 356.28 576.004 409.106 569.325 402.528"/>
    <polygon class="cls-6" points="580.893 419.975 683.521 373.727 587.572 426.553 580.893 419.975"/>
    <path class="cls-5" d="m484.508,242.397c0,16.213-13.144,29.357-29.357,29.357s-29.356-13.144-29.356-29.357,13.144-29.357,29.356-29.357,29.357,13.144,29.357,29.357"/>
    <path class="cls-5" d="m516.805,291.109c0,16.213-13.144,29.357-29.357,29.357s-29.356-13.144-29.356-29.357,13.144-29.357,29.356-29.357,29.357,13.144,29.357,29.357"/>
    <path class="cls-5" d="m549.102,339.821c0,16.213-13.144,29.357-29.357,29.357s-29.356-13.144-29.356-29.357,13.144-29.357,29.356-29.357,29.357,13.144,29.357,29.357"/>
    <path class="cls-5" d="m581.4,388.533c0,16.213-13.144,29.357-29.357,29.357s-29.356-13.144-29.356-29.357,13.144-29.357,29.356-29.357,29.357,13.144,29.357,29.357"/>
    <path class="cls-9" d="m464.379,249.829c0,11.426-9.263,20.689-20.689,20.689s-20.689-9.263-20.689-20.689,9.263-20.689,20.689-20.689,20.689,9.263,20.689,20.689"/>
    <path class="cls-9" d="m484.658,281.318c0,11.426-9.263,20.689-20.689,20.689s-20.689-9.263-20.689-20.689,9.263-20.689,20.689-20.689,20.689,9.263,20.689,20.689"/>
    <path class="cls-9" d="m504.937,312.808c0,11.426-9.263,20.689-20.689,20.689s-20.689-9.263-20.689-20.689,9.263-20.689,20.689-20.689,20.689,9.263,20.689,20.689"/>
    <path class="cls-9" d="m525.216,344.298c0,11.426-9.263,20.689-20.689,20.689s-20.689-9.263-20.689-20.689,9.263-20.689,20.689-20.689,20.689,9.263,20.689,20.689"/>
    <path class="cls-9" d="m545.494,375.787c0,11.426-9.263,20.689-20.689,20.689s-20.689-9.263-20.689-20.689,9.263-20.689,20.689-20.689,20.689,9.263,20.689,20.689"/>
    <path class="cls-9" d="m565.773,407.277c0,11.426-9.263,20.689-20.689,20.689s-20.689-9.263-20.689-20.689,9.263-20.689,20.689-20.689,20.689,9.263,20.689,20.689"/>
    <path class="cls-6" d="m452.787,255.505c0,15.491-12.558,28.049-28.049,28.049s-28.049-12.558-28.049-28.049,12.558-28.049,28.049-28.049,28.049,12.558,28.049,28.049"/>
    <path class="cls-6" d="m476.898,295.675c0,15.491-12.558,28.049-28.049,28.049s-28.049-12.558-28.049-28.049,12.558-28.049,28.049-28.049,28.049,12.558,28.049,28.049"/>
    <path class="cls-6" d="m501.01,335.846c0,15.491-12.558,28.049-28.049,28.049s-28.049-12.558-28.049-28.049,12.558-28.049,28.049-28.049,28.049,12.558,28.049,28.049"/>
    <path class="cls-6" d="m525.121,376.016c0,15.491-12.558,28.049-28.049,28.049s-28.049-12.558-28.049-28.049,12.559-28.049,28.049-28.049,28.049,12.558,28.049,28.049"/>
    <path class="cls-6" d="m549.232,416.187c0,15.491-12.558,28.049-28.049,28.049s-28.049-12.558-28.049-28.049,12.558-28.049,28.049-28.049,28.049,12.558,28.049,28.049"/>
    <path class="cls-4" d="m420.704,250.455c0,8.569-6.947,15.517-15.517,15.517s-15.517-6.948-15.517-15.517,6.947-15.517,15.517-15.517,15.517,6.947,15.517,15.517"/>
    <path class="cls-4" d="m432.271,271.594c0,8.569-6.947,15.517-15.517,15.517s-15.517-6.948-15.517-15.517,6.947-15.517,15.517-15.517,15.517,6.947,15.517,15.517"/>
    <path class="cls-4" d="m443.838,292.733c0,8.569-6.947,15.517-15.517,15.517s-15.517-6.948-15.517-15.517,6.947-15.517,15.517-15.517,15.517,6.947,15.517,15.517"/>
    <path class="cls-4" d="m455.405,313.871c0,8.569-6.947,15.517-15.517,15.517s-15.516-6.948-15.516-15.517,6.946-15.517,15.516-15.517,15.517,6.947,15.517,15.517"/>
    <path class="cls-4" d="m466.973,335.01c0,8.569-6.947,15.517-15.517,15.517s-15.517-6.948-15.517-15.517,6.947-15.517,15.517-15.517,15.517,6.947,15.517,15.517"/>
    <path class="cls-4" d="m478.54,356.149c0,8.569-6.947,15.517-15.517,15.517s-15.517-6.948-15.517-15.517,6.947-15.517,15.517-15.517,15.517,6.947,15.517,15.517"/>
    <path class="cls-4" d="m490.107,377.288c0,8.569-6.947,15.517-15.517,15.517s-15.517-6.948-15.517-15.517,6.947-15.517,15.517-15.517,15.517,6.947,15.517,15.517"/>
    <path class="cls-4" d="m501.674,398.426c0,8.569-6.947,15.517-15.517,15.517s-15.517-6.948-15.517-15.517,6.947-15.517,15.517-15.517,15.517,6.947,15.517,15.517"/>
  </g>
  <polygon class="cls-4" points="371.23 241.461 390.808 243.522 450.572 355.837 434.772 377.132 371.23 241.461"/>
  <polygon class="cls-6" points="407.645 234.217 408.82 235.321 442.163 235.329 440.574 234.467 407.645 234.217"/>
  <polygon class="cls-5" points="458.049 234.609 458.334 235.214 479.405 225.852 478.839 225.318 458.049 234.609"/>
  <g class="cls-15">
    <path class="cls-7" d="m871.209,187.267c0,47.151-38.223,85.374-85.374,85.374s-85.374-38.223-85.374-85.374,38.223-85.374,85.374-85.374,85.374,38.223,85.374,85.374"/>
  </g>
  <g class="cls-12">
    <g>
      <path class="cls-8" d="m719.99,151.19v-10.979c7.16-1.432,11.457-5.092,14.48-8.273,1.591-1.91,2.863-3.979,3.818-6.047h10.343v116.952h-17.185v-91.652h-11.457Z"/>
      <path class="cls-8" d="m781.728,187.469c0-4.933-1.75-8.593-5.41-8.593-1.909,0-3.501,1.433-4.773,3.183-1.273,1.909-1.909,4.137-1.909,5.41h-14.48v-61.579h41.53v17.025h-26.731v24.346c1.909-1.433,3.978-2.705,6.364-3.501,1.114-.478,2.387-.637,3.501-.478,8.91,0,13.684,5.092,16.229,10.661s2.864,11.616,2.864,13.525v26.095c0,5.569-.318,13.048-3.342,19.254-3.022,6.364-8.751,11.297-19.094,11.297-10.661,0-16.071-4.933-19.095-11.934-3.022-6.842-3.341-15.594-3.341-23.391h17.185v4.615c0,5.887.318,10.024,1.114,12.252.795,2.387,2.068,3.5,4.137,3.5,1.75,0,3.183-1.113,3.978-3.341.796-2.228,1.273-6.365,1.273-12.253v-26.095Z"/>
    </g>
    <g>
      <path class="cls-8" d="m815.12,126.584v12.524h6.401v8.442h-6.401v25.234c0,1.577,0,3.618.371,5.288s1.113,3.062,2.598,3.062c.742,0,1.67-.093,2.319-.186.371-.093.742-.093,1.113-.186v9.185c-.464.093-.928.278-1.392.371-.928.186-2.134.278-3.618.278-5.474,0-8.071-2.783-9.37-6.309s-1.392-7.793-1.392-10.762v-25.977h-4.731v-8.442h4.731v-12.524h9.37Z"/>
      <path class="cls-8" d="m833.023,189.855h-9.37v-68.188h9.37v21.709c.186-.093.557-.464,1.113-1.021,1.021-1.021,2.412-2.412,4.082-3.34.835-.464,1.577-.649,2.412-.649,2.505,0,4.268,1.484,5.381,3.34,1.113,1.948,1.67,4.453,1.67,6.587v41.562h-9.37v-40.171c0-1.948-1.113-2.227-2.227-2.227-1.021,0-1.577.557-2.227,1.206-.278.371-.557.742-.835,1.206v39.985Z"/>
    </g>
    <path class="cls-5" d="m802.271,209.925c0,7.546-6.118,13.665-13.665,13.665s-13.665-6.118-13.665-13.665,6.117-13.665,13.665-13.665,13.665,6.118,13.665,13.665"/>
    <path class="cls-9" d="m792.902,213.385c0,5.318-4.312,9.63-9.63,9.63s-9.63-4.312-9.63-9.63,4.312-9.63,9.63-9.63,9.63,4.312,9.63,9.63"/>
    <path class="cls-6" d="m787.506,216.027c0,7.21-5.845,13.057-13.057,13.057s-13.055-5.846-13.055-13.057,5.845-13.057,13.055-13.057,13.057,5.846,13.057,13.057"/>
  </g>
  <g class="cls-17">
    <rect class="cls-4" x="576.744" y="115.002" width="471.9" height="299.739"/>
    <polygon class="cls-4" points="793.29 211.371 841.061 189.844 796.399 214.434 793.29 211.371"/>
    <polygon class="cls-4" points="798.675 219.493 846.445 197.966 801.784 222.555 798.675 219.493"/>
    <polygon class="cls-4" points="804.059 227.614 851.83 206.087 807.168 230.676 804.059 227.614"/>
    <polygon class="cls-4" points="809.444 235.735 857.214 214.208 812.553 238.798 809.444 235.735"/>
    <polygon class="cls-4" points="814.828 243.856 862.599 222.329 817.937 246.919 814.828 243.856"/>
    <polygon class="cls-4" points="820.213 251.977 867.983 230.451 823.322 255.04 820.213 251.977"/>
    <polygon class="cls-4" points="825.597 260.099 873.368 238.572 828.706 263.161 825.597 260.099"/>
    <polygon class="cls-4" points="830.982 268.22 878.752 246.693 834.091 271.283 830.982 268.22"/>
    <polygon class="cls-4" points="836.366 276.341 884.137 254.814 839.476 279.404 836.366 276.341"/>
    <polygon class="cls-4" points="841.751 284.462 889.521 262.936 844.86 287.525 841.751 284.462"/>
    <polygon class="cls-4" points="847.135 292.584 894.906 271.057 850.245 295.646 847.135 292.584"/>
    <polygon class="cls-6" points="793.29 211.371 841.061 189.844 796.399 214.434 793.29 211.371"/>
    <polygon class="cls-6" points="798.675 219.493 846.445 197.966 801.784 222.555 798.675 219.493"/>
    <polygon class="cls-6" points="804.059 227.614 851.83 206.087 807.168 230.676 804.059 227.614"/>
    <polygon class="cls-6" points="809.444 235.735 857.214 214.208 812.553 238.798 809.444 235.735"/>
    <polygon class="cls-6" points="814.828 243.856 862.599 222.329 817.937 246.919 814.828 243.856"/>
    <polygon class="cls-6" points="820.213 251.977 867.983 230.451 823.322 255.04 820.213 251.977"/>
    <polygon class="cls-6" points="825.597 260.099 873.368 238.572 828.706 263.161 825.597 260.099"/>
    <polygon class="cls-6" points="830.982 268.22 878.752 246.693 834.091 271.283 830.982 268.22"/>
    <polygon class="cls-6" points="836.366 276.341 884.137 254.814 839.476 279.404 836.366 276.341"/>
    <polygon class="cls-6" points="841.751 284.462 889.521 262.936 844.86 287.525 841.751 284.462"/>
    <polygon class="cls-6" points="847.135 292.584 894.906 271.057 850.245 295.646 847.135 292.584"/>
    <path class="cls-5" d="m802.271,209.925c0,7.546-6.118,13.665-13.665,13.665s-13.665-6.118-13.665-13.665,6.117-13.665,13.665-13.665,13.665,6.118,13.665,13.665"/>
    <path class="cls-5" d="m817.304,232.6c0,7.546-6.118,13.665-13.665,13.665s-13.665-6.118-13.665-13.665,6.117-13.665,13.665-13.665,13.665,6.118,13.665,13.665"/>
    <path class="cls-5" d="m832.338,255.274c0,7.546-6.118,13.665-13.665,13.665s-13.665-6.118-13.665-13.665,6.117-13.665,13.665-13.665,13.665,6.118,13.665,13.665"/>
    <path class="cls-5" d="m847.372,277.948c0,7.546-6.118,13.665-13.665,13.665s-13.665-6.118-13.665-13.665,6.117-13.665,13.665-13.665,13.665,6.118,13.665,13.665"/>
    <path class="cls-9" d="m792.902,213.385c0,5.318-4.312,9.63-9.63,9.63s-9.63-4.312-9.63-9.63,4.312-9.63,9.63-9.63,9.63,4.312,9.63,9.63"/>
    <path class="cls-9" d="m802.341,228.043c0,5.318-4.312,9.63-9.63,9.63s-9.63-4.312-9.63-9.63,4.312-9.63,9.63-9.63,9.63,4.312,9.63,9.63"/>
    <path class="cls-9" d="m811.78,242.7c0,5.318-4.312,9.63-9.63,9.63s-9.63-4.312-9.63-9.63,4.312-9.63,9.63-9.63,9.63,4.312,9.63,9.63"/>
    <path class="cls-9" d="m821.219,257.358c0,5.318-4.312,9.63-9.63,9.63s-9.63-4.312-9.63-9.63,4.312-9.63,9.63-9.63,9.63,4.312,9.63,9.63"/>
    <path class="cls-9" d="m830.658,272.015c0,5.318-4.312,9.63-9.63,9.63s-9.63-4.312-9.63-9.63,4.312-9.63,9.63-9.63,9.63,4.312,9.63,9.63"/>
    <path class="cls-9" d="m840.098,286.673c0,5.318-4.312,9.63-9.63,9.63s-9.63-4.312-9.63-9.63,4.312-9.63,9.63-9.63,9.63,4.312,9.63,9.63"/>
    <path class="cls-6" d="m787.506,216.027c0,7.21-5.845,13.057-13.057,13.057s-13.055-5.846-13.055-13.057,5.845-13.057,13.055-13.057,13.057,5.846,13.057,13.057"/>
    <path class="cls-6" d="m798.729,234.725c0,7.21-5.845,13.057-13.057,13.057s-13.055-5.846-13.055-13.057,5.845-13.057,13.055-13.057,13.057,5.846,13.057,13.057"/>
    <path class="cls-6" d="m809.952,253.424c0,7.21-5.845,13.057-13.057,13.057s-13.055-5.846-13.055-13.057,5.845-13.057,13.055-13.057,13.057,5.846,13.057,13.057"/>
    <path class="cls-6" d="m821.175,272.122c0,7.21-5.845,13.057-13.057,13.057s-13.055-5.846-13.055-13.057,5.845-13.057,13.055-13.057,13.057,5.846,13.057,13.057"/>
    <path class="cls-6" d="m832.398,290.821c0,7.21-5.845,13.057-13.057,13.057s-13.055-5.846-13.055-13.057,5.845-13.057,13.055-13.057,13.057,5.846,13.057,13.057"/>
    <path class="cls-4" d="m772.572,213.676c0,3.989-3.233,7.222-7.222,7.222s-7.224-3.233-7.224-7.222,3.234-7.224,7.224-7.224,7.222,3.235,7.222,7.224"/>
    <path class="cls-4" d="m777.956,223.516c0,3.989-3.233,7.222-7.222,7.222s-7.224-3.233-7.224-7.222,3.234-7.224,7.224-7.224,7.222,3.235,7.222,7.224"/>
    <path class="cls-4" d="m783.34,233.356c0,3.989-3.233,7.222-7.224,7.222s-7.222-3.233-7.222-7.222,3.234-7.224,7.222-7.224,7.224,3.235,7.224,7.224"/>
    <path class="cls-4" d="m788.724,243.195c0,3.989-3.233,7.222-7.224,7.222s-7.222-3.233-7.222-7.222,3.234-7.224,7.222-7.224,7.224,3.235,7.224,7.224"/>
    <path class="cls-4" d="m794.109,253.035c0,3.989-3.235,7.222-7.224,7.222s-7.222-3.233-7.222-7.222,3.234-7.224,7.222-7.224,7.224,3.235,7.224,7.224"/>
    <path class="cls-4" d="m799.493,262.874c0,3.989-3.233,7.222-7.222,7.222s-7.224-3.233-7.224-7.222,3.234-7.224,7.224-7.224,7.222,3.235,7.222,7.224"/>
    <path class="cls-4" d="m804.877,272.714c0,3.989-3.233,7.222-7.222,7.222s-7.224-3.233-7.224-7.222,3.234-7.224,7.224-7.224,7.222,3.235,7.222,7.224"/>
    <path class="cls-4" d="m810.261,282.553c0,3.989-3.233,7.222-7.222,7.222s-7.224-3.233-7.224-7.222,3.234-7.224,7.224-7.224,7.222,3.235,7.222,7.224"/>
  </g>
  <polygon class="cls-4" points="749.543 209.49 758.656 210.448 786.474 262.728 779.12 272.641 749.543 209.49"/>
  <polygon class="cls-6" points="767.04 206.631 782.56 206.636 781.82 206.234 766.493 206.118 767.04 206.631"/>
  <polygon class="cls-5" points="789.955 206.3 790.087 206.582 799.896 202.225 799.632 201.975 789.955 206.3"/>
</svg>