<?xml version="1.0" encoding="utf-8"?>
<!-- Generator: Adobe Illustrator 28.0.0, SVG Export Plug-In . SVG Version: 6.00 Build 0)  -->
<svg version="1.1" id="Layer_1" xmlns="http://www.w3.org/2000/svg" xmlns:xlink="http://www.w3.org/1999/xlink" x="0px" y="0px"
	 viewBox="0 0 1438.9 682.4" style="enable-background:new 0 0 1438.9 682.4;" xml:space="preserve">
<style type="text/css">
	.st0{clip-path:url(#SVGID_00000180351436561067384800000006286040545296733847_);}
	.st1{clip-path:url(#SVGID_00000098921085713263974120000007048453403120759741_);}
	.st2{clip-path:url(#SVGID_00000025444809695020534920000006923456489333786538_);}
	.st3{fill:#029FAF;}
	.st4{clip-path:url(#SVGID_00000178188228582031481940000011450002559797586364_);}
	.st5{fill:#E2C04D;}
	.st6{clip-path:url(#SVGID_00000061431338145943823690000010929103853305315763_);}
	.st7{fill:#FFFFFF;}
	.st8{fill:#BAD7DE;}
	.st9{fill:#7DBAC6;}
	.st10{clip-path:url(#SVGID_00000135669587240718739090000012753205804388250295_);}
	.st11{fill:#EB6842;}
	.st12{clip-path:url(#SVGID_00000091733773067753128010000011338280671489193622_);}
	.st13{clip-path:url(#SVGID_00000111894822108130817810000002760600556185855364_);}
	.st14{clip-path:url(#SVGID_00000044856913207375209920000013396462840171181995_);}
</style>
<g>
	<defs>
		<rect id="SVGID_1_" x="262.4" y="4.6" width="384" height="384"/>
	</defs>
	<clipPath id="SVGID_00000099629239019252010760000006219313888668525744_">
		<use xlink:href="#SVGID_1_"  style="overflow:visible;"/>
	</clipPath>
	<g style="clip-path:url(#SVGID_00000099629239019252010760000006219313888668525744_);">
		<g>
			<defs>
				<path id="SVGID_00000144324497956113412720000001802352382721937065_" d="M1071.1,193.7c0,107-86.7,193.7-193.7,193.7
					s-193.7-86.7-193.7-193.7S770.4,0,877.4,0S1071.1,86.7,1071.1,193.7"/>
			</defs>
			<clipPath id="SVGID_00000154390233525189847620000011088460225402158491_">
				<use xlink:href="#SVGID_00000144324497956113412720000001802352382721937065_"  style="overflow:visible;"/>
			</clipPath>
			<g style="clip-path:url(#SVGID_00000154390233525189847620000011088460225402158491_);">
				<g>
					<defs>
						<polygon id="SVGID_00000113346800753438204730000011429902630544991376_" points="1258.9,563.5 601.7,563.5 601.7,234.9 
							883.3,234.9 986.2,189 1303.8,189.1 						"/>
					</defs>
					<clipPath id="SVGID_00000146486519446240579080000008906769467676000441_">
						<use xlink:href="#SVGID_00000113346800753438204730000011429902630544991376_"  style="overflow:visible;"/>
					</clipPath>
					<g style="clip-path:url(#SVGID_00000146486519446240579080000008906769467676000441_);">
						<rect x="425.1" y="38.5" class="st3" width="1013.8" height="643.9"/>
					</g>
				</g>
			</g>
		</g>
	</g>
</g>
<g>
	<defs>
		<path id="SVGID_00000096758883337290700940000011976381744213537976_" d="M410.3,4.6C335.9,21,277.5,80.3,262.4,155.1v77.1
			c17.9,88.5,96.1,155.1,189.9,155.1c107,0,193.7-86.7,193.7-193.7c0-92.6-64.9-170-151.7-189.2L410.3,4.6L410.3,4.6z"/>
	</defs>
	<clipPath id="SVGID_00000182522148402312471200000009969099311975681463_">
		<use xlink:href="#SVGID_00000096758883337290700940000011976381744213537976_"  style="overflow:visible;"/>
	</clipPath>
	<g style="clip-path:url(#SVGID_00000182522148402312471200000009969099311975681463_);">
		<path class="st5" d="M632.6,193.7c0,101.3-82.1,183.4-183.4,183.4S265.8,295,265.8,193.7S347.9,10.3,449.2,10.3
			S632.6,92.4,632.6,193.7"/>
	</g>
</g>
<g>
	<defs>
		<path id="SVGID_00000142883816371524035110000013266025415038941879_" d="M265.8,193.7c0,101.3,82.1,183.4,183.4,183.4
			S632.6,295,632.6,193.7S550.5,10.3,449.2,10.3S265.8,92.4,265.8,193.7"/>
	</defs>
	<clipPath id="SVGID_00000050649600697554761810000015587888164584698023_">
		<use xlink:href="#SVGID_00000142883816371524035110000013266025415038941879_"  style="overflow:visible;"/>
	</clipPath>
	<g style="clip-path:url(#SVGID_00000050649600697554761810000015587888164584698023_);">
		<path class="st7" d="M484.5,242.4c0,16.2-13.1,29.4-29.4,29.4s-29.4-13.1-29.4-29.4s13.1-29.4,29.4-29.4S484.5,226.2,484.5,242.4"
			/>
		<path class="st8" d="M464.4,249.8c0,11.4-9.3,20.7-20.7,20.7s-20.7-9.3-20.7-20.7s9.3-20.7,20.7-20.7S464.4,238.4,464.4,249.8"/>
		<path class="st9" d="M452.8,255.5c0,15.5-12.6,28-28,28s-28-12.6-28-28s12.6-28,28-28S452.8,240,452.8,255.5"/>
	</g>
</g>
<g>
	<defs>
		<path id="SVGID_00000032611145678098145340000002346094047904285833_" d="M410.3,4.6C335.9,21,277.5,80.3,262.4,155.1v77.1
			c17.9,88.5,96.1,155.1,189.9,155.1c107,0,193.7-86.7,193.7-193.7c0-92.6-64.9-170-151.7-189.2L410.3,4.6L410.3,4.6z"/>
	</defs>
	<clipPath id="SVGID_00000063601487233224964080000005110773625397161401_">
		<use xlink:href="#SVGID_00000032611145678098145340000002346094047904285833_"  style="overflow:visible;"/>
	</clipPath>
	<g style="clip-path:url(#SVGID_00000063601487233224964080000005110773625397161401_);">
		<path class="st11" d="M282.8,109.1v-4c2.6-0.5,4.2-1.9,5.3-3c0.6-0.7,1.1-1.5,1.4-2.2h3.8v42.9H287v-33.6H282.8L282.8,109.1z"/>
		<path class="st11" d="M306.6,122.4c0-1.8-0.6-3.2-2-3.2c-0.7,0-1.3,0.5-1.8,1.2c-0.5,0.7-0.7,1.5-0.7,2h-5.3V99.8h15.2v6.2h-9.8
			v8.9c0.7-0.5,1.5-1,2.3-1.3c0.4-0.2,0.9-0.2,1.3-0.2c3.3,0,5,1.9,6,3.9c0.9,2,1,4.3,1,5v9.6c0,2-0.1,4.8-1.2,7.1
			c-1.1,2.3-3.2,4.1-7,4.1c-3.9,0-5.9-1.8-7-4.4c-1.1-2.5-1.2-5.7-1.2-8.6h6.3v1.7c0,2.2,0.1,3.7,0.4,4.5c0.3,0.9,0.8,1.3,1.5,1.3
			c0.6,0,1.2-0.4,1.5-1.2c0.3-0.8,0.5-2.3,0.5-4.5L306.6,122.4L306.6,122.4z"/>
		<g>
			<path class="st11" d="M318.9,100.1v4.6h2.3v3.1h-2.3v9.3c0,0.6,0,1.3,0.1,1.9s0.4,1.1,1,1.1c0.3,0,0.6,0,0.9-0.1
				c0.1,0,0.3,0,0.4-0.1v3.4c-0.2,0-0.3,0.1-0.5,0.1c-0.3,0.1-0.8,0.1-1.3,0.1c-2,0-3-1-3.4-2.3s-0.5-2.9-0.5-3.9v-9.5h-1.7v-3.1
				h1.7v-4.6L318.9,100.1L318.9,100.1z"/>
			<path class="st11" d="M325.6,123.3h-3.4v-25h3.4v8c0.1,0,0.2-0.2,0.4-0.4c0.4-0.4,0.9-0.9,1.5-1.2c0.3-0.2,0.6-0.2,0.9-0.2
				c0.9,0,1.6,0.5,2,1.2c0.4,0.7,0.6,1.6,0.6,2.4v15.2h-3.4v-14.7c0-0.7-0.4-0.8-0.8-0.8c-0.4,0-0.6,0.2-0.8,0.4
				c-0.1,0.1-0.2,0.3-0.3,0.4L325.6,123.3L325.6,123.3z"/>
		</g>
		<g>
			<path class="st11" d="M340.1,142.7l6.5-42.9h7.7l6.5,42.9h-6.1l-1.2-8.8h-6.1l-1.2,8.8H340.1L340.1,142.7z M350.8,113.8l-0.2-1.1
				h-0.4l-0.2,1.1l-1.8,13.5h4.3L350.8,113.8L350.8,113.8z"/>
			<path class="st11" d="M368,142.7h-5.9v-31.9h5.9v2.7c0.1-0.1,0.4-0.3,0.7-0.6c0.6-0.6,1.5-1.5,2.6-2.1c0.5-0.3,1-0.4,1.5-0.4
				c1.6,0,2.7,0.9,3.4,2.1c0.7,1.2,1.1,2.8,1.1,4.1v26.1h-5.9v-25.3c0-1.2-0.7-1.4-1.4-1.4c-0.6,0-1,0.4-1.4,0.8
				c-0.2,0.2-0.4,0.5-0.5,0.8L368,142.7L368,142.7z"/>
			<path class="st11" d="M385.3,142.7h-5.9v-31.9h5.9v2.7c0.1-0.1,0.4-0.3,0.7-0.6c0.6-0.6,1.5-1.5,2.6-2.1c0.5-0.3,1-0.4,1.5-0.4
				c1.6,0,2.7,0.9,3.4,2.1c0.7,1.2,1.1,2.8,1.1,4.1v26.1h-5.9v-25.3c0-1.2-0.7-1.4-1.4-1.4c-0.6,0-1,0.4-1.4,0.8
				c-0.2,0.2-0.4,0.5-0.5,0.8L385.3,142.7L385.3,142.7z"/>
		</g>
		<path class="st11" d="M405.6,110.8h5.9v31.9h-5.9v-2.7c-0.1,0.1-0.4,0.3-0.6,0.6c-0.7,0.7-1.5,1.5-2.6,2.1
			c-0.5,0.3-1.1,0.5-1.6,0.5c-1.6,0-2.7-0.9-3.4-2.2c-0.7-1.2-1.1-2.7-1.1-4.1v-26.1h5.9v25.3c0,1.2,0.7,1.4,1.4,1.4
			c0.6,0,1-0.4,1.4-0.8c0.2-0.2,0.4-0.5,0.5-0.8L405.6,110.8L405.6,110.8z"/>
		<g>
			<path class="st11" d="M422.8,118.4c0-0.5,0-1.3-0.2-1.9c-0.2-0.6-0.7-1-1.5-1c-1,0-1.4,0.8-1.6,1.7c-0.1,0.5-0.1,1-0.1,1.5v1.5
				h-5.9v-1.3c0-2.3,0.9-4.4,2.3-6c1.4-1.6,3.4-2.5,5.7-2.5c1.9,0,3.7,0.8,5,2c1.3,1.3,2.2,3.1,2.2,5.2v19.6c0,2.9,0.2,4.1,0.4,5.5
				h-5.8c-0.5-0.6-0.5-2.2-0.5-2.6h-0.4c-0.3,0.5-0.8,1.3-1.6,1.9c-0.8,0.6-1.9,1.1-3.1,1.1c-0.8,0-2-0.3-2.9-1.5
				c-1-1.1-1.8-3.1-1.8-6.4c0-3.6,1.1-6.1,2.5-7.9c1.4-1.8,3.2-2.9,4.6-3.6s2.6-1.3,2.8-1.9L422.8,118.4L422.8,118.4z M422.8,127.3
				c-2.9,1.2-4.1,4.1-4.1,7.1c0,0.4,0.1,1.1,0.3,1.8c0.2,0.7,0.6,1.2,1.3,1.2c1.3,0,2.5-0.8,2.5-1.9L422.8,127.3L422.8,127.3z"/>
			<path class="st11" d="M430.6,142.7V99.8h5.9v42.9H430.6z"/>
		</g>
		<g>
			<path class="st11" d="M457.9,115.2v-6.6c0-1.2-0.2-2-0.8-2.7c-0.3-0.3-0.8-0.5-1.3-0.5c-1.1,0-1.6,0.8-1.9,1.6
				c-0.2,0.5-0.2,1-0.2,1.6v25.8c0,1.2,0.3,2,0.9,2.7c0.3,0.3,0.7,0.5,1.2,0.5c1.1,0,1.6-0.7,1.9-1.6c0.2-0.4,0.2-0.9,0.2-1.6v-7.8
				h-2.5v-5.3h8.8v21.4h-3.7l-0.8-2c-1.2,1.5-2.9,2.5-4.9,2.5s-3.4-0.5-4.5-1.5c-1.1-0.9-1.8-2-2.2-3.2c-0.5-1.3-0.8-2.9-0.7-4.7
				v-25.3c0.1-1.7,0.4-3.3,1.1-4.6c0.5-1.2,1.3-2.3,2.5-3.2c1.2-0.9,2.8-1.5,4.9-1.5s3.7,0.6,4.8,1.5s2,2,2.5,3.2
				c0.6,1.3,1,2.9,1.1,4.6v6.6L457.9,115.2L457.9,115.2z"/>
			<path class="st11" d="M478.2,116.9c-0.5-0.2-1.1-0.2-1.6-0.2c-0.9,0-2,0.1-3,1c-1.1,0.9-1.3,1.9-1.3,2.9v22.2h-5.9v-31.9h5.9v3.6
				c0.1-0.4,0.5-1.4,1.4-2.3c0.9-0.9,2.3-1.7,4.5-1.7L478.2,116.9L478.2,116.9z"/>
		</g>
		<path class="st11" d="M488.3,118.4c0-0.5,0-1.3-0.2-1.9c-0.2-0.6-0.7-1-1.5-1c-1,0-1.4,0.8-1.6,1.7c-0.1,0.5-0.1,1-0.1,1.5v1.5
			h-5.9v-1.3c0-2.3,0.9-4.4,2.3-6c1.4-1.6,3.4-2.5,5.7-2.5c1.9,0,3.7,0.8,5,2c1.3,1.3,2.2,3.1,2.2,5.2v19.6c0,2.9,0.2,4.1,0.4,5.5
			h-5.8c-0.5-0.6-0.5-2.2-0.5-2.6h-0.4c-0.3,0.5-0.8,1.3-1.6,1.9c-0.8,0.6-1.9,1.1-3.1,1.1c-0.8,0-2-0.3-2.9-1.5
			c-1-1.1-1.8-3.1-1.8-6.4c0-3.6,1.1-6.1,2.5-7.9c1.4-1.8,3.2-2.9,4.6-3.6s2.6-1.3,2.8-1.9L488.3,118.4L488.3,118.4z M488.3,127.3
			c-2.9,1.2-4.1,4.1-4.1,7.1c0,0.4,0.1,1.1,0.3,1.8c0.2,0.7,0.6,1.2,1.3,1.2c1.3,0,2.5-0.8,2.5-1.9L488.3,127.3L488.3,127.3z"/>
		<g>
			<path class="st11" d="M502.5,142.7h-5.9v-31.9h5.9v2.7c0.1-0.1,0.4-0.3,0.7-0.6c0.6-0.6,1.5-1.5,2.6-2.1c0.5-0.3,1-0.4,1.5-0.4
				c1.6,0,2.7,0.9,3.4,2.1c0.7,1.2,1.1,2.8,1.1,4.1v26.1h-5.9v-25.3c0-1.2-0.7-1.4-1.4-1.4c-0.6,0-1,0.4-1.4,0.8
				c-0.2,0.2-0.4,0.5-0.5,0.8L502.5,142.7L502.5,142.7z"/>
			<path class="st11" d="M528.9,142.7H523v-2.1c-1,0.9-1.9,1.6-3,2.2c-0.6,0.3-1.2,0.4-1.7,0.4c-1.6,0-2.7-0.9-3.4-2.2
				c-0.8-1.2-1.1-2.7-1.1-4.1v-20.4c0-1.3,0.3-2.9,1.1-4.1c0.7-1.2,1.8-2.1,3.4-2.1c1.1,0,2.3,0.6,3.2,1.3c0.5,0.4,1,0.8,1.5,1.3
				V99.8h5.9L528.9,142.7L528.9,142.7z M523,117.8c0-0.9-0.9-1.9-1.8-1.9s-1.6,0.8-1.6,1.9v17.9c0,1.1,0.7,1.9,1.6,1.9
				s1.8-0.8,1.8-1.9V117.8z"/>
			<path class="st11" d="M551.6,142.7l-3.3-18.1h-1.7v18.1h-6.3V99.8h6.3c7.5,0,10.7,4.3,10.7,12.4c0,4.3-1.1,8.1-3.5,9.7l4,20.8
				H551.6L551.6,142.7z M546.6,118.8c0.9,0,2-0.1,3-0.9c0.9-0.8,1.7-2.4,1.7-5.4s-0.8-4.7-1.7-5.5s-2.1-0.9-3-0.9V118.8L546.6,118.8
				z"/>
			<path class="st11" d="M559.5,99.8h5.9v5.9h-5.9V99.8z M559.5,142.7v-31.9h5.9v31.9H559.5z"/>
			<path class="st11" d="M571.7,142.7l-5.2-31.9h5.7l1.9,18.5l0.2,2h0.5l0.2-2l1.9-18.5h5.7l-5.2,31.9H571.7L571.7,142.7z"/>
			<path class="st11" d="M598.3,131.3v3.7c-0.2,3.1-1.1,5.3-3.2,6.9c-1.1,0.9-2.5,1.3-4.4,1.3c-3.8,0-5.7-2.1-6.7-4.2
				c-0.5-1.2-0.9-2.6-0.9-4.2v-16.1c0.2-3.1,1.2-5.4,3.3-7.1c1-0.9,2.5-1.3,4.4-1.3c3.8,0,5.7,2.1,6.7,4.1c0.5,1.2,0.9,2.6,0.9,4.1
				v9.3h-9.7v6.9c0.1,1.2,0.4,2.1,0.9,2.7c0.3,0.3,0.7,0.5,1.2,0.5c1.1,0,1.6-0.7,1.9-1.6c0.2-0.5,0.2-1,0.2-1.6v-3.5H598.3z
				 M588.6,123.2h4.3v-4.5c0-1.2-0.2-2.1-0.8-2.8c-0.3-0.3-0.8-0.5-1.3-0.5c-1.1,0-1.6,0.8-1.9,1.6c-0.2,0.5-0.2,1-0.3,1.6
				L588.6,123.2L588.6,123.2z"/>
			<path class="st11" d="M611.9,116.9c-0.5-0.2-1.1-0.2-1.6-0.2c-0.9,0-2,0.1-3,1c-1.1,0.9-1.3,1.9-1.3,2.9v22.2h-5.9v-31.9h5.9v3.6
				c0.1-0.4,0.5-1.4,1.4-2.3c0.9-0.9,2.3-1.7,4.5-1.7L611.9,116.9L611.9,116.9z"/>
		</g>
		<path class="st11" d="M293.5,194.2h-4.9l-5.8-42.9h5.8l2.5,22.3l0.1,1.4h0.5l0.2-1.4l2.7-22.3h4.6l2.7,22.3l0.2,1.4h0.5l0.1-1.4
			l2.5-22.3h5.8l-5.8,42.9h-4.9l-2.9-20.3l-0.4-2.5h-0.2l-0.4,2.5L293.5,194.2L293.5,194.2z"/>
		<g>
			<path class="st11" d="M318.9,169.9c0-0.5,0-1.3-0.2-1.9c-0.2-0.6-0.7-1-1.5-1c-1,0-1.4,0.8-1.6,1.7c-0.1,0.5-0.1,1-0.1,1.5v1.5
				h-5.9v-1.3c0-2.3,0.9-4.4,2.3-6c1.4-1.6,3.4-2.5,5.7-2.5c1.9,0,3.7,0.8,5,2c1.3,1.3,2.2,3.1,2.2,5.2v19.6c0,2.9,0.2,4.1,0.4,5.5
				h-5.8c-0.5-0.6-0.5-2.2-0.5-2.6h-0.4c-0.3,0.5-0.8,1.3-1.6,1.9c-0.8,0.6-1.9,1.1-3.1,1.1c-0.8,0-2-0.3-2.9-1.5
				c-1-1.1-1.8-3.1-1.8-6.4c0-3.6,1.1-6.1,2.5-7.9c1.4-1.8,3.2-2.9,4.6-3.6s2.6-1.3,2.8-1.9L318.9,169.9L318.9,169.9z M318.9,178.8
				c-2.9,1.2-4.1,4.1-4.1,7.1c0,0.4,0.1,1.1,0.3,1.8c0.2,0.7,0.6,1.2,1.3,1.2c1.3,0,2.5-0.8,2.5-1.9L318.9,178.8L318.9,178.8z"/>
			<path class="st11" d="M334.6,154.4v7.9h4v5.3h-4v15.9c0,1,0,2.3,0.2,3.3s0.7,1.9,1.6,1.9c0.5,0,1-0.1,1.5-0.1
				c0.2-0.1,0.5-0.1,0.7-0.1v5.8c-0.3,0.1-0.6,0.2-0.9,0.2c-0.6,0.1-1.3,0.2-2.3,0.2c-3.4,0-5.1-1.8-5.9-4s-0.9-4.9-0.9-6.8v-16.3
				h-3v-5.3h3v-7.9L334.6,154.4L334.6,154.4z"/>
		</g>
		<path class="st11" d="M354.9,182.8v3.7c-0.2,3.1-1.1,5.3-3.2,6.9c-1.1,0.9-2.5,1.3-4.4,1.3c-3.8,0-5.7-2.1-6.7-4.2
			c-0.5-1.2-0.9-2.6-0.9-4.2v-16.1c0.2-3.1,1.2-5.4,3.3-7.1c1-0.9,2.5-1.3,4.4-1.3c3.8,0,5.7,2.1,6.7,4.1c0.5,1.2,0.9,2.6,0.9,4.1
			v9.3h-9.7v6.9c0.1,1.2,0.4,2.1,0.9,2.7c0.3,0.3,0.7,0.5,1.2,0.5c1.1,0,1.6-0.7,1.9-1.6c0.2-0.5,0.2-1,0.2-1.6v-3.5L354.9,182.8
			L354.9,182.8z M345.1,174.7h4.3v-4.5c0-1.2-0.2-2.1-0.8-2.8c-0.3-0.3-0.8-0.5-1.3-0.5c-1.1,0-1.6,0.8-1.9,1.6
			c-0.2,0.5-0.2,1-0.3,1.6L345.1,174.7L345.1,174.7z"/>
		<g>
			<path class="st11" d="M368.7,168.4c-0.5-0.2-1.1-0.2-1.6-0.2c-0.9,0-2,0.1-3,1c-1.1,0.9-1.3,1.9-1.3,2.9v22.2h-5.9v-31.9h5.9v3.6
				c0.1-0.4,0.5-1.4,1.4-2.3c0.9-0.9,2.3-1.7,4.5-1.7L368.7,168.4L368.7,168.4z"/>
			<path class="st11" d="M378.8,170.5c0-0.8,0-1.7-0.2-2.5c-0.3-0.7-0.8-1.3-1.7-1.3c-0.8,0-1.2,0.6-1.5,1.3
				c-0.3,0.7-0.4,1.7-0.4,2.5c0,1,0.5,2,1.3,3c0.7,0.9,1.6,1.9,2.6,2.7c1.2,1.2,2.7,2.6,3.7,4.2c1,1.6,1.8,3.4,1.8,5.5
				c0,2-0.5,4.2-1.6,5.8c-1.2,1.7-3.1,2.9-5.9,2.9c-3.6,0-5.7-1.6-6.8-3.6s-1.4-4.4-1.4-6.1h5.5c0,0.9,0.1,2.1,0.5,3
				c0.4,1,1.1,1.8,2.3,1.8c1.7,0,2-2,2-3.9c0-1.9-1.9-3.9-3.7-5.7c-1.4-1.3-2.7-2.6-3.8-4.1c-1.1-1.6-1.8-3.3-1.8-5.7
				c0-1.9,0.4-4,1.5-5.7c1.1-1.6,2.9-2.9,5.7-2.9c3.4-0.1,5.4,1.2,6.4,2.9c1,1.7,1.2,3.9,1.2,5.7L378.8,170.5L378.8,170.5z"/>
			<path class="st11" d="M391.7,194.2h-5.9v-42.9h5.9V165c0.1-0.1,0.4-0.3,0.7-0.6c0.6-0.6,1.5-1.5,2.6-2.1c0.5-0.3,1-0.4,1.5-0.4
				c1.6,0,2.7,0.9,3.4,2.1c0.7,1.2,1.1,2.8,1.1,4.1v26.1h-5.9v-25.3c0-1.2-0.7-1.4-1.4-1.4c-0.6,0-1,0.4-1.4,0.8
				c-0.2,0.2-0.4,0.5-0.5,0.8L391.7,194.2L391.7,194.2z"/>
		</g>
		<path class="st11" d="M417.9,182.8v3.7c-0.2,3.1-1.1,5.3-3.2,6.9c-1.1,0.9-2.5,1.3-4.4,1.3c-3.8,0-5.7-2.1-6.7-4.2
			c-0.5-1.2-0.9-2.6-0.9-4.2v-16.1c0.2-3.1,1.2-5.4,3.3-7.1c1-0.9,2.5-1.3,4.4-1.3c3.8,0,5.7,2.1,6.7,4.1c0.5,1.2,0.9,2.6,0.9,4.1
			v9.3h-9.7v6.9c0.1,1.2,0.4,2.1,0.9,2.7c0.3,0.3,0.7,0.5,1.2,0.5c1.1,0,1.6-0.7,1.9-1.6c0.2-0.5,0.2-1,0.2-1.6v-3.5L417.9,182.8
			L417.9,182.8z M408.2,174.7h4.3v-4.5c0-1.2-0.2-2.1-0.8-2.8c-0.3-0.3-0.8-0.5-1.3-0.5c-1.1,0-1.6,0.8-1.9,1.6
			c-0.2,0.5-0.2,1-0.3,1.6L408.2,174.7L408.2,174.7z"/>
		<path class="st11" d="M434.8,194.2h-5.9v-2.1c-1,0.9-1.9,1.6-3,2.2c-0.6,0.3-1.2,0.4-1.7,0.4c-1.6,0-2.7-0.9-3.4-2.2
			c-0.8-1.2-1.1-2.7-1.1-4.1v-20.4c0-1.3,0.4-2.9,1.1-4.1c0.7-1.2,1.8-2.1,3.4-2.1c1.1,0,2.3,0.6,3.2,1.3c0.5,0.4,1,0.8,1.5,1.3
			v-13.1h5.9L434.8,194.2L434.8,194.2z M428.9,169.3c0-0.9-0.9-1.9-1.8-1.9s-1.6,0.8-1.6,1.9v17.9c0,1.1,0.7,1.9,1.6,1.9
			s1.8-0.8,1.8-1.9V169.3z"/>
		<g>
			<path class="st11" d="M462.5,179.5v5.9c-0.1,1.8-0.4,3.3-1.1,4.7c-0.5,1.2-1.3,2.3-2.5,3.2c-1.2,0.9-2.7,1.5-4.8,1.5
				s-3.7-0.5-4.9-1.5c-1.2-0.9-1.9-2-2.5-3.2c-0.6-1.3-1-2.9-1.1-4.7v-25.3c0.1-1.7,0.4-3.3,1.1-4.6c0.5-1.2,1.3-2.3,2.5-3.2
				c1.2-0.9,2.8-1.5,4.9-1.5s3.7,0.6,4.8,1.5c1.2,0.9,2,2,2.5,3.2c0.6,1.3,1,2.9,1.1,4.6v5.9h-5.9v-5.9c0-1.2-0.3-2-0.9-2.7
				c-0.3-0.3-0.8-0.5-1.5-0.5c-1.1,0-1.6,0.8-1.9,1.6c-0.2,0.5-0.2,1-0.3,1.6v25.3c0.1,1.2,0.4,2,1,2.7c0.3,0.3,0.7,0.5,1.2,0.5
				c1.3,0,1.9-0.7,2.2-1.6c0.2-0.4,0.2-0.9,0.2-1.6v-5.9L462.5,179.5L462.5,179.5z"/>
			<path class="st11" d="M479.1,186.4c-0.2,3.1-1.1,5.3-3.2,6.9c-1.1,0.9-2.5,1.3-4.4,1.3c-3.8,0-5.7-2.1-6.6-4.2
				c-0.5-1.2-0.9-2.6-0.9-4.2v-16.1c0.2-3.1,1.1-5.4,3.2-7.1c1-0.9,2.5-1.3,4.4-1.3c3.8,0,5.7,2.1,6.7,4.1c0.5,1.2,0.9,2.6,0.9,4.1
				L479.1,186.4L479.1,186.4z M473.5,170.2c0.1-1.2-0.2-2.1-0.8-2.8c-0.3-0.3-0.8-0.5-1.3-0.5c-1.1,0-1.6,0.8-1.8,1.6
				c-0.2,0.5-0.2,1-0.2,1.6v16.1c-0.1,1.2,0.2,2.1,0.8,2.7c0.3,0.3,0.7,0.5,1.2,0.5c1.1,0,1.6-0.7,1.9-1.6c0.2-0.5,0.2-1,0.2-1.6
				V170.2L473.5,170.2z"/>
			<path class="st11" d="M486.9,194.2H481v-31.9h5.9v2.7c0.1-0.1,0.4-0.3,0.7-0.6c0.6-0.6,1.5-1.5,2.6-2.1c0.5-0.3,1-0.4,1.5-0.4
				c1.6,0,2.7,0.9,3.4,2.1c0.7,1.2,1.1,2.8,1.1,4.1v26.1h-5.9v-25.3c0-1.2-0.7-1.4-1.4-1.4c-0.6,0-1,0.4-1.4,0.8
				c-0.2,0.2-0.4,0.5-0.5,0.8L486.9,194.2L486.9,194.2z"/>
			<path class="st11" d="M500.3,194.2v-26.6h-3v-5.3h3v-0.9c0-1.6,0.1-4.3,0.9-6.4c0.8-2.2,2.5-3.9,5.9-3.9c0.9,0,1.6,0.1,2,0.2
				l0.7,0.2v5.1c-0.2-0.1-0.4-0.1-0.5-0.1c-0.4-0.1-0.8-0.1-1.2-0.1c-1,0-1.5,0.9-1.7,2c-0.1,0.6-0.2,1.2-0.2,1.8v2.2h3v5.3h-3v26.6
				L500.3,194.2L500.3,194.2z"/>
			<path class="st11" d="M525.6,182.8v3.7c-0.2,3.1-1.1,5.3-3.2,6.9c-1.1,0.9-2.5,1.3-4.4,1.3c-3.8,0-5.7-2.1-6.7-4.2
				c-0.5-1.2-0.9-2.6-0.9-4.2v-16.1c0.2-3.1,1.2-5.4,3.3-7.1c1-0.9,2.5-1.3,4.4-1.3c3.8,0,5.7,2.1,6.7,4.1c0.5,1.2,0.9,2.6,0.9,4.1
				v9.3h-9.7v6.9c0.1,1.2,0.4,2.1,0.9,2.7c0.3,0.3,0.7,0.5,1.2,0.5c1.1,0,1.6-0.7,1.9-1.6c0.2-0.5,0.2-1,0.2-1.6v-3.5L525.6,182.8
				L525.6,182.8z M515.8,174.7h4.3v-4.5c0-1.2-0.2-2.1-0.8-2.8c-0.3-0.3-0.8-0.5-1.3-0.5c-1.1,0-1.6,0.8-1.9,1.6
				c-0.2,0.5-0.2,1-0.3,1.6L515.8,174.7L515.8,174.7z"/>
			<path class="st11" d="M539.2,168.4c-0.5-0.2-1.1-0.2-1.6-0.2c-0.9,0-2,0.1-3,1c-1.1,0.9-1.3,1.9-1.3,2.9v22.2h-5.9v-31.9h5.9v3.6
				c0.1-0.4,0.5-1.4,1.4-2.3c0.9-0.9,2.3-1.7,4.5-1.7L539.2,168.4L539.2,168.4z"/>
			<path class="st11" d="M555.2,182.8v3.7c-0.2,3.1-1.1,5.3-3.2,6.9c-1.1,0.9-2.5,1.3-4.4,1.3c-3.8,0-5.7-2.1-6.7-4.2
				c-0.5-1.2-0.9-2.6-0.9-4.2v-16.1c0.2-3.1,1.2-5.4,3.3-7.1c1-0.9,2.5-1.3,4.4-1.3c3.8,0,5.7,2.1,6.7,4.1c0.5,1.2,0.9,2.6,0.9,4.1
				v9.3h-9.7v6.9c0.1,1.2,0.4,2.1,0.9,2.7c0.3,0.3,0.7,0.5,1.2,0.5c1.1,0,1.6-0.7,1.9-1.6c0.2-0.5,0.2-1,0.2-1.6v-3.5L555.2,182.8
				L555.2,182.8z M545.5,174.7h4.3v-4.5c0-1.2-0.2-2.1-0.8-2.8c-0.3-0.3-0.8-0.5-1.3-0.5c-1.1,0-1.6,0.8-1.9,1.6
				c-0.2,0.5-0.2,1-0.3,1.6L545.5,174.7L545.5,174.7z"/>
			<path class="st11" d="M562.9,194.2H557v-31.9h5.9v2.7c0.1-0.1,0.4-0.3,0.7-0.6c0.6-0.6,1.5-1.5,2.6-2.1c0.5-0.3,1-0.4,1.5-0.4
				c1.6,0,2.7,0.9,3.4,2.1c0.7,1.2,1.1,2.8,1.1,4.1v26.1h-5.9v-25.3c0-1.2-0.7-1.4-1.4-1.4c-0.6,0-1,0.4-1.4,0.8
				c-0.2,0.2-0.4,0.5-0.5,0.8L562.9,194.2L562.9,194.2z"/>
			<path class="st11" d="M579.9,186.9c0,1.2,0.1,2.6,1.6,2.6c1.3,0,1.7-0.6,1.7-2.6v-4.4h5.9v3.1c0,3.6-0.6,5.8-1.9,7.2
				c-1.3,1.4-3.2,1.9-5.7,1.9c-2.1,0-4-0.6-5.4-2c-1.3-1.5-2.2-3.9-2.2-7.4v-13.9c0-3.6,0.8-6,2.2-7.4c1.3-1.5,3.3-2,5.4-2
				c2.5,0,4.4,0.5,5.7,1.9c1.3,1.4,1.9,3.7,1.9,7.2v2.5h-5.9v-3.9c0-1.9-0.3-2.6-1.7-2.6c-1.6,0-1.6,1.4-1.6,2.6V186.9L579.9,186.9z
				"/>
			<path class="st11" d="M605.8,182.8v3.7c-0.2,3.1-1.1,5.3-3.2,6.9c-1.1,0.9-2.5,1.3-4.4,1.3c-3.8,0-5.7-2.1-6.7-4.2
				c-0.5-1.2-0.9-2.6-0.9-4.2v-16.1c0.2-3.1,1.2-5.4,3.3-7.1c1-0.9,2.5-1.3,4.4-1.3c3.8,0,5.7,2.1,6.7,4.1c0.5,1.2,0.9,2.6,0.9,4.1
				v9.3H596v6.9c0.1,1.2,0.4,2.1,0.9,2.7c0.3,0.3,0.7,0.5,1.2,0.5c1.1,0,1.6-0.7,1.9-1.6c0.2-0.5,0.2-1,0.2-1.6v-3.5L605.8,182.8
				L605.8,182.8z M596,174.7h4.3v-4.5c0-1.2-0.2-2.1-0.8-2.8c-0.3-0.3-0.8-0.5-1.3-0.5c-1.1,0-1.6,0.8-1.9,1.6
				c-0.2,0.5-0.2,1-0.3,1.6L596,174.7L596,174.7z"/>
		</g>
	</g>
</g>
<g>
	<defs>
		<path id="SVGID_00000154388316593041645180000000066612015773783690_" d="M458.2,234.9H263c18.9,87.2,96.5,152.5,189.3,152.5
			c107,0,193.7-86.7,193.7-193.7c0-1.6,0-3.1-0.1-4.7l-84.9,0L458.2,234.9L458.2,234.9z"/>
	</defs>
	<clipPath id="SVGID_00000132076463502383117850000009688187862732754311_">
		<use xlink:href="#SVGID_00000154388316593041645180000000066612015773783690_"  style="overflow:visible;"/>
	</clipPath>
	<g style="clip-path:url(#SVGID_00000132076463502383117850000009688187862732754311_);">
		<rect y="38.5" class="st3" width="1013.8" height="643.9"/>
		<polygon class="st3" points="465.2,245.5 567.8,199.3 471.9,252.1 		"/>
		<polygon class="st3" points="476.8,263 579.4,216.7 483.5,269.5 		"/>
		<polygon class="st3" points="488.4,280.4 591,234.1 495,287 		"/>
		<polygon class="st3" points="499.9,297.8 602.5,251.6 506.6,304.4 		"/>
		<polygon class="st3" points="511.5,315.3 614.1,269 518.2,321.9 		"/>
		<polygon class="st3" points="523.1,332.7 625.7,286.5 529.7,339.3 		"/>
		<polygon class="st3" points="534.6,350.2 637.2,303.9 541.3,356.8 		"/>
		<polygon class="st3" points="546.2,367.6 648.8,321.4 552.9,374.2 		"/>
		<polygon class="st3" points="557.8,385.1 660.4,338.8 564.4,391.7 		"/>
		<polygon class="st3" points="569.3,402.5 672,356.3 576,409.1 		"/>
		<polygon class="st3" points="580.9,420 683.5,373.7 587.6,426.6 		"/>
		<polygon class="st9" points="465.2,245.5 567.8,199.3 471.9,252.1 		"/>
		<polygon class="st9" points="476.8,263 579.4,216.7 483.5,269.5 		"/>
		<polygon class="st9" points="488.4,280.4 591,234.1 495,287 		"/>
		<polygon class="st9" points="499.9,297.8 602.5,251.6 506.6,304.4 		"/>
		<polygon class="st9" points="511.5,315.3 614.1,269 518.2,321.9 		"/>
		<polygon class="st9" points="523.1,332.7 625.7,286.5 529.7,339.3 		"/>
		<polygon class="st9" points="534.6,350.2 637.2,303.9 541.3,356.8 		"/>
		<polygon class="st9" points="546.2,367.6 648.8,321.4 552.9,374.2 		"/>
		<polygon class="st9" points="557.8,385.1 660.4,338.8 564.4,391.7 		"/>
		<polygon class="st9" points="569.3,402.5 672,356.3 576,409.1 		"/>
		<polygon class="st9" points="580.9,420 683.5,373.7 587.6,426.6 		"/>
		<path class="st7" d="M484.5,242.4c0,16.2-13.1,29.4-29.4,29.4s-29.4-13.1-29.4-29.4s13.1-29.4,29.4-29.4S484.5,226.2,484.5,242.4"
			/>
		<path class="st7" d="M516.8,291.1c0,16.2-13.1,29.4-29.4,29.4s-29.4-13.1-29.4-29.4s13.1-29.4,29.4-29.4S516.8,274.9,516.8,291.1"
			/>
		<path class="st7" d="M549.1,339.8c0,16.2-13.1,29.4-29.4,29.4s-29.4-13.1-29.4-29.4s13.1-29.4,29.4-29.4S549.1,323.6,549.1,339.8"
			/>
		<path class="st7" d="M581.4,388.5c0,16.2-13.1,29.4-29.4,29.4s-29.4-13.1-29.4-29.4s13.1-29.4,29.4-29.4S581.4,372.3,581.4,388.5"
			/>
		<path class="st8" d="M464.4,249.8c0,11.4-9.3,20.7-20.7,20.7s-20.7-9.3-20.7-20.7s9.3-20.7,20.7-20.7S464.4,238.4,464.4,249.8"/>
		<path class="st8" d="M484.7,281.3c0,11.4-9.3,20.7-20.7,20.7s-20.7-9.3-20.7-20.7s9.3-20.7,20.7-20.7S484.7,269.9,484.7,281.3"/>
		<path class="st8" d="M504.9,312.8c0,11.4-9.3,20.7-20.7,20.7s-20.7-9.3-20.7-20.7s9.3-20.7,20.7-20.7S504.9,301.4,504.9,312.8"/>
		<path class="st8" d="M525.2,344.3c0,11.4-9.3,20.7-20.7,20.7s-20.7-9.3-20.7-20.7s9.3-20.7,20.7-20.7S525.2,332.9,525.2,344.3"/>
		<path class="st8" d="M545.5,375.8c0,11.4-9.3,20.7-20.7,20.7s-20.7-9.3-20.7-20.7s9.3-20.7,20.7-20.7S545.5,364.4,545.5,375.8"/>
		<path class="st8" d="M565.8,407.3c0,11.4-9.3,20.7-20.7,20.7s-20.7-9.3-20.7-20.7s9.3-20.7,20.7-20.7S565.8,395.9,565.8,407.3"/>
		<path class="st9" d="M452.8,255.5c0,15.5-12.6,28-28,28s-28-12.6-28-28s12.6-28,28-28S452.8,240,452.8,255.5"/>
		<path class="st9" d="M476.9,295.7c0,15.5-12.6,28-28,28s-28-12.6-28-28s12.6-28,28-28S476.9,280.2,476.9,295.7"/>
		<path class="st9" d="M501,335.8c0,15.5-12.6,28-28,28s-28-12.6-28-28s12.6-28,28-28S501,320.4,501,335.8"/>
		<path class="st9" d="M525.1,376c0,15.5-12.6,28-28,28s-28-12.6-28-28s12.6-28,28-28C512.6,348,525.1,360.5,525.1,376"/>
		<path class="st9" d="M549.2,416.2c0,15.5-12.6,28-28,28s-28-12.6-28-28s12.6-28,28-28C536.7,388.1,549.2,400.7,549.2,416.2"/>
		<path class="st3" d="M420.7,250.5c0,8.6-6.9,15.5-15.5,15.5s-15.5-6.9-15.5-15.5s6.9-15.5,15.5-15.5S420.7,241.9,420.7,250.5"/>
		<path class="st3" d="M432.3,271.6c0,8.6-6.9,15.5-15.5,15.5s-15.5-6.9-15.5-15.5s6.9-15.5,15.5-15.5S432.3,263,432.3,271.6"/>
		<path class="st3" d="M443.8,292.7c0,8.6-6.9,15.5-15.5,15.5s-15.5-6.9-15.5-15.5s6.9-15.5,15.5-15.5S443.8,284.2,443.8,292.7"/>
		<path class="st3" d="M455.4,313.9c0,8.6-6.9,15.5-15.5,15.5s-15.5-6.9-15.5-15.5s6.9-15.5,15.5-15.5S455.4,305.3,455.4,313.9"/>
		<path class="st3" d="M467,335c0,8.6-6.9,15.5-15.5,15.5s-15.5-6.9-15.5-15.5s6.9-15.5,15.5-15.5S467,326.4,467,335"/>
		<path class="st3" d="M478.5,356.1c0,8.6-6.9,15.5-15.5,15.5s-15.5-6.9-15.5-15.5s6.9-15.5,15.5-15.5S478.5,347.6,478.5,356.1"/>
		<path class="st3" d="M490.1,377.3c0,8.6-6.9,15.5-15.5,15.5s-15.5-6.9-15.5-15.5s6.9-15.5,15.5-15.5S490.1,368.7,490.1,377.3"/>
		<path class="st3" d="M501.7,398.4c0,8.6-6.9,15.5-15.5,15.5s-15.5-6.9-15.5-15.5s6.9-15.5,15.5-15.5S501.7,389.9,501.7,398.4"/>
	</g>
</g>
<polygon class="st3" points="371.2,241.5 390.8,243.5 450.6,355.8 434.8,377.1 "/>
<polygon class="st9" points="407.6,234.2 408.8,235.3 442.2,235.3 440.6,234.5 "/>
<polygon class="st7" points="458,234.6 458.3,235.2 479.4,225.9 478.8,225.3 "/>
<path class="st5" d="M871.2,187.3c0,47.2-38.2,85.4-85.4,85.4s-85.4-38.2-85.4-85.4s38.2-85.4,85.4-85.4S871.2,140.1,871.2,187.3"/>
<g>
	<defs>
		<path id="SVGID_00000095302413710698792010000004897792260385528230_" d="M700.5,187.3c0,47.2,38.2,85.4,85.4,85.4
			s85.4-38.2,85.4-85.4s-38.2-85.4-85.4-85.4S700.5,140.1,700.5,187.3"/>
	</defs>
	<clipPath id="SVGID_00000142854594444101578430000014718847374207059339_">
		<use xlink:href="#SVGID_00000095302413710698792010000004897792260385528230_"  style="overflow:visible;"/>
	</clipPath>
	<g style="clip-path:url(#SVGID_00000142854594444101578430000014718847374207059339_);">
		<g>
			<path class="st11" d="M720,151.2v-11c7.2-1.4,11.5-5.1,14.5-8.3c1.6-1.9,2.9-4,3.8-6h10.3v117h-17.2v-91.7L720,151.2L720,151.2z"
				/>
			<path class="st11" d="M781.7,187.5c0-4.9-1.8-8.6-5.4-8.6c-1.9,0-3.5,1.4-4.8,3.2c-1.3,1.9-1.9,4.1-1.9,5.4h-14.5v-61.6h41.5v17
				H770v24.3c1.9-1.4,4-2.7,6.4-3.5c1.1-0.5,2.4-0.6,3.5-0.5c8.9,0,13.7,5.1,16.2,10.7s2.9,11.6,2.9,13.5v26.1
				c0,5.6-0.3,13-3.3,19.3c-3,6.4-8.8,11.3-19.1,11.3c-10.7,0-16.1-4.9-19.1-11.9c-3-6.8-3.3-15.6-3.3-23.4h17.2v4.6
				c0,5.9,0.3,10,1.1,12.3c0.8,2.4,2.1,3.5,4.1,3.5c1.8,0,3.2-1.1,4-3.3c0.8-2.2,1.3-6.4,1.3-12.3L781.7,187.5L781.7,187.5z"/>
		</g>
		<g>
			<path class="st11" d="M815.1,126.6v12.5h6.4v8.4h-6.4v25.2c0,1.6,0,3.6,0.4,5.3s1.1,3.1,2.6,3.1c0.7,0,1.7-0.1,2.3-0.2
				c0.4-0.1,0.7-0.1,1.1-0.2v9.2c-0.5,0.1-0.9,0.3-1.4,0.4c-0.9,0.2-2.1,0.3-3.6,0.3c-5.5,0-8.1-2.8-9.4-6.3s-1.4-7.8-1.4-10.8v-26
				H801v-8.4h4.7v-12.5L815.1,126.6L815.1,126.6z"/>
			<path class="st11" d="M833,189.9h-9.4v-68.2h9.4v21.7c0.2-0.1,0.6-0.5,1.1-1c1-1,2.4-2.4,4.1-3.3c0.8-0.5,1.6-0.6,2.4-0.6
				c2.5,0,4.3,1.5,5.4,3.3c1.1,1.9,1.7,4.5,1.7,6.6v41.6h-9.4v-40.2c0-1.9-1.1-2.2-2.2-2.2c-1,0-1.6,0.6-2.2,1.2
				c-0.3,0.4-0.6,0.7-0.8,1.2L833,189.9L833,189.9z"/>
		</g>
		<path class="st7" d="M802.3,209.9c0,7.5-6.1,13.7-13.7,13.7s-13.7-6.1-13.7-13.7s6.1-13.7,13.7-13.7S802.3,202.4,802.3,209.9"/>
		<path class="st8" d="M792.9,213.4c0,5.3-4.3,9.6-9.6,9.6s-9.6-4.3-9.6-9.6s4.3-9.6,9.6-9.6S792.9,208.1,792.9,213.4"/>
		<path class="st9" d="M787.5,216c0,7.2-5.8,13.1-13.1,13.1s-13.1-5.8-13.1-13.1s5.8-13.1,13.1-13.1S787.5,208.8,787.5,216"/>
	</g>
</g>
<g>
	<defs>
		<path id="SVGID_00000113338741531337119910000004859089279484049066_" d="M790,206.5h-90.9c8.8,40.6,44.9,71,88.1,71
			c49.8,0,90.2-40.4,90.2-90.2c0-0.7,0-1.5,0-2.2l-39.5,0L790,206.5L790,206.5z"/>
	</defs>
	<clipPath id="SVGID_00000090296296529783653600000008396288187193098171_">
		<use xlink:href="#SVGID_00000113338741531337119910000004859089279484049066_"  style="overflow:visible;"/>
	</clipPath>
	<g style="clip-path:url(#SVGID_00000090296296529783653600000008396288187193098171_);">
		<rect x="576.7" y="115" class="st3" width="471.9" height="299.7"/>
		<polygon class="st3" points="793.3,211.4 841.1,189.8 796.4,214.4 		"/>
		<polygon class="st3" points="798.7,219.5 846.4,198 801.8,222.6 		"/>
		<polygon class="st3" points="804.1,227.6 851.8,206.1 807.2,230.7 		"/>
		<polygon class="st3" points="809.4,235.7 857.2,214.2 812.6,238.8 		"/>
		<polygon class="st3" points="814.8,243.9 862.6,222.3 817.9,246.9 		"/>
		<polygon class="st3" points="820.2,252 868,230.5 823.3,255 		"/>
		<polygon class="st3" points="825.6,260.1 873.4,238.6 828.7,263.2 		"/>
		<polygon class="st3" points="831,268.2 878.8,246.7 834.1,271.3 		"/>
		<polygon class="st3" points="836.4,276.3 884.1,254.8 839.5,279.4 		"/>
		<polygon class="st3" points="841.8,284.5 889.5,262.9 844.9,287.5 		"/>
		<polygon class="st3" points="847.1,292.6 894.9,271.1 850.2,295.6 		"/>
		<polygon class="st9" points="793.3,211.4 841.1,189.8 796.4,214.4 		"/>
		<polygon class="st9" points="798.7,219.5 846.4,198 801.8,222.6 		"/>
		<polygon class="st9" points="804.1,227.6 851.8,206.1 807.2,230.7 		"/>
		<polygon class="st9" points="809.4,235.7 857.2,214.2 812.6,238.8 		"/>
		<polygon class="st9" points="814.8,243.9 862.6,222.3 817.9,246.9 		"/>
		<polygon class="st9" points="820.2,252 868,230.5 823.3,255 		"/>
		<polygon class="st9" points="825.6,260.1 873.4,238.6 828.7,263.2 		"/>
		<polygon class="st9" points="831,268.2 878.8,246.7 834.1,271.3 		"/>
		<polygon class="st9" points="836.4,276.3 884.1,254.8 839.5,279.4 		"/>
		<polygon class="st9" points="841.8,284.5 889.5,262.9 844.9,287.5 		"/>
		<polygon class="st9" points="847.1,292.6 894.9,271.1 850.2,295.6 		"/>
		<path class="st7" d="M802.3,209.9c0,7.5-6.1,13.7-13.7,13.7s-13.7-6.1-13.7-13.7s6.1-13.7,13.7-13.7S802.3,202.4,802.3,209.9"/>
		<path class="st7" d="M817.3,232.6c0,7.5-6.1,13.7-13.7,13.7s-13.7-6.1-13.7-13.7s6.1-13.7,13.7-13.7S817.3,225.1,817.3,232.6"/>
		<path class="st7" d="M832.3,255.3c0,7.5-6.1,13.7-13.7,13.7s-13.7-6.1-13.7-13.7s6.1-13.7,13.7-13.7S832.3,247.7,832.3,255.3"/>
		<path class="st7" d="M847.4,277.9c0,7.5-6.1,13.7-13.7,13.7s-13.7-6.1-13.7-13.7s6.1-13.7,13.7-13.7S847.4,270.4,847.4,277.9"/>
		<path class="st8" d="M792.9,213.4c0,5.3-4.3,9.6-9.6,9.6s-9.6-4.3-9.6-9.6s4.3-9.6,9.6-9.6S792.9,208.1,792.9,213.4"/>
		<path class="st8" d="M802.3,228c0,5.3-4.3,9.6-9.6,9.6s-9.6-4.3-9.6-9.6s4.3-9.6,9.6-9.6S802.3,222.7,802.3,228"/>
		<path class="st8" d="M811.8,242.7c0,5.3-4.3,9.6-9.6,9.6s-9.6-4.3-9.6-9.6s4.3-9.6,9.6-9.6S811.8,237.4,811.8,242.7"/>
		<path class="st8" d="M821.2,257.4c0,5.3-4.3,9.6-9.6,9.6s-9.6-4.3-9.6-9.6s4.3-9.6,9.6-9.6S821.2,252,821.2,257.4"/>
		<path class="st8" d="M830.7,272c0,5.3-4.3,9.6-9.6,9.6s-9.6-4.3-9.6-9.6s4.3-9.6,9.6-9.6S830.7,266.7,830.7,272"/>
		<path class="st8" d="M840.1,286.7c0,5.3-4.3,9.6-9.6,9.6s-9.6-4.3-9.6-9.6s4.3-9.6,9.6-9.6S840.1,281.4,840.1,286.7"/>
		<path class="st9" d="M787.5,216c0,7.2-5.8,13.1-13.1,13.1s-13.1-5.8-13.1-13.1s5.8-13.1,13.1-13.1S787.5,208.8,787.5,216"/>
		<path class="st9" d="M798.7,234.7c0,7.2-5.8,13.1-13.1,13.1s-13.1-5.8-13.1-13.1s5.8-13.1,13.1-13.1S798.7,227.5,798.7,234.7"/>
		<path class="st9" d="M810,253.4c0,7.2-5.8,13.1-13.1,13.1s-13.1-5.8-13.1-13.1s5.8-13.1,13.1-13.1S810,246.2,810,253.4"/>
		<path class="st9" d="M821.2,272.1c0,7.2-5.8,13.1-13.1,13.1s-13.1-5.8-13.1-13.1s5.8-13.1,13.1-13.1S821.2,264.9,821.2,272.1"/>
		<path class="st9" d="M832.4,290.8c0,7.2-5.8,13.1-13.1,13.1s-13.1-5.8-13.1-13.1s5.8-13.1,13.1-13.1S832.4,283.6,832.4,290.8"/>
		<path class="st3" d="M772.6,213.7c0,4-3.2,7.2-7.2,7.2s-7.2-3.2-7.2-7.2s3.2-7.2,7.2-7.2S772.6,209.7,772.6,213.7"/>
		<path class="st3" d="M778,223.5c0,4-3.2,7.2-7.2,7.2s-7.2-3.2-7.2-7.2s3.2-7.2,7.2-7.2S778,219.5,778,223.5"/>
		<path class="st3" d="M783.3,233.4c0,4-3.2,7.2-7.2,7.2s-7.2-3.2-7.2-7.2s3.2-7.2,7.2-7.2S783.3,229.4,783.3,233.4"/>
		<path class="st3" d="M788.7,243.2c0,4-3.2,7.2-7.2,7.2s-7.2-3.2-7.2-7.2s3.2-7.2,7.2-7.2S788.7,239.2,788.7,243.2"/>
		<path class="st3" d="M794.1,253c0,4-3.2,7.2-7.2,7.2s-7.2-3.2-7.2-7.2s3.2-7.2,7.2-7.2S794.1,249,794.1,253"/>
		<path class="st3" d="M799.5,262.9c0,4-3.2,7.2-7.2,7.2s-7.2-3.2-7.2-7.2s3.2-7.2,7.2-7.2S799.5,258.9,799.5,262.9"/>
		<path class="st3" d="M804.9,272.7c0,4-3.2,7.2-7.2,7.2s-7.2-3.2-7.2-7.2s3.2-7.2,7.2-7.2S804.9,268.7,804.9,272.7"/>
		<path class="st3" d="M810.3,282.6c0,4-3.2,7.2-7.2,7.2s-7.2-3.2-7.2-7.2s3.2-7.2,7.2-7.2S810.3,278.6,810.3,282.6"/>
	</g>
</g>
<polygon class="st3" points="749.5,209.5 758.7,210.4 786.5,262.7 779.1,272.6 "/>
<polygon class="st9" points="767,206.6 782.6,206.6 781.8,206.2 766.5,206.1 "/>
<polygon class="st7" points="790,206.3 790.1,206.6 799.9,202.2 799.6,202 "/>
</svg>
